<svg width="358" height="362" viewBox="0 0 358 362" fill="none" xmlns="http://www.w3.org/2000/svg">
<g clip-path="url(#clip0)">
<path opacity="0.18" d="M117.59 331.52C155.944 351.28 198.446 361.638 241.59 361.74C257.67 361.74 273.98 360.29 289.07 354.74C327.99 340.37 353.67 296.64 347.28 255.65C345.02 241.11 339.21 227.01 339.58 212.3C339.97 196.82 347.13 182.46 351.68 167.67C356.775 151.055 358.625 133.614 357.13 116.3C354.88 90.4 344.13 64.12 323.19 48.67C314.78 42.45 305.1 38.22 295.51 34.04L251.42 14.76C225.42 3.42003 194.33 -7.67997 170.15 7.14003C148.24 20.57 141.6 50.14 121.51 66.14C96.57 86.04 54.69 82.33 38.4 109.75C24.82 132.63 38.54 162.99 29.79 188.11C26.87 196.48 21.61 203.77 16.86 211.25C1.52 235.52 -14.68 288.37 23.77 301.42C35.18 305.29 48.77 302.36 60.61 305.02C81.19 309.64 99.1 321.98 117.59 331.52Z" fill="#1A237E"/>
<path d="M31.29 274.93C31.29 274.93 58.1 267.15 55.21 241.79C52.32 216.43 58.77 169.79 73.85 170.79C88.93 171.79 164.44 170.79 164.44 170.79V228.52H114.87C114.87 228.52 118.33 247.82 109.39 261.37C100.45 274.92 95.85 272.9 95.85 272.9L31.29 274.93Z" fill="#1A237E"/>
<path d="M31.29 274.93C31.29 274.93 58.1 267.15 55.21 241.79C52.32 216.43 58.77 169.79 73.85 170.79C88.93 171.79 164.44 170.79 164.44 170.79V228.52H114.87C114.87 228.52 118.33 247.82 109.39 261.37C100.45 274.92 95.85 272.9 95.85 272.9L31.29 274.93Z" fill="url(#paint0_linear)"/>
<path d="M144.84 150.15H264.69C264.69 150.15 277.94 153.32 279.38 170.9V327.96L190.33 329.4C189.478 329.469 188.624 329.485 187.77 329.45C180.696 329.163 174.008 326.144 169.113 321.029C164.218 315.914 161.496 309.1 161.52 302.02V166.29C161.52 166.29 159.83 152.17 144.84 150.15Z" fill="#1A237E"/>
<path d="M144.84 150.15H264.69C264.69 150.15 277.94 153.32 279.38 170.9V327.96L190.33 329.4C189.291 329.478 188.249 329.478 187.21 329.4C180.241 328.986 173.695 325.919 168.917 320.828C164.139 315.738 161.492 309.011 161.52 302.03V166.29C161.52 166.29 159.83 152.17 144.84 150.15Z" fill="url(#paint1_linear)"/>
<path d="M195.85 290.88C195.85 290.88 182.13 289.52 181.99 308.13C181.85 326.74 194.31 323.13 194.31 323.13L196.95 322.98C196.95 322.98 213.53 311.54 204.58 298.92C204.58 298.89 200.91 291.52 195.85 290.88Z" fill="url(#paint2_linear)"/>
<path d="M197.32 293.52C197.32 293.52 184.98 292.27 184.85 309.04C184.72 325.81 195.94 322.52 195.94 322.52L198.31 322.39C198.31 322.39 213.23 312.09 205.18 300.73C205.18 300.68 201.87 294.06 197.32 293.52Z" fill="url(#paint3_linear)"/>
<path d="M195.85 290.88H312.69C312.69 290.88 321.24 293.95 320.38 308.08C319.52 322.21 304.53 329.4 304.53 329.4H190.37C190.37 329.4 201.9 322.63 202.05 309.4C202.2 296.17 195.85 290.88 195.85 290.88Z" fill="#1A237E"/>
<path d="M195.85 290.88H312.69C312.69 290.88 321.24 293.95 320.38 308.08C319.52 322.21 304.53 329.4 304.53 329.4H190.37C190.37 329.4 201.9 322.63 202.05 309.4C202.2 296.17 195.85 290.88 195.85 290.88Z" fill="url(#paint4_linear)"/>
<path d="M73.85 170.8C73.85 170.8 82.11 171.57 81.34 184.44C80.57 197.31 79.42 229.21 94.79 229.21C110.16 229.21 120.54 226.71 121.11 217.87C121.68 209.03 122.11 170.23 122.11 170.23L73.85 170.8Z" fill="#1A237E"/>
<path d="M144.84 150.15C144.84 150.15 123.84 149.48 122.07 170.23C120.3 190.98 121.07 217.87 121.07 217.87C121.07 217.87 118 228.87 101.86 229.4H161.69L161.6 166.29C161.6 166.29 159.44 151.78 144.84 150.15Z" fill="#1A237E"/>
<path d="M144.84 150.15C144.84 150.15 123.84 149.48 122.07 170.23C120.3 190.98 121.07 217.87 121.07 217.87C121.07 217.87 118 228.87 101.86 229.4H161.69L161.6 166.29C161.6 166.29 159.44 151.78 144.84 150.15Z" fill="url(#paint5_linear)"/>
<path d="M199.06 41.85C194.97 42.85 192.31 47.01 191.53 51.15C190.75 55.29 191.44 59.54 191.8 63.74C192.18 68.25 192.16 72.74 192.19 77.31C192.19 79.31 192.24 81.46 193.25 83.22C194.53 85.44 197.08 86.6 199.57 87.22C203.68 88.22 207.96 88.04 212.18 87.86C213.83 87.79 215.61 87.67 216.85 86.59C217.742 85.7026 218.345 84.5662 218.58 83.33C219.302 80.1637 219.675 76.9276 219.69 73.68L220.41 57.85C220.67 52.21 220.47 44.72 214.41 41.95C212.68 41.16 210.78 41.42 208.94 41.49C205.77 41.61 202.22 41.04 199.06 41.85Z" fill="#1A237E"/>
<path d="M198.56 79.44C197.31 80.44 198.56 83.88 200.56 84.44C201.78 84.77 194.56 84.91 193.8 83.89C192.949 82.6826 192.419 81.2786 192.26 79.81C192.08 75.34 192.57 70.81 192.39 66.29C192.201 64.3165 192.346 62.3252 192.82 60.4C193.71 57.47 196.03 55.21 197.28 52.4C198.65 54.03 198.47 56.4 198.34 58.54C198.151 61.7372 198.268 64.9452 198.69 68.12C198.77 69.0927 199.01 70.0455 199.4 70.94C200.65 73.51 204.4 74.15 205.16 76.94C206.12 80.52 200.62 80.07 198.56 79.44Z" fill="url(#paint6_linear)"/>
<path d="M205.13 43.31L205.89 45.22C206.21 46.02 206.66 46.92 207.5 47.1C207.937 47.1484 208.379 47.0794 208.78 46.9C209.751 46.604 210.573 45.9498 211.08 45.07C211.329 44.4345 211.425 43.7494 211.36 43.07C211.28 40.65 211.03 31.68 207.48 32.13C204.63 32.52 204.32 41.29 205.13 43.31Z" fill="url(#paint7_linear)"/>
<path d="M208.25 43.3501C208.84 43.9901 209.75 44.5601 210.53 44.18C211.31 43.8 211.45 42.9401 211.53 42.18C211.61 41.42 211.66 40.6601 211.67 39.9001C211.716 39.5277 211.633 39.1508 211.434 38.8324C211.236 38.5139 210.934 38.2731 210.58 38.1501C209.71 37.6001 206.12 35.28 206.05 37.69C206.072 39.7813 206.854 41.7932 208.25 43.3501Z" fill="url(#paint8_linear)"/>
<path d="M218.59 26.52C218.114 29.2997 217.446 32.0429 216.59 34.73C216.261 35.9073 215.773 37.0343 215.14 38.08C214.495 39.1273 213.505 39.9162 212.34 40.31C211.564 40.4871 210.759 40.4892 209.982 40.3162C209.206 40.1432 208.477 39.7995 207.85 39.31C206.673 38.4748 205.746 37.3337 205.17 36.01C204.745 34.9632 204.485 33.8567 204.4 32.73C204.057 29.7721 204.578 26.7781 205.9 24.11C206.332 23.2253 206.941 22.439 207.69 21.8C208.428 21.256 209.273 20.8726 210.168 20.6745C211.064 20.4765 211.991 20.4681 212.89 20.65C214.685 21.0208 216.404 21.6973 217.97 22.65C219.37 23.45 218.82 25.21 218.59 26.52Z" fill="url(#paint9_linear)"/>
<path d="M218.33 19.09C218.841 19.5087 219.297 19.989 219.69 20.52L221.79 23.12C222.113 23.4509 222.335 23.8672 222.43 24.32C222.448 24.7199 222.34 25.1154 222.12 25.45C221.77 26.0204 221.288 26.4993 220.716 26.8471C220.144 27.1948 219.498 27.4015 218.83 27.45C217.304 27.4076 215.817 26.9513 214.53 26.13C214.335 26.4074 214.061 26.6196 213.743 26.7391C213.426 26.8586 213.08 26.8798 212.75 26.8C212.08 26.69 211.46 26.38 210.75 26.29C210.16 26.2285 209.565 26.3269 209.026 26.575C208.488 26.8232 208.026 27.2118 207.69 27.7C207.5 27.98 207.17 28.34 206.91 28.12C206.862 28.0751 206.822 28.0211 206.795 27.961C206.768 27.9009 206.752 27.836 206.75 27.77C206.64 27.21 206.35 26.52 205.75 26.55C205.566 26.576 205.396 26.663 205.267 26.7972C205.138 26.9314 205.058 27.1049 205.04 27.29C205.019 27.6571 205.073 28.0248 205.2 28.37L205.69 29.96C205.705 30.0224 205.705 30.0875 205.69 30.15C205.69 30.32 205.4 30.31 205.22 30.33C204.82 30.33 204.57 30.78 204.45 31.16C204.373 31.5576 204.209 31.9333 203.97 32.26C203.927 32.305 203.871 32.3363 203.81 32.35C203.743 32.3423 203.68 32.3144 203.63 32.27C203.339 31.9662 203.113 31.6067 202.965 31.2131C202.818 30.8195 202.751 30.4 202.77 29.98C202.67 28.76 202.6 27.53 202.55 26.3C202.444 25.3336 202.543 24.3557 202.84 23.43C203.163 22.709 203.583 22.0359 204.09 21.43C204.539 20.754 205.077 20.1417 205.69 19.61C206.647 18.9535 207.755 18.5509 208.91 18.44C210.596 18.1389 212.307 18.0016 214.02 18.03C215.532 17.9281 217.038 18.2985 218.33 19.09Z" fill="#3E3E54"/>
<path d="M225.38 52.79C226.67 56.79 226.63 61.1201 226.56 65.3501C226.572 66.91 226.458 68.4684 226.22 70.01C226.021 71.3122 225.517 72.549 224.75 73.62C224.365 74.1522 223.872 74.5973 223.303 74.9264C222.735 75.2554 222.103 75.4611 221.45 75.5301C220.912 75.5728 220.374 75.4581 219.9 75.2001C218.69 74.4901 218.51 72.85 218.46 71.4501L217.88 54.9901C217.79 52.4801 213.2 45.4701 213.64 42.9901C214.12 40.3001 220.15 45.0501 221.59 46.4701C223.341 48.2428 224.641 50.4103 225.38 52.79Z" fill="#1A237E"/>
<path d="M224.84 58.0799C224.84 57.7099 224.84 57.2499 224.51 57.0799C224.407 57.0383 224.295 57.0238 224.185 57.0378C224.074 57.0518 223.969 57.0938 223.88 57.1599C223.676 57.3509 223.515 57.5839 223.41 57.8429C223.305 58.1019 223.257 58.3807 223.27 58.6599C223.16 59.8499 223.04 61.0399 222.93 62.2299C222.87 62.9299 222.46 64.1699 223.53 63.9899C225.08 63.7299 224.76 59.2399 224.84 58.0799Z" fill="#3E3E54"/>
<path d="M222.07 62.12C221.547 62.1793 221.045 62.3569 220.602 62.6394C220.158 62.9218 219.785 63.3017 219.51 63.75C219.475 63.813 219.448 63.8802 219.43 63.95C219.427 64.0432 219.455 64.1346 219.51 64.21C219.675 64.4134 219.882 64.5786 220.116 64.6943C220.351 64.81 220.608 64.8733 220.87 64.88C222.01 65.0651 223.165 65.1454 224.32 65.12C224.558 65.1353 224.794 65.0796 225 64.96C225.179 64.7991 225.301 64.5854 225.35 64.35C225.57 63.63 226 62.23 225.06 62.03C224.574 62.0368 224.09 62.0769 223.61 62.15C223.098 62.1099 222.583 62.0999 222.07 62.12Z" fill="url(#paint10_linear)"/>
<path d="M185.09 56.5199C183.39 58.7199 181.6 61.2699 182.03 64.0099C182.388 65.6242 183.236 67.0879 184.46 68.1999C188.27 72.1099 193.56 74.0999 198.68 75.9799C198.896 76.0907 199.141 76.1293 199.38 76.0899C199.582 76.0233 199.76 75.898 199.89 75.7299C201.55 73.7799 200.35 70.7299 198.54 68.8799C196.73 67.0299 194.34 65.74 193.17 63.4599C193.038 63.2551 192.975 63.0133 192.99 62.7699C193.073 62.495 193.241 62.2535 193.47 62.0799C196.32 59.4899 198.93 56.3399 199.66 52.5599C200.13 50.0999 198.73 42.0499 194.8 44.2899C192.91 45.3599 191.4 48.3499 190.09 50.0499L185.09 56.5199Z" fill="#1A237E"/>
<path d="M192.96 87.72L198.2 146.07L191.36 149.82L204.36 149.16L205.9 100.16L211.2 99.93L215.4 149.62L228.87 150.5L221.8 145.43L222.17 84.43L194.58 84.36C192.96 84.38 192.81 86.08 192.96 87.72Z" fill="#3E3E54"/>
<path d="M210.1 64.99C210.295 64.412 210.697 63.9266 211.229 63.6275C211.761 63.3284 212.385 63.2367 212.98 63.37C218.007 63.37 223.033 63.5734 228.06 63.98C228.712 63.9535 229.35 64.1791 229.84 64.61C230.051 64.975 230.166 65.3873 230.175 65.8086C230.183 66.2299 230.085 66.6467 229.89 67.02C227.734 72.998 225.164 78.8187 222.2 84.44C222.104 84.6653 221.968 84.8718 221.8 85.05C221.364 85.3852 220.818 85.5457 220.27 85.5C214.36 85.7185 208.442 85.5716 202.55 85.06C202.21 85.06 201.8 84.96 201.66 84.64C201.33 83.89 202.96 81.64 203.28 80.8C203.94 79.06 204.56 77.3 205.28 75.57C206.69 71.98 208.32 68.44 210.1 64.99Z" fill="white"/>
<path d="M203.47 70.7599C204.27 70.5899 205.32 70.5899 205.64 71.3399C205.83 71.7899 205.69 72.4199 206.1 72.6899C206.259 72.777 206.44 72.8152 206.62 72.7999C207.26 72.7999 207.89 72.65 208.52 72.68C208.838 72.6668 209.154 72.7342 209.439 72.8758C209.724 73.0174 209.968 73.2286 210.15 73.4899C210.285 73.8128 210.339 74.1637 210.308 74.5122C210.276 74.8608 210.16 75.1964 209.97 75.4899C209.675 76.0826 209.294 76.6285 208.84 77.1099C208.49 77.5003 208.065 77.8165 207.59 78.0399C207.151 78.221 206.684 78.3226 206.21 78.3399C204.217 78.5037 202.221 78.0758 200.47 77.1099C199.45 76.6379 198.641 75.8041 198.2 74.7699C197.1 71.6199 201.48 71.1599 203.47 70.7599Z" fill="url(#paint11_linear)"/>
<path d="M263.86 168.88H188.93C187.339 168.88 186.05 170.169 186.05 171.76C186.05 173.351 187.339 174.64 188.93 174.64H263.86C265.451 174.64 266.74 173.351 266.74 171.76C266.74 170.169 265.451 168.88 263.86 168.88Z" fill="url(#paint12_linear)"/>
<path d="M263.86 181.56H188.93C187.339 181.56 186.05 182.849 186.05 184.44C186.05 186.031 187.339 187.32 188.93 187.32H263.86C265.451 187.32 266.74 186.031 266.74 184.44C266.74 182.849 265.451 181.56 263.86 181.56Z" fill="url(#paint13_linear)"/>
<path d="M263.86 194.24H188.93C187.339 194.24 186.05 195.529 186.05 197.12C186.05 198.711 187.339 200 188.93 200H263.86C265.451 200 266.74 198.711 266.74 197.12C266.74 195.529 265.451 194.24 263.86 194.24Z" fill="url(#paint14_linear)"/>
<path d="M263.86 206.92H188.93C187.339 206.92 186.05 208.209 186.05 209.8C186.05 211.391 187.339 212.68 188.93 212.68H263.86C265.451 212.68 266.74 211.391 266.74 209.8C266.74 208.209 265.451 206.92 263.86 206.92Z" fill="url(#paint15_linear)"/>
<path d="M263.86 219.6H188.93C187.339 219.6 186.05 220.889 186.05 222.48C186.05 224.071 187.339 225.36 188.93 225.36H263.86C265.451 225.36 266.74 224.071 266.74 222.48C266.74 220.889 265.451 219.6 263.86 219.6Z" fill="url(#paint16_linear)"/>
<path d="M263.86 232.28H188.93C187.339 232.28 186.05 233.569 186.05 235.16C186.05 236.751 187.339 238.04 188.93 238.04H263.86C265.451 238.04 266.74 236.751 266.74 235.16C266.74 233.569 265.451 232.28 263.86 232.28Z" fill="url(#paint17_linear)"/>
<path d="M263.86 244.96H188.93C187.339 244.96 186.05 246.249 186.05 247.84C186.05 249.431 187.339 250.72 188.93 250.72H263.86C265.451 250.72 266.74 249.431 266.74 247.84C266.74 246.249 265.451 244.96 263.86 244.96Z" fill="url(#paint18_linear)"/>
<path d="M202.77 257.83H193.93V283.96H202.77V257.83Z" fill="url(#paint19_linear)"/>
<path d="M215.07 265.81H206.23V283.96H215.07V265.81Z" fill="url(#paint20_linear)"/>
<path d="M239.08 258.97H230.24V283.96H239.08V258.97Z" fill="url(#paint21_linear)"/>
<path d="M227.17 272.43H218.33V283.96H227.17V272.43Z" fill="url(#paint22_linear)"/>
<path d="M258.67 264.11H248.3V284.15H258.67V264.11Z" fill="url(#paint23_linear)"/>
<path d="M269.05 264.16H258.68V284.16H269.05V264.16Z" fill="url(#paint24_linear)"/>
<path d="M269.05 258.6H248.3V263.98H269.05V258.6Z" fill="url(#paint25_linear)"/>
<path d="M162.4 308.2C163.03 311.83 167.83 324.57 179.86 327.72C185.4 329.17 191.86 330.58 197.16 328.41C198.746 327.811 200.19 326.888 201.4 325.7C202.789 324.14 203.568 322.131 203.596 320.043C203.624 317.954 202.897 315.926 201.55 314.33C200.373 313.156 199.024 312.168 197.55 311.4C193.29 308.91 188.09 304.83 182.96 304.71C177.83 304.59 167.26 306.52 162.4 308.2Z" fill="url(#paint26_linear)"/>
</g>
<defs>
<linearGradient id="paint0_linear" x1="31.29" y1="222.86" x2="164.44" y2="222.86" gradientUnits="userSpaceOnUse">
<stop stop-opacity="0"/>
<stop offset="0.99"/>
</linearGradient>
<linearGradient id="paint1_linear" x1="144.86" y1="238.77" x2="353.51" y2="241.41" gradientUnits="userSpaceOnUse">
<stop offset="0.02" stop-color="white" stop-opacity="0"/>
<stop offset="0.32" stop-color="white" stop-opacity="0.39"/>
<stop offset="0.68" stop-color="white" stop-opacity="0.68"/>
<stop offset="1" stop-color="white"/>
</linearGradient>
<linearGradient id="paint2_linear" x1="8010.65" y1="12164.3" x2="4074.2" y2="9753" gradientUnits="userSpaceOnUse">
<stop stop-opacity="0"/>
<stop offset="0.99"/>
</linearGradient>
<linearGradient id="paint3_linear" x1="7110.61" y1="10840.1" x2="3924" y2="8887.45" gradientUnits="userSpaceOnUse">
<stop stop-opacity="0"/>
<stop offset="0.99"/>
</linearGradient>
<linearGradient id="paint4_linear" x1="41355.2" y1="10675.9" x2="40924.7" y2="15064.6" gradientUnits="userSpaceOnUse">
<stop stop-opacity="0"/>
<stop offset="0.99"/>
</linearGradient>
<linearGradient id="paint5_linear" x1="9029.09" y1="15386.4" x2="12603.9" y2="15386.4" gradientUnits="userSpaceOnUse">
<stop stop-opacity="0"/>
<stop offset="0.99"/>
</linearGradient>
<linearGradient id="paint6_linear" x1="3450.49" y1="2313.21" x2="3124.27" y2="2349.8" gradientUnits="userSpaceOnUse">
<stop stop-opacity="0"/>
<stop offset="0.99"/>
</linearGradient>
<linearGradient id="paint7_linear" x1="204.74" y1="39.64" x2="211.36" y2="39.64" gradientUnits="userSpaceOnUse">
<stop stop-color="#E5C5D5"/>
<stop offset="0.42" stop-color="#EAD4D1"/>
<stop offset="1" stop-color="#F0E9CB"/>
</linearGradient>
<linearGradient id="paint8_linear" x1="1650.86" y1="411.254" x2="1642.79" y2="287.976" gradientUnits="userSpaceOnUse">
<stop stop-opacity="0"/>
<stop offset="0.99"/>
</linearGradient>
<linearGradient id="paint9_linear" x1="3876.66" y1="678.04" x2="4089.3" y2="678.04" gradientUnits="userSpaceOnUse">
<stop stop-color="#E5C5D5"/>
<stop offset="0.42" stop-color="#EAD4D1"/>
<stop offset="1" stop-color="#F0E9CB"/>
</linearGradient>
<linearGradient id="paint10_linear" x1="1876.35" y1="266.426" x2="1914.93" y2="266.426" gradientUnits="userSpaceOnUse">
<stop stop-color="#E5C5D5"/>
<stop offset="0.42" stop-color="#EAD4D1"/>
<stop offset="1" stop-color="#F0E9CB"/>
</linearGradient>
<linearGradient id="paint11_linear" x1="3213.39" y1="663.884" x2="3364.57" y2="663.884" gradientUnits="userSpaceOnUse">
<stop stop-color="#E5C5D5"/>
<stop offset="0.42" stop-color="#EAD4D1"/>
<stop offset="1" stop-color="#F0E9CB"/>
</linearGradient>
<linearGradient id="paint12_linear" x1="18601.1" y1="1048.72" x2="18596" y2="1798.4" gradientUnits="userSpaceOnUse">
<stop offset="0.02" stop-color="white" stop-opacity="0"/>
<stop offset="0.32" stop-color="white" stop-opacity="0.39"/>
<stop offset="0.68" stop-color="white" stop-opacity="0.68"/>
<stop offset="1" stop-color="white"/>
</linearGradient>
<linearGradient id="paint13_linear" x1="18697.9" y1="1062.09" x2="18692.8" y2="1811.72" gradientUnits="userSpaceOnUse">
<stop offset="0.02" stop-color="white" stop-opacity="0"/>
<stop offset="0.32" stop-color="white" stop-opacity="0.39"/>
<stop offset="0.68" stop-color="white" stop-opacity="0.68"/>
<stop offset="1" stop-color="white"/>
</linearGradient>
<linearGradient id="paint14_linear" x1="18794.8" y1="1075.4" x2="18789.7" y2="1825.08" gradientUnits="userSpaceOnUse">
<stop offset="0.02" stop-color="white" stop-opacity="0"/>
<stop offset="0.32" stop-color="white" stop-opacity="0.39"/>
<stop offset="0.68" stop-color="white" stop-opacity="0.68"/>
<stop offset="1" stop-color="white"/>
</linearGradient>
<linearGradient id="paint15_linear" x1="18891.6" y1="1088.78" x2="18886.5" y2="1838.4" gradientUnits="userSpaceOnUse">
<stop offset="0.02" stop-color="white" stop-opacity="0"/>
<stop offset="0.32" stop-color="white" stop-opacity="0.39"/>
<stop offset="0.68" stop-color="white" stop-opacity="0.68"/>
<stop offset="1" stop-color="white"/>
</linearGradient>
<linearGradient id="paint16_linear" x1="18988.4" y1="1102.09" x2="18983.3" y2="1851.77" gradientUnits="userSpaceOnUse">
<stop offset="0.02" stop-color="white" stop-opacity="0"/>
<stop offset="0.32" stop-color="white" stop-opacity="0.39"/>
<stop offset="0.68" stop-color="white" stop-opacity="0.68"/>
<stop offset="1" stop-color="white"/>
</linearGradient>
<linearGradient id="paint17_linear" x1="19085.3" y1="1115.46" x2="19080.1" y2="1865.07" gradientUnits="userSpaceOnUse">
<stop offset="0.02" stop-color="white" stop-opacity="0"/>
<stop offset="0.32" stop-color="white" stop-opacity="0.39"/>
<stop offset="0.68" stop-color="white" stop-opacity="0.68"/>
<stop offset="1" stop-color="white"/>
</linearGradient>
<linearGradient id="paint18_linear" x1="19182.1" y1="1128.77" x2="19177" y2="1878.44" gradientUnits="userSpaceOnUse">
<stop offset="0.02" stop-color="white" stop-opacity="0"/>
<stop offset="0.32" stop-color="white" stop-opacity="0.39"/>
<stop offset="0.68" stop-color="white" stop-opacity="0.68"/>
<stop offset="1" stop-color="white"/>
</linearGradient>
<linearGradient id="paint19_linear" x1="1959.02" y1="6772.56" x2="1849.4" y2="7380.14" gradientUnits="userSpaceOnUse">
<stop offset="0.02" stop-color="white" stop-opacity="0"/>
<stop offset="0.32" stop-color="white" stop-opacity="0.39"/>
<stop offset="0.68" stop-color="white" stop-opacity="0.68"/>
<stop offset="1" stop-color="white"/>
</linearGradient>
<linearGradient id="paint20_linear" x1="2081.82" y1="4804.94" x2="2027.69" y2="5233.9" gradientUnits="userSpaceOnUse">
<stop offset="0.02" stop-color="white" stop-opacity="0"/>
<stop offset="0.32" stop-color="white" stop-opacity="0.39"/>
<stop offset="0.68" stop-color="white" stop-opacity="0.68"/>
<stop offset="1" stop-color="white"/>
</linearGradient>
<linearGradient id="paint21_linear" x1="2315.42" y1="6545.2" x2="2214.89" y2="7127.59" gradientUnits="userSpaceOnUse">
<stop offset="0.02" stop-color="white" stop-opacity="0"/>
<stop offset="0.32" stop-color="white" stop-opacity="0.39"/>
<stop offset="0.68" stop-color="white" stop-opacity="0.68"/>
<stop offset="1" stop-color="white"/>
</linearGradient>
<linearGradient id="paint22_linear" x1="2202.29" y1="3164.61" x2="2180.24" y2="3439.69" gradientUnits="userSpaceOnUse">
<stop offset="0.02" stop-color="white" stop-opacity="0"/>
<stop offset="0.32" stop-color="white" stop-opacity="0.39"/>
<stop offset="0.68" stop-color="white" stop-opacity="0.68"/>
<stop offset="1" stop-color="white"/>
</linearGradient>
<linearGradient id="paint23_linear" x1="2875.54" y1="5433.83" x2="2886.77" y2="6092.41" gradientUnits="userSpaceOnUse">
<stop offset="0.02" stop-color="white" stop-opacity="0"/>
<stop offset="0.32" stop-color="white" stop-opacity="0.39"/>
<stop offset="0.68" stop-color="white" stop-opacity="0.68"/>
<stop offset="1" stop-color="white"/>
</linearGradient>
<linearGradient id="paint24_linear" x1="2994.6" y1="5499.36" x2="3000.38" y2="6629.14" gradientUnits="userSpaceOnUse">
<stop offset="0.02" stop-color="white" stop-opacity="0"/>
<stop offset="0.32" stop-color="white" stop-opacity="0.39"/>
<stop offset="0.68" stop-color="white" stop-opacity="0.68"/>
<stop offset="1" stop-color="white"/>
</linearGradient>
<linearGradient id="paint25_linear" x1="5604.49" y1="1624.69" x2="5606.34" y2="1720.68" gradientUnits="userSpaceOnUse">
<stop offset="0.02" stop-color="white" stop-opacity="0"/>
<stop offset="0.32" stop-color="white" stop-opacity="0.39"/>
<stop offset="0.68" stop-color="white" stop-opacity="0.68"/>
<stop offset="1" stop-color="white"/>
</linearGradient>
<linearGradient id="paint26_linear" x1="10053.3" y1="7659.78" x2="9331.9" y2="10257.2" gradientUnits="userSpaceOnUse">
<stop stop-opacity="0"/>
<stop offset="0.99"/>
</linearGradient>
<clipPath id="clip0">
<rect width="357.68" height="361.74" fill="white"/>
</clipPath>
</defs>
</svg>
