<svg width="490" height="277" viewBox="0 0 490 277" fill="none" xmlns="http://www.w3.org/2000/svg">
<g clip-path="url(#clip0)">
<path opacity="0.18" d="M359.29 267.48C336.07 269.22 313.62 260.07 290.97 254.68C254.845 246.135 217.126 247.055 181.46 257.35C143.36 250.62 143.2 266.55 101.8 274.69C61.17 282.69 26.38 242.78 19.53 234.18C15.85 229.58 13.33 224.18 10.85 218.85C5.40999 207.17 -0.140007 195 0.00999294 182.12C0.119993 172.12 3.66999 162.54 7.16999 153.18C18.74 122.29 33.25 88.18 63.71 75.54C81.25 68.24 100.96 69.54 119.9 68.2C195.36 62.7 261.76 13.14 336.96 4.79998C354.73 2.79998 372.66 3.21998 390.52 3.79998C401.26 4.14998 412.25 4.60998 422.22 8.60998C433.32 13.07 442.31 21.61 450.02 30.73C475.134 60.5472 489.008 98.2207 489.23 137.204C489.453 176.188 476.011 214.018 451.24 244.12C444.334 252.476 435.644 259.179 425.81 263.74C405.26 273.69 382.08 265.76 359.29 267.48Z" fill="#1A237E"/>
<path opacity="0.18" d="M324.54 62.34L235.42 6.85999C226.29 1.14959 215.418 -1.10618 204.77 0.500432C194.121 2.10704 184.399 7.47001 177.36 15.62C168.15 26.35 160.66 39.96 161.36 55.51C163.07 94.18 168.19 106.69 168.19 106.69L179.08 112.12C184.989 115.078 191.437 116.803 198.034 117.19C204.63 117.576 211.236 116.617 217.45 114.37L320.61 77.12L324.54 62.34Z" fill="#1A237E"/>
<path d="M89.2 276.83L97.63 275.83L172.3 260.83V40.62C172.297 36.8502 170.984 33.1986 168.585 30.2906C166.186 27.3826 162.851 25.3992 159.15 24.68L113.63 15.84C110.646 15.257 107.57 15.3418 104.623 16.0881C101.676 16.8345 98.9303 18.2239 96.5835 20.1568C94.2368 22.0896 92.3469 24.5179 91.0496 27.2675C89.7523 30.0171 89.0797 33.0197 89.08 36.06L89.2 276.83Z" fill="#1A237E"/>
<path d="M89.2 276.83L97.63 275.83L172.3 260.83V40.62C172.297 36.8502 170.984 33.1986 168.585 30.2906C166.186 27.3826 162.851 25.3992 159.15 24.68L113.63 15.84C110.646 15.257 107.57 15.3418 104.623 16.0881C101.676 16.8345 98.9303 18.2239 96.5835 20.1568C94.2368 22.0896 92.3469 24.5179 91.0496 27.2675C89.7523 30.0171 89.0797 33.0197 89.08 36.06L89.2 276.83Z" fill="url(#paint0_linear)"/>
<path d="M374.42 228.85C380.643 240.675 385.591 253.129 389.18 266C389.61 267.55 390.18 269.3 391.67 269.92C392.202 270.116 392.763 270.217 393.33 270.22C399.503 270.617 405.7 270.053 411.7 268.55C410.7 264.23 411.2 259.74 411.35 255.32C411.78 242.79 414.2 238.65 412.65 221.6C412.6 221.12 404.88 217.48 404.44 217.29C404.168 217.191 403.877 217.157 403.59 217.19L393.22 217.63C388.69 217.82 383.74 218.18 380.42 221.27C377.71 223.78 376.67 227.69 376.82 231.38C376.97 235.07 378.16 238.62 379.35 242.11" fill="#3E3E54"/>
<path d="M374.42 228.85C380.643 240.675 385.591 253.129 389.18 266C389.61 267.55 390.18 269.3 391.67 269.92C392.202 270.116 392.763 270.217 393.33 270.22C399.503 270.617 405.7 270.053 411.7 268.55C410.7 264.23 411.2 259.74 411.35 255.32C411.78 242.79 414.01 238.09 412.35 220.46C412.35 219.97 404.93 217.46 404.49 217.29C404.218 217.191 403.927 217.157 403.64 217.19L393.27 217.63C388.74 217.82 383.79 218.18 380.47 221.27C377.76 223.78 376.72 227.69 376.87 231.38C377.02 235.07 378.21 238.62 379.4 242.11" fill="url(#paint1_linear)"/>
<path d="M354.26 270C358.47 269.53 372.09 269.65 376.26 269.18C379.692 261.769 382.678 254.158 385.2 246.39C386.77 241.8 389.58 233.52 392.2 229.45C392.471 229.106 392.616 228.678 392.61 228.24C392.497 227.81 392.235 227.434 391.87 227.18C386.78 222.62 381.66 218.03 375.87 214.45C371.87 212 363.03 206.86 358.07 208.3C354.35 209.38 354.97 222.3 354.69 226.22C353.657 240.791 353.513 255.411 354.26 270Z" fill="#3E3E54"/>
<path d="M307.82 118.1H339.01C341.55 118.1 343.61 116.04 343.61 113.5V63.74C343.61 61.1995 341.55 59.14 339.01 59.14L307.82 59.14C305.279 59.14 303.22 61.1995 303.22 63.74V113.5C303.22 116.04 305.279 118.1 307.82 118.1Z" fill="#1A237E"/>
<path d="M307.82 118.1H339.01C341.55 118.1 343.61 116.04 343.61 113.5V63.74C343.61 61.1995 341.55 59.14 339.01 59.14L307.82 59.14C305.279 59.14 303.22 61.1995 303.22 63.74V113.5C303.22 116.04 305.279 118.1 307.82 118.1Z" fill="url(#paint2_linear)"/>
<path d="M309.38 118.1H340.57C343.111 118.1 345.17 116.04 345.17 113.5V63.74C345.17 61.1995 343.111 59.14 340.57 59.14L309.38 59.14C306.84 59.14 304.78 61.1995 304.78 63.74V113.5C304.78 116.04 306.84 118.1 309.38 118.1Z" fill="#1A237E"/>
<path d="M313.21 111.71H338.06C340.12 111.71 341.79 110.04 341.79 107.98V66.98C341.79 64.9199 340.12 63.25 338.06 63.25H313.21C311.15 63.25 309.48 64.9199 309.48 66.98V107.98C309.48 110.04 311.15 111.71 313.21 111.71Z" fill="white"/>
<path d="M358.29 112.21C358.033 111.657 357.628 111.187 357.12 110.85C356.291 110.54 355.374 110.561 354.56 110.91C352.56 111.51 350.2 112.34 349.46 114.34C349.211 115.124 349.126 115.951 349.21 116.77C349.58 124.27 353.14 131.27 357.45 137.41C358.472 139.023 359.78 140.437 361.31 141.58C362.08 142.147 362.973 142.524 363.917 142.681C364.861 142.837 365.828 142.768 366.74 142.48C368.6 141.78 369.74 139.97 370.74 138.26C372 136.11 375.63 131.59 375.51 129.05C375.39 126.51 372.34 126.51 370.44 126C363.46 124.11 361.53 118 358.29 112.21Z" fill="#1A237E"/>
<path d="M358.29 112.21C358.033 111.657 357.628 111.187 357.12 110.85C356.291 110.54 355.374 110.561 354.56 110.91C352.56 111.51 350.2 112.34 349.46 114.34C349.211 115.124 349.126 115.951 349.21 116.77C349.58 124.27 353.14 131.27 357.45 137.41C358.472 139.023 359.78 140.437 361.31 141.58C362.08 142.147 362.973 142.524 363.917 142.681C364.861 142.837 365.828 142.768 366.74 142.48C368.6 141.78 369.74 139.97 370.74 138.26C372 136.11 375.63 131.59 375.51 129.05C375.39 126.51 372.34 126.51 370.44 126C363.46 124.11 361.53 118 358.29 112.21Z" fill="url(#paint3_linear)"/>
<path d="M364.82 79.7C365.024 80.8132 365.322 81.9071 365.71 82.97C366.4 85.61 365.71 88.39 365.48 91.11C365.25 93.83 365.57 96.92 367.67 98.66C370 100.6 373.53 100.1 376.21 101.52C379.48 103.27 380.66 107.42 380.63 111.13C380.63 112.86 380.46 114.75 381.5 116.13C382.481 117.176 383.79 117.857 385.21 118.06C387.792 118.655 390.43 118.971 393.08 119C394.316 119.108 395.556 118.854 396.65 118.27C397.579 117.568 398.276 116.603 398.65 115.5C401.08 109.67 400.13 103.07 400.34 96.76C400.46 93.1 400.99 89.42 400.41 85.76C399.896 83.1536 399.087 80.614 398 78.19C396.606 74.3386 394.688 70.6976 392.3 67.37C389.79 64.15 384.1 56.5 380.05 55.94C375.38 55.29 371.63 62.94 369.72 67.51C368.86 69.51 368.72 71.39 367.46 73.36C366.2 75.33 364.63 77.28 364.82 79.7Z" fill="url(#paint4_linear)"/>
<path d="M386.44 47.9C391.444 46.9633 396.619 47.8767 401 50.47C405.336 53.0764 409.104 56.5282 412.08 60.62C414.96 64.38 417.75 68.72 422.25 70.17C423.47 70.55 424.75 70.71 425.93 71.17C426.536 71.3753 427.082 71.7289 427.517 72.1987C427.952 72.6685 428.262 73.2396 428.42 73.86C428.72 75.77 426.91 77.28 425.31 78.36C427.58 78.72 428.42 81.87 427.31 83.89C426.2 85.91 424 87.01 421.91 87.95C422.623 88.5054 423.093 89.3167 423.218 90.212C423.344 91.1074 423.116 92.0165 422.584 92.747C422.051 93.4774 421.254 93.9717 420.363 94.1254C419.472 94.279 418.557 94.0798 417.81 93.57C419.24 95.28 417.81 98.1 415.72 98.86C413.63 99.62 411.31 98.97 409.19 98.32C409.46 101.23 406.84 103.84 403.96 104.32C401.08 104.8 398.16 103.58 395.79 101.87C393.42 100.16 391.47 97.95 389.25 96.06C391.501 93.9595 393.007 91.1827 393.54 88.15C393.839 86.9254 393.716 85.6356 393.19 84.49C392.907 83.9424 392.44 83.5126 391.871 83.2765C391.302 83.0404 390.667 83.0133 390.08 83.2C389.01 83.67 388.6 84.93 388.08 85.98C387.56 87.03 386.47 88.08 385.38 87.66C384.54 87.34 384.24 86.35 384.06 85.47C382.96 79.85 382.94 73.6 379.29 69.19C377.99 67.61 376.29 66.36 375.29 64.58C371.22 57.54 380.23 49.27 386.44 47.9Z" fill="#3E3E54"/>
<path d="M386.44 47.9C391.444 46.9633 396.619 47.8767 401 50.47C405.336 53.0764 409.104 56.5282 412.08 60.62C414.96 64.38 417.75 68.72 422.25 70.17C423.47 70.55 424.75 70.71 425.93 71.17C426.536 71.3753 427.082 71.7289 427.517 72.1987C427.952 72.6685 428.262 73.2396 428.42 73.86C428.72 75.77 426.91 77.28 425.31 78.36C427.58 78.72 428.42 81.87 427.31 83.89C426.2 85.91 424 87.01 421.91 87.95C422.623 88.5054 423.093 89.3167 423.218 90.212C423.344 91.1074 423.116 92.0165 422.584 92.747C422.051 93.4774 421.254 93.9717 420.363 94.1254C419.472 94.279 418.557 94.0798 417.81 93.57C419.24 95.28 417.81 98.1 415.72 98.86C413.63 99.62 411.31 98.97 409.19 98.32C409.46 101.23 406.84 103.84 403.96 104.32C401.08 104.8 398.16 103.58 395.79 101.87C393.42 100.16 391.47 97.95 389.25 96.06C391.501 93.9595 393.007 91.1827 393.54 88.15C393.839 86.9254 393.716 85.6356 393.19 84.49C392.907 83.9424 392.44 83.5126 391.871 83.2765C391.302 83.0404 390.667 83.0133 390.08 83.2C389.01 83.67 388.6 84.93 388.08 85.98C387.56 87.03 386.47 88.08 385.38 87.66C384.54 87.34 384.24 86.35 384.06 85.47C382.96 79.85 382.94 73.6 379.29 69.19C377.99 67.61 376.29 66.36 375.29 64.58C371.22 57.54 380.23 49.27 386.44 47.9Z" fill="url(#paint5_linear)"/>
<path d="M440.22 144C439.12 149.73 435.37 156.22 429.54 155.93C426.32 155.77 423.22 153.45 420.11 154.3C420.17 161.05 418.34 167.64 416.55 174.14C412.41 189 416.78 206.72 412.65 221.58C412.08 223.58 393.07 229.22 388.28 228.03C385.47 227.33 372.94 226.31 363.23 224.12C356.46 222.59 351.06 220.5 351.29 217.56C352.24 205.23 357.99 174.73 358.94 162.4L356.85 163.4C351.716 165.715 346.393 167.585 340.94 168.99C336.42 170.17 331.04 170.82 327.59 167.67C326.197 166.2 325.106 164.471 324.38 162.58C318.733 150.247 313.067 137.913 307.38 125.58C306.934 124.793 306.674 123.913 306.62 123.01C306.62 119.68 311.27 118.68 313.26 116.01C313.727 116.252 314.175 116.529 314.6 116.84C317.24 118.76 319.01 121.78 320.83 124.55C325.098 131.118 330.277 137.047 336.21 142.16C336.734 142.694 337.389 143.08 338.11 143.28H338.31C339.03 143.302 339.745 143.158 340.4 142.86C351.32 138.81 359.96 131.5 367.84 123.12C370.975 119.787 374.836 117.22 379.123 115.62C383.41 114.019 388.007 113.427 392.56 113.89C393.612 114.011 394.672 114.044 395.73 113.99C398.18 113.84 400.61 113.59 403.05 113.33C407.108 112.837 411.193 112.603 415.28 112.63C421.82 112.79 428.6 114.41 433.47 118.78C438.06 122.88 440.31 128.85 440.75 135.06C440.959 138.05 440.781 141.055 440.22 144Z" fill="#1A237E"/>
<path d="M338.31 143.25C338.092 143.383 337.865 143.5 337.63 143.6C330.55 146.73 323.83 140.32 319.63 135.6L311.08 125.94C309.97 124.68 308.79 123.07 309.35 121.49C310.06 119.49 312.98 119.26 314.12 117.49C314.251 117.251 314.398 117.02 314.56 116.8C317.2 118.72 318.97 121.74 320.79 124.51C325.058 131.078 330.237 137.007 336.17 142.12C336.694 142.654 337.349 143.04 338.07 143.24L338.31 143.25Z" fill="url(#paint6_linear)"/>
<path d="M354.41 103.89C353.149 99.7389 350.551 96.1211 347.02 93.6C346.695 93.9256 346.461 94.3301 346.34 94.7736C346.219 95.2172 346.216 95.6846 346.33 96.13C346.49 97.03 346.89 97.88 347.04 98.78C347.7 102.54 344.2 106.24 345.27 109.9C345.817 111.398 346.839 112.677 348.18 113.54C348.68 114.07 349.363 114.391 350.091 114.437C350.818 114.483 351.536 114.252 352.1 113.79C353.29 113.05 356 111.59 356.1 110.02C356.16 109.15 355.44 107.88 355.22 107.02C354.95 106 354.72 104.93 354.41 103.89Z" fill="url(#paint7_linear)"/>
<path d="M306.69 103.72C307.2 104.21 308.04 103.72 308.5 103.2C309.74 101.73 310.26 99.7401 311.56 98.3101C312.018 97.7528 312.647 97.3625 313.35 97.2001C313.701 97.1247 314.066 97.1569 314.398 97.2925C314.729 97.4281 315.013 97.6608 315.21 97.9601C315.356 98.3731 315.412 98.8125 315.374 99.2489C315.336 99.6852 315.205 100.108 314.99 100.49C313.5 104.49 313.37 108.89 313.41 113.17C313.41 115.55 313.41 118.09 312.15 120.07C311.569 120.919 310.82 121.641 309.95 122.19C309.675 122.416 309.351 122.575 309.004 122.654C308.657 122.734 308.296 122.733 307.95 122.65C307.601 122.493 307.298 122.248 307.07 121.94C302.84 117.1 301.33 110.28 302.07 103.94C302.39 101.08 301.12 98.0001 303.25 96.0701C302.93 97.4301 303.39 101.9 306.72 103.76" fill="url(#paint8_linear)"/>
<path d="M97.63 275.83L180.83 259.68V39.49C180.83 35.7185 179.517 32.0645 177.118 29.1544C174.719 26.2444 171.382 24.2595 167.68 23.54L122.16 14.7C119.178 14.1204 116.104 14.2076 113.159 14.9555C110.214 15.7034 107.472 17.0934 105.127 19.0259C102.783 20.9584 100.895 23.3855 99.5987 26.1334C98.3025 28.8812 97.6302 31.8818 97.63 34.92V275.83Z" fill="#1A237E"/>
<path d="M390.46 86.45C390.782 86.5516 391.062 86.7545 391.258 87.0286C391.455 87.3026 391.557 87.6329 391.55 87.9701C391.522 88.6447 391.333 89.3028 391 89.8901C390.608 90.8106 390.06 91.6564 389.38 92.3901C389.039 92.754 388.622 93.0386 388.159 93.2235C387.696 93.4084 387.198 93.4892 386.7 93.4601C386.441 93.442 386.191 93.3519 385.98 93.2C385.822 93.0647 385.694 92.8978 385.605 92.7101C385.515 92.5224 385.466 92.318 385.46 92.1101C385.31 90.6801 386.28 89.7601 387.22 88.8601C388.16 87.9601 389.14 86.17 390.46 86.45Z" fill="url(#paint9_linear)"/>
<path d="M420.08 154.29C420.08 154.29 405.08 145.74 401.66 139.67C398.24 133.6 385.17 113.43 381.47 116.13C377.77 118.83 373.78 115.99 367.82 123.13C362.34 129.66 397.95 174.07 418.34 164.92C420.17 164.07 420.08 156.54 420.08 154.29Z" fill="url(#paint10_linear)"/>
<path d="M428.93 124C426.12 123.79 423.27 124.08 420.48 123.63C415.57 122.84 408.31 112.36 403.48 113.4C399.48 114.25 396.31 113.84 391.54 113.83C391.44 115.94 405.08 126.89 409.6 129.78C414.12 132.67 417.6 137.07 421.41 141C425.22 144.93 429.64 148.62 435 149.55C436.33 149.78 438 149.69 438.66 148.55C438.835 148.211 438.956 147.846 439.02 147.47C440.13 142.212 440.4 136.812 439.82 131.47C439.22 126.26 433.63 124.31 428.93 124Z" fill="url(#paint11_linear)"/>
<path d="M440.75 135C440.65 135.62 440.53 136.24 440.4 136.85C440.362 137.249 440.253 137.638 440.08 138C439.4 139.16 437.75 139.26 436.43 139C431.06 138.07 426.6 134.39 422.84 130.46C419.08 126.53 415.62 122.18 411.02 119.24C409.29 118.13 406.22 115.84 403.09 113.31C407.148 112.817 411.233 112.583 415.32 112.61C421.86 112.77 428.64 114.39 433.51 118.76C438.08 122.85 440.31 128.82 440.75 135Z" fill="url(#paint12_linear)"/>
<path d="M372.92 164.09L371.33 196.57C370.95 204.08 370.58 211.63 368.87 218.95C368.44 220.82 367.74 222.89 366.02 223.74C365.142 224.12 364.175 224.245 363.23 224.1C356.46 222.57 351.06 220.48 351.29 217.54C352.24 205.21 357.99 174.71 358.94 162.38L356.85 163.38C358.103 162.709 359.4 162.121 360.73 161.62C363.8 160.26 366.82 158.83 369.97 157.62C370.359 157.433 370.797 157.377 371.22 157.46C371.585 157.61 371.884 157.887 372.06 158.24C373.08 159.94 373.02 162.09 372.92 164.09Z" fill="url(#paint13_linear)"/>
<path d="M363.23 224.1L362.64 269.89L354.26 270.04C354.26 270.04 352.97 226.96 354.4 221.56L363.23 224.1Z" fill="url(#paint14_linear)"/>
<path d="M170.45 103.41L120.21 102.63V49.48L170.82 54.74L170.45 103.41Z" fill="white"/>
<path d="M120.82 41.48L122.56 41.55C122.581 41.8487 122.659 42.1406 122.79 42.41C122.865 42.5653 122.979 42.6985 123.121 42.7966C123.263 42.8947 123.428 42.9545 123.6 42.97C123.706 42.9921 123.815 42.9891 123.919 42.9613C124.023 42.9335 124.119 42.8817 124.2 42.81C124.268 42.7418 124.322 42.6606 124.358 42.5713C124.394 42.482 124.412 42.3863 124.41 42.29C124.406 42.0866 124.336 41.8901 124.21 41.73C123.943 41.4823 123.626 41.2948 123.28 41.18C122.618 40.9345 122.027 40.5292 121.56 40C121.218 39.5645 121.038 39.0237 121.05 38.47C121.047 38.0942 121.136 37.7233 121.31 37.39C121.484 37.0632 121.767 36.8082 122.11 36.67C122.575 36.5072 123.075 36.4693 123.56 36.56C124.201 36.6081 124.805 36.8767 125.27 37.32C125.701 37.8267 125.948 38.4648 125.97 39.13L124.27 39.04C124.241 38.7596 124.141 38.4912 123.98 38.26C123.827 38.0843 123.612 37.9735 123.38 37.95C123.302 37.927 123.22 37.9233 123.14 37.9392C123.061 37.9552 122.986 37.9903 122.923 38.0415C122.86 38.0927 122.81 38.1584 122.779 38.2331C122.747 38.3078 122.733 38.3891 122.74 38.47C122.741 38.5953 122.787 38.716 122.87 38.81C123.042 38.9761 123.251 39.0994 123.48 39.17C124.083 39.3879 124.654 39.6837 125.18 40.05C125.509 40.2916 125.767 40.6159 125.93 40.99C126.089 41.352 126.168 41.7445 126.16 42.14C126.169 42.5926 126.062 43.0401 125.85 43.44C125.67 43.8129 125.361 44.1078 124.98 44.27C124.533 44.4491 124.045 44.5011 123.57 44.42C123.171 44.4096 122.779 44.3151 122.418 44.1428C122.058 43.9705 121.739 43.7242 121.48 43.42C121.091 42.8439 120.863 42.174 120.82 41.48Z" fill="white"/>
<path d="M130.93 42.13L132.49 42.94C132.412 43.4228 132.246 43.8871 132 44.31C131.799 44.639 131.507 44.9029 131.16 45.07C130.756 45.2398 130.311 45.2884 129.88 45.21C129.328 45.1674 128.797 44.9813 128.34 44.67C127.894 44.3035 127.549 43.8283 127.34 43.29C127.027 42.5401 126.877 41.7322 126.9 40.92C126.825 39.9288 127.097 38.9423 127.67 38.13C127.936 37.8295 128.277 37.6047 128.658 37.4783C129.039 37.3519 129.447 37.3283 129.84 37.41C130.485 37.4638 131.091 37.7435 131.55 38.2C132.02 38.738 132.34 39.3896 132.48 40.09L130.91 40.35C130.871 40.167 130.81 39.9891 130.73 39.82C130.64 39.6451 130.518 39.4889 130.37 39.36C130.228 39.2505 130.058 39.1814 129.88 39.16C129.689 39.1295 129.493 39.1642 129.325 39.2586C129.156 39.3529 129.024 39.5014 128.95 39.68C128.75 40.1358 128.664 40.6335 128.7 41.13C128.655 41.7323 128.758 42.3366 129 42.89C129.081 43.0432 129.197 43.1743 129.34 43.2719C129.483 43.3695 129.648 43.4307 129.82 43.45C129.962 43.4805 130.109 43.4704 130.245 43.4209C130.382 43.3713 130.501 43.2844 130.59 43.17C130.785 42.8555 130.902 42.4989 130.93 42.13Z" fill="white"/>
<path d="M136.86 44.69L134.86 44.44L134.59 45.65L132.78 45.43L134.93 38.2L136.85 38.45L138.98 46.17L137.15 46L136.86 44.69ZM136.5 43L135.87 40.23L135.25 42.84L136.5 43Z" fill="white"/>
<path d="M139.54 38.8L141.17 39.01L143.28 43.37V39.28L144.9 39.49V46.88L143.28 46.68L141.18 42.36V46.43L139.54 46.24V38.8Z" fill="white"/>
<path d="M148.62 40L150.32 40.22V42.79L152.16 43.02V40.43L153.85 40.65V48L152.16 47.79V44.79L150.32 44.57V47.57L148.62 47.37V40Z" fill="white"/>
<path d="M154.96 40.79L159.41 41.36V42.91L156.63 42.56V43.71L159.21 44.04V45.52L156.63 45.2V46.63L159.49 46.98V48.62L154.96 48.08V40.79Z" fill="white"/>
<path d="M160.4 48.73V41.49L163.13 41.85C163.534 41.8819 163.927 41.9905 164.29 42.17C164.574 42.3453 164.797 42.6036 164.93 42.91C165.098 43.2873 165.18 43.6972 165.17 44.11C165.18 44.4522 165.118 44.7927 164.99 45.11C164.899 45.3357 164.75 45.5338 164.559 45.6846C164.368 45.8354 164.141 45.9338 163.9 45.97C164.06 46.0524 164.205 46.1605 164.33 46.29C164.43 46.4179 164.517 46.5552 164.59 46.7C164.679 46.8488 164.753 47.0063 164.81 47.17L165.6 49.35L163.76 49.13L162.89 46.82C162.827 46.6066 162.725 46.4066 162.59 46.23C162.488 46.1107 162.346 46.0326 162.19 46.01L162.08 46V48.93L160.4 48.73ZM162.05 44.63L162.74 44.72C162.883 44.7377 163.027 44.7377 163.17 44.72C163.227 44.7114 163.281 44.6897 163.327 44.6568C163.374 44.6238 163.413 44.5804 163.44 44.53C163.506 44.4069 163.54 44.2695 163.54 44.13C163.548 43.931 163.492 43.7347 163.38 43.57C163.218 43.4068 163 43.3105 162.77 43.3L162.05 43.21V44.63Z" fill="white"/>
<path d="M166.08 42.23L170.39 42.79V44.31L167.74 44V45.14L170.24 45.45V46.91L167.74 46.6V48L170.51 48.34V49.95L166.08 49.41V42.23Z" fill="white"/>
<path opacity="0.59" d="M226.16 36.74L210.53 65.75L237.25 73.71L253.08 43.95L226.16 36.74Z" fill="#1A237E"/>
<path opacity="0.43" d="M253.08 43.95L237.25 73.7099L249.1 92.8499L264.45 61.58L253.08 43.95Z" fill="#1A237E"/>
<path opacity="0.98" d="M210.81 65.9301L237.16 73.8001L249.1 92.8501L222.18 83.5601L210.81 65.9301Z" fill="#1A237E"/>
<path opacity="0.59" d="M286.65 35.15L270.63 41.61L278.74 53.77L295.1 47.08L286.65 35.15Z" fill="#1A237E"/>
<path opacity="0.43" d="M295.1 47.08L278.74 53.77L277.1 65.46L293.77 58L295.1 47.08Z" fill="#1A237E"/>
<path opacity="0.98" d="M270.68 41.78L278.67 53.78L277.1 65.46L269.36 52.7L270.68 41.78Z" fill="#1A237E"/>
<path opacity="0.59" d="M208.18 21.3101L192.16 27.7701L200.27 39.9401L216.62 33.2401L208.18 21.3101Z" fill="#1A237E"/>
<path opacity="0.43" d="M216.62 33.24L200.27 39.94L198.63 51.63L215.3 44.16L216.62 33.24Z" fill="#1A237E"/>
<path opacity="0.98" d="M192.21 27.9399L200.2 39.9399L198.63 51.6299L190.89 38.8599L192.21 27.9399Z" fill="#1A237E"/>
<path opacity="0.59" d="M186.97 103.23L200.8 113.6L207 100.36L192.8 89.84L186.97 103.23Z" fill="#1A237E"/>
<path opacity="0.43" d="M192.8 89.8401L207 100.36L217.85 95.7001L202.83 85.3101L192.8 89.8401Z" fill="#1A237E"/>
<path opacity="0.98" d="M200.92 113.47L207.04 100.41L217.85 95.7L210.94 108.94L200.92 113.47Z" fill="#1A237E"/>
</g>
<defs>
<linearGradient id="paint0_linear" x1="20.02" y1="146.84" x2="279.89" y2="144.56" gradientUnits="userSpaceOnUse">
<stop stop-opacity="0"/>
<stop offset="0.99"/>
</linearGradient>
<linearGradient id="paint1_linear" x1="16472.9" y1="16056.1" x2="15423.4" y2="15710.5" gradientUnits="userSpaceOnUse">
<stop stop-opacity="0"/>
<stop offset="0.99"/>
</linearGradient>
<linearGradient id="paint2_linear" x1="15511.3" y1="6379.06" x2="8576.83" y2="9070.15" gradientUnits="userSpaceOnUse">
<stop stop-opacity="0"/>
<stop offset="0.99"/>
</linearGradient>
<linearGradient id="paint3_linear" x1="9621.78" y1="5692.03" x2="10316.2" y2="5692.03" gradientUnits="userSpaceOnUse">
<stop stop-opacity="0"/>
<stop offset="0.99"/>
</linearGradient>
<linearGradient id="paint4_linear" x1="364.81" y1="87.48" x2="400.71" y2="87.48" gradientUnits="userSpaceOnUse">
<stop stop-color="#E5C5D5"/>
<stop offset="0.42" stop-color="#EAD4D1"/>
<stop offset="1" stop-color="#F0E9CB"/>
</linearGradient>
<linearGradient id="paint5_linear" x1="20809.4" y1="7042.54" x2="23746.7" y2="7042.54" gradientUnits="userSpaceOnUse">
<stop stop-opacity="0"/>
<stop offset="0.99"/>
</linearGradient>
<linearGradient id="paint6_linear" x1="9572.39" y1="5304.93" x2="10285.8" y2="4545.32" gradientUnits="userSpaceOnUse">
<stop stop-opacity="0"/>
<stop offset="0.99"/>
</linearGradient>
<linearGradient id="paint7_linear" x1="4186.35" y1="3241.28" x2="4308.11" y2="3241.28" gradientUnits="userSpaceOnUse">
<stop stop-color="#E5C5D5"/>
<stop offset="0.42" stop-color="#EAD4D1"/>
<stop offset="1" stop-color="#F0E9CB"/>
</linearGradient>
<linearGradient id="paint8_linear" x1="4415.31" y1="4262.78" x2="4598.04" y2="4262.78" gradientUnits="userSpaceOnUse">
<stop stop-color="#E5C5D5"/>
<stop offset="0.42" stop-color="#EAD4D1"/>
<stop offset="1" stop-color="#F0E9CB"/>
</linearGradient>
<linearGradient id="paint9_linear" x1="2788.98" y1="1060.35" x2="3067.74" y2="1199.34" gradientUnits="userSpaceOnUse">
<stop stop-color="#E5C5D5"/>
<stop offset="0.42" stop-color="#EAD4D1"/>
<stop offset="1" stop-color="#F0E9CB"/>
</linearGradient>
<linearGradient id="paint10_linear" x1="21381.8" y1="9633.75" x2="22486.5" y2="8894.38" gradientUnits="userSpaceOnUse">
<stop stop-opacity="0"/>
<stop offset="0.99"/>
</linearGradient>
<linearGradient id="paint11_linear" x1="21604.4" y1="5768.69" x2="19596.7" y2="8996.51" gradientUnits="userSpaceOnUse">
<stop stop-opacity="0"/>
<stop offset="0.99"/>
</linearGradient>
<linearGradient id="paint12_linear" x1="16913.6" y1="4245.32" x2="15835.8" y2="6086.04" gradientUnits="userSpaceOnUse">
<stop stop-opacity="0"/>
<stop offset="0.99"/>
</linearGradient>
<linearGradient id="paint13_linear" x1="8639.69" y1="16366.2" x2="6863.3" y2="16138.3" gradientUnits="userSpaceOnUse">
<stop stop-opacity="0"/>
<stop offset="0.99"/>
</linearGradient>
<linearGradient id="paint14_linear" x1="370.55" y1="246.78" x2="301.56" y2="242.61" gradientUnits="userSpaceOnUse">
<stop offset="0.02" stop-color="white" stop-opacity="0"/>
<stop offset="0.58" stop-color="white" stop-opacity="0.39"/>
<stop offset="0.68" stop-color="white" stop-opacity="0.68"/>
<stop offset="1" stop-color="white"/>
</linearGradient>
<clipPath id="clip0">
<rect width="489.22" height="276.83" fill="white"/>
</clipPath>
</defs>
</svg>
