<svg width="537" height="598" viewBox="0 0 537 598" fill="none" xmlns="http://www.w3.org/2000/svg">
<g clip-path="url(#clip0)">
<path opacity="0.18" d="M523.17 569.65C505.87 571.65 488.57 573.35 471.27 574.85C471.466 575.271 471.7 575.673 471.97 576.05C473.77 578.75 477.47 579.25 480.57 580.55C483.67 581.85 486.47 585.55 484.47 588.15C483.47 589.45 481.67 589.85 480.07 590.05L462.17 593.05C440.37 596.65 417.37 600.25 396.77 592.35C388.27 589.05 387.67 584.15 390.57 580.05C279.87 584.85 168.67 581.15 57.77 577.55C48.77 577.55 38.67 575.15 36.27 566.05C93.37 540.35 148.77 540.25 210.67 538.55L428.17 532.75C431.87 532.65 435.87 532.65 439.07 534.55C442.27 536.45 444.07 540.25 446.77 543.05C454.77 551.35 468.17 549.65 479.67 548.75C496.458 547.525 513.321 549.667 529.27 555.05C531.47 555.75 533.87 556.75 534.97 558.75C537.97 564.35 529.47 568.95 523.17 569.65Z" fill="#1D2741"/>
<path opacity="0.18" d="M232.37 2.04995C203.17 8.14995 177.47 25.55 155.27 45.45C133.07 65.35 113.27 87.95 90.5699 107.35C55.4699 137.45 10.4699 164.45 1.56995 209.85C-5.53005 246.25 13.67 282.65 14.57 319.75C15.07 347.85 5.16995 375.05 3.06995 403.05C0.96995 430.65 7.26995 459.85 25.3699 480.75C51.1699 510.55 95.37 517.55 134.47 511.95C173.57 506.35 210.37 490.35 248.87 481.85C295.27 471.65 343.57 472.45 390.87 477.55C419.77 480.65 450.07 485.15 477.27 474.75C501.47 465.55 520.57 444.95 529.77 420.75C538.97 396.55 538.67 369.25 530.77 344.65C519.87 310.55 495.77 282.35 480.37 250.05C467.27 222.55 460.77 192.55 453.57 162.95C448.77 143.35 443.37 123.05 430.07 107.85C414.97 90.35 392.07 82.2499 371.77 71.1499C322.67 44.3499 296.47 -11.35 232.37 2.04995Z" fill="#1A237E"/>
<path d="M119.67 36.55H293.07V571.35H119.67C111.289 571.35 103.252 568.021 97.3254 562.095C91.3992 556.168 88.0699 548.131 88.0699 539.75V68.15C88.0699 59.7692 91.3992 51.7316 97.3254 45.8055C103.252 39.8793 111.289 36.55 119.67 36.55Z" fill="#1A237E"/>
<path d="M119.67 36.55H293.07V571.35H119.67C111.289 571.35 103.252 568.021 97.3254 562.095C91.3992 556.168 88.0699 548.131 88.0699 539.75V68.15C88.0699 59.7692 91.3992 51.7316 97.3254 45.8055C103.252 39.8793 111.289 36.55 119.67 36.55Z" fill="url(#paint0_linear)"/>
<path d="M138.87 36.55H367.37C377.263 36.55 386.75 40.4799 393.745 47.475C400.74 54.4701 404.67 63.9575 404.67 73.8501V534.05C404.67 543.943 400.74 553.43 393.745 560.425C386.75 567.42 377.263 571.35 367.37 571.35H138.87C128.977 571.35 119.49 567.42 112.495 560.425C105.5 553.43 101.57 543.943 101.57 534.05V73.8501C101.57 63.9575 105.5 54.4701 112.495 47.475C119.49 40.4799 128.977 36.55 138.87 36.55Z" fill="#1A237E"/>
<path d="M391.37 68.65V513.45C391.344 518.455 389.344 523.247 385.805 526.785C382.267 530.324 377.474 532.324 372.47 532.35H133.77C128.771 532.334 123.984 530.335 120.459 526.791C116.933 523.247 114.959 518.449 114.97 513.45V68.65C114.959 63.6515 116.933 58.8532 120.459 55.3093C123.984 51.7654 128.771 49.7659 133.77 49.75H180.97V55.65C180.97 60.6891 182.972 65.5218 186.535 69.085C190.098 72.6482 194.931 74.65 199.97 74.65H305.87C310.909 74.65 315.742 72.6482 319.305 69.085C322.868 65.5218 324.87 60.6891 324.87 55.65V49.75H372.47C374.953 49.7474 377.412 50.2344 379.706 51.1833C382 52.1322 384.085 53.5243 385.84 55.2798C387.596 57.0354 388.988 59.1199 389.937 61.4142C390.886 63.7084 391.373 66.1673 391.37 68.65Z" fill="white"/>
<path d="M225.77 51.3499H280.47C280.799 51.3473 281.125 51.4101 281.43 51.5348C281.734 51.6595 282.011 51.8436 282.244 52.0762C282.476 52.3089 282.66 52.5856 282.785 52.8901C282.91 53.1946 282.973 53.5209 282.97 53.8499V54.3499C282.973 54.679 282.91 55.0053 282.785 55.3098C282.66 55.6143 282.476 55.891 282.244 56.1236C282.011 56.3563 281.734 56.5404 281.43 56.6651C281.125 56.7898 280.799 56.8526 280.47 56.8499H225.77C225.441 56.8526 225.115 56.7898 224.81 56.6651C224.506 56.5404 224.229 56.3563 223.996 56.1236C223.764 55.891 223.58 55.6143 223.455 55.3098C223.33 55.0053 223.267 54.679 223.27 54.3499V53.8499C223.28 53.1901 223.547 52.5602 224.014 52.0936C224.48 51.627 225.11 51.3602 225.77 51.3499Z" fill="url(#paint1_linear)"/>
<path d="M370.67 49.75V451.85C370.659 460.891 367.063 469.558 360.671 475.951C354.278 482.343 345.611 485.939 336.57 485.95H114.97V68.65C114.959 63.6515 116.933 58.8532 120.459 55.3093C123.984 51.7654 128.771 49.7659 133.77 49.75H180.97V55.65C180.97 60.6891 182.972 65.5218 186.535 69.085C190.098 72.6482 194.931 74.65 199.97 74.65H305.87C310.909 74.65 315.742 72.6482 319.305 69.085C322.868 65.5218 324.87 60.6891 324.87 55.65V49.75H370.67Z" fill="#EBEBF0"/>
<path d="M169.47 227.05H450.07C454.923 227.053 459.576 228.982 463.007 232.413C466.439 235.844 468.367 240.497 468.37 245.35V314.45C468.367 319.303 466.439 323.956 463.007 327.387C459.576 330.819 454.923 332.747 450.07 332.75H169.47C164.617 332.747 159.964 330.819 156.533 327.387C153.102 323.956 151.173 319.303 151.17 314.45V245.35C151.173 240.497 153.102 235.844 156.533 232.413C159.964 228.982 164.617 227.053 169.47 227.05Z" fill="#1A237E"/>
<path d="M169.47 227.05H450.07C454.923 227.053 459.576 228.982 463.007 232.413C466.439 235.844 468.367 240.497 468.37 245.35V314.45C468.367 319.303 466.439 323.956 463.007 327.387C459.576 330.819 454.923 332.747 450.07 332.75H169.47C164.617 332.747 159.964 330.819 156.533 327.387C153.102 323.956 151.173 319.303 151.17 314.45V245.35C151.173 240.497 153.102 235.844 156.533 232.413C159.964 228.982 164.617 227.053 169.47 227.05Z" fill="url(#paint2_linear)"/>
<path d="M174.97 220.45H455.57C460.423 220.453 465.076 222.381 468.507 225.813C471.939 229.244 473.867 233.897 473.87 238.75V307.85C473.867 312.703 471.939 317.356 468.507 320.787C465.076 324.218 460.423 326.147 455.57 326.15H174.97C170.117 326.147 165.464 324.218 162.033 320.787C158.602 317.356 156.673 312.703 156.67 307.85V238.75C156.673 233.897 158.602 229.244 162.033 225.813C165.464 222.381 170.117 220.453 174.97 220.45Z" fill="white"/>
<path d="M190.57 102.85H143.17V150.25H190.57V102.85Z" fill="white"/>
<path d="M185.37 239.85H233.37C235.89 239.85 238.306 240.851 240.088 242.633C241.869 244.414 242.87 246.831 242.87 249.35V297.35C242.87 298.598 242.624 299.833 242.147 300.986C241.669 302.138 240.97 303.185 240.088 304.068C239.205 304.95 238.158 305.65 237.006 306.127C235.853 306.604 234.618 306.85 233.37 306.85H185.37C184.122 306.85 182.887 306.604 181.735 306.127C180.582 305.65 179.535 304.95 178.652 304.068C177.77 303.185 177.071 302.138 176.593 300.986C176.116 299.833 175.87 298.598 175.87 297.35V249.35C175.861 248.1 176.1 246.86 176.574 245.704C177.048 244.547 177.748 243.496 178.632 242.612C179.516 241.728 180.567 241.028 181.724 240.554C182.88 240.08 184.12 239.841 185.37 239.85Z" fill="#EBEBF0"/>
<path d="M190.57 161.65H143.17V209.05H190.57V161.65Z" fill="white"/>
<path d="M190.57 348.65H143.17V396.05H190.57V348.65Z" fill="white"/>
<path d="M190.57 407.45H143.17V454.85H190.57V407.45Z" fill="white"/>
<path opacity="0.38" d="M242.77 288.45V297.35C242.77 298.598 242.524 299.833 242.047 300.986C241.569 302.138 240.87 303.185 239.988 304.068C239.105 304.95 238.058 305.65 236.906 306.127C235.753 306.604 234.518 306.85 233.27 306.85H185.27C184.022 306.85 182.787 306.604 181.635 306.127C180.482 305.65 179.435 304.95 178.553 304.068C177.67 303.185 176.971 302.138 176.493 300.986C176.016 299.833 175.77 298.598 175.77 297.35V288.45C183.761 283.153 192.799 279.64 202.27 278.15C199.522 276.61 197.363 274.2 196.135 271.299C194.906 268.398 194.678 265.171 195.484 262.125C196.291 259.08 198.088 256.389 200.592 254.477C203.096 252.565 206.164 251.539 209.314 251.562C212.465 251.585 215.518 252.655 217.994 254.604C220.469 256.553 222.226 259.269 222.989 262.326C223.751 265.383 223.475 268.606 222.205 271.489C220.934 274.372 218.741 276.751 215.97 278.25C230.17 280.55 242.77 288.45 242.77 288.45Z" fill="white"/>
<path d="M450.17 251.55H269.17C268.374 251.55 267.611 251.234 267.049 250.671C266.486 250.109 266.17 249.346 266.17 248.55C266.17 247.754 266.486 246.991 267.049 246.429C267.611 245.866 268.374 245.55 269.17 245.55H450.17C450.966 245.55 451.729 245.866 452.291 246.429C452.854 246.991 453.17 247.754 453.17 248.55C453.17 249.346 452.854 250.109 452.291 250.671C451.729 251.234 450.966 251.55 450.17 251.55Z" fill="#EBEBF0"/>
<path d="M208.27 115.25H377.87C378.613 115.25 379.325 115.545 379.85 116.07C380.375 116.595 380.67 117.307 380.67 118.05C380.67 118.793 380.375 119.505 379.85 120.03C379.325 120.555 378.613 120.85 377.87 120.85H208.27C207.902 120.85 207.538 120.778 207.198 120.637C206.859 120.496 206.55 120.29 206.29 120.03C206.03 119.77 205.824 119.461 205.683 119.122C205.542 118.782 205.47 118.418 205.47 118.05C205.47 117.682 205.542 117.318 205.683 116.978C205.824 116.639 206.03 116.33 206.29 116.07C206.55 115.81 206.859 115.604 207.198 115.463C207.538 115.322 207.902 115.25 208.27 115.25Z" fill="white"/>
<path d="M377.87 139.85H208.27C207.902 139.85 207.538 139.778 207.198 139.637C206.859 139.496 206.55 139.29 206.29 139.03C206.03 138.77 205.824 138.461 205.683 138.122C205.542 137.782 205.47 137.418 205.47 137.05C205.47 136.682 205.542 136.318 205.683 135.978C205.824 135.639 206.03 135.33 206.29 135.07C206.55 134.81 206.859 134.604 207.198 134.463C207.538 134.322 207.902 134.25 208.27 134.25H377.87C378.613 134.25 379.325 134.545 379.85 135.07C380.375 135.595 380.67 136.307 380.67 137.05C380.655 137.788 380.355 138.491 379.833 139.013C379.311 139.535 378.608 139.835 377.87 139.85Z" fill="white"/>
<path d="M377.87 178.05H208.27C207.902 178.05 207.538 177.978 207.198 177.837C206.859 177.696 206.55 177.49 206.29 177.23C206.03 176.97 205.824 176.661 205.683 176.321C205.542 175.982 205.47 175.618 205.47 175.25C205.47 174.882 205.542 174.518 205.683 174.178C205.824 173.839 206.03 173.53 206.29 173.27C206.55 173.01 206.859 172.804 207.198 172.663C207.538 172.522 207.902 172.45 208.27 172.45H377.87C378.613 172.45 379.325 172.745 379.85 173.27C380.375 173.795 380.67 174.507 380.67 175.25C380.655 175.988 380.355 176.691 379.833 177.213C379.311 177.735 378.608 178.035 377.87 178.05Z" fill="white"/>
<path d="M377.87 194.15H208.27C207.902 194.15 207.538 194.078 207.198 193.937C206.859 193.796 206.55 193.59 206.29 193.33C206.03 193.07 205.824 192.761 205.683 192.422C205.542 192.082 205.47 191.718 205.47 191.35C205.47 190.982 205.542 190.618 205.683 190.279C205.824 189.939 206.03 189.63 206.29 189.37C206.55 189.11 206.859 188.904 207.198 188.763C207.538 188.622 207.902 188.55 208.27 188.55H377.87C378.613 188.55 379.325 188.845 379.85 189.37C380.375 189.895 380.67 190.607 380.67 191.35C380.655 192.088 380.355 192.791 379.833 193.313C379.311 193.835 378.608 194.135 377.87 194.15Z" fill="white"/>
<path d="M377.87 367.15H208.27C207.902 367.15 207.538 367.077 207.198 366.937C206.859 366.796 206.55 366.59 206.29 366.33C206.03 366.07 205.824 365.761 205.683 365.421C205.542 365.082 205.47 364.717 205.47 364.35C205.47 363.982 205.542 363.618 205.683 363.278C205.824 362.939 206.03 362.63 206.29 362.37C206.55 362.11 206.859 361.904 207.198 361.763C207.538 361.622 207.902 361.55 208.27 361.55H377.87C378.613 361.55 379.325 361.845 379.85 362.37C380.375 362.895 380.67 363.607 380.67 364.35C380.655 365.088 380.355 365.791 379.833 366.313C379.311 366.835 378.608 367.134 377.87 367.15Z" fill="white"/>
<path d="M377.87 383.25H208.27C207.902 383.25 207.538 383.177 207.198 383.037C206.859 382.896 206.55 382.69 206.29 382.43C206.03 382.17 205.824 381.861 205.683 381.521C205.542 381.182 205.47 380.818 205.47 380.45C205.47 380.082 205.542 379.718 205.683 379.378C205.824 379.039 206.03 378.73 206.29 378.47C206.55 378.21 206.859 378.004 207.198 377.863C207.538 377.722 207.902 377.65 208.27 377.65H377.87C378.613 377.65 379.325 377.945 379.85 378.47C380.375 378.995 380.67 379.707 380.67 380.45C380.655 381.188 380.355 381.891 379.833 382.413C379.311 382.935 378.608 383.235 377.87 383.25Z" fill="white"/>
<path d="M377.87 425.95H208.27C207.902 425.95 207.538 425.878 207.198 425.737C206.859 425.596 206.55 425.39 206.29 425.13C206.03 424.87 205.824 424.561 205.683 424.222C205.542 423.882 205.47 423.518 205.47 423.15C205.47 422.782 205.542 422.418 205.683 422.079C205.824 421.739 206.03 421.43 206.29 421.17C206.55 420.91 206.859 420.704 207.198 420.563C207.538 420.423 207.902 420.35 208.27 420.35H377.87C378.238 420.35 378.602 420.423 378.941 420.563C379.281 420.704 379.59 420.91 379.85 421.17C380.11 421.43 380.316 421.739 380.457 422.079C380.598 422.418 380.67 422.782 380.67 423.15C380.655 423.888 380.355 424.591 379.833 425.113C379.311 425.635 378.608 425.935 377.87 425.95Z" fill="white"/>
<path d="M377.87 442.05H208.27C207.902 442.05 207.538 441.978 207.198 441.837C206.859 441.696 206.55 441.49 206.29 441.23C206.03 440.97 205.824 440.661 205.683 440.322C205.542 439.982 205.47 439.618 205.47 439.25C205.47 438.883 205.542 438.518 205.683 438.179C205.824 437.839 206.03 437.53 206.29 437.27C206.55 437.01 206.859 436.804 207.198 436.663C207.538 436.523 207.902 436.45 208.27 436.45H377.87C378.613 436.45 379.325 436.745 379.85 437.27C380.375 437.795 380.67 438.508 380.67 439.25C380.655 439.988 380.355 440.691 379.833 441.213C379.311 441.735 378.608 442.035 377.87 442.05Z" fill="white"/>
<path d="M450.17 270.85H269.17C268.374 270.85 267.611 270.534 267.049 269.971C266.486 269.409 266.17 268.646 266.17 267.85C266.17 267.054 266.486 266.291 267.049 265.729C267.611 265.166 268.374 264.85 269.17 264.85H450.17C450.966 264.85 451.729 265.166 452.291 265.729C452.854 266.291 453.17 267.054 453.17 267.85C453.17 268.646 452.854 269.409 452.291 269.971C451.729 270.534 450.966 270.85 450.17 270.85Z" fill="#EBEBF0"/>
<path d="M450.17 290.15H269.17C268.374 290.15 267.611 289.834 267.049 289.271C266.486 288.709 266.17 287.946 266.17 287.15C266.17 286.354 266.486 285.591 267.049 285.029C267.611 284.466 268.374 284.15 269.17 284.15H450.17C450.966 284.15 451.729 284.466 452.291 285.029C452.854 285.591 453.17 286.354 453.17 287.15C453.17 287.946 452.854 288.709 452.291 289.271C451.729 289.834 450.966 290.15 450.17 290.15Z" fill="#EBEBF0"/>
<path d="M415.77 420.95L404.37 503.95C403.885 507.455 404.263 511.024 405.47 514.35L425.87 574.35L437.77 570.65L428.77 510.95C428.587 509.716 428.655 508.457 428.97 507.25L444.47 453.85L451.17 574.25H462.17L471.67 455.35C474.87 435.55 468.97 420.85 468.97 420.85L415.77 420.95Z" fill="#3F3D56"/>
<path d="M474.17 347.75V404.75C474.17 411.75 473.07 417.35 466.07 417.35H417.27C410.27 417.35 410.07 411.75 409.97 404.75L409.57 365.95C409.57 365.95 399.07 384.75 390.67 382.95C382.27 381.15 357.37 346.75 357.37 346.75L369.77 336.35L390.67 357.35C390.67 357.35 394.07 349.75 398.87 332.65C403.67 315.55 419.67 315.45 419.67 315.45H462.07C477.37 315.45 474.17 347.75 474.17 347.75Z" fill="#1A237E"/>
<path d="M473.87 290.15C473.87 290.15 489.37 321.95 490.17 332.85C490.97 343.75 474.37 358.45 474.37 358.45L461.97 315.45H473.77V290.15H473.87Z" fill="#1A237E"/>
<path d="M473.87 290.15C473.87 290.15 489.37 321.95 490.17 332.85C490.97 343.75 474.37 358.45 474.37 358.45L461.97 315.45H473.77V290.15H473.87Z" fill="url(#paint3_linear)"/>
<path d="M474.47 358.45C474.47 358.45 484.57 330.65 483.47 324.35C482.37 318.05 473.87 297.85 473.87 297.85V315.55L458.97 315.85L474.47 358.45Z" fill="#1A237E"/>
<path d="M468.97 417.05H415.77V420.95H468.97V417.05Z" fill="#1A237E"/>
<path d="M468.97 417.05H415.77V420.95H468.97V417.05Z" fill="url(#paint4_linear)"/>
<path d="M449.17 276.75H433.87V315.75H449.17V276.75Z" fill="url(#paint5_linear)"/>
<path d="M449.17 272.45V315.75H441.07V313.15C441.07 311.612 440.459 310.136 439.371 309.049C438.284 307.961 436.808 307.35 435.27 307.35H434.77C432.859 307.359 430.964 306.991 429.195 306.267C427.426 305.543 425.817 304.477 424.461 303.13C423.105 301.783 422.028 300.181 421.291 298.417C420.555 296.653 420.174 294.761 420.17 292.85V272.55H449.17V272.45Z" fill="url(#paint6_linear)"/>
<path d="M424.07 259.25C427.27 257.45 431.17 257.25 434.97 257.15L442.87 256.95C444.639 256.867 446.412 256.934 448.17 257.15C449.859 257.429 451.477 258.038 452.93 258.944C454.382 259.85 455.642 261.033 456.636 262.427C457.631 263.821 458.34 265.397 458.723 267.066C459.106 268.734 459.156 270.462 458.87 272.15C458.696 273.075 458.428 273.979 458.07 274.85C457.766 275.481 457.563 276.156 457.47 276.85C457.64 277.943 458.013 278.994 458.57 279.95C459.67 282.95 457.87 286.15 455.87 288.55C453.87 290.95 451.47 293.45 451.17 296.65C451.07 297.65 451.17 298.85 450.47 299.65C450.039 300.043 449.487 300.277 448.905 300.313C448.323 300.349 447.746 300.186 447.27 299.85C446.355 299.155 445.604 298.267 445.07 297.25C445.17 298.75 443.07 299.55 441.77 298.85C441.159 298.427 440.646 297.878 440.267 297.24C439.887 296.601 439.649 295.889 439.57 295.15C439.397 293.682 438.956 292.259 438.27 290.95C437.57 289.95 436.47 289.25 436.17 288.05C435.57 286.05 437.57 283.85 436.77 281.85C436.17 280.25 433.87 279.75 432.27 280.45C430.738 281.299 429.461 282.542 428.57 284.05C430.07 282.05 428.87 278.65 427.27 277.05C424.77 274.35 421.07 276.65 418.97 274.75C415.07 270.95 420.57 261.25 424.07 259.25Z" fill="#3F3D56"/>
<path opacity="0.25" d="M445.77 315.65C445.77 315.65 439.77 323.45 431.57 323.45C423.37 323.45 399.27 347.05 397.67 354.15C396.07 361.25 390.67 357.35 390.67 357.35C390.67 357.35 394.07 349.75 398.87 332.65C403.67 315.55 419.67 315.45 419.67 315.45H441.27L445.77 315.65Z" fill="white"/>
<path d="M437.67 569.65L441.87 579.95L424.97 587.95L409.27 589.05C409.27 589.05 406.57 578.75 413.87 577.85C418.135 577.363 422.201 575.778 425.67 573.25L437.67 569.65Z" fill="#222A72"/>
<path d="M451.07 574.25C448.948 575.14 447.104 576.584 445.731 578.431C444.359 580.279 443.509 582.461 443.27 584.75L442.87 589.05H462.07V574.25H451.07Z" fill="#222A72"/>
<path d="M369.67 336.45L361.57 326.45C361.57 326.45 358.77 315.75 357.27 322.35C356.37 326.05 353.97 332.75 353.97 332.75H341.57C341.57 332.75 350.27 341.95 353.97 343.65C355.659 344.392 357.443 344.897 359.27 345.15L369.67 336.45Z" fill="url(#paint7_linear)"/>
</g>
<defs>
<linearGradient id="paint0_linear" x1="-58.35" y1="658.85" x2="370.3" y2="66.09" gradientUnits="userSpaceOnUse">
<stop stop-opacity="0"/>
<stop offset="0.85" stop-opacity="0.51"/>
<stop offset="0.99"/>
</linearGradient>
<linearGradient id="paint1_linear" x1="15351.3" y1="1051.03" x2="15351" y2="1169.86" gradientUnits="userSpaceOnUse">
<stop stop-opacity="0"/>
<stop offset="0.85" stop-opacity="0.51"/>
<stop offset="0.99"/>
</linearGradient>
<linearGradient id="paint2_linear" x1="98505.4" y1="41322.2" x2="98475.8" y2="60518.8" gradientUnits="userSpaceOnUse">
<stop stop-opacity="0"/>
<stop offset="0.85" stop-opacity="0.51"/>
<stop offset="0.99"/>
</linearGradient>
<linearGradient id="paint3_linear" x1="16590.1" y1="-1958.18" x2="21797.1" y2="-5256.5" gradientUnits="userSpaceOnUse">
<stop stop-opacity="0"/>
<stop offset="0.85" stop-opacity="0.51"/>
<stop offset="0.99"/>
</linearGradient>
<linearGradient id="paint4_linear" x1="23858.4" y1="2020" x2="23859.9" y2="2115.78" gradientUnits="userSpaceOnUse">
<stop stop-opacity="0"/>
<stop offset="0.85" stop-opacity="0.51"/>
<stop offset="0.99"/>
</linearGradient>
<linearGradient id="paint5_linear" x1="436.77" y1="296.34" x2="461.96" y2="295.88" gradientUnits="userSpaceOnUse">
<stop stop-color="#ECC4D7"/>
<stop offset="0.42" stop-color="#EFD4D1"/>
<stop offset="1" stop-color="#F2EAC9"/>
</linearGradient>
<linearGradient id="paint6_linear" x1="17295" y1="-5723.63" x2="17123.8" y2="-5662.87" gradientUnits="userSpaceOnUse">
<stop stop-color="#ECC4D7"/>
<stop offset="0.42" stop-color="#EFD4D1"/>
<stop offset="1" stop-color="#F2EAC9"/>
</linearGradient>
<linearGradient id="paint7_linear" x1="13971.9" y1="-2271.85" x2="14762.7" y2="-2271.85" gradientUnits="userSpaceOnUse">
<stop stop-color="#ECC4D7"/>
<stop offset="0.42" stop-color="#EFD4D1"/>
<stop offset="1" stop-color="#F2EAC9"/>
</linearGradient>
<clipPath id="clip0">
<rect width="536.69" height="597.08" fill="white"/>
</clipPath>
</defs>
</svg>
