<svg width="468" height="479" viewBox="0 0 468 479" fill="none" xmlns="http://www.w3.org/2000/svg">
<g clip-path="url(#clip0)">
<path opacity="0.18" d="M464.82 261.2C462.62 288.4 464.36 315.83 461.9 343.01C459.44 370.19 452.23 398.01 434.69 418.9C425.661 429.397 414.629 437.987 402.24 444.17C387.74 451.63 371.61 456.41 355.53 459.17C325.74 464.34 295.28 463.55 265.14 465.94C224.26 469.17 183.81 478.25 142.8 478.21C115.54 478.21 87.23 473.46 63.04 461.54C50.7706 455.612 39.6619 447.534 30.24 437.69C-1.34998 404.3 -7.33998 351.8 8.31002 308.59C23.48 266.71 56.97 229.52 55.31 185C54.31 159 41.14 132.58 49.25 107.81C52.47 98.03 58.82 89.51 66.25 82.39C97.62 52.35 144.54 47.09 184.43 30C201.01 22.91 214.78 10 231 3.08001C243 -2.01999 258.76 0.290005 271.25 2.33001C303.54 7.61001 334.07 24.39 355.16 49.53C363.45 59.43 370.48 70.85 372.59 83.59C373.87 91.32 373.34 99.5 376.48 106.68C379.62 113.86 385.85 118.91 391.89 123.77L423.02 148.77C438.79 161.46 455.21 174.99 462.68 193.77C471.05 214.94 466.65 238.58 464.82 261.2Z" fill="#1A237E"/>
<path d="M402.24 444.17C387.74 451.63 371.61 456.41 355.53 459.17C325.74 464.34 295.28 463.55 265.14 465.94C224.26 469.17 183.81 478.25 142.8 478.21C115.54 478.21 87.23 473.46 63.04 461.54C80.79 445.82 111.85 447.07 133.72 443.95C167.48 439.14 201.32 434.57 235.35 432.06C291.24 427.96 348.27 429.49 402.24 444.17Z" fill="url(#paint0_linear)"/>
<path d="M216.36 380.11H304.58V368.58H216.36V380.11Z" fill="#1A237E"/>
<path d="M216.36 380.11H304.58V368.58H216.36V380.11Z" fill="url(#paint1_linear)"/>
<path d="M251.81 379.3H304.51V369.52H251.81V379.3Z" fill="white"/>
<path d="M227.8 368.64H298.51V361.24H227.8V368.64Z" fill="#1A237E"/>
<path d="M227.8 368.64H298.51V361.24H227.8V368.64Z" fill="url(#paint2_linear)"/>
<path d="M265.99 368.64H298.52V361.12H265.99V368.64Z" fill="white"/>
<path d="M216.69 361.17H305.58V353.16H216.69V361.17Z" fill="#1A237E"/>
<path d="M272.99 359.24H307.08V354.69H272.99V359.24Z" fill="white"/>
<path d="M229.46 302.79C229.57 309.22 234.69 336.23 234.7 342.67C234.7 346.9 229.94 346.8 227.13 348.39C225.66 349.22 223.54 351.79 224.99 352.95C229.04 353.16 238.61 352.84 242.65 353.05C243.5 353.05 238.65 316.53 241.97 306.57C243.97 300.57 270.29 281.72 268.17 276.01C267.57 274.38 272.68 263.82 269.05 263.78C260.51 263.68 251.74 264.68 248.91 265.63C248.91 265.64 229.29 293.3 229.46 302.79Z" fill="#3F3D56"/>
<path d="M264.68 263.93C263.281 263.883 261.907 264.309 260.78 265.14C259.18 266.64 259.6 269.25 260.16 271.37C261.91 278.05 264.58 293.37 269.92 310.95C275.5 329.32 283.75 349.82 284.27 351.34C284.5 352.03 284.43 352.51 285.02 352.94C285.61 353.37 300.57 353.16 300.7 352.94C300.7 352.94 301.94 349.63 297.18 347.79C295.95 347.31 292.6 348.14 292.04 346.43C287.23 331.77 285.24 299.81 285.78 293.89C286.46 286.45 289.02 267.44 284.18 263.47C278.88 263.25 270 263.53 264.68 263.93Z" fill="#3F3D56"/>
<path d="M220.09 63.69H216.02V11.42L220.09 8.38V63.69Z" fill="#1A237E"/>
<path d="M220.09 63.69H216.02V11.69L220.09 8.65002V63.69Z" fill="url(#paint3_linear)"/>
<path d="M43.7499 461.43H158.94V438.61H43.7499V461.43Z" fill="#1A237E"/>
<path d="M43.7499 461.43H158.94V438.61H43.7499V461.43Z" fill="url(#paint4_linear)"/>
<path d="M43.96 457.13H85.37V442.19H43.96V457.13Z" fill="white"/>
<path d="M38.9801 438.64H172.31V410.2H38.9801V438.64Z" fill="#1A237E"/>
<path d="M38.9801 438.64H172.31V410.2H38.9801V438.64Z" fill="url(#paint5_linear)"/>
<path d="M100.41 434.85H172.07V413.97H100.41V434.85Z" fill="white"/>
<path d="M44.2 410.35H158.08V389.7H44.2V410.35Z" fill="#1A237E"/>
<path d="M44.2 410.35H158.08V389.7H44.2V410.35Z" fill="url(#paint6_linear)"/>
<path d="M89.4 408.37H158.08V391.93H89.4V408.37Z" fill="white"/>
<path d="M58.97 389.74H150.25V374.24H58.97V389.74Z" fill="#1A237E"/>
<path d="M58.97 389.74H150.25V374.24H58.97V389.74Z" fill="url(#paint7_linear)"/>
<path d="M108.25 388.57H150.25V375.1H108.25V388.57Z" fill="white"/>
<path d="M44.63 374.24H159.38V359.9H44.63V374.24Z" fill="#1A237E"/>
<path d="M44.63 374.24H159.38V359.9H44.63V374.24Z" fill="url(#paint8_linear)"/>
<path d="M117.3 370.8H159.33V362.65H117.3V370.8Z" fill="white"/>
<path d="M54.21 359.78H143.67V342.06H54.21V359.78Z" fill="#1A237E"/>
<path d="M54.21 359.78H143.67V342.06H54.21V359.78Z" fill="url(#paint9_linear)"/>
<path d="M89.94 359.78H143.68V342.06H89.94V359.78Z" fill="url(#paint10_linear)"/>
<path d="M54.37 356.82H86.53V345.22H54.37V356.82Z" fill="white"/>
<path d="M50.5101 342.11H154.06V324.39H50.5101V342.11Z" fill="#1A237E"/>
<path d="M98.21 340.57H151.04V326.29H98.21V340.57Z" fill="white"/>
<path d="M54.55 324.32H143V308.28H54.55V324.32Z" fill="#1A237E"/>
<path d="M54.55 324.32H143V308.28H54.55V324.32Z" fill="url(#paint11_linear)"/>
<path d="M90.1001 323.17H142.93V309.57H90.1001V323.17Z" fill="white"/>
<path d="M66.03 308.36H136.92V298.06H66.03V308.36Z" fill="#1A237E"/>
<path d="M66.03 308.36H136.92V298.06H66.03V308.36Z" fill="url(#paint12_linear)"/>
<path d="M104.31 308.36H136.93V297.9H104.31V308.36Z" fill="white"/>
<path d="M54.89 297.96H144.01V286.82H54.89V297.96Z" fill="#1A237E"/>
<path d="M110 295.33H144.18V289H110V295.33Z" fill="white"/>
<path d="M440.87 438.61H325.68V461.43H440.87V438.61Z" fill="#1A237E"/>
<path d="M440.87 438.61H325.68V461.43H440.87V438.61Z" fill="url(#paint13_linear)"/>
<path d="M440.67 442.19H399.26V457.13H440.67V442.19Z" fill="white"/>
<path d="M445.64 410.2H312.31V438.64H445.64V410.2Z" fill="#1A237E"/>
<path d="M445.64 410.2H312.31V438.64H445.64V410.2Z" fill="url(#paint14_linear)"/>
<path d="M384.22 413.97H312.56V434.85H384.22V413.97Z" fill="white"/>
<path d="M440.43 389.7H326.55V410.35H440.43V389.7Z" fill="#1A237E"/>
<path d="M440.43 389.7H326.55V410.35H440.43V389.7Z" fill="url(#paint15_linear)"/>
<path d="M395.22 391.93H326.54V408.37H395.22V391.93Z" fill="white"/>
<path d="M425.65 374.24H334.37V389.74H425.65V374.24Z" fill="#1A237E"/>
<path d="M425.65 374.24H334.37V389.74H425.65V374.24Z" fill="url(#paint16_linear)"/>
<path d="M376.37 375.09H334.37V388.56H376.37V375.09Z" fill="white"/>
<path d="M439.99 359.9H325.24V374.24H439.99V359.9Z" fill="#1A237E"/>
<path d="M439.99 359.9H325.24V374.24H439.99V359.9Z" fill="url(#paint17_linear)"/>
<path d="M367.32 362.65H325.29V370.8H367.32V362.65Z" fill="white"/>
<path d="M430.41 342.05H340.95V359.77H430.41V342.05Z" fill="#1A237E"/>
<path d="M430.41 342.05H340.95V359.77H430.41V342.05Z" fill="url(#paint18_linear)"/>
<path d="M394.69 342.05H340.95V359.77H394.69V342.05Z" fill="url(#paint19_linear)"/>
<path d="M430.25 345.22H398.09V356.82H430.25V345.22Z" fill="white"/>
<path d="M434.12 324.39H330.57V342.11H434.12V324.39Z" fill="#1A237E"/>
<path d="M386.42 326.29H333.59V340.57H386.42V326.29Z" fill="white"/>
<path d="M430.07 308.28H341.62V324.32H430.07V308.28Z" fill="#1A237E"/>
<path d="M430.07 308.28H341.62V324.32H430.07V308.28Z" fill="url(#paint20_linear)"/>
<path d="M394.52 309.58H341.69V323.18H394.52V309.58Z" fill="white"/>
<path d="M418.59 298.06H347.7V308.36H418.59V298.06Z" fill="#1A237E"/>
<path d="M418.59 298.06H347.7V308.36H418.59V298.06Z" fill="url(#paint21_linear)"/>
<path d="M380.32 297.89H347.7V308.35H380.32V297.89Z" fill="white"/>
<path d="M429.73 286.83H340.61V297.97H429.73V286.83Z" fill="#1A237E"/>
<path d="M373.29 288.96H339.11V295.29H373.29V288.96Z" fill="white"/>
<path d="M243.82 268.84C244.31 272.96 259.63 268.11 261.02 268.02C264.09 267.82 285.28 269.02 288.02 267.67C294.49 264.6 277.68 210.12 273.6 207.67C269.78 205.38 265.12 204.91 260.66 205.02C251.32 205.26 243.56 209.92 240.95 219.38C239.87 223.29 241.74 227.31 242.77 231.04C244.3 236.41 243.16 263.3 243.82 268.84Z" fill="#1A237E"/>
<path d="M249.54 203.26C248.28 200.64 244.82 199.91 242.97 197.66C241.26 195.61 241.21 192.66 241.3 190.01C241.42 186.49 241.68 182.83 243.47 179.79C245.26 176.75 249.05 174.62 252.35 175.79C253.873 176.47 255.216 177.497 256.27 178.79C257.674 180.139 258.796 181.753 259.57 183.54C260.57 186.28 260.09 189.34 259.26 192.13C258.43 194.92 257.26 197.65 256.94 200.55C256.72 202.64 256.94 204.79 256.5 206.85C256.06 208.91 254.72 211.01 252.65 211.41C249.05 212.14 250.43 205.22 249.54 203.26Z" fill="url(#paint22_linear)"/>
<path d="M247.17 227.15C247.24 228.54 247.22 230.15 246.17 231.07C245.611 231.506 244.937 231.771 244.23 231.83C240.34 232.38 199.52 203.71 194.62 182.83C194.44 182.08 197.28 179.97 199.51 179.28C200.6 178.95 201.51 178.95 201.94 179.6C217.83 205.23 244.94 208.2 247.79 209.41C248.282 209.674 248.691 210.071 248.97 210.555C249.25 211.039 249.388 211.591 249.37 212.15C249.83 216.28 247.02 223.79 247.17 227.15Z" fill="#1A237E"/>
<path d="M270.45 124.89C270.431 137.309 265.792 149.276 257.435 158.463C249.077 167.649 237.601 173.396 225.239 174.585C212.877 175.775 200.515 172.321 190.56 164.897C180.604 157.473 173.768 146.61 171.382 134.422C168.996 122.235 171.23 109.596 177.651 98.9652C184.071 88.3349 194.218 80.4744 206.116 76.9141C218.014 73.3538 230.81 74.3486 242.015 79.7048C253.219 85.0609 262.029 94.3952 266.73 105.89C269.194 111.921 270.457 118.375 270.45 124.89Z" fill="#1A237E"/>
<path d="M244.92 143.3C245.352 145.652 245.616 148.031 245.71 150.42C245.65 155.05 243.56 159.42 240.71 163.1C237.718 166.634 234.348 169.83 230.66 172.63C234.3 173.43 238.09 172.32 241.47 170.77C249.825 166.923 256.726 160.499 261.16 152.44C261.568 151.858 261.749 151.147 261.67 150.44C261.512 149.965 261.245 149.533 260.89 149.18C258.36 146.06 257.3 142.01 255.34 138.5C253.95 136.03 249.82 131.02 246.34 132.6C243.1 134.05 244.54 140.48 244.92 143.3Z" fill="url(#paint23_linear)"/>
<path d="M258.07 200.91C258.446 200.939 258.824 200.878 259.172 200.732C259.52 200.586 259.828 200.359 260.07 200.07C260.58 199.53 260.95 198.87 261.43 198.31C262.531 197.265 263.73 196.327 265.01 195.51C266.668 194.189 267.888 192.397 268.51 190.37C268.709 189.864 268.72 189.303 268.54 188.79C268.27 188.341 267.913 187.95 267.49 187.64C266.28 186.45 266.1 184.64 265.89 182.89C265.68 181.14 265.26 179.32 263.8 178.42C264.029 176.953 263.892 175.451 263.4 174.05C263.135 173.358 262.633 172.782 261.982 172.427C261.332 172.071 260.576 171.959 259.85 172.11C259.686 172.184 259.51 172.225 259.33 172.23C258.87 172.23 258.7 171.62 258.57 171.17C258.37 170.42 258 169.727 257.491 169.142C256.981 168.557 256.343 168.097 255.628 167.797C254.913 167.497 254.138 167.364 253.363 167.41C252.589 167.456 251.835 167.678 251.16 168.06C250.764 168.319 250.349 168.55 249.92 168.75C248.92 169.11 247.83 168.8 246.78 168.89C244.93 169.04 243.44 170.41 242.17 171.76C241.9 172.103 241.559 172.383 241.17 172.58C240.808 172.695 240.429 172.746 240.05 172.73C238.52 172.73 236.69 173.27 236.29 174.73C236.164 175.292 236.202 175.879 236.4 176.42C236.814 177.661 237.598 178.745 238.648 179.524C239.698 180.304 240.963 180.743 242.27 180.78C243.52 180.78 244.54 179.91 245.66 179.36C245.821 179.262 246.002 179.201 246.19 179.18C246.419 179.183 246.645 179.238 246.85 179.34C249 180.15 251.38 179.78 253.67 179.65C254.164 179.586 254.667 179.634 255.14 179.79C255.607 180.009 256.002 180.355 256.28 180.79C258.09 183.23 257.64 186.6 257.11 189.6C257.438 189.644 257.771 189.623 258.09 189.537C258.41 189.451 258.709 189.303 258.97 189.1C259.181 189.463 259.312 189.868 259.352 190.286C259.393 190.704 259.344 191.127 259.207 191.524C259.071 191.922 258.85 192.285 258.561 192.59C258.271 192.894 257.92 193.133 257.53 193.29C257.219 193.352 256.925 193.482 256.67 193.67C256.488 193.875 256.37 194.129 256.33 194.4C256.171 195.546 256.244 196.713 256.542 197.831C256.841 198.949 257.361 199.996 258.07 200.91Z" fill="#3F3D56"/>
<path d="M213.2 142.79C213.11 145.855 212.56 148.888 211.57 151.79C210.48 154.58 208.57 157.11 208.27 160.1C208.13 161.53 208.39 162.98 208.27 164.41C208.264 165.131 208.07 165.837 207.707 166.46C207.344 167.083 206.824 167.6 206.2 167.96C205.467 168.195 204.68 168.202 203.943 167.981C203.206 167.759 202.553 167.32 202.07 166.72C201.131 165.507 200.383 164.158 199.85 162.72C198.573 159.955 196.843 157.424 194.73 155.23C192.798 153.47 190.956 151.614 189.21 149.67C187.6 147.67 186.46 144.99 186.99 142.42C187.33 140.78 188.33 139.18 187.99 137.53C187.707 136.617 187.27 135.758 186.7 134.99C185.854 133.522 185.384 131.867 185.33 130.174C185.276 128.48 185.64 126.799 186.39 125.28C187.31 123.46 188.83 121.76 188.7 119.72C188.617 119 188.429 118.295 188.14 117.63C187.39 115.63 186.23 113.39 184.14 113.25C182.36 113.12 180.97 114.64 179.48 115.62C177.99 116.6 175.39 116.62 175.01 114.9C174.371 112.264 173.883 109.592 173.55 106.9C178.179 94.8675 187.249 85.0704 198.89 79.53C200.398 80.8283 201.56 82.4813 202.27 84.34C197.73 89.21 197.48 96.84 193.42 102.1C192.11 103.81 190.42 105.22 189.26 107.03C188.1 108.84 187.56 111.28 188.71 113.09C190.65 116.17 195.37 115.09 198.71 116.62C200.88 117.62 202.61 119.71 204.99 119.86C206.26 119.93 207.54 119.41 208.78 119.69C210.55 120.08 211.55 121.93 212.13 123.69C214.18 129.79 213.7 136.38 213.2 142.79Z" fill="url(#paint24_linear)"/>
<path d="M214.6 55.69C218.879 55.7036 223.139 56.2546 227.28 57.33C228.72 57.5845 230.06 58.2356 231.15 59.21C231.679 59.71 232.009 60.3854 232.077 61.1103C232.145 61.8353 231.947 62.5602 231.52 63.15C232.324 63.115 233.122 63.3075 233.822 63.7054C234.522 64.1032 235.095 64.6904 235.476 65.3994C235.857 66.1085 236.031 66.9106 235.976 67.7138C235.922 68.5169 235.643 69.2885 235.17 69.94C236.149 70.314 237.044 70.8787 237.802 71.6015C238.561 72.3242 239.169 73.1905 239.59 74.15C239.938 74.834 240.112 75.5928 240.098 76.36C240.084 77.1271 239.882 77.8791 239.51 78.55C238.16 80.55 235.23 80.46 232.82 80.22C222.875 79.2578 212.84 79.9027 203.1 82.13C200.92 82.63 198.15 83.01 196.86 81.13C195.41 79.07 197.23 76.35 198.95 74.52C197.36 74.71 196.12 72.85 196.38 71.26C196.795 69.6956 197.803 68.3543 199.19 67.52C200.562 66.6994 201.811 65.6894 202.9 64.52C201.29 64.39 200.4 62.31 201.02 60.82C202.54 57.12 211.26 55.68 214.6 55.69Z" fill="#1A237E"/>
<path d="M239.92 77.67C239.831 77.9833 239.693 78.2804 239.51 78.55C238.16 80.55 235.23 80.46 232.82 80.23C222.876 79.2594 212.84 79.901 203.1 82.13C200.99 82.6 198.34 82.98 197.02 81.36C196.961 81.3051 196.908 81.2449 196.86 81.18C195.42 79.12 197.23 76.39 198.95 74.56C197.36 74.75 196.12 72.89 196.38 71.3C196.797 69.7338 197.804 68.3899 199.19 67.55C200.56 66.7321 201.806 65.7218 202.89 64.55C201.29 64.42 200.4 62.34 201.02 60.85C202.56 57.14 211.26 55.7 214.6 55.71C218.882 55.7207 223.146 56.2717 227.29 57.35C228.727 57.6027 230.065 58.2541 231.15 59.23C231.679 59.73 232.009 60.4054 232.077 61.1304C232.145 61.8553 231.947 62.5802 231.52 63.17C232.325 63.133 233.124 63.324 233.825 63.7212C234.527 64.1183 235.102 64.7053 235.484 65.4147C235.866 66.1241 236.041 66.9271 235.987 67.7312C235.933 68.5353 235.654 69.3079 235.18 69.96C237.148 70.7262 238.733 72.2396 239.59 74.17C240.1 75.2639 240.216 76.5002 239.92 77.67Z" fill="url(#paint25_linear)"/>
<path d="M269.54 180.17C267.22 169.26 258.54 160.71 255.44 149.99C255.31 149.52 253.83 147.18 254.08 146.77C254.62 145.93 261.08 142.19 261.81 142.83C270.94 150.62 273.89 160.98 279.08 171.83C284.27 182.68 286.19 213.22 280.28 223.66C278.85 226.2 277.78 216.02 274.87 215.83C267.65 215.35 265.92 209.04 267.16 203.57C268.89 195.71 271.24 188.29 269.54 180.17Z" fill="#1A237E"/>
<path d="M266.73 105.91C266.66 106.14 266.6 106.38 266.54 106.62C266.305 107.359 265.873 108.021 265.29 108.532C264.706 109.043 263.994 109.385 263.23 109.52C261.698 109.763 260.134 109.716 258.62 109.38C258.25 114.38 263.04 118.81 261.99 123.67C261.14 127.56 256.91 129.77 255.23 133.39C254.67 134.62 254.41 135.98 253.74 137.16C252.32 139.65 249.4 140.81 246.74 141.79C246.137 142.071 245.473 142.192 244.81 142.14C243.997 141.925 243.273 141.46 242.74 140.81C240.287 138.581 238.129 136.047 236.32 133.27C234.501 130.464 233.818 127.071 234.41 123.78C234.85 121.86 235.85 120.11 236.46 118.24C237.07 116.37 237.22 114.16 236.08 112.56C235.56 111.83 234.8 111.29 234.3 110.56C234.021 110.207 233.869 109.77 233.869 109.32C233.869 108.87 234.021 108.433 234.3 108.08C234.739 107.748 235.27 107.559 235.82 107.54L243.21 106.54C244.608 106.483 245.958 106.013 247.09 105.19C248.09 104.25 248.34 102.33 247.17 101.58C244.008 103.726 240.419 105.163 236.65 105.79C235.46 103.08 234.26 99.94 235.46 97.22C235.922 96.3345 236.505 95.5169 237.19 94.79C240.41 90.99 243.627 87.19 246.84 83.39C247.033 83.1474 247.271 82.9437 247.54 82.79C256.151 88.3519 262.849 96.4216 266.73 105.91Z" fill="url(#paint26_linear)"/>
<path d="M189.86 171.41C190.475 174.277 191.421 177.062 192.68 179.71C193.588 180.713 194.571 181.645 195.62 182.5C196.53 183.3 198.26 181.89 199.26 181.12C201.51 179.38 200.36 173.93 201.26 171.12C199.61 170.03 198.34 170.99 196.75 169.81C195.613 169.116 194.742 168.059 194.28 166.81C194.218 166.408 194.117 166.013 193.98 165.63C193.797 165.292 193.553 164.99 193.26 164.74C192.84 164.34 191.66 162.74 191.07 162.88C190.48 163.02 190.07 164.88 189.99 165.43C189.498 167.388 189.454 169.432 189.86 171.41Z" fill="url(#paint27_linear)"/>
<path d="M261.46 133.73C261.25 133.3 260.84 132.82 260.39 132.99C260.17 133.108 260.003 133.304 259.92 133.54L258.22 136.88L255.35 131.64C254.49 130.07 253.44 128.34 251.7 127.91C251.601 127.872 251.494 127.857 251.388 127.867C251.282 127.878 251.18 127.913 251.09 127.97C250.86 128.16 250.94 128.52 251.03 128.81L251.74 130.89C250.095 129.595 248.091 128.837 246 128.72C245.809 128.687 245.613 128.697 245.426 128.749C245.24 128.801 245.067 128.893 244.92 129.02C244.57 129.42 244.79 130.02 245.02 130.5C245.8 132.047 246.633 133.56 247.52 135.04C247.24 134.47 246.28 134.69 246.02 135.26C245.833 135.869 245.894 136.526 246.19 137.09C247.79 141.275 250.365 145.018 253.7 148.01C254.12 148.39 254.7 148.77 255.2 148.55C255.532 148.333 255.78 148.008 255.9 147.63C256.592 146.183 257.704 144.977 259.09 144.17C262.85 141.98 263.4 137.69 261.46 133.73Z" fill="url(#paint28_linear)"/>
<path d="M239.92 77.67C239.831 77.9833 239.693 78.2804 239.51 78.55C238.16 80.55 235.23 80.46 232.82 80.23C222.876 79.2595 212.84 79.9011 203.1 82.13C200.99 82.6 198.34 82.98 197.02 81.36C197.047 81.1106 197.125 80.8695 197.251 80.6525C197.377 80.4354 197.547 80.2472 197.75 80.1C198.026 79.9288 198.326 79.8007 198.64 79.72C202.916 78.2653 207.299 77.1486 211.75 76.38C213.883 76.0901 216.029 75.9099 218.18 75.84C219.96 75.79 221.75 75.79 223.54 75.79C226.647 75.83 229.753 76.0034 232.86 76.31C234.39 76.46 235.93 76.65 237.45 76.87C238.19 76.95 239.54 76.91 239.92 77.67Z" fill="url(#paint29_linear)"/>
<path d="M211.83 64.17H228.41C229.5 64.2879 230.6 64.0568 231.55 63.51C231.855 63.3279 232.081 63.0378 232.183 62.6971C232.285 62.3564 232.255 61.9899 232.1 61.67C231.857 61.3943 231.536 61.199 231.18 61.11C226.41 59.41 221.18 59.44 216.18 59.74C213.815 59.7895 211.464 60.1253 209.18 60.74C207.74 61.18 203.95 62.56 203.74 64.32C204.83 64.59 206.47 64.16 207.65 64.12C209 64.17 210.42 64.17 211.83 64.17Z" fill="url(#paint30_linear)"/>
<path d="M211.54 71.36C214.07 71.01 216.62 70.9 219.17 70.79C223.69 70.59 228.17 70.4 232.74 70.45C233.421 70.5181 234.109 70.415 234.74 70.15C235.048 70.0114 235.296 69.7661 235.438 69.4591C235.579 69.1522 235.605 68.8044 235.51 68.48C235.22 67.8 234.33 67.66 233.59 67.62C227.396 67.2883 221.186 67.3518 215 67.81C213.168 67.906 211.346 68.1434 209.55 68.52C206.368 69.3849 203.3 70.6235 200.41 72.21C199.68 72.57 198.25 73.48 199.58 74.07C200.58 74.49 202.42 73.46 203.36 73.19C206.038 72.3817 208.772 71.77 211.54 71.36Z" fill="url(#paint31_linear)"/>
<path d="M325.99 443.96H210.8V466.78H325.99V443.96Z" fill="#1A237E"/>
<path d="M325.99 443.96H210.8V466.78H325.99V443.96Z" fill="url(#paint32_linear)"/>
<path d="M325.78 447.54H284.37V462.48H325.78V447.54Z" fill="white"/>
<path d="M330.76 415.55H197.43V443.99H330.76V415.55Z" fill="#1A237E"/>
<path d="M330.76 415.55H197.43V443.99H330.76V415.55Z" fill="url(#paint33_linear)"/>
<path d="M269.33 419.32H197.67V440.2H269.33V419.32Z" fill="white"/>
<path d="M325.55 395.05H211.67V415.7H325.55V395.05Z" fill="#1A237E"/>
<path d="M325.55 395.05H211.67V415.7H325.55V395.05Z" fill="url(#paint34_linear)"/>
<path d="M280.34 397.28H211.66V413.72H280.34V397.28Z" fill="white"/>
<path d="M310.77 379.59H219.49V395.09H310.77V379.59Z" fill="#1A237E"/>
<path d="M310.77 379.59H219.49V395.09H310.77V379.59Z" fill="url(#paint35_linear)"/>
<path d="M261.49 380.44H219.49V393.91H261.49V380.44Z" fill="white"/>
<path d="M249.38 212.1C248.51 213.03 246.88 213.19 245.51 213.1C233.17 212.35 222.19 205.1 213.02 196.78C209.094 193.231 205.355 189.479 201.82 185.54C200.61 184.2 198.51 182.71 198.82 180.73C198.904 180.168 199.151 179.643 199.53 179.22C200.62 178.89 201.53 178.89 201.96 179.54C217.85 205.17 244.96 208.14 247.81 209.35C248.302 209.616 248.71 210.015 248.987 210.501C249.265 210.987 249.401 211.541 249.38 212.1Z" fill="url(#paint36_linear)"/>
</g>
<defs>
<linearGradient id="paint0_linear" x1="231.41" y1="418.74" x2="246.55" y2="839.08" gradientUnits="userSpaceOnUse">
<stop stop-opacity="0"/>
<stop offset="0.99"/>
</linearGradient>
<linearGradient id="paint1_linear" x1="45466.1" y1="4662.13" x2="45471.6" y2="5314.24" gradientUnits="userSpaceOnUse">
<stop stop-opacity="0"/>
<stop offset="0.99"/>
</linearGradient>
<linearGradient id="paint2_linear" x1="36673.3" y1="3136.3" x2="36672.6" y2="2835.28" gradientUnits="userSpaceOnUse">
<stop stop-opacity="0"/>
<stop offset="0.99"/>
</linearGradient>
<linearGradient id="paint3_linear" x1="1102.75" y1="1635.08" x2="2441.27" y2="5201.68" gradientUnits="userSpaceOnUse">
<stop stop-opacity="0"/>
<stop offset="0.99"/>
</linearGradient>
<linearGradient id="paint4_linear" x1="15017.3" y1="10566.8" x2="15009.4" y2="12480.6" gradientUnits="userSpaceOnUse">
<stop stop-opacity="0"/>
<stop offset="0.99"/>
</linearGradient>
<linearGradient id="paint5_linear" x1="17941.2" y1="12435.2" x2="17925.3" y2="14127.1" gradientUnits="userSpaceOnUse">
<stop stop-opacity="0"/>
<stop offset="0.99"/>
</linearGradient>
<linearGradient id="paint6_linear" x1="15904.3" y1="8704.83" x2="-3896.75" y2="3710.89" gradientUnits="userSpaceOnUse">
<stop stop-opacity="0"/>
<stop offset="0.99"/>
</linearGradient>
<linearGradient id="paint7_linear" x1="12212" y1="6365" x2="12209.9" y2="5949.57" gradientUnits="userSpaceOnUse">
<stop stop-opacity="0"/>
<stop offset="0.99"/>
</linearGradient>
<linearGradient id="paint8_linear" x1="14975.9" y1="5425.66" x2="14980.4" y2="7092.02" gradientUnits="userSpaceOnUse">
<stop stop-opacity="0"/>
<stop offset="0.99"/>
</linearGradient>
<linearGradient id="paint9_linear" x1="11447.8" y1="6659.05" x2="11449.9" y2="5911.13" gradientUnits="userSpaceOnUse">
<stop stop-opacity="0"/>
<stop offset="0.99"/>
</linearGradient>
<linearGradient id="paint10_linear" x1="7894.05" y1="6657.64" x2="7897.38" y2="5928.86" gradientUnits="userSpaceOnUse">
<stop stop-opacity="0"/>
<stop offset="0.99"/>
</linearGradient>
<linearGradient id="paint11_linear" x1="11278" y1="5332.64" x2="11291.6" y2="6476.7" gradientUnits="userSpaceOnUse">
<stop stop-opacity="0"/>
<stop offset="0.99"/>
</linearGradient>
<linearGradient id="paint12_linear" x1="9293.07" y1="3551.12" x2="9291.34" y2="2996.22" gradientUnits="userSpaceOnUse">
<stop stop-opacity="0"/>
<stop offset="0.99"/>
</linearGradient>
<linearGradient id="paint13_linear" x1="-184023" y1="10564.6" x2="-184015" y2="12478.4" gradientUnits="userSpaceOnUse">
<stop stop-opacity="0"/>
<stop offset="0.99"/>
</linearGradient>
<linearGradient id="paint14_linear" x1="-213822" y1="12433" x2="-213807" y2="14124.9" gradientUnits="userSpaceOnUse">
<stop stop-opacity="0"/>
<stop offset="0.99"/>
</linearGradient>
<linearGradient id="paint15_linear" x1="-182968" y1="8702.62" x2="-163167" y2="3708.68" gradientUnits="userSpaceOnUse">
<stop stop-opacity="0"/>
<stop offset="0.99"/>
</linearGradient>
<linearGradient id="paint16_linear" x1="-145775" y1="6362.78" x2="-145773" y2="5947.35" gradientUnits="userSpaceOnUse">
<stop stop-opacity="0"/>
<stop offset="0.99"/>
</linearGradient>
<linearGradient id="paint17_linear" x1="-183328" y1="5423.44" x2="-183332" y2="7089.8" gradientUnits="userSpaceOnUse">
<stop stop-opacity="0"/>
<stop offset="0.99"/>
</linearGradient>
<linearGradient id="paint18_linear" x1="-142325" y1="6656.84" x2="-142327" y2="5908.92" gradientUnits="userSpaceOnUse">
<stop stop-opacity="0"/>
<stop offset="0.99"/>
</linearGradient>
<linearGradient id="paint19_linear" x1="-85795.8" y1="6655.43" x2="-85799.2" y2="5926.65" gradientUnits="userSpaceOnUse">
<stop stop-opacity="0"/>
<stop offset="0.99"/>
</linearGradient>
<linearGradient id="paint20_linear" x1="-140658" y1="5330.44" x2="-140672" y2="6474.51" gradientUnits="userSpaceOnUse">
<stop stop-opacity="0"/>
<stop offset="0.99"/>
</linearGradient>
<linearGradient id="paint21_linear" x1="-112643" y1="3548.89" x2="-112641" y2="2993.99" gradientUnits="userSpaceOnUse">
<stop stop-opacity="0"/>
<stop offset="0.99"/>
</linearGradient>
<linearGradient id="paint22_linear" x1="241.22" y1="193.49" x2="260.09" y2="193.49" gradientUnits="userSpaceOnUse">
<stop stop-color="#ECC4D7"/>
<stop offset="0.42" stop-color="#EFD4D1"/>
<stop offset="1" stop-color="#F2EAC9"/>
</linearGradient>
<linearGradient id="paint23_linear" x1="9218.59" y1="5484.05" x2="3389.07" y2="12912.6" gradientUnits="userSpaceOnUse">
<stop stop-opacity="0"/>
<stop offset="0.99"/>
</linearGradient>
<linearGradient id="paint24_linear" x1="7661.35" y1="9797.54" x2="17437.1" y2="11474.9" gradientUnits="userSpaceOnUse">
<stop stop-opacity="0"/>
<stop offset="0.99"/>
</linearGradient>
<linearGradient id="paint25_linear" x1="216.81" y1="50.89" x2="219.72" y2="106.77" gradientUnits="userSpaceOnUse">
<stop stop-color="white" stop-opacity="0"/>
<stop offset="0.99" stop-color="white"/>
</linearGradient>
<linearGradient id="paint26_linear" x1="10012.6" y1="6160.23" x2="3987.86" y2="8034.12" gradientUnits="userSpaceOnUse">
<stop stop-opacity="0"/>
<stop offset="0.99"/>
</linearGradient>
<linearGradient id="paint27_linear" x1="4866.63" y1="3454.76" x2="5003.57" y2="3457.92" gradientUnits="userSpaceOnUse">
<stop stop-color="#ECC4D7"/>
<stop offset="0.42" stop-color="#EFD4D1"/>
<stop offset="1" stop-color="#F2EAC9"/>
</linearGradient>
<linearGradient id="paint28_linear" x1="5112.37" y1="3042.3" x2="5429.69" y2="3042.3" gradientUnits="userSpaceOnUse">
<stop stop-color="#ECC4D7"/>
<stop offset="0.42" stop-color="#EFD4D1"/>
<stop offset="1" stop-color="#F2EAC9"/>
</linearGradient>
<linearGradient id="paint29_linear" x1="9870.11" y1="624.627" x2="11710.5" y2="624.627" gradientUnits="userSpaceOnUse">
<stop stop-color="white" stop-opacity="0"/>
<stop offset="0.99" stop-color="white"/>
</linearGradient>
<linearGradient id="paint30_linear" x1="7206.85" y1="342.98" x2="7208.7" y2="443.866" gradientUnits="userSpaceOnUse">
<stop stop-color="white" stop-opacity="0"/>
<stop offset="0.99" stop-color="white"/>
</linearGradient>
<linearGradient id="paint31_linear" x1="9163.52" y1="469.863" x2="9164.8" y2="716.994" gradientUnits="userSpaceOnUse">
<stop stop-color="white" stop-opacity="0"/>
<stop offset="0.99" stop-color="white"/>
</linearGradient>
<linearGradient id="paint32_linear" x1="-197141" y1="10691.8" x2="-197133" y2="12605.8" gradientUnits="userSpaceOnUse">
<stop stop-opacity="0"/>
<stop offset="0.99"/>
</linearGradient>
<linearGradient id="paint33_linear" x1="-229026" y1="12590.2" x2="-229010" y2="14282.4" gradientUnits="userSpaceOnUse">
<stop stop-opacity="0"/>
<stop offset="0.99"/>
</linearGradient>
<linearGradient id="paint34_linear" x1="-195936" y1="8818.46" x2="-176138" y2="3819.3" gradientUnits="userSpaceOnUse">
<stop stop-opacity="0"/>
<stop offset="0.99"/>
</linearGradient>
<linearGradient id="paint35_linear" x1="-156146" y1="6450.9" x2="-156144" y2="6035.48" gradientUnits="userSpaceOnUse">
<stop stop-opacity="0"/>
<stop offset="0.99"/>
</linearGradient>
<linearGradient id="paint36_linear" x1="13409.1" y1="6255.32" x2="10507.2" y2="16526.4" gradientUnits="userSpaceOnUse">
<stop stop-opacity="0"/>
<stop offset="0.99"/>
</linearGradient>
<clipPath id="clip0">
<rect width="467.62" height="478.25" fill="white"/>
</clipPath>
</defs>
</svg>
