<svg width="809" height="598" viewBox="0 0 809 598" fill="none" xmlns="http://www.w3.org/2000/svg">
<g clip-path="url(#clip0)">
<path opacity="0.18" d="M293.09 43.5999C271.84 63.2899 256.09 88.6 233.51 106.71C195.33 137.39 143.51 143.49 98.61 163.02C68.91 175.94 40.75 196.41 27.61 226.02C17 250.02 18.34 278.31 29.37 302.02C34.64 313.387 36.9818 325.893 36.1818 338.397C35.3819 350.901 31.4656 363.007 24.79 373.61C8.43998 399.51 -1.42002 429.1 0.16998 459.49C2.62998 506.23 38.12 552.34 84.73 556.64C100.73 558.12 116.81 554.87 132.65 551.97C228.32 534.47 329.58 529.97 420.58 564.24C445.52 573.64 469.53 585.89 495.46 592.07C525.75 599.29 557.33 597.92 588.46 596.51C637.04 594.31 693.72 587.51 718.53 545.67C752.92 487.67 698.14 415.26 705.93 348.3C710.24 311.3 733.57 278.76 738.49 241.87C743.83 201.77 724.82 159.38 691.32 136.7C644.8 105.21 580.47 112.85 532.44 83.7C494.44 60.63 468.32 15.55 423.52 3.27995C379.58 -8.74005 325.07 13.9999 293.09 43.5999Z" fill="#1A237E"/>
<path opacity="0.11" d="M90.9199 446.41C86.2199 414.14 75.0099 383.07 70.4699 350.77C65.9299 318.47 69.0899 282.95 89.7799 257.77C103.28 241.34 122.68 231.09 141.65 221.48C158.52 212.93 175.89 204.41 194.65 202.09C211.19 200.09 227.88 202.94 244.42 204.92C275.54 208.64 307.23 209.13 338.12 203.83C378.45 196.83 416.58 180.83 456 170C494.61 159.34 532.83 153.91 576 174C605.84 187.9 627.86 216.92 635 249C646.54 300.83 620.48 358.27 642.39 406.63C648.57 420.25 658.17 431.99 666.01 444.73C675.647 460.437 682.602 477.639 686.59 495.63C687.96 501.82 688.97 508.35 687.22 514.44C682.72 530.04 663.44 535.23 647.22 536.51C593.29 540.77 539.41 530.71 485.62 524.86C398.3 515.38 310.19 517.05 222.72 523.58C201.313 525.18 179.92 527.047 158.54 529.18C141.29 530.87 108.54 541.18 92.2799 536.27C74.1499 530.78 86.0499 518.89 89.8899 501.82C93.9999 483.7 93.5799 464.65 90.9199 446.41Z" fill="#1A237E"/>
<path d="M384 137.18C384 137.18 375.73 170.8 363.37 180.18C350.61 189.86 337.37 171.26 337.37 171.26L330 184.58C330 184.58 343.63 206.58 357.37 207.09C371.11 207.6 383.17 195.3 383.17 195.3L384 137.18Z" fill="#1A237E"/>
<path d="M313.37 114.09L315.24 113.26L353.36 122.95L364.81 200.15H363.38L313.37 114.09Z" fill="#3F3D56"/>
<path opacity="0.05" d="M133.05 530.65C133.05 530.65 49.9 536.22 37.94 544.19C25.98 552.16 119.64 553.91 269.09 549.42C418.54 544.93 533.61 549.42 615.09 557.64C696.57 565.86 807.09 564.27 808.62 544.14C810.15 524.01 606.87 523.77 606.87 523.77L133.05 530.65Z" fill="#000405"/>
<path d="M650 370.41C650 370.41 647.21 393.63 629.27 395.91H550.47L539.26 267H622.26C628.96 267 642.69 274.22 645.43 284.44C645.798 286.332 646.042 288.246 646.16 290.17C648 310 650 370.41 650 370.41Z" fill="#1A237E"/>
<path d="M757.18 124.86H681.18L658.62 102.71L657.62 101.71H733.32C740.02 101.71 753.75 108.93 756.49 119.15C756.84 121.037 757.07 122.944 757.18 124.86Z" fill="url(#paint0_linear)"/>
<path d="M143.22 279L135.8 275.77C134.834 275.35 134.043 274.61 133.559 273.675C133.075 272.74 132.928 271.666 133.143 270.635C133.358 269.605 133.921 268.679 134.739 268.015C135.556 267.351 136.577 266.989 137.63 266.99H539.26C544.221 266.943 549.129 268.016 553.618 270.128C558.108 272.241 562.063 275.338 565.19 279.19C567.797 282.352 569.522 286.147 570.19 290.19C572 302.26 570.89 354.83 570.39 374.57C570.12 385.29 562.22 394.57 551.58 395.85L550.44 395.96H161.44L143.22 279Z" fill="#1A237E"/>
<path d="M143.22 279L135.8 275.77C134.834 275.35 134.043 274.61 133.559 273.675C133.075 272.74 132.928 271.666 133.143 270.635C133.358 269.605 133.921 268.679 134.739 268.015C135.556 267.351 136.577 266.989 137.63 266.99H539.26C544.221 266.943 549.129 268.016 553.618 270.128C558.108 272.241 562.063 275.338 565.19 279.19C567.797 282.352 569.522 286.147 570.19 290.19C572 302.26 570.89 354.83 570.39 374.57C570.12 385.29 562.22 394.57 551.58 395.85L550.44 395.96H161.44L143.22 279Z" fill="#1A237E"/>
<path d="M570.42 374.52C570.15 385.24 562.25 394.52 551.61 395.8L550.47 395.91H161.47L143.22 279L135.8 275.77C134.834 275.35 134.043 274.61 133.559 273.675C133.075 272.74 132.928 271.666 133.143 270.635C133.358 269.605 133.921 268.679 134.739 268.015C135.556 267.351 136.577 266.989 137.63 266.99H539.26C544.221 266.943 549.129 268.016 553.618 270.128C558.108 272.241 562.063 275.338 565.19 279.19C567.797 282.352 569.522 286.147 570.19 290.19C572 302.21 570.92 354.78 570.42 374.52Z" fill="url(#paint1_linear)"/>
<path opacity="0.61" d="M123.08 396H551.88C553.363 396 554.786 395.411 555.836 394.363C556.886 393.315 557.477 391.894 557.48 390.41C557.48 389.675 557.335 388.946 557.054 388.267C556.772 387.588 556.36 386.97 555.84 386.45C555.32 385.93 554.702 385.518 554.023 385.236C553.344 384.955 552.615 384.81 551.88 384.81H123.08C121.595 384.81 120.17 385.4 119.12 386.45C118.07 387.5 117.48 388.925 117.48 390.41C117.483 391.894 118.074 393.315 119.124 394.363C120.174 395.411 121.596 396 123.08 396Z" fill="url(#paint2_linear)"/>
<path d="M123.08 396H551.88C553.363 396 554.786 395.411 555.836 394.363C556.886 393.315 557.477 391.894 557.48 390.41C557.48 389.675 557.335 388.946 557.054 388.267C556.772 387.588 556.36 386.97 555.84 386.45C555.32 385.93 554.702 385.518 554.023 385.236C553.344 384.955 552.615 384.81 551.88 384.81H123.08C121.595 384.81 120.17 385.4 119.12 386.45C118.07 387.5 117.48 388.925 117.48 390.41C117.483 391.894 118.074 393.315 119.124 394.363C120.174 395.411 121.596 396 123.08 396Z" fill="#1A237E"/>
<path d="M639.87 432.69V502.64C639.87 511.765 636.246 520.517 629.796 526.972C623.345 533.426 614.595 537.055 605.47 537.06H153.06C148.548 537.067 144.078 536.184 139.907 534.464C135.736 532.743 131.944 530.218 128.749 527.032C125.554 523.846 123.017 520.062 121.285 515.895C119.552 511.729 118.657 507.262 118.65 502.75V432.69C118.642 426.332 120.408 420.099 123.75 414.69C124.48 413.491 125.288 412.342 126.17 411.25C129.388 407.207 133.478 403.942 138.134 401.7C142.79 399.458 147.892 398.296 153.06 398.3H605.46C614.585 398.305 623.334 401.932 629.786 408.384C636.238 414.836 639.865 423.586 639.87 432.71V432.69Z" fill="#1A237E"/>
<path d="M463.7 537.06H153.06C146.468 537.067 140.013 535.18 134.462 531.623C128.911 528.067 124.499 522.992 121.75 517H443.94C443.94 517 448.58 534 463.7 537.06Z" fill="url(#paint3_linear)"/>
<path d="M463.7 398.26C449.42 400.62 445.43 414.65 445.43 414.65H123.75L126.17 411.21C129.388 407.167 133.478 403.902 138.134 401.66C142.79 399.418 147.892 398.255 153.06 398.26H463.7Z" fill="url(#paint4_linear)"/>
<path d="M639.87 432.69V502.64C639.875 508.796 638.227 514.841 635.097 520.143C631.968 525.445 627.472 529.809 622.08 532.78H480C477.164 532.781 474.355 532.224 471.733 531.14C469.112 530.055 466.73 528.465 464.724 526.461C462.717 524.456 461.125 522.075 460.038 519.455C458.951 516.835 458.391 514.026 458.39 511.19V426.31C458.389 423.472 458.947 420.661 460.032 418.039C461.118 415.416 462.71 413.033 464.717 411.026C466.724 409.019 469.106 407.428 471.729 406.342C474.351 405.257 477.162 404.699 480 404.7H625.5C629.95 407.885 633.576 412.086 636.075 416.955C638.574 421.823 639.875 427.218 639.87 432.69Z" fill="url(#paint5_linear)"/>
<path d="M639.87 432.69V502.64C639.87 503.929 639.8 505.218 639.66 506.5C639.6 507.06 639.52 507.61 639.43 508.16C639.059 510.557 638.421 512.904 637.53 515.16C637.32 515.73 637.09 516.28 636.83 516.83C635.71 519.32 634.3 521.67 632.63 523.83C632.19 524.39 631.73 524.95 631.24 525.49C628.63 528.446 625.532 530.932 622.08 532.84H500.41C497.337 532.845 494.298 532.192 491.498 530.924C488.699 529.656 486.203 527.803 484.18 525.49C483.71 524.961 483.269 524.407 482.86 523.83C481.332 521.722 480.21 519.348 479.55 516.83C479.4 516.29 479.28 515.73 479.18 515.16C478.932 513.858 478.808 512.535 478.81 511.21V426.31C478.81 424.797 478.971 423.289 479.29 421.81C479.391 421.248 479.528 420.694 479.7 420.15C480.442 417.616 481.649 415.242 483.26 413.15C483.7 412.572 484.171 412.018 484.67 411.49C486.684 409.333 489.122 407.614 491.83 406.44C494.538 405.267 497.459 404.664 500.41 404.67H625.5C628.18 406.59 630.568 408.887 632.59 411.49C633.01 412.03 633.42 412.58 633.81 413.15C635.318 415.328 636.56 417.678 637.51 420.15C637.73 420.7 637.94 421.26 638.11 421.81C638.881 424.079 639.398 426.427 639.65 428.81C639.72 429.36 639.77 429.92 639.8 430.48C639.83 431.04 639.87 432 639.87 432.69Z" fill="#1A237E"/>
<path d="M639.87 432.69V502.64C639.87 503.929 639.8 505.218 639.66 506.5C639.6 507.06 639.52 507.61 639.43 508.16C639.059 510.557 638.421 512.904 637.53 515.16C637.32 515.73 637.09 516.28 636.83 516.83C635.71 519.32 634.3 521.67 632.63 523.83C632.19 524.39 631.73 524.95 631.24 525.49C628.63 528.446 625.532 530.932 622.08 532.84H500.41C497.337 532.845 494.298 532.192 491.498 530.924C488.699 529.656 486.203 527.803 484.18 525.49C483.71 524.961 483.269 524.407 482.86 523.83C481.332 521.722 480.21 519.348 479.55 516.83C479.4 516.29 479.28 515.73 479.18 515.16C478.932 513.858 478.808 512.535 478.81 511.21V426.31C478.81 424.797 478.971 423.289 479.29 421.81C479.391 421.248 479.528 420.694 479.7 420.15C480.442 417.616 481.649 415.242 483.26 413.15C483.7 412.572 484.171 412.018 484.67 411.49C486.684 409.333 489.122 407.614 491.83 406.44C494.538 405.267 497.459 404.664 500.41 404.67H625.5C628.18 406.59 630.568 408.887 632.59 411.49C633.01 412.03 633.42 412.58 633.81 413.15C635.318 415.328 636.56 417.678 637.51 420.15C637.73 420.7 637.94 421.26 638.11 421.81C638.881 424.079 639.398 426.427 639.65 428.81C639.72 429.36 639.77 429.92 639.8 430.48C639.83 431.04 639.87 432 639.87 432.69Z" fill="url(#paint6_linear)"/>
<path d="M633.81 413.18H483.26C483.7 412.602 484.171 412.048 484.67 411.52H632.58C633 412.06 633.42 412.61 633.81 413.18Z" fill="white"/>
<path d="M638.11 421.81H479.29C479.391 421.249 479.528 420.694 479.7 420.15H637.51C637.73 420.7 637.94 421.26 638.11 421.81Z" fill="white"/>
<path d="M639.8 430.45H478.8V428.78H639.65C639.72 429.33 639.77 429.89 639.8 430.45Z" fill="white"/>
<path d="M639.88 437.42H478.81V439.08H639.88V437.42Z" fill="white"/>
<path d="M639.88 446.05H478.81V447.71H639.88V446.05Z" fill="white"/>
<path d="M639.88 454.69H478.81V456.35H639.88V454.69Z" fill="white"/>
<path d="M639.88 463.33H478.81V464.98H639.88V463.33Z" fill="white"/>
<path d="M639.88 471.96H478.81V473.61H639.88V471.96Z" fill="white"/>
<path d="M639.88 480.6H478.81V482.25H639.88V480.6Z" fill="white"/>
<path d="M639.88 489.23H478.81V490.88H639.88V489.23Z" fill="white"/>
<path d="M639.88 497.87H478.81V499.53H639.88V497.87Z" fill="white"/>
<path d="M639.66 506.5C639.6 507.06 639.52 507.61 639.43 508.16H478.81V506.5H639.66Z" fill="white"/>
<path d="M637.58 515.13C637.37 515.7 637.14 516.25 636.88 516.8H479.58C479.43 516.26 479.31 515.7 479.21 515.13H637.58Z" fill="white"/>
<path d="M632.63 523.77C632.19 524.33 631.73 524.89 631.24 525.43H484.18C483.71 524.901 483.269 524.347 482.86 523.77H632.63Z" fill="white"/>
<path d="M440.26 382.13H542.76C538.412 384.298 533.618 385.422 528.76 385.41H147.64C141.343 385.466 135.183 383.577 130 380C128.532 378.988 127.169 377.832 125.93 376.55C125.53 376.14 125.14 375.71 124.77 375.28C123.375 373.649 122.186 371.852 121.23 369.93C121.02 369.51 120.82 369.08 120.64 368.66C119.898 366.946 119.361 365.15 119.04 363.31C118.97 362.89 118.9 362.47 118.85 362.03C118.73 361.035 118.67 360.033 118.67 359.03V305.37C118.66 304.799 118.68 304.229 118.73 303.66C118.79 303.1 118.8 302.81 118.85 302.39C119.073 300.563 119.506 298.768 120.14 297.04C120.3 296.61 120.47 296.19 120.65 295.76C121.461 293.856 122.51 292.062 123.77 290.42L124.77 289.14C125.508 288.278 126.3 287.463 127.14 286.7C132.778 281.673 140.087 278.928 147.64 279H528.76C534.75 278.991 540.612 280.729 545.63 284H440.26C438.656 283.998 437.057 284.193 435.5 284.58C432.303 285.339 429.367 286.941 427 289.22C426.578 289.622 426.18 290.05 425.81 290.5C424.47 292.067 423.451 293.881 422.81 295.84C422.669 296.26 422.552 296.687 422.46 297.12C422.192 298.25 422.058 299.408 422.06 300.57V365.64C422.063 366.648 422.167 367.653 422.37 368.64C422.452 369.069 422.559 369.493 422.69 369.91C423.256 371.859 424.201 373.677 425.47 375.26C425.818 375.702 426.189 376.126 426.58 376.53C428.296 378.309 430.363 379.712 432.65 380.65C435.06 381.653 437.649 382.157 440.26 382.13Z" fill="#1A237E"/>
<path d="M557.74 305.76V360.05C557.75 360.358 557.73 360.666 557.68 360.97C557.62 361.27 557.68 361.58 557.6 361.88C557.541 362.153 557.504 362.431 557.49 362.71C557.49 362.98 557.42 363.14 557.38 363.35C557.371 363.458 557.351 363.566 557.32 363.67C557.27 363.96 557.21 364.26 557.14 364.55C557.07 364.84 557.05 364.93 556.99 365.12C556.93 365.31 556.9 365.49 556.84 365.68C556.78 365.87 556.73 366.08 556.67 366.28L556.46 366.89C556.437 367.062 556.383 367.228 556.3 367.38C556.24 367.54 556.14 367.81 556.05 368.02L555.78 368.67C555.737 368.791 555.684 368.908 555.62 369.02C555.557 369.188 555.484 369.351 555.4 369.51C555.34 369.65 555.26 369.79 555.19 369.93C555.12 370.07 554.98 370.36 554.86 370.56C554.74 370.76 554.52 371.21 554.33 371.56L554.02 372.06C553.74 372.52 553.45 372.96 553.14 373.39C552.98 373.62 552.82 373.83 552.66 374.04C552.34 374.47 552 374.88 551.66 375.29C551.32 375.7 550.9 376.15 550.49 376.56C549.671 377.398 548.799 378.183 547.88 378.91C547.865 378.938 547.84 378.959 547.81 378.97C547.51 379.21 547.21 379.43 546.9 379.66L545.9 380.35L544.9 380.99C544.58 381.19 544.26 381.37 543.9 381.56L542.75 382.17H440.26C437.648 382.182 435.06 381.668 432.65 380.66C430.368 379.723 428.302 378.327 426.58 376.56C426.189 376.156 425.819 375.732 425.47 375.29C424.202 373.717 423.257 371.909 422.69 369.97C422.558 369.557 422.451 369.136 422.37 368.71C422.167 367.723 422.063 366.718 422.06 365.71V300.89C422.057 299.735 422.192 298.584 422.46 297.46C422.552 297.03 422.669 296.606 422.81 296.19C423.451 294.24 424.471 292.436 425.81 290.88C426.181 290.43 426.578 290.002 427 289.6C429.377 287.338 432.309 285.744 435.5 284.98C437.058 284.601 438.656 284.41 440.26 284.41H545.63C546.09 284.71 546.55 285.02 546.99 285.35L547.5 285.73C548.196 286.248 548.863 286.802 549.5 287.39L550.05 287.91L550.45 288.31L550.99 288.87L551.53 289.47L551.64 289.6L551.72 289.7C552.04 290.08 552.36 290.48 552.66 290.88C552.82 291.08 552.97 291.29 553.12 291.49C553.131 291.522 553.152 291.55 553.18 291.57C553.453 291.957 553.713 292.347 553.96 292.74L554.39 293.44C554.65 293.88 554.9 294.34 555.13 294.79C555.24 295.03 555.36 295.25 555.47 295.48C555.58 295.71 555.69 295.96 555.78 296.19C555.87 296.42 555.97 296.61 556.05 296.83C556.13 297.05 556.22 297.25 556.29 297.46L556.51 298.09C556.813 298.956 557.057 299.841 557.24 300.74C557.274 300.854 557.297 300.972 557.31 301.09C557.331 301.303 557.371 301.514 557.43 301.72C557.43 301.93 557.54 302.43 557.59 302.78C557.64 303.13 557.69 303.62 557.71 304.05V304.73C557.71 305 557.74 305.41 557.74 305.76Z" fill="url(#paint7_linear)"/>
<path d="M432.65 380.61C430.39 381.16 428.06 381.66 425.65 382.13H153.92C145.896 382.196 137.886 381.483 130 380C128.532 378.988 127.169 377.832 125.93 376.55C125.53 376.14 125.14 375.71 124.77 375.28C123.375 373.649 122.186 371.852 121.23 369.93C121.02 369.51 120.82 369.08 120.64 368.66C119.898 366.946 119.361 365.15 119.04 363.31C118.97 362.89 118.9 362.47 118.85 362.03C118.73 361.034 118.67 360.033 118.67 359.03V305.37C118.66 304.799 118.68 304.229 118.73 303.66C118.79 303.1 118.8 302.81 118.85 302.39C119.073 300.563 119.506 298.768 120.14 297.04C120.3 296.61 120.47 296.19 120.65 295.76C121.461 293.856 122.51 292.062 123.77 290.42L124.77 289.14C125.508 288.278 126.3 287.463 127.14 286.7C135.945 284.801 144.933 283.879 153.94 283.95H433.26L435.5 284.53C432.303 285.289 429.367 286.891 427 289.17C426.578 289.572 426.18 290 425.81 290.45C424.47 292.017 423.451 293.831 422.81 295.79C422.669 296.21 422.552 296.637 422.46 297.07C422.192 298.2 422.058 299.358 422.06 300.52V365.59C422.063 366.598 422.167 367.603 422.37 368.59C422.452 369.019 422.559 369.443 422.69 369.86C423.256 371.809 424.201 373.626 425.47 375.21C425.818 375.652 426.189 376.075 426.58 376.48C428.296 378.261 430.363 379.668 432.65 380.61Z" fill="#1A237E"/>
<path d="M432.65 380.61C430.39 381.16 428.06 381.66 425.65 382.13H153.92C145.896 382.196 137.886 381.483 130 380C128.532 378.988 127.169 377.832 125.93 376.55C125.53 376.14 125.14 375.71 124.77 375.28C123.375 373.649 122.186 371.852 121.23 369.93C121.02 369.51 120.82 369.08 120.64 368.66C119.898 366.946 119.361 365.15 119.04 363.31C118.97 362.89 118.9 362.47 118.85 362.03C118.73 361.034 118.67 360.033 118.67 359.03V305.37C118.66 304.799 118.68 304.229 118.73 303.66C118.79 303.1 118.8 302.81 118.85 302.39C119.073 300.563 119.506 298.768 120.14 297.04C120.3 296.61 120.47 296.19 120.65 295.76C121.461 293.856 122.51 292.062 123.77 290.42L124.77 289.14C125.508 288.278 126.3 287.463 127.14 286.7C135.945 284.801 144.933 283.879 153.94 283.95H433.26L435.5 284.53C432.303 285.289 429.367 286.891 427 289.17C426.578 289.572 426.18 290 425.81 290.45C424.47 292.017 423.451 293.831 422.81 295.79C422.669 296.21 422.552 296.637 422.46 297.07C422.192 298.2 422.058 299.358 422.06 300.52V365.59C422.063 366.598 422.167 367.603 422.37 368.59C422.452 369.019 422.559 369.443 422.69 369.86C423.256 371.809 424.201 373.626 425.47 375.21C425.818 375.652 426.189 376.075 426.58 376.48C428.296 378.261 430.363 379.668 432.65 380.61Z" fill="url(#paint8_linear)"/>
<path d="M550.47 386.11C549.666 387.041 548.794 387.91 547.86 388.71C548.786 387.902 549.658 387.033 550.47 386.11Z" fill="url(#paint9_linear)"/>
<path d="M553.09 292.23C552.94 292 552.79 291.77 552.63 291.55C552.33 291.11 552.01 290.67 551.69 290.25C552.19 290.89 552.66 291.55 553.09 292.23Z" fill="url(#paint10_linear)"/>
<path d="M556.26 298.82C556.34 299.05 556.41 299.28 556.48 299.51C556.35 299.04 556.19 298.58 556.02 298.12C556.11 298.35 556.19 298.58 556.26 298.82Z" fill="url(#paint11_linear)"/>
<path d="M557.74 305.76V360.65C557.737 361.039 557.704 361.427 557.64 361.81C557.463 363.457 557.108 365.08 556.58 366.65C556.46 367.04 556.33 367.42 556.18 367.79C553.658 374.064 548.893 379.176 542.81 382.13H423.05C413.81 382.13 406.18 375.89 405.05 367.81C404.98 367.427 404.94 367.039 404.93 366.65C404.893 366.318 404.877 365.984 404.88 365.65V300.89C404.88 291.78 413.02 284.41 423.08 284.41H545.63C553 289.17 557.74 297 557.74 305.76Z" fill="#1A237E"/>
<path d="M552.63 290.42H425.81C426.18 289.97 426.578 289.542 427 289.14H551.58C551.96 289.541 552.311 289.969 552.63 290.42Z" fill="white"/>
<path d="M556.26 297H422.46C422.552 296.567 422.669 296.14 422.81 295.72H555.81C555.94 296.18 556.11 296.61 556.26 297Z" fill="white"/>
<path d="M557.69 303.66H422.06V302.38H557.58C557.58 302.8 557.66 303.23 557.69 303.66Z" fill="white"/>
<path d="M557.75 309H422.06V310.28H557.75V309Z" fill="white"/>
<path d="M557.75 315.62H422.06V316.9H557.75V315.62Z" fill="white"/>
<path d="M557.75 322.24H422.06V323.52H557.75V322.24Z" fill="white"/>
<path d="M557.75 328.87H422.06V330.14H557.75V328.87Z" fill="white"/>
<path d="M557.75 335.49H422.06V336.76H557.75V335.49Z" fill="white"/>
<path d="M557.75 342.11H422.06V343.38H557.75V342.11Z" fill="white"/>
<path d="M557.75 348.73H422.06V350H557.75V348.73Z" fill="white"/>
<path d="M557.75 355.35H422.06V356.63H557.75V355.35Z" fill="white"/>
<path d="M557.76 362V363.28H422.06V362H557.76Z" fill="white"/>
<path d="M555.77 368.59C555.77 369.02 555.22 369.44 555.18 369.87H422.69C422.559 369.45 422.452 369.022 422.37 368.59H555.77Z" fill="white"/>
<path d="M430.68 290.42H123.75L124.75 289.14H428.24C429.08 289.56 429.89 290 430.68 290.42Z" fill="white"/>
<path d="M427.92 297H120.12C120.28 296.57 120.45 296.15 120.63 295.72H426.71C427.139 296.122 427.543 296.549 427.92 297Z" fill="white"/>
<path d="M431.32 303.66H118.71C118.72 303.234 118.76 302.81 118.83 302.39H431C431.136 302.805 431.243 303.23 431.32 303.66Z" fill="white"/>
<path d="M431.46 309H118.64V310.27H431.46V309Z" fill="white"/>
<path d="M431.46 315.62H118.64V316.89H431.46V315.62Z" fill="white"/>
<path d="M431.46 322.24H118.64V323.52H431.46V322.24Z" fill="white"/>
<path d="M431.46 328.87H118.64V330.14H431.46V328.87Z" fill="white"/>
<path d="M431.46 335.5H118.64V336.76H431.46V335.5Z" fill="white"/>
<path d="M431.46 342.11H118.64V343.37H431.46V342.11Z" fill="white"/>
<path d="M431.46 348.73H118.64V350H431.46V348.73Z" fill="white"/>
<path d="M431.46 355.35H118.64V356.63H431.46V355.35Z" fill="white"/>
<path d="M431 362C430.869 362.436 430.712 362.863 430.53 363.28H119C118.93 362.86 118.86 362.44 118.81 362H431Z" fill="white"/>
<path d="M426.75 368.6C426.302 369.047 425.831 369.471 425.34 369.87H121.21C121 369.45 120.8 369.02 120.62 368.6H426.75Z" fill="white"/>
<path opacity="0.2" d="M442.37 267C437.86 272.42 432.03 277.87 429.72 279.08C416.58 286 401.36 291.3 393.65 304C383.89 320 390.2 340.93 385.72 359.15C384.9 362.47 383.63 365.86 381.06 368.15C378.49 370.44 374.36 371.22 371.63 369.15C369.23 367.34 368.63 364.06 368.18 361.09C364.239 333.054 364.091 304.615 367.74 276.54C352.74 283.24 342.59 297.38 334.58 311.68C326.57 325.98 319.85 341.31 308.69 353.32C305.52 356.72 301.35 360.05 296.75 359.39C291.22 352.39 294.12 342.16 297.26 333.78C303.55 316.9 309.86 300 318 284C320.62 278.8 323.53 273.58 327.93 269.76C329.133 268.717 330.432 267.789 331.81 266.99L442.37 267Z" fill="#3F3D56"/>
<path d="M551.64 375.22C551.3 375.67 550.92 376.02 550.54 376.49H125.91C125.51 376.08 125.12 375.65 124.75 375.22H551.64Z" fill="white"/>
<path d="M217.78 537.06H166.47C150.02 532.92 142.05 515.13 142.05 515.13C142.05 515.13 140.56 428.13 142.05 417.13C143.54 406.13 168.46 398.23 168.46 398.23H217.78C201.33 400.59 189.38 416.63 189.38 416.63C189.38 416.63 188.38 512.78 189.38 519.25C190.38 525.72 217.78 537.06 217.78 537.06Z" fill="url(#paint12_linear)"/>
<path d="M217.78 537.06H201.33C184.9 532.92 176.93 515.13 176.93 515.13C176.93 515.13 175.43 428.13 176.93 417.13C178.43 406.13 203.33 398.23 203.33 398.23H217.78C201.33 400.59 189.38 416.63 189.38 416.63C189.38 416.63 188.38 512.78 189.38 519.25C190.38 525.72 217.78 537.06 217.78 537.06Z" fill="#1A237E"/>
<path d="M217.78 537.06H201.33C184.9 532.92 176.93 515.13 176.93 515.13C176.93 515.13 175.43 428.13 176.93 417.13C178.43 406.13 203.33 398.23 203.33 398.23H217.78C201.33 400.59 189.38 416.63 189.38 416.63C189.38 416.63 188.38 512.78 189.38 519.25C190.38 525.72 217.78 537.06 217.78 537.06Z" fill="url(#paint13_linear)"/>
<path d="M289.24 329.8L284.46 338.1L295.56 342.93L300.15 335.03L289.24 329.8Z" fill="url(#paint14_linear)"/>
<path d="M363.87 352.09L363.35 361.34L375.45 360.64L375.96 352.09H363.87Z" fill="url(#paint15_linear)"/>
<path d="M286.64 336.26C286.399 335.754 286.059 335.302 285.64 334.93C285.149 334.602 284.587 334.396 284 334.33L264.79 330.47C264.097 330.299 263.384 330.222 262.67 330.24C260.83 330.36 259.32 331.71 258.11 333.1C257.417 333.757 256.972 334.633 256.85 335.58C256.92 336.174 257.113 336.748 257.415 337.264C257.718 337.781 258.125 338.229 258.61 338.58C259.96 339.832 261.379 341.007 262.86 342.1C265.707 344.095 268.669 345.922 271.73 347.57C273.79 348.73 275.85 349.89 277.96 350.95C281.43 352.69 285.03 354.15 288.65 355.57C288.889 355.718 289.177 355.766 289.45 355.702C289.724 355.639 289.961 355.469 290.11 355.23C292.729 352.499 294.794 349.287 296.19 345.77C296.54 344.9 297.19 342.99 296.19 342.27C295.84 342.02 294.85 342.06 294.41 341.96C292.801 341.574 291.285 340.872 289.949 339.895C288.614 338.918 287.486 337.686 286.63 336.27L286.64 336.26Z" fill="#3F3D56"/>
<path d="M364.58 357.14C364.116 356.829 363.596 356.608 363.05 356.49C362.461 356.458 361.873 356.561 361.33 356.79L342.79 363.12C342.087 363.315 341.415 363.604 340.79 363.98C339.26 364.98 338.63 366.98 338.28 368.75C338.009 369.665 338.07 370.645 338.45 371.52C338.806 371.994 339.257 372.388 339.773 372.679C340.289 372.97 340.86 373.151 341.45 373.21C343.243 373.62 345.06 373.921 346.89 374.11C350.351 374.41 353.828 374.5 357.3 374.38C359.67 374.38 362.03 374.32 364.39 374.17C368.27 373.93 372.12 373.38 375.95 372.79C376.228 372.801 376.499 372.702 376.705 372.515C376.91 372.328 377.034 372.068 377.05 371.79C377.938 368.111 378.111 364.295 377.56 360.55C377.42 359.62 376.99 357.66 375.78 357.55C375.35 357.5 374.52 358.04 374.09 358.17C373.437 358.37 372.768 358.511 372.09 358.59C369.496 358.908 366.869 358.401 364.58 357.14Z" fill="#3F3D56"/>
<path d="M439.64 232.4C439.64 232.4 436.5 261.79 409.41 267C391.07 270.51 368.64 269.26 356.08 268.09C353.11 267.816 350.122 268.368 347.446 269.687C344.771 271.005 342.512 273.038 340.92 275.56L301.92 337.68L290.62 332.22H290.53L286.53 330.3L319 254.49C320.908 249.783 323.836 245.558 327.575 242.12C331.314 238.682 335.77 236.117 340.62 234.61L377.93 223.06L386.65 220.36C386.65 220.36 421.58 216.84 439.64 232.4Z" fill="#3F3D56"/>
<path opacity="0.24" d="M378 223L380.45 228.19C380.45 228.19 337.45 240.79 332.17 246.92C325.12 255.12 290.66 332.17 290.66 332.17H290.57L286.57 330.25L319 254.49C320.908 249.783 323.836 245.558 327.575 242.12C331.314 238.682 335.77 236.117 340.62 234.61L378 223Z" fill="white"/>
<path d="M393.24 227.3C393.24 227.3 358.7 261 357.58 279C356.46 297 361.29 353.44 361.29 353.44H378.05C378.05 353.44 377.22 284.92 384.05 284.44C390.88 283.96 421.84 264 426.81 258.3C431.78 252.6 439.71 232.38 439.71 232.38L393.24 227.3Z" fill="#3F3D56"/>
<path d="M439.64 232.4C439.64 232.4 412 246.53 383.2 230C380.692 228.56 378.283 226.953 375.99 225.19C375.99 225.19 388.11 203.54 378.46 172.09C374.33 158.64 374.24 132.96 394.69 129.3H394.79C415.13 125.69 413.98 130.71 413.98 130.71L423.18 139.65C440.87 154 442.81 176 439.64 232.4Z" fill="#1A237E"/>
<path opacity="0.24" d="M394.79 129.28C393.94 131.132 392.62 132.728 390.96 133.91C390.96 133.91 378.8 139.3 381.23 157.13C383.66 174.96 388.11 209.25 388.11 209.25L383.2 230C380.692 228.56 378.283 226.953 375.99 225.19C375.99 225.19 388.11 203.54 378.46 172.09C374.33 158.64 374.24 132.96 394.69 129.3L394.79 129.28Z" fill="white"/>
<path d="M413.08 128.14C412.008 129.421 410.694 130.479 409.213 131.252C407.732 132.025 406.114 132.499 404.449 132.647C402.785 132.794 401.108 132.613 399.515 132.112C397.921 131.612 396.441 130.802 395.16 129.73L394.72 129.35C394.72 129.35 379.72 144.35 394.88 146.16C402.88 147.16 412.73 137.48 415.58 132.01L413.08 128.14Z" fill="#3F3D56"/>
<path d="M417.58 114.09C417.52 114.29 414.7 122.92 412.58 129.09C411.007 133.899 407.669 137.934 403.24 140.38C400.641 141.95 397.748 142.971 394.74 143.38C394.227 143.427 393.71 143.372 393.218 143.219C392.727 143.066 392.27 142.817 391.874 142.488C391.479 142.158 391.152 141.754 390.913 141.298C390.674 140.842 390.526 140.343 390.48 139.83C390.402 139.01 390.588 138.187 391.01 137.48C391.71 136.25 392.47 134.83 393.17 133.32C394.63 130.18 395.85 126.69 395.65 123.93V123.63C395.47 122.19 396.41 120.92 397.99 119.81C400.22 118.26 403.73 117.04 407.16 116.12C410.593 115.248 414.071 114.571 417.58 114.09Z" fill="url(#paint16_linear)"/>
<path d="M395.35 133.2C394.663 133.34 393.96 133.39 393.26 133.35C394.72 130.21 395.94 126.72 395.74 123.96L398.06 119.84L399.79 116.78L407.23 116.15L414.75 115.52C409.79 127.25 401.46 132.11 395.35 133.2Z" fill="url(#paint17_linear)"/>
<path d="M409.32 74.6299C404.086 73.5351 398.632 74.5633 394.156 77.4886C389.68 80.4138 386.548 84.9968 385.45 90.23C385.35 90.74 385.26 91.23 385.19 91.78C383.652 99.8618 383.588 108.155 385 116.26C388.43 128.81 406.86 124.26 410.6 120.45C414.34 116.64 429.37 99.08 426.91 92.25C425.34 87.61 419.84 76.9999 409.32 74.6299Z" fill="url(#paint18_linear)"/>
<path d="M394.47 62.3901L397.31 65.0001C395.358 64.4239 393.298 64.3202 391.298 64.6975C389.299 65.0748 387.417 65.9223 385.81 67.1701C382.001 69.356 379.198 72.945 378 77.1701L384.31 76.0401C384.31 76.0401 382.01 82.8301 392.47 86.2201C402.93 89.6101 414 93.1001 414 93.1001L411.76 87.1001C411.76 87.1001 417.63 91.5201 418.12 94.2801C418.102 98.466 417.768 102.645 417.12 106.78C417.12 106.78 421.6 100.68 422.28 102.46C422.96 104.24 419.06 109.81 417.28 110.8C415.5 111.79 414.66 115.9 414.44 116.2C414.22 116.5 422.44 112.76 423.25 110.92C424.06 109.08 436 91.5701 432.72 86.3301L435.41 86.8401C434.13 85.3683 432.538 84.2 430.75 83.4201C430.75 83.4201 419.58 56.0001 394.47 62.3901Z" fill="#3F3D56"/>
<path d="M390.51 210.05C389 208.54 387.51 206.74 385.4 206.38C384.66 208.14 386.17 209.95 386.81 211.74C386.909 211.939 386.96 212.158 386.96 212.38C386.96 212.602 386.909 212.821 386.81 213.02C386.51 213.5 385.81 213.53 385.26 213.49C382.592 213.3 379.974 212.671 377.51 211.63C375.23 210.63 373.04 209.34 370.57 209.09C370.306 209.038 370.032 209.073 369.79 209.19C369.19 209.57 369.54 210.49 369.97 211.05C370.888 212.259 371.93 213.369 373.08 214.36C371.338 213.588 369.479 213.111 367.58 212.95C367.05 212.95 366.33 213.06 366.34 213.59C366.374 213.808 366.48 214.008 366.64 214.16C368.045 215.769 369.742 217.099 371.64 218.08C370.26 217.789 368.849 217.671 367.44 217.73C366.83 217.73 366.02 218.05 366.11 218.65C366.149 218.848 366.246 219.029 366.39 219.17C368.082 221.212 370.367 222.677 372.93 223.36L368.93 223.45C368.678 223.44 368.427 223.491 368.2 223.6C367.48 224.06 368.11 225.19 368.81 225.68C371.89 227.83 375.81 228.21 379.58 228.48C386.79 229 394.38 229.28 400.88 226.1C401.35 225.86 401.88 225.54 401.97 225.02C401.99 224.748 401.949 224.474 401.85 224.22C401.06 221.59 400.66 216.82 398.27 215.22C397.11 214.45 395.68 214.01 394.49 213.22C393.3 212.43 391.87 210.73 390.51 210.05Z" fill="url(#paint19_linear)"/>
<path d="M445.51 204.47C443.25 226.68 403 229.4 403 229.4L398.85 215.13L398.12 212.62C398.12 212.62 419.68 209.9 423.8 203.15C427.92 196.4 410.96 173.77 421.21 161.15C431.46 148.53 433.79 152.41 433.79 152.41C433.79 152.41 447.75 182.26 445.51 204.47Z" fill="#1A237E"/>
<path d="M337.39 171.27C337.379 171.966 337.322 172.661 337.22 173.35C336.88 176.46 335.91 182.15 333.33 184.22C329.7 187.13 329.2 182.89 329.28 181.22C329.359 180.303 329.51 179.394 329.73 178.5C330.57 174.88 335.02 172.4 336.73 171.58L337.39 171.27Z" fill="url(#paint20_linear)"/>
<path d="M337.22 173.35C336.88 176.46 335.91 182.15 333.33 184.22C332.21 183.41 330.77 182.33 329.28 181.22C327.28 179.72 325.15 178.14 323.64 177.04C322.296 176.139 321.073 175.071 320 173.86C319.059 172.631 318.279 171.287 317.68 169.86L314.58 163.12C313.58 160.91 312.58 157.99 314.36 156.28C314.81 155.84 318.91 155.04 319.18 154.46C319.93 152.8 315.18 149.29 315.48 147.46C315.629 146.962 315.947 146.531 316.38 146.242C316.813 145.954 317.333 145.826 317.85 145.88C318.85 145.93 321.69 148.54 322.58 149.07C324.34 150.07 322.86 151.49 324.58 152.53C326.811 153.677 328.839 155.184 330.58 156.99C332.52 159.26 333.5 162.17 334.43 164.99C335.11 167.06 336.02 169.3 336.72 171.53C336.91 172.17 337.08 172.76 337.22 173.35Z" fill="url(#paint21_linear)"/>
<path d="M322.51 157.41L315.84 125.78L313.37 114.09L352.13 124.48L363.38 200.15L327.36 189.17L322.51 157.41Z" fill="#1A237E"/>
<path d="M330.58 157.03L315.24 122.95L327.36 189.17L363.38 200.15L359.52 174.2L330.58 157.03Z" fill="url(#paint22_linear)"/>
<path d="M324.72 171.05C325.94 170.44 328.44 169.33 329.07 168.12C329.22 167.83 329.44 167.45 329.25 167.19C328.38 165.99 324.8 167.52 323.78 167.19C324.48 166.04 330.72 162.55 327.78 161.76C327.15 161.59 323.24 163.57 322.61 163.39C323.1 162.99 327.12 160.13 327.81 159.39C328.009 159.17 328.128 158.888 328.146 158.591C328.164 158.295 328.081 158.001 327.91 157.758C327.739 157.515 327.49 157.337 327.205 157.254C326.92 157.171 326.615 157.187 326.34 157.3C324.211 158.278 322.027 159.133 319.8 159.86C320.23 159.15 326.04 155.86 326.27 155.02C326.399 154.702 326.42 154.351 326.33 154.02C326.25 153.842 326.132 153.683 325.986 153.554C325.839 153.424 325.667 153.328 325.48 153.27C323.86 152.64 322.04 153.27 320.42 153.92L316.58 155.44C315.35 155.92 313.99 156.54 313.58 157.78C313.4 158.408 313.37 159.068 313.49 159.71C313.958 163.759 315.403 167.633 317.7 171C318.84 172.66 322.44 176.67 324.51 177.06C326.35 177.41 323 172 324.72 171.05Z" fill="url(#paint23_linear)"/>
<path opacity="0.24" d="M364.82 273.56C364.82 273.56 378.04 243.27 393.32 234.65L388.11 232.54C388.11 232.54 361.28 261.07 358.11 275.75C354.94 290.43 361.3 353.42 361.3 353.42H365.7C365.7 353.42 358.43 279.74 364.82 273.56Z" fill="white"/>
<path opacity="0.24" d="M424.92 208C416.41 211.5 401.92 214.55 398.8 215.19L398.2 215.31L398.07 212.68C398.07 212.68 419.63 209.96 423.75 203.21C427.87 196.46 410.91 173.83 421.16 161.21C421.16 161.21 419.86 172.37 423.23 180.62C426.6 188.87 434.48 204 424.92 208Z" fill="white"/>
</g>
<defs>
<linearGradient id="paint0_linear" x1="699.22" y1="97.74" x2="761.33" y2="192.39" gradientUnits="userSpaceOnUse">
<stop stop-color="white" stop-opacity="0"/>
<stop offset="0.99" stop-color="white"/>
</linearGradient>
<linearGradient id="paint1_linear" x1="154840" y1="66158.8" x2="154907" y2="45498.1" gradientUnits="userSpaceOnUse">
<stop stop-color="white" stop-opacity="0"/>
<stop offset="0.99" stop-color="white"/>
</linearGradient>
<linearGradient id="paint2_linear" x1="412.28" y1="210.47" x2="329.04" y2="410.7" gradientUnits="userSpaceOnUse">
<stop offset="0.17" stop-color="#00272E"/>
<stop offset="1" stop-color="#69B9EB" stop-opacity="0"/>
</linearGradient>
<linearGradient id="paint3_linear" x1="291.7" y1="491.24" x2="295.07" y2="608.65" gradientUnits="userSpaceOnUse">
<stop stop-opacity="0"/>
<stop offset="0.91" stop-opacity="0.8"/>
<stop offset="1"/>
</linearGradient>
<linearGradient id="paint4_linear" x1="101035" y1="9499.13" x2="101030" y2="10594.4" gradientUnits="userSpaceOnUse">
<stop stop-color="white" stop-opacity="0"/>
<stop offset="0.99" stop-color="white"/>
</linearGradient>
<linearGradient id="paint5_linear" x1="93176.5" y1="17418.9" x2="56900.5" y2="19370.3" gradientUnits="userSpaceOnUse">
<stop stop-opacity="0"/>
<stop offset="0.91" stop-opacity="0.8"/>
<stop offset="1"/>
</linearGradient>
<linearGradient id="paint6_linear" x1="88902.4" y1="73929.4" x2="92418.5" y2="27367.9" gradientUnits="userSpaceOnUse">
<stop stop-color="white" stop-opacity="0"/>
<stop offset="0.99" stop-color="white"/>
</linearGradient>
<linearGradient id="paint7_linear" x1="559.52" y1="338.81" x2="419.83" y2="327.3" gradientUnits="userSpaceOnUse">
<stop stop-color="#68E1FD"/>
<stop offset="1" stop-color="white"/>
</linearGradient>
<linearGradient id="paint8_linear" x1="135812" y1="49681.4" x2="18184.5" y2="49681.4" gradientUnits="userSpaceOnUse">
<stop stop-color="white" stop-opacity="0"/>
<stop offset="0.99" stop-color="white"/>
</linearGradient>
<linearGradient id="paint9_linear" x1="547.86" y1="387.41" x2="550.47" y2="387.41" gradientUnits="userSpaceOnUse">
<stop stop-color="#68E1FD"/>
<stop offset="1" stop-color="#69B9EB"/>
</linearGradient>
<linearGradient id="paint10_linear" x1="1326.06" y1="1203.61" x2="1328.02" y2="1203.61" gradientUnits="userSpaceOnUse">
<stop stop-color="#68E1FD"/>
<stop offset="1" stop-color="#69B9EB"/>
</linearGradient>
<linearGradient id="paint11_linear" x1="812.421" y1="949.842" x2="812.632" y2="949.842" gradientUnits="userSpaceOnUse">
<stop stop-color="#68E1FD"/>
<stop offset="1" stop-color="#69B9EB"/>
</linearGradient>
<linearGradient id="paint12_linear" x1="12879.8" y1="102599" x2="21058.7" y2="75137.9" gradientUnits="userSpaceOnUse">
<stop stop-color="white" stop-opacity="0"/>
<stop offset="0.99" stop-color="white"/>
</linearGradient>
<linearGradient id="paint13_linear" x1="8299.42" y1="87273.9" x2="11174.8" y2="661.461" gradientUnits="userSpaceOnUse">
<stop stop-color="white" stop-opacity="0"/>
<stop offset="0.99" stop-color="white"/>
</linearGradient>
<linearGradient id="paint14_linear" x1="301.88" y1="337.15" x2="278.8" y2="335.24" gradientUnits="userSpaceOnUse">
<stop stop-color="#ECC4D7"/>
<stop offset="0.42" stop-color="#EFD4D1"/>
<stop offset="1" stop-color="#F2EAC9"/>
</linearGradient>
<linearGradient id="paint15_linear" x1="9774.63" y1="-8385.14" x2="9505.77" y2="-8285.02" gradientUnits="userSpaceOnUse">
<stop stop-color="#ECC4D7"/>
<stop offset="0.42" stop-color="#EFD4D1"/>
<stop offset="1" stop-color="#F2EAC9"/>
</linearGradient>
<linearGradient id="paint16_linear" x1="11650.1" y1="-13321.7" x2="11207.3" y2="-13326.5" gradientUnits="userSpaceOnUse">
<stop stop-color="#ECC4D7"/>
<stop offset="0.42" stop-color="#EFD4D1"/>
<stop offset="1" stop-color="#F2EAC9"/>
</linearGradient>
<linearGradient id="paint17_linear" x1="9104.44" y1="-8045.36" x2="8209.3" y2="-7591.4" gradientUnits="userSpaceOnUse">
<stop stop-color="#ECC4D7"/>
<stop offset="0.42" stop-color="#EFD4D1"/>
<stop offset="1" stop-color="#F2EAC9"/>
</linearGradient>
<linearGradient id="paint18_linear" x1="18753.4" y1="-24797.8" x2="17154.3" y2="-24629.8" gradientUnits="userSpaceOnUse">
<stop stop-color="#ECC4D7"/>
<stop offset="0.42" stop-color="#EFD4D1"/>
<stop offset="1" stop-color="#F2EAC9"/>
</linearGradient>
<linearGradient id="paint19_linear" x1="13546.9" y1="8727.5" x2="14833.7" y2="8727.5" gradientUnits="userSpaceOnUse">
<stop stop-color="#ECC4D7"/>
<stop offset="0.42" stop-color="#EFD4D1"/>
<stop offset="1" stop-color="#F2EAC9"/>
</linearGradient>
<linearGradient id="paint20_linear" x1="329.27" y1="178.24" x2="337.39" y2="178.24" gradientUnits="userSpaceOnUse">
<stop stop-color="#183866"/>
<stop offset="1" stop-color="#1A7FC1"/>
</linearGradient>
<linearGradient id="paint21_linear" x1="7816.65" y1="12827.3" x2="8384.98" y2="12827.3" gradientUnits="userSpaceOnUse">
<stop stop-color="#ECC4D7"/>
<stop offset="0.42" stop-color="#EFD4D1"/>
<stop offset="1" stop-color="#F2EAC9"/>
</linearGradient>
<linearGradient id="paint22_linear" x1="16061.4" y1="24050.2" x2="20918.6" y2="31374.4" gradientUnits="userSpaceOnUse">
<stop stop-color="white" stop-opacity="0"/>
<stop offset="0.99" stop-color="white"/>
</linearGradient>
<linearGradient id="paint23_linear" x1="5318.98" y1="8047.47" x2="5572.83" y2="8047.47" gradientUnits="userSpaceOnUse">
<stop stop-color="#ECC4D7"/>
<stop offset="0.42" stop-color="#EFD4D1"/>
<stop offset="1" stop-color="#F2EAC9"/>
</linearGradient>
<clipPath id="clip0">
<rect width="808.63" height="597.63" fill="white"/>
</clipPath>
</defs>
</svg>
