<svg width="559" height="586" viewBox="0 0 559 586" fill="none" xmlns="http://www.w3.org/2000/svg">
<g clip-path="url(#clip0)">
<path opacity="0.18" d="M199.02 104.39C155.89 130.55 101.49 136.67 63.0199 169.3C49.4399 180.83 38.4799 195.23 29.6499 210.69C0.949944 260.99 -4.94006 323.77 13.9299 378.54C32.7999 433.31 76.1 479.13 129.71 501.07C155.35 511.56 182.84 516.73 210.31 520.34C260.954 526.984 312.138 528.526 363.09 524.94C395.3 522.67 429.31 517.55 454.09 496.85C470.61 483.05 481.37 463.58 489.69 443.73C512.188 389.757 519.143 330.568 509.77 272.85C504.04 237.94 492.19 203.77 472.67 174.27C439.83 124.62 388.15 92.0499 335.19 67.2699C314.4 57.5899 287.83 40.6899 264.65 50.4699C240.28 60.7699 222.24 90.3099 199.02 104.39Z" fill="#1A237E"/>
<path opacity="0.52" d="M17.17 522.94C12.62 523.81 7.83999 524.82 4.38999 527.94C-2.19001 533.84 -0.840004 545.16 4.94 551.84C10.72 558.52 19.52 561.63 27.94 564.18C98.26 585.33 172.94 585.48 246.36 585.45C268.79 585.45 291.81 585.33 312.76 577.31C327.28 571.76 340.17 562.62 354.49 556.55C408.24 533.75 471.13 557.4 527.96 543.99C534.63 542.42 542.04 539.56 544.36 533.11C549.05 520.11 530.09 512.16 516.26 511.48C455.586 508.481 394.793 508.768 334.15 512.34C285.7 515.19 241.56 500.81 192.93 502.78C133.926 505.147 75.1779 511.885 17.17 522.94Z" fill="url(#paint0_linear)"/>
<path d="M293.83 511.41H277.73C272.229 511.41 266.953 509.229 263.057 505.345C259.162 501.461 256.966 496.191 256.95 490.69V20.78C256.953 15.2696 259.143 9.98568 263.039 6.08925C266.936 2.19282 272.22 0.00264986 277.73 0H293.83C288.319 0 283.033 2.18932 279.136 6.08632C275.239 9.98333 273.05 15.2688 273.05 20.78V490.69C273.063 496.192 275.259 501.463 279.155 505.348C283.05 509.232 288.328 511.413 293.83 511.41Z" fill="#1A237E"/>
<path d="M293.83 511.41H277.73C272.229 511.41 266.953 509.229 263.057 505.345C259.162 501.461 256.966 496.191 256.95 490.69V20.78C256.953 15.2696 259.143 9.98568 263.039 6.08925C266.936 2.19282 272.22 0.00264986 277.73 0H293.83C288.319 0 283.033 2.18932 279.136 6.08632C275.239 9.98333 273.05 15.2688 273.05 20.78V490.69C273.063 496.192 275.259 501.463 279.155 505.348C283.05 509.232 288.328 511.413 293.83 511.41Z" fill="url(#paint1_linear)"/>
<path d="M142.54 161.78C142.54 161.78 96.81 221.14 101.47 247.78C106.13 274.42 117.36 301.56 117.36 301.56L148.04 170.56L142.54 161.78Z" fill="#1A237E"/>
<path d="M142.54 161.78C142.54 161.78 96.81 221.14 101.47 247.78C106.13 274.42 117.36 301.56 117.36 301.56L148.04 170.56L142.54 161.78Z" fill="url(#paint2_linear)"/>
<path d="M537.87 0H293.8C282.324 0 273.02 9.30352 273.02 20.78V490.63C273.02 502.106 282.324 511.41 293.8 511.41H537.87C549.346 511.41 558.65 502.106 558.65 490.63V20.78C558.65 9.30352 549.346 0 537.87 0Z" fill="#1A237E"/>
<path opacity="0.34" d="M418.77 57.6301H295.71C294.753 57.6301 293.806 57.4414 292.922 57.0749C292.038 56.7085 291.235 56.1713 290.559 55.4943C289.883 54.8172 289.346 54.0135 288.981 53.1291C288.616 52.2447 288.429 51.2969 288.43 50.3401C288.43 48.4093 289.197 46.5576 290.562 45.1923C291.927 43.8271 293.779 43.0601 295.71 43.0601H418.77C420.702 43.0601 422.554 43.8267 423.921 45.1917C425.288 46.5567 426.057 48.4084 426.06 50.3401C426.06 52.2735 425.292 54.1277 423.925 55.4949C422.558 56.862 420.703 57.6301 418.77 57.6301Z" fill="white"/>
<path opacity="0.34" d="M418.77 131.92H295.71C293.788 131.92 291.944 131.16 290.58 129.805C289.216 128.451 288.443 126.612 288.43 124.69C288.429 123.733 288.616 122.785 288.981 121.901C289.346 121.016 289.883 120.213 290.559 119.536C291.235 118.859 292.038 118.321 292.922 117.955C293.806 117.589 294.753 117.4 295.71 117.4H418.77C420.703 117.4 422.558 118.168 423.925 119.535C425.292 120.902 426.06 122.756 426.06 124.69C426.044 126.613 425.269 128.452 423.904 129.806C422.538 131.16 420.693 131.92 418.77 131.92Z" fill="white"/>
<path opacity="0.34" d="M418.77 206.21H295.71C293.779 206.21 291.927 205.443 290.562 204.078C289.197 202.712 288.43 200.861 288.43 198.93C288.429 197.973 288.616 197.025 288.981 196.141C289.346 195.256 289.883 194.453 290.559 193.776C291.235 193.099 292.038 192.561 292.922 192.195C293.806 191.829 294.753 191.64 295.71 191.64H418.77C420.703 191.64 422.558 192.408 423.925 193.775C425.292 195.142 426.06 196.996 426.06 198.93C426.057 200.862 425.288 202.713 423.921 204.078C422.554 205.443 420.702 206.21 418.77 206.21Z" fill="white"/>
<path opacity="0.34" d="M418.77 280.51H295.71C293.778 280.507 291.927 279.738 290.562 278.371C289.197 277.004 288.43 275.152 288.43 273.22C288.429 272.263 288.616 271.315 288.981 270.431C289.346 269.547 289.883 268.743 290.559 268.066C291.235 267.389 292.038 266.852 292.922 266.485C293.806 266.119 294.753 265.93 295.71 265.93H418.77C420.703 265.93 422.558 266.698 423.925 268.065C425.292 269.432 426.06 271.287 426.06 273.22C426.057 275.153 425.288 277.005 423.922 278.372C422.555 279.738 420.703 280.507 418.77 280.51Z" fill="white"/>
<path opacity="0.34" d="M418.77 354.8H295.71C293.778 354.798 291.927 354.028 290.562 352.661C289.197 351.295 288.43 349.442 288.43 347.51C288.429 346.553 288.616 345.606 288.981 344.721C289.346 343.837 289.883 343.033 290.559 342.356C291.235 341.679 292.038 341.142 292.922 340.775C293.806 340.409 294.753 340.22 295.71 340.22H418.77C420.703 340.22 422.558 340.988 423.925 342.355C425.292 343.723 426.06 345.577 426.06 347.51C426.057 349.443 425.288 351.296 423.922 352.662C422.555 354.029 420.703 354.798 418.77 354.8Z" fill="white"/>
<path opacity="0.34" d="M418.77 429.09H295.71C294.753 429.09 293.806 428.901 292.922 428.535C292.038 428.168 291.235 427.631 290.559 426.954C289.883 426.277 289.346 425.473 288.981 424.589C288.616 423.704 288.429 422.757 288.43 421.8C288.43 419.868 289.197 418.015 290.562 416.648C291.927 415.282 293.778 414.512 295.71 414.51H418.77C420.703 414.512 422.555 415.281 423.922 416.648C425.288 418.014 426.057 419.867 426.06 421.8C426.06 423.733 425.292 425.587 423.925 426.955C422.558 428.322 420.703 429.09 418.77 429.09Z" fill="white"/>
<path d="M121.23 318.23C129.88 301.6 172 337.43 177.32 355.23C182.64 373.03 148.04 435.55 130.08 454.85C112.12 474.15 78.83 491.42 57.56 497.41C57.56 497.41 50.06 487.41 51.56 483.3C53.06 479.19 97.14 447.06 101.13 427.65C105.12 408.24 112.58 334.87 121.23 318.23Z" fill="#302F47"/>
<path d="M324.5 163.42C324.5 163.42 319.18 147.97 320.07 146.27C320.96 144.57 326.13 140.65 328.57 142.94C331.01 145.23 335.96 159.43 335.96 159.43L387.91 141.69C387.91 141.69 393.71 140.79 393.1 147.13C392.49 153.47 336.59 175.69 336.59 175.69C336.59 175.69 332.04 180.35 324.5 163.42Z" fill="#1A237E"/>
<path d="M324.5 163.42C324.5 163.42 319.18 147.97 320.07 146.27C320.96 144.57 326.13 140.65 328.57 142.94C331.01 145.23 335.96 159.43 335.96 159.43L387.91 141.69C387.91 141.69 393.71 140.79 393.1 147.13C392.49 153.47 336.59 175.69 336.59 175.69C336.59 175.69 332.04 180.35 324.5 163.42Z" fill="url(#paint3_linear)"/>
<path d="M200.13 75.7599C200.13 75.7599 216.34 104.06 213.13 121.21C209.92 138.36 200.75 134.51 197.5 143.38C195.462 149.196 194.152 155.242 193.6 161.38C193.6 161.38 184.19 169.02 167.34 148.23C168.84 139.767 167.932 131.052 164.72 123.08C159.35 110.27 162.25 64.0299 200.13 75.7599Z" fill="url(#paint4_linear)"/>
<path d="M150.17 61.1599C125.35 84.8399 115.17 70.4799 102.77 77.0299C90.37 83.5799 85.6 85.9199 90.1 110.59C94.6 135.26 72.42 129.93 67.1 144.86C51.89 187.53 77.1 194.98 105.24 193.8C133.38 192.62 130.73 141.26 151.47 139.27C172.21 137.28 176.47 140.38 184.86 113.74C189.8 98.0699 186.28 91.2299 192.99 85.9099C201.56 79.1199 204.55 64.4099 195.6 58.1399C185.75 51.2399 165.96 46.0999 150.17 61.1599Z" fill="#3F3D56"/>
<path d="M148.41 157.87C148.41 157.87 146.34 148.41 153.14 145.16C159.94 141.91 179.43 140.34 182.14 145.16C184.85 149.98 187.82 160.9 190.72 161.16C193.62 161.42 205.53 180.36 205.53 180.36C205.53 180.36 208.02 232.98 208.16 253.41C208.39 285.87 188.94 336.54 162.09 332.41C135.24 328.28 115.65 320.82 116.09 306.9C116.53 292.98 139.21 188.11 137.59 176.3C135.83 163.56 147.95 157.43 148.41 157.87Z" fill="#1A237E"/>
<path d="M148.41 157.87C148.41 157.87 146.34 148.41 153.14 145.16C159.94 141.91 179.43 140.34 182.14 145.16C184.85 149.98 187.82 160.9 190.72 161.16C193.62 161.42 205.53 180.36 205.53 180.36C205.53 180.36 208.02 232.98 208.16 253.41C208.39 285.87 188.94 336.54 162.09 332.41C135.24 328.28 115.65 320.82 116.09 306.9C116.53 292.98 139.21 188.11 137.59 176.3C135.83 163.56 147.95 157.43 148.41 157.87Z" fill="url(#paint5_linear)"/>
<path d="M172.52 174.28C172.52 174.28 182.86 153.88 197.52 166.28C212.18 178.68 230.17 224.53 242.69 224.79C255.21 225.05 306.69 183.57 311.18 187.32C315.67 191.07 323.47 200.43 319.27 208.42C315.07 216.41 257.51 266.81 232.72 262.09C207.93 257.37 155.09 223.52 172.52 174.28Z" fill="#1A237E"/>
<path d="M172.52 174.28C172.52 174.28 182.86 153.88 197.52 166.28C212.18 178.68 230.17 224.53 242.69 224.79C255.21 225.05 306.69 183.57 311.18 187.32C315.67 191.07 323.47 200.43 319.27 208.42C315.07 216.41 257.51 266.81 232.72 262.09C207.93 257.37 155.09 223.52 172.52 174.28Z" fill="url(#paint6_linear)"/>
<path d="M312.83 188.82C312.83 188.82 323.29 169.34 324.15 165.82C325.01 162.3 327.62 167.59 327.62 167.59C327.62 167.59 336.62 160.49 338.12 157.39C339.62 154.29 352.65 149.49 358.53 150.26C364.41 151.03 354.53 154.64 354.53 154.64C354.53 154.64 349.87 156.77 347.43 168.47C344.99 180.17 342.52 190.18 331.72 195.09C320.92 200 320.23 201.09 320.23 201.09C320.23 201.09 317.68 190.79 312.83 188.82Z" fill="url(#paint7_linear)"/>
<path d="M121.23 318.23C121.23 318.23 108.35 347.71 132.3 375.23C156.25 402.75 174.11 424.23 169.06 466.82C164.01 509.41 176.12 531.36 176.12 531.36H190.24C190.24 531.36 212.15 452.46 208.37 419.05C204.59 385.64 188.1 318.33 188.1 318.33C188.1 318.33 155.83 302.93 121.23 318.23Z" fill="#3F3D56"/>
<path d="M176.12 531.34V549.34H215.02C215.02 549.34 191.73 545.13 191.07 540.34C190.41 535.55 190.24 531.34 190.24 531.34H176.12Z" fill="url(#paint8_linear)"/>
<path d="M179 543.81C177.24 543.45 175.05 543.01 173.94 544.42C173.575 544.947 173.342 545.554 173.26 546.19C172.914 547.937 172.786 549.721 172.88 551.5C172.95 552.83 173.26 554.33 174.41 554.99C175.133 555.32 175.931 555.447 176.72 555.36L217.06 554.62C218.6 554.62 220.38 554.45 221.25 553.18C221.645 552.555 221.82 551.816 221.75 551.08C221.639 550.08 221.313 549.116 220.795 548.253C220.278 547.39 219.58 546.649 218.75 546.08C217.078 544.939 215.22 544.096 213.26 543.59C208.26 542.07 200.26 539.23 195.32 541.3C189.93 543.53 184.95 545.06 179 543.81Z" fill="#3F3D56"/>
<path d="M51.17 486L35.17 494.17L54.65 527.84C54.65 527.84 46.65 505.57 50.43 502.61C54.21 499.65 57.79 497.4 57.79 497.4L51.17 486Z" fill="url(#paint9_linear)"/>
<path d="M41.33 493.92C40.77 492.21 40.05 490.1 38.27 489.84C37.6356 489.782 36.9966 489.881 36.41 490.13C34.7209 490.712 33.109 491.498 31.61 492.47C30.5 493.19 29.36 494.21 29.36 495.54C29.4369 496.328 29.7235 497.08 30.19 497.72C37.1367 509.24 44.0833 520.76 51.03 532.28C51.83 533.59 52.85 535.06 54.38 535.18C55.1192 535.205 55.8464 534.988 56.45 534.56C57.2705 533.965 57.952 533.199 58.4475 532.315C58.9431 531.431 59.2407 530.45 59.32 529.44C59.4695 527.421 59.2699 525.391 58.73 523.44C57.56 518.37 55.98 509.98 51.73 506.76C47.05 503.23 43.23 499.69 41.33 493.92Z" fill="#3F3D56"/>
<path opacity="0.34" d="M504.07 24.0901H462.4C459.257 24.0901 456.71 26.6376 456.71 29.7801V64.8001C456.71 67.9426 459.257 70.4901 462.4 70.4901H504.07C507.212 70.4901 509.76 67.9426 509.76 64.8001V29.7801C509.76 26.6376 507.212 24.0901 504.07 24.0901Z" fill="white"/>
<path opacity="0.34" d="M504.07 104.73H462.4C459.257 104.73 456.71 107.277 456.71 110.42V145.44C456.71 148.582 459.257 151.13 462.4 151.13H504.07C507.212 151.13 509.76 148.582 509.76 145.44V110.42C509.76 107.277 507.212 104.73 504.07 104.73Z" fill="white"/>
<path opacity="0.34" d="M504.07 177.9H462.4C459.257 177.9 456.71 180.447 456.71 183.59V218.61C456.71 221.752 459.257 224.3 462.4 224.3H504.07C507.212 224.3 509.76 221.752 509.76 218.61V183.59C509.76 180.447 507.212 177.9 504.07 177.9Z" fill="white"/>
<path opacity="0.34" d="M504.07 322.67H462.4C459.257 322.67 456.71 325.217 456.71 328.36V363.38C456.71 366.522 459.257 369.07 462.4 369.07H504.07C507.212 369.07 509.76 366.522 509.76 363.38V328.36C509.76 325.217 507.212 322.67 504.07 322.67Z" fill="white"/>
<path opacity="0.34" d="M504.07 250.01H462.4C459.257 250.01 456.71 252.558 456.71 255.7V290.72C456.71 293.863 459.257 296.41 462.4 296.41H504.07C507.212 296.41 509.76 293.863 509.76 290.72V255.7C509.76 252.558 507.212 250.01 504.07 250.01Z" fill="white"/>
<path opacity="0.34" d="M504.07 398.6H462.4C459.257 398.6 456.71 401.148 456.71 404.29V439.31C456.71 442.453 459.257 445 462.4 445H504.07C507.212 445 509.76 442.453 509.76 439.31V404.29C509.76 401.148 507.212 398.6 504.07 398.6Z" fill="white"/>
<path d="M460.43 40.52L469.97 56.52C472.97 61.52 478.13 62.52 481.87 58.94L514.16 27.86C514.16 27.86 517.16 23.57 513.97 20.25C510.78 16.93 508.14 20.75 508.14 20.75L479.54 48.23C477.73 49.88 475.26 49.34 473.86 46.97L466.26 34.1C464.83 31.69 462.18 31.47 460.61 33.69C459.966 34.7061 459.609 35.8776 459.578 37.0802C459.546 38.2827 459.84 39.4714 460.43 40.52Z" fill="#1A237E"/>
<path d="M460.43 119.69L469.97 135.69C472.97 140.64 478.13 141.69 481.87 138.11L514.16 107.03C514.16 107.03 517.16 102.74 513.97 99.4199C510.78 96.0999 508.14 99.9199 508.14 99.9199L479.54 127.4C477.73 129.05 475.26 128.51 473.86 126.14L466.26 113.27C464.82 110.84 462.18 110.62 460.61 112.8C459.954 113.823 459.591 115.005 459.559 116.22C459.528 117.434 459.829 118.634 460.43 119.69Z" fill="#1A237E"/>
<path d="M460.43 270.54L469.97 286.54C472.97 291.49 478.13 292.54 481.87 288.96L514.16 257.87C514.16 257.87 517.16 253.58 513.97 250.26C510.78 246.94 508.14 250.76 508.14 250.76L479.54 278.25C477.73 279.9 475.26 279.35 473.86 276.99L466.26 264.12C464.82 261.69 462.18 261.47 460.61 263.65C459.954 264.673 459.591 265.855 459.559 267.07C459.528 268.284 459.829 269.484 460.43 270.54Z" fill="#1A237E"/>
<path d="M460.43 343.74L469.97 359.74C472.97 364.69 478.13 365.74 481.87 362.16L514.16 331.08C514.16 331.08 517.16 326.78 513.97 323.46C510.78 320.14 508.14 323.96 508.14 323.96L479.54 351.45C477.73 353.1 475.26 352.55 473.86 350.19L466.26 337.32C464.82 334.89 462.18 334.67 460.61 336.85C459.954 337.873 459.591 339.055 459.559 340.27C459.528 341.484 459.829 342.684 460.43 343.74Z" fill="#1A237E"/>
<path d="M460.43 415.04L469.97 431.04C472.97 436.04 478.13 437.04 481.87 433.47L514.16 402.38C514.16 402.38 517.16 398.09 513.97 394.77C510.78 391.45 508.14 395.27 508.14 395.27L479.54 422.75C477.73 424.41 475.26 423.86 473.86 421.49L466.26 408.69C464.82 406.26 462.18 406.04 460.61 408.22C459.968 409.235 459.612 410.404 459.58 411.605C459.549 412.806 459.842 413.992 460.43 415.04Z" fill="#1A237E"/>
<path d="M460.43 40.52L469.97 56.52C472.97 61.52 478.13 62.52 481.87 58.94L514.16 27.86C514.16 27.86 517.16 23.57 513.97 20.25C510.78 16.93 508.14 20.75 508.14 20.75L479.54 48.23C477.73 49.88 475.26 49.34 473.86 46.97L466.26 34.1C464.83 31.69 462.18 31.47 460.61 33.69C459.966 34.7061 459.609 35.8776 459.578 37.0802C459.546 38.2827 459.84 39.4714 460.43 40.52Z" fill="url(#paint10_linear)"/>
<path d="M460.43 119.69L469.97 135.69C472.97 140.64 478.13 141.69 481.87 138.11L514.16 107.03C514.16 107.03 517.16 102.74 513.97 99.4199C510.78 96.0999 508.14 99.9199 508.14 99.9199L479.54 127.4C477.73 129.05 475.26 128.51 473.86 126.14L466.26 113.27C464.82 110.84 462.18 110.62 460.61 112.8C459.954 113.823 459.591 115.005 459.559 116.22C459.528 117.434 459.829 118.634 460.43 119.69Z" fill="url(#paint11_linear)"/>
<path d="M460.43 270.54L469.97 286.54C472.97 291.49 478.13 292.54 481.87 288.96L514.16 257.87C514.16 257.87 517.16 253.58 513.97 250.26C510.78 246.94 508.14 250.76 508.14 250.76L479.54 278.25C477.73 279.9 475.26 279.35 473.86 276.99L466.26 264.12C464.82 261.69 462.18 261.47 460.61 263.65C459.954 264.673 459.591 265.855 459.559 267.07C459.528 268.284 459.829 269.484 460.43 270.54Z" fill="url(#paint12_linear)"/>
<path d="M460.43 343.74L469.97 359.74C472.97 364.69 478.13 365.74 481.87 362.16L514.16 331.08C514.16 331.08 517.16 326.78 513.97 323.46C510.78 320.14 508.14 323.96 508.14 323.96L479.54 351.45C477.73 353.1 475.26 352.55 473.86 350.19L466.26 337.32C464.82 334.89 462.18 334.67 460.61 336.85C459.954 337.873 459.591 339.055 459.559 340.27C459.528 341.484 459.829 342.684 460.43 343.74Z" fill="url(#paint13_linear)"/>
<path d="M460.43 415.04L469.97 431.04C472.97 436.04 478.13 437.04 481.87 433.47L514.16 402.38C514.16 402.38 517.16 398.09 513.97 394.77C510.78 391.45 508.14 395.27 508.14 395.27L479.54 422.75C477.73 424.41 475.26 423.86 473.86 421.49L466.26 408.69C464.82 406.26 462.18 406.04 460.61 408.22C459.968 409.235 459.612 410.404 459.58 411.605C459.549 412.806 459.842 413.992 460.43 415.04Z" fill="url(#paint14_linear)"/>
</g>
<defs>
<linearGradient id="paint0_linear" x1="275.27" y1="442.22" x2="259.5" y2="976.06" gradientUnits="userSpaceOnUse">
<stop stop-opacity="0"/>
<stop offset="0.98"/>
</linearGradient>
<linearGradient id="paint1_linear" x1="17914.4" y1="79713.5" x2="-8977.93" y2="81273" gradientUnits="userSpaceOnUse">
<stop stop-opacity="0"/>
<stop offset="0.98"/>
</linearGradient>
<linearGradient id="paint2_linear" x1="7873.03" y1="31493.5" x2="13277.9" y2="32177.7" gradientUnits="userSpaceOnUse">
<stop stop-opacity="0"/>
<stop offset="0.98"/>
</linearGradient>
<linearGradient id="paint3_linear" x1="32088.3" y1="4698.1" x2="30596.3" y2="10626.8" gradientUnits="userSpaceOnUse">
<stop stop-opacity="0"/>
<stop offset="0.98"/>
</linearGradient>
<linearGradient id="paint4_linear" x1="162.65" y1="118.3" x2="213.55" y2="118.3" gradientUnits="userSpaceOnUse">
<stop stop-color="#ECC4D7"/>
<stop offset="0.42" stop-color="#EFD4D1"/>
<stop offset="1" stop-color="#F2EAC9"/>
</linearGradient>
<linearGradient id="paint5_linear" x1="23994.1" y1="46843.9" x2="-17662.4" y2="43902.7" gradientUnits="userSpaceOnUse">
<stop stop-opacity="0"/>
<stop offset="0.98"/>
</linearGradient>
<linearGradient id="paint6_linear" x1="47176.5" y1="21413.7" x2="45820.8" y2="36527.3" gradientUnits="userSpaceOnUse">
<stop stop-opacity="0"/>
<stop offset="0.98"/>
</linearGradient>
<linearGradient id="paint7_linear" x1="18387.7" y1="9312.88" x2="20650.1" y2="9312.88" gradientUnits="userSpaceOnUse">
<stop stop-color="#ECC4D7"/>
<stop offset="0.42" stop-color="#EFD4D1"/>
<stop offset="1" stop-color="#F2EAC9"/>
</linearGradient>
<linearGradient id="paint8_linear" x1="9640.1" y1="10334.7" x2="11153.3" y2="10334.7" gradientUnits="userSpaceOnUse">
<stop stop-color="#ECC4D7"/>
<stop offset="0.42" stop-color="#EFD4D1"/>
<stop offset="1" stop-color="#F2EAC9"/>
</linearGradient>
<linearGradient id="paint9_linear" x1="2349.42" y1="21875.9" x2="2861.09" y2="21875.9" gradientUnits="userSpaceOnUse">
<stop stop-color="#ECC4D7"/>
<stop offset="0.42" stop-color="#EFD4D1"/>
<stop offset="1" stop-color="#F2EAC9"/>
</linearGradient>
<linearGradient id="paint10_linear" x1="31790.7" y1="-3445.01" x2="29689.9" y2="49135.9" gradientUnits="userSpaceOnUse">
<stop stop-opacity="0"/>
<stop offset="0.98"/>
</linearGradient>
<linearGradient id="paint11_linear" x1="32034.4" y1="-3355.38" x2="29935.7" y2="49207.7" gradientUnits="userSpaceOnUse">
<stop stop-opacity="0"/>
<stop offset="0.98"/>
</linearGradient>
<linearGradient id="paint12_linear" x1="32479.2" y1="-3187.22" x2="30379.5" y2="49387.8" gradientUnits="userSpaceOnUse">
<stop stop-opacity="0"/>
<stop offset="0.98"/>
</linearGradient>
<linearGradient id="paint13_linear" x1="32694.9" y1="-3105.59" x2="30595.2" y2="49469.9" gradientUnits="userSpaceOnUse">
<stop stop-opacity="0"/>
<stop offset="0.98"/>
</linearGradient>
<linearGradient id="paint14_linear" x1="32893.4" y1="-3026.37" x2="30792" y2="49557.3" gradientUnits="userSpaceOnUse">
<stop stop-opacity="0"/>
<stop offset="0.98"/>
</linearGradient>
<clipPath id="clip0">
<rect width="558.65" height="585.42" fill="white"/>
</clipPath>
</defs>
</svg>
