<svg width="439" height="472" viewBox="0 0 439 472" fill="none" xmlns="http://www.w3.org/2000/svg">
<g clip-path="url(#clip0)">
<path opacity="0.24" d="M438.81 292.36C439.81 338.36 401.95 374.71 366.96 404.71C366.844 404.834 366.716 404.948 366.58 405.05L319.25 445.01C313.31 450.182 306.717 454.553 299.64 458.01C268.53 473.36 229.43 471.96 193.64 469.56C164.83 467.56 132.08 463.49 115.44 439.84C110.04 432.1 106.93 422.89 101.07 415.49C92.6701 404.82 79.6201 399.14 67.8001 392.49C51.8625 383.431 37.7981 371.416 26.3601 357.09C4.42006 329.61 -6.73994 294.66 4.25006 262.09C4.42006 261.54 4.63006 260.98 4.84006 260.42C11.5401 242.01 24.5401 226.61 33.6901 209.28C63.1601 153.75 54.5401 78.13 100.94 35.61C123.43 15.01 154.65 7.00996 184.86 3.00996C216.39 -1.17004 248.86 -1.70004 279.66 6.07996C342.83 21.91 394.76 74.92 410.87 137.81C412.475 143.927 413.711 150.135 414.57 156.4C417.5 177.71 416.66 199.55 421.09 220.61C422.31 226.3 423.88 231.88 425.63 237.46C431.28 255.6 438.43 273.46 438.81 292.36Z" fill="#1A237E"/>
<path d="M426.97 240.46H118.03V253.71H430.9L426.97 240.46Z" fill="url(#paint0_linear)"/>
<path d="M425.63 237.46L424.76 240.46H123.76V137.81H410.87C412.475 143.927 413.711 150.135 414.57 156.4C417.5 177.71 416.66 199.55 421.09 220.61C422.31 226.3 423.88 231.88 425.63 237.46Z" fill="url(#paint1_linear)"/>
<path d="M291.85 170.89H259.05V177.73H291.85V170.89Z" fill="url(#paint2_linear)"/>
<path d="M291.85 199.63H259.05V223.42H291.85V199.63Z" fill="url(#paint3_linear)"/>
<path d="M152.24 202.01C155.45 195.13 157.49 187.72 161.08 181.01C168.18 167.77 181.08 157.88 185.99 143.68C191.9 146.05 193.88 153.58 193.23 159.92C192.58 166.26 190.12 172.41 190.42 178.77C207.17 164.966 228.331 157.657 250.03 158.18C255.25 158.33 260.9 159.18 264.57 162.86C267.13 165.45 268.31 169.07 269.4 172.54C272.2 181.41 275.03 190.75 273.19 199.86C272.62 202.68 271.61 205.48 271.86 208.34C272.22 212.25 274.86 216.26 273.22 219.82C272.6 221.14 271.44 222.17 270.96 223.55C270.08 226.1 271.8 228.76 272.16 231.43C272.9 236.8 268.16 241.31 263.45 243.97C249.45 251.85 232.83 253.32 217.67 258.65C168.87 275.79 150.37 265.58 149.81 263.83C145.98 252.05 138.1 237.24 137.25 224.93C136.67 216.54 148.63 209.75 152.24 202.01Z" fill="#FEBA7B"/>
<path d="M177.59 239.21C175.19 243.13 180.78 247.78 183.19 251.69C184.4 253.69 185.72 255.69 187.8 256.75C189.64 257.66 191.8 257.59 193.85 257.51C197.97 257.33 202.23 257.12 205.9 255.23C211.57 252.32 214.63 246.1 217 240.18C224 222.74 228.24 203.18 222.5 185.25C220.85 180.09 217.97 174.79 212.93 172.8C208.04 170.88 202.54 172.61 197.71 174.67C194.91 175.87 189.56 177.3 188 180.1C186.61 182.58 193.98 212.46 177.59 239.21Z" fill="url(#paint4_linear)"/>
<path d="M153.88 280.71C153.18 281.841 152.16 282.738 150.95 283.29C129.26 296.2 67.42 324.69 48.17 340.98C41.29 346.84 34.39 352.98 26.4 357.06C24.4 354.553 22.4833 351.973 20.65 349.32C20.65 349.32 20.58 349.21 20.54 349.18C2.53996 323.09 -5.69004 291.59 4.28996 262.08C10.81 261.46 23.85 252.08 28.88 249.74C47.36 241.23 107.63 220.3 127.17 214.51C128.84 213.99 130.76 213.51 132.36 214.27C133.592 215.06 134.573 216.183 135.19 217.51C143.424 231.956 149.199 247.67 152.28 264.01C153.12 268.3 153.74 272.66 154.2 277.01C154.442 278.249 154.332 279.531 153.88 280.71Z" fill="#1A237E"/>
<path d="M255.11 126.19H198.81C192.978 126.19 188.25 130.918 188.25 136.75V255.67C188.25 261.502 192.978 266.23 198.81 266.23H255.11C260.942 266.23 265.67 261.502 265.67 255.67V136.75C265.67 130.918 260.942 126.19 255.11 126.19Z" fill="#1A237E"/>
<path d="M261.75 135.04H192.15V251.78H261.75V135.04Z" fill="white"/>
<path opacity="0.16" d="M225.53 189.63C238.072 189.63 248.24 179.462 248.24 166.92C248.24 154.378 238.072 144.21 225.53 144.21C212.988 144.21 202.82 154.378 202.82 166.92C202.82 179.462 212.988 189.63 225.53 189.63Z" fill="#1A237E"/>
<path d="M245.66 219.82H204.15C202.14 219.82 200.51 221.45 200.51 223.46V231.74C200.51 233.75 202.14 235.38 204.15 235.38H245.66C247.67 235.38 249.3 233.75 249.3 231.74V223.46C249.3 221.45 247.67 219.82 245.66 219.82Z" fill="#1A237E"/>
<path d="M207.61 229.5C207.603 229.834 207.62 230.168 207.66 230.5H206.24C206.281 230.168 206.297 229.834 206.29 229.5V226.25H205.54C205.13 226.25 205.02 226.25 204.54 226.25V225.02C204.873 225.041 205.207 225.041 205.54 225.02H208.37C208.703 225.039 209.037 225.039 209.37 225.02V226.25C209.037 226.231 208.703 226.231 208.37 226.25H207.64L207.61 229.5Z" fill="white"/>
<path d="M213.1 230.47C213.02 230.129 212.913 229.794 212.78 229.47C212.58 228.9 212.5 228.76 212.34 228.62C212.273 228.558 212.194 228.511 212.108 228.48C212.022 228.449 211.931 228.436 211.84 228.44H211.18V229.5C211.171 229.834 211.188 230.169 211.23 230.5H209.84C209.888 230.169 209.908 229.834 209.9 229.5V226.01C209.903 225.692 209.883 225.375 209.84 225.06H210.84H212.52C213.52 225.06 214.17 225.6 214.17 226.53C214.183 226.723 214.156 226.917 214.091 227.1C214.025 227.282 213.923 227.449 213.79 227.59C213.612 227.739 213.404 227.848 213.18 227.91C213.51 228.01 213.66 228.16 213.86 228.62C213.96 228.82 214.05 229.04 214.34 229.74C214.41 229.92 214.49 230.08 214.65 230.42L213.1 230.47ZM212.18 227.34C212.262 227.347 212.344 227.337 212.421 227.31C212.498 227.282 212.569 227.239 212.627 227.182C212.686 227.125 212.732 227.056 212.762 226.98C212.792 226.904 212.805 226.822 212.8 226.74C212.8 226.38 212.59 226.19 212.19 226.19H211.19V227.34H212.18Z" fill="white"/>
<path d="M218.8 230.47C218.765 230.237 218.715 230.006 218.65 229.78L218.47 229.23H216.63L216.46 229.78C216.384 230.004 216.331 230.235 216.3 230.47H214.79C214.914 230.219 215.017 229.958 215.1 229.69L216.49 225.8C216.583 225.578 216.654 225.347 216.7 225.11H218.38C218.44 225.344 218.513 225.575 218.6 225.8L220 229.69C220.12 230.03 220.23 230.29 220.31 230.47H218.8ZM217.54 226.21L216.94 228.14H218.16L217.54 226.21Z" fill="white"/>
<path d="M223.84 227.74C224.008 227.988 224.162 228.245 224.3 228.51C224.3 228.22 224.3 227.92 224.3 227.56V226.09C224.306 225.756 224.285 225.421 224.24 225.09H225.62C225.579 225.422 225.562 225.756 225.57 226.09V229.51C225.567 229.844 225.584 230.178 225.62 230.51H224.2C224.06 230.226 223.899 229.952 223.72 229.69L222.53 227.89C222.357 227.636 222.2 227.373 222.06 227.1C222.099 227.432 222.116 227.766 222.11 228.1V229.55C222.086 229.883 222.086 230.217 222.11 230.55H220.74C220.766 230.217 220.766 229.883 220.74 229.55V226.16C220.764 225.827 220.764 225.493 220.74 225.16H222.14C222.259 225.443 222.41 225.711 222.59 225.96L223.84 227.74Z" fill="white"/>
<path d="M227.54 228.72C227.543 228.893 227.599 229.06 227.7 229.2C227.795 229.306 227.913 229.389 228.044 229.442C228.176 229.496 228.318 229.519 228.46 229.51C228.95 229.51 229.25 229.29 229.25 228.92C229.253 228.827 229.23 228.735 229.182 228.655C229.134 228.575 229.064 228.511 228.98 228.47C228.655 228.353 228.321 228.266 227.98 228.21C227.625 228.155 227.285 228.029 226.98 227.84C226.783 227.7 226.624 227.513 226.516 227.297C226.408 227.081 226.354 226.842 226.36 226.6C226.36 225.6 227.16 224.98 228.43 224.98C228.765 224.949 229.102 225 229.414 225.127C229.725 225.254 230.002 225.454 230.22 225.71C230.386 225.941 230.496 226.209 230.54 226.49L229.18 226.64C229.1 226.22 228.87 226.04 228.38 226.04C227.89 226.04 227.69 226.26 227.69 226.55C227.692 226.642 227.723 226.731 227.779 226.805C227.834 226.879 227.912 226.933 228 226.96C228.287 227.069 228.585 227.143 228.89 227.18C229.242 227.241 229.58 227.363 229.89 227.54C230.115 227.676 230.3 227.87 230.423 228.103C230.546 228.335 230.604 228.597 230.59 228.86C230.597 229.078 230.561 229.296 230.484 229.5C230.407 229.704 230.29 229.891 230.14 230.05C229.665 230.444 229.055 230.637 228.44 230.59C227.942 230.605 227.448 230.499 227 230.28C226.675 230.099 226.429 229.803 226.31 229.45C226.232 229.258 226.182 229.056 226.16 228.85L227.54 228.72Z" fill="white"/>
<path d="M232.66 229.35C232.648 229.724 232.665 230.098 232.71 230.47H231.32C231.374 230.106 231.394 229.738 231.38 229.37V226.01C231.404 225.697 231.404 225.383 231.38 225.07C231.64 225.07 231.83 225.07 232.32 225.07H234.19C234.55 225.097 234.911 225.097 235.27 225.07V226.3C234.911 226.262 234.551 226.245 234.19 226.25H232.71V227.31H233.92C234.253 227.334 234.587 227.334 234.92 227.31V228.51C234.588 228.474 234.254 228.457 233.92 228.46H232.71L232.66 229.35Z" fill="white"/>
<path d="M239.8 230.52C239.447 230.492 239.093 230.492 238.74 230.52H236.74C236.25 230.52 236.07 230.52 235.79 230.52C235.815 230.207 235.815 229.893 235.79 229.58V226.01C235.812 225.697 235.812 225.383 235.79 225.07C236.06 225.07 236.24 225.07 236.74 225.07H238.8C239.133 225.09 239.467 225.09 239.8 225.07V226.28C239.467 226.26 239.133 226.26 238.8 226.28H237.12V227.23H238.51C238.94 227.23 239.09 227.23 239.51 227.23V228.42C239.178 228.383 238.844 228.366 238.51 228.37H237.12V229.46H238.78C239.13 229.481 239.48 229.481 239.83 229.46L239.8 230.52Z" fill="white"/>
<path d="M243.72 230.47C243.64 230.13 243.536 229.796 243.41 229.47C243.2 228.9 243.12 228.76 242.96 228.62C242.893 228.558 242.814 228.511 242.728 228.48C242.642 228.449 242.551 228.436 242.46 228.44H241.8V229.5C241.791 229.834 241.808 230.169 241.85 230.5H240.46C240.508 230.169 240.528 229.834 240.52 229.5V226.01C240.523 225.692 240.503 225.375 240.46 225.06H241.46H243.13C244.18 225.06 244.78 225.6 244.78 226.53C244.793 226.723 244.766 226.917 244.7 227.1C244.635 227.282 244.533 227.449 244.4 227.59C244.223 227.741 244.015 227.85 243.79 227.91C244.12 228.01 244.27 228.16 244.47 228.62C244.57 228.82 244.66 229.04 244.95 229.74C245.02 229.92 245.1 230.08 245.26 230.42L243.72 230.47ZM242.81 227.34C242.891 227.348 242.973 227.337 243.05 227.31C243.126 227.283 243.196 227.239 243.254 227.182C243.312 227.125 243.357 227.055 243.386 226.979C243.414 226.903 243.426 226.821 243.42 226.74C243.42 226.38 243.21 226.19 242.81 226.19H241.81V227.34H242.81Z" fill="white"/>
<path d="M245.66 219.82H204.15C202.14 219.82 200.51 221.45 200.51 223.46V231.74C200.51 233.75 202.14 235.38 204.15 235.38H245.66C247.67 235.38 249.3 233.75 249.3 231.74V223.46C249.3 221.45 247.67 219.82 245.66 219.82Z" fill="url(#paint5_linear)"/>
<path d="M248.71 203.85C249.49 205.06 250.78 205.95 251.22 207.32C252.01 209.81 249.62 212.12 249.02 214.67C248.09 218.67 251.62 222.44 251.26 226.48C251 229.55 248.53 232.39 249.26 235.37C246.26 230.99 238.71 232.86 236.05 237.47C233.39 242.08 234.15 247.81 235.05 253.05C236.05 258.53 237.84 264.86 243.05 266.79C246.98 268.23 251.29 266.52 255.12 264.84C253.247 257.98 251.54 251.077 250 244.13C254.637 244.067 259.214 245.186 263.3 247.38C264.96 242.17 264.98 236.6 264.99 231.14L265.04 193.67V174.33C265.04 170.47 267.43 170.19 264.59 167.78C260.91 173.85 249.64 170.65 249.07 177.85C248.68 182.7 252.07 186.25 250.86 191.32C250.03 195.27 246.09 199.74 248.71 203.85Z" fill="url(#paint6_linear)"/>
<path d="M332.43 370.18C331.962 370.779 331.368 371.267 330.69 371.61C324.62 375.16 318.13 378.86 311.08 378.83C300.73 378.76 299.23 387.48 292.18 379.91C282.87 369.91 264.45 349.28 255.84 338.64C248.51 329.64 245.97 320.58 245.2 308.93C244.92 305.13 244.68 301.15 246.11 297.59C246.87 295.59 250.78 287.44 251.69 285.45C251.897 284.983 252.081 284.506 252.24 284.02C253.81 279.38 253.12 274.36 251.41 269.55C250.341 266.619 249.002 263.793 247.41 261.11C243.05 253.68 237.64 246.36 237.01 237.81C236.87 235.62 237.08 233.24 238.48 231.5C240.57 228.85 244.72 228.71 247.72 230.28C250.72 231.85 252.81 234.64 254.77 237.4C260.17 245.17 265.23 253.16 269.87 261.4C272.41 258.01 277.12 256.76 281.24 257.67C285.36 258.58 288.88 261.29 291.49 264.61C293.2 266.84 294.7 269.38 297.18 270.67C299.18 271.72 301.5 271.79 303.63 272.45C311.37 274.76 314.79 283.51 318.42 290.73C321.11 296.1 324.42 301.19 326.42 306.88C328.27 312.25 328.79 318.01 329.03 323.69C329.66 337.89 328.68 352.36 332.45 366.07C332.81 367.42 333.2 369.01 332.43 370.18Z" fill="#FEBA7B"/>
<path d="M273.9 359.41C277.78 363.27 286.21 373.34 290.1 377.2C291.85 378.95 293.71 380.76 296.1 381.44C298.1 382 295.65 375.51 297.68 375.17C307.5 373.53 323.44 370.84 332.58 366.89L330.99 359.53C327.89 357.88 314.76 360.44 310.99 360.63C304.67 360.943 298.337 360.987 291.99 360.76C288.73 360.65 276.2 361.69 273.9 359.41Z" fill="url(#paint7_linear)"/>
<path d="M366.96 404.71C366.843 404.834 366.716 404.948 366.58 405.05L323.29 441.54L319.29 444.96C313.35 450.132 306.757 454.503 299.68 457.96C288.91 430.41 282.21 378.33 282.21 378.33L287.97 376.62L340.28 361.24L366.96 404.71Z" fill="#1A237E"/>
<path d="M393.38 170.78H291.67V223.91H393.38V170.78Z" fill="#1A237E"/>
<path d="M387.31 187.26V208.54C382.78 208.65 379.13 213.28 379.13 219C379.11 219.243 379.11 219.487 379.13 219.73H308.09C308.11 219.487 308.11 219.243 308.09 219C308.09 213.23 304.39 208.54 299.83 208.54C299.231 208.551 298.637 208.638 298.06 208.8V187.01C298.637 187.172 299.231 187.259 299.83 187.27C304.39 187.27 308.05 182.64 308.09 176.86H379.09C379.17 182.57 382.83 187.15 387.31 187.26Z" fill="url(#paint8_linear)"/>
<path d="M401.73 152.56H300.02V205.69H401.73V152.56Z" fill="#1A237E"/>
<path d="M395.65 169.01V190.3C391.13 190.4 387.47 195.03 387.47 200.76C387.462 201.004 387.478 201.249 387.52 201.49H316.44C316.46 201.247 316.46 201.003 316.44 200.76C316.44 194.98 312.74 190.3 308.18 190.3C307.581 190.305 306.985 190.393 306.41 190.56V168.78C306.985 168.947 307.581 169.035 308.18 169.04C312.74 169.04 316.4 164.41 316.44 158.63H387.44C387.54 164.36 391.17 168.94 395.65 169.01Z" fill="url(#paint9_linear)"/>
<path d="M196.6 167.23C198.51 161.88 198.34 155.97 197.05 150.44C196.2 146.77 194.79 143.09 192.11 140.44C191.48 139.69 190.584 139.214 189.61 139.11C187.78 139.11 186.71 141.11 186.09 142.83C183.49 150.037 181.13 157.327 179.01 164.7C177.855 168.097 177.234 171.653 177.17 175.24C177.35 181.38 180.73 186.15 186.25 181.31C190.54 177.53 194.64 172.7 196.6 167.23Z" fill="#FEBA7B"/>
<path d="M255.75 164.31C252.53 165.47 249.75 168.49 249.88 171.92C249.99 174.72 252 177.18 254.42 178.59C256.929 179.864 259.633 180.712 262.42 181.1C259.998 181.474 257.701 182.421 255.718 183.861C253.736 185.301 252.125 187.193 251.02 189.38C249.45 192.53 249.2 196.73 251.65 199.27C252.543 200.142 253.605 200.823 254.77 201.27C256.762 202.105 258.883 202.589 261.04 202.7C256.21 202.47 251.47 206.48 251.22 211.3C250.97 216.12 255.65 220.69 260.44 220.03C256.8 219.44 253.09 222.22 252.18 225.79C251.808 227.601 251.953 229.481 252.599 231.214C253.244 232.947 254.364 234.463 255.83 235.59C257.321 236.676 259.016 237.45 260.814 237.866C262.611 238.282 264.473 238.331 266.29 238.01C268.12 237.73 270.05 237.01 271.03 235.46C272.01 233.91 271.77 231.91 271.56 230.09C269.2 209.72 277.3 189.33 272.22 169.25C271.55 166.63 266.99 164.55 264.42 163.81C261.541 163.148 258.534 163.322 255.75 164.31Z" fill="#FEBA7B"/>
<path d="M153.88 280.71C153.18 281.841 152.16 282.738 150.95 283.29C129.26 296.2 67.4201 324.69 48.1701 340.98C41.2901 346.84 34.3901 352.98 26.4001 357.06C24.2509 354.661 22.3262 352.07 20.6501 349.32C20.6501 349.32 20.5801 349.21 20.5401 349.18C16.4516 342.437 12.7133 335.488 9.34009 328.36C31.4601 330.8 149.8 263.83 149.8 263.83C150.629 263.749 151.466 263.796 152.28 263.97C153.12 268.26 153.74 272.62 154.2 276.97C154.45 278.222 154.339 279.519 153.88 280.71Z" fill="url(#paint10_linear)"/>
<path d="M323.29 441.54L319.29 444.96C313.35 450.132 306.757 454.503 299.68 457.96C288.91 430.41 282.21 378.33 282.21 378.33L287.97 376.62C290.396 376.088 292.85 375.694 295.32 375.44C299.65 385.03 303.94 394.62 307.39 404.6C309.45 410.6 311.23 416.66 313.53 422.6C315.83 428.54 319.15 433.21 322.36 438.6C322.885 439.499 323.202 440.503 323.29 441.54Z" fill="url(#paint11_linear)"/>
<path d="M263.75 306.77C263.843 307.637 263.607 308.508 263.09 309.21C261.94 310.39 259.99 309.52 258.63 308.58C255.45 306.45 252.07 303.97 251.3 300.24C251.069 298.439 251.154 296.612 251.55 294.84C252 291.84 252.28 288.73 252.45 285.63C252.448 285.087 252.378 284.546 252.24 284.02C253.81 279.38 253.12 274.36 251.41 269.55C255.21 276.94 259.46 288.07 260.27 290.09C262.441 295.39 263.621 301.044 263.75 306.77Z" fill="url(#paint12_linear)"/>
<path d="M217.91 202.48H229.5L227.37 199.39H230.01L234.18 204.49H218.16L217.91 202.48Z" fill="#1A237E"/>
<path d="M234.18 208.13H222.6L224.73 211.22H222.09L217.91 206.12H233.93L234.18 208.13Z" fill="#1A237E"/>
<path d="M224.83 181.51V178.01C222.941 178.008 221.09 177.475 219.49 176.47L220.33 174.14C221.82 175.105 223.555 175.625 225.33 175.64C227.81 175.64 229.49 174.2 229.49 172.22C229.49 170.24 228.13 169.11 225.49 168.06C221.93 166.66 219.73 165.06 219.73 162.06C219.73 159.06 221.79 156.96 225 156.44V152.91H227.17V156.3C228.762 156.314 230.325 156.734 231.71 157.52L230.83 159.83C229.504 159.037 227.985 158.625 226.44 158.64C223.75 158.64 222.74 160.25 222.74 161.64C222.74 163.46 224.03 164.36 227.06 165.64C230.66 167.11 232.48 168.92 232.48 172.03C232.48 174.79 230.56 177.37 226.96 177.96V181.59L224.83 181.51Z" fill="#1A237E"/>
<path d="M350.14 192.6V189.08C348.252 189.07 346.403 188.537 344.8 187.54L345.63 185.2C347.12 186.166 348.855 186.686 350.63 186.7C353.11 186.7 354.79 185.27 354.79 183.28C354.79 181.29 353.43 180.17 350.84 179.13C347.28 177.73 345.08 176.13 345.08 173.13C345.08 170.13 347.14 168.03 350.35 167.5V163.98H352.54V167.37C354.134 167.376 355.698 167.797 357.08 168.59L356.2 170.89C354.874 170.097 353.355 169.685 351.81 169.7C349.12 169.7 348.1 171.31 348.1 172.7C348.1 174.51 349.4 175.42 352.43 176.7C356.03 178.16 357.85 179.98 357.85 183.09C357.85 185.84 355.93 188.43 352.33 189.02V192.65L350.14 192.6Z" fill="#1A237E"/>
<path opacity="0.48" d="M300.04 152.58H267.24V190.76H300.04V152.58Z" fill="url(#paint13_linear)"/>
<path opacity="0.48" d="M300.04 180.55H267.24V206.39H300.04V180.55Z" fill="url(#paint14_linear)"/>
</g>
<defs>
<linearGradient id="paint0_linear" x1="273.08" y1="191.15" x2="280.99" y2="548.41" gradientUnits="userSpaceOnUse">
<stop stop-color="#010101" stop-opacity="0"/>
<stop offset="0.95" stop-color="#010101"/>
</linearGradient>
<linearGradient id="paint1_linear" x1="272.15" y1="189.13" x2="574.03" y2="189.13" gradientUnits="userSpaceOnUse">
<stop stop-color="white" stop-opacity="0"/>
<stop offset="0.14" stop-color="white" stop-opacity="0.22"/>
<stop offset="0.3" stop-color="white" stop-opacity="0.45"/>
<stop offset="0.45" stop-color="white" stop-opacity="0.65"/>
<stop offset="0.6" stop-color="white" stop-opacity="0.8"/>
<stop offset="0.73" stop-color="white" stop-opacity="0.91"/>
<stop offset="0.85" stop-color="white" stop-opacity="0.98"/>
<stop offset="0.94" stop-color="white"/>
</linearGradient>
<linearGradient id="paint2_linear" x1="8924.16" y1="1363.17" x2="10000" y2="1363.17" gradientUnits="userSpaceOnUse">
<stop stop-color="white" stop-opacity="0"/>
<stop offset="0.14" stop-color="white" stop-opacity="0.22"/>
<stop offset="0.3" stop-color="white" stop-opacity="0.45"/>
<stop offset="0.45" stop-color="white" stop-opacity="0.65"/>
<stop offset="0.6" stop-color="white" stop-opacity="0.8"/>
<stop offset="0.73" stop-color="white" stop-opacity="0.91"/>
<stop offset="0.85" stop-color="white" stop-opacity="0.98"/>
<stop offset="0.94" stop-color="white"/>
</linearGradient>
<linearGradient id="paint3_linear" x1="8924.16" y1="5231.69" x2="10000" y2="5231.69" gradientUnits="userSpaceOnUse">
<stop stop-color="white" stop-opacity="0"/>
<stop offset="0.14" stop-color="white" stop-opacity="0.22"/>
<stop offset="0.3" stop-color="white" stop-opacity="0.45"/>
<stop offset="0.45" stop-color="white" stop-opacity="0.65"/>
<stop offset="0.6" stop-color="white" stop-opacity="0.8"/>
<stop offset="0.73" stop-color="white" stop-opacity="0.91"/>
<stop offset="0.85" stop-color="white" stop-opacity="0.98"/>
<stop offset="0.94" stop-color="white"/>
</linearGradient>
<linearGradient id="paint4_linear" x1="10889.4" y1="21062.6" x2="16562.4" y2="19338.1" gradientUnits="userSpaceOnUse">
<stop stop-color="#010101" stop-opacity="0"/>
<stop offset="0.95" stop-color="#010101"/>
</linearGradient>
<linearGradient id="paint5_linear" x1="11162.2" y1="3668.07" x2="11169.5" y2="4261.08" gradientUnits="userSpaceOnUse">
<stop stop-color="#010101" stop-opacity="0"/>
<stop offset="0.95" stop-color="#010101"/>
</linearGradient>
<linearGradient id="paint6_linear" x1="9156.61" y1="21869.8" x2="13921.8" y2="22201.8" gradientUnits="userSpaceOnUse">
<stop stop-color="#010101" stop-opacity="0"/>
<stop offset="0.95" stop-color="#010101"/>
</linearGradient>
<linearGradient id="paint7_linear" x1="20574.8" y1="8178.5" x2="21687.9" y2="11582.5" gradientUnits="userSpaceOnUse">
<stop stop-color="#010101" stop-opacity="0"/>
<stop offset="0.95" stop-color="#010101"/>
</linearGradient>
<linearGradient id="paint8_linear" x1="36473.8" y1="6754.83" x2="36325.3" y2="14217.6" gradientUnits="userSpaceOnUse">
<stop stop-color="#010101" stop-opacity="0"/>
<stop offset="0.95" stop-color="#010101"/>
</linearGradient>
<linearGradient id="paint9_linear" x1="37223.2" y1="5954.59" x2="37074.8" y2="13415.2" gradientUnits="userSpaceOnUse">
<stop stop-color="#010101" stop-opacity="0"/>
<stop offset="0.95" stop-color="#010101"/>
</linearGradient>
<linearGradient id="paint10_linear" x1="18911.8" y1="26145.9" x2="22674.8" y2="40446.2" gradientUnits="userSpaceOnUse">
<stop stop-color="#010101" stop-opacity="0"/>
<stop offset="0.95" stop-color="#010101"/>
</linearGradient>
<linearGradient id="paint11_linear" x1="16112.8" y1="33821.6" x2="10940.5" y2="35422.3" gradientUnits="userSpaceOnUse">
<stop stop-color="#010101" stop-opacity="0"/>
<stop offset="0.95" stop-color="#010101"/>
</linearGradient>
<linearGradient id="paint12_linear" x1="4134.98" y1="13525.9" x2="6794.45" y2="10709.8" gradientUnits="userSpaceOnUse">
<stop stop-color="#010101" stop-opacity="0"/>
<stop offset="0.95" stop-color="#010101"/>
</linearGradient>
<linearGradient id="paint13_linear" x1="9200.65" y1="6706.94" x2="10276.5" y2="6706.94" gradientUnits="userSpaceOnUse">
<stop stop-color="white" stop-opacity="0"/>
<stop offset="0.14" stop-color="white" stop-opacity="0.22"/>
<stop offset="0.3" stop-color="white" stop-opacity="0.45"/>
<stop offset="0.45" stop-color="white" stop-opacity="0.65"/>
<stop offset="0.6" stop-color="white" stop-opacity="0.8"/>
<stop offset="0.73" stop-color="white" stop-opacity="0.91"/>
<stop offset="0.85" stop-color="white" stop-opacity="0.98"/>
<stop offset="0.94" stop-color="white"/>
</linearGradient>
<linearGradient id="paint14_linear" x1="9200.65" y1="5179.81" x2="10276.5" y2="5179.81" gradientUnits="userSpaceOnUse">
<stop stop-color="white" stop-opacity="0"/>
<stop offset="0.14" stop-color="white" stop-opacity="0.22"/>
<stop offset="0.3" stop-color="white" stop-opacity="0.45"/>
<stop offset="0.45" stop-color="white" stop-opacity="0.65"/>
<stop offset="0.6" stop-color="white" stop-opacity="0.8"/>
<stop offset="0.73" stop-color="white" stop-opacity="0.91"/>
<stop offset="0.85" stop-color="white" stop-opacity="0.98"/>
<stop offset="0.94" stop-color="white"/>
</linearGradient>
<clipPath id="clip0">
<rect width="438.83" height="471.03" fill="white"/>
</clipPath>
</defs>
</svg>
