<svg width="676" height="597" viewBox="0 0 676 597" fill="none" xmlns="http://www.w3.org/2000/svg">
<g clip-path="url(#clip0)">
<path opacity="0.18" d="M87.2201 273.91C71.8301 300.46 56.2201 327.56 49.7301 357.56C43.2401 387.56 47.3001 421.47 67.6701 444.42C79.1401 457.34 94.6701 465.77 109.93 473.93C181.14 512.13 254.52 551.03 334.79 560.4C379.572 565.592 424.945 561.368 468 548C515.13 533.31 561.61 504.42 579.69 458.49C588.33 436.49 589.78 412.49 594.35 389.36C605.71 331.78 636.27 270.78 610.68 217.96C582.68 160.06 505.88 149.96 441.59 147.6C360.87 144.6 277.85 141.21 198.06 156.82C134.33 169.26 118.21 220.51 87.2201 273.91Z" fill="#1A237E"/>
<path opacity="0.56" d="M540.56 504.14C548.62 503.09 553.48 489.65 471.24 492.97C431.24 489.7 391.16 489.67 351.07 489.65C250.25 489.58 113.07 496.32 12.26 496.26C6.25999 496.26 -2.43001 500.26 0.62999 505.48C1.80999 507.48 4.32999 508.2 6.62999 508.72C127.9 536.43 290.69 520.93 414.14 536.25C439.59 537.55 449.43 547.4 411.22 571.66C420.59 597.11 452.42 597.08 462.84 596.99L643.29 595.52C651.29 595.45 659.74 595.28 666.7 591.29C673.66 587.3 678.33 578.12 674.58 571.02C671.23 564.68 663.15 562.79 656.02 562.02C623.62 558.66 590.91 565.02 558.41 563.02C529.72 561.18 506.47 550.74 480.15 540.76C467.13 535.83 459.28 514.68 540.56 504.14Z" fill="url(#paint0_linear)"/>
<path d="M620.22 20.48V362C620.222 364.687 619.696 367.348 618.67 369.831C617.644 372.315 616.139 374.572 614.241 376.473C612.343 378.375 610.089 379.884 607.608 380.915C605.127 381.946 602.467 382.477 599.78 382.48H26.6099C23.927 382.487 21.269 381.965 18.7878 380.944C16.3066 379.923 14.0508 378.424 12.149 376.532C10.2473 374.639 8.73691 372.391 7.70414 369.914C6.67137 367.438 6.13644 364.783 6.12988 362.1V20.48C6.13253 15.0492 8.29109 9.84155 12.1313 6.00138C15.9714 2.16121 21.1791 0.00264983 26.6099 0L599.74 0C605.172 0 610.381 2.15771 614.221 5.99845C618.062 9.8392 620.22 15.0484 620.22 20.48Z" fill="#1A237E"/>
<path d="M428 368.73C428 368.73 429.08 372.03 428 374.49C427.001 377.11 426.14 379.78 425.42 382.49L396.09 381.66C396.09 381.66 395.27 374.16 400.54 370.88C405.81 367.6 416.79 365.74 418.16 363.74L428 368.73Z" fill="#25233A"/>
<path opacity="0.19" d="M620.22 225.87V362C620.223 364.687 619.696 367.348 618.67 369.831C617.645 372.315 616.14 374.572 614.242 376.473C612.344 378.375 610.09 379.884 607.608 380.915C605.127 381.946 602.467 382.477 599.78 382.48H455.58V247.16C455.579 241.876 457.535 236.778 461.072 232.852C464.608 228.926 469.474 226.449 474.73 225.9C473.73 224.75 472.82 223.57 471.94 222.34C466.07 214.27 455.83 195.51 458.94 185.14C459.82 182.22 462.4 179.64 465.44 179.61C469.2 179.61 471.9 183.09 473.95 186.25L482.71 199.71C484.71 202.82 486.84 206.01 489.97 208.01C496.06 211.91 504.48 210.01 510.14 205.55C515.8 201.09 519.33 194.46 522.71 188.06L530.32 173.63C531.096 171.894 532.212 170.33 533.6 169.03C534.693 168.33 535.739 167.558 536.73 166.72C537.97 165.38 538.3 163.47 538.58 161.66L541.82 140.91C542.56 136.22 543.34 131.38 545.82 127.35C548.3 123.32 552.99 120.23 557.66 121.08C561.95 121.85 565.13 125.73 566.4 129.91C567.67 134.09 567.4 138.54 567.03 142.91L565.38 165.48L569.78 165.06C571.9 170.67 568.67 176.79 568.4 182.79C568.07 189.79 571.6 197.59 567.52 203.26C564.77 207.08 559.07 208.84 558.1 213.45C557.37 216.93 559.81 220.67 558.54 224C558.282 224.66 557.909 225.269 557.44 225.8H618.35C618.974 225.783 619.599 225.807 620.22 225.87Z" fill="url(#paint1_linear)"/>
<path opacity="0.18" d="M596.77 318H172.06C170.693 318 169.382 317.458 168.415 316.492C167.447 315.527 166.903 314.217 166.9 312.85C166.9 311.481 167.444 310.169 168.411 309.201C169.379 308.234 170.691 307.69 172.06 307.69H596.77C598.138 307.69 599.451 308.234 600.419 309.201C601.386 310.169 601.93 311.481 601.93 312.85C601.927 314.217 601.382 315.527 600.415 316.492C599.448 317.458 598.137 318 596.77 318Z" fill="white"/>
<path d="M642 563.58H500.53C496.41 563.58 497.97 578.68 494.7 576.65C494.03 576.23 484.7 566.05 484.05 565.56C479.05 561.65 479.17 549.04 479.17 542.21V303.05C479.169 300.245 479.72 297.467 480.792 294.875C481.865 292.283 483.437 289.928 485.419 287.943C487.402 285.959 489.756 284.384 492.347 283.31C494.938 282.235 497.715 281.681 500.52 281.68H642C656.72 282.24 660.94 292.49 661.13 293.52C661.32 294.55 670.57 311.04 670.57 312.14L663.36 542.21C663.361 545.016 662.81 547.794 661.737 550.387C660.664 552.98 659.091 555.336 657.108 557.32C655.124 559.305 652.769 560.879 650.177 561.953C647.584 563.027 644.806 563.58 642 563.58Z" fill="#25233A"/>
<path d="M653.29 303.39H511.87C500.068 303.39 490.5 312.958 490.5 324.76V563.92C490.5 575.722 500.068 585.29 511.87 585.29H653.29C665.092 585.29 674.66 575.722 674.66 563.92V324.76C674.66 312.958 665.092 303.39 653.29 303.39Z" fill="#1A237E"/>
<path d="M650.04 335.01H519.87C510.161 335.01 502.29 342.881 502.29 352.59V529.82C502.29 539.529 510.161 547.4 519.87 547.4H650.04C659.749 547.4 667.62 539.529 667.62 529.82V352.59C667.62 342.881 659.749 335.01 650.04 335.01Z" fill="url(#paint2_linear)"/>
<path d="M493.84 405.81C493.84 405.81 496.36 408.19 496.59 410.87C496.966 413.641 497.484 416.391 498.14 419.11L472 432.42C472 432.42 467.69 426.22 470.75 420.82C473.81 415.42 482.55 408.54 482.75 406.12L493.84 405.81Z" fill="#25233A"/>
<path d="M481.45 398.57L483.22 408.42L493.66 407.24L491.95 397.08L481.45 398.57Z" fill="url(#paint3_linear)"/>
<path d="M620.22 20.48V32.48H6.12988V20.48C6.13253 15.0492 8.29109 9.84155 12.1313 6.00138C15.9714 2.16121 21.1791 0.00264983 26.6099 0L599.74 0C605.172 0 610.381 2.15771 614.221 5.99845C618.062 9.8392 620.22 15.0484 620.22 20.48Z" fill="url(#paint4_linear)"/>
<path opacity="0.57" d="M464.5 59.64H167.91V290.74H464.5V59.64Z" fill="white"/>
<path d="M348.81 209.55C348.85 213.636 348.461 217.715 347.65 221.72C346.01 228.5 342 234.45 338.06 240.22C336.199 237.637 333.728 235.554 330.866 234.158C328.004 232.762 324.842 232.096 321.66 232.22C312.36 231.84 303.14 233.32 293.95 235.13C279.74 237.91 265.59 241.47 251.27 240.18C244.02 239.52 236.9 237.63 229.62 237.37C215.48 236.84 201.95 242.45 188.46 246.72C186.34 247.39 183.34 247.64 182.57 245.55C182.33 244.623 182.4 243.643 182.77 242.76C185.128 235.109 186.844 227.276 187.9 219.34C189.46 205.86 188.1 192.23 186.72 178.73C185.23 164 183.72 149.26 181.63 134.6C179.46 119.44 176.69 103.67 181.28 89.0599C182.392 85.0573 184.45 81.3806 187.28 78.3399C189.671 76.1193 192.398 74.2901 195.36 72.9199C201.008 69.9308 206.999 67.6406 213.2 66.0999C218.63 64.9707 224.134 64.2387 229.67 63.9099L258.15 61.52C265.51 60.9 272.99 60.29 280.23 61.72C288.061 63.3083 295.239 67.2017 300.84 72.9C301.74 73.81 302.71 74.84 303.98 74.97C305.041 74.9769 306.081 74.6821 306.98 74.12C315.49 70.04 324.71 70.12 333.58 72.87C341.9 75.45 343.9 81.54 344.21 90C344.43 95.2799 344.537 100.557 344.53 105.83C344.531 122.296 343.529 138.746 341.53 155.09C340.36 164.59 338.9 174.52 342.25 183.49C343.83 187.69 346.41 191.49 347.7 195.78C348.99 200.07 348.9 204.93 348.81 209.55Z" fill="#3F3D56"/>
<path d="M348.81 209.55C348.85 213.636 348.461 217.715 347.65 221.72C346.01 228.5 342 234.45 338.06 240.22C336.199 237.637 333.727 235.554 330.866 234.158C328.004 232.762 324.842 232.097 321.66 232.22C312.36 231.84 303.14 233.32 293.95 235.13L259.77 224.4L267.23 168.58L298.79 96.0001C298.79 96.0001 332.29 79.2301 340.1 92.3601C341.59 94.8601 343.1 99.6901 344.53 105.88C344.531 122.346 343.529 138.796 341.53 155.14C340.36 164.64 338.9 174.57 342.25 183.54C343.83 187.74 346.41 191.54 347.7 195.83C348.99 200.12 348.9 204.93 348.81 209.55Z" fill="#25233A"/>
<path opacity="0.57" d="M152.24 59.64H22.6899V182.53H152.24V59.64Z" fill="white"/>
<path opacity="0.57" d="M152.24 196.75H22.6899V319.64H152.24V196.75Z" fill="white"/>
<path opacity="0.18" d="M606.11 87.3H499.39C498.023 87.2974 496.714 86.7525 495.748 85.7851C494.783 84.8177 494.24 83.5068 494.24 82.14C494.246 80.7767 494.79 79.4709 495.755 78.5078C496.72 77.5447 498.027 77.0026 499.39 77H606.11C607.477 77 608.788 77.5423 609.755 78.5078C610.723 79.4733 611.268 80.7832 611.27 82.15C611.268 83.5168 610.723 84.8267 609.755 85.7922C608.788 86.7577 607.477 87.3 606.11 87.3Z" fill="white"/>
<path opacity="0.18" d="M606.11 115H499.39C498.023 114.997 496.714 114.452 495.748 113.485C494.783 112.518 494.24 111.207 494.24 109.84C494.246 108.476 494.79 107.169 495.754 106.204C496.719 105.239 498.026 104.695 499.39 104.69H606.11C607.477 104.69 608.788 105.232 609.755 106.198C610.723 107.163 611.268 108.473 611.27 109.84C611.27 111.208 610.727 112.521 609.759 113.489C608.791 114.456 607.479 115 606.11 115Z" fill="white"/>
<path opacity="0.18" d="M606.11 142.64H499.39C498.023 142.637 496.714 142.092 495.748 141.125C494.783 140.158 494.24 138.847 494.24 137.48C494.246 136.116 494.79 134.809 495.754 133.844C496.719 132.88 498.026 132.335 499.39 132.33H606.11C607.477 132.33 608.788 132.872 609.755 133.838C610.723 134.803 611.268 136.113 611.27 137.48C611.27 138.848 610.727 140.161 609.759 141.129C608.791 142.096 607.479 142.64 606.11 142.64Z" fill="white"/>
<path opacity="0.18" d="M606.11 170.31H499.39C498.023 170.307 496.714 169.763 495.748 168.795C494.783 167.828 494.24 166.517 494.24 165.15C494.246 163.786 494.79 162.479 495.754 161.514C496.719 160.55 498.026 160.005 499.39 160H606.11C607.477 160 608.788 160.542 609.755 161.508C610.723 162.473 611.268 163.783 611.27 165.15C611.27 166.519 610.727 167.831 609.759 168.799C608.791 169.766 607.479 170.31 606.11 170.31Z" fill="white"/>
<path opacity="0.18" d="M606.11 198H499.39C498.023 197.997 496.714 197.452 495.748 196.485C494.783 195.518 494.24 194.207 494.24 192.84C494.246 191.476 494.79 190.169 495.754 189.204C496.719 188.239 498.026 187.695 499.39 187.69H606.11C607.477 187.69 608.788 188.232 609.755 189.198C610.723 190.163 611.268 191.473 611.27 192.84C611.27 194.208 610.727 195.521 609.759 196.489C608.791 197.456 607.479 198 606.11 198Z" fill="white"/>
<path opacity="0.18" d="M606.11 225.65H499.39C498.023 225.647 496.714 225.103 495.748 224.135C494.783 223.168 494.24 221.857 494.24 220.49C494.246 219.126 494.79 217.819 495.754 216.854C496.719 215.89 498.026 215.345 499.39 215.34H606.11C607.477 215.34 608.788 215.882 609.755 216.848C610.723 217.813 611.268 219.123 611.27 220.49C611.27 221.858 610.727 223.171 609.759 224.139C608.791 225.106 607.479 225.65 606.11 225.65Z" fill="white"/>
<path d="M518.12 241.62C518.12 241.62 470.51 243.5 462.79 251.44C455.07 259.38 420.59 356.44 420.59 356.44L437.48 362.77C437.48 362.77 472.58 293.96 475.43 290.77C478.28 287.58 516.19 288.6 528.88 283.85C541.57 279.1 555.27 265 555.27 265L518.12 241.62Z" fill="#25233A"/>
<path d="M547.11 179.06L518.11 241.62C518.11 241.62 530.36 267.62 555.26 264.95L563.7 263.11L580.9 220.49L594.61 187.67C594.61 187.67 594.84 175.38 585.46 174.79C576.08 174.2 561.9 163.59 547.11 179.06Z" fill="#1A237E"/>
<path d="M547.11 179.06L518.11 241.62C518.11 241.62 530.36 267.62 555.26 264.95L563.7 263.11L580.9 220.49L594.61 187.67C594.61 187.67 594.84 175.38 585.46 174.79C576.08 174.2 561.9 163.59 547.11 179.06Z" fill="url(#paint5_linear)"/>
<path d="M478.51 295.16L526.43 253.35L563.71 263.11C563.71 263.11 557.16 297.76 544.91 304.11C532.66 310.46 502.29 322 502.29 322L494.8 399.77L481.55 400.42C481.55 400.42 469.13 313.35 471.24 307.68C473.35 302.01 478.51 295.16 478.51 295.16Z" fill="#3F3D56"/>
<path d="M420.6 356.44L417.44 365.94L427.17 369.9L433.42 361.25L420.6 356.44Z" fill="url(#paint6_linear)"/>
<path d="M589.68 176.11C589.68 176.11 596.19 179.59 599.24 191.23C602.29 202.87 606.11 225.65 606.11 225.65L585.53 236L580.9 201C580.9 201 580.34 181.91 589.68 176.11Z" fill="#1A237E"/>
<path d="M589.68 176.11C589.68 176.11 596.19 179.59 599.24 191.23C602.29 202.87 606.11 225.65 606.11 225.65L585.53 236L580.9 201C580.9 201 580.34 181.91 589.68 176.11Z" fill="url(#paint7_linear)"/>
<path d="M601.9 298.43L585.53 236L602.08 227.67C602.08 227.67 613.95 296.18 614.68 296.88C615.41 297.58 623.3 301.21 632.3 304.12C642.38 307.37 633.83 308.37 625.21 308.61C616.59 308.85 604.61 310.29 601.9 298.43Z" fill="url(#paint8_linear)"/>
<path d="M561.42 129.86C561.42 129.86 554.58 146.03 552.84 146.55C551.1 147.07 554.71 149.92 554.71 149.92C554.71 149.92 554.57 154.25 554.71 155.92C554.85 157.59 557.18 158.92 561.07 159.4C564.96 159.88 560.07 172.61 560.07 172.61C560.07 172.61 557.97 177.61 572.39 173.91L576.32 173.44C576.32 173.44 586.9 141.16 586.8 137.44C586.7 133.72 568.9 117.69 561.42 129.86Z" fill="url(#paint9_linear)"/>
<path d="M553.41 114.14C552.776 115.134 552.416 116.278 552.365 117.456C552.314 118.634 552.575 119.805 553.12 120.85C553.84 121.813 554.508 122.815 555.12 123.85C555.347 124.592 555.642 125.312 556 126C556.78 127.22 558.28 127.41 559.61 127.5L567 128C568.911 127.96 570.8 128.418 572.48 129.33C575.93 131.57 576.61 137.04 575.64 141.42C575.21 143.34 574.73 145.83 576.19 146.91C576.29 146.01 576.602 145.146 577.1 144.39C577.315 144.059 577.652 143.826 578.038 143.742C578.423 143.658 578.827 143.729 579.16 143.94L579.26 144.01C579.541 144.322 579.728 144.707 579.8 145.12C580.04 146.169 579.947 147.267 579.535 148.262C579.123 149.256 578.412 150.098 577.5 150.67C576.95 150.96 576.29 151.17 575.99 151.78C575.42 152.93 576.62 154.11 577.44 155.05C578.128 155.883 578.615 156.862 578.865 157.913C579.114 158.963 579.12 160.057 578.88 161.11C582.26 159.28 582.88 154.22 584.56 150.44C586.24 146.66 589.74 143.44 590.17 139.04C590.293 137.827 590.161 136.601 589.782 135.442C589.403 134.283 588.786 133.216 587.97 132.31C587.401 131.858 586.977 131.25 586.75 130.56C586.743 129.737 586.888 128.92 587.18 128.15C587.66 125.63 585.5 123.54 583.52 122.29C582.841 121.95 582.278 121.418 581.9 120.76C580.19 117.1 580.45 115.59 576.34 114.46C573.964 113.739 571.46 113.541 569 113.88C565.48 114.43 564.16 114.88 560.9 113.13C558.26 111.74 555.41 111.19 553.41 114.14Z" fill="#3F3D56"/>
<path d="M560 172.59C560 172.59 546.08 174.25 534.52 187.67C522.96 201.09 521.08 199.83 521.08 199.83L531.69 212.3C531.69 212.3 546.12 178.48 560 172.59Z" fill="#1A237E"/>
<path d="M560 172.59C560 172.59 546.08 174.25 534.52 187.67C522.96 201.09 521.08 199.83 521.08 199.83L531.69 212.3C531.69 212.3 546.12 178.48 560 172.59Z" fill="url(#paint10_linear)"/>
<path d="M531.71 212.3L525.21 227.68C525.21 227.68 513.33 235.84 499.39 225.68C485.45 215.52 478.51 178 478.51 178C478.51 178 471.36 170.93 464.51 168.68C457.66 166.43 471.25 162.79 478.51 165.39C485.77 167.99 487.02 167.22 487.02 167.22C487.02 167.22 490.44 163.78 492.34 164.49C494.24 165.2 488.9 174.79 488.9 174.79C488.9 174.79 498.64 210.69 506.06 212.3C513.48 213.91 518.45 213.81 521.93 209.3L525.4 204.81L531.71 212.3Z" fill="url(#paint11_linear)"/>
<path d="M596.19 556.89H567.93C563.854 556.89 560.55 560.194 560.55 564.27V564.28C560.55 568.356 563.854 571.66 567.93 571.66H596.19C600.266 571.66 603.57 568.356 603.57 564.28V564.27C603.57 560.194 600.266 556.89 596.19 556.89Z" fill="#1A237E"/>
<path d="M596.19 556.89H567.93C563.854 556.89 560.55 560.194 560.55 564.27V564.28C560.55 568.356 563.854 571.66 567.93 571.66H596.19C600.266 571.66 603.57 568.356 603.57 564.28V564.27C603.57 560.194 600.266 556.89 596.19 556.89Z" fill="url(#paint12_linear)"/>
<path d="M52.4599 0C49.2999 0 22.6899 0.929998 22.6899 32.46V382.1C18.0283 381.187 13.8285 378.684 10.808 375.017C7.78758 371.351 6.13401 366.75 6.12988 362V20.48C6.13253 15.0492 8.29109 9.84155 12.1313 6.00138C15.9714 2.16121 21.1791 0.00264983 26.6099 0L52.4599 0Z" fill="url(#paint13_linear)"/>
<path d="M187.9 231.05L167.9 241.62V290.74H387.9C387.9 290.74 367.6 233.26 285.62 227.68C230.9 224 237.53 223.58 216.9 223.74C206.787 223.814 196.84 226.321 187.9 231.05Z" fill="#1A237E"/>
<path d="M175.53 290.74C175.53 290.74 181.06 248.87 225.42 242.64C269.78 236.41 323.07 249.26 330.71 253.35C369.79 274.23 368.55 290.74 368.55 290.74H175.53Z" fill="url(#paint14_linear)"/>
<path d="M301.5 212.29C291.82 212.29 285.25 212.13 280.77 212.38C272.77 212.83 271.44 214.54 271 220.49C270.42 228.29 280.61 250.34 277.32 258.66C277.059 259.431 276.6 260.12 275.989 260.659C275.379 261.198 274.638 261.567 273.84 261.73C273.84 261.73 235.08 261.73 208.27 224.4C208.27 224.4 227.16 205.64 225.41 179.05C223.66 152.46 214.12 108.85 223.62 104.16C233.12 99.47 316.4 81 328.9 114.48C341.4 147.96 328.61 212.37 301.5 212.29Z" fill="url(#paint15_linear)"/>
<path d="M258.55 117.64C255.05 126.64 255.48 136.86 254.79 146.64C254.1 156.42 251.65 167.12 244.53 172.64C242.93 173.88 241.09 174.84 239.86 176.55C236.72 180.9 238.86 187.43 238.1 193.01C236.67 203.53 225.77 208.13 220.19 216.63C216.78 221.83 215.43 228.49 212.14 233.79C208.85 239.09 202.01 242.73 197.57 238.67C195.29 236.58 194.39 233.11 193.67 229.86C184.719 189.579 182.041 148.158 185.73 107.06C187.07 92.22 190.46 75.39 201.94 68.41C206.47 65.66 211.68 64.88 216.77 64.14C246.12 59.9 278.12 56.26 303.29 74.14C305.61 75.78 307.93 77.72 309.07 80.55C314.98 95.24 291.65 94.39 285.59 95.92C274.52 98.65 263.39 105.22 258.55 117.64Z" fill="#3F3D56"/>
<path d="M277.32 258.66C276.327 258.97 275.263 258.97 274.27 258.66C272.2 258.05 270.76 256.25 269.48 254.52C262.97 245.8 256.88 236.2 255.61 225.39C255.12 221.23 255.53 216.58 258.45 213.57C260.8 211.16 264.3 210.29 267.65 209.91C270.83 209.55 270.17 210.18 277.16 210.55C278.43 210.62 290.52 211.42 291.66 212.19C273.54 212.44 271.44 214.49 271 220.44C270.42 228.29 280.61 250.34 277.32 258.66Z" fill="url(#paint16_linear)"/>
<path d="M368.55 290.74C368.55 290.74 382.74 263.6 391.55 261.74C400.36 259.88 403.21 252.88 409.31 251.45C415.41 250.02 416.1 254.59 417.39 264.96C418.68 275.33 409.46 290.75 409.46 290.75L368.55 290.74Z" fill="url(#paint17_linear)"/>
<path d="M648.67 356.44H520.7C514.851 356.44 510.11 361.181 510.11 367.03V395.22C510.11 401.069 514.851 405.81 520.7 405.81H648.67C654.519 405.81 659.26 401.069 659.26 395.22V367.03C659.26 361.181 654.519 356.44 648.67 356.44Z" fill="#1A237E"/>
<path d="M645.16 417.22H544.88C543.052 417.22 541.57 418.702 541.57 420.53V421.73C541.57 423.558 543.052 425.04 544.88 425.04H645.16C646.988 425.04 648.47 423.558 648.47 421.73V420.53C648.47 418.702 646.988 417.22 645.16 417.22Z" fill="#1A237E"/>
<path d="M645.16 450.14H544.88C543.052 450.14 541.57 451.622 541.57 453.45V454.65C541.57 456.478 543.052 457.96 544.88 457.96H645.16C646.988 457.96 648.47 456.478 648.47 454.65V453.45C648.47 451.622 646.988 450.14 645.16 450.14Z" fill="#1A237E"/>
<path d="M645.16 483.06H544.88C543.052 483.06 541.57 484.542 541.57 486.37V487.57C541.57 489.398 543.052 490.88 544.88 490.88H645.16C646.988 490.88 648.47 489.398 648.47 487.57V486.37C648.47 484.542 646.988 483.06 645.16 483.06Z" fill="#1A237E"/>
<path d="M645.16 514.68H544.88C543.052 514.68 541.57 516.162 541.57 517.99V519.19C541.57 521.018 543.052 522.5 544.88 522.5H645.16C646.988 522.5 648.47 521.018 648.47 519.19V517.99C648.47 516.162 646.988 514.68 645.16 514.68Z" fill="#1A237E"/>
</g>
<defs>
<linearGradient id="paint0_linear" x1="349.76" y1="784.27" x2="332.87" y2="434.58" gradientUnits="userSpaceOnUse">
<stop offset="0.01"/>
<stop offset="0.97" stop-opacity="0"/>
</linearGradient>
<linearGradient id="paint1_linear" x1="455.58" y1="251.71" x2="620.22" y2="251.71" gradientUnits="userSpaceOnUse">
<stop stop-color="#183866"/>
<stop offset="1" stop-color="#1A7FC1"/>
</linearGradient>
<linearGradient id="paint2_linear" x1="583.41" y1="228.49" x2="585.3" y2="489.16" gradientUnits="userSpaceOnUse">
<stop offset="0.02" stop-color="white" stop-opacity="0"/>
<stop offset="1" stop-color="white"/>
</linearGradient>
<linearGradient id="paint3_linear" x1="499.011" y1="399.608" x2="480.465" y2="402.047" gradientUnits="userSpaceOnUse">
<stop stop-color="#ECC4D7"/>
<stop offset="0.42" stop-color="#EFD4D1"/>
<stop offset="1" stop-color="#F2EAC9"/>
</linearGradient>
<linearGradient id="paint4_linear" x1="250354" y1="1161.03" x2="250358" y2="8814.3" gradientUnits="userSpaceOnUse">
<stop offset="0.01"/>
<stop offset="0.97" stop-opacity="0"/>
</linearGradient>
<linearGradient id="paint5_linear" x1="52380.4" y1="37911.2" x2="48784.2" y2="36066.4" gradientUnits="userSpaceOnUse">
<stop offset="0.01"/>
<stop offset="0.97" stop-opacity="0"/>
</linearGradient>
<linearGradient id="paint6_linear" x1="7443.85" y1="7444.2" x2="7113.53" y2="7292.71" gradientUnits="userSpaceOnUse">
<stop stop-color="#ECC4D7"/>
<stop offset="0.42" stop-color="#EFD4D1"/>
<stop offset="1" stop-color="#F2EAC9"/>
</linearGradient>
<linearGradient id="paint7_linear" x1="18369" y1="22464.3" x2="17513" y2="22479.3" gradientUnits="userSpaceOnUse">
<stop offset="0.01"/>
<stop offset="0.97" stop-opacity="0"/>
</linearGradient>
<linearGradient id="paint8_linear" x1="40818.9" y1="38179.9" x2="34329.3" y2="36593.4" gradientUnits="userSpaceOnUse">
<stop stop-color="#ECC4D7"/>
<stop offset="0.42" stop-color="#EFD4D1"/>
<stop offset="1" stop-color="#F2EAC9"/>
</linearGradient>
<linearGradient id="paint9_linear" x1="24485.5" y1="16611.7" x2="22616.3" y2="16113.5" gradientUnits="userSpaceOnUse">
<stop stop-color="#ECC4D7"/>
<stop offset="0.42" stop-color="#EFD4D1"/>
<stop offset="1" stop-color="#F2EAC9"/>
</linearGradient>
<linearGradient id="paint10_linear" x1="25688.7" y1="14526.1" x2="24766.2" y2="14110.1" gradientUnits="userSpaceOnUse">
<stop offset="0.01"/>
<stop offset="0.97" stop-opacity="0"/>
</linearGradient>
<linearGradient id="paint11_linear" x1="38961.3" y1="24397.2" x2="43732.3" y2="24397.2" gradientUnits="userSpaceOnUse">
<stop stop-color="#ECC4D7"/>
<stop offset="0.42" stop-color="#EFD4D1"/>
<stop offset="1" stop-color="#F2EAC9"/>
</linearGradient>
<linearGradient id="paint12_linear" x1="25607.7" y1="-680.106" x2="25606.2" y2="-297.524" gradientUnits="userSpaceOnUse">
<stop offset="0.01"/>
<stop offset="0.97" stop-opacity="0"/>
</linearGradient>
<linearGradient id="paint13_linear" x1="16371.1" y1="136801" x2="2509.35" y2="136820" gradientUnits="userSpaceOnUse">
<stop offset="0.01"/>
<stop offset="0.97" stop-opacity="0"/>
</linearGradient>
<linearGradient id="paint14_linear" x1="73150.7" y1="29427.2" x2="72928.1" y2="18716.6" gradientUnits="userSpaceOnUse">
<stop offset="0.01"/>
<stop offset="0.97" stop-opacity="0"/>
</linearGradient>
<linearGradient id="paint15_linear" x1="49184.7" y1="30904.1" x2="41275.7" y2="69259.2" gradientUnits="userSpaceOnUse">
<stop stop-color="#ECC4D7"/>
<stop offset="0.42" stop-color="#EFD4D1"/>
<stop offset="1" stop-color="#F2EAC9"/>
</linearGradient>
<linearGradient id="paint16_linear" x1="13115.1" y1="18361.1" x2="15661.7" y2="21385.4" gradientUnits="userSpaceOnUse">
<stop stop-color="#ECC4D7"/>
<stop offset="0.42" stop-color="#EFD4D1"/>
<stop offset="1" stop-color="#F2EAC9"/>
</linearGradient>
<linearGradient id="paint17_linear" x1="23023.5" y1="17524.2" x2="25420.7" y2="17524.2" gradientUnits="userSpaceOnUse">
<stop stop-color="#ECC4D7"/>
<stop offset="0.42" stop-color="#EFD4D1"/>
<stop offset="1" stop-color="#F2EAC9"/>
</linearGradient>
<clipPath id="clip0">
<rect width="675.91" height="597" fill="white"/>
</clipPath>
</defs>
</svg>
