<svg width="374" height="315" viewBox="0 0 374 315" fill="none" xmlns="http://www.w3.org/2000/svg">
<g clip-path="url(#clip0)">
<path opacity="0.24" d="M230.04 301.2C251.36 290.33 268.36 271.82 290.57 262.92C306.23 256.64 323.87 255.42 338.45 246.92C359.45 234.71 369.79 209.75 372.8 185.67C374.86 169.18 374.05 151.93 367.3 136.74C353.88 106.54 320.91 90.96 297.35 67.74C280.73 51.39 268.35 30.67 249.63 16.74C223.03 -2.95002 184.79 -5.55002 155.79 10.32C134.79 21.8 119.52 41.23 102.34 57.92C89.4207 70.4612 75.2156 81.6061 59.9601 91.17C46.5001 99.61 32.0501 106.95 20.9101 118.28C13.1781 126.258 7.33978 135.873 3.82754 146.413C0.315291 156.953 -0.780901 168.149 0.62014 179.17C2.62014 194.37 9.42014 208.51 12.8701 223.45C19.0301 250.18 15.9301 282.08 36.1101 300.65C60.9801 323.54 100.68 311.65 130.83 312.92C164.44 314.3 198.99 317.05 230.04 301.2Z" fill="#1A237E"/>
<path d="M50.0402 298.32L48.4302 312.44H131.08L129.21 299.12L50.0402 298.32Z" fill="#1A237E"/>
<path d="M50.0402 298.32L48.4302 312.44H131.08L129.21 299.12L50.0402 298.32Z" fill="url(#paint0_linear)"/>
<path d="M113.79 143.74L147.53 223.29L234.2 188.62C234.2 188.62 239.15 184.29 239.15 187.7V192.96C239.15 192.96 258.04 191.1 265.15 187.08C272.26 183.06 267.93 192.34 265.46 195.13C262.99 197.92 247.81 208.44 241.93 208.13C236.05 207.82 224.6 209.98 224.6 209.98C224.6 209.98 157.12 246.82 149.38 247.13C141.64 247.44 130.81 243.13 130.81 243.13L111.81 146.94L113.79 143.74Z" fill="url(#paint1_linear)"/>
<path d="M113.12 140.05C113.12 140.05 148.12 217.14 153.36 216.21C158.6 215.28 172.24 210.02 172.24 210.02C172.24 210.02 175.03 211.57 175.34 213.43C175.65 215.29 179.05 233.24 178.43 235.43C177.81 237.62 150.89 250.9 146.24 249.35C141.59 247.8 130.79 243.1 130.79 243.1L115.62 193.58L113.12 140.05Z" fill="#1A237E"/>
<path d="M113.12 140.05C113.12 140.05 148.12 217.14 153.36 216.21C158.6 215.28 172.24 210.02 172.24 210.02C172.24 210.02 175.03 211.57 175.34 213.43C175.65 215.29 179.05 233.24 178.43 235.43C177.81 237.62 150.89 250.9 146.24 249.35C141.59 247.8 130.79 243.1 130.79 243.1L115.62 193.58L113.12 140.05Z" fill="url(#paint2_linear)"/>
<path d="M137.59 203.21C135.415 206.528 132.934 209.635 130.18 212.49C130.18 232.76 130.42 252.99 130.18 273.22C130.18 275.22 130.18 277.22 130.09 279.22C130.03 284.89 129.92 290.54 129.74 296.22C129.803 297.22 129.607 298.219 129.17 299.12C128.536 300.078 127.589 300.785 126.49 301.12C122.18 302.81 117.36 302.39 112.75 302C96.7499 300.613 80.7265 299.93 64.6798 299.95C60.5498 299.95 56.4399 300.02 52.2999 300.11C51.6748 300.2 51.0388 300.05 50.5199 299.69C50.2042 299.312 50.0184 298.842 49.9898 298.35C44.7798 268.22 63.9898 237.77 58.3898 207.74C57.3498 202.05 55.4398 196.61 53.7898 191.05C51.1298 182.32 49.0398 173.29 49.1698 164.16C49.2187 161.559 49.4627 158.965 49.8999 156.4C50.9033 149.912 53.5353 143.785 57.5499 138.59C59.9899 135.53 63.1299 132.85 66.9399 131.95C69.9399 131.22 72.9398 131.64 75.9998 132.08C81.7999 132.87 87.5798 133.69 93.3699 134.5C99.3699 135.34 107.44 138.13 113.16 139.98C117.66 150.75 122.46 161.57 129.54 170.87C132 174.12 134.73 177.16 136.95 180.56C139.298 183.906 140.681 187.832 140.95 191.91C140.932 195.92 139.766 199.841 137.59 203.21Z" fill="#1A237E"/>
<path d="M130.13 279.22C129.923 280.081 129.639 280.921 129.28 281.73C118.46 281.66 106.59 281.2 98.5799 273.92C95.8799 271.46 93.7699 268.31 90.7499 266.22C87.7299 264.13 83.2599 263.41 80.6399 265.96C79.6385 267.077 78.8762 268.387 78.3999 269.81C75.1599 277.723 71.9132 285.637 68.6599 293.55C67.6599 295.84 66.7199 298.19 64.8699 299.82C64.8339 299.873 64.781 299.911 64.7199 299.93C60.5899 299.93 56.4799 300 52.3399 300.09C51.7148 300.18 51.0789 300.03 50.5599 299.67C50.2442 299.292 50.0585 298.822 50.0299 298.33C44.8199 268.2 64.0299 237.75 58.4299 207.72C57.3499 202.05 55.4399 196.61 53.7899 191.05C51.1299 182.32 49.0399 173.29 49.1699 164.16C49.2187 161.559 49.4628 158.965 49.8999 156.4C52.9999 155.76 56.5799 156.91 59.5699 158.31C69.1099 162.75 77.9499 169.37 83.2499 178.48C86.2499 183.62 88.0199 189.38 89.8699 195.05C92.7499 203.83 95.8732 212.523 99.2399 221.13C104.69 235.01 111.02 248.97 121.64 259.41C125.45 263.15 129.21 267.9 130.26 273.18C130.657 275.179 130.612 277.24 130.13 279.22Z" fill="url(#paint3_linear)"/>
<path d="M107.79 46.59C110.79 43.5 115.24 42.38 119.51 42.21C125.75 41.97 132.23 43.57 137.04 47.56C139.645 49.85 141.834 52.5735 143.51 55.61C148.171 63.4651 150.662 72.4166 150.73 81.55C150.756 90.7011 147.982 99.6413 142.78 107.17C138.3 113.51 134.4 120.17 127.78 124.24C121.106 128.326 113.296 130.163 105.5 129.48C104.933 129.457 104.375 129.335 103.85 129.12C102.909 128.553 102.2 127.671 101.85 126.63C99.9188 121.916 99.2301 116.786 99.8501 111.73C100.482 106.7 101.525 101.73 102.97 96.87C106.56 83.35 109.97 69.44 108.6 55.52C108.25 52.25 107.48 49.86 107.79 46.59Z" fill="#606060"/>
<path d="M107.79 46.59C110.79 43.5 115.24 42.38 119.51 42.21C125.75 41.97 132.23 43.57 137.04 47.56C139.645 49.85 141.834 52.5735 143.51 55.61C148.171 63.4651 150.662 72.4166 150.73 81.55C150.756 90.7011 147.982 99.6413 142.78 107.17C138.3 113.51 134.4 120.17 127.78 124.24C121.106 128.326 113.296 130.163 105.5 129.48C104.933 129.457 104.375 129.335 103.85 129.12C102.909 128.553 102.2 127.671 101.85 126.63C99.9188 121.916 99.2301 116.786 99.8501 111.73C100.482 106.7 101.525 101.73 102.97 96.87C106.56 83.35 109.97 69.44 108.6 55.52C108.25 52.25 107.48 49.86 107.79 46.59Z" fill="url(#paint4_linear)"/>
<path d="M126.93 58.14C129.64 61.8 130.68 66.37 132.07 70.7C133.46 75.03 135.49 79.49 139.35 81.88C140.35 82.48 141.45 83.02 141.87 84.08C142.6 85.97 140.57 87.71 139.97 89.64C139.37 91.57 140.27 93.7 140.04 95.73C139.92 96.85 139.45 97.92 139.25 99.04C139.03 100.34 139.19 101.69 138.92 102.98C138.21 106.48 134.68 108.64 131.31 109.83C127.94 111.02 124.24 111.83 121.62 114.21C118.83 116.78 117.83 120.71 116.97 124.41L111.72 146.91C111.17 149.25 110.72 151.91 112.07 153.91C119.71 164.75 124.4 177.74 123.36 190.91C116.9 173.18 103.95 158.63 90.36 145.5C87.36 142.6 84.29 139.7 82.15 136.13C77.82 128.94 77.81 119.86 79.84 111.71C83.67 96.36 93.91 83.52 100.84 69.26C102.47 65.9 104.02 62.26 107 60.05C109.77 57.95 113.34 57.35 116.77 56.81C120.37 56.26 124.79 55.2 126.93 58.14Z" fill="url(#paint5_linear)"/>
<path d="M114.91 114.67C114.137 117.976 113.135 121.224 111.91 124.39C109.156 130.863 104.796 136.525 99.2412 140.841C93.6866 145.156 87.1221 147.982 80.1698 149.05C70.1698 150.49 59.3798 148.23 50.1698 152.5C48.8598 137.75 47.9098 121.55 56.5898 109.55C59.4298 105.61 63.2298 102.29 65.1898 97.85C68.7098 89.85 65.4798 80.68 65.8998 71.98C66.5198 59.49 75.4098 47.98 87.1098 43.56C95.1098 40.5 105.27 40.35 113.21 43.89C118.99 46.47 119.95 50.47 120.59 56.36C122.79 76.05 119.79 95.57 114.91 114.67Z" fill="#606060"/>
<path d="M114.91 114.67C114.137 117.976 113.135 121.224 111.91 124.39C109.156 130.863 104.796 136.525 99.2412 140.841C93.6866 145.156 87.1221 147.982 80.1698 149.05C70.1698 150.49 59.3798 148.23 50.1698 152.5C48.8598 137.75 47.9098 121.55 56.5898 109.55C59.4298 105.61 63.2298 102.29 65.1898 97.85C68.7098 89.85 65.4798 80.68 65.8998 71.98C66.5198 59.49 75.4098 47.98 87.1098 43.56C95.1098 40.5 105.27 40.35 113.21 43.89C118.99 46.47 119.95 50.47 120.59 56.36C122.79 76.05 119.79 95.57 114.91 114.67Z" fill="url(#paint6_linear)"/>
<path d="M208.28 238.22C214.69 236.46 221.11 234.69 227.35 232.41C239.7 227.9 251.23 221.41 262.7 215.02C264.7 217.14 261.14 221.02 262.84 223.4C263.247 223.9 263.768 224.295 264.36 224.55C271.48 228.1 280.04 225.78 287.93 226.86C288.58 228.77 286.58 230.47 284.79 231.4C272.09 237.96 257.2 238.52 243.61 242.96C239.75 244.22 235.99 245.8 232.23 247.33C218.23 253.01 204.007 258.057 189.56 262.47C182.46 264.64 175.19 266.67 167.76 266.59C167.043 266.639 166.326 266.487 165.69 266.15C165.056 265.632 164.592 264.935 164.36 264.15C163.04 260.89 160.68 255.1 163.06 251.75C165.29 248.62 172.14 248.17 175.56 247.23L208.28 238.22Z" fill="url(#paint7_linear)"/>
<path opacity="0.24" d="M268.82 217.1C316.686 217.1 355.49 178.297 355.49 130.43C355.49 82.5635 316.686 43.76 268.82 43.76C220.953 43.76 182.15 82.5635 182.15 130.43C182.15 178.297 220.953 217.1 268.82 217.1Z" fill="#1A237E"/>
<path d="M229.49 57.91V181.73L305.02 202.16V94.02L294.9 84.02L280.76 70.1L229.49 57.91Z" fill="white"/>
<path d="M289.75 98.56L282.94 72.36L304.6 94.02L289.75 98.56Z" fill="#1A237E"/>
<path d="M242.513 102.439L242.01 104.581L289.47 115.721L289.973 113.58L242.513 102.439Z" fill="#1A237E"/>
<path d="M253.86 97.2099L242.55 94.5799L243.05 92.4399L254.37 95.0699L253.86 97.2099Z" fill="#1A237E"/>
<path d="M259.02 98.34L255.96 97.67L256.46 95.53L259.52 96.2L259.02 98.34Z" fill="#1A237E"/>
<path d="M264.49 99.6299L261.43 98.9599L261.93 96.8199L264.99 97.4899L264.49 99.6299Z" fill="#1A237E"/>
<path d="M242.516 113.991L242.014 116.133L289.474 127.273L289.976 125.131L242.516 113.991Z" fill="#1A237E"/>
<path d="M242.511 125.55L242.008 127.692L289.468 138.833L289.971 136.691L242.511 125.55Z" fill="#1A237E"/>
<path d="M242.515 137.102L242.012 139.244L289.472 150.384L289.975 148.242L242.515 137.102Z" fill="#1A237E"/>
<path d="M281.55 175.11L273.38 157.83L260.05 169.61L252.6 153.15L243.8 160.29L242.41 158.59L253.43 149.64L260.83 165.99L274.12 154.24L282.05 171.01L289 162.46L290.7 163.85L281.55 175.11Z" fill="#1A237E"/>
<path d="M63.2902 175.93C63.2902 175.93 99.5702 265.17 112.5 274.06C127.36 284.27 179.34 267.47 179.34 267.47C179.34 267.47 174.9 246.94 171.6 246.11C168.3 245.28 129.73 247.8 129.73 247.8L89.5702 155.93C89.5702 155.93 68.7902 142.19 61.7902 156.43C61.7902 156.43 58.3302 167.05 63.2902 175.93Z" fill="#1A237E"/>
<path d="M129.73 247.8C129.73 247.8 105.38 195.05 104.97 193.99C104.56 192.93 129.53 217.1 129.53 217.1L129.73 247.8Z" fill="url(#paint8_linear)"/>
</g>
<defs>
<linearGradient id="paint0_linear" x1="48.4302" y1="305.38" x2="131.08" y2="305.38" gradientUnits="userSpaceOnUse">
<stop stop-opacity="0"/>
<stop offset="0.95"/>
</linearGradient>
<linearGradient id="paint1_linear" x1="111.72" y1="195.44" x2="269" y2="195.44" gradientUnits="userSpaceOnUse">
<stop stop-color="#E5C5D5"/>
<stop offset="0.42" stop-color="#EAD4D1"/>
<stop offset="1" stop-color="#F0E9CB"/>
</linearGradient>
<linearGradient id="paint2_linear" x1="11415.6" y1="20724.1" x2="6241.5" y2="22174" gradientUnits="userSpaceOnUse">
<stop stop-opacity="0"/>
<stop offset="0.95"/>
</linearGradient>
<linearGradient id="paint3_linear" x1="4674.49" y1="34277.1" x2="16318.9" y2="32349.1" gradientUnits="userSpaceOnUse">
<stop stop-opacity="0"/>
<stop offset="0.95"/>
</linearGradient>
<linearGradient id="paint4_linear" x1="9074.05" y1="6673.09" x2="8064.05" y2="6859.91" gradientUnits="userSpaceOnUse">
<stop stop-opacity="0"/>
<stop offset="0.95"/>
</linearGradient>
<linearGradient id="paint5_linear" x1="6477.17" y1="16968.1" x2="10506.7" y2="16968.1" gradientUnits="userSpaceOnUse">
<stop stop-color="#E5C5D5"/>
<stop offset="0.42" stop-color="#EAD4D1"/>
<stop offset="1" stop-color="#F0E9CB"/>
</linearGradient>
<linearGradient id="paint6_linear" x1="10683.8" y1="10819.2" x2="5999.1" y2="10934.4" gradientUnits="userSpaceOnUse">
<stop stop-opacity="0"/>
<stop offset="0.95"/>
</linearGradient>
<linearGradient id="paint7_linear" x1="23380.2" y1="12736.3" x2="39260.6" y2="12736.3" gradientUnits="userSpaceOnUse">
<stop stop-color="#E5C5D5"/>
<stop offset="0.42" stop-color="#EAD4D1"/>
<stop offset="1" stop-color="#F0E9CB"/>
</linearGradient>
<linearGradient id="paint8_linear" x1="3907.13" y1="11774.7" x2="2142.47" y2="12224.8" gradientUnits="userSpaceOnUse">
<stop stop-opacity="0"/>
<stop offset="0.95"/>
</linearGradient>
<clipPath id="clip0">
<rect width="373.8" height="314.9" fill="white"/>
</clipPath>
</defs>
</svg>
