<svg width="673" height="228" viewBox="0 0 673 228" fill="none" xmlns="http://www.w3.org/2000/svg">
<g clip-path="url(#clip0)">
<path opacity="0.24" d="M666.38 155.74C656.12 177.58 635.47 193.21 613.04 202.2C601.461 206.702 589.451 210.009 577.2 212.07C565.7 214.13 553.97 215.49 542.31 216.64C523.66 218.51 504.92 220.06 486.23 221.33C483.64 221.53 481.1 221.73 478.51 221.89C446.25 224 413.99 225.31 381.65 226.11H381.42C379.31 226.11 377.16 226.23 375.05 226.27C344.503 226.937 313.943 227.253 283.37 227.22C262.557 227.22 241.767 227.153 221 227.02C205.88 226.94 190.76 226.86 175.61 226.43C144.46 225.51 113.4 223.2 83.09 216.8C77.16 215.61 71.27 214.17 65.39 212.62C49.08 208.29 32.69 202.36 19.8 191.38C6.91 180.4 -1.99 163.52 0.390001 146.79C2.58 131.36 13.73 118.52 26.33 109.36C38.93 100.2 53.33 93.69 66.1 84.82C90.57 67.99 108.51 43.29 131.74 24.82C150.19 10.1 175.85 -1.68001 199.91 3.37999C222.59 8.14999 242.04 23.94 264.91 28.44C294.91 34.32 323.74 16.58 352.91 7.34999C389.911 -4.14985 429.802 -2.06114 465.4 13.24C498.69 27.72 527.09 53.38 562.33 62.13C594.87 70.2 633.93 64.55 657.56 88.3C674.53 105.42 676.73 133.86 666.38 155.74Z" fill="#1A237E"/>
<path d="M273.07 226.97C266.98 227.41 261.34 227.2 255.22 227.25C255.58 222.52 257.11 201.46 257.46 196.73C257.61 194.73 257.87 192.49 259.41 191.19C260.35 190.5 261.452 190.063 262.61 189.92C264.96 189.48 268.05 188.92 270.42 189.46C272.42 189.92 272.35 191.67 272.42 193.4C272.73 199.06 271.83 221.45 273.07 226.97Z" fill="url(#paint0_linear)"/>
<path d="M183.36 192.16L182.78 226.52L198.56 227.31C198.56 227.31 198.32 200.58 193.29 196.7C190.387 194.421 186.983 192.865 183.36 192.16Z" fill="url(#paint1_linear)"/>
<path d="M202.73 105.23C200.54 111.57 200.73 118.44 200.83 125.14C201.152 136.047 200.868 146.964 199.98 157.84C199.43 163.68 198.59 169.56 199.3 175.37C200.01 181.18 202.52 187.09 207.3 190.37C210.72 192.71 214.94 193.55 219.06 193.99C223.271 194.394 227.5 194.571 231.73 194.52C236.268 194.681 240.807 194.244 245.23 193.22C249.61 192.04 253.82 189.68 256.42 185.97C258.82 182.54 259.67 178.28 260.32 174.14C263.398 154.64 263.432 134.78 260.42 115.27C260.124 112.724 259.492 110.229 258.54 107.85C257.08 104.55 254.54 101.85 252.05 99.24C249.56 96.63 246.75 93.7 243.3 92.24C240.526 91.1593 237.577 90.5934 234.6 90.57C221.56 89.87 207.61 91.01 202.73 105.23Z" fill="#FFE368"/>
<path d="M254.51 151.68L253.17 154.52C252.696 152.11 252.582 149.643 252.83 147.2L253.31 138.15C253.683 134.201 253.568 130.221 252.97 126.3C252.2 122.41 250.36 118.59 247.17 116.24C243.08 113.24 237.6 113.07 232.51 113.1C227.81 113.1 222.76 113.32 219 116.1C217.001 117.77 215.308 119.777 214 122.03C212.354 124.255 211.09 126.739 210.26 129.38C209.851 131.211 209.666 133.085 209.71 134.96C209.56 144.54 210.05 154.3 207.44 163.53C206.58 166.53 205.44 169.53 205.07 172.69C204.961 173.23 205.061 173.791 205.35 174.26C205.681 174.581 206.104 174.791 206.56 174.86C210.188 175.684 213.861 176.299 217.56 176.7L237.31 179.24C239.491 179.639 241.72 179.7 243.92 179.42C245.43 179.16 246.92 178.57 248.39 178.3C253.39 177.39 256.06 174.73 255.31 169.58C254.58 163.643 254.312 157.658 254.51 151.68Z" fill="url(#paint2_linear)"/>
<path d="M207.29 168.62C201.589 170.178 196.344 173.08 191.994 177.081C187.645 181.083 184.317 186.068 182.29 191.62C188.61 195.62 195.61 200.71 196.12 208.18C196.19 209.11 196.22 226.44 196.97 226.98C197.441 227.249 197.979 227.378 198.52 227.35C218.38 228.17 238.243 228.14 258.11 227.26C258.23 223.26 258.34 202.95 258.45 198.92C258.422 198.335 258.535 197.752 258.78 197.22C259.178 196.652 259.734 196.213 260.38 195.96C264.635 193.797 269.055 191.978 273.6 190.52C271.753 185.67 269.254 181.094 266.17 176.92C263.31 173.04 248.25 164.69 223.36 164.99C217.73 165.05 212.73 167.18 207.29 168.62Z" fill="#1A237E"/>
<path d="M175.57 226.43C144.42 225.51 113.36 223.2 83.05 216.8C83.8 211.8 83.96 206.74 84.72 201.8C85.72 195.36 88.14 188.72 93.35 184.8C99.04 180.58 106.44 180.46 112.88 178.04C119.64 175.53 127.88 177.56 135.04 178.04C143.99 178.63 153.45 179.43 160.69 184.68C165.69 188.3 169.17 193.79 171.31 199.6C173.45 205.41 174.31 211.6 175.01 217.77C175.09 218.15 175.49 223.32 175.57 226.43Z" fill="#1A237E"/>
<path d="M116.14 171.19C110.325 171.549 104.542 170.103 99.58 167.05C98.3122 166.29 97.1404 165.38 96.09 164.34C94.8829 163.035 93.8015 161.618 92.86 160.11L86.86 151.11C85.4917 149.303 84.4463 147.273 83.77 145.11C83.4476 144.018 83.4117 142.861 83.6656 141.75C83.9196 140.64 84.4548 139.614 85.22 138.77C83.66 132.85 82.88 125.48 85.84 120.12C87.7 116.74 91.06 114.46 93.53 111.49C96.45 107.96 98.31 103.29 102.34 101.11C106.75 98.73 112.13 100.18 117.13 100.51C126.03 101.08 135.07 97.86 143.77 99.84C145.861 100.283 147.849 101.117 149.63 102.3C153.87 105.22 156.04 110.3 159.44 114.15C162.84 118 167.7 121.15 168.66 126.15C169.66 131.46 165.84 136.45 165.2 141.82C164.83 144.87 165.52 147.98 165.03 151.01C164.16 156.37 159.59 160.65 154.4 162.21C151.12 163.21 147.4 163.37 144.89 165.72C142.81 167.72 141.89 171.04 139.17 172.01C138.093 172.307 136.968 172.385 135.86 172.24C129.63 171.84 122.39 170.79 116.14 171.19Z" fill="#606161"/>
<path d="M116.14 171.19C110.325 171.549 104.542 170.103 99.58 167.05C98.3122 166.29 97.1404 165.38 96.09 164.34C94.8829 163.035 93.8015 161.618 92.86 160.11L86.86 151.11C85.4917 149.303 84.4463 147.273 83.77 145.11C83.4476 144.018 83.4117 142.861 83.6656 141.75C83.9196 140.64 84.4548 139.614 85.22 138.77C83.66 132.85 82.88 125.48 85.84 120.12C87.7 116.74 91.06 114.46 93.53 111.49C96.45 107.96 98.31 103.29 102.34 101.11C106.75 98.73 112.13 100.18 117.13 100.51C126.03 101.08 135.07 97.86 143.77 99.84C145.861 100.283 147.849 101.117 149.63 102.3C153.87 105.22 156.04 110.3 159.44 114.15C162.84 118 167.7 121.15 168.66 126.15C169.66 131.46 165.84 136.45 165.2 141.82C164.83 144.87 165.52 147.98 165.03 151.01C164.16 156.37 159.59 160.65 154.4 162.21C151.12 163.21 147.4 163.37 144.89 165.72C142.81 167.72 141.89 171.04 139.17 172.01C138.093 172.307 136.968 172.385 135.86 172.24C129.63 171.84 122.39 170.79 116.14 171.19Z" fill="url(#paint3_linear)"/>
<path d="M117.48 177.03C116.866 178.134 116.422 179.324 116.16 180.56C115.997 182.065 116.319 183.582 117.08 184.89C118.01 186.494 119.324 187.842 120.903 188.812C122.483 189.783 124.279 190.346 126.13 190.45C129.864 190.597 133.505 189.264 136.26 186.74C137.451 185.801 138.295 184.492 138.66 183.02C138.77 181.728 138.627 180.427 138.24 179.19C137.651 176.606 137.369 173.961 137.4 171.31C137.4 169.31 137.6 167.1 136.58 165.31C135.43 163.31 133.09 162.45 130.87 162.01C127.76 161.41 122.02 160.48 120.96 164.45C119.8 168.78 119.42 172.91 117.48 177.03Z" fill="#775339"/>
<path d="M118 176.94C118.046 177.151 118.116 177.356 118.21 177.55C118.871 178.726 119.73 179.778 120.75 180.66C122.06 181.676 123.711 182.149 125.36 181.98C128.235 181.755 130.933 180.502 132.96 178.45C136.13 175.35 139.1 169.67 136.58 165.34C135.43 163.34 133.09 162.48 130.87 162.04C127.76 161.44 122.02 160.51 120.96 164.48C120.09 167.71 119.63 171.04 118.58 174.22C118.23 175.31 117.8 176.01 118 176.94Z" fill="url(#paint4_linear)"/>
<path d="M106.73 141.41C105.73 140.97 104.28 140.89 103.64 141.82C103.446 142.151 103.324 142.519 103.28 142.9C102.7 146.54 104.34 150.61 107.61 152.31C107.931 152.509 108.302 152.613 108.68 152.61C109.56 152.53 110.02 151.54 110.2 150.68C111.01 146.99 110.53 142.97 106.73 141.41Z" fill="#775339"/>
<path d="M146.34 143.21C146.682 142.649 147.131 142.16 147.66 141.77C147.927 141.578 148.243 141.463 148.571 141.44C148.9 141.417 149.229 141.487 149.52 141.64C149.782 141.868 149.996 142.145 150.15 142.456C150.305 142.766 150.396 143.104 150.42 143.45C150.66 144.76 150.85 146.24 150.09 147.35C149.68 147.899 149.141 148.339 148.52 148.63C148.241 148.817 147.927 148.945 147.597 149.009C147.268 149.072 146.929 149.069 146.6 149C146.025 148.743 145.576 148.268 145.35 147.68C145.154 147.319 145.038 146.92 145.01 146.51C145.174 145.317 145.631 144.183 146.34 143.21Z" fill="#775339"/>
<path d="M111.06 155.99C113.88 161.83 118.31 167.49 124.59 169.09C130.87 170.69 138.02 167.5 142.16 162.32C146.3 157.14 147.95 150.32 148.23 143.72C148.55 136.21 146.93 128.03 141.3 123.04C137.51 119.862 132.673 118.208 127.73 118.4C122.801 118.633 118 120.046 113.73 122.52C101.3 129.3 106.06 145.64 111.06 155.99Z" fill="#775339"/>
<path d="M106.73 141.41C106.73 141.41 101.95 129.32 115.65 119.04C129.35 108.76 144.42 121.33 146.71 130.46C149 139.59 148.29 141.52 148.29 141.52C148.29 141.52 143.66 125.99 131.22 125.76C118.78 125.53 112.13 131 106.73 141.41Z" fill="#1A237E"/>
<path d="M106.65 146.62C106.65 146.13 106.75 145.62 106.65 145.15C106.55 144.68 106.27 144.15 105.78 144.1C105.585 144.111 105.399 144.183 105.247 144.305C105.094 144.426 104.984 144.593 104.93 144.78C104.817 145.155 104.817 145.555 104.93 145.93C105.175 146.861 105.509 147.765 105.93 148.63C106.12 149.04 106.34 149.51 106.78 149.63C106.942 149.676 107.114 149.678 107.276 149.634C107.439 149.59 107.587 149.503 107.704 149.382C107.821 149.261 107.903 149.11 107.941 148.946C107.979 148.782 107.972 148.61 107.92 148.45C107.73 147.79 106.73 147.68 106.65 146.62Z" fill="url(#paint5_linear)"/>
<path d="M148.98 144.52C148.921 144.383 148.89 144.235 148.89 144.085C148.89 143.935 148.921 143.787 148.98 143.65C149.155 143.407 149.416 143.239 149.71 143.18C149.814 143.426 149.858 143.693 149.84 143.96C149.84 144.56 149.84 145.15 149.84 145.75C149.852 146.02 149.819 146.291 149.74 146.55C149.679 146.73 149.58 146.895 149.451 147.034C149.322 147.174 149.165 147.285 148.99 147.36C148.7 147.49 148.28 147.46 148.15 147.16C147.92 146.64 148.48 146.23 148.8 145.95C149.27 145.52 149.18 145.13 148.98 144.52Z" fill="url(#paint6_linear)"/>
<path d="M218.86 161.3C216.93 165.59 214.77 170.22 215.86 174.8C217.03 179.8 222.14 183.25 227.24 183.24C232.34 183.23 237.14 180.12 239.9 175.83C241.589 173.498 242.306 170.601 241.9 167.75C241.49 165.75 240.34 164.03 239.9 162.08C238.9 158.01 240.9 153.51 239.35 149.62C238.1 146.45 234.8 144.56 231.51 143.62C229.566 143.004 227.489 142.938 225.51 143.43C221.86 144.54 221.29 147.18 221.51 150.43C221.67 154.29 220.41 157.84 218.86 161.3Z" fill="url(#paint7_linear)"/>
<path d="M222.73 160.97C224.19 163.083 226.369 164.594 228.86 165.22C230.108 165.623 231.443 165.675 232.718 165.37C233.993 165.065 235.16 164.415 236.09 163.49C237.35 162.354 238.357 160.965 239.046 159.415C239.735 157.865 240.091 156.187 240.09 154.49C240.147 153.323 239.793 152.173 239.09 151.24C238.486 150.625 237.736 150.174 236.91 149.93C234.723 149.188 232.397 148.945 230.104 149.221C227.811 149.496 225.609 150.282 223.66 151.52C220.21 153.67 220.62 157.8 222.73 160.97Z" fill="url(#paint8_linear)"/>
<path d="M212.81 147.7C215.65 152.7 219.89 157.11 225.28 158.78C228.377 159.672 231.664 159.67 234.76 158.774C237.856 157.879 240.636 156.127 242.78 153.72C244.602 151.514 246.094 149.055 247.21 146.42C249.83 140.75 251.83 134.66 251.93 128.42C252.03 122.18 250.05 115.73 245.68 111.48C242.418 108.497 238.354 106.533 233.99 105.83C228.31 104.77 222.2 105.32 217.13 108.26C214.003 110.071 211.459 112.74 209.8 115.95C208.15 119.18 208.45 121.73 208.34 125.14C208.07 133.21 208.78 140.58 212.81 147.7Z" fill="url(#paint9_linear)"/>
<path d="M205.58 125.77C205.545 126.116 205.615 126.464 205.78 126.77C205.985 126.988 206.239 127.154 206.52 127.255C206.802 127.356 207.103 127.388 207.4 127.35C210.697 127.405 213.994 127.245 217.27 126.87C217.749 124.884 218.011 122.852 218.05 120.81C218.73 122.528 219.128 124.345 219.23 126.19C224.148 125.76 229.086 125.62 234.02 125.77C233.389 123.96 233.231 122.019 233.56 120.13C233.701 121.908 234.191 123.641 235 125.23C235.135 125.57 235.364 125.865 235.66 126.08C235.968 126.204 236.299 126.26 236.63 126.244C236.961 126.229 237.285 126.142 237.58 125.99C241.025 124.848 244.691 124.533 248.28 125.07L248.47 122.71C249.198 123.995 249.791 125.353 250.24 126.76C250.91 126.276 251.67 125.932 252.477 125.75C253.283 125.568 254.117 125.551 254.93 125.7L253.56 117.5C253.471 115.466 252.889 113.484 251.865 111.725C250.841 109.966 249.405 108.482 247.68 107.4C245.576 105.56 243.283 103.947 240.84 102.59C236.587 100.532 231.804 99.8338 227.14 100.59C222.485 101.357 218.051 103.121 214.14 105.76C212.672 106.633 211.385 107.781 210.35 109.14C209.35 110.54 209.35 112.08 208.7 113.58C207.02 117.63 205.58 121.29 205.58 125.77Z" fill="#FFE368"/>
<path d="M478.51 221.89C446.25 224 413.95 225.31 381.61 226.11C381.494 226.045 381.4 225.948 381.34 225.83C381.207 225.556 381.139 225.255 381.14 224.95C381.054 219.625 381.425 214.302 382.25 209.04C382.81 205.62 383.56 202.12 385.43 199.22C387.3 196.32 391.2 192.69 394.94 192.5C398.84 192.34 402.94 193.29 406.94 193.25C411.72 193.25 416.49 192.81 421.26 192.34C430.65 191.42 439.96 189.95 449.39 189.39C453.2 189.19 457.1 189.07 460.72 187.76C462.43 187.13 464.26 186.21 466.01 186.81C466.701 187.077 467.346 187.451 467.92 187.92C470.35 189.79 472.81 191.66 474.4 194.25C476.23 197.19 476.79 200.69 477.27 204.11C478.11 210 478.91 215.96 478.51 221.89Z" fill="#1A237E"/>
<path d="M478.47 221.89C446.21 224 413.95 225.31 381.61 226.11H381.38C381.38 226.11 381.3 226.11 381.26 225.99C381.13 225.716 381.075 225.412 381.1 225.11C381.001 219.786 381.359 214.463 382.17 209.2C382.73 205.74 383.48 202.28 385.39 199.34C387.3 196.4 391.12 192.81 394.86 192.65C398.76 192.46 402.86 193.41 406.86 193.37C411.64 193.37 416.41 192.97 421.18 192.5C430.57 191.5 439.92 190.11 449.31 189.5C453.12 189.26 457.06 189.18 460.64 187.87C462.35 187.23 464.22 186.32 465.93 186.87C466.623 187.151 467.267 187.539 467.84 188.02C470.27 189.85 472.73 191.76 474.33 194.34C476.15 197.25 476.71 200.75 477.23 204.17C478.03 210.08 478.83 216 478.47 221.89Z" fill="url(#paint10_linear)"/>
<path d="M411.15 121.29C405.738 127.846 402.012 135.627 400.299 143.953C398.585 152.28 398.936 160.9 401.32 169.06C402.42 172.7 403.95 176.49 403.05 180.19C401.98 184.6 397.82 187.46 395.14 191.13C394.723 191.601 394.495 192.211 394.5 192.84C394.59 193.64 395.36 194.17 396.08 194.53C398.006 195.502 400.108 196.076 402.26 196.22C404.19 196.35 406.18 196.13 408.01 196.76C409.498 197.388 410.878 198.245 412.1 199.3C417.84 203.58 424.58 206.3 431.23 208.93C433.61 209.88 436.09 210.84 438.65 210.67C440.655 210.452 442.587 209.797 444.31 208.75C451.363 204.86 456.877 198.679 459.94 191.23C460.176 190.366 460.685 189.602 461.39 189.05C462.61 188.33 464.24 189.05 465.54 188.52C467.75 187.57 466.98 184.1 465.2 182.52C463.42 180.94 460.91 179.87 460.04 177.64C458.97 174.88 460.93 171.99 462.11 169.28C464.31 164.23 463.85 158.47 463.28 152.99C462.03 141.06 459.9 128.13 451.04 120.05C447.46 116.8 443.04 114.62 438.61 112.71C433.96 110.71 428.02 108.71 423.22 111.3C418.632 113.882 414.545 117.266 411.15 121.29Z" fill="#1A237E"/>
<path d="M407.93 163.36C403.93 153.87 404.93 142.59 412.3 135.36C409.64 137.07 406.65 141.13 405.57 145.81C404.78 149.19 404.78 153.29 404.7 156.76C404.56 164.621 407.287 172.263 412.37 178.26L413.77 175.93C418.187 182.009 423.246 187.595 428.86 192.59C429.51 193.084 430.043 193.716 430.42 194.44C430.681 195.27 430.783 196.142 430.72 197.01C430.768 200.308 431.955 203.488 434.08 206.01C434.385 206.422 434.801 206.738 435.28 206.92C435.775 207.015 436.287 206.974 436.76 206.8C442.565 205.13 447.671 201.621 451.31 196.8C447.458 199.316 443.065 200.883 438.49 201.37C437.515 201.556 436.507 201.451 435.59 201.07C434.662 200.494 433.995 199.58 433.73 198.52C432.96 195.743 433.32 192.774 434.73 190.26C436.127 187.775 437.845 185.486 439.84 183.45L444.68 178.08C445.515 177.222 446.247 176.269 446.86 175.24C447.463 173.961 447.926 172.619 448.24 171.24C449.24 167.74 450.72 164.39 451.78 160.91C452.84 157.43 453.46 153.69 452.63 150.14C451.8 146.59 449.26 143.29 445.75 142.33C444.268 141.998 442.746 141.88 441.23 141.98L426.7 142.2C424.618 142.103 422.537 142.391 420.56 143.05C417.21 144.42 413.35 148.5 411.14 151.32C410.216 152.606 409.638 154.107 409.46 155.68C409.08 157.19 407.33 161.94 407.93 163.36Z" fill="url(#paint11_linear)"/>
<path d="M429.37 133.3C430.082 132.893 430.89 132.686 431.71 132.7C432.6 132.884 433.429 133.29 434.12 133.88C439.23 137.39 446.04 139.26 448.87 144.79C450.51 148.01 450.39 151.79 450.08 155.42C449.58 161.12 448.64 166.9 445.93 171.93C443.22 176.96 438.47 181.18 432.81 181.93C425.39 182.93 418.18 177.83 414.56 171.26C411.45 165.65 407.73 154.52 411.47 148.52C415.54 142.07 422.54 136.52 429.37 133.3Z" fill="url(#paint12_linear)"/>
<path d="M443.93 137.72C445.17 138.66 451.08 145.03 452.5 145.72C453.92 146.41 454.93 121.51 436.5 113.46C435.24 112.91 433.62 112.26 432.71 113.3C432.02 114.08 432.27 115.3 432.5 116.3C433.091 119.025 433.409 121.802 433.45 124.59C433.51 126.65 432.83 129.77 433.84 131.59C435.63 134.78 441.08 135.58 443.93 137.72Z" fill="url(#paint13_linear)"/>
<path d="M375.01 226.27C344.463 226.937 313.903 227.253 283.33 227.22C283.52 220.38 283.88 211.51 285 202.76C285.554 198.658 287.02 194.732 289.291 191.271C291.561 187.811 294.578 184.902 298.12 182.76C298.76 182.4 299.44 181.96 299.59 181.25C299.604 180.742 299.498 180.239 299.28 179.78C298.28 176.48 301.34 172.58 304.85 172.86C305.04 169.63 308.11 167.17 311.29 166.65C317.77 165.65 323.62 170.55 330.29 170.19C334.03 170.03 337.73 169.28 341.47 169.47C344.696 169.716 347.885 170.316 350.98 171.26C352.175 171.523 353.309 172.012 354.32 172.7C356.9 174.65 356.9 178.5 356.66 181.7C363.39 183.21 368.52 188.82 371.3 195.1C374.08 201.38 374.84 208.31 375.56 215.1C375.57 215.52 375.29 221.29 375.01 226.27Z" fill="#1A237E"/>
<path d="M311.96 174.52C311.08 173.21 310.31 171.36 311.36 170.18C312.15 169.3 313.5 169.34 314.67 169.45L343.4 172.11C344.105 172.102 344.791 172.331 345.35 172.76C345.688 173.198 345.854 173.744 345.819 174.296C345.784 174.848 345.55 175.368 345.16 175.76C344.369 176.511 343.504 177.181 342.58 177.76C340.82 179.16 339.72 181.36 337.7 182.35C336.318 182.894 334.832 183.122 333.35 183.02H323.04C320.71 183.02 318.59 182.78 317.04 180.93C315.35 178.85 313.48 176.74 311.96 174.52Z" fill="url(#paint14_linear)"/>
<path d="M304.36 123.52C304.855 122.298 305.282 121.049 305.64 119.78C306.39 116.58 305.72 113.23 305.79 109.94C305.86 106.65 306.98 102.94 309.96 101.56C312.61 100.31 315.71 101.3 318.63 101.45C324.2 101.72 329.63 98.81 335.15 99.24C337.246 99.416 339.277 100.057 341.095 101.115C342.913 102.174 344.472 103.624 345.66 105.36C347.46 108.04 348.38 111.41 350.9 113.43C351.67 114.05 352.56 114.51 353.36 115.09C355.789 117.043 357.436 119.804 358 122.87C358.541 125.911 358.719 129.007 358.53 132.09C358.44 135.98 358.24 140.19 355.78 143.2C353.32 146.21 349.08 147.29 345.16 147.92C334.714 149.599 324.087 149.821 313.58 148.58C308.35 147.96 304.05 146.58 302.99 141.04C301.878 135.182 302.351 129.134 304.36 123.52Z" fill="#606161"/>
<path d="M304.36 123.52C304.855 122.298 305.282 121.049 305.64 119.78C306.39 116.58 305.72 113.23 305.79 109.94C305.86 106.65 306.98 102.94 309.96 101.56C312.61 100.31 315.71 101.3 318.63 101.45C324.2 101.72 329.63 98.81 335.15 99.24C337.246 99.416 339.277 100.057 341.095 101.115C342.913 102.174 344.472 103.624 345.66 105.36C347.46 108.04 348.38 111.41 350.9 113.43C351.67 114.05 352.56 114.51 353.36 115.09C355.789 117.043 357.436 119.804 358 122.87C358.541 125.911 358.719 129.007 358.53 132.09C358.44 135.98 358.24 140.19 355.78 143.2C353.32 146.21 349.08 147.29 345.16 147.92C334.714 149.599 324.087 149.821 313.58 148.58C308.35 147.96 304.05 146.58 302.99 141.04C301.878 135.182 302.351 129.134 304.36 123.52Z" fill="url(#paint15_linear)"/>
<path d="M317.78 178.41C317.32 179.097 317.138 179.934 317.27 180.75C317.466 181.204 317.772 181.603 318.16 181.91C320.83 184.38 323.71 186.91 327.24 187.78C329.916 188.399 332.723 188.081 335.192 186.88C337.662 185.679 339.645 183.667 340.81 181.18C341.006 180.767 341.131 180.324 341.18 179.87C341.067 178.863 340.725 177.894 340.18 177.04C339.29 174.96 339.43 172.61 339.37 170.34C339.31 168.07 338.92 165.63 337.3 164.06C335.766 162.783 333.815 162.117 331.82 162.19C329.11 162.1 321.24 162.59 320.02 165.46C319.31 167.15 319.83 170.18 319.55 172.06C319.278 174.253 318.681 176.393 317.78 178.41Z" fill="#F1B475"/>
<path d="M319.67 167.44C320.144 169.344 320.752 171.212 321.49 173.03C321.866 173.941 322.429 174.763 323.142 175.443C323.855 176.124 324.702 176.647 325.63 176.98C327.54 177.53 329.57 176.89 331.41 176.14C332.658 175.663 333.855 175.06 334.98 174.34C336.17 173.504 337.266 172.541 338.25 171.47C339.225 170.527 340.051 169.441 340.7 168.25C341.03 167.688 341.243 167.066 341.328 166.419C341.412 165.773 341.366 165.117 341.191 164.489C341.017 163.861 340.718 163.275 340.312 162.765C339.907 162.255 339.403 161.831 338.83 161.52C337.743 160.895 336.571 160.43 335.35 160.14C332.71 159.38 329.966 159.043 327.22 159.14C325.1 159.25 321.68 159.67 320.11 161.29C318.54 162.91 319.09 165.59 319.67 167.44Z" fill="url(#paint16_linear)"/>
<path d="M302.98 141.52C302.27 142.457 301.81 143.559 301.646 144.723C301.481 145.887 301.617 147.074 302.039 148.171C302.462 149.268 303.158 150.238 304.061 150.991C304.964 151.743 306.045 152.252 307.2 152.47C307.674 152.612 308.178 152.622 308.657 152.498C309.137 152.375 309.573 152.123 309.92 151.77C310.141 151.447 310.285 151.078 310.34 150.69C310.561 147.99 309.973 145.285 308.65 142.92C307.61 141.14 304.43 139.57 302.98 141.52Z" fill="#F1B475"/>
<path d="M357.54 138.52C358.77 138.71 359.47 140.05 359.69 141.27C359.914 142.592 359.784 143.95 359.313 145.206C358.842 146.462 358.048 147.571 357.01 148.42C356.548 148.814 355.994 149.086 355.4 149.21C355.103 149.268 354.796 149.258 354.503 149.18C354.21 149.102 353.939 148.958 353.71 148.76C353.268 148.219 353.034 147.538 353.05 146.84C352.92 145.1 352.79 142.78 353.76 141.23C354.48 140.08 356.05 138.3 357.54 138.52Z" fill="#F1B475"/>
<path d="M307.06 139.39C307.01 146.48 308.24 153.73 311.88 159.81C315.52 165.89 321.88 170.62 328.88 171.15C332.005 171.246 335.128 170.91 338.16 170.15C339.773 169.874 341.349 169.418 342.86 168.79C346.99 166.92 349.66 162.79 351.49 158.69C356.117 148.084 356.714 136.155 353.17 125.14C352.55 123.22 351.5 121.08 349.52 120.68C348.719 120.56 347.901 120.642 347.14 120.92C344.14 121.86 341.56 123.98 338.57 125.05C334.8 126.4 330.57 125.97 326.72 125.05C322.87 124.13 319.03 122.72 315.06 122.15C313.887 121.914 312.675 121.955 311.52 122.27C305.99 124.18 307.09 134.92 307.06 139.39Z" fill="#F1B475"/>
<path d="M326.08 193.79C321.385 193.652 316.707 193.177 312.08 192.37C309.849 191.888 307.581 191.603 305.3 191.52C302.512 191.569 299.783 192.33 297.371 193.73C294.959 195.13 292.945 197.123 291.52 199.52C289.99 197.3 290.36 194.18 291.72 191.85C293.08 189.52 295.26 187.79 297.38 186.12C298.129 185.445 299.002 184.922 299.95 184.58C303.61 183.53 308.34 188.15 311.48 189.58C316.111 191.701 321.031 193.12 326.08 193.79Z" fill="url(#paint17_linear)"/>
<path d="M336.34 194.29C344.78 193.08 353.53 191.88 361.71 194.29C362.777 194.766 363.978 194.847 365.1 194.52C365.678 194.225 366.144 193.752 366.43 193.17C366.777 192.381 366.925 191.52 366.863 190.66C366.8 189.801 366.528 188.97 366.07 188.24C365.14 186.792 363.908 185.56 362.46 184.63C360.72 183.4 357.46 181.39 355.2 182.39C353.49 183.15 351.98 185.96 350.51 187.25C346.477 190.786 341.594 193.212 336.34 194.29Z" fill="url(#paint18_linear)"/>
<path d="M577.2 212.07C565.7 214.13 553.97 215.49 542.31 216.64C523.66 218.51 504.92 220.06 486.23 221.33C485.39 208.64 484.72 182.71 486.31 177.33C488.083 170.686 491.999 164.812 497.45 160.62C498.45 160.62 501.3 158.28 502.34 157.76C504.177 156.939 506.064 156.234 507.99 155.65C511.422 154.549 514.914 153.647 518.45 152.95C526.32 151.32 535.63 153.07 543.67 153.42C548.6 153.62 553.67 153.86 558.11 156.05C561.965 158.153 565.231 161.189 567.61 164.88C572.19 171.41 575.89 195.84 577.2 212.07Z" fill="#1A237E"/>
<path d="M519.13 151.52C518.43 153.22 517.54 154.93 517.58 156.77C517.721 158.689 518.561 160.489 519.94 161.83C521.296 163.311 522.974 164.459 524.845 165.186C526.717 165.912 528.73 166.198 530.73 166.02C532.726 165.795 534.625 165.038 536.227 163.828C537.83 162.617 539.078 160.998 539.84 159.14C540.112 158.487 540.257 157.788 540.27 157.08C540.199 156.179 539.997 155.293 539.67 154.45C538.45 150.676 537.931 146.711 538.14 142.75C538.27 140.28 538.49 137.34 536.53 135.83C535.928 135.403 535.249 135.098 534.53 134.93C531.076 133.945 527.414 133.945 523.96 134.93C520.04 136.04 521.14 138.13 521.12 141.44C521.103 144.896 520.427 148.317 519.13 151.52Z" fill="#775339"/>
<path d="M527.66 149.03C530.17 150.08 533.34 149.98 535.33 148.13C537.32 146.28 537.62 143.5 537.89 140.9L538.26 137.31C538.313 137.142 538.322 136.964 538.284 136.792C538.246 136.62 538.164 136.461 538.045 136.331C537.927 136.202 537.776 136.105 537.608 136.052C537.44 135.999 537.262 135.992 537.09 136.03C533.996 135.688 530.878 135.611 527.77 135.8C525.7 135.92 522.77 135.8 521.67 137.97C519.73 142.03 524.17 147.57 527.66 149.03Z" fill="url(#paint19_linear)"/>
<path d="M509.38 127.71C510.612 130.758 512.327 133.588 514.46 136.09C519.71 141.84 528.46 143.77 535.95 141.62C543.44 139.47 549.58 133.62 553.01 126.62C556.44 119.62 557.33 111.56 556.51 103.81C556.06 99.5299 555.03 95.1499 552.38 91.8099C550.205 89.1754 547.358 87.1782 544.14 86.0299C538.377 83.8095 532.021 83.6573 526.158 85.5995C520.295 87.5417 515.288 91.4578 511.99 96.6799C505.73 106.59 504.65 117.02 509.38 127.71Z" fill="#775339"/>
<path d="M502.29 115.22C501.913 115.759 501.661 116.375 501.552 117.024C501.443 117.673 501.48 118.337 501.66 118.97C502.031 120.232 502.665 121.401 503.52 122.4C503.765 122.787 504.088 123.119 504.468 123.374C504.849 123.629 505.279 123.801 505.73 123.88C506.166 123.859 506.59 123.732 506.966 123.511C507.342 123.29 507.659 122.981 507.89 122.61C510.65 118.84 505.81 110.63 502.29 115.22Z" fill="#775339"/>
<path d="M557.73 112.59C558.38 112.564 559.025 112.72 559.59 113.042C560.156 113.364 560.62 113.838 560.93 114.41C561.536 115.572 561.662 116.926 561.28 118.18C560.9 119.422 560.263 120.57 559.41 121.55C558.693 122.544 557.708 123.314 556.57 123.77C555.997 123.984 555.37 124.012 554.78 123.85C554.19 123.689 553.665 123.346 553.28 122.87C553.017 122.457 552.83 121.999 552.73 121.52C552 118.52 554.02 112.93 557.73 112.59Z" fill="#775339"/>
<path d="M508.1 116.62C509.1 116.36 509.21 114.99 509.1 113.96C508.801 108.724 509.939 103.506 512.39 98.87C514.17 100.5 516.97 99.57 519.26 98.7899C529.02 95.4399 539.67 96.5199 549.96 97.4199C550.384 97.4177 550.798 97.5431 551.15 97.7799C551.358 97.9747 551.518 98.214 551.62 98.48C554.027 103.479 555.339 108.933 555.47 114.48C556.484 113.639 557.625 112.964 558.85 112.48C559.39 109.79 558.67 107.03 557.94 104.38C556.44 98.8799 554.82 93.15 551.01 88.9C545.81 83.1 537.42 81.1699 529.64 81.5399C521.13 81.9499 512.13 85.27 507.64 92.54C505.15 96.61 504.39 101.41 504.31 106.11C504.31 108.03 503.92 111 504.64 112.82C505.02 113.67 507.44 116.78 508.1 116.62Z" fill="#606161"/>
<path d="M508.1 116.83C509.1 116.58 509.21 115.21 509.1 114.18C508.8 108.944 509.938 103.726 512.39 99.09C514.17 100.71 516.97 99.79 519.26 99C529.02 95.66 539.67 96.73 549.96 97.64C550.384 97.6377 550.798 97.7632 551.15 98C551.355 98.1929 551.516 98.4284 551.62 98.69C554.024 103.69 555.336 109.144 555.47 114.69C556.486 113.852 557.626 113.177 558.85 112.69C559.39 110 558.67 107.23 557.94 104.59C556.44 99.08 554.82 93.36 551.01 89.11C545.81 83.31 537.42 81.37 529.64 81.75C521.13 82.16 512.13 85.48 507.64 92.75C505.15 96.82 504.39 101.63 504.31 106.33C504.31 108.25 503.92 111.22 504.64 113.04C505.02 113.89 507.44 117 508.1 116.83Z" fill="url(#paint20_linear)"/>
<path d="M510.79 132.21C511.255 133.757 511.928 135.234 512.79 136.6C514.568 138.964 516.928 140.828 519.64 142.01C521.04 142.725 522.512 143.292 524.03 143.7C526.176 144.15 528.369 144.331 530.56 144.24C535.23 144.24 539.89 143.93 544.56 143.63C545.583 143.646 546.594 143.405 547.5 142.93C548.283 142.343 548.903 141.565 549.3 140.67C551.925 136.113 553.557 131.052 554.09 125.82C554.131 123.981 554.268 122.145 554.5 120.32C554.99 117.62 556.28 114.98 555.91 112.26C554.75 112.57 554.11 113.79 553.63 114.9C552.63 117.14 551.74 119.41 550.63 121.59C550.007 122.956 549.177 124.217 548.17 125.33C545.71 127.88 541.96 128.7 538.42 128.99C535.72 129.2 533.01 129.17 530.3 129.12C526.03 129.04 521.48 128.82 517.99 126.37C513.73 123.37 512.25 117.46 507.81 114.8C507.32 115.62 508.06 117.02 508.13 117.93C508.24 119.59 508.39 121.24 508.63 122.93C509.082 126.08 509.805 129.184 510.79 132.21Z" fill="#606161"/>
<path d="M510.79 132.21C511.255 133.757 511.928 135.234 512.79 136.6C514.568 138.964 516.928 140.828 519.64 142.01C521.04 142.725 522.512 143.292 524.03 143.7C526.176 144.15 528.369 144.331 530.56 144.24C535.23 144.24 539.89 143.93 544.56 143.63C545.583 143.646 546.594 143.405 547.5 142.93C548.283 142.343 548.903 141.565 549.3 140.67C551.925 136.113 553.557 131.052 554.09 125.82C554.131 123.981 554.268 122.145 554.5 120.32C554.99 117.62 556.28 114.98 555.91 112.26C554.75 112.57 554.11 113.79 553.63 114.9C552.63 117.14 551.74 119.41 550.63 121.59C550.007 122.956 549.177 124.217 548.17 125.33C545.71 127.88 541.96 128.7 538.42 128.99C535.72 129.2 533.01 129.17 530.3 129.12C526.03 129.04 521.48 128.82 517.99 126.37C513.73 123.37 512.25 117.46 507.81 114.8C507.32 115.62 508.06 117.02 508.13 117.93C508.24 119.59 508.39 121.24 508.63 122.93C509.082 126.08 509.805 129.184 510.79 132.21Z" fill="url(#paint21_linear)"/>
<path d="M534.63 132.36L529.09 132.17C528.232 132.088 527.367 132.17 526.54 132.41C526.126 132.535 525.756 132.774 525.472 133.1C525.187 133.425 524.999 133.823 524.93 134.25C524.944 134.942 525.187 135.61 525.62 136.15C525.849 136.514 526.14 136.836 526.48 137.1C527.19 137.479 528.001 137.63 528.8 137.53L538.8 137.32C539.069 137.334 539.338 137.279 539.58 137.16C539.817 136.994 539.987 136.75 540.06 136.47C540.295 135.76 540.318 134.997 540.126 134.274C539.934 133.552 539.536 132.9 538.98 132.4C537.9 131.6 535.94 132.4 534.63 132.36Z" fill="#775339"/>
</g>
<defs>
<linearGradient id="paint0_linear" x1="255.22" y1="208.25" x2="273.07" y2="208.25" gradientUnits="userSpaceOnUse">
<stop stop-color="#E5C6D6"/>
<stop offset="0.42" stop-color="#EAD4D0"/>
<stop offset="1" stop-color="#F0E9CB"/>
</linearGradient>
<linearGradient id="paint1_linear" x1="3134.43" y1="12080.9" x2="3383.44" y2="12080.9" gradientUnits="userSpaceOnUse">
<stop stop-color="#E5C6D6"/>
<stop offset="0.42" stop-color="#EAD4D0"/>
<stop offset="1" stop-color="#F0E9CB"/>
</linearGradient>
<linearGradient id="paint2_linear" x1="231.42" y1="80.99" x2="228.99" y2="272.82" gradientUnits="userSpaceOnUse">
<stop stop-color="#010101" stop-opacity="0"/>
<stop offset="0.95" stop-color="#010101"/>
</linearGradient>
<linearGradient id="paint3_linear" x1="10949.9" y1="16057.4" x2="11251.1" y2="21206.4" gradientUnits="userSpaceOnUse">
<stop stop-color="#010101" stop-opacity="0"/>
<stop offset="0.95" stop-color="#010101"/>
</linearGradient>
<linearGradient id="paint4_linear" x1="2656.2" y1="6641.34" x2="2813" y2="5725.32" gradientUnits="userSpaceOnUse">
<stop stop-color="#010101" stop-opacity="0"/>
<stop offset="0.95" stop-color="#010101"/>
</linearGradient>
<linearGradient id="paint5_linear" x1="437.591" y1="1689.29" x2="488.966" y2="1673.35" gradientUnits="userSpaceOnUse">
<stop stop-color="#010101" stop-opacity="0"/>
<stop offset="0.95" stop-color="#010101"/>
</linearGradient>
<linearGradient id="paint6_linear" x1="409.36" y1="1298.91" x2="440.419" y2="1305.77" gradientUnits="userSpaceOnUse">
<stop stop-color="#010101" stop-opacity="0"/>
<stop offset="0.95" stop-color="#010101"/>
</linearGradient>
<linearGradient id="paint7_linear" x1="6029.04" y1="11849.5" x2="6728.75" y2="11849.5" gradientUnits="userSpaceOnUse">
<stop stop-color="#E5C6D6"/>
<stop offset="0.42" stop-color="#EAD4D0"/>
<stop offset="1" stop-color="#F0E9CB"/>
</linearGradient>
<linearGradient id="paint8_linear" x1="4650.25" y1="5091.89" x2="4849.36" y2="2763.91" gradientUnits="userSpaceOnUse">
<stop stop-color="#010101" stop-opacity="0"/>
<stop offset="0.95" stop-color="#010101"/>
</linearGradient>
<linearGradient id="paint9_linear" x1="8234.64" y1="13049.5" x2="10146.1" y2="13420.1" gradientUnits="userSpaceOnUse">
<stop stop-color="#E5C6D6"/>
<stop offset="0.42" stop-color="#EAD4D0"/>
<stop offset="1" stop-color="#F0E9CB"/>
</linearGradient>
<linearGradient id="paint10_linear" x1="42682.3" y1="14667.3" x2="42699" y2="8517.24" gradientUnits="userSpaceOnUse">
<stop stop-color="#010101" stop-opacity="0"/>
<stop offset="0.95" stop-color="#010101"/>
</linearGradient>
<linearGradient id="paint11_linear" x1="20295" y1="24198.4" x2="29934.7" y2="12758" gradientUnits="userSpaceOnUse">
<stop stop-color="#010101" stop-opacity="0"/>
<stop offset="0.95" stop-color="#010101"/>
</linearGradient>
<linearGradient id="paint12_linear" x1="17128.8" y1="14242.2" x2="18758.9" y2="14242.2" gradientUnits="userSpaceOnUse">
<stop stop-color="#E5C6D6"/>
<stop offset="0.42" stop-color="#EAD4D0"/>
<stop offset="1" stop-color="#F0E9CB"/>
</linearGradient>
<linearGradient id="paint13_linear" x1="9532.65" y1="6510.04" x2="10715.7" y2="10577.3" gradientUnits="userSpaceOnUse">
<stop stop-color="#010101" stop-opacity="0"/>
<stop offset="0.95" stop-color="#010101"/>
</linearGradient>
<linearGradient id="paint14_linear" x1="11954.8" y1="4163.31" x2="11943.7" y2="4877.83" gradientUnits="userSpaceOnUse">
<stop stop-color="#010101" stop-opacity="0"/>
<stop offset="0.95" stop-color="#010101"/>
</linearGradient>
<linearGradient id="paint15_linear" x1="18873.3" y1="13681.6" x2="19633.2" y2="10854.3" gradientUnits="userSpaceOnUse">
<stop stop-color="#010101" stop-opacity="0"/>
<stop offset="0.95" stop-color="#010101"/>
</linearGradient>
<linearGradient id="paint16_linear" x1="7670.17" y1="5703.01" x2="7982.33" y2="4573.28" gradientUnits="userSpaceOnUse">
<stop stop-color="#010101" stop-opacity="0"/>
<stop offset="0.95" stop-color="#010101"/>
</linearGradient>
<linearGradient id="paint17_linear" x1="11400.5" y1="5066.5" x2="11477.6" y2="4203.59" gradientUnits="userSpaceOnUse">
<stop stop-color="#010101" stop-opacity="0"/>
<stop offset="0.95" stop-color="#010101"/>
</linearGradient>
<linearGradient id="paint18_linear" x1="11206.2" y1="4231.37" x2="11149" y2="3442.59" gradientUnits="userSpaceOnUse">
<stop stop-color="#010101" stop-opacity="0"/>
<stop offset="0.95" stop-color="#010101"/>
</linearGradient>
<linearGradient id="paint19_linear" x1="9601.61" y1="4035.59" x2="9729.72" y2="3581.16" gradientUnits="userSpaceOnUse">
<stop stop-color="#010101" stop-opacity="0"/>
<stop offset="0.95" stop-color="#010101"/>
</linearGradient>
<linearGradient id="paint20_linear" x1="29922.6" y1="7142.3" x2="29908.8" y2="8598.73" gradientUnits="userSpaceOnUse">
<stop stop-color="#010101" stop-opacity="0"/>
<stop offset="0.95" stop-color="#010101"/>
</linearGradient>
<linearGradient id="paint21_linear" x1="25247.5" y1="8328.38" x2="27583.4" y2="8328.38" gradientUnits="userSpaceOnUse">
<stop stop-color="#010101" stop-opacity="0"/>
<stop offset="0.95" stop-color="#010101"/>
</linearGradient>
<clipPath id="clip0">
<rect width="672.61" height="227.94" fill="white"/>
</clipPath>
</defs>
</svg>
