<svg width="516" height="486" viewBox="0 0 516 486" fill="none" xmlns="http://www.w3.org/2000/svg">
<g clip-path="url(#clip0)">
<path opacity="0.42" d="M515.64 339.17C513.77 377.94 480.59 408.43 445.25 424.49C409.91 440.55 370.73 446.78 335.48 463.04C323.87 468.39 312.74 474.81 300.67 479.04C289.733 482.731 278.346 484.917 266.82 485.54C256.693 486.135 246.539 486.075 236.42 485.36L233.55 485.16C224.39 484.493 215.26 483.53 206.16 482.27H206.07C195.18 480.73 184.34 478.71 173.63 476.27H173.56C144.689 469.655 116.641 459.858 89.93 447.06C66.5343 435.659 44.2456 422.115 23.35 406.6C4.91001 393.07 1.92001 384.02 0.510008 360.79C-1.21999 331.79 0.840009 301.57 15.17 275.68C27.08 254.17 46.53 237.35 57.01 215.11C58.8993 211.091 60.5032 206.944 61.81 202.7C63.6797 196.568 65.133 190.317 66.16 183.99C70.09 160.61 69.92 135.99 77.16 113.24C86.72 83.24 108.99 58.38 135.52 41.47C162.05 24.56 192.64 15.04 223.56 9.06997C247.991 4.47641 272.722 1.65903 297.56 0.639975C303.453 0.373309 309.34 0.186641 315.22 0.0799748C324.56 -0.205 333.909 0.0454099 343.22 0.829975C352.402 1.58222 361.447 3.52172 370.13 6.59998C396.66 16.41 416.84 39.44 428.06 65.4C439.28 91.36 442.39 120.11 442.65 148.4C442.83 169.11 441.65 190.4 448.57 209.91C455.93 230.57 471.57 246.91 485.17 264.22C502.22 285.89 516.93 311.6 515.64 339.17Z" fill="#1A237E"/>
<path d="M382.78 403.46C382.32 402.59 381.83 401.76 381.33 400.98C378.103 395.777 376.537 389.715 376.84 383.6C377.05 379.32 378.16 374.87 376.66 370.85C374.79 365.85 369.21 362.98 363.86 362.78C358.51 362.58 353.34 364.52 348.4 366.59C331.031 373.882 314.546 383.121 299.26 394.13C293.73 398.13 288.26 402.4 284.09 407.78C277.09 416.78 274.24 429.24 279.14 439.78C281.01 443.78 283.69 447.71 287.72 449.54C290.481 450.61 293.431 451.103 296.39 450.99C325.251 451.463 353.431 442.205 376.39 424.71C379.21 422.54 383.2 419.64 384.62 416.24C386.34 411.99 384.86 407.36 382.78 403.46Z" fill="#1A237E"/>
<path opacity="0.58" d="M382.78 403.46C382.32 402.59 381.83 401.76 381.33 400.98C378.103 395.777 376.537 389.715 376.84 383.6C377.05 379.32 378.16 374.87 376.66 370.85C374.79 365.85 369.21 362.98 363.86 362.78C358.51 362.58 353.34 364.52 348.4 366.59C331.031 373.882 314.546 383.121 299.26 394.13C293.73 398.13 288.26 402.4 284.09 407.78C277.09 416.78 274.24 429.24 279.14 439.78C281.01 443.78 283.69 447.71 287.72 449.54C290.481 450.61 293.431 451.103 296.39 450.99C325.251 451.463 353.431 442.205 376.39 424.71C379.21 422.54 383.2 419.64 384.62 416.24C386.34 411.99 384.86 407.36 382.78 403.46Z" fill="url(#paint0_linear)"/>
<path d="M385.94 286.43C393.087 291.99 399.96 297.883 406.56 304.11C410.083 307.603 413.781 310.914 417.64 314.03C420.26 316.03 423.05 317.83 425.72 319.77C428.01 321.43 430.21 323.2 432.35 325.05C437.06 329.1 441.55 333.6 444.35 339.14C447.15 344.68 448.09 351.45 445.59 357.14C445.027 358.536 444.143 359.779 443.01 360.77C440.3 362.98 436.38 362.77 432.94 362.1C415.51 358.9 400.12 349.1 385.23 339.47C380.98 336.73 376.56 333.82 374.11 329.4C372.618 326.385 371.699 323.12 371.4 319.77C369.929 308.987 370.091 298.045 371.88 287.31C372.44 283.94 372.74 280.31 376.73 281.13C380.12 281.83 383.25 284.34 385.94 286.43Z" fill="#1A237E"/>
<path d="M322.49 278.53C321.454 284.455 319.208 290.103 315.892 295.121C312.577 300.14 308.263 304.422 303.22 307.7C299.99 309.7 297.86 312.56 295.49 315.06C293.66 317.159 291.332 318.765 288.72 319.73C273.51 324.78 253.48 337.54 238.27 342.59C217.27 349.59 209.93 351.15 187.84 352.48C185.194 352.662 182.538 352.343 180.01 351.54C177.15 350.54 174.92 348.73 174.71 345.78C174.35 340.29 181.3 337.78 186.71 336.72C233.89 327.22 258.09 286.25 301.97 266.49C316.64 259.86 325.53 261.33 322.49 278.53Z" fill="#1A237E"/>
<path opacity="0.58" d="M302.64 292.16L295.51 315.06C293.68 317.159 291.352 318.765 288.74 319.73C273.53 324.78 253.5 337.54 238.29 342.59C217.29 349.59 209.95 351.15 187.86 352.48C185.214 352.662 182.558 352.343 180.03 351.54C180.03 351.13 180.12 350.7 180.19 350.27C180.19 350.27 225.04 345.97 258.57 320.63C292.1 295.29 302.64 292.16 302.64 292.16Z" fill="url(#paint1_linear)"/>
<path d="M318.51 262.88C315.37 262.44 312.04 262.3 309.18 263.65C304.46 265.86 302.34 271.28 300.65 276.21L269.75 366.39C267.07 374.21 264.37 382.62 266.57 390.58C267.44 393.73 269.21 396.79 272.07 398.35C273.501 399.05 275.022 399.548 276.59 399.83C295.71 404.15 314.937 407.98 334.27 411.32C338.81 412.11 343.75 412.81 347.81 410.64C351.32 408.77 353.45 405.12 355.31 401.64C372.967 368.165 381.756 330.725 380.84 292.89C380.93 289.911 380.469 286.941 379.48 284.13C376.22 276.27 366.55 273.71 358.18 272.13C351.28 270.85 344.06 270.13 337.26 268.46C330.86 266.94 325.16 263.71 318.51 262.88Z" fill="#1A237E"/>
<path d="M156.36 335.52C151.7 335.41 146.73 335.67 142.88 338.3C139.03 340.93 137 346.73 139.88 350.42C142.37 353.65 147.08 353.86 151.15 353.78L166.49 353.51C170.28 353.44 174.2 353.34 177.63 351.71C180.21 350.48 182.71 348 183.21 345.08C183.82 341.57 180.61 340.67 177.76 339.45C171.02 336.6 163.64 335.69 156.36 335.52Z" fill="#FADEA5"/>
<path d="M388.32 225.97C387.13 231.67 384.61 236.97 382.1 242.26C378.713 249.4 375.327 256.537 371.94 263.67C369.58 268.67 367.23 273.59 364.43 278.31C362.415 281.786 360.071 285.061 357.43 288.09C355.01 290.79 352.14 293.28 348.65 294.31C346.625 294.894 344.485 294.955 342.431 294.486C340.376 294.017 338.474 293.033 336.904 291.628C335.334 290.222 334.146 288.441 333.453 286.451C332.759 284.461 332.583 282.327 332.94 280.25C333.71 275.91 336.77 272.02 336.54 267.62C336.522 266.823 336.335 266.039 335.99 265.32C335.281 264.23 334.379 263.278 333.33 262.51C331.295 260.669 329.72 258.377 328.731 255.817C327.743 253.257 327.369 250.501 327.64 247.77C328.067 244.838 328.94 241.988 330.23 239.32C332.55 234.03 335.36 228.97 338.05 223.85C339.91 220.27 343.59 215.23 343.34 211.06C343.19 208.56 340.86 206.24 342 203.72C343.7 199.95 350.59 199.16 354.06 198.44C358.979 197.318 364.058 197.081 369.06 197.74C376.14 198.82 383.06 202.66 386.53 208.94C389.31 214.05 389.53 220.26 388.32 225.97Z" fill="#FADEA5"/>
<path d="M352.64 193.65C347.98 193.53 343.15 193.49 338.84 195.28C336.84 196.11 334.84 197.51 334.36 199.6C334.077 201.103 334.343 202.657 335.11 203.98C336.924 207.19 339.847 209.629 343.33 210.84C346.793 212.017 350.406 212.69 354.06 212.84C354.037 213.962 354.287 215.072 354.789 216.075C355.291 217.079 356.029 217.945 356.94 218.6C358.774 219.892 360.909 220.694 363.14 220.93C365.92 221.32 369.24 221.5 370.7 223.93C371.259 225.02 371.531 226.235 371.49 227.46C371.68 233.727 370.221 239.934 367.26 245.46C369.89 245.74 372.21 242.46 374.68 243.37C376.38 244.03 376.68 246.52 375.68 248.01C375.091 248.708 374.362 249.274 373.54 249.672C372.719 250.069 371.823 250.29 370.91 250.32C370.213 250.323 369.527 250.494 368.91 250.82C368.436 251.209 368.068 251.711 367.84 252.28C365.808 256.434 364.373 260.854 363.58 265.41C363.273 266.551 363.343 267.762 363.78 268.86C364.78 270.75 367.53 270.91 369.47 270.01C372.26 268.7 374.04 266.01 375.64 263.33C381.4 253.78 392.08 250.47 393.33 239.39C393.94 233.94 391.26 223 390.79 217.55C390.07 209.02 383.43 203.84 376.59 199.23C369.55 194.44 360.86 193.86 352.64 193.65Z" fill="#3F3D56"/>
<path d="M385.34 234.09C383.48 234.19 381.92 235.46 380.51 236.69C378.623 238.35 376.763 240.05 374.93 241.79C372.916 243.55 371.183 245.607 369.79 247.89C368.612 250.033 368.013 252.445 368.05 254.89C368.02 255.485 368.155 256.077 368.44 256.6C368.806 257.042 369.315 257.343 369.879 257.451C370.443 257.558 371.027 257.466 371.53 257.19C372.524 256.607 373.365 255.794 373.98 254.82C372.183 257.68 371.57 261.126 372.27 264.43C372.993 267.694 374.412 270.764 376.43 273.43C377.808 275.536 379.577 277.359 381.64 278.8C382.025 279.094 382.495 279.256 382.98 279.26C383.374 279.202 383.746 279.044 384.06 278.8C388.202 276.077 391.434 272.176 393.34 267.6C393.65 266.962 393.808 266.26 393.8 265.55C393.716 264.96 393.54 264.386 393.28 263.85C391.861 260.368 391.372 256.578 391.86 252.85C392.35 249.08 394.34 244.73 392.77 241.01C391.54 238.12 388.93 233.88 385.34 234.09Z" fill="#FADEA5"/>
<path d="M455.2 357.76C449.36 362.97 433.07 367.82 421.15 353.92L420.73 353.42C406.24 336.3 398.1 314.6 387.81 294.6C384.89 288.94 381.96 282.72 383.1 276.44C383.908 272.843 385.923 269.632 388.81 267.34C391.174 265.264 394.168 264.046 397.31 263.88C402.85 263.77 407.37 270.32 410.73 274.07C415.32 279.23 419.5 284.71 423.63 290.24C431.72 301.07 439.63 312.24 449.7 321.31C454.75 325.85 460.61 330.25 462.58 336.76C464.84 344.3 461.03 352.54 455.2 357.76Z" fill="#1A237E"/>
<path opacity="0.58" d="M357.08 348.66C360.84 338.07 364.2 327.3 369.08 317.19C369.442 316.214 370.099 315.375 370.96 314.79C372.57 313.91 374.52 314.93 376.05 315.93C392.13 326.535 406.835 339.091 419.83 353.31C416.83 356.62 411.45 354.52 407.63 352.24L377.81 334.42C376.29 345.2 371.22 366.87 365.24 380.17C361.95 387.49 356.66 401.03 351.53 407.17C348.68 410.6 343.73 413.8 331.05 410.48C326.59 409.31 332.6 404.42 334.39 400.83C336.11 397.4 337.87 393.99 339.53 390.53C346.13 376.899 351.988 362.922 357.08 348.66Z" fill="url(#paint2_linear)"/>
<path opacity="0.58" d="M443.93 355.34L420.73 353.42C406.24 336.3 398.1 314.6 387.81 294.6C384.89 288.94 381.96 282.72 383.1 276.44C383.908 272.843 385.923 269.632 388.81 267.34C388.99 270 390.73 278.93 403.38 303.34C414.03 323.88 431.72 346.5 431.72 346.5L443.93 355.34Z" fill="url(#paint3_linear)"/>
<path d="M512.44 351.18H1.15997V362.88H512.44V351.18Z" fill="#1A237E"/>
<path opacity="0.58" d="M512.18 351.44H0.900024V357.03H512.18V351.44Z" fill="url(#paint4_linear)"/>
<path d="M341.82 285.33C341.15 285.874 340.368 286.264 339.53 286.47C338.734 286.73 337.887 286.793 337.061 286.653C336.236 286.513 335.456 286.175 334.79 285.668C334.124 285.16 333.591 284.498 333.238 283.739C332.884 282.98 332.72 282.147 332.76 281.31C332.76 280.96 332.84 280.6 332.9 280.25C333.67 275.91 336.73 272.02 336.5 267.62C336.482 266.823 336.295 266.039 335.95 265.32C340.627 267.758 345.984 268.561 351.17 267.6C359.37 265.83 343.97 283.19 341.82 285.33Z" fill="url(#paint5_linear)"/>
<path d="M362.57 391.9C362.42 400.67 359.35 409.2 356.05 417.38C353.9 422.71 351.52 428.21 347.16 431.97C340.16 438.03 330.02 438.18 320.78 438.03C307.78 437.81 294.78 437.47 281.96 436.63C268.14 435.71 254.33 439.81 240.52 439.81C229.85 439.98 217.11 438 210.72 449.33C206.72 456.39 208.58 472.14 206.12 482.27H206.03C195.143 480.723 184.33 478.723 173.59 476.27H173.52C171.61 467.13 171.52 455.27 171.09 448.82C170.503 439.7 170.1 430.567 169.88 421.42C169.76 416.83 169.74 412.06 171.63 407.87C176.04 398.18 188.38 395.61 198.96 394.44C223.96 391.61 250.49 385.95 275.61 385.86C304.61 385.77 333.67 387.54 362.54 389.38C362.64 390.2 362.64 391.06 362.57 391.9Z" fill="#3F3D56"/>
<path opacity="0.58" d="M362.57 391.9C362.42 400.67 359.35 409.2 356.05 417.38C353.9 422.71 351.52 428.21 347.16 431.97C340.16 438.03 330.02 438.18 320.78 438.03C307.78 437.81 294.78 437.47 281.96 436.63C268.14 435.71 254.33 439.81 240.52 439.81C229.85 439.98 217.11 438 210.72 449.33C206.72 456.49 208.62 472.27 206.03 482.25C195.143 480.703 184.33 478.703 173.59 476.25C171.47 467.44 171.52 455.53 171.09 448.79C170.503 439.67 170.1 430.537 169.88 421.39C169.76 416.8 169.74 412.03 171.63 407.84C176.04 398.15 188.38 395.58 198.96 394.41C223.96 391.58 250.49 385.92 275.61 385.83C304.61 385.74 333.67 387.51 362.54 389.35C362.64 390.2 362.64 391.06 362.57 391.9Z" fill="url(#paint6_linear)"/>
<path d="M347.93 430.41C341.48 435.74 333.24 438.41 325.08 440.35C310.059 443.943 294.629 445.537 279.19 445.09C275.74 444.99 271.7 445.09 269.66 447.85C268.87 449.119 268.368 450.546 268.19 452.03C266.513 461.243 265.946 470.623 266.5 479.97C266.5 480.27 266.64 482.59 266.78 485.54C256.65 486.135 246.492 486.075 236.37 485.36L233.51 485.16C232.8 472.42 231.96 457.05 231.51 449.36C231.05 441.17 230.61 432.83 232.51 424.84C234.41 416.85 238.85 409.09 246.08 405.2C249.79 403.2 253.99 402.32 258.08 401.47C273.3 398.33 278.31 394.12 293.62 391.42L320.14 386.54C329.02 388.7 360.77 382.94 362.54 391.9C364.21 400.13 354.4 425.08 347.93 430.41Z" fill="#3F3D56"/>
<path d="M300.83 440.1C295.31 440.18 289.83 439.75 284.29 439.57C280.86 439.45 277.29 439.45 274.13 440.68C270.97 441.91 268.13 444.63 267.67 448.04C267.18 452.15 270.39 455.99 274.21 457.59C278.03 459.19 282.32 459.1 286.46 458.97L306.32 458.33C320.21 457.89 334.47 457.33 347.27 451.96C356.44 448.1 364.41 441.91 372.02 435.5C375.61 432.5 379.2 429.33 381.79 425.4C384.38 421.47 385.87 416.62 384.87 412.02C384.19 408.86 381.82 405.68 378.58 405.57C372.33 405.37 368.84 414.43 365.66 418.49C361.6 423.67 353.74 426.03 347.84 428.59C333 435.03 317.12 439.89 300.83 440.1Z" fill="#1A237E"/>
<path d="M266.45 90.5299L265.53 90.9999C265.705 90.764 265.892 90.5371 266.09 90.3199C266.21 90.3899 266.33 90.4499 266.45 90.5299Z" fill="white"/>
<path d="M266.45 90.5299L265.53 90.9999C265.705 90.764 265.892 90.5371 266.09 90.3199C266.21 90.3899 266.33 90.4499 266.45 90.5299Z" fill="white"/>
<path opacity="0.68" d="M310.64 105.85C313.061 100.213 313.707 93.9723 312.492 87.959C311.277 81.9457 308.259 76.4452 303.84 72.19C309.81 68.0134 314.574 62.3376 317.653 55.7341C320.732 49.1305 322.017 41.8324 321.378 34.5744C320.74 27.3164 318.2 20.3548 314.015 14.3905C309.83 8.42615 304.148 3.66969 297.54 0.599976C272.702 1.61903 247.971 4.43641 223.54 9.02998C192.65 15.03 162.01 24.52 135.48 41.43C108.95 58.34 86.7 83.26 77.14 113.24C69.92 135.94 70.14 160.61 66.14 183.99C65.1129 190.317 63.6596 196.568 61.79 202.7C65.0539 209.556 69.8774 215.553 75.8745 220.211C81.8716 224.869 88.8758 228.059 96.3265 229.524C103.777 230.99 111.468 230.691 118.782 228.652C126.097 226.612 132.832 222.889 138.45 217.78C140.053 227.958 144.846 237.364 152.137 244.644C159.429 251.924 168.843 256.701 179.023 258.288C189.204 259.875 199.625 258.189 208.786 253.474C217.947 248.759 225.375 241.257 230 232.05C238.495 240.033 249.574 244.699 261.22 245.199C272.866 245.7 284.305 242.001 293.453 234.777C302.602 227.552 308.851 217.283 311.064 205.838C313.277 194.393 311.306 182.534 305.51 172.42C311.357 170.89 316.715 167.887 321.072 163.697C325.43 159.508 328.641 154.273 330.4 148.49C330.918 146.796 331.303 145.064 331.55 143.31C332.673 135.635 331.233 127.804 327.452 121.031C323.672 114.259 317.762 108.922 310.64 105.85ZM259.9 74.49C260.03 74.56 260.17 74.63 260.29 74.71L259.29 75.23C259.476 74.9695 259.68 74.7223 259.9 74.49Z" fill="white"/>
<path opacity="0.68" d="M282.06 47.1599C282.24 46.9099 282.44 46.6599 282.65 46.4199C282.788 46.4852 282.921 46.5586 283.05 46.6399L282.06 47.1599ZM354.69 110.16C354.69 103.271 352.674 96.5328 348.891 90.7756C345.108 85.0185 339.723 80.494 333.4 77.7599C335.822 72.1311 336.472 65.8983 335.265 59.8907C334.057 53.8832 331.049 48.3858 326.64 44.1299C332.103 40.3029 336.562 35.2134 339.636 29.294C342.711 23.3745 344.311 16.8002 344.3 10.1299C344.299 6.99055 343.946 3.86114 343.25 0.799946C333.939 0.0153806 324.59 -0.23503 315.25 0.0499455C309.363 0.156612 303.477 0.343279 297.59 0.609946C272.752 1.629 248.021 4.44638 223.59 9.03995C192.7 15.0399 162.06 24.5299 135.53 41.4399C109 58.3499 86.7 83.2599 77.14 113.24C69.92 135.94 70.14 160.61 66.14 183.99C86.65 194.24 115.7 202.37 128.49 202.37C140.596 202.389 152.269 197.872 161.21 189.71C162.807 199.892 167.597 209.304 174.888 216.588C182.18 223.872 191.596 228.653 201.78 230.24C211.963 231.828 222.388 230.14 231.55 225.42C240.713 220.7 248.14 213.193 252.76 203.98C260.969 211.672 271.589 216.282 282.814 217.027C294.039 217.771 305.175 214.603 314.327 208.062C323.479 201.52 330.082 192.01 333.013 181.149C335.943 170.288 335.02 158.747 330.4 148.49C329.76 147.075 329.049 145.693 328.27 144.35C329.38 144.072 330.474 143.739 331.55 143.35C338.343 140.861 344.206 136.343 348.345 130.41C352.484 124.477 354.699 117.414 354.69 110.18V110.16Z" fill="white"/>
<path d="M266.45 90.5299L265.53 90.9999C265.705 90.764 265.892 90.5371 266.09 90.3199C266.21 90.3899 266.33 90.4499 266.45 90.5299Z" fill="white"/>
<path d="M115.56 252.13H88.24V350.93H115.56V252.13Z" fill="#1A237E"/>
<path d="M55.24 287.49H27.92V350.93H55.24V287.49Z" fill="#1A237E"/>
<path d="M85.68 252.13H58.36V350.93H85.68V252.13Z" fill="#1A237E"/>
<path opacity="0.58" d="M115.56 252.13H88.24V350.93H115.56V252.13Z" fill="url(#paint7_linear)"/>
<path opacity="0.58" d="M55.24 287.49H27.92V350.93H55.24V287.49Z" fill="url(#paint8_linear)"/>
<path opacity="0.58" d="M85.68 252.13H58.36V350.93H85.68V252.13Z" fill="url(#paint9_linear)"/>
<path opacity="0.58" d="M115.48 292.29H88.19V320.61H115.48V292.29Z" fill="url(#paint10_linear)"/>
<path opacity="0.58" d="M85.63 292.29H58.45V320.61H85.63V292.29Z" fill="url(#paint11_linear)"/>
<path opacity="0.58" d="M55.07 292.41H27.89V320.73H55.07V292.41Z" fill="url(#paint12_linear)"/>
<path d="M127.99 333.25H15.71V351.46H127.99V333.25Z" fill="#1A237E"/>
<path opacity="0.68" d="M319.16 218.95C322.512 218.95 325.23 216.232 325.23 212.88C325.23 209.528 322.512 206.81 319.16 206.81C315.808 206.81 313.09 209.528 313.09 212.88C313.09 216.232 315.808 218.95 319.16 218.95Z" fill="white"/>
<path opacity="0.68" d="M328.93 224.14C330.863 224.14 332.43 222.573 332.43 220.64C332.43 218.707 330.863 217.14 328.93 217.14C326.997 217.14 325.43 218.707 325.43 220.64C325.43 222.573 326.997 224.14 328.93 224.14Z" fill="white"/>
<path d="M225.08 87.46C225.08 87.46 231.66 75.82 254.42 84.93C277.18 94.04 281.73 101.62 281.73 106.17C281.73 110.72 277.73 133.98 277.73 133.98L190.44 158.26L141.89 128.67L148.89 110.89L223.07 92.34L225.08 87.46Z" fill="#1A237E"/>
<path d="M231.28 98.6699C232.96 100.05 235.18 100.54 237.28 101.17C246.74 104 254.74 110.25 262.49 116.37C263.316 116.829 263.967 117.55 264.34 118.418C264.712 119.287 264.786 120.255 264.55 121.17L263.38 136.6L226.51 140.6C222.432 140.913 218.391 141.603 214.44 142.66C206.9 144.94 200.37 149.82 192.83 152.09C191.968 152.455 191.002 152.483 190.12 152.17C189.733 151.911 189.402 151.576 189.148 151.186C188.893 150.796 188.721 150.359 188.64 149.9C187.64 146.5 188.16 142.81 187.11 139.45C185.97 135.83 183.17 132.98 180.2 130.61C175.974 127.413 171.511 124.541 166.85 122.02L155.85 115.74C152.31 113.74 148.35 111.6 144.36 112.45C144 111.45 144.64 110.45 145.3 109.67C149.21 105.01 154.84 102.15 160.51 99.9399C170.57 96.0299 181.19 93.8199 191.83 92.1099C197.28 91.2399 202.74 90.5099 208.21 89.7299C212.08 89.1799 217.08 87.3899 220.96 88.4499C226.69 90.0099 227.27 95.3799 231.28 98.6699Z" fill="#1A237E"/>
<path opacity="0.68" d="M261.9 88.09C261.414 87.8442 260.883 87.698 260.34 87.66C258.69 87.66 257.78 89.49 256.75 90.78C255.52 92.32 253.75 93.3 252.22 94.54C249.653 96.6319 247.786 99.458 246.87 102.64C246.759 102.962 246.705 103.3 246.71 103.64C246.761 104.071 246.923 104.481 247.18 104.83C247.804 105.678 248.557 106.423 249.41 107.04C251.81 108.96 254.233 110.863 256.68 112.75C258.35 114.03 260.31 115.37 262.37 114.95C264.11 114.6 268.16 113.72 269.32 112.38C272.04 109.23 271.48 109.63 274.95 107.32C276.56 106.25 280.02 101.13 278.75 99.08C277.461 97.2288 275.84 95.632 273.97 94.37C270.213 91.8007 266.16 89.6923 261.9 88.09Z" fill="white"/>
<path d="M257.92 110.5C257.841 109.479 257.368 108.528 256.6 107.85C256.261 107.581 255.896 107.347 255.51 107.15L249.36 103.71C248.877 103.424 248.372 103.176 247.85 102.97C247.422 102.816 246.985 102.693 246.54 102.6C244.935 102.149 243.262 101.986 241.6 102.12C241.33 102.12 241.02 102.25 240.92 102.5C241.454 102.929 242.056 103.267 242.7 103.5C247.7 105.74 250.7 110.84 255.37 113.71C256.01 114.1 257.28 114.54 257.52 113.48C257.808 112.514 257.943 111.508 257.92 110.5Z" fill="#1A237E"/>
<path opacity="0.58" d="M257.72 112.65C252.46 108.65 246.99 104.9 240.95 102.46C241.022 102.358 241.118 102.274 241.23 102.217C241.341 102.159 241.465 102.13 241.59 102.13C243.252 101.976 244.927 102.135 246.53 102.6C246.978 102.693 247.419 102.816 247.85 102.97C248.368 103.178 248.87 103.426 249.35 103.71L255.51 107.15C255.895 107.352 256.259 107.59 256.6 107.86C257.365 108.536 257.839 109.482 257.92 110.5C257.963 111.223 257.895 111.948 257.72 112.65Z" fill="url(#paint13_linear)"/>
<path d="M250.56 106.33C250.479 106.63 250.519 106.949 250.67 107.22C250.88 107.488 251.184 107.666 251.52 107.72C252.42 107.92 253.359 107.853 254.222 107.528C255.085 107.203 255.835 106.634 256.38 105.89C256.477 105.776 256.549 105.644 256.592 105.501C256.635 105.358 256.648 105.208 256.63 105.06C256.53 104.66 256.06 104.48 255.63 104.38C254.71 104.13 253.1 103.29 252.3 103.93C251.471 104.516 250.859 105.36 250.56 106.33Z" fill="#FADEA5"/>
<path opacity="0.68" d="M272.03 100.4C271.355 100.612 270.715 100.922 270.13 101.32C269.445 101.926 268.858 102.634 268.39 103.42C267.058 105.343 265.5 107.099 263.75 108.65C262.905 109.303 262.157 110.075 261.53 110.94C261.221 111.37 261.032 111.874 260.981 112.401C260.93 112.928 261.019 113.459 261.24 113.94C263.965 113.797 266.617 113.003 268.972 111.625C271.328 110.247 273.319 108.325 274.78 106.02C275.379 104.861 276.103 103.771 276.94 102.77C277.379 102.379 277.787 101.955 278.16 101.5C278.341 101.268 278.458 100.992 278.498 100.701C278.539 100.409 278.501 100.112 278.39 99.8399C277.41 98.0199 273.29 99.94 272.03 100.4Z" fill="white"/>
<path opacity="0.68" d="M240.15 73.67C239.667 73.4267 239.14 73.2838 238.6 73.25C236.95 73.25 236.03 75.08 235 76.37C233.77 77.9 232 78.88 230.47 80.12C227.903 82.2118 226.036 85.038 225.12 88.22C225.014 88.5424 224.963 88.8806 224.97 89.22C225.017 89.6529 225.176 90.0663 225.43 90.42C226.05 91.256 226.796 91.9913 227.64 92.6C230.04 94.5267 232.463 96.43 234.91 98.31C236.64 99.6 238.56 100.98 240.64 100.6C242.38 100.25 246.43 99.37 247.64 98.03C250.37 94.88 249.81 95.28 253.27 92.97C254.88 91.9 258.34 86.78 257.07 84.72C255.778 82.8711 254.158 81.2748 252.29 80.01C248.56 77.26 244.33 75.44 240.15 73.67Z" fill="white"/>
<path opacity="0.68" d="M250.28 85.98C249.606 86.1919 248.969 86.5055 248.39 86.91C247.699 87.5129 247.108 88.2218 246.64 89.01C245.317 90.9338 243.762 92.687 242.01 94.23C241.164 94.8859 240.413 95.6567 239.78 96.52C239.477 96.9525 239.291 97.4561 239.24 97.9818C239.189 98.5075 239.275 99.0374 239.49 99.52C242.215 99.3744 244.865 98.5797 247.22 97.202C249.576 95.8243 251.568 93.9036 253.03 91.6C253.636 90.4395 254.363 89.3467 255.2 88.34C255.636 87.9525 256.04 87.5312 256.41 87.08C256.59 86.8476 256.706 86.572 256.747 86.2807C256.787 85.9894 256.75 85.6926 256.64 85.42C255.64 83.6 251.54 85.53 250.28 85.98Z" fill="white"/>
<path d="M251.44 100.22C250.797 101.088 250.446 102.139 250.44 103.22C250.62 104.77 252.17 105.82 253.69 106.16C255.313 106.475 256.994 106.295 258.514 105.642C260.033 104.989 261.321 103.895 262.21 102.5C262.57 101.958 262.837 101.36 263 100.73C263.205 99.7626 263.119 98.756 262.753 97.8375C262.386 96.919 261.755 96.1299 260.94 95.57C256.51 92.6 253.43 96.69 251.44 100.22Z" fill="#FADEA5"/>
<path d="M255.82 93.3699C255.55 93.3699 255.23 93.3699 255.11 93.6599C255.071 93.7497 255.059 93.849 255.077 93.9453C255.095 94.0415 255.141 94.1302 255.21 94.1999C255.343 94.3376 255.503 94.4466 255.68 94.5199L256.68 95C256.871 95.0689 257.045 95.1781 257.19 95.32C257.337 95.5012 257.449 95.708 257.52 95.93C257.692 96.5346 258.089 97.0501 258.63 97.3699C258.902 97.4447 259.16 97.5665 259.39 97.7299C259.593 98.0288 259.724 98.3714 259.77 98.7299C259.873 99.0684 260.075 99.3681 260.35 99.5899C260.722 99.7797 261.06 100.03 261.35 100.33C261.478 100.557 261.54 100.815 261.527 101.075C261.515 101.335 261.429 101.586 261.28 101.8C260.978 102.225 260.644 102.626 260.28 103C260.39 103.17 260.65 103.15 260.84 103.07C261.016 102.96 261.223 102.907 261.43 102.92C261.485 103.014 261.508 103.123 261.496 103.232C261.483 103.34 261.436 103.441 261.36 103.52C261.211 103.676 261.03 103.799 260.83 103.88L260.06 104.24C259.85 104.34 259.6 104.52 259.69 104.74C259.78 104.96 260.13 104.91 260.36 104.74C261.806 104.137 262.975 103.018 263.64 101.6C263.868 100.928 263.963 100.218 263.92 99.51C263.92 98.83 263.8 98.15 263.71 97.51C263.677 97.0958 263.565 96.6919 263.38 96.32C262.93 95.57 261.96 95.32 261.24 94.85C260.764 94.4344 260.267 94.0439 259.75 93.68C259.205 93.4208 258.601 93.3104 258 93.36C257.28 93.37 256.55 93.3499 255.82 93.3699Z" fill="#3F3D56"/>
<path opacity="0.58" d="M264.56 121.17C264.18 126.31 263.79 131.453 263.39 136.6L226.54 140.6C222.457 140.911 218.413 141.604 214.46 142.67C206.92 144.94 200.38 149.82 192.85 152.09C191.988 152.455 191.022 152.483 190.14 152.17C189.751 151.911 189.417 151.577 189.16 151.187C188.902 150.797 188.725 150.359 188.64 149.9C187.64 146.5 188.16 142.81 187.11 139.45C185.97 135.83 183.17 132.98 180.2 130.61C175.976 127.412 171.513 124.544 166.85 122.03C163.203 119.93 159.537 117.833 155.85 115.74C152.31 113.74 148.35 111.6 144.36 112.44C144.01 111.44 144.64 110.44 145.3 109.67C149.21 105.02 154.84 102.15 160.5 99.9399C170.57 96.0299 181.2 93.8199 191.83 92.1099C197.28 91.2399 202.74 90.4999 208.2 89.7299C212.08 89.1799 217.09 87.3899 220.96 88.4499C226.68 90.0099 227.26 95.3799 231.27 98.6699C232.95 100.05 235.17 100.54 237.27 101.16C238.52 101.54 239.75 101.97 240.95 102.46C246.95 104.9 252.46 108.65 257.72 112.65C259.32 113.88 260.91 115.13 262.48 116.37C263.301 116.834 263.948 117.555 264.32 118.422C264.692 119.289 264.769 120.255 264.54 121.17H264.56Z" fill="url(#paint14_linear)"/>
<path d="M242.02 103.86C241.9 104.07 241.81 104.36 242.02 104.53C242.666 104.396 243.246 104.043 243.66 103.53C243.45 103.74 243.16 103.86 242.96 104.08C242.907 104.131 242.865 104.193 242.836 104.261C242.808 104.328 242.793 104.401 242.793 104.475C242.793 104.549 242.808 104.622 242.836 104.689C242.865 104.757 242.907 104.819 242.96 104.87C243.073 104.926 243.201 104.945 243.325 104.923C243.449 104.902 243.563 104.841 243.65 104.75C243.822 104.563 244.025 104.407 244.25 104.29C243.91 104.53 243.53 104.83 243.5 105.29C243.486 105.368 243.497 105.449 243.531 105.521C243.565 105.592 243.621 105.652 243.69 105.69C243.762 105.71 243.838 105.714 243.913 105.702C243.987 105.69 244.058 105.662 244.12 105.62C244.543 105.398 244.937 105.122 245.29 104.8C245.034 104.904 244.81 105.073 244.64 105.29C244.56 105.402 244.526 105.541 244.547 105.677C244.568 105.814 244.64 105.936 244.75 106.02C244.828 106.062 244.916 106.084 245.005 106.084C245.094 106.084 245.182 106.062 245.26 106.02C245.402 105.894 245.529 105.753 245.64 105.6C245.894 105.414 246.183 105.281 246.49 105.21C246.575 105.195 246.656 105.165 246.73 105.12C246.78 105.072 246.816 105.011 246.835 104.945C246.855 104.878 246.856 104.807 246.84 104.74C246.7 103.74 245.17 103.44 244.45 103.06C244.243 102.93 244.01 102.847 243.768 102.817C243.525 102.788 243.279 102.812 243.047 102.888C242.815 102.965 242.602 103.091 242.425 103.259C242.247 103.427 242.109 103.632 242.02 103.86Z" fill="#FADEA5"/>
<path d="M251.64 109.68C251.52 109.89 251.42 110.18 251.64 110.35C252.284 110.212 252.862 109.859 253.28 109.35C253.07 109.56 252.78 109.68 252.57 109.9C252.36 110.12 252.29 110.51 252.57 110.68C252.684 110.737 252.814 110.756 252.94 110.735C253.066 110.713 253.181 110.652 253.27 110.56C253.442 110.374 253.645 110.218 253.87 110.1C253.53 110.35 253.15 110.64 253.12 111.1C253.108 111.177 253.118 111.256 253.15 111.327C253.182 111.398 253.234 111.458 253.3 111.5C253.374 111.52 253.452 111.525 253.528 111.513C253.603 111.5 253.676 111.472 253.74 111.43C254.164 111.204 254.557 110.925 254.91 110.6C254.651 110.702 254.425 110.875 254.26 111.1C254.18 111.212 254.147 111.351 254.167 111.487C254.188 111.624 254.26 111.747 254.37 111.83C254.449 111.87 254.536 111.89 254.625 111.89C254.714 111.89 254.801 111.87 254.88 111.83C255.031 111.738 255.175 111.635 255.31 111.52C255.564 111.332 255.853 111.196 256.16 111.12C256.246 111.11 256.328 111.079 256.4 111.03C256.448 110.981 256.483 110.92 256.503 110.854C256.522 110.788 256.524 110.718 256.51 110.65C256.36 109.65 254.83 109.35 254.12 108.97C253.918 108.828 253.686 108.733 253.442 108.693C253.198 108.652 252.948 108.666 252.711 108.734C252.473 108.802 252.254 108.922 252.068 109.086C251.883 109.25 251.737 109.453 251.64 109.68Z" fill="#FADEA5"/>
</g>
<defs>
<linearGradient id="paint0_linear" x1="374.39" y1="374.84" x2="291.71" y2="452.06" gradientUnits="userSpaceOnUse">
<stop offset="0.01"/>
<stop offset="0.13" stop-opacity="0.69"/>
<stop offset="1" stop-opacity="0"/>
</linearGradient>
<linearGradient id="paint1_linear" x1="32648.4" y1="22504" x2="31521.8" y2="18357" gradientUnits="userSpaceOnUse">
<stop offset="0.01"/>
<stop offset="0.13" stop-opacity="0.69"/>
<stop offset="1" stop-opacity="0"/>
</linearGradient>
<linearGradient id="paint2_linear" x1="38774.8" y1="46877.6" x2="27398.7" y2="27433" gradientUnits="userSpaceOnUse">
<stop offset="0.01"/>
<stop offset="0.13" stop-opacity="0.69"/>
<stop offset="1" stop-opacity="0"/>
</linearGradient>
<linearGradient id="paint3_linear" x1="23881.1" y1="30212" x2="27724.1" y2="28915" gradientUnits="userSpaceOnUse">
<stop offset="0.01"/>
<stop offset="0.13" stop-opacity="0.69"/>
<stop offset="1" stop-opacity="0"/>
</linearGradient>
<linearGradient id="paint4_linear" x1="132085" y1="2194.91" x2="132085" y2="2613.44" gradientUnits="userSpaceOnUse">
<stop offset="0.01"/>
<stop offset="0.13" stop-opacity="0.69"/>
<stop offset="1" stop-opacity="0"/>
</linearGradient>
<linearGradient id="paint5_linear" x1="6755.33" y1="5887.75" x2="8217.75" y2="6801.33" gradientUnits="userSpaceOnUse">
<stop offset="0.01"/>
<stop offset="0.13" stop-opacity="0.69"/>
<stop offset="1" stop-opacity="0"/>
</linearGradient>
<linearGradient id="paint6_linear" x1="53983.8" y1="43566.1" x2="33682.1" y2="21601.9" gradientUnits="userSpaceOnUse">
<stop offset="0.01"/>
<stop offset="0.13" stop-opacity="0.69"/>
<stop offset="1" stop-opacity="0"/>
</linearGradient>
<linearGradient id="paint7_linear" x1="2127.68" y1="30080.8" x2="5043.54" y2="30069.3" gradientUnits="userSpaceOnUse">
<stop offset="0.01"/>
<stop offset="0.13" stop-opacity="0.69"/>
<stop offset="1" stop-opacity="0"/>
</linearGradient>
<linearGradient id="paint8_linear" x1="148.128" y1="20478.5" x2="4175.54" y2="20522.2" gradientUnits="userSpaceOnUse">
<stop offset="0.01"/>
<stop offset="0.13" stop-opacity="0.69"/>
<stop offset="1" stop-opacity="0"/>
</linearGradient>
<linearGradient id="paint9_linear" x1="1323.82" y1="30036.4" x2="5063.68" y2="30038.9" gradientUnits="userSpaceOnUse">
<stop offset="0.01"/>
<stop offset="0.13" stop-opacity="0.69"/>
<stop offset="1" stop-opacity="0"/>
</linearGradient>
<linearGradient id="paint10_linear" x1="2863.04" y1="8204.61" x2="2877.73" y2="10632.2" gradientUnits="userSpaceOnUse">
<stop offset="0.01"/>
<stop offset="0.13" stop-opacity="0.69"/>
<stop offset="1" stop-opacity="0"/>
</linearGradient>
<linearGradient id="paint11_linear" x1="2012.15" y1="8204.89" x2="2027.2" y2="10631.9" gradientUnits="userSpaceOnUse">
<stop offset="0.01"/>
<stop offset="0.13" stop-opacity="0.69"/>
<stop offset="1" stop-opacity="0"/>
</linearGradient>
<linearGradient id="paint12_linear" x1="1150.97" y1="8208.42" x2="1166.02" y2="10635.7" gradientUnits="userSpaceOnUse">
<stop offset="0.01"/>
<stop offset="0.13" stop-opacity="0.69"/>
<stop offset="1" stop-opacity="0"/>
</linearGradient>
<linearGradient id="paint13_linear" x1="4542.43" y1="1369.1" x2="4556.82" y2="1321.36" gradientUnits="userSpaceOnUse">
<stop offset="0.01"/>
<stop offset="0.13" stop-opacity="0.69"/>
<stop offset="1" stop-opacity="0"/>
</linearGradient>
<linearGradient id="paint14_linear" x1="23914.3" y1="3920.25" x2="25330.1" y2="19637.9" gradientUnits="userSpaceOnUse">
<stop offset="0.01"/>
<stop offset="0.13" stop-opacity="0.69"/>
<stop offset="1" stop-opacity="0"/>
</linearGradient>
<clipPath id="clip0">
<rect width="515.69" height="485.96" fill="white"/>
</clipPath>
</defs>
</svg>
