<svg width="385" height="386" viewBox="0 0 385 386" fill="none" xmlns="http://www.w3.org/2000/svg">
<g clip-path="url(#clip0)">
<path opacity="0.18" d="M374.77 185.24C368.53 213.907 362.287 242.553 356.04 271.18C353.6 282.37 351.14 293.63 346.75 304.18C343.565 311.83 339.371 319.021 334.28 325.56C318.87 345.44 295.7 359.38 270.73 362.78C254.81 364.95 238.54 363.12 222.65 365.49C202.59 368.49 184.07 378.01 164.26 382.34C135.98 388.53 106.04 383.77 79.26 372.73C58.17 364.04 22.0801 348.42 8.01005 325.58C5.22468 321.203 3.35066 316.308 2.50005 311.19C-4.49995 266.09 4.17005 210.75 19.1001 168.07C48.1001 85.07 123.69 20.13 210.1 3.87C242.87 -2.29 277.53 -1.73 308.65 10.24C339.77 22.21 366.9 46.47 378.01 77.91C390.12 112.12 382.5 149.78 374.77 185.24Z" fill="#1A237E"/>
<path d="M334.28 325.58C318.87 345.46 295.7 359.4 270.73 362.8C254.81 364.97 238.54 363.14 222.65 365.51C202.59 368.51 184.07 378.03 164.26 382.36C135.98 388.55 106.04 383.79 79.26 372.75C58.17 364.04 22.08 348.42 8.01001 325.58H334.28Z" fill="#1A237E"/>
<path d="M190.06 331.37C157.86 323.91 124.28 326.97 91.3799 330.06C88.3799 330.34 85.2699 330.66 82.7099 332.24C80.1499 333.82 78.3599 337.09 79.4499 339.9C80.4499 342.37 83.1099 343.63 85.6299 344.47C101.63 349.88 118.99 348.59 135.86 347.82C190.52 345.34 245.86 349.02 299.45 337.73C304.91 336.58 310.75 335.03 314.26 330.73C304.21 325.62 292.09 327.02 281.26 330.12C270.43 333.22 259.95 337.93 248.75 339.17C242.46 339.86 240.35 333.26 235.14 330.87C231.14 329.03 228.53 329.49 224.43 330.73C211.72 334.55 203.21 334.42 190.06 331.37Z" fill="url(#paint0_linear)"/>
<path d="M150.7 325.69C149.166 325.681 147.662 325.256 146.35 324.461C145.037 323.665 143.965 322.529 143.247 321.173C142.529 319.817 142.192 318.292 142.272 316.759C142.351 315.227 142.845 313.744 143.7 312.47C144.518 311.251 145.638 310.265 146.951 309.608C148.264 308.951 149.725 308.645 151.191 308.722C152.658 308.798 154.079 309.253 155.317 310.043C156.555 310.833 157.566 311.93 158.253 313.227C158.94 314.525 159.279 315.978 159.237 317.446C159.194 318.914 158.772 320.345 158.011 321.601C157.25 322.856 156.176 323.893 154.895 324.61C153.614 325.327 152.168 325.699 150.7 325.69ZM147.81 315.26C147.426 315.833 147.22 316.507 147.219 317.197C147.217 317.887 147.421 318.562 147.803 319.136C148.185 319.71 148.728 320.159 149.365 320.424C150.002 320.69 150.703 320.761 151.38 320.629C152.057 320.496 152.679 320.166 153.169 319.679C153.658 319.193 153.992 318.573 154.129 317.897C154.266 317.221 154.2 316.519 153.938 315.881C153.677 315.242 153.232 314.696 152.66 314.31C151.89 313.794 150.948 313.605 150.039 313.783C149.13 313.961 148.328 314.492 147.81 315.26Z" fill="#2E2E3F"/>
<path d="M88.49 325.69C86.9541 325.684 85.4486 325.262 84.1342 324.467C82.8199 323.672 81.746 322.536 81.0273 321.178C80.3085 319.821 79.972 318.294 80.0535 316.76C80.1349 315.226 80.6315 313.744 81.49 312.47C82.308 311.251 83.4282 310.265 84.7412 309.608C86.0542 308.951 87.5152 308.645 88.9814 308.722C90.4476 308.798 91.869 309.253 93.1067 310.043C94.3445 310.833 95.3563 311.93 96.0433 313.227C96.7304 314.525 97.0692 315.978 97.0267 317.446C96.9842 318.914 96.5618 320.345 95.8008 321.601C95.0398 322.856 93.9662 323.893 92.6849 324.61C91.4035 325.327 89.9582 325.699 88.49 325.69ZM85.61 315.26C85.2246 315.833 85.0177 316.507 85.0156 317.198C85.0135 317.888 85.2163 318.564 85.5982 319.139C85.9802 319.714 86.5242 320.163 87.1614 320.429C87.7985 320.695 88.5003 320.766 89.1778 320.633C89.8553 320.5 90.4782 320.169 90.9676 319.682C91.4569 319.195 91.7909 318.574 91.927 317.897C92.0632 317.22 91.9956 316.518 91.7327 315.879C91.4697 315.241 91.0234 314.695 90.45 314.31C89.682 313.795 88.7409 313.605 87.8334 313.784C86.9259 313.962 86.1262 314.493 85.61 315.26Z" fill="#2E2E3F"/>
<path d="M220.1 149.43C219.799 150.418 219.358 151.357 218.79 152.22C217.669 153.553 216.251 154.604 214.65 155.29C208.31 158.54 198.65 162.04 193.27 166.74C192.617 167.259 192.076 167.905 191.68 168.64C190.91 170.31 191.68 172.24 192.39 173.92C192.709 174.871 193.275 175.72 194.03 176.38C195.4 177.38 197.3 176.95 198.93 176.47C205.182 174.606 211.33 172.413 217.35 169.9C220.718 168.542 223.989 166.955 227.14 165.15C228.404 164.5 229.502 163.57 230.35 162.43C230.946 161.403 231.343 160.274 231.52 159.1C232.658 153.039 233.423 146.914 233.81 140.76L235.01 126.32C235.25 123.54 243.71 113.81 241.16 111.9C236.16 108.16 228.89 118.34 227.75 120.43C224.53 126.32 221.35 145.87 220.1 149.43Z" fill="#1A237E"/>
<path d="M220.1 149.43C219.799 150.418 219.358 151.357 218.79 152.22C217.669 153.553 216.251 154.604 214.65 155.29C208.31 158.54 198.65 162.04 193.27 166.74C192.617 167.259 192.076 167.905 191.68 168.64C190.91 170.31 191.68 172.24 192.39 173.92C192.709 174.871 193.275 175.72 194.03 176.38C195.4 177.38 197.3 176.95 198.93 176.47C205.182 174.606 211.33 172.413 217.35 169.9C220.718 168.542 223.989 166.955 227.14 165.15C228.404 164.5 229.502 163.57 230.35 162.43C230.946 161.403 231.343 160.274 231.52 159.1C232.658 153.039 233.423 146.914 233.81 140.76L235.01 126.32C235.25 123.54 243.71 113.81 241.16 111.9C236.16 108.16 228.89 118.34 227.75 120.43C224.53 126.32 221.35 145.87 220.1 149.43Z" fill="url(#paint1_linear)"/>
<path d="M297.76 305.83C298.568 307.121 298.988 308.617 298.97 310.14C298.876 310.712 298.661 311.257 298.341 311.74C298.02 312.223 297.601 312.633 297.11 312.942C296.62 313.251 296.069 313.452 295.495 313.533C294.921 313.614 294.337 313.572 293.78 313.41C292.874 313.035 292.052 312.485 291.36 311.79C282.99 304.35 276.36 295.18 270.36 285.68C268.74 283.1 267.17 280.49 265.79 277.78C261.127 268.596 258.679 258.449 258.64 248.15C258.577 247.559 258.722 246.965 259.05 246.47C259.394 246.121 259.838 245.887 260.32 245.8C264.46 244.64 270.91 244.53 274.57 247.23C278.68 250.23 277.69 259.68 277.51 263.98C277.301 265.814 277.485 267.672 278.05 269.43C278.799 270.934 279.816 272.289 281.05 273.43C289.44 282.44 292.35 294.93 297.76 305.83Z" fill="#F3BD8F"/>
<path d="M245.86 285.32C246.727 297.002 245.185 308.738 241.33 319.8C241.095 320.801 240.557 321.706 239.79 322.39C239.271 322.71 238.676 322.886 238.066 322.9C237.456 322.914 236.854 322.765 236.32 322.47C233.61 321.15 232.66 318.27 232.2 315.47C230.189 303.114 229.232 290.609 229.34 278.09C229.34 272.18 229.51 266.55 229.05 260.67C228.59 254.62 227.91 248.58 227.91 242.5C227.798 241.897 227.912 241.274 228.23 240.75C228.482 240.518 228.782 240.345 229.109 240.243C229.436 240.141 229.781 240.113 230.12 240.16C234.46 240.16 242.38 237.66 245.76 240.42C250.21 244.05 243.09 260.01 242.38 264.63C241.19 272.34 244.54 274.63 245.53 282.24C245.66 283.32 245.77 284.32 245.86 285.32Z" fill="#F5BD8D"/>
<path d="M224.01 242.57C223.908 243.741 224.2 244.913 224.84 245.9C225.506 246.588 226.357 247.067 227.29 247.28C232.05 248.76 237.07 249.07 242.04 249.38C243.56 249.47 245.24 249.51 246.41 248.55C247.135 247.846 247.674 246.973 247.98 246.01L253.5 232.5C253.087 237.268 252.963 242.057 253.13 246.84C253.05 247.866 253.353 248.885 253.98 249.7C254.784 250.319 255.788 250.619 256.8 250.54C264.461 250.828 272.131 250.272 279.67 248.88C282.59 238.11 282.67 226.72 281.22 215.66C280.65 211.35 279.8 206.96 277.51 203.26C276.95 202.248 276.154 201.387 275.19 200.75C273.746 200.058 272.146 199.758 270.55 199.88C258.97 199.76 247.21 199.49 235.7 201.13C232.11 201.64 230.23 202.76 228.98 206.27C227.179 211.801 225.923 217.495 225.23 223.27C224.312 229.661 223.904 236.114 224.01 242.57Z" fill="#2E2E3F"/>
<path d="M279.67 248.88L277.87 249.19C270.911 250.354 263.851 250.806 256.8 250.54C255.788 250.619 254.784 250.319 253.98 249.7C253.353 248.885 253.05 247.866 253.13 246.84C252.975 242.391 253.075 237.937 253.43 233.5C253.43 233.39 253.43 233.27 253.43 233.16C253.43 233.05 253.43 232.72 253.48 232.5C251.64 236.99 249.81 241.5 247.97 245.99C247.664 246.953 247.125 247.826 246.4 248.53C245.23 249.53 243.55 249.45 242.03 249.36H241.34C236.6 249.06 231.83 248.71 227.34 247.3C226.405 247.091 225.553 246.611 224.89 245.92C224.25 244.933 223.958 243.761 224.06 242.59C223.951 236.118 224.359 229.647 225.28 223.24C225.972 217.492 227.221 211.826 229.01 206.32C230.26 202.81 232.14 201.69 235.73 201.18C247.24 199.54 259 199.81 270.58 199.93C272.024 199.847 273.47 200.072 274.82 200.59C274.958 200.65 275.092 200.72 275.22 200.8C276.184 201.437 276.98 202.299 277.54 203.31C279.83 207.01 280.68 211.4 281.25 215.71C282.69 226.72 282.59 238.11 279.67 248.88Z" fill="url(#paint2_linear)"/>
<path d="M279.67 248.88L277.87 249.19C277.441 248.968 277.024 248.725 276.62 248.46C275.63 247.914 274.796 247.121 274.2 246.16C273.763 245.186 273.551 244.127 273.58 243.06C273.25 234.14 274.95 225.06 273.14 216.35C272.49 213.21 271.19 210.35 270.26 207.35C269.41 204.58 271.31 202.93 273.54 201.35C273.933 201.057 274.352 200.8 274.79 200.58C274.928 200.64 275.062 200.71 275.19 200.79C276.154 201.427 276.95 202.289 277.51 203.3C279.8 207 280.65 211.39 281.22 215.7C282.69 226.72 282.59 238.11 279.67 248.88Z" fill="url(#paint3_linear)"/>
<path d="M253.49 232.52C251.65 237.01 249.82 241.52 247.98 246.01C247.674 246.973 247.135 247.846 246.41 248.55C245.24 249.55 243.56 249.47 242.04 249.38H241.35C241.091 249.241 240.847 249.077 240.62 248.89C239.773 248.173 239.169 247.211 238.893 246.136C238.617 245.061 238.683 243.926 239.08 242.89C239.57 241.893 240.188 240.965 240.92 240.13C245.28 234.54 247.66 227.71 249.98 221.01C251.227 222.454 252.179 224.129 252.78 225.94C253.424 228.07 253.665 230.302 253.49 232.52Z" fill="url(#paint4_linear)"/>
<path d="M251.24 103.32C251.193 105.125 250.481 106.849 249.24 108.16C247.4 109.82 244.61 109.72 242.3 110.65C242.009 110.747 241.745 110.911 241.53 111.13C241.359 111.332 241.239 111.572 241.18 111.83C240.884 113.035 240.978 114.302 241.45 115.45C242.155 117.168 243.228 118.71 244.593 119.97C245.957 121.229 247.581 122.175 249.35 122.74C252.906 123.854 256.674 124.117 260.35 123.51C261.57 123.439 262.758 123.097 263.83 122.51C264.966 121.645 265.87 120.511 266.46 119.21C267.175 118.023 267.654 116.709 267.87 115.34C267.969 114.651 267.886 113.948 267.63 113.301C267.374 112.654 266.953 112.085 266.41 111.65C265.9 111.34 265.356 111.089 264.79 110.9C263.9 110.558 263.046 110.13 262.24 109.62C261.413 109.196 260.769 108.485 260.43 107.62C260.29 106.89 260.321 106.137 260.52 105.42C260.975 102.988 260.975 100.492 260.52 98.06C260.411 97.3393 260.189 96.6406 259.86 95.99C259.552 95.4367 259.121 94.9611 258.601 94.5995C258.081 94.2378 257.485 93.9997 256.859 93.9033C256.233 93.8068 255.594 93.8546 254.989 94.0429C254.384 94.2312 253.83 94.5552 253.37 94.99C251.01 97.14 251.52 100.54 251.24 103.32Z" fill="#F3BD8F"/>
<path d="M240.17 90.39C240.035 92.048 240.173 93.717 240.58 95.33C241.76 99.16 245.81 101.63 249.82 101.79C251.136 101.893 252.455 101.641 253.64 101.06C254.319 100.673 254.944 100.199 255.5 99.65C258.3 97.09 260.88 94.03 261.73 90.33C262.02 88.9262 262.141 87.4926 262.09 86.06C262.126 83.9501 261.759 81.8528 261.01 79.88C260.262 78.1371 259.076 76.6171 257.568 75.4677C256.059 74.3182 254.279 73.5784 252.4 73.32C248.53 72.83 244.9 74.79 242.07 77.22C240.65 78.44 240.86 80.84 240.68 82.67C240.43 85.22 240.26 87.81 240.17 90.39Z" fill="#F3BD8F"/>
<path d="M240.65 69.0601C239.57 70.9101 238.84 73.0601 237.17 74.3901C236.48 74.9301 235.67 75.3201 235.03 75.9101C234.207 76.7783 233.727 77.9158 233.679 79.1112C233.631 80.3067 234.019 81.4788 234.77 82.4101C235.559 83.3104 236.583 83.974 237.727 84.3271C238.871 84.6802 240.091 84.7089 241.25 84.4101C243.573 83.7616 245.559 82.2479 246.8 80.1801C247.63 78.8801 248.37 77.3001 249.8 76.8201C250.434 76.676 251.093 76.6834 251.724 76.8415C252.354 76.9996 252.939 77.304 253.43 77.7301C254.48 78.4901 255.36 79.4901 256.43 80.1701C257.069 80.4979 257.681 80.8757 258.26 81.3001C259.98 82.7901 259.72 85.4801 259.32 87.7201C260.04 87.9401 260.18 86.6501 260.81 86.2401C261.44 85.8301 262.17 86.4301 262.28 87.1001C262.317 87.7774 262.123 88.4471 261.73 89.0001C260.09 91.8701 258.15 94.6901 257.6 97.9401C257.489 98.3729 257.51 98.8292 257.66 99.2501C257.99 99.7504 258.498 100.107 259.08 100.25C260.08 100.683 261.16 100.905 262.25 100.9C262.795 100.891 263.33 100.753 263.812 100.498C264.293 100.242 264.707 99.8765 265.02 99.4301C265.329 98.8507 265.516 98.2143 265.57 97.5601C265.706 95.3915 266 93.2358 266.45 91.1101C267.66 86.9301 271.25 83.2901 270.72 78.9801C270.331 77.0319 269.515 75.1944 268.33 73.6001C267.638 72.3886 266.791 71.2726 265.81 70.2801C264.846 69.4545 263.785 68.7493 262.65 68.1801C260.308 66.7836 257.744 65.7993 255.07 65.2701C251.9 64.7901 249.07 65.8201 245.97 65.9701C243.53 66.0801 242.01 66.6701 240.65 69.0601Z" fill="#2E2E3F"/>
<path d="M276.92 204.17C275.128 205.416 273.076 206.24 270.92 206.58C259.421 209.13 247.5 209.11 236.01 206.52C233.61 205.97 230.94 205.09 229.9 202.85C229.434 201.62 229.259 200.299 229.39 198.99C229.663 186.63 229.937 174.267 230.21 161.9C230.52 147.85 230.83 133.75 232.89 119.85C233.497 116.977 234.637 114.243 236.25 111.79C237.59 109.96 243.66 110.94 248.73 107.66C250.12 106.76 247.1 111.41 251.64 113.33C256.35 115.33 261.64 105.96 264.5 109.72C266.11 111.82 271.23 110.26 272.85 112.35C274.15 114.03 274.95 117.58 275.46 121.86C276.54 130.95 276.27 143.29 276.46 147.78C277.31 163.49 275.99 183.53 281.18 196.5C282.37 199.32 279.26 202.32 276.92 204.17Z" fill="#1A237E"/>
<path d="M276.92 204.17C275.128 205.416 273.076 206.24 270.92 206.58C268.048 207.216 265.144 207.694 262.22 208.01L261.4 207.9C263.54 200.9 263.64 193.54 263.58 186.26C263.58 182.26 263.46 178.21 263.38 174.19C263.33 171.65 263.24 168.98 261.93 166.81C260.62 164.64 257.64 163.26 255.46 164.57C259.21 162.31 262.28 152.75 263.82 148.83C266.035 143.151 267.585 137.235 268.44 131.2C269.02 127.06 268.8 119.78 275.14 121.74L275.49 121.86C276.57 130.95 276.3 143.29 276.49 147.78C277.34 163.49 276.02 183.53 281.21 196.5C282.37 199.32 279.26 202.32 276.92 204.17Z" fill="url(#paint5_linear)"/>
<path d="M241.09 316.62C241.452 316.651 241.788 316.819 242.03 317.09C242.182 317.4 242.242 317.747 242.2 318.09C242.2 320.09 243.47 321.9 243.4 323.88C243.35 325.65 242.25 327.31 242.4 329.08C242.4 329.43 242.49 329.84 242.24 330.08C242.078 330.214 241.879 330.297 241.67 330.32C236.65 331.28 231.607 332.117 226.54 332.83C225.605 333.079 224.611 332.972 223.75 332.53C223.361 332.233 223.054 331.84 222.86 331.39C221.49 328.6 222.71 325.18 224.57 322.69C229.12 316.56 233.51 315.09 241.09 316.62Z" fill="#2E2E3F"/>
<path d="M304.28 315.84C303.927 317.434 303.02 318.852 301.72 319.84C298.5 322.814 294.819 325.246 290.82 327.04C290.014 327.492 289.09 327.687 288.17 327.6C287.472 327.398 286.861 326.973 286.429 326.389C285.997 325.806 285.769 325.096 285.78 324.37C285.829 322.918 286.205 321.496 286.88 320.21C288.81 315.75 290.15 309.21 295.3 307.44C299.8 305.93 304.76 311.4 304.28 315.84Z" fill="#2E2E3F"/>
<path d="M241.09 316.62C241.452 316.651 241.788 316.819 242.03 317.09C242.182 317.4 242.242 317.747 242.2 318.09C242.2 320.09 243.47 321.9 243.4 323.88C243.35 325.65 242.25 327.31 242.4 329.08C242.4 329.43 242.49 329.84 242.24 330.08C242.078 330.214 241.879 330.297 241.67 330.32C236.65 331.28 231.607 332.117 226.54 332.83C225.605 333.079 224.611 332.972 223.75 332.53C223.361 332.233 223.054 331.84 222.86 331.39C221.49 328.6 222.71 325.18 224.57 322.69C229.12 316.56 233.51 315.09 241.09 316.62Z" fill="url(#paint6_linear)"/>
<path d="M301.72 319.86C298.5 322.834 294.819 325.266 290.82 327.06C290.014 327.512 289.09 327.707 288.17 327.62" fill="url(#paint7_linear)"/>
<path d="M267.11 148.32C267.283 149.573 267.149 150.85 266.72 152.04C266 153.69 264.33 154.69 262.72 155.58L227.25 175.65C225.59 176.59 223.81 177.65 223.1 179.43C221.54 183.43 226.43 187.02 230.68 187.34C235.13 187.67 239.51 186.34 243.73 184.87C257.061 180.273 269.936 174.448 282.19 167.47C283.704 166.907 284.974 165.832 285.777 164.431C286.581 163.03 286.869 161.391 286.59 159.8C286.625 150.009 285.876 140.231 284.35 130.56C283.52 125.27 282.35 119.74 278.78 115.73C273.5 109.73 263.86 109.55 263.03 118.34C262.11 128.32 266.44 138.5 267.11 148.32Z" fill="#1A237E"/>
<path d="M267.11 148.32C267.283 149.573 267.149 150.85 266.72 152.04C266 153.69 264.33 154.69 262.72 155.58L227.25 175.65C225.59 176.59 223.81 177.65 223.1 179.43C221.54 183.43 226.43 187.02 230.68 187.34C235.13 187.67 239.51 186.34 243.73 184.87C257.061 180.273 269.936 174.448 282.19 167.47C283.704 166.907 284.974 165.832 285.777 164.431C286.581 163.03 286.869 161.391 286.59 159.8C286.625 150.009 285.876 140.231 284.35 130.56C283.52 125.27 282.35 119.74 278.78 115.73C273.5 109.73 263.86 109.55 263.03 118.34C262.11 128.32 266.44 138.5 267.11 148.32Z" fill="url(#paint8_linear)"/>
<path d="M218.54 178.98C215.981 178.972 213.514 179.937 211.64 181.68C210.727 182.569 210.111 183.72 209.879 184.973C209.646 186.227 209.807 187.522 210.34 188.68C210.719 189.456 211.381 190.057 212.19 190.36C212.904 190.557 213.66 190.532 214.36 190.29C216.36 189.68 218.01 188.13 219.97 187.29C220.445 187.057 220.986 186.997 221.5 187.12C221.83 187.288 222.145 187.485 222.44 187.71C222.852 187.935 223.31 188.06 223.779 188.076C224.248 188.092 224.714 187.997 225.14 187.8C225.987 187.389 226.701 186.748 227.2 185.95C227.924 184.947 228.277 183.724 228.2 182.49C228 180.59 226.9 179.98 225.26 179.79C223.01 179.55 220.85 178.9 218.54 178.98Z" fill="#F3BD8F"/>
<path d="M185.59 172.81C184.645 173.97 183.996 175.343 183.7 176.81C183.543 177.504 183.567 178.228 183.77 178.91C184.059 179.574 184.54 180.137 185.151 180.525C185.762 180.913 186.476 181.11 187.2 181.09C188.65 181.029 190.06 180.591 191.29 179.82C193.575 178.503 195.758 177.015 197.82 175.37C198.247 175.079 198.628 174.725 198.95 174.32C199.333 173.695 199.491 172.958 199.399 172.23C199.306 171.503 198.968 170.829 198.44 170.32C195.06 166.93 188.13 169.66 185.59 172.81Z" fill="#F3BD8F"/>
<path d="M153.53 288.32H69.25L36.54 199.22H178.9L153.53 288.32ZM72.74 283.32H149.74L172.27 204.2H43.7L72.74 283.32Z" fill="#1A237E"/>
<path d="M186.79 288.32H102.5L69.8 199.22H214.6L186.79 288.32ZM106.01 283.32H183.01L205.54 204.2H77.01L106.01 283.32Z" fill="#1A237E"/>
<path d="M187.29 288.37H147.37L165.25 225.32L180.01 179.53L220.27 180.07L187.29 288.37ZM153.98 283.37H183.59L213.59 184.98L183.67 184.58L170.01 226.77L153.98 283.37Z" fill="#1A237E"/>
<path d="M187.21 313.27H89.49V308.27H182.21V285.84H187.21V313.27Z" fill="#1A237E"/>
<path d="M154.5 313.27H74.9399V308.27H149.5V285.84H154.5V313.27Z" fill="#1A237E"/>
<path d="M171.09 325.69C169.411 325.69 167.769 325.192 166.373 324.259C164.977 323.326 163.889 322 163.246 320.449C162.604 318.898 162.436 317.191 162.763 315.544C163.091 313.897 163.899 312.384 165.087 311.197C166.274 310.009 167.787 309.201 169.434 308.873C171.081 308.546 172.788 308.714 174.339 309.356C175.89 309.999 177.216 311.087 178.149 312.483C179.082 313.879 179.58 315.521 179.58 317.2C179.58 319.452 178.686 321.611 177.093 323.203C175.501 324.795 173.342 325.69 171.09 325.69ZM171.09 313.69C170.4 313.69 169.725 313.895 169.151 314.278C168.577 314.662 168.13 315.207 167.866 315.844C167.601 316.482 167.532 317.184 167.667 317.861C167.802 318.538 168.134 319.16 168.622 319.648C169.11 320.136 169.732 320.468 170.409 320.603C171.086 320.738 171.788 320.668 172.426 320.404C173.063 320.14 173.608 319.693 173.992 319.119C174.375 318.545 174.58 317.87 174.58 317.18C174.575 316.258 174.205 315.375 173.551 314.725C172.897 314.075 172.012 313.71 171.09 313.71V313.69Z" fill="#2E2E3F"/>
<path d="M110.44 325.69C108.904 325.684 107.399 325.262 106.084 324.467C104.77 323.672 103.696 322.536 102.977 321.178C102.258 319.821 101.922 318.294 102.003 316.76C102.085 315.226 102.581 313.744 103.44 312.47C104.258 311.251 105.378 310.265 106.691 309.608C108.004 308.951 109.465 308.645 110.931 308.722C112.398 308.798 113.819 309.253 115.057 310.043C116.294 310.833 117.306 311.93 117.993 313.227C118.68 314.525 119.019 315.978 118.977 317.446C118.934 318.914 118.512 320.345 117.751 321.601C116.99 322.856 115.916 323.893 114.635 324.61C113.353 325.327 111.908 325.699 110.44 325.69ZM107.55 315.26C107.165 315.833 106.958 316.507 106.956 317.198C106.953 317.888 107.156 318.564 107.538 319.139C107.92 319.714 108.464 320.163 109.101 320.429C109.738 320.695 110.44 320.766 111.118 320.633C111.795 320.5 112.418 320.169 112.908 319.682C113.397 319.195 113.731 318.574 113.867 317.897C114.003 317.22 113.936 316.518 113.673 315.879C113.41 315.241 112.963 314.695 112.39 314.31C111.621 313.797 110.681 313.61 109.774 313.788C108.867 313.966 108.068 314.495 107.55 315.26Z" fill="#2E2E3F"/>
<path d="M205.78 217.08H47.73V220.85H205.78V217.08Z" fill="#1A237E"/>
<path d="M201.65 229.75H51.11V233.52H201.65V229.75Z" fill="#1A237E"/>
<path d="M197.52 242.42H55.99V246.19H197.52V242.42Z" fill="#1A237E"/>
<path d="M193.39 255.09H60.87V258.86H193.39V255.09Z" fill="#1A237E"/>
<path d="M189.26 267.76H65.75V271.53H189.26V267.76Z" fill="#1A237E"/>
<path d="M57.7519 200.683L54.2102 201.975L84.6124 285.323L88.1542 284.032L57.7519 200.683Z" fill="#1A237E"/>
<path d="M101.718 200.79L98.1016 201.855L122.315 284.073L125.932 283.008L101.718 200.79Z" fill="#1A237E"/>
<path d="M138.683 200.136L134.916 200.263L137.728 284.166L141.496 284.039L138.683 200.136Z" fill="#1A237E"/>
<path d="M182.009 202.447L156.684 284.665L160.287 285.774L185.612 203.556L182.009 202.447Z" fill="#1A237E"/>
</g>
<defs>
<linearGradient id="paint0_linear" x1="198.01" y1="288.08" x2="195.2" y2="386.62" gradientUnits="userSpaceOnUse">
<stop offset="0.01"/>
<stop offset="0.13" stop-opacity="0.69"/>
<stop offset="1" stop-opacity="0"/>
</linearGradient>
<linearGradient id="paint1_linear" x1="12830" y1="11560.8" x2="12214.4" y2="10761.7" gradientUnits="userSpaceOnUse">
<stop offset="0.01"/>
<stop offset="0.13" stop-opacity="0.69"/>
<stop offset="1" stop-opacity="0"/>
</linearGradient>
<linearGradient id="paint2_linear" x1="16955.8" y1="10736.7" x2="15827.6" y2="13577.6" gradientUnits="userSpaceOnUse">
<stop offset="0.01"/>
<stop offset="0.13" stop-opacity="0.69"/>
<stop offset="1" stop-opacity="0"/>
</linearGradient>
<linearGradient id="paint3_linear" x1="3790.91" y1="11504.3" x2="3937.29" y2="11504.3" gradientUnits="userSpaceOnUse">
<stop offset="0.01"/>
<stop offset="0.13" stop-opacity="0.69"/>
<stop offset="1" stop-opacity="0"/>
</linearGradient>
<linearGradient id="paint4_linear" x1="4120.99" y1="7005.37" x2="4650.51" y2="7250.97" gradientUnits="userSpaceOnUse">
<stop offset="0.01"/>
<stop offset="0.13" stop-opacity="0.69"/>
<stop offset="1" stop-opacity="0"/>
</linearGradient>
<linearGradient id="paint5_linear" x1="9120.43" y1="15304.7" x2="6161.09" y2="15254.7" gradientUnits="userSpaceOnUse">
<stop offset="0.01"/>
<stop offset="0.13" stop-opacity="0.69"/>
<stop offset="1" stop-opacity="0"/>
</linearGradient>
<linearGradient id="paint6_linear" x1="5362.16" y1="5930.09" x2="5808.83" y2="5930.09" gradientUnits="userSpaceOnUse">
<stop offset="0.01"/>
<stop offset="0.13" stop-opacity="0.69"/>
<stop offset="1" stop-opacity="0"/>
</linearGradient>
<linearGradient id="paint7_linear" x1="4477.28" y1="2898.56" x2="4660.89" y2="2898.56" gradientUnits="userSpaceOnUse">
<stop offset="0.01"/>
<stop offset="0.13" stop-opacity="0.69"/>
<stop offset="1" stop-opacity="0"/>
</linearGradient>
<linearGradient id="paint8_linear" x1="18829.7" y1="14815.7" x2="17356.5" y2="12415.7" gradientUnits="userSpaceOnUse">
<stop offset="0.01"/>
<stop offset="0.13" stop-opacity="0.69"/>
<stop offset="1" stop-opacity="0"/>
</linearGradient>
<clipPath id="clip0">
<rect width="384.35" height="385.1" fill="white"/>
</clipPath>
</defs>
</svg>
