<svg width="824" height="569" viewBox="0 0 824 569" fill="none" xmlns="http://www.w3.org/2000/svg">
<g clip-path="url(#clip0)">
<path opacity="0.18" d="M5.34998 480.22C3.28998 481.93 1.13998 483.78 0.349977 486.33C-0.990023 490.5 1.71998 494.85 4.70998 498.05C20.2 514.64 44.66 518.52 67.23 521C169.151 531.99 271.912 532.834 374 523.52C373.164 524.147 372.384 524.846 371.67 525.61C358.03 539.97 367.67 563.85 387.47 565.37C514.11 575.12 641.79 563.27 768.47 551.37C778.62 550.37 786.74 532.25 795.2 526.56C803.66 520.87 808.88 509.01 803.83 500.17C797.1 488.4 777.26 488.52 772.36 475.88C767.54 463.45 781.31 452.23 785.94 439.74C792.03 423.3 780.64 404.53 765.17 396.31C749.7 388.09 731.38 387.78 713.85 387.73C516.169 387.147 318.584 396.543 121.85 415.88C98.85 418.13 83.13 418.43 64.69 430.8C43.7 444.88 24.75 464.08 5.34998 480.22Z" fill="#1A237E"/>
<path opacity="0.18" d="M621.55 550.43C625.91 549.56 630.69 548.68 634.61 550.78C636.61 551.85 638.19 553.61 640.27 554.49C644.12 556.12 648.46 554.4 652.5 553.32C667.85 549.21 683.95 554.82 699.82 555.56C714.89 556.27 729.82 552.56 744.41 548.87C748.22 547.87 752.93 545.77 752.6 541.87C752.12 536.27 742.78 536.87 739.69 532.2L766.3 518.2C769.3 516.65 772.44 514.84 773.57 511.71C774.89 508.04 772.71 503.83 769.44 501.71C766.17 499.59 762.13 499.12 758.23 499.02C739.96 498.57 722.31 504.93 704.43 508.78C683.804 513.221 662.603 514.359 641.62 512.15C636.79 511.63 631.9 510.95 627.13 511.78C615.02 513.9 604.94 524.33 594.42 530.1C585.91 534.77 576.9 538.42 567.89 541.99C557.89 545.99 538.67 549.51 531.99 558.28C541.06 562.44 556.11 558.92 565.89 558.15C584.579 556.674 603.165 554.096 621.55 550.43Z" fill="#1A237E"/>
<path d="M670.61 0H260.83V268.74H670.61V0Z" fill="#1A237E"/>
<path d="M670.61 0H260.83V268.74H670.61V0Z" fill="url(#paint0_linear)"/>
<path d="M260.83 52.86H567.85L607.55 249.38L258.46 94.65L260.83 52.86Z" fill="url(#paint1_linear)"/>
<path d="M574.75 185.13V410.91C574.75 415.684 572.854 420.262 569.478 423.638C566.102 427.014 561.524 428.91 556.75 428.91H71.88C67.1061 428.91 62.5277 427.014 59.1521 423.638C55.7764 420.262 53.88 415.684 53.88 410.91V126.56C53.88 121.786 55.7764 117.208 59.1521 113.832C62.5277 110.456 67.1061 108.56 71.88 108.56H199.15C204.299 108.56 209.259 110.503 213.037 114.002C216.816 117.5 219.134 122.296 219.53 127.43L220.82 144.43C221.294 150.611 224.084 156.385 228.632 160.598C233.18 164.81 239.151 167.151 245.35 167.15H556.78C561.016 167.156 565.113 168.655 568.353 171.384C571.592 174.113 573.765 177.897 574.49 182.07C574.662 183.081 574.749 184.105 574.75 185.13Z" fill="#1A237E"/>
<path d="M574.75 185.13V410.91C574.75 415.684 572.854 420.262 569.478 423.638C566.102 427.014 561.524 428.91 556.75 428.91H71.88C67.1061 428.91 62.5277 427.014 59.1521 423.638C55.7764 420.262 53.88 415.684 53.88 410.91V126.56C53.88 121.786 55.7764 117.208 59.1521 113.832C62.5277 110.456 67.1061 108.56 71.88 108.56H199.15C204.299 108.56 209.259 110.503 213.037 114.002C216.816 117.5 219.134 122.296 219.53 127.43L220.82 144.43C221.294 150.611 224.084 156.385 228.632 160.598C233.18 164.81 239.151 167.151 245.35 167.15H556.78C561.016 167.156 565.113 168.655 568.353 171.384C571.592 174.113 573.765 177.897 574.49 182.07C574.662 183.081 574.749 184.105 574.75 185.13Z" fill="url(#paint2_linear)"/>
<path d="M252.43 167.15H245.35C239.151 167.151 233.18 164.81 228.632 160.598C224.084 156.385 221.294 150.611 220.82 144.43L219.53 127.43C219.432 126.077 219.197 124.736 218.83 123.43H228.83C233.98 123.428 238.941 125.37 242.72 128.869C246.499 132.368 248.817 137.165 249.21 142.3L250.51 159.3C250.71 162.005 251.359 164.658 252.43 167.15Z" fill="#222A72"/>
<path d="M574.75 185.13V410.91C574.75 415.684 572.854 420.262 569.478 423.638C566.102 427.014 561.524 428.91 556.75 428.91H83.87C83.6987 427.902 83.6117 426.882 83.61 425.86V141.43C83.61 136.656 85.5064 132.078 88.8821 128.702C92.2577 125.326 96.8361 123.43 101.61 123.43H218.83C219.197 124.736 219.432 126.077 219.53 127.43L220.82 144.43C221.294 150.611 224.084 156.385 228.632 160.598C233.18 164.81 239.151 167.151 245.35 167.15H252.43C254.329 171.576 257.483 175.349 261.504 178C265.524 180.652 270.234 182.067 275.05 182.07H574.49C574.662 183.081 574.749 184.105 574.75 185.13Z" fill="#1A237E"/>
<path d="M574.75 177.68V403.43C574.75 408.204 572.854 412.782 569.478 416.158C566.102 419.534 561.524 421.43 556.75 421.43H83.87C83.6987 420.422 83.6117 419.402 83.61 418.38V134C83.61 129.226 85.5064 124.648 88.8821 121.272C92.2577 117.896 96.8361 116 101.61 116H218.83C219.192 117.308 219.426 118.647 219.53 120L220.82 137C221.294 143.182 224.083 148.957 228.631 153.172C233.179 157.386 239.15 159.728 245.35 159.73H252.43C254.329 164.156 257.483 167.928 261.504 170.58C265.524 173.232 270.234 174.647 275.05 174.65H574.49C574.662 175.651 574.749 176.664 574.75 177.68Z" fill="url(#paint3_linear)"/>
<path d="M549.53 59.16V167.16H245.35C239.15 167.158 233.179 164.816 228.631 160.602C224.083 156.387 221.294 150.612 220.82 144.43L219.53 127.43C219.137 122.295 216.819 117.498 213.04 113.999C209.261 110.5 204.3 108.558 199.15 108.56H111.58V59.16H549.53Z" fill="#1A237E"/>
<path d="M549.53 59.16V167.16H245.35C239.15 167.158 233.179 164.816 228.631 160.602C224.083 156.387 221.294 150.612 220.82 144.43L219.53 127.43C219.137 122.295 216.819 117.498 213.04 113.999C209.261 110.5 204.3 108.558 199.15 108.56H111.58V59.16H549.53Z" fill="url(#paint4_linear)"/>
<path d="M258.71 98.19V167.19H252.43V98.19C252.429 97.7789 252.508 97.3716 252.664 96.9914C252.82 96.6111 253.05 96.2653 253.34 95.9738C253.629 95.6822 253.974 95.4505 254.353 95.292C254.732 95.1335 255.139 95.0513 255.55 95.05C255.958 95.046 256.364 95.1225 256.742 95.2752C257.121 95.4278 257.466 95.6536 257.758 95.9396C258.049 96.2256 258.282 96.5662 258.442 96.9421C258.602 97.3179 258.686 97.7215 258.69 98.1299L258.71 98.19Z" fill="url(#paint5_linear)"/>
<path d="M289 98.19V167.19H282.72V98.19C282.72 97.3573 283.051 96.5586 283.64 95.9697C284.229 95.3809 285.027 95.05 285.86 95.05C286.693 95.05 287.491 95.3809 288.08 95.9697C288.669 96.5586 289 97.3573 289 98.19Z" fill="url(#paint6_linear)"/>
<path d="M319.29 98.19V167.19H313V98.19C313 97.3573 313.331 96.5586 313.92 95.9697C314.509 95.3809 315.307 95.05 316.14 95.05C316.973 95.05 317.771 95.3809 318.36 95.9697C318.949 96.5586 319.28 97.3573 319.28 98.19H319.29Z" fill="url(#paint7_linear)"/>
<path d="M349.58 98.19V167.19H343.3V98.19C343.299 97.779 343.378 97.3717 343.534 96.9915C343.69 96.6112 343.92 96.2654 344.21 95.9739C344.499 95.6823 344.844 95.4506 345.223 95.2921C345.602 95.1336 346.009 95.0514 346.42 95.05C347.253 95.0535 348.052 95.3797 348.65 95.96C349.243 96.5508 349.578 97.3529 349.58 98.19Z" fill="url(#paint8_linear)"/>
<path d="M379.87 98.19V167.19H373.59V98.19C373.59 97.3573 373.921 96.5586 374.51 95.9697C375.099 95.3809 375.897 95.05 376.73 95.05C377.563 95.05 378.361 95.3809 378.95 95.9697C379.539 96.5586 379.87 97.3573 379.87 98.19Z" fill="url(#paint9_linear)"/>
<path d="M410.16 98.19V167.19H403.88V98.19C403.877 97.7786 403.956 97.3708 404.112 96.9899C404.267 96.6091 404.497 96.2628 404.787 95.9709C405.077 95.6791 405.421 95.4475 405.801 95.2894C406.181 95.1314 406.589 95.05 407 95.05C407.833 95.0535 408.632 95.3797 409.23 95.96C409.525 96.2519 409.758 96.5993 409.918 96.982C410.078 97.3648 410.16 97.7753 410.16 98.19Z" fill="url(#paint10_linear)"/>
<path d="M440.45 98.19V167.19H434.17V98.19C434.17 97.3573 434.501 96.5586 435.09 95.9697C435.679 95.3809 436.477 95.05 437.31 95.05C438.143 95.05 438.941 95.3809 439.53 95.9697C440.119 96.5586 440.45 97.3573 440.45 98.19Z" fill="url(#paint11_linear)"/>
<path d="M470.74 98.19V167.19H464.46V98.19C464.46 97.7777 464.541 97.3694 464.699 96.9884C464.857 96.6075 465.088 96.2613 465.38 95.9697C465.671 95.6782 466.017 95.4469 466.398 95.2891C466.779 95.1313 467.188 95.05 467.6 95.05C468.012 95.05 468.421 95.1313 468.802 95.2891C469.183 95.4469 469.529 95.6782 469.82 95.9697C470.112 96.2613 470.343 96.6075 470.501 96.9884C470.659 97.3694 470.74 97.7777 470.74 98.19Z" fill="url(#paint12_linear)"/>
<path d="M613 234.88C609.52 236.8 605.92 238.67 602 239.27C592 240.8 582.41 233.75 572.24 233.69C567.964 233.736 563.789 234.999 560.205 237.331C556.62 239.664 553.774 242.969 552 246.86C561.27 248.55 570.78 248.24 580.2 247.93L632.36 246.18C636.17 246.05 640.45 245.71 642.91 242.81C644.47 240.98 644.91 238.5 645.91 236.31C647.59 232.62 650.7 229.8 652.91 226.39C655.36 222.6 657.91 215.59 656.32 211.02C654.07 204.72 648 212.21 644.6 214.7C634.512 222.1 623.957 228.841 613 234.88Z" fill="#1A237E"/>
<path d="M613 234.88C609.52 236.8 605.92 238.67 602 239.27C592 240.8 582.41 233.75 572.24 233.69C567.964 233.736 563.789 234.999 560.205 237.331C556.62 239.664 553.774 242.969 552 246.86C561.27 248.55 570.78 248.24 580.2 247.93L632.36 246.18C636.17 246.05 640.45 245.71 642.91 242.81C644.47 240.98 644.91 238.5 645.91 236.31C647.59 232.62 650.7 229.8 652.91 226.39C655.36 222.6 657.91 215.59 656.32 211.02C654.07 204.72 648 212.21 644.6 214.7C634.512 222.1 623.957 228.841 613 234.88Z" fill="url(#paint13_linear)"/>
<path d="M661.05 118.11C661.05 120.97 663.05 123.45 663.6 126.25C664.37 129.94 662.69 134.08 664.5 137.38C666.5 141.06 671.5 141.45 675.39 143.1C678.364 144.444 680.841 146.686 682.473 149.511C684.106 152.337 684.811 155.603 684.49 158.85C684.287 159.618 684.365 160.434 684.71 161.15C684.999 161.454 685.349 161.693 685.736 161.853C686.124 162.014 686.541 162.091 686.96 162.08L696.7 163.08C697.83 163.309 699.001 163.201 700.07 162.77C701.042 162.12 701.767 161.162 702.13 160.05C704.94 153.31 704.43 145.68 706.13 138.57C708.31 129.15 714.22 120.82 715.74 111.27C716.681 105.223 715.811 99.0332 713.24 93.48C711.64 90.04 709.24 86.78 705.79 85.21C703.335 84.2599 700.723 83.7815 698.09 83.8C688.2 83.32 674.6 84.48 671.87 96.25C670.96 100.25 671.59 103.37 668.98 106.89C666.37 110.41 661.08 113.1 661.05 118.11Z" fill="url(#paint14_linear)"/>
<path d="M667.32 78.2199C666.49 84.3699 671.5 89.67 676.44 93.41C681.38 97.15 697.74 104.9 698.79 109.7C699.84 114.5 699.51 119.48 699.17 124.38C699.89 127.38 704.6 118.76 705.52 118.44C709.04 116.04 710.01 119.62 710.3 120.92C710.527 122.192 710.338 123.504 709.76 124.66C708.29 128.27 702.23 136.97 704.02 143.55C709.43 144.55 711.07 130.95 716.02 128.65C723.02 125.42 729.02 122.23 731.02 114.8C733.37 105.99 735.38 96.1599 731.1 88.0999C730.456 86.7989 729.543 85.65 728.42 84.7299C727.42 83.9799 726.27 83.5099 725.23 82.8499C722.4 81.0799 720.62 78.0899 718.52 75.4999C713.496 69.3169 706.453 65.1032 698.63 63.5999C692.03 62.3599 683.93 62.9399 677.99 66.3499C673.71 68.8099 668 73.0699 667.32 78.2199Z" fill="#3F3D56"/>
<path d="M717.66 269.76C720.057 264.918 722.194 259.951 724.06 254.88C731.12 234.66 729.38 212.56 727.23 191.25C727.021 188.017 726.468 184.816 725.58 181.7C724.25 178.053 722.433 174.602 720.18 171.44C717.06 166.693 713.793 162.027 710.38 157.44C709.51 156.28 708.52 155.05 707.11 154.71C706.103 154.559 705.074 154.651 704.11 154.98L695.89 157.07C688.55 158.94 680.59 161.22 676.23 167.42C662.84 186.42 651.07 208.18 643.74 230.26C637.073 250.387 630.407 270.517 623.74 290.65C621.12 298.53 618.65 307.7 623.15 314.65C628.46 322.85 640.15 323.21 649.87 322.65L667.17 321.65C674.45 321.24 682.49 320.5 687.53 315.23C689.067 313.481 690.39 311.553 691.47 309.49C700.37 294 710 286 717.66 269.76Z" fill="#1A237E"/>
<path d="M717.66 269.76C720.057 264.918 722.194 259.951 724.06 254.88C731.12 234.66 729.38 212.56 727.23 191.25C727.021 188.017 726.468 184.816 725.58 181.7C724.25 178.053 722.433 174.602 720.18 171.44C717.06 166.693 713.793 162.027 710.38 157.44C709.51 156.28 708.52 155.05 707.11 154.71C706.103 154.559 705.074 154.651 704.11 154.98L695.89 157.07C688.55 158.94 680.59 161.22 676.23 167.42C662.84 186.42 651.07 208.18 643.74 230.26C637.073 250.387 630.407 270.517 623.74 290.65C621.12 298.53 618.65 307.7 623.15 314.65C628.46 322.85 640.15 323.21 649.87 322.65L667.17 321.65C674.45 321.24 682.49 320.5 687.53 315.23C689.067 313.481 690.39 311.553 691.47 309.49C700.37 294 710 286 717.66 269.76Z" fill="url(#paint15_linear)"/>
<path d="M823.97 244.8H489.76V452.22H823.97V244.8Z" fill="#1A237E"/>
<path d="M823.97 244.8H489.76V452.22H823.97V244.8Z" fill="url(#paint16_linear)"/>
<path d="M673.72 368.94C675.218 369.412 676.798 369.569 678.36 369.4C677.48 371.48 680.36 373.31 682.63 372.88C684.9 372.45 686.75 370.88 688.99 370.65C690.19 370.54 691.45 370.81 692.58 370.37C693.571 369.891 694.391 369.12 694.93 368.16C697.38 364.54 698.93 360.39 700.37 356.29C703.74 346.95 706.19 337.22 710.49 328.29C725.49 297.11 727.14 251.72 726.9 244.62C724.35 244.7 716.63 244.96 714.12 245.41C713.276 245.499 712.468 245.798 711.77 246.28C711.116 246.895 710.648 247.682 710.42 248.55C707.82 256.05 708.49 264.22 707.67 272.12C705.72 291.04 695.34 307.95 690.13 326.24C687.89 334.11 686.6 343.14 681.26 349.64C680.02 351.15 677.87 352.64 677.04 354.37C675.93 356.72 677.53 357.63 677.4 359.97C677.34 360.88 672.58 368.58 673.72 368.94Z" fill="url(#paint17_linear)"/>
<path d="M561.8 259.43C564.444 259.787 567.134 259.558 569.68 258.76C572.214 257.956 574.852 257.521 577.51 257.47C579.68 257.56 582.28 258.07 583.68 256.41C585.51 254.23 583.37 250.35 585.31 248.27C585.79 247.75 586.46 247.44 586.94 246.93C587.206 246.699 587.376 246.377 587.417 246.028C587.458 245.678 587.366 245.326 587.16 245.04C586.817 244.788 586.395 244.664 585.97 244.69C577.43 244.226 568.869 244.374 560.35 245.13C558.2 245.32 555.74 245.72 554.59 247.56C551.85 251.92 557.73 258.61 561.8 259.43Z" fill="url(#paint18_linear)"/>
<path d="M555 422.3C554.169 422.295 553.373 421.962 552.785 421.374C552.198 420.787 551.865 419.991 551.86 419.16V281.23C551.865 280.399 552.198 279.603 552.785 279.015C553.373 278.428 554.169 278.095 555 278.09C555.411 278.089 555.818 278.168 556.199 278.324C556.579 278.481 556.925 278.71 557.216 279C557.508 279.289 557.739 279.634 557.898 280.013C558.056 280.392 558.139 280.799 558.14 281.21V419.21C558.124 420.033 557.787 420.818 557.2 421.395C556.613 421.973 555.823 422.298 555 422.3Z" fill="url(#paint19_linear)"/>
<path d="M585.32 422.3C584.489 422.295 583.693 421.962 583.105 421.374C582.518 420.787 582.185 419.991 582.18 419.16V281.23C582.185 280.399 582.518 279.603 583.105 279.015C583.693 278.428 584.489 278.095 585.32 278.09C585.731 278.089 586.138 278.168 586.518 278.324C586.899 278.481 587.245 278.71 587.536 279C587.828 279.289 588.059 279.634 588.218 280.013C588.376 280.392 588.459 280.799 588.46 281.21V419.21C588.444 420.033 588.107 420.818 587.52 421.395C586.933 421.973 586.143 422.298 585.32 422.3Z" fill="url(#paint20_linear)"/>
<path d="M615.61 422.3C614.779 422.295 613.983 421.962 613.396 421.374C612.808 420.787 612.475 419.991 612.47 419.16V281.23C612.475 280.399 612.808 279.603 613.396 279.015C613.983 278.428 614.779 278.095 615.61 278.09C616.021 278.089 616.428 278.168 616.809 278.324C617.189 278.481 617.535 278.71 617.826 279C618.118 279.289 618.349 279.634 618.508 280.013C618.666 280.392 618.749 280.799 618.75 281.21V419.21C618.734 420.033 618.397 420.818 617.81 421.395C617.223 421.973 616.433 422.298 615.61 422.3Z" fill="url(#paint21_linear)"/>
<path d="M645.9 422.3C645.069 422.295 644.273 421.962 643.685 421.374C643.098 420.787 642.765 419.991 642.76 419.16V281.23C642.765 280.399 643.098 279.603 643.685 279.015C644.273 278.428 645.069 278.095 645.9 278.09C646.311 278.089 646.718 278.168 647.099 278.324C647.479 278.481 647.825 278.71 648.116 279C648.408 279.289 648.639 279.634 648.798 280.013C648.956 280.392 649.039 280.799 649.04 281.21V419.21C649.024 420.033 648.687 420.818 648.1 421.395C647.513 421.973 646.723 422.298 645.9 422.3Z" fill="url(#paint22_linear)"/>
<path d="M676.19 422.3C675.359 422.295 674.563 421.962 673.976 421.374C673.388 420.787 673.055 419.991 673.05 419.16V281.23C673.049 280.819 673.128 280.412 673.285 280.031C673.441 279.651 673.67 279.305 673.96 279.014C674.249 278.722 674.594 278.491 674.973 278.332C675.352 278.174 675.759 278.091 676.17 278.09C677.001 278.095 677.797 278.428 678.385 279.015C678.972 279.603 679.305 280.399 679.31 281.23V419.16C679.305 419.988 678.975 420.78 678.392 421.368C677.808 421.955 677.018 422.289 676.19 422.3Z" fill="url(#paint23_linear)"/>
<path d="M706.48 422.3C705.649 422.295 704.853 421.962 704.266 421.374C703.678 420.787 703.345 419.991 703.34 419.16V281.23C703.339 280.819 703.418 280.412 703.574 280.031C703.731 279.651 703.96 279.305 704.25 279.014C704.539 278.722 704.884 278.491 705.263 278.332C705.642 278.174 706.049 278.091 706.46 278.09C707.291 278.095 708.087 278.428 708.675 279.015C709.262 279.603 709.595 280.399 709.6 281.23V419.16C709.595 419.988 709.265 420.78 708.682 421.368C708.098 421.955 707.308 422.289 706.48 422.3Z" fill="url(#paint24_linear)"/>
<path d="M736.77 422.3C735.939 422.295 735.143 421.962 734.555 421.374C733.968 420.787 733.635 419.991 733.63 419.16V281.23C733.629 280.819 733.708 280.412 733.864 280.031C734.02 279.651 734.25 279.305 734.54 279.014C734.829 278.722 735.174 278.491 735.553 278.332C735.932 278.174 736.339 278.091 736.75 278.09C737.581 278.095 738.377 278.428 738.964 279.015C739.552 279.603 739.885 280.399 739.89 281.23V419.16C739.885 419.988 739.555 420.78 738.972 421.368C738.388 421.955 737.598 422.289 736.77 422.3Z" fill="url(#paint25_linear)"/>
<path d="M767.06 278.09C767.891 278.095 768.687 278.428 769.274 279.015C769.862 279.603 770.195 280.399 770.2 281.23V419.16C770.195 419.991 769.862 420.787 769.274 421.374C768.687 421.962 767.891 422.295 767.06 422.3C766.229 422.295 765.433 421.962 764.845 421.374C764.258 420.787 763.925 419.991 763.92 419.16V281.23C763.925 280.399 764.258 279.603 764.845 279.015C765.433 278.428 766.229 278.095 767.06 278.09Z" fill="url(#paint26_linear)"/>
<path d="M686 229.49C684.913 256.823 682.823 284.08 679.73 311.26C679.12 316.68 678.48 322.26 679.95 327.51C680.55 329.67 681.95 335.77 683.38 337.51C685.38 340.04 687.81 337.87 691.01 338.21C695.78 338.72 697.56 341.44 700.34 337.53C703.12 333.62 707.17 323.19 708.34 318.53C717.076 281.78 719.494 243.811 715.49 206.25C714.86 200.31 714.02 194.25 711.31 188.93C708.6 183.61 703.64 179.07 697.7 178.4C688.51 177.4 682.99 185.15 683.7 193.2C684.82 205.55 686.47 217 686 229.49Z" fill="#1A237E"/>
<path d="M556.59 242.13C555.594 242.607 554.742 243.338 554.12 244.25C553.678 245.132 553.423 246.095 553.37 247.08C552.92 250.84 552.5 254.85 554.17 258.25C554.262 258.491 554.426 258.697 554.64 258.84C554.854 258.91 555.086 258.91 555.3 258.84C555.694 258.726 556.059 258.528 556.368 258.258C556.677 257.989 556.924 257.655 557.09 257.28C557.414 256.526 557.619 255.727 557.7 254.91C558.22 251.62 558.7 248.32 559.25 245.02C558.61 247.254 558.39 249.586 558.6 251.9C558.819 254.228 559.808 256.417 561.41 258.12C561.673 258.429 562.021 258.655 562.41 258.77C563.41 258.96 564.13 257.93 564.53 257.02C566.092 253.491 566.798 249.643 566.59 245.79C566.122 249.575 566.82 253.412 568.59 256.79C568.751 257.121 568.971 257.419 569.24 257.67C569.778 258.013 570.415 258.168 571.05 258.11C571.657 258.192 572.273 258.058 572.79 257.73C573.135 257.406 573.378 256.989 573.49 256.53C574.581 253.237 574.999 249.758 574.72 246.3C575.01 250.047 575.769 253.742 576.98 257.3C577.14 257.989 577.51 258.611 578.04 259.08C578.567 259.368 579.182 259.45 579.767 259.309C580.351 259.169 580.862 258.816 581.2 258.32C581.852 257.302 582.199 256.119 582.2 254.91C582.35 253.33 581.69 251.69 582.14 250.17C587 233.74 559.76 240.31 556.59 242.13Z" fill="url(#paint27_linear)"/>
<path d="M673.41 351.85C671.76 352.6 669.8 353.96 670.26 355.71C670.62 357.07 672.32 357.62 673.71 357.41C675.1 357.2 676.37 356.49 677.71 356.25C677.974 356.172 678.252 356.157 678.523 356.206C678.794 356.254 679.05 356.365 679.27 356.53C679.502 356.795 679.651 357.122 679.7 357.47C680.16 359.9 678.86 362.3 677.36 364.27C675.86 366.24 674.1 368.1 673.36 370.46C675.14 371.36 677.29 370.27 678.72 368.88C680.15 367.49 681.31 365.74 683.1 364.88L678.5 373.08C678.08 373.82 677.68 374.81 678.23 375.46C678.97 376.33 680.36 375.54 681.16 374.73C683.533 372.32 685.669 369.688 687.54 366.87C686.139 369.689 685.261 372.738 684.95 375.87C686.34 376.02 687.33 374.63 688.01 373.41L692.01 366.14C691.971 368.388 691.42 370.597 690.4 372.6C692.49 372.15 693.49 369.83 694.17 367.81C696.05 362.25 697.95 356.53 697.7 350.66C697.65 349.38 697.4 347.93 696.32 347.23C695.621 346.858 694.83 346.692 694.04 346.75C686.22 346.64 680.52 348.61 673.41 351.85Z" fill="url(#paint28_linear)"/>
<path d="M682.79 339.09C682.93 338.212 683.318 337.393 683.91 336.73C684.775 336.081 685.828 335.73 686.91 335.73L694.57 334.85C696.48 334.63 698.83 334.61 699.87 336.24C700.339 337.166 700.5 338.217 700.33 339.24C700.15 341.833 699.67 344.397 698.9 346.88C698.69 347.53 685.99 348.82 684.84 348.53C680.47 347.36 681.74 343.36 682.79 339.09Z" fill="#1A237E"/>
<path d="M682.79 339.09C682.93 338.212 683.318 337.393 683.91 336.73C684.775 336.081 685.828 335.73 686.91 335.73L694.57 334.85C696.48 334.63 698.83 334.61 699.87 336.24C700.339 337.166 700.5 338.217 700.33 339.24C700.15 341.833 699.67 344.397 698.9 346.88C698.69 347.53 685.99 348.82 684.84 348.53C680.47 347.36 681.74 343.36 682.79 339.09Z" fill="url(#paint29_linear)"/>
<path d="M604.44 452.22L581.1 530.78H602.2L646.14 452.22H604.44Z" fill="#1A237E"/>
<path d="M707.02 452.22L730.37 530.78H709.27L665.32 452.22H707.02Z" fill="#1A237E"/>
<path d="M601.05 547.35C599.05 547.86 596.93 548.35 594.96 547.76C592.99 547.17 591.35 545 592.1 543C587.34 544.25 582.93 546.64 578.17 547.89C570.37 549.95 562.17 548.89 554.17 547.77C554.862 545.026 556.114 542.455 557.846 540.218C559.579 537.981 561.756 536.126 564.24 534.77C569.24 532.09 575.05 531.61 580.69 531.19L591.52 530.38C593.69 530.22 598.38 528.9 600.27 530.44C602.16 531.98 602.31 547 601.05 547.35Z" fill="#1A237E"/>
<path d="M731 547.35C729 547.86 726.87 548.35 724.9 547.76C722.93 547.17 721.26 545 722 543C717.23 544.25 712.82 546.64 708.06 547.89C700.26 549.95 692.06 548.89 684.06 547.77C684.752 545.025 686.005 542.452 687.74 540.215C689.474 537.978 691.654 536.124 694.14 534.77C699.14 532.09 704.94 531.61 710.58 531.19L721.35 530.39C723.53 530.23 728.22 528.91 730.1 530.45C731.98 531.99 732.18 547 731 547.35Z" fill="#1A237E"/>
<path d="M604.44 452.22L581.1 530.78H602.2L646.14 452.22H604.44Z" fill="url(#paint30_linear)"/>
<path d="M707.02 452.22L730.37 530.78H709.27L665.32 452.22H707.02Z" fill="url(#paint31_linear)"/>
<path d="M601.05 547.35C599.05 547.86 596.93 548.35 594.96 547.76C592.99 547.17 591.35 545 592.1 543C587.34 544.25 582.93 546.64 578.17 547.89C570.37 549.95 562.17 548.89 554.17 547.77C554.862 545.026 556.114 542.455 557.846 540.218C559.579 537.981 561.756 536.126 564.24 534.77C569.24 532.09 575.05 531.61 580.69 531.19L591.52 530.38C593.69 530.22 598.38 528.9 600.27 530.44C602.16 531.98 602.31 547 601.05 547.35Z" fill="url(#paint32_linear)"/>
<path d="M731 547.35C729 547.86 726.87 548.35 724.9 547.76C722.93 547.17 721.26 545 722 543C717.23 544.25 712.82 546.64 708.06 547.89C700.26 549.95 692.06 548.89 684.06 547.77C684.752 545.025 686.005 542.452 687.74 540.215C689.474 537.978 691.654 536.124 694.14 534.77C699.14 532.09 704.94 531.61 710.58 531.19L721.35 530.39C723.53 530.23 728.22 528.91 730.1 530.45C731.98 531.99 732.18 547 731 547.35Z" fill="url(#paint33_linear)"/>
</g>
<defs>
<linearGradient id="paint0_linear" x1="392.79" y1="242.3" x2="740.07" y2="-271.64" gradientUnits="userSpaceOnUse">
<stop offset="0.03" stop-color="white"/>
<stop offset="0.09" stop-color="white" stop-opacity="0.84"/>
<stop offset="0.18" stop-color="white" stop-opacity="0.64"/>
<stop offset="0.28" stop-color="white" stop-opacity="0.47"/>
<stop offset="0.37" stop-color="white" stop-opacity="0.33"/>
<stop offset="0.47" stop-color="white" stop-opacity="0.21"/>
<stop offset="0.58" stop-color="white" stop-opacity="0.12"/>
<stop offset="0.69" stop-color="white" stop-opacity="0.05"/>
<stop offset="0.82" stop-color="white" stop-opacity="0.01"/>
<stop offset="0.98" stop-color="white" stop-opacity="0"/>
</linearGradient>
<linearGradient id="paint1_linear" x1="687.82" y1="-226.62" x2="306.74" y2="340.93" gradientUnits="userSpaceOnUse">
<stop offset="0.01"/>
<stop offset="0.1" stop-opacity="0.77"/>
<stop offset="0.97" stop-opacity="0"/>
</linearGradient>
<linearGradient id="paint2_linear" x1="360298" y1="150364" x2="-90935.4" y2="167127" gradientUnits="userSpaceOnUse">
<stop offset="0.01"/>
<stop offset="0.1" stop-opacity="0.77"/>
<stop offset="0.97" stop-opacity="0"/>
</linearGradient>
<linearGradient id="paint3_linear" x1="212438" y1="-7319.19" x2="176181" y2="-146638" gradientUnits="userSpaceOnUse">
<stop offset="0.01"/>
<stop offset="0.1" stop-opacity="0.77"/>
<stop offset="0.97" stop-opacity="0"/>
</linearGradient>
<linearGradient id="paint4_linear" x1="146124" y1="23444.4" x2="145938" y2="51404.2" gradientUnits="userSpaceOnUse">
<stop offset="0.03" stop-color="white"/>
<stop offset="0.09" stop-color="white" stop-opacity="0.84"/>
<stop offset="0.18" stop-color="white" stop-opacity="0.64"/>
<stop offset="0.28" stop-color="white" stop-opacity="0.47"/>
<stop offset="0.37" stop-color="white" stop-opacity="0.33"/>
<stop offset="0.47" stop-color="white" stop-opacity="0.21"/>
<stop offset="0.58" stop-color="white" stop-opacity="0.12"/>
<stop offset="0.69" stop-color="white" stop-opacity="0.05"/>
<stop offset="0.82" stop-color="white" stop-opacity="0.01"/>
<stop offset="0.98" stop-color="white" stop-opacity="0"/>
</linearGradient>
<linearGradient id="paint5_linear" x1="298.39" y1="128.06" x2="231.52" y2="133.01" gradientUnits="userSpaceOnUse">
<stop offset="0.01" stop-color="white"/>
<stop offset="0.97" stop-color="white" stop-opacity="0"/>
</linearGradient>
<linearGradient id="paint6_linear" x1="2347.02" y1="24451.7" x2="1924.79" y2="24454.4" gradientUnits="userSpaceOnUse">
<stop offset="0.01" stop-color="white"/>
<stop offset="0.97" stop-color="white" stop-opacity="0"/>
</linearGradient>
<linearGradient id="paint7_linear" x1="2571.11" y1="24451.7" x2="2148.21" y2="24454.4" gradientUnits="userSpaceOnUse">
<stop offset="0.01" stop-color="white"/>
<stop offset="0.97" stop-color="white" stop-opacity="0"/>
</linearGradient>
<linearGradient id="paint8_linear" x1="2788.05" y1="24451.7" x2="2365.82" y2="24454.4" gradientUnits="userSpaceOnUse">
<stop offset="0.01" stop-color="white"/>
<stop offset="0.97" stop-color="white" stop-opacity="0"/>
</linearGradient>
<linearGradient id="paint9_linear" x1="3008.55" y1="24451.7" x2="2586.32" y2="24454.4" gradientUnits="userSpaceOnUse">
<stop offset="0.01" stop-color="white"/>
<stop offset="0.97" stop-color="white" stop-opacity="0"/>
</linearGradient>
<linearGradient id="paint10_linear" x1="3229.09" y1="24451.7" x2="2806.86" y2="24454.4" gradientUnits="userSpaceOnUse">
<stop offset="0.01" stop-color="white"/>
<stop offset="0.97" stop-color="white" stop-opacity="0"/>
</linearGradient>
<linearGradient id="paint11_linear" x1="3449.57" y1="24451.7" x2="3027.35" y2="24454.4" gradientUnits="userSpaceOnUse">
<stop offset="0.01" stop-color="white"/>
<stop offset="0.97" stop-color="white" stop-opacity="0"/>
</linearGradient>
<linearGradient id="paint12_linear" x1="3670.09" y1="24451.7" x2="3247.86" y2="24454.4" gradientUnits="userSpaceOnUse">
<stop offset="0.01" stop-color="white"/>
<stop offset="0.97" stop-color="white" stop-opacity="0"/>
</linearGradient>
<linearGradient id="paint13_linear" x1="63957.9" y1="18958.5" x2="63947.6" y2="16796" gradientUnits="userSpaceOnUse">
<stop offset="0.01"/>
<stop offset="0.1" stop-opacity="0.77"/>
<stop offset="0.97" stop-opacity="0"/>
</linearGradient>
<linearGradient id="paint14_linear" x1="661.05" y1="123.46" x2="716.11" y2="123.46" gradientUnits="userSpaceOnUse">
<stop stop-color="#ECC4D7"/>
<stop offset="0.42" stop-color="#EFD4D1"/>
<stop offset="1" stop-color="#F2EAC9"/>
</linearGradient>
<linearGradient id="paint15_linear" x1="73729.8" y1="87057.3" x2="74470.1" y2="62259.8" gradientUnits="userSpaceOnUse">
<stop offset="0.01"/>
<stop offset="0.1" stop-opacity="0.77"/>
<stop offset="0.97" stop-opacity="0"/>
</linearGradient>
<linearGradient id="paint16_linear" x1="229714" y1="76000.8" x2="220629" y2="168592" gradientUnits="userSpaceOnUse">
<stop offset="0.03" stop-color="white"/>
<stop offset="0.09" stop-color="white" stop-opacity="0.84"/>
<stop offset="0.18" stop-color="white" stop-opacity="0.64"/>
<stop offset="0.28" stop-color="white" stop-opacity="0.47"/>
<stop offset="0.37" stop-color="white" stop-opacity="0.33"/>
<stop offset="0.47" stop-color="white" stop-opacity="0.21"/>
<stop offset="0.58" stop-color="white" stop-opacity="0.12"/>
<stop offset="0.69" stop-color="white" stop-opacity="0.05"/>
<stop offset="0.82" stop-color="white" stop-opacity="0.01"/>
<stop offset="0.98" stop-color="white" stop-opacity="0"/>
</linearGradient>
<linearGradient id="paint17_linear" x1="36625" y1="39867" x2="39474.3" y2="39867" gradientUnits="userSpaceOnUse">
<stop offset="0.01"/>
<stop offset="0.1" stop-opacity="0.77"/>
<stop offset="0.97" stop-opacity="0"/>
</linearGradient>
<linearGradient id="paint18_linear" x1="19226" y1="2813.02" x2="19350.7" y2="4371.04" gradientUnits="userSpaceOnUse">
<stop offset="0.01"/>
<stop offset="0.1" stop-opacity="0.77"/>
<stop offset="0.97" stop-opacity="0"/>
</linearGradient>
<linearGradient id="paint19_linear" x1="4033.35" y1="-61558.3" x2="9598.94" y2="13064.2" gradientUnits="userSpaceOnUse">
<stop offset="0.01" stop-color="white"/>
<stop offset="0.97" stop-color="white" stop-opacity="0"/>
</linearGradient>
<linearGradient id="paint20_linear" x1="4254.46" y1="-57756.9" x2="9820.05" y2="16865.5" gradientUnits="userSpaceOnUse">
<stop offset="0.01" stop-color="white"/>
<stop offset="0.97" stop-color="white" stop-opacity="0"/>
</linearGradient>
<linearGradient id="paint21_linear" x1="4474.97" y1="-57769.9" x2="10040.6" y2="16851.1" gradientUnits="userSpaceOnUse">
<stop offset="0.01" stop-color="white"/>
<stop offset="0.97" stop-color="white" stop-opacity="0"/>
</linearGradient>
<linearGradient id="paint22_linear" x1="4695.44" y1="-57784.3" x2="10261.1" y2="16836.7" gradientUnits="userSpaceOnUse">
<stop offset="0.01" stop-color="white"/>
<stop offset="0.97" stop-color="white" stop-opacity="0"/>
</linearGradient>
<linearGradient id="paint23_linear" x1="4902.42" y1="-57798.8" x2="10485.6" y2="16819.6" gradientUnits="userSpaceOnUse">
<stop offset="0.01" stop-color="white"/>
<stop offset="0.97" stop-color="white" stop-opacity="0"/>
</linearGradient>
<linearGradient id="paint24_linear" x1="5122.28" y1="-57813.2" x2="10672.8" y2="16810.1" gradientUnits="userSpaceOnUse">
<stop offset="0.01" stop-color="white"/>
<stop offset="0.97" stop-color="white" stop-opacity="0"/>
</linearGradient>
<linearGradient id="paint25_linear" x1="5342.23" y1="-57827.6" x2="10892.7" y2="16797.1" gradientUnits="userSpaceOnUse">
<stop offset="0.01" stop-color="white"/>
<stop offset="0.97" stop-color="white" stop-opacity="0"/>
</linearGradient>
<linearGradient id="paint26_linear" x1="5577.47" y1="-57842" x2="11143.1" y2="16780.5" gradientUnits="userSpaceOnUse">
<stop offset="0.01" stop-color="white"/>
<stop offset="0.97" stop-color="white" stop-opacity="0"/>
</linearGradient>
<linearGradient id="paint27_linear" x1="17005.1" y1="9454.94" x2="17889.9" y2="9454.94" gradientUnits="userSpaceOnUse">
<stop stop-color="#ECC4D7"/>
<stop offset="0.42" stop-color="#EFD4D1"/>
<stop offset="1" stop-color="#F2EAC9"/>
</linearGradient>
<linearGradient id="paint28_linear" x1="19121.6" y1="16983.6" x2="19883.1" y2="16983.6" gradientUnits="userSpaceOnUse">
<stop stop-color="#ECC4D7"/>
<stop offset="0.42" stop-color="#EFD4D1"/>
<stop offset="1" stop-color="#F2EAC9"/>
</linearGradient>
<linearGradient id="paint29_linear" x1="13764.8" y1="4508.94" x2="13619.2" y2="5201.68" gradientUnits="userSpaceOnUse">
<stop offset="0.01"/>
<stop offset="0.1" stop-opacity="0.77"/>
<stop offset="0.97" stop-opacity="0"/>
</linearGradient>
<linearGradient id="paint30_linear" x1="42036.3" y1="48741.5" x2="34650.3" y2="67773.1" gradientUnits="userSpaceOnUse">
<stop offset="0.01"/>
<stop offset="0.1" stop-opacity="0.77"/>
<stop offset="0.97" stop-opacity="0"/>
</linearGradient>
<linearGradient id="paint31_linear" x1="44738.6" y1="47574.9" x2="50305.7" y2="68346.9" gradientUnits="userSpaceOnUse">
<stop offset="0.01"/>
<stop offset="0.1" stop-opacity="0.77"/>
<stop offset="0.97" stop-opacity="0"/>
</linearGradient>
<linearGradient id="paint32_linear" x1="28055.4" y1="13695.3" x2="28091.1" y2="17457.6" gradientUnits="userSpaceOnUse">
<stop offset="0.01"/>
<stop offset="0.1" stop-opacity="0.77"/>
<stop offset="0.97" stop-opacity="0"/>
</linearGradient>
<linearGradient id="paint33_linear" x1="34361" y1="13629.6" x2="34396.8" y2="17389.9" gradientUnits="userSpaceOnUse">
<stop offset="0.01"/>
<stop offset="0.1" stop-opacity="0.77"/>
<stop offset="0.97" stop-opacity="0"/>
</linearGradient>
<clipPath id="clip0">
<rect width="823.97" height="568.97" fill="white"/>
</clipPath>
</defs>
</svg>
