<svg width="394" height="370" viewBox="0 0 394 370" fill="none" xmlns="http://www.w3.org/2000/svg">
<g clip-path="url(#clip0)">
<path opacity="0.18" d="M393.12 155.21C392.77 143.9 390.24 132.21 383.12 123.41C374.22 112.41 359.9 107.79 347.57 100.87C327.587 89.5449 312.197 71.5833 304.07 50.1C301.73 43.83 299.96 37.19 296.07 31.77C285.35 17.01 262.97 16.91 245.91 23.39C228.85 29.87 213.68 41.29 195.91 45.27C175.45 49.84 154.27 44.03 133.34 42.96C112.41 41.89 88.0699 47.89 79.0699 66.86C73.3899 78.86 75.3499 93.39 69.9399 105.54C57.7399 133 15.2499 135.91 3.06988 163.34C-6.08012 183.92 6.81988 207.76 22.8199 223.61C38.8199 239.46 58.8199 252.36 68.9099 272.46C79.9099 294.29 79.7599 324.52 101.09 336.46C122.42 348.4 151.69 332.78 172.89 345.05C180.14 349.25 185.37 356.21 192.16 361.12C216.06 378.4 250.64 364.92 271.63 344.2C298.05 318.11 326.2 287.57 349.29 258.7C372.77 229.34 394.34 194.18 393.12 155.21Z" fill="#1A237E"/>
<path opacity="0.18" d="M196.92 337.34C197.762 336.498 198.345 335.433 198.6 334.27C198.63 332.803 198.149 331.372 197.24 330.22C193.882 324.865 189.971 319.878 185.57 315.34C184.59 314.449 183.766 313.402 183.13 312.24C182.19 310.24 182.39 307.62 180.77 306.09C172.94 307.61 164.88 310.44 159.77 316.6C158.801 317.651 158.14 318.948 157.86 320.35C157.61 322.24 158.51 324.08 159.41 325.77C160.917 328.617 162.473 331.443 164.08 334.25C165.274 336.584 166.804 338.73 168.62 340.62C169.959 341.793 171.365 342.888 172.83 343.9C174.94 345.51 176.68 348.06 178.89 349.46C181.1 350.86 182.8 349.29 184.7 348.06C189.281 345.11 193.399 341.498 196.92 337.34Z" fill="#1A237E"/>
<path d="M186.41 17.55L184.28 16.63L145.15 30.58L128.37 82.36L129.99 82.4L186.41 17.55Z" fill="#1A237E"/>
<path d="M141.26 233.44C140.602 232.969 139.796 232.749 138.99 232.82C138.452 232.978 137.963 233.271 137.57 233.67C130.49 239.733 123.881 246.325 117.8 253.39C117.463 253.728 117.206 254.138 117.05 254.59C116.993 255.084 117.078 255.583 117.296 256.03C117.514 256.477 117.856 256.851 118.28 257.11C121.28 259.37 125.54 258.54 129.03 257.18C132.048 256.062 134.88 254.494 137.43 252.53C138.73 251.53 139.92 250.33 141.11 249.17C143.66 246.68 146.38 244.01 147.71 240.62C148.39 238.88 148.58 238.24 147.3 237.03C145.74 235.54 143.15 234.5 141.26 233.44Z" fill="#3E3E54"/>
<path d="M147.2 268.34C146.046 269.997 145.162 271.826 144.58 273.76C144.392 274.352 144.392 274.988 144.58 275.58C144.785 276.018 145.098 276.396 145.49 276.68C148.04 278.68 151.72 278.84 154.78 277.68C157.785 276.39 160.468 274.454 162.64 272.01C165.266 269.325 167.658 266.421 169.79 263.33C169.994 263.104 170.15 262.841 170.249 262.554C170.349 262.267 170.39 261.963 170.37 261.66C170.26 261.268 170.033 260.919 169.72 260.66C166.72 257.8 160.86 257.13 156.96 258C152.68 259.01 149.44 264.89 147.2 268.34Z" fill="#3E3E54"/>
<path d="M257.88 189.93C257.88 189.93 267.88 270.64 254.35 275.06C240.82 279.48 205.15 269.17 202.21 268.88C199.27 268.59 170.07 263.57 170.07 263.57L172.13 248.84C172.13 248.84 230.75 255.91 234.88 251.5C239.01 247.09 231.34 213.2 231.34 213.2L232.22 195.53L257.88 189.93Z" fill="#3E3E54"/>
<path d="M257.88 189.93C257.88 189.93 267.88 270.64 254.35 275.06C240.82 279.48 205.15 269.17 202.21 268.88C199.27 268.59 170.07 263.57 170.07 263.57L172.13 248.84C172.13 248.84 230.75 255.91 234.88 251.5C239.01 247.09 231.34 213.2 231.34 213.2L232.22 195.53L257.88 189.93Z" fill="url(#paint0_linear)"/>
<path d="M201.32 207.6C201.32 207.6 192.19 250.02 186.32 249.14C180.45 248.26 149.2 236.47 149.2 236.47C149.2 236.47 143.31 242.36 143.61 247.96C143.91 253.56 186.03 281.54 195.75 276.83C205.47 272.12 220.18 240.34 234.07 207.9L238.2 199.5L201.32 207.6Z" fill="#3E3E54"/>
<path d="M201.32 207.6C201.32 207.6 192.19 250.02 186.32 249.14C180.45 248.26 149.2 236.47 149.2 236.47C149.2 236.47 143.31 242.36 143.61 247.96C143.91 253.56 186.03 281.54 195.75 276.83C205.47 272.12 220.18 240.34 234.07 207.9L238.2 199.5L201.32 207.6Z" fill="url(#paint1_linear)"/>
<path d="M147.19 31.6L129.99 82.4001L156.01 80.9101L183.64 52.3L186.41 17.55L147.19 31.6Z" fill="#1A237E"/>
<path d="M147.19 31.6L129.99 82.4001L156.01 80.9101L183.64 52.3L186.41 17.55L147.19 31.6Z" fill="url(#paint2_linear)"/>
<path d="M255.4 49.87C259.134 45.1491 262.478 40.1326 265.4 34.87C270.523 42.2842 273.91 50.7573 275.31 59.66C275.573 60.8839 275.597 62.1471 275.38 63.38C275.043 64.5592 274.494 65.6673 273.76 66.65C268.754 74.1345 262.668 80.837 255.7 86.54C253.01 88.75 250.12 90.88 248.38 93.89C244.91 99.89 246.88 107.38 248.72 114.04C255.44 138.34 271.35 210.57 272.07 235.81C250.51 248.09 206.63 237.7 181.83 238.54C193.32 215.03 186.3 166.39 182.28 145.54C165.01 154.4 147.19 163.42 127.85 165.17L117.38 144.51C127.06 136.71 139.69 133.58 150.11 126.79C159.02 120.98 166 112.7 174.23 105.95C184.07 97.89 195.28 92.82 207.33 89.05C219.947 85.2615 231.334 78.1947 240.33 68.57C245.7 62.6244 250.731 56.3812 255.4 49.87Z" fill="#1A237E"/>
<path d="M275.39 63.34C275.057 64.5209 274.508 65.6297 273.77 66.61C268.765 74.1067 262.679 80.8226 255.71 86.54C253.02 88.74 250.12 90.88 248.38 93.89C244.91 99.89 246.88 107.38 248.72 114.04C255.44 138.34 271.35 210.57 272.07 235.81C260.07 242.63 241.24 242.46 222.58 241.1C207.65 240.02 192.86 238.17 181.83 238.54C193.31 215.03 186.3 166.4 182.28 145.54C165 154.4 147.19 163.42 127.85 165.17L117.38 144.51C127.06 136.71 139.69 133.58 150.11 126.79C159.02 120.98 166 112.69 174.22 105.96C184.07 97.89 195.29 92.82 207.33 89.05C219.93 85.2502 231.296 78.1764 240.27 68.55C245.663 62.6149 250.714 56.3782 255.4 49.87C259.132 45.1477 262.476 40.1314 265.4 34.87C270.523 42.2803 273.911 50.7502 275.31 59.65C275.572 60.8636 275.599 62.1162 275.39 63.34Z" fill="url(#paint3_linear)"/>
<path d="M217.22 85.21L220.31 83.78C220.31 83.78 219.02 97.78 218.12 99.41C217.22 101.04 207.92 112.34 207.92 112.34C203.308 113.745 198.603 114.825 193.84 115.57C186.74 116.57 174.34 120.35 169.56 120.48C165.375 120.727 161.206 121.194 157.07 121.88C157.07 121.88 166.37 111.81 167.53 111.16C168.69 110.51 217.22 85.21 217.22 85.21Z" fill="url(#paint4_linear)"/>
<path d="M155.82 112.86C160.577 115.781 166.08 117.258 171.66 117.11C176.92 116.96 182.01 115.37 187.03 113.79C194.73 111.36 199.37 115.61 206.92 112.79C208.26 112.28 212.72 105.05 213.64 103.96C214.308 103.066 214.788 102.045 215.05 100.96C217.17 93.6188 217.792 85.9264 216.88 78.34C217.07 79.91 200.88 86.75 199 87.63C194.353 89.7543 189.581 91.5944 184.71 93.14C173.317 96.6596 163.249 103.532 155.82 112.86Z" fill="#1A237E"/>
<path d="M155.82 112.86C160.577 115.781 166.08 117.258 171.66 117.11C176.92 116.96 182.01 115.37 187.03 113.79C194.73 111.36 199.37 115.61 206.92 112.79C208.26 112.28 212.72 105.05 213.64 103.96C214.308 103.066 214.788 102.045 215.05 100.96C217.17 93.6188 217.792 85.9264 216.88 78.34C217.07 79.91 200.88 86.75 199 87.63C194.353 89.7543 189.581 91.5944 184.71 93.14C173.317 96.6596 163.249 103.532 155.82 112.86Z" fill="url(#paint5_linear)"/>
<path d="M191.43 89.96C192.284 91.73 192.581 93.7178 192.28 95.66C191.805 97.3887 191.109 99.049 190.21 100.6C189.311 102.167 188.996 104.002 189.32 105.78C189.577 106.575 189.997 107.308 190.553 107.931C191.109 108.554 191.789 109.055 192.55 109.4C194.075 110.075 195.7 110.501 197.36 110.66C198.047 110.778 198.743 110.831 199.44 110.82C201.085 110.658 202.668 110.11 204.06 109.22C206.537 107.98 208.665 106.141 210.25 103.87C211.029 102.727 211.502 101.403 211.623 100.025C211.743 98.6471 211.508 97.2612 210.94 96C210.281 94.7552 209.225 93.7662 207.94 93.19C206.69 92.62 205.22 92.46 204.18 91.57C203.557 90.9598 203.055 90.2371 202.7 89.44L199.37 83.03C199.178 82.5869 198.887 82.1936 198.52 81.88C198.125 81.6192 197.663 81.4769 197.19 81.47C194.54 81.26 192.08 82.57 189.95 83.98C188.62 84.85 188.46 85.16 189.37 86.48C190.163 87.5735 190.853 88.7386 191.43 89.96Z" fill="url(#paint6_linear)"/>
<path d="M200.39 67.34C202.3 71.01 203.04 75.53 201.39 79.34C200.421 81.3402 198.928 83.0404 197.07 84.26C196.221 84.8828 195.26 85.3376 194.24 85.6C192.992 85.81 191.718 85.81 190.47 85.6C188.03 85.4491 185.624 84.9577 183.32 84.14C182.035 83.5806 180.814 82.8832 179.68 82.06C179.223 81.6706 178.664 81.4207 178.07 81.34C177.729 81.3614 177.393 81.4287 177.07 81.54C176.201 81.7688 175.292 81.7995 174.41 81.63C173.863 81.5676 173.341 81.3669 172.893 81.0467C172.445 80.7265 172.086 80.2974 171.85 79.8C171.47 78.8 172.24 77.36 173.33 77.46C170.97 76.22 169.59 73.72 168.33 71.37C167.898 70.6569 167.591 69.8759 167.42 69.06C167.33 67.8363 167.558 66.6102 168.08 65.5C168.606 64.0056 169.307 62.5789 170.17 61.25C172.17 58.42 175.34 56.65 178.6 55.5C182.04 54.3 186.18 53.61 189.6 55.18C190.749 55.883 191.764 56.7835 192.6 57.84C193.97 59.22 195.34 60.6 196.6 62.07C198.063 63.6738 199.335 65.4423 200.39 67.34Z" fill="url(#paint7_linear)"/>
<path d="M178.91 60.23C176.578 61.2506 174.561 62.8769 173.07 64.94C172.365 66.1969 171.83 67.5421 171.48 68.94C171 70.0807 170.954 71.3576 171.35 72.53C171.681 73.1047 172.123 73.6078 172.65 74.01L177.71 78.45C175.33 76.36 171.63 77.54 168.54 76.88C167.323 76.5833 166.186 76.0229 165.21 75.2383C164.234 74.4538 163.442 73.4644 162.89 72.34C161.785 70.0627 161.499 67.4738 162.08 65.01C162.249 64.4005 162.369 63.7785 162.44 63.15C162.51 62.15 162.18 61.08 162.17 60.03C162.17 57.58 163.94 55.51 165.77 53.88C167.6 52.25 169.68 50.7 170.64 48.44C170.939 47.4141 171.366 46.4298 171.91 45.51C172.5 44.76 176.42 44.57 177.27 44.13C179.27 43.13 178.13 41.87 180.09 40.87C180.43 40.6568 180.819 40.5362 181.22 40.52C181.734 40.5859 182.208 40.8301 182.56 41.21C184.89 43.21 189.03 47.81 188.65 51.21C188.07 56.06 182.65 58.34 178.91 60.23Z" fill="#3E3E54"/>
<path d="M168.37 76.42C166.83 77.19 165.05 76.17 163.64 75.19L156.49 70.19C155.876 69.8186 155.343 69.3292 154.92 68.75C154.614 68.1681 154.42 67.5337 154.35 66.88C153.508 62.3808 153.828 57.741 155.28 53.4C156.021 51.2409 157.22 49.2673 158.794 47.6139C160.368 45.9606 162.28 44.6664 164.4 43.82C165.03 43.6 167.77 41.39 168.4 41.47C169.03 41.55 172.79 43.34 177.24 44.12C178.14 44.28 170.42 49.12 167.66 59.34C164.99 69.34 167.57 70.16 168.37 76.42Z" fill="#1A237E"/>
<path d="M168.37 76.42C166.83 77.19 165.05 76.17 163.64 75.19L156.49 70.19C155.876 69.8186 155.343 69.3292 154.92 68.75C154.614 68.1681 154.42 67.5337 154.35 66.88C153.508 62.3808 153.828 57.741 155.28 53.4C156.021 51.2409 157.22 49.2673 158.794 47.6139C160.368 45.9606 162.28 44.6664 164.4 43.82C165.03 43.6 167.77 41.39 168.4 41.47C171.409 42.1289 174.364 43.0147 177.24 44.12C178.09 44.45 170.42 49.12 167.66 59.34C164.99 69.34 167.57 70.16 168.37 76.42Z" fill="url(#paint8_linear)"/>
<path d="M134.35 69.63C133.91 73.15 133 76.63 133.03 80.15C133.1 89.22 136.22 97.97 137.35 106.97C137.635 108.641 137.635 110.349 137.35 112.02C136.94 113.93 135.89 115.63 135.2 117.46C133.97 120.73 133.92 124.31 133.88 127.8L136.01 123.64L136.24 125.44C136.31 125.12 136.91 125.51 136.64 125.7C137.095 124.819 137.295 123.829 137.22 122.84C137.447 124.094 137.494 125.373 137.36 126.64C138.675 122.546 139.494 118.309 139.8 114.02C139.95 112.02 139.75 109.62 137.99 108.68C137.763 105.167 137.248 101.679 136.45 98.25C135.35 94.44 133.35 85.08 133.8 77.78C134.053 73.4904 134.791 69.2433 136 65.12C136 65.12 134.91 65.16 134.35 69.63Z" fill="#1A237E"/>
<path d="M100.39 157.47C98.7199 157.07 96.9899 156.47 95.3299 156.9C93.6699 157.33 92.3299 159.48 93.4599 160.81C94.3199 161.81 96.3699 162.29 96.0299 163.59C95.9104 163.928 95.6949 164.223 95.4099 164.44C93.2999 166.26 90.4099 166.7 87.7899 167.78C85.1699 168.86 82.6899 171.28 83.2599 174.01C85.3017 176.03 87.6679 177.693 90.2599 178.93C92.0186 179.622 93.9084 179.917 95.7943 179.794C97.6802 179.672 99.5157 179.134 101.17 178.22C105.67 175.69 108.17 170.72 112.17 167.43C115.35 164.81 119.35 163.36 122.7 160.96C123 160.74 124.7 160.28 124.84 159.96C124.908 159.626 124.88 159.279 124.76 158.96C124.13 156.71 122.25 152.25 120.47 150.86C114.83 155.95 108.29 159.34 100.39 157.47Z" fill="url(#paint9_linear)"/>
<path d="M271.99 47.1501C275.92 39.6801 273.4 30.1501 276.82 22.4701C278.02 19.7601 279.9 17.4201 281.19 14.7601C282.48 12.1001 283.13 8.85005 281.76 6.23005C281.284 5.41223 280.717 4.65075 280.07 3.96005L277.34 0.740054C277.109 0.381026 276.752 0.12082 276.34 0.0100534C275.75 -0.0599466 275.27 0.480054 274.98 1.01005C273.89 3.01005 273.98 5.43005 273.67 7.70005C273.36 9.97005 272.4 12.4701 270.25 13.2701C269.576 11.0944 268.075 9.27017 266.07 8.19005C265.74 12.6301 269.3 16.5301 269.54 20.9701C269.557 22.8923 269.218 24.8011 268.54 26.6001C267.623 29.4626 266.528 32.2648 265.26 34.9901C266.26 37.5001 267.43 40.2301 268.41 42.7401C268.804 43.91 269.363 45.0178 270.07 46.0301C270.61 46.7201 271.23 46.7201 271.99 47.1501Z" fill="url(#paint10_linear)"/>
<path opacity="0.18" d="M329.89 196.47C332.97 187.237 337.115 178.394 342.24 170.12C344.55 166.39 347.17 162.31 346.47 157.98C332.79 151.687 319.233 145.14 305.8 138.34C305.22 138.04 294.72 154.93 293.95 156.64C291.67 161.71 292.06 165.77 295.54 170.12C304.07 180.79 318.43 189.24 329.89 196.47Z" fill="#1A237E"/>
<path d="M333.12 193.24C336.204 184.009 340.348 175.166 345.47 166.89C347.78 163.16 350.4 159.08 349.7 154.75C336.013 148.477 322.47 141.917 309.07 135.07C308.49 134.77 297.99 151.66 297.22 153.37C294.94 158.44 295.33 162.5 298.81 166.85C307.34 177.56 321.66 186.01 333.12 193.24Z" fill="white"/>
<path opacity="0.18" d="M93.0699 206.87C89.9999 204.72 74.0699 229.34 72.4099 231.8C69.5299 229.49 67.5699 225.44 64.7299 222.69C61.6499 219.69 58.9699 217.95 59.0799 213.25C59.2399 205.8 68.3599 195.57 73.1399 190.59C79.9099 195.78 85.9699 201.93 93.0699 206.87Z" fill="#1A237E"/>
<path d="M91.64 203.64C88.57 201.5 72.64 226.11 70.98 228.57C68.1 226.26 66.14 222.21 63.3 219.46C60.22 216.46 57.54 214.73 57.65 210.03C57.81 202.57 66.93 192.35 71.71 187.36C78.49 192.55 84.55 198.7 91.64 203.64Z" fill="white"/>
<path d="M192.49 332.99C192.497 334.138 192.109 335.254 191.39 336.15C190.692 337.048 189.901 337.869 189.03 338.6L164.27 360.49C161.84 362.64 159.27 364.85 156.17 365.74C149.4 367.67 142.7 362.88 137.28 358.38C132.65 354.55 127.92 350.59 124.21 345.92C122.432 343.717 120.927 341.306 119.73 338.74C118.67 336.44 140.54 323.89 142.61 322.74L171.88 305.83L190.32 328.73C191.36 329.96 192.43 331.34 192.49 332.99Z" fill="white"/>
<path d="M191.39 336.15C190.692 337.048 189.901 337.869 189.03 338.6L164.27 360.49C161.84 362.64 159.27 364.85 156.17 365.74C149.4 367.67 142.7 362.88 137.28 358.38C132.65 354.55 127.92 350.59 124.21 345.92C125.86 342.2 130.27 339.5 134.21 336.7C143.67 329.93 153.21 323.1 163.79 318.29C163.955 318.17 164.143 318.085 164.342 318.042C164.542 317.999 164.748 317.998 164.948 318.04C165.147 318.081 165.336 318.164 165.502 318.283C165.668 318.402 165.807 318.554 165.91 318.73C169.81 322.89 173.81 326.953 177.91 330.92C179.338 332.427 180.971 333.726 182.76 334.78C183.659 335.3 184.654 335.633 185.685 335.758C186.716 335.884 187.762 335.799 188.76 335.51C189.65 335.21 190.87 334.81 191.3 335.64C191.377 335.798 191.408 335.975 191.39 336.15Z" fill="#1A237E"/>
<path d="M191.39 336.15C190.692 337.048 189.901 337.869 189.03 338.6L164.27 360.49C161.84 362.64 159.27 364.85 156.17 365.74C149.4 367.67 142.7 362.88 137.28 358.38C132.65 354.55 127.92 350.59 124.21 345.92C125.86 342.2 130.27 339.5 134.21 336.7C143.67 329.93 153.21 323.1 163.79 318.29C163.955 318.17 164.143 318.085 164.342 318.042C164.542 317.999 164.748 317.998 164.948 318.04C165.147 318.081 165.336 318.164 165.502 318.283C165.668 318.402 165.807 318.554 165.91 318.73C169.81 322.89 173.81 326.953 177.91 330.92C179.338 332.427 180.971 333.726 182.76 334.78C183.659 335.3 184.654 335.633 185.685 335.758C186.716 335.884 187.762 335.799 188.76 335.51C189.65 335.21 190.87 334.81 191.3 335.64C191.377 335.798 191.408 335.975 191.39 336.15Z" fill="url(#paint11_linear)"/>
<path d="M163.26 314.21L165.77 313.33C165.919 313.257 166.087 313.233 166.25 313.26C166.398 313.33 166.523 313.441 166.61 313.58C169.785 317.759 173.421 321.567 177.45 324.93C177.787 325.154 178.049 325.474 178.2 325.85" stroke="#1A237E" stroke-width="1.17" stroke-miterlimit="10"/>
<path d="M171.38 312.85C173.486 315.886 175.858 318.727 178.47 321.34L187.07 330.34" stroke="#1A237E" stroke-width="1.17" stroke-miterlimit="10"/>
<path d="M222.58 241.1C207.65 240.02 192.86 238.17 181.83 238.54C193.31 215.03 186.3 166.4 182.28 145.54L188.55 140.49C188.55 140.49 196.17 185.56 197.97 194.86C199.77 204.16 205.21 230.25 212.97 234.38C219.42 237.8 221.93 240.34 222.58 241.1Z" fill="url(#paint12_linear)"/>
</g>
<defs>
<linearGradient id="paint0_linear" x1="255.63" y1="240.63" x2="238.58" y2="234.95" gradientUnits="userSpaceOnUse">
<stop stop-opacity="0"/>
<stop offset="0.99"/>
</linearGradient>
<linearGradient id="paint1_linear" x1="21581.2" y1="19219.6" x2="15504.6" y2="16166.4" gradientUnits="userSpaceOnUse">
<stop stop-opacity="0"/>
<stop offset="0.99"/>
</linearGradient>
<linearGradient id="paint2_linear" x1="8234.72" y1="1708.19" x2="11210.6" y2="5961.4" gradientUnits="userSpaceOnUse">
<stop stop-opacity="0"/>
<stop offset="0.99"/>
</linearGradient>
<linearGradient id="paint3_linear" x1="44087.6" y1="18257.4" x2="859.936" y2="60903.4" gradientUnits="userSpaceOnUse">
<stop stop-opacity="0"/>
<stop offset="0.99"/>
</linearGradient>
<linearGradient id="paint4_linear" x1="11932.4" y1="3723.47" x2="13107.1" y2="6958.67" gradientUnits="userSpaceOnUse">
<stop stop-opacity="0"/>
<stop offset="0.99"/>
</linearGradient>
<linearGradient id="paint5_linear" x1="189.67" y1="121.26" x2="183.34" y2="72.31" gradientUnits="userSpaceOnUse">
<stop offset="0.02" stop-color="white" stop-opacity="0"/>
<stop offset="0.58" stop-color="white" stop-opacity="0.39"/>
<stop offset="0.68" stop-color="white" stop-opacity="0.68"/>
<stop offset="1" stop-color="white"/>
</linearGradient>
<linearGradient id="paint6_linear" x1="188.8" y1="96.14" x2="211.67" y2="96.14" gradientUnits="userSpaceOnUse">
<stop stop-color="#E5C5D5"/>
<stop offset="0.42" stop-color="#EAD4D1"/>
<stop offset="1" stop-color="#F0E9CB"/>
</linearGradient>
<linearGradient id="paint7_linear" x1="6111.5" y1="2311.12" x2="7329.92" y2="2311.12" gradientUnits="userSpaceOnUse">
<stop stop-color="#E5C5D5"/>
<stop offset="0.42" stop-color="#EAD4D1"/>
<stop offset="1" stop-color="#F0E9CB"/>
</linearGradient>
<linearGradient id="paint8_linear" x1="4176.76" y1="1434.52" x2="3673.2" y2="2815.31" gradientUnits="userSpaceOnUse">
<stop stop-opacity="0"/>
<stop offset="0.99"/>
</linearGradient>
<linearGradient id="paint9_linear" x1="3673.87" y1="4987.11" x2="5414.79" y2="4987.11" gradientUnits="userSpaceOnUse">
<stop stop-color="#E5C5D5"/>
<stop offset="0.42" stop-color="#EAD4D1"/>
<stop offset="1" stop-color="#F0E9CB"/>
</linearGradient>
<linearGradient id="paint10_linear" x1="4895.21" y1="1189.5" x2="5193.17" y2="1189.5" gradientUnits="userSpaceOnUse">
<stop stop-color="#E5C5D5"/>
<stop offset="0.42" stop-color="#EAD4D1"/>
<stop offset="1" stop-color="#F0E9CB"/>
</linearGradient>
<linearGradient id="paint11_linear" x1="10664.9" y1="16545.5" x2="11582.6" y2="18421.4" gradientUnits="userSpaceOnUse">
<stop stop-opacity="0"/>
<stop offset="0.99"/>
</linearGradient>
<linearGradient id="paint12_linear" x1="6334.67" y1="13174.5" x2="27586.7" y2="27459.9" gradientUnits="userSpaceOnUse">
<stop stop-opacity="0"/>
<stop offset="0.99"/>
</linearGradient>
<clipPath id="clip0">
<rect width="393.17" height="369.06" fill="white"/>
</clipPath>
</defs>
</svg>
