<svg width="521" height="434" viewBox="0 0 521 434" fill="none" xmlns="http://www.w3.org/2000/svg">
<g clip-path="url(#clip0)">
<path opacity="0.24" d="M520.11 329.65C519.851 332.458 519.349 335.239 518.61 337.96C516.947 344.277 514.419 350.334 511.1 355.96C491.91 389.45 454.32 408.81 416.51 416.73C378.7 424.65 339.64 422.91 301.06 424.68C248.94 427.04 196.96 435.79 144.84 432.92C120.134 431.537 95.6419 427.555 71.77 421.04C-43.34 421.04 12.94 245.26 19.55 178.62C22.4 149.91 25.74 119.82 42.13 96.07C61.51 67.98 95.83 53.96 129.41 47.87C162.99 41.78 197.57 42.09 230.92 35.09C285.47 23.65 338.2 -7.19999 393.24 1.55001C447.24 10.18 491.03 61.55 491 116.25C491 154.62 473.59 192.77 483.58 230.98C492.27 264.17 523.45 293.55 520.11 329.65Z" fill="#1A237E"/>
<path opacity="0.24" d="M518.57 337.96C516.907 344.277 514.379 350.334 511.06 355.96C491.87 389.45 454.28 408.81 416.47 416.73C378.66 424.65 339.6 422.91 301.02 424.68C248.9 427.04 196.92 435.79 144.8 432.92C120.107 431.534 95.6289 427.552 71.77 421.04C55.77 416.69 22.71 411.04 13.03 396.17C6.98003 386.92 6.03003 369.59 5.78003 354.99C9.40003 355.56 13 356.42 16.16 356.72C26.87 357.72 37.71 357.82 48.45 358.15C71.2034 358.877 93.9634 359.363 116.73 359.61C207.397 360.577 297.997 357.597 388.53 350.67C431.97 347.343 475.317 343.107 518.57 337.96Z" fill="#1A237E"/>
<path d="M361.56 220.61H335.97V378.42H361.56V220.61Z" fill="#1A237E"/>
<path d="M361.56 220.61H335.97V378.42H361.56V220.61Z" fill="url(#paint0_linear)"/>
<path d="M421.72 172.17V234.7H246.4V172.17C246.4 167.887 247.244 163.646 248.884 159.689C250.525 155.732 252.929 152.138 255.959 149.111C258.99 146.084 262.587 143.685 266.546 142.049C270.505 140.414 274.747 139.575 279.03 139.58H389.09C397.738 139.577 406.033 143.009 412.152 149.12C418.27 155.231 421.712 163.522 421.72 172.17Z" fill="#1A237E"/>
<path d="M279.16 145C286.647 145 293.827 147.974 299.122 153.268C304.416 158.563 307.39 165.743 307.39 173.23V234.33H250.93V173.23C250.93 165.743 253.904 158.563 259.198 153.268C264.492 147.974 271.673 145 279.16 145Z" fill="url(#paint1_linear)"/>
<path d="M421.73 172.16V234.69H313.73V168.5C310.5 151.21 298.33 143.26 288.31 139.6H389.11C397.753 139.595 406.044 143.021 412.161 149.127C418.277 155.233 421.719 163.517 421.73 172.16Z" fill="url(#paint2_linear)"/>
<path d="M309.21 225.73H194.59C192.11 225.73 190.1 227.738 190.1 230.215C190.1 232.692 192.11 234.7 194.59 234.7H309.21C311.69 234.7 313.7 232.692 313.7 230.215C313.7 227.738 311.69 225.73 309.21 225.73Z" fill="#1A237E"/>
<path d="M309.21 225.73H194.59C192.11 225.73 190.1 227.738 190.1 230.215C190.1 232.692 192.11 234.7 194.59 234.7H309.21C311.69 234.7 313.7 232.692 313.7 230.215C313.7 227.738 311.69 225.73 309.21 225.73Z" fill="url(#paint3_linear)"/>
<path opacity="0.24" d="M280.98 364.58C266.09 367.25 251.31 370.69 236.26 372.15C226.48 373.1 215.69 373.59 208.61 380.39C206.916 381.823 205.794 383.818 205.45 386.01C205.05 390.72 209.96 394.01 214.36 395.73C227.18 400.8 241.12 402.25 254.89 403.13C277.31 404.55 299.79 404.58 322.26 404.6L389.19 404.66C408.94 404.66 430.87 403.86 445.03 390.07C447.83 387.34 450.3 383.98 450.78 380.07C451.56 373.79 446.78 367.87 441.03 365.24C431.03 360.68 416.1 361.63 405.22 360.42C391.073 358.86 376.87 357.997 362.61 357.83C335.248 357.505 307.917 359.765 280.98 364.58Z" fill="#1A237E"/>
<path d="M374.79 181.66C374.55 182.46 373.79 184.89 373.64 185.77L371.24 194.63C371.133 195.018 371.079 195.418 371.08 195.82C371.068 195.954 371.085 196.09 371.131 196.217C371.177 196.344 371.25 196.459 371.346 196.554C371.441 196.65 371.556 196.723 371.683 196.769C371.81 196.815 371.946 196.832 372.08 196.82C373.004 196.758 373.885 196.409 374.6 195.82C375.654 194.873 376.489 193.708 377.047 192.406C377.604 191.104 377.872 189.696 377.83 188.28C377.873 186.564 377.473 184.866 376.669 183.349C375.865 181.832 374.684 180.548 373.24 179.62C371.05 178.439 368.587 177.86 366.1 177.94C357.68 177.94 351.78 183.53 351.78 191.43C351.78 199.09 357.08 204.11 365.1 204.11C367.165 204.11 369.219 203.814 371.2 203.23C372.784 202.747 374.29 202.036 375.67 201.12L378.1 204.63C376.556 205.642 374.871 206.42 373.1 206.94C370.36 207.787 367.508 208.218 364.64 208.22C359.02 208.22 354.64 206.62 351.48 203.47C349.964 201.908 348.775 200.061 347.98 198.035C347.185 196.009 346.801 193.846 346.85 191.67C346.791 189.375 347.192 187.091 348.028 184.953C348.865 182.815 350.12 180.866 351.72 179.22C355.39 175.55 360.21 173.75 366.4 173.75C375.69 173.75 382.31 179.75 382.31 188.07C382.345 189.844 382.029 191.608 381.378 193.259C380.727 194.911 379.756 196.416 378.52 197.69C376.56 199.718 373.88 200.893 371.06 200.96C370.404 201.007 369.746 200.889 369.147 200.617C368.547 200.344 368.026 199.926 367.63 199.4C367.417 199.024 367.297 198.602 367.28 198.17C366.648 198.98 365.835 199.629 364.905 200.065C363.976 200.501 362.956 200.712 361.93 200.68C357.98 200.68 355.47 197.73 355.47 193.18C355.47 186.44 359.9 180.85 365.2 180.85C367.43 180.85 368.55 181.41 369.63 183.09L370.03 181.69L374.79 181.66ZM366.57 193.51C367.535 191.601 368.077 189.507 368.16 187.37C368.16 185.73 367.24 184.62 365.85 184.62C364.46 184.62 362.94 185.62 361.94 187.49C360.958 189.342 360.41 191.394 360.34 193.49C360.34 195.6 361.14 196.72 362.66 196.72C364.18 196.72 365.57 195.54 366.57 193.51Z" fill="#1A237E"/>
<path d="M135.06 135.33C134.82 131.17 135.31 126.81 133.6 123.01C131.969 119.768 129.261 117.194 125.94 115.73C122.639 114.29 119.202 113.184 115.68 112.43C106.629 110.101 97.7287 107.218 89.03 103.8C89.91 110.02 95.03 114.68 99.74 118.8C98.6718 119.034 97.6552 119.461 96.74 120.06C96.2901 120.369 95.9307 120.792 95.6986 121.286C95.4666 121.78 95.3705 122.327 95.42 122.87C95.6235 123.646 96.0555 124.343 96.66 124.87C98.6277 126.834 101.098 128.217 103.8 128.87L96.47 131.87C96.116 131.973 95.8063 132.191 95.59 132.49C95.27 133.06 95.7 133.75 96.17 134.21C99.69 137.65 105.32 137.29 110.17 136.7C107.781 137.838 105.669 139.483 103.98 141.52C103.86 141.631 103.768 141.769 103.709 141.921C103.65 142.073 103.626 142.237 103.64 142.4C103.75 142.79 104.22 142.92 104.64 142.98C108.947 143.583 113.337 142.927 117.28 141.09C116.122 142.005 115.219 143.204 114.66 144.57C114.577 144.724 114.533 144.895 114.533 145.07C114.533 145.245 114.577 145.417 114.66 145.57C114.861 145.756 115.126 145.86 115.4 145.86C118.925 146.204 122.449 145.188 125.25 143.02C125.37 145.54 127.51 147.6 129.9 148.42C132.339 149.08 134.886 149.246 137.39 148.91C142.39 148.56 139.39 145.68 137.68 143.55C136.001 141.135 135.088 138.271 135.06 135.33Z" fill="#1A237E"/>
<path d="M135.06 135.33C134.82 131.17 135.31 126.81 133.6 123.01C131.969 119.768 129.261 117.194 125.94 115.73C122.639 114.29 119.202 113.184 115.68 112.43C106.629 110.101 97.7287 107.218 89.03 103.8C89.91 110.02 95.03 114.68 99.74 118.8C98.6718 119.034 97.6552 119.461 96.74 120.06C96.2901 120.369 95.9307 120.792 95.6986 121.286C95.4666 121.78 95.3705 122.327 95.42 122.87C95.6235 123.646 96.0555 124.343 96.66 124.87C98.6277 126.834 101.098 128.217 103.8 128.87L96.47 131.87C96.116 131.973 95.8063 132.191 95.59 132.49C95.27 133.06 95.7 133.75 96.17 134.21C99.69 137.65 105.32 137.29 110.17 136.7C107.781 137.838 105.669 139.483 103.98 141.52C103.86 141.631 103.768 141.769 103.709 141.921C103.65 142.073 103.626 142.237 103.64 142.4C103.75 142.79 104.22 142.92 104.64 142.98C108.947 143.583 113.337 142.927 117.28 141.09C116.122 142.005 115.219 143.204 114.66 144.57C114.577 144.724 114.533 144.895 114.533 145.07C114.533 145.245 114.577 145.417 114.66 145.57C114.861 145.756 115.126 145.86 115.4 145.86C118.925 146.204 122.449 145.188 125.25 143.02C125.37 145.54 127.51 147.6 129.9 148.42C132.339 149.08 134.886 149.246 137.39 148.91C142.39 148.56 139.39 145.68 137.68 143.55C136.001 141.135 135.088 138.271 135.06 135.33Z" fill="url(#paint4_linear)"/>
<path d="M127.62 135.01C127.46 132.17 127.79 129.19 126.62 126.6C125.51 124.373 123.656 122.605 121.38 121.6C119.127 120.617 116.782 119.86 114.38 119.34C108.194 117.751 102.112 115.781 96.1699 113.44C96.7599 117.69 100.23 120.87 103.48 123.67C102.767 123.839 102.09 124.133 101.48 124.54C101.172 124.75 100.925 125.039 100.767 125.377C100.609 125.714 100.544 126.089 100.58 126.46C100.715 126.988 101.008 127.463 101.42 127.82C102.768 129.159 104.455 130.106 106.3 130.56L101.3 132.62C101.054 132.691 100.839 132.842 100.69 133.05C100.47 133.44 100.77 133.91 101.09 134.22C103.5 136.58 107.35 136.33 110.69 135.92C109.058 136.701 107.615 137.827 106.46 139.22C106.378 139.295 106.314 139.389 106.274 139.493C106.234 139.597 106.219 139.709 106.23 139.82C106.3 140.08 106.62 140.17 106.89 140.21C109.834 140.63 112.837 140.182 115.53 138.92C114.74 139.547 114.124 140.367 113.74 141.3C113.65 141.53 113.57 141.82 113.74 142.01C113.806 142.073 113.885 142.123 113.971 142.155C114.057 142.188 114.148 142.203 114.24 142.2C116.65 142.439 119.062 141.749 120.98 140.27C121.09 141.126 121.449 141.932 122.013 142.586C122.576 143.24 123.319 143.714 124.15 143.95C125.818 144.399 127.557 144.514 129.27 144.29C132.72 144.05 130.62 142.08 129.47 140.62C128.302 138.979 127.658 137.024 127.62 135.01Z" fill="#1A237E"/>
<path d="M127.62 135.01C127.46 132.17 127.79 129.19 126.62 126.6C125.51 124.373 123.656 122.605 121.38 121.6C119.127 120.617 116.782 119.86 114.38 119.34C108.194 117.751 102.112 115.781 96.1699 113.44C96.7599 117.69 100.23 120.87 103.48 123.67C102.767 123.839 102.09 124.133 101.48 124.54C101.172 124.75 100.925 125.039 100.767 125.377C100.609 125.714 100.544 126.089 100.58 126.46C100.715 126.988 101.008 127.463 101.42 127.82C102.768 129.159 104.455 130.106 106.3 130.56L101.3 132.62C101.054 132.691 100.839 132.842 100.69 133.05C100.47 133.44 100.77 133.91 101.09 134.22C103.5 136.58 107.35 136.33 110.69 135.92C109.058 136.701 107.615 137.827 106.46 139.22C106.378 139.295 106.314 139.389 106.274 139.493C106.234 139.597 106.219 139.709 106.23 139.82C106.3 140.08 106.62 140.17 106.89 140.21C109.834 140.63 112.837 140.182 115.53 138.92C114.74 139.547 114.124 140.367 113.74 141.3C113.65 141.53 113.57 141.82 113.74 142.01C113.806 142.073 113.885 142.123 113.971 142.155C114.057 142.188 114.148 142.203 114.24 142.2C116.65 142.439 119.062 141.749 120.98 140.27C121.09 141.126 121.449 141.932 122.013 142.586C122.576 143.24 123.319 143.714 124.15 143.95C125.818 144.399 127.557 144.514 129.27 144.29C132.72 144.05 130.62 142.08 129.47 140.62C128.302 138.979 127.658 137.024 127.62 135.01Z" fill="url(#paint5_linear)"/>
<path d="M202.37 125.87C202.61 121.71 202.12 117.35 203.82 113.55C205.452 110.303 208.164 107.725 211.49 106.26C214.792 104.823 218.229 103.717 221.75 102.96C230.798 100.631 239.695 97.7485 248.39 94.33C247.52 100.54 242.44 105.2 237.69 109.33C238.76 109.564 239.777 109.995 240.69 110.6C241.144 110.903 241.507 111.323 241.739 111.817C241.972 112.31 242.065 112.857 242.01 113.4C241.817 114.178 241.387 114.877 240.78 115.4C238.81 117.36 236.341 118.744 233.64 119.4L240.96 122.4C241.319 122.504 241.633 122.726 241.85 123.03C242.17 123.6 241.73 124.29 241.27 124.74C237.74 128.19 232.11 127.83 227.22 127.23C229.608 128.375 231.719 130.022 233.41 132.06C233.533 132.168 233.627 132.305 233.685 132.459C233.742 132.612 233.761 132.777 233.74 132.94C233.64 133.32 233.17 133.45 232.74 133.51C228.434 134.115 224.044 133.462 220.1 131.63C221.264 132.542 222.17 133.742 222.73 135.11C222.818 135.262 222.864 135.434 222.864 135.61C222.864 135.785 222.818 135.958 222.73 136.11C222.632 136.205 222.516 136.278 222.389 136.326C222.262 136.374 222.126 136.396 221.99 136.39C218.466 136.735 214.944 135.723 212.14 133.56C212.03 136.08 209.88 138.14 207.5 138.96C205.059 139.611 202.514 139.774 200.01 139.44C194.95 139.1 198.01 136.21 199.72 134.08C201.57 131.8 202.2 128.71 202.37 125.87Z" fill="#1A237E"/>
<path d="M202.37 125.87C202.61 121.71 202.12 117.35 203.82 113.55C205.452 110.303 208.164 107.725 211.49 106.26C214.792 104.823 218.229 103.717 221.75 102.96C230.798 100.631 239.695 97.7485 248.39 94.33C247.52 100.54 242.44 105.2 237.69 109.33C238.76 109.564 239.777 109.995 240.69 110.6C241.144 110.903 241.507 111.323 241.739 111.817C241.972 112.31 242.065 112.857 242.01 113.4C241.817 114.178 241.387 114.877 240.78 115.4C238.81 117.36 236.341 118.744 233.64 119.4L240.96 122.4C241.319 122.504 241.633 122.726 241.85 123.03C242.17 123.6 241.73 124.29 241.27 124.74C237.74 128.19 232.11 127.83 227.22 127.23C229.608 128.375 231.719 130.022 233.41 132.06C233.533 132.168 233.627 132.305 233.685 132.459C233.742 132.612 233.761 132.777 233.74 132.94C233.64 133.32 233.17 133.45 232.74 133.51C228.434 134.115 224.044 133.462 220.1 131.63C221.264 132.542 222.17 133.742 222.73 135.11C222.818 135.262 222.864 135.434 222.864 135.61C222.864 135.785 222.818 135.958 222.73 136.11C222.632 136.205 222.516 136.278 222.389 136.326C222.262 136.374 222.126 136.396 221.99 136.39C218.466 136.735 214.944 135.723 212.14 133.56C212.03 136.08 209.88 138.14 207.5 138.96C205.059 139.611 202.514 139.774 200.01 139.44C194.95 139.1 198.01 136.21 199.72 134.08C201.57 131.8 202.2 128.71 202.37 125.87Z" fill="url(#paint6_linear)"/>
<path d="M209.81 125.55C209.97 122.71 209.64 119.73 210.81 117.13C211.924 114.906 213.776 113.138 216.05 112.13C218.303 111.149 220.648 110.396 223.05 109.88C229.234 108.282 235.316 106.308 241.26 103.97C240.66 108.22 237.19 111.41 233.94 114.21C234.653 114.374 235.331 114.665 235.94 115.07C236.249 115.28 236.496 115.569 236.656 115.906C236.816 116.244 236.883 116.618 236.85 116.99C236.712 117.522 236.415 118 236 118.36C234.655 119.7 232.966 120.645 231.12 121.09L236.12 123.16C236.362 123.227 236.574 123.375 236.72 123.58C236.94 123.97 236.64 124.45 236.33 124.76C233.92 127.11 230.07 126.86 226.73 126.46C228.361 127.238 229.802 128.364 230.95 129.76C231.035 129.833 231.1 129.926 231.14 130.031C231.18 130.136 231.194 130.249 231.18 130.36C231.11 130.62 230.79 130.71 230.52 130.75C227.576 131.164 224.575 130.715 221.88 129.46C222.675 130.085 223.295 130.905 223.68 131.84C223.739 131.947 223.769 132.068 223.769 132.19C223.769 132.312 223.739 132.433 223.68 132.54C223.612 132.605 223.533 132.657 223.445 132.691C223.357 132.725 223.264 132.742 223.17 132.74C220.762 132.971 218.356 132.277 216.44 130.8C216.328 131.657 215.968 132.462 215.405 133.118C214.842 133.773 214.1 134.25 213.27 134.49C211.599 134.94 209.855 135.053 208.14 134.82C204.69 134.59 206.8 132.61 207.95 131.16C209.114 129.517 209.762 127.563 209.81 125.55Z" fill="#1A237E"/>
<path d="M209.81 125.55C209.97 122.71 209.64 119.73 210.81 117.13C211.924 114.906 213.776 113.138 216.05 112.13C218.303 111.149 220.648 110.396 223.05 109.88C229.234 108.282 235.316 106.308 241.26 103.97C240.66 108.22 237.19 111.41 233.94 114.21C234.653 114.374 235.331 114.665 235.94 115.07C236.249 115.28 236.496 115.569 236.656 115.906C236.816 116.244 236.883 116.618 236.85 116.99C236.712 117.522 236.415 118 236 118.36C234.655 119.7 232.966 120.645 231.12 121.09L236.12 123.16C236.362 123.227 236.574 123.375 236.72 123.58C236.94 123.97 236.64 124.45 236.33 124.76C233.92 127.11 230.07 126.86 226.73 126.46C228.361 127.238 229.802 128.364 230.95 129.76C231.035 129.833 231.1 129.926 231.14 130.031C231.18 130.136 231.194 130.249 231.18 130.36C231.11 130.62 230.79 130.71 230.52 130.75C227.576 131.164 224.575 130.715 221.88 129.46C222.675 130.085 223.295 130.905 223.68 131.84C223.739 131.947 223.769 132.068 223.769 132.19C223.769 132.312 223.739 132.433 223.68 132.54C223.612 132.605 223.533 132.657 223.445 132.691C223.357 132.725 223.264 132.742 223.17 132.74C220.762 132.971 218.356 132.277 216.44 130.8C216.328 131.657 215.968 132.462 215.405 133.118C214.842 133.773 214.1 134.25 213.27 134.49C211.599 134.94 209.855 135.053 208.14 134.82C204.69 134.59 206.8 132.61 207.95 131.16C209.114 129.517 209.762 127.563 209.81 125.55Z" fill="url(#paint7_linear)"/>
<path d="M206.089 137.185L131.18 144.939L135.959 191.113L210.869 183.358L206.089 137.185Z" fill="#1A237E"/>
<path d="M210.87 183.35L135.96 191.1L131.18 144.93L207.46 136.44L210.87 183.35Z" fill="url(#paint8_linear)"/>
<path d="M131.18 144.93L172.71 179.18L206.44 137.83L131.18 144.93Z" fill="url(#paint9_linear)"/>
<path d="M208.4 147.2C214.193 147.2 218.89 142.503 218.89 136.71C218.89 130.917 214.193 126.22 208.4 126.22C202.606 126.22 197.91 130.917 197.91 136.71C197.91 142.503 202.606 147.2 208.4 147.2Z" fill="#1A237E"/>
<path d="M208.61 147.34C214.404 147.34 219.1 142.643 219.1 136.85C219.1 131.057 214.404 126.36 208.61 126.36C202.817 126.36 198.12 131.057 198.12 136.85C198.12 142.643 202.817 147.34 208.61 147.34Z" fill="url(#paint10_linear)"/>
<path d="M346.992 189.652L279.593 178.228L272.551 219.775L339.95 231.199L346.992 189.652Z" fill="#1A237E"/>
<path d="M339.93 231.22L272.52 219.79L279.57 178.25L348.35 189.36L339.93 231.22Z" fill="url(#paint11_linear)"/>
<path d="M279.57 178.25L307.56 218.3L347.12 190.33L279.57 178.25Z" fill="url(#paint12_linear)"/>
<path d="M318.407 162.807L269.169 154.462L264.024 184.819L313.262 193.164L318.407 162.807Z" fill="#1A237E"/>
<path d="M313.25 193.18L264.01 184.83L269.16 154.48L319.4 162.6L313.25 193.18Z" fill="url(#paint13_linear)"/>
<path d="M269.16 154.48L289.61 183.74L318.5 163.31L269.16 154.48Z" fill="url(#paint14_linear)"/>
</g>
<defs>
<linearGradient id="paint0_linear" x1="349.43" y1="357.77" x2="347.51" y2="189.51" gradientUnits="userSpaceOnUse">
<stop stop-color="#010101" stop-opacity="0"/>
<stop offset="0.95" stop-color="#010101"/>
</linearGradient>
<linearGradient id="paint1_linear" x1="14418.4" y1="17090.9" x2="17606.7" y2="17090.9" gradientUnits="userSpaceOnUse">
<stop stop-color="#010101" stop-opacity="0"/>
<stop offset="0.95" stop-color="#010101"/>
</linearGradient>
<linearGradient id="paint2_linear" x1="50363.5" y1="14250" x2="49669" y2="30820.9" gradientUnits="userSpaceOnUse">
<stop stop-color="#010101" stop-opacity="0"/>
<stop offset="0.95" stop-color="#010101"/>
</linearGradient>
<linearGradient id="paint3_linear" x1="31247.1" y1="2194.29" x2="31247.9" y2="2390.15" gradientUnits="userSpaceOnUse">
<stop stop-color="#010101" stop-opacity="0"/>
<stop offset="0.95" stop-color="#010101"/>
</linearGradient>
<linearGradient id="paint4_linear" x1="87.35" y1="141.3" x2="123.83" y2="120.73" gradientUnits="userSpaceOnUse">
<stop stop-color="white" stop-opacity="0"/>
<stop offset="0.95" stop-color="white"/>
</linearGradient>
<linearGradient id="paint5_linear" x1="5117.26" y1="3933.13" x2="4644.62" y2="4592.98" gradientUnits="userSpaceOnUse">
<stop stop-color="white" stop-opacity="0"/>
<stop offset="0.95" stop-color="white"/>
</linearGradient>
<linearGradient id="paint6_linear" x1="-14070" y1="6525.69" x2="-15819.5" y2="5410.49" gradientUnits="userSpaceOnUse">
<stop stop-color="white" stop-opacity="0"/>
<stop offset="0.95" stop-color="white"/>
</linearGradient>
<linearGradient id="paint7_linear" x1="-10892.1" y1="3631.53" x2="-10419.1" y2="4291.38" gradientUnits="userSpaceOnUse">
<stop stop-color="white" stop-opacity="0"/>
<stop offset="0.95" stop-color="white"/>
</linearGradient>
<linearGradient id="paint8_linear" x1="13825.1" y1="7242.24" x2="13732.5" y2="12934.6" gradientUnits="userSpaceOnUse">
<stop stop-color="white" stop-opacity="0"/>
<stop offset="0.95" stop-color="white"/>
</linearGradient>
<linearGradient id="paint9_linear" x1="58565.6" y1="-24248.4" x2="59318.1" y2="-22552.1" gradientUnits="userSpaceOnUse">
<stop stop-color="white" stop-opacity="0"/>
<stop offset="0.95" stop-color="white"/>
</linearGradient>
<linearGradient id="paint10_linear" x1="4563.85" y1="3006.28" x2="4760.22" y2="2848.72" gradientUnits="userSpaceOnUse">
<stop stop-color="white" stop-opacity="0"/>
<stop offset="0.95" stop-color="white"/>
</linearGradient>
<linearGradient id="paint11_linear" x1="62620.6" y1="2461.33" x2="62308.8" y2="6394.5" gradientUnits="userSpaceOnUse">
<stop stop-color="white" stop-opacity="0"/>
<stop offset="0.95" stop-color="white"/>
</linearGradient>
<linearGradient id="paint12_linear" x1="52930.3" y1="-1759.22" x2="53118.8" y2="-160.643" gradientUnits="userSpaceOnUse">
<stop stop-color="white" stop-opacity="0"/>
<stop offset="0.95" stop-color="white"/>
</linearGradient>
<linearGradient id="paint13_linear" x1="44769.6" y1="948.5" x2="44602.8" y2="3047.67" gradientUnits="userSpaceOnUse">
<stop stop-color="white" stop-opacity="0"/>
<stop offset="0.95" stop-color="white"/>
</linearGradient>
<linearGradient id="paint14_linear" x1="37914.2" y1="-1937.69" x2="38014.8" y2="-1084.57" gradientUnits="userSpaceOnUse">
<stop stop-color="white" stop-opacity="0"/>
<stop offset="0.95" stop-color="white"/>
</linearGradient>
<clipPath id="clip0">
<rect width="520.36" height="433.46" fill="white"/>
</clipPath>
</defs>
</svg>
