<svg width="550" height="476" viewBox="0 0 550 476" fill="none" xmlns="http://www.w3.org/2000/svg">
<g clip-path="url(#clip0)">
<path opacity="0.24" d="M543.03 291.1C542.111 290.093 541.107 289.166 540.03 288.33C542.03 209.19 535.75 44.83 535.48 37.72L534.03 0L340.25 103.49L198.92 21.65L187.2 28.16C170.64 37.36 25.2 118.16 18.13 122.29L6.26001 129.18L6.46001 144.5C7.03001 192.1 9.86001 471.5 9.89001 475.23C9.89001 475.23 66.18 442.01 75.2 436.59C90.2 427.54 111.02 414.9 136.95 399.03C167.54 380.29 198.56 361.16 213.89 351.7C269.8 382.28 328.89 415.14 338.2 421.28C342.602 425.026 348.2 427.073 353.98 427.05C360.98 427.05 365.53 427.05 449.74 386.17C490.14 366.57 530.5 346.36 535.2 343.99C543.04 339.99 547.99 332.29 548.79 322.76C548.97 320.58 548.96 318.45 548.96 316.19C548.96 313.93 548.96 311.47 549.14 309.3C549.438 306.009 549.049 302.691 547.997 299.558C546.945 296.425 545.254 293.545 543.03 291.1ZM355.46 394.27C348.73 389.89 331.81 380.11 286.39 354.95C252.02 335.95 217.53 317.1 217.19 316.95L212.85 314.58L208.65 317.18C152.59 351.83 71.75 401.47 41.84 419.08C41.23 366.03 39.02 181.56 38.62 147.56C62.62 134.1 175.27 71.5 198.62 58.56L339.62 140.28L503.86 52.54C505.53 99.92 510.67 257.71 506.92 310.01C506.781 312.026 507.349 314.028 508.526 315.67C509.703 317.313 511.416 318.494 513.37 319.01C468.46 341.52 374.38 387.7 355.46 394.27Z" fill="black"/>
<path d="M30.0601 134.65C37.0601 130.53 198.67 40.7801 198.67 40.7801C198.67 40.7801 342.46 119.32 342.55 113.7C342.64 108.08 514.63 32.4701 511.86 30.6501C509.48 29.0601 519.86 239.95 515.4 302.65C515.3 304.02 525.71 297.96 525.6 299.18C524.88 306.95 525.92 314.25 524.54 314.95C515.03 319.75 356.26 399.17 353.54 395.33C350.82 391.49 213.17 316.43 213.17 316.43C213.17 316.43 33.5101 427.44 33.5101 425.34C33.5101 423.24 30.0601 134.65 30.0601 134.65Z" fill="#1A237E"/>
<path d="M25.99 437.29L25.94 429.7C25.94 426.48 22.52 141.96 22.49 139.09L22.46 134.65L26.26 132.43C33.26 128.32 188.42 42.14 195.02 38.43L198.77 36.35L339.95 118.15L518.95 22.65L519.46 34.7C519.77 42.79 526.63 223.44 523.62 295.95C524.209 295.827 524.808 295.764 525.41 295.76C526.495 295.756 527.57 295.979 528.565 296.412C529.56 296.846 530.454 297.482 531.19 298.28C531.915 299.07 532.468 300.003 532.812 301.019C533.157 302.035 533.285 303.112 533.19 304.18C532.92 307.11 532.93 310.02 532.94 312.59C532.94 318.2 532.94 323.5 528 326.01C523.31 328.38 483 348.55 442.78 368.08C361.89 407.33 356.97 407.34 354.03 407.34C352.962 407.358 351.901 407.162 350.91 406.764C349.919 406.365 349.018 405.772 348.26 405.02C340.95 399.61 263.62 356.88 213.44 329.48C201.85 336.64 165.17 359.28 128.6 381.68C102.76 397.52 82.02 410.13 66.97 419.18C36.85 437.29 36.29 437.29 33.61 437.29H25.99Z" fill="url(#paint0_linear)"/>
<path opacity="0.13" d="M356.82 191.59L513.37 111.93L511.83 32.27L359.68 113.53L356.82 191.59Z" fill="white"/>
<path opacity="0.13" d="M32.98 229.64L196.27 155.64V226.42L32.98 316.99V229.64Z" fill="white"/>
<path d="M536.72 290.47C535.227 288.833 533.395 287.543 531.35 286.69C533.72 209.84 527.25 39.55 526.95 31.69L526.02 7.54004L504.7 18.92L368.1 91.92L340.05 106.92L330.58 101.43L296.76 81.78L257.94 59.29L206.23 29.29L198.8 24.98L191.3 29.15C184.69 32.82 29.5 119.03 22.39 123.15L14.79 127.65L14.9 136.45C14.9 139.32 18.32 422.97 18.35 427.03C18.3712 431.04 19.9784 434.88 22.8208 437.709C25.6632 440.538 29.5096 442.127 33.52 442.13C38.19 442.13 41.11 440.44 49.78 435.41C54.72 432.54 61.78 428.35 70.78 422.94C85.85 413.88 106.6 401.25 132.47 385.41C165.74 365.03 199.1 344.41 213.59 335.5C262.3 362.12 334.01 401.76 343.37 408.17C346.269 410.778 350.04 412.206 353.94 412.17C358.88 412.17 363.54 412.17 445.94 372.17C486.19 352.63 526.57 332.42 531.28 330.04C534.28 328.52 539.48 324.62 540.28 315.69C540.43 313.88 540.42 312.01 540.42 309.85C540.42 307.45 540.42 304.72 540.64 302.16C540.833 300.046 540.585 297.915 539.91 295.903C539.235 293.89 538.149 292.04 536.72 290.47ZM524.51 316.54C515.23 321.22 363.65 397.06 353.94 397.06C353.859 397.071 353.777 397.064 353.7 397.04C353.622 397.016 353.55 396.975 353.49 396.92C350.75 393.08 213.12 318.02 213.12 318.02C213.12 318.02 36.84 427.02 33.52 427.02C33.52 424.92 30.07 136.32 30.07 136.32C37.07 132.2 198.68 42.45 198.68 42.45L247.87 70.95L280.68 89.95L331.57 119.44L339.79 124.2L368.44 108.9L511.87 32.3C511.87 32.3 519.87 241.6 515.41 304.3C515.41 304.44 515.5 304.5 515.69 304.5C517.17 304.5 524.05 300.67 525.39 300.67C525.54 300.67 525.62 300.72 525.61 300.83C524.85 308.54 525.89 315.84 524.51 316.54Z" fill="white"/>
<path d="M368.1 91.8801L340.05 106.88L330.58 101.39C332.754 107.294 333.054 113.724 331.441 119.805C329.827 125.885 326.378 131.321 321.564 135.37C316.749 139.42 310.803 141.886 304.536 142.434C298.269 142.981 291.985 141.583 286.541 138.43C281.098 135.276 276.758 130.521 274.115 124.812C271.472 119.104 270.653 112.719 271.77 106.527C272.887 100.336 275.886 94.6402 280.358 90.2153C284.83 85.7903 290.557 82.8518 296.76 81.8L257.94 59.3101C254.111 62.7591 250.716 66.6611 247.83 70.9301C244.475 75.9096 241.704 81.258 239.57 86.8701C229.41 113.18 232.43 142.78 246.85 167.03L287.64 252.4C287.64 252.4 362.46 171.02 368.4 108.87C368.984 103.215 368.883 97.5107 368.1 91.8801Z" fill="url(#paint1_linear)"/>
<path d="M4.03993 340.42C-0.270068 347.6 -2.42007 358.23 4.24993 363.28C6.96993 365.33 10.6799 365.98 12.9499 368.53C16.3499 372.35 14.8199 378.41 12.3099 382.88C9.79993 387.35 6.39993 391.75 6.52993 396.88C6.75993 405.88 17.0899 410.59 25.6999 413.19C28.1499 413.93 30.6999 414.68 33.2299 414.19C35.7599 413.7 37.9399 412.02 39.8799 410.28C47.461 403.446 53.4604 395.041 57.4599 385.65C59.0899 381.8 60.3699 377.42 58.8599 373.52C57.6599 370.41 54.8599 368.22 52.8599 365.62C50.366 362.377 48.8524 358.488 48.4979 354.412C48.1435 350.337 48.9632 346.245 50.8599 342.62C52.8599 338.91 55.9599 335.89 58.1599 332.28C66.7699 318.2 45.4399 313 40.6699 303.11C37.0799 295.67 40.1999 289.03 27.7799 286.64C16.8299 284.53 11.9999 289.64 10.8299 300.19C10.0199 307.58 14.3499 314.19 13.5299 321.45C12.7099 328.71 7.59993 334.48 4.03993 340.42Z" fill="#1A237E"/>
<path d="M31.7501 416.14L33.7501 449.56C33.9801 453.49 35.3601 458.56 39.3001 458.69C42.9701 458.78 44.7701 454.22 44.9901 450.55C45.6801 438.99 41.1701 427.86 37.7601 416.8C34.3501 405.74 32.1001 393.37 37.0001 382.89C38.3801 379.95 40.3201 376.61 38.8501 373.71C37.3432 379.338 34.9391 384.687 31.7301 389.55L26.7301 357.81C26.1801 354.29 25.3101 350.31 22.2001 348.57L26.2001 382.64L21.3501 381.75C18.8101 381.29 27.9401 395.43 28.2401 396.14C30.9001 402.39 31.3501 409.44 31.7501 416.14Z" fill="#1A237E"/>
<path d="M469.8 338.77C471.1 326.48 484.46 319.46 490.46 308.65C491.53 306.75 492.39 304.55 491.93 302.41C491.32 299.59 488.68 297.78 486.53 295.87C476.53 286.97 475.19 269.97 483.69 259.62C489.43 252.62 498.97 248.22 501.29 239.49C502.54 234.8 501.34 229.86 500.87 225.03C500.27 218.92 500.87 212.5 503.99 207.18C507.11 201.86 512.9 197.9 518.99 198.25C528.54 198.79 534.84 209.25 535.13 218.77C535.42 228.29 531.6 237.46 529.43 246.77C528.65 250.1 528.09 253.61 528.96 256.91C530.26 261.91 534.44 265.41 537.64 269.39C545.2 278.81 546.77 294.39 537.41 302.01C532.16 306.29 523.67 308.51 522.95 315.25C522.5 319.39 525.59 323.13 529.07 325.41C532.55 327.69 536.6 329.09 539.86 331.68C548.06 338.19 548.61 352.21 540.94 359.35C538.11 361.97 534.53 363.64 531.6 366.14C528.67 368.64 526.35 372.52 527.39 376.22C527.79 377.64 528.64 378.89 528.98 380.32C529.72 383.44 527.76 386.7 525.1 388.47C522.44 390.24 519.18 390.87 516.03 391.47C508.89 392.79 500.24 394.3 494.03 389.41C487.82 384.52 490.58 380.18 488.29 373.95C483.71 361.41 468.16 354.32 469.8 338.77Z" fill="#1A237E"/>
<path d="M508 340.65C507.855 339.592 507.771 338.527 507.75 337.46C507.769 337.051 507.941 336.665 508.233 336.378C508.525 336.091 508.914 335.926 509.323 335.914C509.732 335.903 510.13 336.047 510.438 336.317C510.745 336.587 510.939 336.963 510.98 337.37L512.2 354.17C512.35 356.17 513.38 358.83 515.31 358.32C515.785 354.286 516.945 350.363 518.74 346.72C518.899 346.393 519.17 346.135 519.503 345.99C519.836 345.846 520.21 345.826 520.557 345.933C520.904 346.041 521.201 346.269 521.394 346.577C521.587 346.884 521.664 347.251 521.61 347.61C521.15 350.55 519.73 353.52 518.61 356.35C507.84 383.91 526.46 416.35 516.22 444.08C515.4 445.21 513.91 443.42 513.72 442.08C511.204 423.716 510.581 405.142 511.86 386.65C512.93 371.19 510.03 355.96 508 340.65Z" fill="#1A237E"/>
<path d="M31.7501 416.14L33.7501 449.56C33.9801 453.49 35.3601 458.56 39.3001 458.69C42.9701 458.78 44.7701 454.22 44.9901 450.55C45.6801 438.99 41.1701 427.86 37.7601 416.8C34.3501 405.74 32.1001 393.37 37.0001 382.89C38.3801 379.95 40.3201 376.61 38.8501 373.71C37.3432 379.338 34.9391 384.687 31.7301 389.55L26.7301 357.81C26.1801 354.29 25.3101 350.31 22.2001 348.57L26.2001 382.64L21.3501 381.75C18.8101 381.29 27.9401 395.43 28.2401 396.14C30.9001 402.39 31.3501 409.44 31.7501 416.14Z" fill="url(#paint2_linear)"/>
<path d="M508 340.65C507.855 339.592 507.771 338.527 507.75 337.46C507.769 337.051 507.941 336.665 508.233 336.378C508.525 336.091 508.914 335.926 509.323 335.914C509.732 335.903 510.13 336.047 510.438 336.317C510.745 336.587 510.939 336.963 510.98 337.37L512.2 354.17C512.35 356.17 513.38 358.83 515.31 358.32C515.816 353.996 517.114 349.803 519.14 345.95C519.286 345.666 519.527 345.443 519.821 345.318C520.115 345.193 520.443 345.174 520.749 345.266C521.055 345.357 521.32 345.552 521.497 345.818C521.674 346.083 521.753 346.402 521.72 346.72C521.43 349.94 519.84 353.24 518.62 356.35C507.85 383.91 526.47 416.35 516.23 444.08C515.41 445.21 513.92 443.42 513.73 442.08C511.211 423.716 510.584 405.142 511.86 386.65C512.93 371.19 510.03 355.96 508 340.65Z" fill="url(#paint3_linear)"/>
<path d="M353.11 77.91C345.2 54.85 327.77 34.42 290.71 35.58C252.94 36.76 234.71 57.58 226.05 79.91C215.89 106.22 218.91 135.83 233.33 160.07L287.64 252.38L336.99 165.65C349.01 140.92 363.4 107.86 353.11 77.91ZM288.35 135.58C282.299 135.58 276.385 133.786 271.354 130.424C266.323 127.062 262.402 122.284 260.088 116.694C257.773 111.104 257.167 104.953 258.348 99.0185C259.53 93.0843 262.444 87.6337 266.723 83.356C271.002 79.0783 276.454 76.1657 282.388 74.9865C288.323 73.8073 294.474 74.4145 300.063 76.7313C305.653 79.0482 310.429 82.9705 313.789 88.0023C317.15 93.0342 318.942 98.9494 318.94 105C318.94 109.017 318.149 112.994 316.611 116.705C315.074 120.416 312.82 123.787 309.98 126.627C307.139 129.467 303.767 131.719 300.055 133.255C296.344 134.791 292.367 135.581 288.35 135.58Z" fill="#1A237E"/>
<path opacity="0.2" d="M252.46 79.91C262.53 60.8 275.81 40.91 306.46 36.5C301.278 35.6942 296.031 35.3861 290.79 35.58C253.02 36.76 234.79 57.58 226.13 79.91C215.97 106.22 218.99 135.83 233.41 160.07L287.72 252.38C287.72 252.38 223.09 135.58 252.46 79.91Z" fill="white"/>
<path opacity="0.13" d="M284.13 105C284.13 99.2238 285.764 93.5652 288.842 88.6779C291.921 83.7906 296.32 79.8739 301.53 77.38C296.867 75.1581 291.718 74.1531 286.562 74.4586C281.405 74.7641 276.411 76.3703 272.043 79.1273C267.675 81.8843 264.077 85.7024 261.583 90.2256C259.089 94.7488 257.781 99.8299 257.781 104.995C257.781 110.16 259.089 115.241 261.583 119.764C264.077 124.288 267.675 128.106 272.043 130.863C276.411 133.62 281.405 135.226 286.562 135.531C291.718 135.837 296.867 134.832 301.53 132.61C296.32 130.119 291.921 126.204 288.842 121.318C285.763 116.432 284.129 110.775 284.13 105Z" fill="white"/>
<path d="M198.76 42.47C198.097 42.47 197.461 42.7334 196.992 43.2022C196.523 43.671 196.26 44.3069 196.26 44.97V150.21C180.93 156.72 82.1399 198.82 73.9099 207.16C73.5167 207.643 73.3178 208.255 73.3522 208.877C73.3866 209.498 73.6517 210.085 74.0958 210.521C74.5398 210.958 75.1308 211.213 75.753 211.237C76.3752 211.261 76.9839 211.051 77.46 210.65C83.18 204.85 150.54 175.04 196.25 155.65V278.95C196.25 279.613 196.513 280.249 196.982 280.718C197.451 281.187 198.087 281.45 198.75 281.45C199.413 281.45 200.049 281.187 200.518 280.718C200.987 280.249 201.25 279.613 201.25 278.95V44.95C201.247 44.2913 200.984 43.6605 200.517 43.1957C200.05 42.7309 199.419 42.47 198.76 42.47Z" fill="url(#paint4_linear)"/>
<path d="M445.61 242.71C445.291 242.127 444.754 241.695 444.117 241.507C443.479 241.32 442.794 241.393 442.21 241.71L356.82 288.52V191.59C356.82 190.927 356.557 190.291 356.088 189.822C355.619 189.353 354.983 189.09 354.32 189.09C353.657 189.09 353.021 189.353 352.552 189.822C352.083 190.291 351.82 190.927 351.82 191.59V288.4C343.64 283.61 323.33 271.75 303.16 260.07C287.9 251.24 275.72 244.25 266.94 239.29C261.72 236.34 257.66 234.09 254.86 232.58C249.94 229.93 248.28 229.04 246.86 231.09C246.54 231.55 245.67 233.21 247.8 234.89C248.285 235.265 248.888 235.453 249.5 235.42C258.83 240.05 314.12 272.12 351.8 294.19V393.92C351.8 394.583 352.063 395.219 352.532 395.688C353.001 396.157 353.637 396.42 354.3 396.42C354.963 396.42 355.599 396.157 356.068 395.688C356.537 395.219 356.8 394.583 356.8 393.92V294.24L444.6 246.11C445.185 245.793 445.619 245.256 445.808 244.619C445.998 243.981 445.926 243.295 445.61 242.71Z" fill="url(#paint5_linear)"/>
<path opacity="0.24" d="M30.03 136.28L196.65 43.64L196.27 84.61L30.46 172.09L30.03 136.28Z" fill="white"/>
<path opacity="0.13" d="M201.27 229.64L351.82 307.98V393.92L208.68 317.15L201.27 229.64Z" fill="white"/>
<path d="M356.63 211.4C356.63 211.4 359.47 213 365.47 212.45" stroke="white" stroke-width="5" stroke-miterlimit="10"/>
<path d="M382.89 206.83C389.128 203.565 395.041 199.714 400.55 195.33C430.96 171.65 476.92 166.8 489.36 178.65C558.03 244.21 422.55 359.83 356.63 363.43C321.78 365.33 300.39 301.88 291.88 270.06" stroke="white" stroke-width="5" stroke-miterlimit="10" stroke-dasharray="18.4 18.4"/>
<path d="M289.61 261.16C288.29 255.69 287.61 252.38 287.61 252.38L283.08 244.65" stroke="white" stroke-width="5" stroke-miterlimit="10"/>
<path d="M274.13 229.42L265.2 214.23C242.75 176.08 201.26 191.59 201.26 191.59C201.26 191.59 158.13 222.32 150.52 278.52C142.91 334.72 88.2901 355.82 73.1901 344.02C58.0901 332.22 33.1101 200.35 86.3301 161.96C121.28 136.73 151.14 149.02 167.51 160.42" stroke="white" stroke-width="5" stroke-miterlimit="10" stroke-dasharray="17.64 17.64"/>
<path d="M174.46 165.82C176.751 167.76 178.906 169.855 180.91 172.09" stroke="white" stroke-width="5" stroke-miterlimit="10"/>
</g>
<defs>
<linearGradient id="paint0_linear" x1="278.72" y1="83.19" x2="273.69" y2="824.82" gradientUnits="userSpaceOnUse">
<stop stop-opacity="0"/>
<stop offset="0.97"/>
</linearGradient>
<linearGradient id="paint1_linear" x1="43450.5" y1="21575.3" x2="26742.5" y2="77850.3" gradientUnits="userSpaceOnUse">
<stop stop-opacity="0"/>
<stop offset="0.97"/>
</linearGradient>
<linearGradient id="paint2_linear" x1="819.998" y1="42453.4" x2="8379.89" y2="60852" gradientUnits="userSpaceOnUse">
<stop stop-opacity="0"/>
<stop offset="0.97"/>
</linearGradient>
<linearGradient id="paint3_linear" x1="7795.69" y1="39451.2" x2="17886.1" y2="93201.4" gradientUnits="userSpaceOnUse">
<stop stop-opacity="0"/>
<stop offset="0.97"/>
</linearGradient>
<linearGradient id="paint4_linear" x1="142.56" y1="403.74" x2="134.68" y2="-5.09002" gradientUnits="userSpaceOnUse">
<stop stop-opacity="0"/>
<stop offset="0.83" stop-opacity="0.47"/>
<stop offset="0.97"/>
</linearGradient>
<linearGradient id="paint5_linear" x1="349.1" y1="122.4" x2="335.58" y2="657.92" gradientUnits="userSpaceOnUse">
<stop stop-opacity="0"/>
<stop offset="0.9" stop-opacity="0.83"/>
<stop offset="0.97"/>
</linearGradient>
<clipPath id="clip0">
<rect width="549.23" height="475.22" fill="white"/>
</clipPath>
</defs>
</svg>
