<svg width="824" height="588" viewBox="0 0 824 588" fill="none" xmlns="http://www.w3.org/2000/svg">
<g clip-path="url(#clip0)">
<path opacity="0.18" d="M11.4399 488.38C11.4399 488.38 -90.0201 146.56 311.72 19.8999C658.72 -89.4701 894.42 278.02 804.87 488.38C770.8 568.39 11.4399 488.38 11.4399 488.38Z" fill="#1A237E"/>
<path d="M606.91 211.83C606.96 208.57 609.27 205.25 612.5 204.78C612.813 204.719 613.137 204.74 613.44 204.84C613.679 204.954 613.888 205.121 614.05 205.33C615.86 207.44 615.14 210.69 613.89 213.17C612.738 215.26 611.736 217.428 610.89 219.66C608.32 218.96 606.88 214.31 606.91 211.83Z" fill="#25233A"/>
<path d="M606.79 256.6L586.43 301.32L549.68 293.53L543.55 304.33C543.55 304.33 583.64 320.25 588.1 319.14C592.56 318.03 607.59 304.33 607.59 304.33L606.79 256.6Z" fill="#1A237E"/>
<path d="M606.79 256.6L586.43 301.32L549.68 293.53L543.55 304.33C543.55 304.33 583.64 320.25 588.1 319.14C592.56 318.03 607.59 304.33 607.59 304.33L606.79 256.6Z" fill="url(#paint0_linear)"/>
<path d="M168.26 211.44C153.945 211.445 139.86 215.044 127.297 221.907C114.734 228.769 104.094 238.675 96.3538 250.717C88.6132 262.759 84.0192 276.551 82.993 290.829C81.9668 305.107 84.5412 319.415 90.4801 332.44L95.6001 341.99L160.6 463.14L232.06 353.81L246.06 332.44C251.999 319.415 254.573 305.107 253.547 290.829C252.521 276.551 247.927 262.759 240.186 250.717C232.446 238.675 221.806 228.769 209.243 221.907C196.68 215.044 182.595 211.445 168.28 211.44H168.26ZM168.26 250.77C176.203 250.772 183.966 253.129 190.569 257.543C197.172 261.957 202.318 268.23 205.356 275.568C208.394 282.907 209.188 290.981 207.637 298.771C206.087 306.561 202.261 313.715 196.644 319.331C191.027 324.946 183.871 328.77 176.081 330.319C168.291 331.868 160.217 331.072 152.879 328.032C145.542 324.992 139.27 319.845 134.858 313.241C130.445 306.637 128.09 298.872 128.09 290.93C128.09 285.655 129.129 280.432 131.148 275.559C133.167 270.686 136.126 266.258 139.856 262.529C143.587 258.8 148.015 255.842 152.888 253.824C157.762 251.806 162.985 250.769 168.26 250.77Z" fill="#1A237E"/>
<path d="M201.11 469.76H108.68V487.58H201.11V469.76Z" fill="#1A237E"/>
<path d="M804.89 486.53C793.107 505.138 777.057 520.668 758.07 531.83C674.81 580.21 535.8 549.11 425.17 553.26C351.3 556.04 248.22 619.92 96.08 566.54C68.9 557.01 14.29 501.03 11.46 486.54L804.89 486.53Z" fill="#1A237E"/>
<path d="M804.89 486.53C793.107 505.138 777.057 520.668 758.07 531.83C674.81 580.21 535.8 549.11 425.17 553.26C351.3 556.04 248.22 619.92 96.08 566.54C68.9 557.01 14.29 501.03 11.46 486.54L804.89 486.53Z" fill="url(#paint1_linear)"/>
<path opacity="0.18" d="M531.9 494.23L539.3 501.61C537.933 501.78 536.618 502.243 535.446 502.968C534.274 503.693 533.273 504.662 532.51 505.81C531.12 508.18 531.41 511.6 533.58 513.29C535.75 514.98 539.02 514.46 541.8 513.87C584.15 504.76 628.01 507.96 671.32 507.36C680.08 507.24 689.32 506.83 696.76 502.24C698.38 501.24 700.06 499.73 699.94 497.82C699.78 495.33 696.75 494.12 694.26 494.13C687.57 494.13 679.62 498.25 675 493.42C673.42 491.76 672.68 489.32 670.76 488.08C667.61 486.08 663.59 488.34 660.34 490.19C644.59 499.1 625.24 497.49 607.24 495.62C602.913 495.308 598.625 494.595 594.43 493.49C589.81 492.12 585.52 489.82 580.96 488.27C571.48 485.06 561.44 485.4 551.6 486.27C549.26 486.42 529.92 492.25 531.9 494.23Z" fill="#1D2741"/>
<path d="M603.42 353.99L621.48 419.73L659.07 471.96L670.85 463.98L644.73 412.78L649.11 361.13L612.08 345.25L603.42 353.99Z" fill="#25233A"/>
<path d="M572.23 465.59L585.41 473.59C585.41 473.59 598.91 427.75 608.25 413.96C629.99 381.89 647.82 360.64 647.82 360.64L616.57 345.46L616.18 345.26L610.02 359.26L585.11 402.46L581.98 416.35L572.23 465.59Z" fill="#3F3D56"/>
<path d="M678.11 415.37L681.39 442.99L627.6 449.43L616.34 448.05L621.13 398.32L623.92 395.15L678.11 415.37Z" fill="#1A237E"/>
<path d="M678.11 415.37L681.39 442.99L627.6 449.43L616.34 448.05L621.13 398.32L623.92 395.15L678.11 415.37Z" fill="url(#paint2_linear)"/>
<path d="M627.09 448.34L624 405.09L621.32 399.73L617.87 446.9L627.09 448.34Z" fill="url(#paint3_linear)"/>
<path d="M659.03 380.88C659.03 380.88 663.6 383.54 663.83 391.25H660.38C660.38 391.25 660.15 385.61 657.5 385.04L659.03 380.88Z" fill="#1A237E"/>
<path d="M602.65 360.78L611.65 345.25L621.98 363.19C621.98 363.19 639.17 363.02 649.64 360.92L651.01 360.63C655.08 359.69 657.8 358.4 657.51 356.63C657.24 355.02 656.18 350.1 655.41 343.53C654.513 336.423 654.336 329.243 654.88 322.1C655.36 316.46 657.88 310.73 659.72 305.54C660.656 303.113 661.326 300.591 661.72 298.02C662.146 293.947 662.814 289.903 663.72 285.91C664.546 282.356 664.859 278.702 664.65 275.06C664.44 266.91 662.91 258.06 662 256.24C661.09 254.42 652.88 250.63 647.9 248.52C645.65 247.52 644.06 246.93 644.06 246.93H624.06L606.81 256.59C606.81 256.59 603.44 277.59 602.98 282.01C602.52 286.43 608.07 304.34 608.54 309.14C609.67 321.11 602.65 360.78 602.65 360.78Z" fill="#1A237E"/>
<path d="M637.13 315.82L647.82 360.63H650.98C655.05 359.69 657.77 358.4 657.48 356.63C656.96 353.53 653.48 337.95 654.84 322.11C655.59 313.51 660.91 304.83 661.74 298.02L648.87 283.61L637.13 315.82Z" fill="url(#paint4_linear)"/>
<path d="M644.05 246.94L620.05 286.04C620.05 286.04 621.05 257.04 622.58 252.04C624.11 247.04 644.05 246.94 644.05 246.94Z" fill="white"/>
<path d="M638.76 233.37C638.76 233.37 641.91 246.07 644.05 246.94C641.521 250.51 637.694 252.947 633.39 253.73C630.94 254.2 621.05 255.11 622.55 252C623.387 250.433 623.894 248.711 624.04 246.94V241.88C624.04 241.88 616.04 244.41 615.19 240.88C614.34 237.35 610.36 231.07 611.12 215.88C611.88 200.69 635.19 204.69 638.41 207.14C641.63 209.59 643.98 224.21 638.76 233.37Z" fill="url(#paint5_linear)"/>
<path d="M649.63 360.92L648.88 363.19L659.73 367.41L661.3 368.02C661.3 368.02 680.3 329.73 681.3 324.9C682.3 320.07 674.39 276.9 661.98 256.25C660.855 256.853 659.767 257.52 658.72 258.25C654.37 261.25 647.01 267.42 645.23 276.25L659.7 305.54L664.65 315.54L655.39 343.49L649.63 360.92Z" fill="#1A237E"/>
<path d="M650.39 363.78C650.39 363.78 642.44 371.13 641.86 372.78C641.28 374.43 641.86 378.64 641.86 378.64H643.36L643.7 383.24C643.7 383.24 644.39 386.46 646 386.34C647.487 386.379 648.963 386.611 650.39 387.03C650.39 387.03 656.01 386.57 657.5 385.08C658.99 383.59 659.8 376.57 659.69 374.62C659.58 372.67 659.69 366.91 659.69 366.91L650.39 363.78Z" fill="url(#paint6_linear)"/>
<path d="M641.86 378.6C641.86 378.6 639.03 378.37 637.49 384.81C635.95 391.25 636.27 393.55 636.27 393.55H640.41C640.41 393.55 641.41 383.19 643.62 382.12L643.36 378.6H641.86Z" fill="#1A237E"/>
<path d="M659.03 380.88C659.03 380.88 663.6 383.54 663.83 391.25H660.38C660.38 391.25 660.15 385.61 657.5 385.04L659.03 380.88Z" fill="url(#paint7_linear)"/>
<path d="M641.86 378.6C641.86 378.6 639.03 378.37 637.49 384.81C635.95 391.25 636.27 393.55 636.27 393.55H640.41C640.41 393.55 641.41 383.19 643.62 382.12L643.36 378.6H641.86Z" fill="url(#paint8_linear)"/>
<path d="M621.13 398.33L623.57 416.2C623.727 417.344 624.321 418.384 625.226 419.101C626.132 419.819 627.28 420.159 628.43 420.05L678.11 415.37C678.805 415.309 679.475 415.085 680.068 414.716C680.66 414.348 681.157 413.846 681.52 413.25C682.068 412.352 682.283 411.29 682.13 410.25L679.78 393.93C679.621 392.816 679.048 391.803 678.175 391.093C677.302 390.383 676.193 390.028 675.07 390.1L625.29 393.22C624.471 393.267 623.682 393.541 623.01 394.01C622.326 394.484 621.788 395.14 621.456 395.903C621.124 396.666 621.011 397.506 621.13 398.33Z" fill="#1A237E"/>
<path d="M621.13 398.33L623.57 416.2C623.727 417.344 624.321 418.384 625.226 419.101C626.132 419.819 627.28 420.159 628.43 420.05L678.11 415.37C678.805 415.309 679.475 415.085 680.068 414.716C680.66 414.348 681.157 413.846 681.52 413.25C682.068 412.352 682.283 411.29 682.13 410.25L679.78 393.93C679.621 392.816 679.048 391.803 678.175 391.093C677.302 390.383 676.193 390.028 675.07 390.1L625.29 393.22C624.471 393.267 623.682 393.541 623.01 394.01C622.326 394.484 621.788 395.14 621.456 395.903C621.124 396.666 621.011 397.506 621.13 398.33Z" fill="url(#paint9_linear)"/>
<path d="M580.35 480.11L583.53 472.42L573.41 466.29L569.13 476.29C569.13 476.29 554.93 476.75 548.49 482.96L545.74 488.25H580.23L580.35 480.11Z" fill="#25233A"/>
<path d="M674.4 471.85L669.22 465.18L661.35 470.29L664.67 477.29L659.57 487.06C659.57 487.06 655.8 486.91 651.63 490.43C647.46 493.95 648.86 494.88 648.86 494.88H669.54L681.39 477.29C681.39 477.29 677.12 472.11 674.4 471.85Z" fill="#25233A"/>
<path d="M641.91 243.5C641.91 243.5 647.73 243.5 648.07 246.94L646.23 259.7L639.23 262.58L640.61 269.71L618.07 289.26L644.07 246.94C643.174 245.914 642.445 244.753 641.91 243.5Z" fill="#1A237E"/>
<path d="M620.42 247.98L624.04 244.87C624.146 246.441 623.974 248.019 623.53 249.53C622.82 251.42 619.44 280.29 620.02 286.04L615.88 265.45L619.44 259.36L618.06 254.99L620.42 247.98Z" fill="#1A237E"/>
<path d="M641.84 244C641.84 244 647.66 244 648 247.44L646.16 260.2L639.16 263.08L640.54 270.21L618 289.76L644 247.44C643.104 246.414 642.375 245.253 641.84 244Z" fill="url(#paint10_linear)"/>
<path d="M620.42 247.98L624.04 244.87C624.146 246.441 623.974 248.019 623.53 249.53C622.82 251.42 619.44 280.29 620.02 286.04L615.88 265.45L619.44 259.36L618.06 254.99L620.42 247.98Z" fill="url(#paint11_linear)"/>
<path d="M628.29 254.22L629.9 258.48L626.8 261.77L627.54 273.82L620.01 286.03L620.56 273.91L624.96 261.31L624.07 257.63L625.99 254.18L628.29 254.22Z" fill="#3F3D56"/>
<path d="M538.35 279.65C537.59 281.06 538.98 282.6 539.92 283.89C540.82 285.112 541.392 286.544 541.58 288.05C538.229 287.366 535.026 286.093 532.12 284.29C530.69 283.41 528.96 282.36 527.47 283.13C526.948 283.479 526.524 283.955 526.237 284.513C525.951 285.071 525.81 285.693 525.83 286.32C525.795 287.987 526.098 289.643 526.72 291.19C527.342 292.737 528.271 294.141 529.45 295.32C531.822 297.655 534.575 299.569 537.59 300.98C539.93 302.18 542.9 303.25 545.02 301.69C545.889 300.951 546.574 300.02 547.02 298.97C548.02 297.07 549.91 294.71 549.7 292.55C549.354 290.545 548.579 288.639 547.43 286.96C545.84 284.42 541.72 279.65 538.35 279.65Z" fill="url(#paint12_linear)"/>
<path d="M518.98 272.92L532.98 295.97C533.275 296.451 533.743 296.801 534.287 296.949C534.831 297.098 535.411 297.034 535.91 296.77L538.74 295.29C539.001 295.151 539.232 294.961 539.419 294.731C539.606 294.502 539.745 294.237 539.829 293.954C539.913 293.67 539.939 293.372 539.907 293.078C539.874 292.783 539.784 292.499 539.64 292.24L527.21 269.97C526.99 269.57 526.652 269.249 526.242 269.05C525.832 268.851 525.37 268.785 524.92 268.86L522.81 268.43C519.47 269.49 518.1 271.57 518.98 272.92Z" fill="#1A237E"/>
<path d="M518.98 272.92L532.98 295.97C533.275 296.451 533.743 296.801 534.287 296.949C534.831 297.098 535.411 297.034 535.91 296.77L538.74 295.29C539.001 295.151 539.232 294.961 539.419 294.731C539.606 294.502 539.745 294.237 539.829 293.954C539.913 293.67 539.939 293.372 539.907 293.078C539.874 292.783 539.784 292.499 539.64 292.24L527.21 269.97C526.99 269.57 526.652 269.249 526.242 269.05C525.832 268.851 525.37 268.785 524.92 268.86L522.81 268.43C519.47 269.49 518.1 271.57 518.98 272.92Z" fill="url(#paint13_linear)"/>
<path d="M521.71 271.67L535.78 294.67C536.074 295.155 536.542 295.509 537.089 295.66C537.635 295.81 538.219 295.746 538.72 295.48L541.54 293.99C541.802 293.852 542.034 293.662 542.222 293.433C542.409 293.204 542.549 292.939 542.633 292.655C542.717 292.371 542.743 292.072 542.71 291.778C542.677 291.483 542.585 291.198 542.44 290.94L529.98 268.71C529.757 268.314 529.418 267.995 529.009 267.796C528.599 267.598 528.139 267.529 527.69 267.6L523.22 268.32C522.863 268.382 522.526 268.531 522.24 268.753C521.954 268.975 521.726 269.264 521.577 269.595C521.428 269.925 521.362 270.287 521.385 270.649C521.409 271.011 521.52 271.361 521.71 271.67Z" fill="white"/>
<path d="M523.92 271.67L530.57 269.7L541.74 289.72L536.03 291.85L523.92 271.67Z" fill="#1A237E"/>
<path d="M158.98 502.11C155.454 499.053 152.299 495.593 149.58 491.8L160.29 484.68C162.427 487.57 164.875 490.216 167.59 492.57L158.98 502.11Z" fill="#1A237E"/>
<path d="M244.47 530.66C239.35 530.66 234.28 530.45 229.39 530.03L230.5 517.22C238.283 517.868 246.102 517.982 253.9 517.56L254.56 530.4C251.16 530.58 247.76 530.66 244.47 530.66ZM279.31 527.75L277.48 515.03C284.48 514.03 292.3 512.86 301.48 511.48L303.38 524.2C294.06 525.6 286.4 526.73 279.31 527.75ZM204.37 525.75C196.075 523.604 188.031 520.587 180.37 516.75L186.19 505.29C193.032 508.73 200.219 511.439 207.63 513.37L204.37 525.75ZM327.48 520.56L325.55 507.85L327.96 507.48L349.6 504.21L351.51 516.92L329.89 520.19L327.48 520.56ZM375.56 513.33L373.69 500.61C382.4 499.33 390.29 498.2 397.81 497.14L399.59 509.87C392.11 510.92 384.24 512.05 375.56 513.33ZM423.63 506.62L421.98 493.87C430.55 492.76 438.7 491.76 446.22 490.87L447.68 503.64C440.23 504.52 432.13 505.51 423.63 506.62ZM471.72 501.21L470.58 488.4C479.58 487.6 487.84 487.02 495.12 486.68L495.72 499.53C488.61 499.85 480.54 500.42 471.72 501.21Z" fill="#1A237E"/>
<path d="M530.76 500.55C526.965 499.922 523.134 499.528 519.29 499.37L519.93 486.53C524.321 486.715 528.696 487.173 533.03 487.9L530.76 500.55Z" fill="#1A237E"/>
<path d="M610.34 207.97C610.476 205.805 611.36 203.755 612.84 202.17C617.11 197.33 624.33 196.46 630.76 196.98C637.19 197.5 643.69 199.08 650.03 197.85C651.15 197.64 652.64 197.51 653.1 198.55C653.78 200.09 651.28 200.95 650.28 202.3L653.86 202.7C653.528 204.231 652.627 205.578 651.34 206.47L652.97 207.2L650.11 212.2L651.54 213.29C648.13 214.29 646.16 217.79 644.85 221.09C643.54 224.39 642.36 228.02 639.5 230.09C639.205 228.306 638.54 226.603 637.55 225.09C638.08 224.874 638.549 224.529 638.913 224.086C639.277 223.644 639.525 223.118 639.635 222.555C639.745 221.993 639.713 221.412 639.542 220.865C639.371 220.318 639.066 219.822 638.655 219.423C638.245 219.023 637.741 218.732 637.19 218.575C636.638 218.419 636.057 218.403 635.498 218.527C634.938 218.652 634.419 218.914 633.986 219.29C633.554 219.666 633.221 220.144 633.02 220.68C630.93 217.1 628.02 213.82 624.27 212.11C621.41 210.826 618.176 210.644 615.19 211.6C611.98 212.68 610.2 212.25 610.34 207.97Z" fill="#3F3D56"/>
</g>
<defs>
<linearGradient id="paint0_linear" x1="586.25" y1="284.76" x2="685.92" y2="323.29" gradientUnits="userSpaceOnUse">
<stop stop-opacity="0"/>
<stop offset="0.99"/>
</linearGradient>
<linearGradient id="paint1_linear" x1="323596" y1="46537.4" x2="323627" y2="73385.5" gradientUnits="userSpaceOnUse">
<stop stop-opacity="0"/>
<stop offset="0.99"/>
</linearGradient>
<linearGradient id="paint2_linear" x1="42049.9" y1="23617.8" x2="47338.6" y2="25965.4" gradientUnits="userSpaceOnUse">
<stop stop-opacity="0"/>
<stop offset="0.99"/>
</linearGradient>
<linearGradient id="paint3_linear" x1="6279.52" y1="20027.5" x2="9127.15" y2="21772.9" gradientUnits="userSpaceOnUse">
<stop stop-opacity="0"/>
<stop offset="0.99"/>
</linearGradient>
<linearGradient id="paint4_linear" x1="16138.7" y1="25746.4" x2="18647.3" y2="25764" gradientUnits="userSpaceOnUse">
<stop stop-opacity="0"/>
<stop offset="0.99"/>
</linearGradient>
<linearGradient id="paint5_linear" x1="644.05" y1="229.49" x2="611.02" y2="229.49" gradientUnits="userSpaceOnUse">
<stop stop-color="#ECC4D7"/>
<stop offset="0.42" stop-color="#EFD4D1"/>
<stop offset="1" stop-color="#F2EAC9"/>
</linearGradient>
<linearGradient id="paint6_linear" x1="-13705.9" y1="9298.29" x2="-13378.5" y2="9298.29" gradientUnits="userSpaceOnUse">
<stop stop-color="#ECC4D7"/>
<stop offset="0.42" stop-color="#EFD4D1"/>
<stop offset="1" stop-color="#F2EAC9"/>
</linearGradient>
<linearGradient id="paint7_linear" x1="4852.49" y1="4482.54" x2="4756.05" y2="4471.32" gradientUnits="userSpaceOnUse">
<stop stop-opacity="0"/>
<stop offset="0.99"/>
</linearGradient>
<linearGradient id="paint8_linear" x1="639.06" y1="386.49" x2="648.75" y2="384.45" gradientUnits="userSpaceOnUse">
<stop offset="0.19" stop-opacity="0"/>
<stop offset="0.99"/>
</linearGradient>
<linearGradient id="paint9_linear" x1="40120.8" y1="12661.7" x2="41623.2" y2="15419.4" gradientUnits="userSpaceOnUse">
<stop stop-opacity="0"/>
<stop offset="0.99"/>
</linearGradient>
<linearGradient id="paint10_linear" x1="19713.3" y1="12038.6" x2="18388.8" y2="17156.8" gradientUnits="userSpaceOnUse">
<stop stop-opacity="0"/>
<stop offset="0.99"/>
</linearGradient>
<linearGradient id="paint11_linear" x1="5717.94" y1="10761.7" x2="3292.34" y2="13605.9" gradientUnits="userSpaceOnUse">
<stop stop-opacity="0"/>
<stop offset="0.99"/>
</linearGradient>
<linearGradient id="paint12_linear" x1="13087.3" y1="7123.96" x2="13658" y2="7123.96" gradientUnits="userSpaceOnUse">
<stop stop-color="#ECC4D7"/>
<stop offset="0.42" stop-color="#EFD4D1"/>
<stop offset="1" stop-color="#F2EAC9"/>
</linearGradient>
<linearGradient id="paint13_linear" x1="11609.4" y1="8564.1" x2="12202.3" y2="8673.54" gradientUnits="userSpaceOnUse">
<stop stop-opacity="0"/>
<stop offset="0.99"/>
</linearGradient>
<clipPath id="clip0">
<rect width="823.96" height="587.75" fill="white"/>
</clipPath>
</defs>
</svg>
