<svg width="405" height="314" viewBox="0 0 405 314" fill="none" xmlns="http://www.w3.org/2000/svg">
<g clip-path="url(#clip0)">
<path opacity="0.24" d="M240.37 24.22C230.71 18.71 219.21 15.62 208.37 18.05C201.13 19.7 194.62 23.62 188.28 27.5L131.28 62.43C118.21 70.43 104.62 78.96 96.81 92.15C92.43 99.54 90.16 107.96 86.55 115.75C79 132.1 65.55 145.82 61.47 163.36C55.84 187.43 69.68 212.36 88.47 228.49C107.26 244.62 130.53 254.22 151.99 266.49C165.43 274.18 178.27 282.98 192.27 289.61C205.201 295.804 219.045 299.876 233.27 301.67C243.37 302.88 253.89 302.78 263.36 299.07C286.65 289.94 296.73 262.72 315.72 246.43C325.56 237.98 337.63 232.65 348.62 225.75C359.61 218.85 370.08 209.56 373.57 197.06C378.04 181.06 369.8 163.99 358.51 151.79C347.22 139.59 332.91 130.54 321.25 118.69C306.97 104.19 301.05 85.69 289.55 69.49C277.53 52.7 258.21 34.4 240.37 24.22Z" fill="#1A237E"/>
<path opacity="0.24" d="M312.13 217.1C301.54 219.36 293.56 227.83 286.3 235.86L275.13 248.26C272.13 251.54 269.13 255.03 268.13 259.35C266.3 267.89 273.32 275.54 279.74 281.46L305.13 304.81C308.13 307.58 311.22 310.4 315.02 311.9C319.02 313.47 323.45 313.43 327.75 313.36C337 313.2 346.96 312.79 354.3 307.17C359.9 302.88 363.13 296.17 368.38 291.44C384.05 277.36 391.99 264.87 371.62 250.97C353.96 238.94 336.55 211.87 312.13 217.1Z" fill="#1A237E"/>
<path opacity="0.24" d="M92.6198 88.4301C96.6198 91.1901 100.69 93.8601 103.92 97.4301C106.632 100.583 108.683 104.249 109.949 108.211C111.215 112.173 111.671 116.349 111.29 120.49C110.459 128.814 107.054 136.671 101.55 142.97C98.3198 146.78 94.4798 150.07 91.5498 154.09C89.5498 156.81 87.9398 159.83 85.9098 162.55C83.1013 166.189 79.5912 169.228 75.5874 171.487C71.5835 173.746 67.1672 175.178 62.5998 175.7C53.3962 176.688 44.1413 174.37 36.4898 169.16C25.1198 161.5 18.3298 148.88 9.73983 138.16C6.83983 134.55 3.64983 131.06 1.84983 126.8C-0.790171 120.54 -0.150171 113.43 0.849829 106.72C1.64983 101.7 2.72983 96.3701 6.12983 92.5301C10.3098 87.8301 16.9998 86.4401 22.3498 83.1301C33.1298 76.5001 41.1298 60.3701 55.7898 62.2601C62.3098 63.1001 67.6298 68.0501 72.3698 72.1801C78.8277 77.951 85.5872 83.3753 92.6198 88.4301Z" fill="#1A237E"/>
<path opacity="0.24" d="M287.82 23.2C279.88 30.36 272.13 38.62 269.7 49.03C266.89 61.03 271.7 73.51 278.39 83.81C285.08 94.11 293.72 103.09 299.93 113.7C301.88 117.01 303.68 120.59 306.78 122.86C310.33 125.46 314.97 125.86 319.36 126.24C336.93 127.62 356.61 128.34 369.87 116.73C380.87 107.09 384.29 91.53 392.55 79.46C395.5 75.16 399.16 71.12 400.45 66.06C402.55 57.81 397.76 49.46 392.63 42.66C381.45 27.79 363.01 6.34004 344.45 1.23004C324.02 -4.38996 302.06 10.35 287.82 23.2Z" fill="#1A237E"/>
<path d="M312.37 74.7999L210.67 138.8L207.91 134.38L309.61 70.3899L312.37 74.7999Z" fill="#1A237E"/>
<path d="M79.3959 112.769L77.2793 117.53L161.263 154.869L163.379 150.108L79.3959 112.769Z" fill="#1A237E"/>
<path d="M66.6561 59.0562L28.8727 62.6079C23.2036 63.1408 19.0399 68.1684 19.5728 73.8375L28.5571 169.416C29.09 175.085 34.1177 179.249 39.7868 178.716L77.5702 175.164C83.2393 174.632 87.403 169.604 86.8701 163.935L77.8857 68.3561C77.3528 62.687 72.3252 58.5234 66.6561 59.0562Z" fill="#1A237E"/>
<path d="M66.6561 59.0562L28.8727 62.6079C23.2036 63.1408 19.0399 68.1684 19.5728 73.8375L28.5571 169.416C29.09 175.085 34.1177 179.249 39.7868 178.716L77.5702 175.164C83.2393 174.632 87.403 169.604 86.8701 163.935L77.8857 68.3561C77.3528 62.687 72.3252 58.5234 66.6561 59.0562Z" fill="url(#paint0_linear)"/>
<path d="M66.7549 58.9185L28.7524 62.4907C23.1438 63.0179 19.0246 67.992 19.5518 73.6005L28.3246 166.929C28.8518 172.538 33.8258 176.657 39.4344 176.13L77.4369 172.558C83.0455 172.03 87.1648 167.056 86.6375 161.448L77.8647 68.1192C77.3375 62.5106 72.3635 58.3913 66.7549 58.9185Z" fill="#1A237E"/>
<path d="M65.2399 61.6998L31.0507 64.9135C26.0084 65.3875 22.3051 69.8593 22.7791 74.9015L30.6526 158.662C31.1265 163.704 35.5983 167.408 40.6405 166.934L74.8298 163.72C79.872 163.246 83.5753 158.774 83.1014 153.732L75.2279 69.9713C74.7539 64.9291 70.2822 61.2258 65.2399 61.6998Z" fill="white"/>
<path opacity="0.18" d="M50.6002 89.3801C46.0673 89.7963 41.7598 91.5482 38.2231 94.414C34.6864 97.2798 32.0797 101.131 30.7329 105.479C29.3861 109.827 29.3598 114.477 30.6574 118.84C31.955 123.203 34.5181 127.083 38.0221 129.989C41.5262 132.894 45.8136 134.695 50.3415 135.162C54.8695 135.63 59.4343 134.743 63.458 132.614C67.4816 130.486 70.7833 127.211 72.9447 123.205C75.1062 119.199 76.0304 114.642 75.6002 110.11C75.0249 104.05 72.0703 98.4645 67.3841 94.5787C62.6979 90.6929 56.6624 88.8235 50.6002 89.3801ZM54.5402 131.23C50.8598 131.578 47.159 130.826 43.9058 129.07C40.6527 127.315 37.9932 124.634 36.2638 121.366C34.5344 118.099 33.8128 114.392 34.1902 110.715C34.5676 107.037 36.0271 103.555 38.384 100.707C40.741 97.8587 43.8895 95.7737 47.4315 94.7153C50.9735 93.6569 54.7498 93.6727 58.2828 94.7606C61.8159 95.8485 64.9469 97.9597 67.28 100.827C69.6131 103.695 71.0435 107.19 71.3902 110.87C71.8496 115.803 70.3336 120.717 67.1747 124.534C64.0159 128.351 59.4722 130.759 54.5402 131.23Z" fill="#1A237E"/>
<path d="M53.6401 101.73L55.6001 122.65L60.7401 117.26L56.9701 117.61L55.4701 101.68L53.6401 101.73Z" fill="#1A237E"/>
<path d="M53.8202 122.82L51.8502 101.9L46.7202 107.29L50.4802 106.94L51.9802 122.87L53.8202 122.82Z" fill="#1A237E"/>
<path d="M205.5 92.87C192.463 92.8622 179.717 96.7187 168.871 103.952C158.026 111.186 149.568 121.472 144.566 133.511C139.565 145.55 138.244 158.802 140.771 171.591C143.297 184.38 149.559 196.134 158.763 205.366C167.967 214.598 179.701 220.895 192.483 223.46C205.265 226.026 218.52 224.745 230.574 219.78C242.628 214.815 252.94 206.388 260.206 195.565C267.473 184.741 271.368 172.007 271.4 158.97C271.496 150.28 269.858 141.658 266.583 133.608C263.308 125.558 258.46 118.242 252.324 112.087C246.189 105.933 238.887 101.063 230.847 97.7637C222.807 94.464 214.19 92.8004 205.5 92.87ZM215.28 123.24C215.255 123.054 215.29 122.865 215.38 122.7C215.57 122.42 215.78 122.06 216.06 121.99C216.34 121.92 216.61 122.21 216.99 122.4C216.3 123.11 216.59 123.5 217.2 123.81C217.347 123.882 217.474 123.988 217.57 124.12C217.728 124.6 217.943 125.06 218.21 125.49C218.624 125.824 219.086 126.093 219.58 126.29C219.176 126.652 218.748 126.986 218.3 127.29C217.868 127.558 217.4 127.764 216.91 127.9C216.511 127.94 216.109 127.94 215.71 127.9C215.718 127.827 215.718 127.753 215.71 127.68L216.55 127.16C216.25 126.79 215.82 126.5 215.78 126.16C215.74 125.82 216.15 125.47 216.39 125.07C216.01 124.46 215.45 124.18 215.06 124.44C213.89 125.22 213.81 125.44 214.34 126.28C213.58 126.58 212.85 126.86 212.07 127.13C211.91 126.34 212.83 125.62 212.07 124.91C212.225 124.644 212.45 124.425 212.719 124.276C212.988 124.126 213.292 124.052 213.6 124.06C213.91 124.06 214.21 124.06 214.5 124.06C214.98 123.98 215.34 123.84 215.28 123.24ZM196.38 106.42C197.92 106.65 199.47 106.75 201.01 106.87C201.291 106.931 201.583 106.917 201.857 106.829C202.131 106.741 202.376 106.583 202.57 106.37C202.75 106.16 203.16 106.12 203.47 106.07C204.67 105.88 205.89 105.66 207.1 105.53C207.738 105.475 208.38 105.505 209.01 105.62C210.49 105.85 212.01 106.14 213.44 106.4C213.677 106.438 213.899 106.542 214.08 106.7C213.47 106.7 212.85 106.77 212.24 106.84C211.851 106.869 211.47 106.96 211.11 107.11C210.56 107.39 210.05 107.69 210.02 108.5C210.014 108.896 209.877 109.278 209.628 109.586C209.38 109.895 209.035 110.111 208.65 110.2C207.843 110.484 207.055 110.818 206.29 111.2C205.89 111.39 205.89 111.62 206.29 111.85C206.84 112.16 207.4 112.45 208.01 112.85C207.07 113.21 207.07 113.21 205.11 112.31L205.94 113.7C204.69 114.03 203.39 114.4 202.09 114.7C200.879 114.911 199.746 115.443 198.81 116.24C197.866 116.919 196.742 117.302 195.58 117.34C194.97 117.46 194.49 117.56 194.49 118.34C194.49 118.63 194.21 118.96 193.97 119.21C193.642 119.503 193.287 119.764 192.91 119.99C192.601 120.211 192.237 120.343 191.858 120.37C191.478 120.398 191.099 120.319 190.762 120.145C190.424 119.97 190.142 119.705 189.946 119.379C189.749 119.054 189.647 118.68 189.65 118.3C189.572 117.892 189.549 117.475 189.58 117.06C189.709 116.586 189.893 116.13 190.13 115.7C190.265 115.514 190.423 115.346 190.6 115.2C192.3 113.36 191.92 111.42 189.73 110.2C188.81 109.662 187.788 109.321 186.73 109.2C186.354 109.095 185.998 108.926 185.68 108.7C187.14 108.46 188.55 108.27 189.94 108.01C190.534 107.852 191.113 107.641 191.67 107.38C193.131 106.659 194.753 106.328 196.38 106.42ZM210.82 116.42C210.818 116.588 210.777 116.752 210.7 116.901C210.624 117.051 210.514 117.18 210.38 117.28C209.819 117.626 209.226 117.917 208.61 118.15C208.342 118.29 208.034 118.33 207.739 118.264C207.445 118.198 207.183 118.03 207 117.79C206.81 117.56 206.41 117.49 206.11 117.35C206.11 117.27 206.11 117.2 206.04 117.13C206.34 117.01 206.62 116.85 206.91 116.76C207.85 116.5 208.77 116.26 209.69 116.03C210.13 115.93 210.66 115.93 210.82 116.42ZM177.98 108.48C178.41 108.35 178.87 108.26 179.32 108.14C179.77 108.02 180.38 107.91 180.58 107.25C180.64 107.111 180.73 106.988 180.844 106.889C180.959 106.791 181.094 106.719 181.24 106.68C181.47 106.68 181.68 106.59 181.9 106.56C182.58 106.42 183.29 106.32 183.99 106.21C184.55 106.183 185.105 106.102 185.65 105.97C186.665 105.575 187.753 105.408 188.84 105.48C189.19 105.48 189.52 105.41 189.84 105.4C190.16 105.39 190.48 105.4 190.84 105.4C190.83 105.48 190.83 105.56 190.84 105.64C189.683 106.568 188.304 107.178 186.84 107.41C184.812 107.746 182.878 108.502 181.16 109.63C180.63 109.98 180.07 110.26 179.65 109.44C179.58 109.28 179.26 109.19 179.04 109.16C178.506 109.113 177.977 109.02 177.46 108.88C177.612 108.721 177.787 108.586 177.98 108.48ZM174.49 110.38C174.44 110.38 174.41 110.32 174.32 110.27C174.82 109.42 175.38 109.16 176.25 109.56C176.667 109.774 177.122 109.902 177.589 109.938C178.056 109.974 178.525 109.917 178.97 109.77C179.021 109.812 179.068 109.858 179.11 109.91C178.97 110.1 178.88 110.38 178.71 110.45C178.29 110.62 177.82 110.65 177.39 110.81C177.29 110.848 177.201 110.908 177.128 110.986C177.055 111.064 177.001 111.158 176.97 111.26C176.97 111.37 177.18 111.63 177.34 111.68L177.91 111.83C179.44 112.29 180.97 112.68 182.51 113.14C182.66 113.232 182.768 113.379 182.81 113.55C182.798 113.78 182.761 114.008 182.7 114.23C182.42 115.46 182.75 115.91 184.02 115.93C184.031 116.143 183.966 116.353 183.836 116.522C183.705 116.691 183.519 116.807 183.31 116.85C182.48 117.06 181.66 117.32 180.86 117.58C180.48 117.7 180.08 117.82 180.2 118.38C180.197 118.445 180.18 118.509 180.151 118.568C180.121 118.627 180.08 118.678 180.03 118.72C179.674 118.955 179.253 119.073 178.827 119.059C178.401 119.044 177.989 118.898 177.65 118.64C177.509 118.478 177.413 118.281 177.373 118.069C177.332 117.858 177.348 117.64 177.419 117.437C177.49 117.234 177.614 117.053 177.777 116.913C177.941 116.773 178.138 116.679 178.35 116.64C178.83 116.52 179.35 116.49 179.84 116.35C179.953 116.324 180.059 116.277 180.154 116.21C180.248 116.143 180.328 116.058 180.39 115.96C180.44 115.84 180.24 115.57 180.08 115.41C179.126 114.52 177.928 113.936 176.64 113.73C176.249 113.662 175.855 113.616 175.46 113.59C174.53 113.53 173.59 113.43 172.65 113.33C172.25 113.27 171.75 113.33 171.72 112.72C171.697 112.594 171.703 112.464 171.737 112.341C171.772 112.218 171.834 112.104 171.918 112.007C172.003 111.911 172.108 111.835 172.226 111.786C172.344 111.736 172.472 111.713 172.6 111.72C173.224 111.702 173.845 111.639 174.46 111.53C174.74 111.53 175.13 111.29 175.17 111.1C175.26 110.7 174.98 110.38 174.49 110.38ZM182.65 128.6C182.89 128.88 183.33 129.31 183.26 129.54C183.189 129.767 183.039 129.961 182.837 130.088C182.635 130.214 182.395 130.265 182.16 130.23C181.321 130.119 180.476 130.055 179.63 130.04C180.356 128.993 181.386 128.194 182.58 127.75C182.37 127.94 182.22 128.08 181.99 128.27C182.228 128.338 182.452 128.45 182.65 128.6ZM185.01 187.36C184.327 187.796 183.702 188.317 183.15 188.91C182.827 189.427 182.616 190.006 182.53 190.61C182.302 191.709 182.001 192.791 181.63 193.85C181.36 194.46 180.63 194.85 180.17 195.4C179.821 195.871 179.309 196.196 178.735 196.31C178.16 196.425 177.563 196.321 177.06 196.02C176.8 196.77 177.3 197.24 177.6 197.76C178.05 198.55 178.05 198.55 177.29 199.09C176.53 199.63 175.97 200.17 175.29 200.74C175.053 200.957 174.881 201.235 174.791 201.544C174.701 201.852 174.697 202.18 174.78 202.49C174.771 203.047 174.697 203.6 174.56 204.14C174.472 204.421 174.432 204.715 174.44 205.01C174.5 205.58 174.68 206.14 174.75 206.71C174.87 207.71 174.94 208.64 175.03 209.59C175.03 209.96 175.16 210.18 175.6 210.22C175.77 210.22 176 210.44 176.08 210.62C176.34 211.15 176.57 211.71 176.8 212.25C176.651 212.364 176.48 212.447 176.298 212.495C176.117 212.542 175.927 212.554 175.741 212.528C175.555 212.502 175.376 212.439 175.215 212.343C175.053 212.247 174.912 212.121 174.8 211.97C174.453 211.313 173.882 210.801 173.19 210.53C172.061 210.036 171.151 209.147 170.63 208.03C170.03 206.83 169.35 205.79 169.54 204.3C169.65 203.841 169.587 203.357 169.364 202.94C169.141 202.524 168.773 202.203 168.33 202.04C168.15 201.99 168.03 201.63 168 201.4C167.89 200.46 167.84 199.51 167.75 198.57C167.56 196.57 167.32 194.57 167.2 192.57C167.11 191.08 167.2 189.57 167.2 188.08C167.2 187.4 167.2 186.73 167.2 186.08C167.131 185.211 166.802 184.383 166.254 183.704C165.706 183.026 164.965 182.53 164.13 182.28C163.673 182.191 163.264 181.939 162.979 181.571C162.694 181.204 162.552 180.745 162.58 180.28C162.599 179.868 162.498 179.459 162.288 179.104C162.078 178.749 161.77 178.462 161.4 178.28C160.404 177.727 159.651 176.821 159.29 175.74C159.155 175.419 158.954 175.129 158.7 174.89C158.432 174.64 158.234 174.323 158.127 173.972C158.02 173.621 158.007 173.248 158.09 172.89C158.116 172.394 158.083 171.898 157.99 171.41C157.916 171.082 157.886 170.746 157.9 170.41C158.033 169.451 158.375 168.533 158.9 167.72C159.499 166.857 159.99 165.923 160.36 164.94C160.57 164.415 160.598 163.834 160.441 163.29C160.283 162.747 159.948 162.272 159.49 161.94C159.336 161.862 159.167 161.817 158.995 161.809C158.823 161.8 158.651 161.828 158.49 161.89C158.179 162.092 157.811 162.19 157.44 162.168C157.07 162.147 156.716 162.007 156.43 161.77C155.2 160.992 154.191 159.91 153.5 158.63C153.376 158.447 153.197 158.307 152.99 158.23C152.693 158.111 152.379 158.04 152.06 158.02C151.189 157.963 150.377 157.564 149.8 156.91C149.457 156.549 149.037 156.271 148.571 156.098C148.105 155.925 147.605 155.86 147.11 155.91C146.972 155.946 146.828 155.946 146.69 155.91C144.697 155.404 142.879 154.368 141.43 152.91C141.22 152.626 141.072 152.302 140.994 151.957C140.917 151.613 140.912 151.256 140.98 150.91C141.5 146.898 142.408 142.947 143.69 139.11C145.629 133.195 148.429 127.598 152 122.5C153.32 120.59 154.85 118.8 156.29 116.96C156.5 116.68 156.72 116.55 157.04 116.77C157.253 116.902 157.49 116.989 157.738 117.025C157.986 117.061 158.238 117.046 158.48 116.98C159.66 116.84 160.85 116.89 162 116.65C163.389 116.35 164.747 115.925 166.06 115.38C166.544 115.1 166.958 114.715 167.271 114.253C167.585 113.79 167.789 113.263 167.87 112.71C167.95 112.41 168.06 112.1 168.16 111.79C168.51 110.66 168.51 110.66 169.67 110.92L172.06 111.46C171.39 111.7 170.69 111.93 170.06 112.21C169.66 112.35 169.61 112.62 169.88 112.95C170.37 113.53 170.8 114.12 171.29 114.67C171.43 114.81 171.78 114.93 171.9 114.86C172.9 114.27 173.9 114.53 174.95 114.45C174.685 114.91 174.369 115.339 174.01 115.73C173.637 116.005 173.206 116.19 172.75 116.27C171.55 116.51 170.33 116.67 169.14 116.86C169.083 117.265 168.878 117.635 168.564 117.898C168.249 118.16 167.849 118.296 167.44 118.28C165.884 118.536 164.427 119.206 163.22 120.22C162.792 120.456 162.465 120.841 162.301 121.301C162.137 121.762 162.147 122.267 162.33 122.72C162.46 123.11 162.58 123.59 163.2 123.28C163.29 123.28 163.5 123.28 163.62 123.4C164.21 123.7 164.76 124.02 165.34 124.32C165.92 124.62 166.34 124.93 166.93 124.7C167.07 124.7 167.26 124.79 167.26 124.77C167.11 125.77 166.95 126.59 166.78 127.55C167.111 127.563 167.441 127.49 167.735 127.338C168.03 127.185 168.279 126.958 168.46 126.68C169.59 125.07 170.77 123.5 171.91 121.92C172.098 121.697 172.269 121.46 172.42 121.21C172.737 120.586 173.259 120.091 173.897 119.805C174.536 119.519 175.253 119.461 175.93 119.64C176.71 119.77 177.25 119.94 177.18 120.88C177.18 121.02 177.54 121.26 177.75 121.29C178.69 121.4 179.16 121.29 180.75 120.58C180.81 120.725 180.854 120.876 180.88 121.03C180.905 121.239 180.905 121.451 180.88 121.66C180.678 122.442 180.77 123.271 181.139 123.99C181.507 124.709 182.127 125.267 182.88 125.56L183.19 125.72C182.048 126.803 180.561 127.448 178.99 127.54C177.899 127.538 176.827 127.82 175.88 128.36C175.088 128.733 174.269 129.044 173.43 129.29C173.143 129.472 172.88 129.69 172.65 129.94L172.76 130.14L175.86 129.87C175.74 130.63 175.86 131.08 176.66 131.15C176.96 131.15 177.22 131.58 177.6 131.9C176.26 132.16 175.6 133.63 173.89 133.27C174.41 132.8 174.81 132.42 175.22 132.04C174.6 131.34 174.44 131.27 173.61 131.79C172.78 132.31 172.05 132.94 171.27 133.51C171.06 133.67 170.87 133.91 170.64 133.94C169.27 134.2 168.59 135.33 167.71 136.22C167.652 136.288 167.588 136.352 167.52 136.41C167.347 136.645 167.125 136.839 166.869 136.979C166.614 137.119 166.331 137.201 166.04 137.22C165.768 137.221 165.505 137.321 165.3 137.5C165.061 137.713 164.906 138.003 164.86 138.32C164.913 138.897 164.787 139.476 164.498 139.979C164.21 140.482 163.774 140.884 163.25 141.13C162.292 141.642 161.378 142.234 160.52 142.9C160.162 143.273 159.921 143.743 159.829 144.252C159.736 144.76 159.796 145.285 160 145.76C160.162 146.093 160.247 146.459 160.247 146.83C160.247 147.201 160.162 147.567 160 147.9C159.93 148.07 159.53 148.21 159.27 148.21C159.01 148.21 158.86 147.97 158.8 147.78C158.6 146.93 158.44 146.04 158.23 145.17C158.113 144.877 157.962 144.598 157.78 144.34C157.721 144.358 157.664 144.382 157.61 144.41C157.61 144.74 157.61 145.07 157.61 145.41C157.559 145.458 157.502 145.498 157.44 145.53C157.22 145.29 157.01 145.03 156.76 144.8C156.437 144.491 156.078 144.222 155.69 144C155.485 143.909 155.254 143.897 155.041 143.968C154.829 144.038 154.65 144.185 154.54 144.38C154.13 144.94 153.64 145.44 153.21 145.95C152.857 145.516 152.48 145.102 152.08 144.71C151.992 144.641 151.89 144.592 151.781 144.567C151.672 144.541 151.559 144.538 151.45 144.56C150.62 144.686 149.867 145.117 149.34 145.77C148.776 146.444 148.154 147.066 147.48 147.63C147.163 147.842 146.94 148.168 146.856 148.54C146.773 148.912 146.835 149.302 147.03 149.63C147.129 149.916 147.153 150.222 147.1 150.52C146.948 151.323 147.104 152.155 147.538 152.848C147.972 153.541 148.651 154.045 149.44 154.26C149.857 154.405 150.312 154.395 150.723 154.234C151.133 154.073 151.473 153.77 151.68 153.38C151.85 153.01 151.97 152.62 152.15 152.23C152.184 152.117 152.241 152.013 152.318 151.925C152.396 151.836 152.491 151.764 152.598 151.715C152.704 151.666 152.821 151.64 152.938 151.639C153.056 151.638 153.172 151.663 153.28 151.71C153.413 151.849 153.513 152.017 153.572 152.201C153.631 152.384 153.647 152.579 153.62 152.77C153.47 153.42 153.273 154.059 153.03 154.68C152.81 155.39 152.96 155.68 153.71 155.88C154.25 155.98 154.8 156.05 155.36 156.12C155.508 156.118 155.654 156.148 155.789 156.209C155.924 156.27 156.043 156.36 156.139 156.473C156.235 156.586 156.304 156.719 156.342 156.862C156.381 157.005 156.387 157.154 156.36 157.3C156.303 158.11 156.326 158.924 156.43 159.73C156.557 160.207 156.813 160.639 157.17 160.98C157.293 161.065 157.436 161.116 157.586 161.128C157.735 161.14 157.884 161.113 158.02 161.05C158.262 160.893 158.538 160.797 158.825 160.769C159.112 160.741 159.402 160.783 159.67 160.89C159.884 160.972 160.105 161.035 160.33 161.08C161.33 161.33 161.58 161.15 162.26 160.43C162.695 160.013 163.199 159.675 163.75 159.43C163.835 159.407 163.925 159.406 164.01 159.427C164.096 159.448 164.175 159.49 164.24 159.55C164.281 159.621 164.303 159.703 164.303 159.785C164.303 159.868 164.281 159.949 164.24 160.02C163.69 160.51 163.98 160.75 164.47 160.96L165.63 161.44C164.88 160.23 165.87 159.81 166.32 159.08C166.497 159.194 166.667 159.317 166.83 159.45C167.151 159.799 167.548 160.071 167.99 160.244C168.431 160.417 168.907 160.488 169.38 160.45H169.52C170.795 160.472 172.015 160.971 172.94 161.85C174.231 162.971 175.781 163.751 177.45 164.12C177.791 164.169 178.118 164.291 178.408 164.477C178.697 164.663 178.944 164.91 179.13 165.2C179.42 165.7 179.82 166.2 180.13 166.67C180.273 166.794 180.377 166.957 180.431 167.138C180.485 167.32 180.487 167.513 180.436 167.695C180.384 167.877 180.282 168.041 180.141 168.168C180 168.294 179.827 168.378 179.64 168.41L178.86 168.79C179.07 169.19 179.31 169.31 179.69 169.09C179.969 168.926 180.273 168.807 180.59 168.74C180.838 168.771 181.068 168.887 181.24 169.07C181.24 169.07 181.13 169.35 181.08 169.5C181.03 169.65 180.98 169.88 181.01 169.9C181.154 169.995 181.328 170.038 181.5 170.02C181.64 170.006 181.769 169.938 181.86 169.83C181.995 169.675 182.162 169.551 182.349 169.466C182.536 169.381 182.739 169.337 182.945 169.337C183.15 169.337 183.354 169.381 183.541 169.466C183.728 169.551 183.895 169.675 184.03 169.83C184.12 169.92 184.29 169.97 184.29 170.04C184.39 171.18 185.18 170.72 185.66 170.52C185.901 170.433 186.158 170.395 186.414 170.411C186.67 170.426 186.921 170.494 187.15 170.61C188.35 171.13 189.6 171.55 190.85 171.98C191.035 172.031 191.199 172.14 191.318 172.292C191.437 172.443 191.504 172.628 191.51 172.82C191.641 173.785 191.558 174.767 191.268 175.697C190.978 176.626 190.487 177.481 189.83 178.2C189.728 178.33 189.593 178.43 189.44 178.49C188.89 178.73 188.85 179.18 188.84 179.69C188.842 180.966 188.778 182.241 188.65 183.51C188.487 184.293 188.218 185.05 187.85 185.76C187.57 186.33 187.29 186.94 186.37 186.76C186.077 186.754 185.791 186.849 185.56 187.03C185.36 187.12 185.18 187.26 185.01 187.36ZM254.13 182.21C253.62 183.47 253.31 184.84 252.88 186.15C252.736 186.54 252.548 186.912 252.32 187.26C251.68 188.47 251.68 188.47 250.32 188.26C250.068 188.178 249.835 188.046 249.634 187.873C249.434 187.699 249.27 187.488 249.151 187.251C249.033 187.013 248.963 186.755 248.946 186.491C248.929 186.226 248.964 185.961 249.05 185.71C249.389 185.276 249.675 184.803 249.9 184.3C250.025 183.754 250.025 183.186 249.9 182.64C249.878 182.247 249.979 181.857 250.189 181.524C250.398 181.191 250.706 180.931 251.07 180.78C251.264 180.757 251.446 180.673 251.59 180.54C252.25 179.88 252.91 179.2 253.53 178.54C253.677 178.327 253.801 178.099 253.9 177.86C254.32 179.27 254.72 180.7 254.13 182.21ZM266.64 148.26C266.453 148.017 266.207 147.825 265.925 147.705C265.643 147.584 265.335 147.537 265.03 147.57C262.86 147.86 260.83 147.19 258.8 146.57C257.385 146.18 256.037 145.58 254.8 144.79C253.783 144.243 252.681 143.871 251.54 143.69C251.607 143.863 251.648 144.045 251.66 144.23C251.4 145.81 252.58 146.56 253.5 147.46C253.9 147.84 254.26 148.24 254.7 148.69L257.42 147.96C257.748 147.839 258.108 147.839 258.436 147.96C258.765 148.081 259.039 148.315 259.21 148.62C259.68 149.187 260.188 149.722 260.73 150.22C261.22 150.76 261.1 150.9 260.54 151.31C259.16 152.31 257.54 153.07 256.54 154.49C256.403 154.67 256.233 154.823 256.04 154.94C255.17 155.51 254.29 156.05 253.42 156.62C253.118 156.791 252.783 156.896 252.438 156.926C252.092 156.956 251.744 156.911 251.418 156.794C251.091 156.677 250.794 156.491 250.545 156.249C250.297 156.007 250.104 155.714 249.98 155.39C249.602 154.103 248.95 152.912 248.07 151.9C247.65 151.28 247.314 150.608 247.07 149.9C246.722 149.111 246.095 148.477 245.31 148.12C244.968 147.986 244.66 147.778 244.409 147.509C244.158 147.241 243.971 146.92 243.86 146.57C243.51 145.57 243.02 144.63 242.61 143.65C241.61 144.05 241.61 144.05 241.9 145.03C242.382 146.687 243.107 148.264 244.05 149.71C245.52 152.04 247.24 154.26 248.16 156.91C248.4 157.61 248.58 158.34 248.85 159.01C249.27 160.01 249.72 160.14 250.68 159.59C250.769 159.517 250.876 159.469 250.99 159.45H254.7C254.558 160.461 254.358 161.462 254.1 162.45C253.892 163.273 253.491 164.034 252.93 164.67C252.078 165.408 251.169 166.077 250.21 166.67C249.965 166.821 249.762 167.031 249.62 167.28C248.56 169.28 247.55 171.2 246.49 173.14C246.23 173.63 246.15 174.03 246.49 174.44C247.95 176.01 247.49 177.93 247.55 179.77C247.55 179.98 247.22 180.24 246.97 180.38C245.788 180.91 244.732 181.683 243.87 182.65C243.527 183.068 243.287 183.562 243.17 184.09C242.988 185.67 242.48 187.195 241.68 188.57C240.5 190.57 239.46 192.68 238.38 194.75C238.293 194.978 238.142 195.177 237.945 195.322C237.748 195.468 237.514 195.554 237.27 195.57L234.13 195.7C233.68 195.7 233.23 195.84 232.76 195.87C232.649 195.886 232.536 195.879 232.427 195.85C232.319 195.82 232.218 195.769 232.13 195.7C231.74 195.41 231.42 195.06 231.13 194.8C231.141 193.748 230.872 192.713 230.35 191.8C230.149 191.445 229.914 191.111 229.65 190.8C228.973 189.812 228.601 188.647 228.58 187.45C228.524 186.769 228.315 186.11 227.97 185.52C227.186 184.317 226.693 182.947 226.53 181.52C226.534 180.72 226.683 179.927 226.97 179.18C227.071 178.852 227.209 178.537 227.38 178.24C227.693 177.599 227.75 176.862 227.54 176.18C227.02 173.798 225.997 171.555 224.54 169.6C224.373 169.331 224.285 169.021 224.285 168.705C224.285 168.389 224.373 168.079 224.54 167.81C224.75 167.36 225.02 166.93 225.28 166.49C225.54 166.05 225.53 165.8 225.06 165.63C224.831 165.566 224.626 165.438 224.468 165.26C224.311 165.083 224.207 164.864 224.17 164.63C224.17 164.49 223.77 164.29 223.58 164.3C223.122 164.352 222.658 164.298 222.225 164.142C221.791 163.986 221.399 163.732 221.08 163.4C220.75 163.07 220.03 163.07 219.47 163.04C219.057 163.061 218.649 163.142 218.26 163.28L212.61 164.63C212.159 164.735 211.688 164.716 211.247 164.578C210.806 164.439 210.41 164.184 210.1 163.84C209.933 163.649 209.745 163.478 209.54 163.33C209.136 163.083 208.8 162.74 208.561 162.332C208.322 161.924 208.188 161.463 208.17 160.99C208.138 160.777 208.055 160.574 207.928 160.4C207.801 160.226 207.634 160.085 207.44 159.99C205.73 159.44 205.5 157.89 205.03 156.54C205.002 156.331 205.017 156.119 205.073 155.916C205.13 155.713 205.228 155.524 205.36 155.36C205.573 155.164 205.718 154.905 205.774 154.621C205.83 154.337 205.793 154.042 205.67 153.78C205.362 153.079 205.235 152.311 205.299 151.548C205.364 150.785 205.618 150.05 206.04 149.41C206.473 148.459 207.141 147.633 207.98 147.01C208.31 146.81 208.4 146.23 208.71 146.01C209.654 145.135 210.318 144.001 210.62 142.75C210.888 142.239 211.267 141.795 211.73 141.45C212.41 140.79 213.15 140.2 213.83 139.54C214.21 139.19 214.47 139.16 214.75 139.64C214.809 139.735 214.889 139.814 214.985 139.872C215.081 139.929 215.189 139.963 215.3 139.97C216.3 139.85 217.39 139.7 218.43 139.56C218.736 139.467 219.051 139.403 219.37 139.37C220.874 139.406 222.365 139.084 223.72 138.43C224.05 138.326 224.407 138.351 224.72 138.5C224.83 138.55 224.83 138.97 224.81 139.21C224.814 139.567 224.902 139.917 225.067 140.234C225.232 140.55 225.47 140.823 225.76 141.03L227.29 142.51C227.4 142.59 227.5 142.73 227.62 142.75C228.62 142.92 229.7 143.11 230.76 143.2C231.28 143.25 231.63 143.01 231.76 142.37C231.9 141.9 232.46 141.53 232.82 141.12C232.841 141.197 232.871 141.271 232.91 141.34C233.127 141.573 233.372 141.778 233.64 141.95C234.209 142.256 234.809 142.501 235.43 142.68C235.884 142.745 236.345 142.745 236.8 142.68C237.053 142.655 237.307 142.655 237.56 142.68C238.65 142.84 239.75 142.98 240.84 143.2C241.019 143.246 241.207 143.241 241.384 143.186C241.56 143.132 241.718 143.029 241.84 142.89C242.321 142.647 242.7 142.242 242.911 141.745C243.121 141.249 243.149 140.695 242.99 140.18C242.883 139.719 242.806 139.251 242.76 138.78C242.418 138.649 242.051 138.596 241.686 138.625C241.32 138.655 240.966 138.766 240.65 138.95C240.272 139.202 239.819 139.317 239.366 139.277C238.914 139.237 238.488 139.044 238.16 138.73C237.06 138.048 236.257 136.977 235.91 135.73C236.97 136.25 237.4 135.6 237.91 134.65C236.59 134.96 235.4 135.21 234.23 135.54C234.115 135.568 234.008 135.622 233.919 135.699C233.829 135.777 233.76 135.874 233.716 135.984C233.671 136.093 233.654 136.212 233.666 136.33C233.677 136.447 233.716 136.561 233.78 136.66C233.869 136.792 233.912 136.951 233.9 137.11C233.856 137.374 233.782 137.632 233.68 137.88C233.35 137.74 232.86 137.69 232.68 137.43C232.44 137.01 232.35 136.54 231.82 136.37C231.778 136.35 231.742 136.321 231.715 136.284C231.687 136.248 231.668 136.205 231.66 136.16C231.76 135.05 230.78 134.51 230.32 133.7C230.22 133.5 229.82 133.38 229.54 133.37C229.181 133.368 228.827 133.283 228.508 133.119C228.188 132.956 227.911 132.72 227.7 132.43C227.543 132.174 227.34 131.95 227.1 131.77C226.73 131.49 226.28 131.3 225.93 131.72C225.838 131.802 225.765 131.902 225.714 132.014C225.664 132.126 225.638 132.247 225.638 132.37C225.638 132.493 225.664 132.614 225.714 132.726C225.765 132.838 225.838 132.938 225.93 133.02C226.565 133.784 227.375 134.384 228.29 134.77C228.92 134.96 229.21 135.54 229.51 136.09C228.19 136.8 227.32 136.56 226.61 135.36C226.383 135.036 226.132 134.728 225.86 134.44C225.42 133.869 224.939 133.331 224.42 132.83C223.73 132.2 222.36 132.15 222.2 133.37C222.176 133.499 222.142 133.626 222.1 133.75L221.63 133.61C221.238 133.442 220.796 133.433 220.397 133.584C219.998 133.735 219.673 134.035 219.49 134.42C219.32 134.68 219.06 134.91 218.87 135.15C218.674 135.339 218.515 135.563 218.4 135.81C218.289 136.298 218.043 136.745 217.689 137.099C217.335 137.453 216.888 137.7 216.4 137.81C215.079 138.039 213.74 138.149 212.4 138.14C212.19 138.14 211.84 137.77 211.82 137.57C211.71 136.657 211.71 135.733 211.82 134.82C211.915 134.369 212.17 133.967 212.537 133.688C212.904 133.408 213.36 133.271 213.82 133.3C214.74 133.3 215.66 133.3 216.6 133.3C216.94 133.3 217.17 133.19 217.13 132.78C217.115 132.617 217.115 132.453 217.13 132.29C217.32 131.2 217.27 131.07 216.28 130.48C215.99 130.31 215.66 130.19 215.36 130.02C215.22 129.93 215.03 129.76 215.05 129.65C215.069 129.564 215.109 129.485 215.167 129.418C215.224 129.352 215.298 129.301 215.38 129.27C215.728 129.167 216.087 129.103 216.45 129.08C217.182 129.111 217.907 128.92 218.529 128.533C219.152 128.146 219.643 127.58 219.94 126.91C220.088 126.533 220.337 126.204 220.66 125.958C220.983 125.713 221.367 125.562 221.77 125.52C223.08 125.31 223.33 124.98 223.5 123.61C223.586 123.264 223.71 122.929 223.87 122.61H224.14C224.36 123.073 224.547 123.551 224.7 124.04C224.735 124.293 224.851 124.528 225.032 124.708C225.212 124.889 225.447 125.005 225.7 125.04C226.202 125.085 226.708 125.085 227.21 125.04C228.08 124.93 228.93 124.76 229.8 124.64C230.11 124.64 230.3 124.64 230.41 124.17C230.52 123.7 230.91 123.55 231.21 123.27C231.51 122.99 231.9 122.83 231.92 122.27C232.01 121.969 232.193 121.705 232.443 121.515C232.693 121.324 232.996 121.218 233.31 121.21C233.585 121.276 233.825 121.444 233.98 121.68C234.153 121.996 234.287 122.332 234.38 122.68C234.835 122.276 235.169 121.753 235.345 121.171C235.522 120.589 235.534 119.969 235.38 119.38C235.034 119.486 234.679 119.559 234.32 119.6C233.819 119.67 233.311 119.67 232.81 119.6C231.37 119.28 231.16 118.6 231.93 117.41C232.19 116.99 232.5 116.13 232.36 116.04C231.82 115.64 231.36 116.14 230.94 116.49C229.986 117.236 229.287 118.26 228.94 119.42C228.675 120.437 228.257 121.408 227.7 122.3C227.47 122.69 226.76 122.84 226.24 122.91C226.05 122.91 225.75 122.49 225.54 122.22C225.346 121.924 225.169 121.617 225.01 121.3C224.973 121.368 224.949 121.443 224.94 121.52L221.88 121.68C221.831 121.539 221.791 121.396 221.76 121.25C221.31 119.04 221.12 119.34 223.24 118.5C223.867 118.132 224.428 117.662 224.9 117.11C225.39 116.7 225.9 116.28 226.34 115.87C226.436 115.797 226.523 115.713 226.6 115.62C228.04 113.7 230.19 113.38 232.35 113.04C234.51 112.7 236.16 113.56 238.02 114.04L241.11 114.94C239.7 116.07 238.42 114.94 237.22 115.15C237.22 115.22 237.14 115.29 237.15 115.31C237.839 116.058 238.578 116.76 239.36 117.41C239.503 117.482 239.662 117.521 239.822 117.523C239.983 117.525 240.142 117.491 240.288 117.423C240.433 117.354 240.561 117.254 240.662 117.128C240.763 117.003 240.834 116.857 240.87 116.7C240.99 116.26 241.18 116.05 241.63 116.05C241.92 116.046 242.203 115.957 242.443 115.793C242.683 115.63 242.87 115.399 242.98 115.13C243.21 114.67 243.52 114.46 243.98 114.65C243.91 115.19 244.15 115.43 244.67 115.26C244.873 115.195 245.065 115.101 245.24 114.98C245.857 114.593 246.587 114.427 247.31 114.51C248.334 114.454 249.345 114.248 250.31 113.9C251.21 113.66 251.7 113.75 252.17 114.25C256.425 118.671 260.04 123.666 262.91 129.09C266.325 135.532 268.618 142.508 269.69 149.72C269.7 149.796 269.7 149.874 269.69 149.95C268.19 150.33 267.46 149.15 266.61 148.26H266.64Z" fill="#1A237E"/>
<path d="M269.8 149.99C268.18 150.33 267.45 149.15 266.6 148.26C266.414 148.015 266.168 147.823 265.886 147.702C265.604 147.581 265.295 147.535 264.99 147.57C262.82 147.87 260.8 147.19 258.76 146.57C257.344 146.177 255.996 145.573 254.76 144.78C253.75 144.228 252.649 143.862 251.51 143.7C251.573 143.871 251.613 144.049 251.63 144.23C251.37 145.81 252.54 146.56 253.47 147.46C253.86 147.83 254.23 148.24 254.67 148.69L257.4 147.96C257.727 147.842 258.085 147.843 258.411 147.964C258.736 148.085 259.009 148.317 259.18 148.62C259.647 149.189 260.155 149.724 260.7 150.22C261.2 150.76 261.08 150.9 260.51 151.31C259.13 152.31 257.51 153.06 256.51 154.48C256.368 154.662 256.195 154.817 256 154.94L253.37 156.62C253.07 156.792 252.736 156.896 252.392 156.927C252.047 156.957 251.7 156.913 251.375 156.798C251.049 156.682 250.752 156.497 250.504 156.256C250.257 156.014 250.064 155.723 249.94 155.4C249.563 154.111 248.916 152.918 248.04 151.9C247.625 151.278 247.289 150.606 247.04 149.9C246.702 149.107 246.077 148.472 245.29 148.12C244.948 147.986 244.64 147.778 244.389 147.509C244.138 147.241 243.95 146.92 243.84 146.57C243.5 145.57 243.01 144.57 242.58 143.65C241.58 144.05 241.58 144.05 241.87 145.02C242.356 146.681 243.084 148.261 244.03 149.71C245.51 152.04 247.22 154.26 248.14 156.91C248.38 157.61 248.56 158.33 248.83 159.01C249.25 160.01 249.7 160.15 250.66 159.58C250.748 159.514 250.851 159.47 250.96 159.45H254.68C254.537 160.461 254.337 161.462 254.08 162.45C253.869 163.269 253.472 164.029 252.92 164.67C252.063 165.406 251.15 166.075 250.19 166.67C249.949 166.832 249.744 167.044 249.59 167.29C248.54 169.29 247.54 171.22 246.47 173.16C246.315 173.341 246.23 173.572 246.23 173.81C246.23 174.048 246.315 174.279 246.47 174.46C247.92 176.02 247.47 177.95 247.52 179.78C247.52 179.99 247.19 180.25 246.96 180.39C245.778 180.925 244.72 181.698 243.85 182.66C243.508 183.078 243.271 183.572 243.16 184.1C242.964 185.68 242.451 187.204 241.65 188.58C240.49 190.58 239.44 192.69 238.37 194.76C238.278 194.986 238.126 195.182 237.93 195.327C237.735 195.471 237.502 195.559 237.26 195.58C236.2 195.65 235.14 195.69 234.08 195.77C233.62 195.77 233.17 195.91 232.71 195.94C232.494 195.93 232.289 195.845 232.13 195.7C231.75 195.4 231.41 195.05 231.13 194.79C231.134 193.738 230.862 192.703 230.34 191.79C230.132 191.442 229.901 191.108 229.65 190.79C228.961 189.81 228.582 188.647 228.56 187.45C228.508 186.77 228.303 186.11 227.96 185.52C227.177 184.315 226.681 182.947 226.51 181.52C226.52 180.72 226.673 179.927 226.96 179.18C227.052 178.829 227.194 178.492 227.38 178.18C227.685 177.54 227.738 176.808 227.53 176.13C227.006 173.746 225.983 171.5 224.53 169.54C224.365 169.274 224.278 168.968 224.278 168.655C224.278 168.342 224.365 168.036 224.53 167.77C224.754 167.314 225.008 166.873 225.29 166.45C225.54 166.06 225.53 165.75 225.05 165.58C224.821 165.521 224.615 165.394 224.459 165.215C224.304 165.037 224.207 164.815 224.18 164.58C224.18 164.43 223.78 164.23 223.58 164.24C223.124 164.291 222.662 164.236 222.23 164.08C221.798 163.924 221.408 163.671 221.09 163.34C220.76 163.01 220.03 163.01 219.47 162.98C219.057 163.002 218.65 163.083 218.26 163.22L212.62 164.57C212.167 164.675 211.695 164.658 211.252 164.519C210.809 164.38 210.411 164.125 210.1 163.78C209.928 163.594 209.741 163.424 209.54 163.27C209.135 163.023 208.798 162.679 208.561 162.268C208.323 161.858 208.192 161.394 208.18 160.92C208.139 160.715 208.051 160.522 207.922 160.357C207.794 160.192 207.629 160.06 207.44 159.97C205.73 159.42 205.5 157.87 205.04 156.51C205.007 156.303 205.019 156.092 205.074 155.891C205.13 155.689 205.227 155.501 205.36 155.34C205.574 155.142 205.719 154.882 205.775 154.596C205.831 154.31 205.794 154.014 205.67 153.75C205.364 153.049 205.239 152.283 205.305 151.522C205.372 150.76 205.628 150.027 206.05 149.39C206.477 148.441 207.142 147.618 207.98 147C208.31 146.78 208.39 146.21 208.71 145.95C209.65 145.07 210.316 143.939 210.63 142.69C210.89 142.177 211.262 141.729 211.72 141.38C212.41 140.73 213.15 140.13 213.84 139.49C214.21 139.14 214.47 139.09 214.76 139.59C214.819 139.681 214.899 139.757 214.992 139.813C215.086 139.868 215.191 139.902 215.3 139.91C216.3 139.8 217.39 139.64 218.43 139.49C218.737 139.402 219.052 139.342 219.37 139.31C220.882 139.327 222.376 138.985 223.73 138.31C224.062 138.213 224.418 138.242 224.73 138.39C224.84 138.44 224.84 138.86 224.82 139.11C224.83 139.471 224.927 139.824 225.101 140.14C225.274 140.457 225.521 140.728 225.82 140.93C226.31 141.43 226.82 141.93 227.34 142.39C227.44 142.49 227.55 142.62 227.67 142.64C228.67 142.81 229.75 143 230.8 143.09C231.33 143.14 231.68 142.9 231.86 142.26C231.99 141.78 232.54 141.42 232.86 141.01L232.96 141.23C233.18 141.463 233.429 141.668 233.7 141.84C234.265 142.15 234.861 142.398 235.48 142.58C235.937 142.623 236.397 142.606 236.85 142.53C237.1 142.515 237.35 142.515 237.6 142.53C238.7 142.69 239.8 142.83 240.89 143.06C241.07 143.096 241.256 143.086 241.431 143.03C241.606 142.974 241.764 142.874 241.89 142.74C242.364 142.493 242.737 142.088 242.946 141.595C243.154 141.102 243.183 140.552 243.03 140.04C242.923 139.579 242.85 139.111 242.81 138.64C242.467 138.504 242.099 138.448 241.731 138.476C241.364 138.504 241.008 138.614 240.69 138.8C240.31 139.05 239.857 139.164 239.404 139.122C238.952 139.08 238.527 138.886 238.2 138.57C237.106 137.904 236.303 136.851 235.95 135.62C236.95 136.15 237.45 135.51 237.95 134.56C236.63 134.87 235.44 135.11 234.27 135.44C234.154 135.467 234.047 135.521 233.958 135.599C233.868 135.676 233.798 135.774 233.755 135.884C233.712 135.995 233.696 136.114 233.709 136.231C233.722 136.349 233.763 136.462 233.83 136.56C233.912 136.699 233.954 136.858 233.95 137.02C233.893 137.279 233.816 137.533 233.72 137.78C233.39 137.64 232.91 137.58 232.72 137.33C232.49 136.92 232.39 136.44 231.86 136.27C231.818 136.25 231.782 136.221 231.754 136.184C231.727 136.148 231.708 136.105 231.7 136.06C231.8 134.95 230.82 134.41 230.36 133.59C230.151 133.385 229.872 133.267 229.58 133.26C229.221 133.264 228.867 133.181 228.548 133.017C228.229 132.853 227.955 132.614 227.75 132.32C227.578 132.073 227.369 131.854 227.13 131.67C226.77 131.38 226.32 131.2 225.97 131.62C225.875 131.699 225.799 131.797 225.747 131.909C225.695 132.02 225.668 132.142 225.668 132.265C225.668 132.388 225.695 132.51 225.747 132.621C225.799 132.733 225.875 132.831 225.97 132.91C226.601 133.679 227.406 134.286 228.32 134.68C228.95 134.87 229.25 135.44 229.54 136C229.314 136.182 229.048 136.309 228.764 136.371C228.48 136.432 228.186 136.427 227.905 136.355C227.623 136.284 227.362 136.147 227.143 135.957C226.923 135.767 226.751 135.528 226.64 135.26C226.418 134.934 226.171 134.626 225.9 134.34C225.448 133.772 224.964 133.231 224.45 132.72C223.76 132.1 222.39 132.05 222.24 133.27C222.206 133.399 222.166 133.526 222.12 133.65L221.67 133.52C221.278 133.348 220.834 133.336 220.433 133.485C220.032 133.635 219.704 133.934 219.52 134.32C219.323 134.575 219.113 134.819 218.89 135.05C218.693 135.241 218.537 135.468 218.43 135.72C218.32 136.209 218.074 136.656 217.72 137.01C217.366 137.365 216.919 137.611 216.43 137.72C215.108 137.946 213.77 138.06 212.43 138.06C212.24 138.06 211.88 137.69 211.86 137.48C211.755 136.57 211.755 135.65 211.86 134.74C211.951 134.287 212.205 133.882 212.573 133.602C212.941 133.323 213.399 133.187 213.86 133.22C214.79 133.22 215.71 133.22 216.64 133.22C217 133.22 217.22 133.12 217.18 132.7C217.155 132.541 217.155 132.379 217.18 132.22C217.35 131.13 217.3 131.01 216.32 130.42C216.02 130.24 215.69 130.12 215.4 129.95C215.11 129.78 215.08 129.69 215.09 129.57C215.112 129.486 215.153 129.408 215.211 129.342C215.268 129.276 215.339 129.224 215.42 129.19C215.772 129.091 216.134 129.03 216.5 129.01C218.04 128.89 219.35 128.39 219.98 126.85C220.123 126.472 220.37 126.141 220.691 125.895C221.013 125.65 221.397 125.499 221.8 125.46C223.13 125.24 223.36 124.91 223.55 123.54C223.631 123.195 223.748 122.86 223.9 122.54H224.19C224.405 123.004 224.589 123.482 224.74 123.97C224.89 124.53 225.17 124.91 225.74 124.97C226.242 125.02 226.748 125.02 227.25 124.97C228.12 124.87 228.98 124.7 229.84 124.58C230.16 124.58 230.35 124.52 230.45 124.11C230.55 123.7 230.95 123.49 231.24 123.2C231.53 122.91 231.94 122.77 231.95 122.2C231.96 121.63 232.86 121.07 233.35 121.14C233.629 121.215 233.871 121.389 234.03 121.63C234.195 121.948 234.326 122.284 234.42 122.63C234.871 122.223 235.202 121.701 235.379 121.119C235.555 120.538 235.569 119.919 235.42 119.33C235.072 119.429 234.718 119.506 234.36 119.56C233.859 119.63 233.351 119.63 232.85 119.56C231.42 119.24 231.2 118.56 231.97 117.38C232.23 116.96 232.53 116.09 232.4 115.99C231.87 115.59 231.4 116.1 230.98 116.45C230.027 117.198 229.329 118.221 228.98 119.38C228.71 120.399 228.293 121.373 227.74 122.27C227.51 122.64 226.8 122.79 226.28 122.87C226.08 122.87 225.78 122.45 225.58 122.18C225.382 121.881 225.202 121.57 225.04 121.25L224.97 121.48L221.97 121.64C221.92 121.46 221.87 121.34 221.84 121.21C221.4 119 221.21 119.3 223.32 118.46C223.946 118.087 224.513 117.622 225 117.08L226.44 115.82C226.53 115.751 226.614 115.674 226.69 115.59C228.13 113.66 230.28 113.34 232.44 113C234.6 112.66 236.26 113.51 238.12 114C239.12 114.27 240.05 114.57 241.2 114.91C239.8 116.02 238.51 114.91 237.31 115.11C237.31 115.19 237.23 115.25 237.24 115.26C237.927 116.011 238.665 116.712 239.45 117.36C239.594 117.434 239.753 117.475 239.915 117.478C240.077 117.481 240.237 117.447 240.384 117.378C240.531 117.31 240.66 117.208 240.762 117.082C240.863 116.956 240.934 116.808 240.97 116.65C241.08 116.22 241.26 116.01 241.72 116.01C242.011 116.005 242.295 115.914 242.535 115.749C242.775 115.584 242.961 115.351 243.07 115.08C243.31 114.62 243.61 114.42 244.07 114.61C243.99 115.15 244.24 115.38 244.77 115.21C244.964 115.145 245.149 115.054 245.32 114.94C245.944 114.553 246.68 114.388 247.41 114.47C248.414 114.412 249.405 114.206 250.35 113.86C250.657 113.718 251.001 113.674 251.334 113.735C251.667 113.796 251.973 113.958 252.21 114.2C256.466 118.62 260.081 123.616 262.95 129.04C266.359 135.484 268.652 142.46 269.73 149.67C269.763 149.774 269.787 149.881 269.8 149.99Z" fill="white"/>
<path d="M167.27 124.7L166.79 127.46C167.121 127.475 167.451 127.403 167.746 127.25C168.041 127.098 168.291 126.87 168.47 126.59C169.6 124.99 170.77 123.43 171.93 121.85C172.11 121.61 172.29 121.37 172.45 121.11C172.761 120.485 173.281 119.987 173.92 119.704C174.559 119.421 175.277 119.37 175.95 119.56C176.72 119.68 177.27 119.85 177.21 120.79C177.21 120.92 177.56 121.18 177.77 121.2C178.71 121.31 179.18 121.2 180.77 120.5C180.831 120.641 180.875 120.789 180.9 120.94C180.925 121.146 180.925 121.354 180.9 121.56C180.698 122.342 180.79 123.171 181.159 123.89C181.527 124.609 182.147 125.167 182.9 125.46L183.2 125.62C182.066 126.717 180.575 127.366 179 127.45C177.912 127.443 176.842 127.726 175.9 128.27C175.111 128.641 174.295 128.952 173.46 129.2C173.167 129.379 172.902 129.598 172.67 129.85L172.77 130.06L175.88 129.78C175.76 130.54 175.88 130.99 176.68 131.06C176.98 131.06 177.25 131.49 177.63 131.8C176.28 132.06 175.63 133.53 173.91 133.18L175.24 131.94C174.61 131.25 174.46 131.19 173.62 131.71C172.78 132.23 172.06 132.85 171.28 133.43C171.08 133.58 170.89 133.82 170.67 133.86C169.28 134.11 168.61 135.25 167.73 136.14C167.537 136.415 167.289 136.646 167.001 136.818C166.713 136.99 166.393 137.1 166.06 137.14C165.787 137.138 165.523 137.238 165.32 137.42C165.081 137.633 164.925 137.924 164.88 138.24C164.93 138.817 164.801 139.395 164.511 139.895C164.221 140.396 163.784 140.796 163.26 141.04C162.308 141.557 161.402 142.152 160.55 142.82C160.186 143.189 159.941 143.66 159.849 144.17C159.756 144.68 159.819 145.206 160.03 145.68C160.19 146.014 160.273 146.38 160.273 146.75C160.273 147.121 160.19 147.486 160.03 147.82C159.97 147.99 159.56 148.13 159.31 148.14C159.06 148.15 158.89 147.88 158.84 147.7C158.62 146.84 158.48 145.95 158.26 145.09C158.141 144.794 157.991 144.512 157.81 144.25L157.64 144.32V145.32L157.48 145.44C157.263 145.185 157.032 144.941 156.79 144.71C156.468 144.395 156.105 144.126 155.71 143.91C155.51 143.812 155.28 143.795 155.069 143.865C154.858 143.934 154.682 144.083 154.58 144.28C154.16 144.84 153.67 145.35 153.24 145.84C152.885 145.411 152.508 145 152.11 144.61C152.022 144.541 151.92 144.493 151.811 144.467C151.702 144.441 151.589 144.439 151.48 144.46C150.649 144.582 149.895 145.014 149.37 145.67C148.808 146.343 148.186 146.962 147.51 147.52C147.2 147.739 146.983 148.064 146.9 148.434C146.817 148.803 146.874 149.19 147.06 149.52C147.158 149.799 147.185 150.098 147.14 150.39C146.982 151.194 147.135 152.028 147.567 152.723C147.999 153.419 148.679 153.925 149.47 154.14C149.887 154.283 150.341 154.272 150.751 154.111C151.161 153.95 151.501 153.648 151.71 153.26C151.89 152.89 152.01 152.49 152.18 152.11C152.214 151.999 152.271 151.896 152.347 151.808C152.424 151.72 152.518 151.649 152.624 151.6C152.729 151.551 152.844 151.525 152.961 151.523C153.077 151.522 153.193 151.544 153.3 151.59C153.436 151.73 153.539 151.899 153.6 152.084C153.66 152.27 153.678 152.467 153.65 152.66C153.501 153.312 153.301 153.951 153.05 154.57C152.83 155.27 153 155.57 153.74 155.75C154.282 155.86 154.829 155.94 155.38 155.99C155.53 155.987 155.678 156.018 155.815 156.08C155.951 156.142 156.072 156.234 156.168 156.35C156.264 156.465 156.333 156.6 156.37 156.746C156.406 156.891 156.41 157.043 156.38 157.19C156.313 157.997 156.336 158.809 156.45 159.61C156.577 160.087 156.833 160.519 157.19 160.86C157.314 160.942 157.457 160.992 157.605 161.006C157.753 161.02 157.902 160.997 158.04 160.94C158.28 160.778 158.556 160.679 158.844 160.651C159.133 160.623 159.423 160.667 159.69 160.78C159.909 160.854 160.133 160.914 160.36 160.96C161.36 161.2 161.61 161.03 162.27 160.3C162.721 159.895 163.23 159.558 163.78 159.3C163.864 159.28 163.952 159.281 164.036 159.304C164.12 159.327 164.197 159.37 164.26 159.43C164.303 159.501 164.326 159.582 164.326 159.665C164.326 159.748 164.303 159.829 164.26 159.9C163.72 160.39 164.02 160.63 164.5 160.83L165.66 161.32C164.92 160.11 165.91 159.69 166.35 158.97C166.53 159.075 166.701 159.195 166.86 159.33C167.182 159.681 167.58 159.953 168.024 160.126C168.468 160.299 168.945 160.369 169.42 160.33C170.74 160.314 172.012 160.821 172.96 161.74C174.257 162.863 175.814 163.643 177.49 164.01C177.854 164.067 178.2 164.205 178.504 164.414C178.807 164.624 179.058 164.899 179.24 165.22C179.55 165.74 179.94 166.22 180.24 166.71C180.379 166.835 180.481 166.997 180.534 167.177C180.586 167.357 180.587 167.548 180.536 167.728C180.484 167.909 180.384 168.071 180.245 168.197C180.106 168.323 179.934 168.407 179.75 168.44L178.97 168.82C179.18 169.22 179.41 169.34 179.81 169.12C180.082 168.951 180.384 168.835 180.7 168.78C180.942 168.807 181.168 168.917 181.34 169.09C181.34 169.09 181.24 169.38 181.2 169.54C181.16 169.7 181.08 169.91 181.12 169.94C181.263 170.03 181.431 170.072 181.6 170.06C181.737 170.038 181.864 169.972 181.96 169.87C182.094 169.712 182.261 169.585 182.449 169.498C182.637 169.411 182.842 169.366 183.05 169.366C183.257 169.366 183.462 169.411 183.65 169.498C183.838 169.585 184.005 169.712 184.14 169.87C184.23 169.94 184.4 170 184.4 170.07C184.51 171.21 185.29 170.75 185.77 170.56C186.01 170.468 186.267 170.428 186.524 170.443C186.781 170.459 187.032 170.529 187.26 170.65C188.46 171.16 189.71 171.58 190.95 172.01C191.138 172.058 191.305 172.166 191.426 172.318C191.547 172.469 191.615 172.656 191.62 172.85C191.754 173.814 191.672 174.797 191.38 175.726C191.088 176.654 190.592 177.507 189.93 178.22C189.834 178.352 189.706 178.459 189.56 178.53C189.01 178.76 188.96 179.21 188.94 179.72C188.95 180.992 188.89 182.264 188.76 183.53C188.603 184.319 188.33 185.081 187.95 185.79C187.68 186.37 187.41 186.97 186.48 186.79C186.07 186.73 185.54 187.13 185.13 187.41C184.401 187.818 183.729 188.318 183.13 188.9C182.814 189.421 182.604 189.998 182.51 190.6C182.278 191.701 181.977 192.787 181.61 193.85C181.34 194.46 180.61 194.85 180.15 195.39C179.802 195.863 179.291 196.189 178.716 196.306C178.141 196.422 177.544 196.32 177.04 196.02C176.78 196.77 177.28 197.24 177.57 197.75C178.04 198.56 178.03 198.55 177.27 199.1C176.51 199.65 175.94 200.18 175.27 200.73C175.037 200.954 174.868 201.236 174.78 201.547C174.692 201.858 174.688 202.187 174.77 202.5C174.766 203.058 174.689 203.613 174.54 204.15C174.466 204.431 174.426 204.72 174.42 205.01C174.49 205.59 174.67 206.14 174.74 206.72C174.86 207.67 174.93 208.63 175.02 209.59C175.02 209.95 175.16 210.19 175.6 210.21C175.704 210.238 175.8 210.289 175.883 210.358C175.966 210.427 176.033 210.513 176.08 210.61C176.34 211.15 176.55 211.71 176.78 212.24C176.632 212.356 176.462 212.441 176.28 212.49C176.099 212.539 175.909 212.552 175.723 212.526C175.536 212.501 175.357 212.439 175.195 212.344C175.033 212.248 174.892 212.121 174.78 211.97C174.436 211.31 173.864 210.798 173.17 210.53C172.046 210.039 171.143 209.153 170.63 208.04C170.02 206.83 169.34 205.78 169.53 204.3C169.637 203.839 169.572 203.355 169.347 202.939C169.123 202.523 168.754 202.203 168.31 202.04C168.15 201.99 168.01 201.63 167.99 201.4C167.88 200.46 167.83 199.52 167.74 198.58C167.56 196.58 167.31 194.58 167.19 192.58C167.11 191.09 167.19 189.58 167.19 188.08C167.19 187.41 167.19 186.74 167.19 186.08C167.119 185.213 166.79 184.387 166.244 183.709C165.699 183.032 164.962 182.534 164.13 182.28C163.669 182.199 163.254 181.95 162.968 181.58C162.681 181.21 162.543 180.747 162.58 180.28C162.596 179.869 162.494 179.461 162.285 179.106C162.075 178.751 161.768 178.465 161.4 178.28C160.403 177.722 159.645 176.819 159.27 175.74C159.142 175.417 158.944 175.127 158.69 174.89C158.422 174.639 158.226 174.322 158.121 173.971C158.015 173.62 158.005 173.247 158.09 172.89C158.102 172.401 158.065 171.912 157.98 171.43C157.911 171.101 157.884 170.765 157.9 170.43C158.026 169.473 158.368 168.556 158.9 167.75C159.492 166.883 159.982 165.95 160.36 164.97C160.568 164.444 160.595 163.864 160.438 163.321C160.28 162.778 159.947 162.303 159.49 161.97C159.338 161.887 159.169 161.839 158.995 161.831C158.822 161.822 158.649 161.853 158.49 161.92C158.172 162.114 157.803 162.206 157.431 162.185C157.059 162.164 156.703 162.029 156.41 161.8C155.187 161.012 154.183 159.929 153.49 158.65C153.37 158.46 153.191 158.316 152.98 158.24C152.678 158.129 152.361 158.061 152.04 158.04C151.612 158.012 151.193 157.9 150.809 157.709C150.424 157.519 150.081 157.254 149.8 156.93C149.458 156.566 149.036 156.286 148.567 156.113C148.099 155.939 147.596 155.877 147.1 155.93C146.964 155.955 146.825 155.955 146.69 155.93C144.69 155.41 142.871 154.351 141.43 152.87C141.216 152.588 141.064 152.264 140.985 151.919C140.906 151.575 140.9 151.217 140.97 150.87C142.314 140.657 146.086 130.916 151.97 122.46C153.31 120.55 154.83 118.77 156.26 116.93C156.48 116.65 156.71 116.52 157.02 116.75C157.234 116.879 157.472 116.963 157.719 116.997C157.967 117.032 158.219 117.016 158.46 116.95C159.63 116.8 160.84 116.86 161.98 116.62C163.371 116.324 164.73 115.895 166.04 115.34C166.525 115.067 166.94 114.686 167.254 114.227C167.568 113.767 167.772 113.241 167.85 112.69C167.94 112.38 168.04 112.07 168.14 111.76C168.48 110.63 168.48 110.64 169.65 110.9L172.04 111.44C171.37 111.67 170.68 111.9 170.04 112.17C169.64 112.32 169.59 112.58 169.87 112.92C170.34 113.49 170.78 114.09 171.27 114.63C171.4 114.78 171.75 114.91 171.88 114.83C172.88 114.25 173.88 114.49 174.88 114.42C174.621 114.879 174.309 115.305 173.95 115.69C173.578 115.975 173.142 116.164 172.68 116.24C171.49 116.48 170.28 116.64 169.08 116.83C169.023 117.236 168.818 117.607 168.504 117.871C168.19 118.135 167.79 118.274 167.38 118.26C165.827 118.508 164.371 119.175 163.17 120.19C162.739 120.426 162.41 120.813 162.246 121.275C162.082 121.738 162.094 122.245 162.28 122.7C162.4 123.08 162.52 123.55 163.13 123.25C163.23 123.25 163.43 123.31 163.57 123.38C164.14 123.67 164.7 124 165.28 124.29C165.86 124.58 166.28 124.9 166.87 124.68C166.933 124.652 167.003 124.64 167.072 124.643C167.141 124.647 167.209 124.666 167.27 124.7Z" fill="white"/>
<path d="M185.63 108.64C187.1 108.4 188.5 108.21 189.88 107.94C190.479 107.781 191.064 107.574 191.63 107.32C193.105 106.604 194.745 106.294 196.38 106.42C197.91 106.64 199.46 106.75 201 106.88C201.284 106.937 201.578 106.919 201.854 106.828C202.129 106.737 202.376 106.576 202.57 106.36C202.74 106.16 203.16 106.13 203.47 106.07C204.68 105.87 205.88 105.65 207.1 105.53C207.738 105.475 208.38 105.505 209.01 105.62C210.49 105.85 212.01 106.14 213.44 106.41C213.678 106.438 213.902 106.54 214.08 106.7C213.47 106.7 212.85 106.77 212.24 106.84C211.854 106.867 211.476 106.958 211.12 107.11C210.55 107.39 210.05 107.69 210.02 108.51C210.012 108.905 209.871 109.287 209.621 109.593C209.371 109.899 209.026 110.113 208.64 110.2C207.836 110.492 207.049 110.826 206.28 111.2C205.88 111.38 205.88 111.61 206.28 111.83C206.84 112.15 207.4 112.45 208 112.78C207.07 113.16 207.07 113.16 205.11 112.26L205.94 113.63C204.69 113.96 203.39 114.34 202.08 114.63C200.87 114.853 199.74 115.387 198.8 116.18C197.857 116.844 196.742 117.223 195.59 117.27C194.98 117.38 194.48 117.5 194.49 118.27C194.49 118.55 194.2 118.89 193.97 119.12C193.667 119.419 193.331 119.684 192.97 119.91C192.661 120.134 192.296 120.268 191.915 120.297C191.534 120.326 191.153 120.248 190.814 120.073C190.475 119.898 190.191 119.632 189.994 119.304C189.798 118.977 189.696 118.602 189.7 118.22C189.617 117.812 189.594 117.395 189.63 116.98C189.746 116.535 189.914 116.106 190.13 115.7C190.258 115.509 190.413 115.337 190.59 115.19C192.3 113.35 191.92 111.41 189.72 110.19C188.804 109.644 187.78 109.303 186.72 109.19C186.323 109.083 185.952 108.896 185.63 108.64Z" fill="white"/>
<path d="M174.32 110.28C174.82 109.42 175.37 109.16 176.24 109.56C176.657 109.777 177.115 109.907 177.584 109.941C178.054 109.976 178.525 109.914 178.97 109.76L179.11 109.91C178.98 110.09 178.88 110.38 178.71 110.45C178.29 110.62 177.82 110.65 177.39 110.8C177.291 110.843 177.203 110.906 177.131 110.985C177.058 111.064 177.003 111.158 176.97 111.26C176.97 111.37 177.17 111.63 177.33 111.67C179.05 112.18 180.78 112.67 182.5 113.14C182.58 113.182 182.65 113.241 182.704 113.314C182.758 113.387 182.794 113.471 182.81 113.56C182.804 113.788 182.764 114.014 182.69 114.23C182.42 115.46 182.76 115.91 184.02 115.93C184.033 116.144 183.967 116.355 183.834 116.523C183.701 116.69 183.511 116.803 183.3 116.84C182.48 117.07 181.67 117.31 180.86 117.58C180.49 117.7 180.09 117.83 180.21 118.38C180.21 118.48 180.11 118.63 180.02 118.72C179.667 118.96 179.247 119.08 178.82 119.064C178.394 119.048 177.984 118.896 177.65 118.63C177.502 118.471 177.401 118.274 177.356 118.062C177.312 117.849 177.325 117.629 177.396 117.423C177.467 117.218 177.592 117.036 177.758 116.896C177.925 116.756 178.126 116.664 178.34 116.63C178.83 116.49 179.34 116.46 179.83 116.33C180.06 116.272 180.262 116.134 180.4 115.94C180.4 115.83 180.23 115.54 180.08 115.39C178.814 114.246 177.176 113.6 175.47 113.57C174.53 113.51 173.59 113.41 172.65 113.31C172.25 113.31 171.74 113.31 171.71 112.7C171.687 112.573 171.693 112.443 171.728 112.318C171.763 112.194 171.826 112.08 171.911 111.983C171.997 111.887 172.104 111.811 172.223 111.762C172.342 111.713 172.471 111.692 172.6 111.7C173.223 111.672 173.844 111.609 174.46 111.51C174.73 111.51 175.13 111.27 175.17 111.08C175.26 110.64 174.98 110.35 174.49 110.34C174.45 110.37 174.41 110.33 174.32 110.28Z" fill="white"/>
<path d="M253.9 177.79C254.33 179.27 254.72 180.67 254.1 182.2C253.59 183.48 253.28 184.84 252.86 186.15C252.708 186.536 252.52 186.908 252.3 187.26C251.65 188.48 251.65 188.48 250.3 188.26C250.049 188.176 249.817 188.042 249.617 187.867C249.418 187.692 249.256 187.48 249.139 187.242C249.023 187.003 248.955 186.744 248.94 186.48C248.925 186.215 248.962 185.95 249.05 185.7C249.384 185.264 249.666 184.791 249.89 184.29C250.015 183.744 250.015 183.176 249.89 182.63C249.868 182.24 249.969 181.852 250.179 181.522C250.389 181.192 250.697 180.936 251.06 180.79C251.255 180.757 251.436 180.666 251.58 180.53C252.24 179.87 252.89 179.2 253.52 178.53C253.683 178.304 253.811 178.054 253.9 177.79Z" fill="white"/>
<path d="M190.85 105.62C189.694 106.549 188.315 107.159 186.85 107.39C184.824 107.73 182.89 108.486 181.17 109.61C180.61 109.96 180.06 110.26 179.64 109.39C179.57 109.23 179.26 109.15 179.04 109.12C178.507 109.064 177.978 108.967 177.46 108.83C177.614 108.687 177.789 108.569 177.98 108.48C178.41 108.34 178.87 108.27 179.32 108.14C179.77 108.01 180.38 107.92 180.58 107.25C180.64 107.111 180.73 106.988 180.845 106.889C180.959 106.79 181.094 106.719 181.24 106.68C182.14 106.48 183.07 106.35 183.99 106.21C184.553 106.187 185.113 106.106 185.66 105.97C186.675 105.577 187.764 105.413 188.85 105.49C189.18 105.49 189.53 105.41 189.85 105.4C190.17 105.39 190.5 105.4 190.85 105.4V105.62Z" fill="white"/>
<path d="M216.36 125.05C215.97 124.46 215.41 124.17 215.01 124.44C213.86 125.22 213.77 125.44 214.31 126.27L212.03 127.13C211.87 126.33 212.79 125.62 212.03 124.9C212.183 124.632 212.407 124.411 212.676 124.262C212.946 124.112 213.252 124.039 213.56 124.05C213.86 124.05 214.16 124.05 214.46 124.05C214.94 124.05 215.31 123.88 215.24 123.27C215.214 123.083 215.253 122.892 215.35 122.73C215.53 122.46 215.74 122.09 216.01 122.03C216.28 121.97 216.57 122.26 216.95 122.44C216.27 123.15 216.55 123.54 217.17 123.85C217.315 123.921 217.436 124.032 217.52 124.17C217.682 124.648 217.9 125.104 218.17 125.53C218.584 125.864 219.046 126.133 219.54 126.33C219.134 126.689 218.707 127.023 218.26 127.33C217.828 127.597 217.36 127.799 216.87 127.93C216.475 127.98 216.075 127.98 215.68 127.93V127.7L216.51 127.17C216.22 126.82 215.77 126.51 215.74 126.17C215.71 125.83 216.13 125.46 216.36 125.05Z" fill="white"/>
<path d="M206.04 117.12C206.33 117 206.62 116.85 206.92 116.76C207.84 116.51 208.77 116.27 209.69 116.04C210.14 115.93 210.69 115.93 210.81 116.42C210.812 116.587 210.774 116.753 210.699 116.902C210.624 117.052 210.515 117.181 210.38 117.28C209.817 117.628 209.22 117.919 208.6 118.15C208.331 118.288 208.022 118.327 207.727 118.26C207.433 118.192 207.171 118.022 206.99 117.78C206.8 117.55 206.41 117.49 206.1 117.35L206.04 117.12Z" fill="white"/>
<path d="M179.63 130.04C180.354 128.991 181.384 128.191 182.58 127.75L181.99 128.27C182.25 128.4 182.51 128.44 182.64 128.59C182.77 128.74 183.32 129.3 183.25 129.53C183.193 129.764 183.048 129.967 182.845 130.098C182.642 130.228 182.397 130.275 182.16 130.23C181.35 130.1 180.53 130.1 179.63 130.04Z" fill="white"/>
<path d="M240.564 196.758L236.467 199.977L296.331 276.186L300.428 272.968L240.564 196.758Z" fill="#1A237E"/>
<path d="M239.55 214.56L239.45 215.32C231.131 220.318 221.812 223.419 212.157 224.4C202.502 225.381 192.749 224.22 183.595 220.997C174.441 217.775 166.111 212.572 159.199 205.759C152.288 198.947 146.965 190.692 143.611 181.585C140.258 172.479 138.955 162.744 139.798 153.076C140.64 143.407 143.606 134.044 148.484 125.655C153.362 117.265 160.031 110.055 168.017 104.54C176.002 99.0252 185.106 95.3408 194.68 93.75C190.009 97.5892 185.728 101.88 181.9 106.56C181.16 107.48 180.39 108.43 179.66 109.42C179.07 110.2 178.48 111 177.91 111.83C177.49 112.44 177.06 113.08 176.64 113.73C175.086 116.11 173.683 118.584 172.44 121.14C170.058 125.939 168.374 131.054 167.44 136.33C166.082 144.371 166.77 152.624 169.44 160.33C170.774 164.244 172.506 168.01 174.61 171.57C177.805 177.043 181.486 182.218 185.61 187.03C210.49 216.01 239.55 214.56 239.55 214.56Z" fill="url(#paint1_linear)"/>
<path d="M357.62 287.7L287.43 287.14C286.293 287.14 285.19 286.753 284.303 286.042C283.416 285.331 282.798 284.339 282.55 283.23L269.8 228.04C269.616 227.292 269.608 226.512 269.776 225.76C269.943 225.008 270.282 224.305 270.766 223.706C271.25 223.107 271.866 222.628 272.566 222.306C273.265 221.984 274.03 221.828 274.8 221.85L345 222.41C346.145 222.419 347.253 222.814 348.146 223.531C349.039 224.247 349.664 225.244 349.92 226.36L362.65 281.47C362.827 282.222 362.83 283.004 362.658 283.758C362.486 284.511 362.145 285.215 361.659 285.816C361.174 286.417 360.558 286.899 359.858 287.226C359.158 287.552 358.392 287.714 357.62 287.7Z" fill="#1A237E"/>
<path d="M353.45 281.78L290.13 281.27C289.123 281.274 288.143 280.943 287.345 280.329C286.547 279.716 285.975 278.854 285.72 277.88L274.13 230.02C273.984 229.362 273.992 228.679 274.151 228.025C274.31 227.37 274.617 226.76 275.049 226.243C275.481 225.725 276.025 225.313 276.641 225.039C277.256 224.765 277.927 224.635 278.6 224.66L341.96 225.17C342.967 225.163 343.947 225.493 344.744 226.107C345.541 226.722 346.11 227.585 346.36 228.56L357.88 276.41C358.022 277.065 358.014 277.744 357.857 278.395C357.699 279.046 357.395 279.653 356.968 280.17C356.542 280.687 356.004 281.101 355.394 281.38C354.785 281.658 354.12 281.795 353.45 281.78Z" fill="url(#paint2_linear)"/>
<path d="M288.383 285.009L379.96 285.744C380.78 285.751 381.563 286.083 382.138 286.667C382.712 287.251 383.032 288.039 383.025 288.859C383.019 289.678 382.687 290.462 382.103 291.036C381.518 291.611 380.73 291.931 379.91 291.924L288.333 291.189C287.522 291.182 286.746 290.854 286.177 290.275C285.608 289.697 285.292 288.916 285.298 288.104L285.299 288.024C285.305 287.213 285.634 286.437 286.212 285.868C286.791 285.299 287.572 284.982 288.383 284.989L288.383 285.009Z" fill="#1A237E"/>
<path d="M401.531 286.739L327.911 286.003C326.37 285.988 325.108 287.224 325.093 288.765L325.087 289.375C325.071 290.916 326.308 292.178 327.849 292.193L401.469 292.929C403.01 292.945 404.271 291.708 404.287 290.167L404.293 289.557C404.308 288.016 403.071 286.755 401.531 286.739Z" fill="#1A237E"/>
<path d="M401.531 286.739L327.911 286.003C326.37 285.988 325.108 287.224 325.093 288.765L325.087 289.375C325.071 290.916 326.308 292.178 327.849 292.193L401.469 292.929C403.01 292.945 404.271 291.708 404.287 290.167L404.293 289.557C404.308 288.016 403.071 286.755 401.531 286.739Z" fill="url(#paint3_linear)"/>
<path d="M316.13 240.28L320.72 260.7H320.79L325.15 254.77L321.5 255.59H321.45L317.95 240.02L316.13 240.28Z" fill="white"/>
<path d="M318.99 261.17L314.4 240.76H314.34L309.97 246.7L313.63 245.88C313.638 245.876 313.646 245.873 313.655 245.873C313.664 245.873 313.673 245.876 313.68 245.88L317.18 261.46L318.99 261.17Z" fill="white"/>
<path d="M371.83 108.21C370.11 114.8 362.3 113.59 362.3 113.59C362.3 113.59 316.97 114.44 316.12 113.59C315.43 112.89 315.88 110.22 316.05 109.27C316.05 109.06 316.12 108.94 316.12 108.94H329.07C329.07 108.94 335.18 105.76 325.16 91.36C316.75 79.24 348.51 78.7 358.88 78.83C360.88 78.83 362.06 78.9 362.06 78.9C362.06 78.9 373.53 101.61 371.83 108.21Z" fill="#1A237E"/>
<path d="M366.45 103.57C364.75 110.17 356.92 108.94 356.92 108.94C356.92 108.94 328.2 109.49 316.05 109.27C316.05 109.06 316.12 108.94 316.12 108.94H329.07C329.07 108.94 335.18 105.76 325.16 91.36C316.75 79.24 348.51 78.7 358.88 78.83C362.13 85.8 367.68 98.84 366.45 103.57Z" fill="#1A237E"/>
<path d="M368.3 104.54C366.6 111.14 356.92 108.94 356.92 108.94C356.92 108.94 328.2 109.49 316.05 109.27C316.05 109.06 316.12 108.94 316.12 108.94H329.07C329.07 108.94 335.18 105.76 325.16 91.36C316.75 79.24 348.51 78.7 358.88 78.83C362.13 85.8 369.54 99.81 368.3 104.54Z" fill="url(#paint4_linear)"/>
<path d="M387.71 13.6599H290.87C285.838 13.6599 281.76 17.7386 281.76 22.7699V81.7599C281.76 86.7912 285.838 90.8699 290.87 90.8699H387.71C392.741 90.8699 396.82 86.7912 396.82 81.7599V22.7699C396.82 17.7386 392.741 13.6599 387.71 13.6599Z" fill="#1A237E"/>
<path d="M387.71 13.6599H290.87C285.838 13.6599 281.76 17.7386 281.76 22.7699V81.7599C281.76 86.7912 285.838 90.8699 290.87 90.8699H387.71C392.741 90.8699 396.82 86.7912 396.82 81.7599V22.7699C396.82 17.7386 392.741 13.6599 387.71 13.6599Z" fill="url(#paint5_linear)"/>
<path d="M385.27 13.6599H288.43C283.398 13.6599 279.32 17.7386 279.32 22.7699V81.7599C279.32 86.7912 283.398 90.8699 288.43 90.8699H385.27C390.301 90.8699 394.38 86.7912 394.38 81.7599V22.7699C394.38 17.7386 390.301 13.6599 385.27 13.6599Z" fill="#1A237E"/>
<path d="M385.27 13.6599H288.43C283.398 13.6599 279.32 17.7386 279.32 22.7699V81.7599C279.32 86.7912 283.398 90.8699 288.43 90.8699H385.27C390.301 90.8699 394.38 86.7912 394.38 81.7599V22.7699C394.38 17.7386 390.301 13.6599 385.27 13.6599Z" fill="url(#paint6_linear)"/>
<path d="M394.3 74.0901L394.37 81.7601C394.37 84.1762 393.41 86.4934 391.702 88.2018C389.994 89.9103 387.676 90.8701 385.26 90.8701H288.42C286.004 90.8701 283.687 89.9103 281.979 88.2018C280.27 86.4934 279.31 84.1762 279.31 81.7601L279.24 74.0901H394.3Z" fill="#1A237E"/>
<path d="M361.28 109.29H316.12V113.58H361.28V109.29Z" fill="url(#paint7_linear)"/>
<path d="M368.3 104.54L368.73 112.24C367.644 112.958 366.424 113.448 365.143 113.68C363.863 113.912 362.548 113.881 361.28 113.59V109.29C361.28 109.29 367.69 111.14 368.3 104.54Z" fill="url(#paint8_linear)"/>
<path opacity="0.18" d="M329.66 32.23C326.082 32.2598 322.593 33.3501 319.635 35.363C316.676 37.3758 314.381 40.2208 313.04 43.5381C311.698 46.8555 311.371 50.4961 312.099 53.9995C312.827 57.5029 314.577 60.7117 317.129 63.2201C319.681 65.7285 322.919 67.4239 326.435 68.0916C329.95 68.7594 333.585 68.3696 336.878 66.9716C340.172 65.5736 342.978 63.2302 344.939 60.2377C346.901 57.2452 347.932 53.7381 347.9 50.16C347.855 45.3648 345.909 40.7834 342.489 37.4216C339.069 34.0599 334.455 32.1927 329.66 32.23ZM329.96 65.33C327.048 65.3576 324.194 64.5211 321.758 62.9262C319.322 61.3314 317.413 59.0499 316.274 56.3703C315.135 53.6908 314.816 50.7335 315.357 47.8726C315.899 45.0117 317.277 42.3757 319.317 40.298C321.357 38.2203 323.967 36.7943 326.818 36.2003C329.668 35.6063 332.631 35.871 335.331 36.9609C338.031 38.0509 340.347 39.9171 341.986 42.3235C343.625 44.7299 344.514 47.5684 344.54 50.48C344.569 54.3808 343.051 58.1341 340.318 60.9176C337.585 63.7011 333.861 65.2878 329.96 65.33Z" fill="white"/>
<path d="M331.22 42.1201L331.37 58.6601L335.76 54.7801L332.78 54.8001L332.66 42.2001L331.22 42.1201Z" fill="white"/>
<path d="M329.96 58.6799L329.81 42.1299L325.42 46.0199L328.4 45.9899L328.51 58.5899L329.96 58.6799Z" fill="white"/>
</g>
<defs>
<linearGradient id="paint0_linear" x1="56.6054" y1="151.734" x2="62.1694" y2="205.69" gradientUnits="userSpaceOnUse">
<stop stop-opacity="0"/>
<stop offset="0.99"/>
</linearGradient>
<linearGradient id="paint1_linear" x1="22348.8" y1="19929.3" x2="8574.44" y2="30825.9" gradientUnits="userSpaceOnUse">
<stop stop-opacity="0"/>
<stop offset="0.99"/>
</linearGradient>
<linearGradient id="paint2_linear" x1="25244.5" y1="9425.73" x2="26783.9" y2="25305" gradientUnits="userSpaceOnUse">
<stop stop-opacity="0"/>
<stop offset="0.99"/>
</linearGradient>
<linearGradient id="paint3_linear" x1="28919.4" y1="2148.64" x2="28914.8" y2="2652.27" gradientUnits="userSpaceOnUse">
<stop stop-opacity="0"/>
<stop offset="0.99"/>
</linearGradient>
<linearGradient id="paint4_linear" x1="18844.3" y1="3705.96" x2="18592.5" y2="2442.16" gradientUnits="userSpaceOnUse">
<stop stop-opacity="0"/>
<stop offset="0.99"/>
</linearGradient>
<linearGradient id="paint5_linear" x1="52085.2" y1="3733.64" x2="30728.5" y2="4904.53" gradientUnits="userSpaceOnUse">
<stop stop-opacity="0"/>
<stop offset="0.99"/>
</linearGradient>
<linearGradient id="paint6_linear" x1="330.64" y1="0.479911" x2="349.21" y2="155.38" gradientUnits="userSpaceOnUse">
<stop offset="0.02" stop-color="white" stop-opacity="0"/>
<stop offset="0.32" stop-color="white" stop-opacity="0.39"/>
<stop offset="0.68" stop-color="white" stop-opacity="0.68"/>
<stop offset="1" stop-color="white"/>
</linearGradient>
<linearGradient id="paint7_linear" x1="15526.5" y1="584.322" x2="15670" y2="1149.79" gradientUnits="userSpaceOnUse">
<stop stop-opacity="0"/>
<stop offset="0.99"/>
</linearGradient>
<linearGradient id="paint8_linear" x1="3185.43" y1="1185.67" x2="3000.7" y2="1094.23" gradientUnits="userSpaceOnUse">
<stop stop-opacity="0"/>
<stop offset="0.99"/>
</linearGradient>
<clipPath id="clip0">
<rect width="404.86" height="313.38" fill="white"/>
</clipPath>
</defs>
</svg>
