<svg width="687" height="593" viewBox="0 0 687 593" fill="none" xmlns="http://www.w3.org/2000/svg">
<g clip-path="url(#clip0)">
<path opacity="0.18" d="M192.67 23.07C218 29.54 241.56 43.78 267.83 43.69C293.26 43.61 315.99 30.16 339.36 20.89C373.58 7.30999 411.1 2.33999 448.28 0.539989C478.93 -0.950011 511 -0.0900106 538.28 13C565.56 26.09 585.1 50.72 596.17 77.38C607.24 104.04 610.48 132.9 611.73 161.43C612.73 185.57 612.48 209.99 618.28 233.55C626.28 266.08 645.45 295.13 660.81 325.32C673.1 349.46 683.18 375.05 685.65 401.67C688.12 428.29 682.41 456.23 665.57 477.93C640.37 510.42 595 523.88 552 527.35C527.89 529.29 503 528.85 480.44 536.91C465.23 542.33 451.87 551.36 437.33 558.17C408.33 571.76 375.33 576.26 342.88 577.83C260.359 581.813 177.944 568.057 101.19 537.49C89.77 532.91 78.33 527.84 69.12 520.09C58.85 511.47 51.92 500 46.51 488.17C36.7767 466.781 31.5215 443.628 31.0675 420.133C30.6135 396.638 34.9703 373.299 43.87 351.55C57.21 319.23 80.87 288.12 77.01 253.71C71.22 202.45 20.01 157.1 41.54 102.85C64.32 45.56 126.1 6.07999 192.67 23.07Z" fill="#1A237E"/>
<path opacity="0.52" d="M165.57 569.49C161.01 570.78 155.83 572.63 154.24 577.09C152.79 581.18 155.24 585.85 158.89 588.23C162.54 590.61 167 591.23 171.33 591.57C184.33 592.63 197.33 592.05 210.33 591.48L290.74 587.91C306.47 587.22 323.15 586.21 336.06 577.19C338.06 575.8 340.06 573.74 339.63 571.37C339.28 569.59 337.63 568.37 336.04 567.53C322.04 559.73 304.91 561.2 288.88 560.03C267.73 558.48 246.82 551.82 225.5 552.7C205.25 553.49 185.1 563.94 165.57 569.49Z" fill="url(#paint0_linear)"/>
<path d="M0 115.93L4.1 114.12H192.1V248.22C192.1 248.22 192.1 269.67 176.54 278.36C170.18 281.93 0 115.93 0 115.93Z" fill="#1A237E"/>
<path d="M189.27 115.93V255.22C189.267 262.498 186.374 269.478 181.227 274.624C176.079 279.769 169.098 282.66 161.82 282.66H0V115.93H189.27Z" fill="#1A237E"/>
<path d="M189.27 115.93V255.22C189.267 262.498 186.374 269.478 181.227 274.624C176.079 279.769 169.098 282.66 161.82 282.66H0V115.93H189.27Z" fill="url(#paint1_linear)"/>
<path d="M189.27 255.22C189.267 262.498 186.374 269.478 181.227 274.624C176.079 279.769 169.098 282.66 161.82 282.66H157.49C167.08 279.57 165.84 262.56 165.84 262.56C183.78 265.65 189.27 255.22 189.27 255.22Z" fill="#1A237E"/>
<path d="M439.71 156.13H250.45V322.86H439.71V156.13Z" fill="#1A237E"/>
<path d="M439.71 156.13H250.45V322.86H439.71V156.13Z" fill="url(#paint2_linear)"/>
<path d="M654.11 88.72H464.85V255.45H654.11V88.72Z" fill="#1A237E"/>
<path d="M654.11 88.72H464.85V255.45H654.11V88.72Z" fill="url(#paint3_linear)"/>
<path opacity="0.34" d="M120.47 91.24L93.66 152.72C93.66 152.09 93.66 151.46 93.6 150.84C92.1 151.4 91.08 149.71 90.6 148.17C89.78 145.73 88.75 142.75 86.39 142.92C85.16 143.01 83.97 144 82.88 144.92C81.9324 145.961 80.7395 146.748 79.41 147.21C79.1638 147.266 78.9088 147.273 78.6599 147.231C78.4109 147.188 78.1728 147.097 77.9591 146.962C77.7455 146.828 77.5605 146.652 77.4148 146.446C77.2691 146.239 77.1655 146.006 77.11 145.76C77.0599 145.516 77.0599 145.264 77.11 145.02L74.6 146.67C72.19 148.24 73.34 144.6 72.79 143.39C71.3148 143.926 69.9714 144.772 68.85 145.87L97.1 81L120.47 91.24Z" fill="#1A237E"/>
<path opacity="0.34" d="M313.55 169.27C314.12 169.02 314.68 168.74 315.24 168.44C314.11 167.3 315.24 165.69 316.43 164.58C318.32 162.84 320.61 160.68 319.49 158.58C318.9 157.49 317.49 156.8 316.18 156.21C314.845 155.776 313.642 155.012 312.68 153.99C312.49 153.742 312.364 153.452 312.313 153.144C312.261 152.837 312.286 152.521 312.385 152.225C312.483 151.929 312.653 151.662 312.879 151.446C313.105 151.231 313.38 151.074 313.68 150.99C312.83 150.46 311.99 149.92 311.15 149.38C308.72 147.83 312.52 147.38 313.39 146.38C312.302 145.248 310.981 144.365 309.52 143.79L375.08 143.04C374.489 143.856 374.142 144.824 374.08 145.83C374.08 146.92 375.77 147.68 376.27 148.51C376.33 148.62 376.38 148.73 376.43 148.84L376.7 150.11C376.649 150.973 376.358 151.804 375.86 152.51C375.081 153.502 374.46 154.608 374.02 155.79C373.792 157.238 374.078 158.721 374.83 159.98C375.83 161.98 377.37 163.84 379.51 164.43H379.71L380.55 168.43L313.55 169.27Z" fill="#1A237E"/>
<path opacity="0.34" d="M525.51 85.2099C526.14 85.2099 526.77 85.2799 527.4 85.2799C526.95 83.7499 528.7 82.8599 530.28 82.4599C532.77 81.8299 535.82 81.0199 535.83 78.6599C535.83 77.4199 534.93 76.1599 534.04 74.9999C533.084 73.9775 532.397 72.7336 532.04 71.3799C531.959 70.88 532.08 70.3684 532.377 69.9578C532.673 69.5471 533.12 69.2709 533.62 69.1899C533.871 69.1398 534.129 69.1398 534.38 69.1899L532.92 66.5599C531.53 64.0399 535.08 65.4599 536.33 64.9999C535.909 63.4874 535.169 62.0826 534.16 60.8799L592.1 91.4899C591.198 91.9395 590.439 92.6322 589.91 93.4899C589.39 94.4899 590.53 95.9199 590.56 96.8899C590.58 97.0124 590.58 97.1374 590.56 97.2599L590.22 98.4899C589.75 99.2172 589.098 99.8099 588.33 100.21C587.167 100.697 586.093 101.373 585.15 102.21C584.257 103.374 583.801 104.814 583.86 106.28C583.79 108.5 584.25 110.89 585.86 112.43C585.906 112.481 585.96 112.525 586.02 112.56L584.83 116.49L525.51 85.2099Z" fill="#1A237E"/>
<path opacity="0.34" d="M120.47 91.24L93.66 152.72C93.66 152.09 93.66 151.46 93.6 150.84C92.1 151.4 91.08 149.71 90.6 148.17C89.78 145.73 88.75 142.75 86.39 142.92C85.16 143.01 83.97 144 82.88 144.92C81.9324 145.961 80.7395 146.748 79.41 147.21C79.1638 147.266 78.9088 147.273 78.6599 147.231C78.4109 147.188 78.1728 147.097 77.9591 146.962C77.7455 146.828 77.5605 146.652 77.4148 146.446C77.2691 146.239 77.1655 146.006 77.11 145.76C77.0599 145.516 77.0599 145.264 77.11 145.02L74.6 146.67C72.19 148.24 73.34 144.6 72.79 143.39C71.3148 143.926 69.9714 144.772 68.85 145.87L97.1 81L120.47 91.24Z" fill="white"/>
<path opacity="0.34" d="M313.55 169.27C314.12 169.02 314.68 168.74 315.24 168.44C314.11 167.3 315.24 165.69 316.43 164.58C318.32 162.84 320.61 160.68 319.49 158.58C318.9 157.49 317.49 156.8 316.18 156.21C314.845 155.776 313.642 155.012 312.68 153.99C312.49 153.742 312.364 153.452 312.313 153.144C312.261 152.837 312.286 152.521 312.385 152.225C312.483 151.929 312.653 151.662 312.879 151.446C313.105 151.231 313.38 151.074 313.68 150.99C312.83 150.46 311.99 149.92 311.15 149.38C308.72 147.83 312.52 147.38 313.39 146.38C312.302 145.248 310.981 144.365 309.52 143.79L375.08 143.04C374.489 143.856 374.142 144.824 374.08 145.83C374.08 146.92 375.77 147.68 376.27 148.51C376.33 148.62 376.38 148.73 376.43 148.84L376.7 150.11C376.649 150.973 376.358 151.804 375.86 152.51C375.081 153.502 374.46 154.608 374.02 155.79C373.792 157.238 374.078 158.721 374.83 159.98C375.83 161.98 377.37 163.84 379.51 164.43H379.71L380.55 168.43L313.55 169.27Z" fill="white"/>
<path opacity="0.34" d="M525.51 85.2099C526.14 85.2099 526.77 85.2799 527.4 85.2799C526.95 83.7499 528.7 82.8599 530.28 82.4599C532.77 81.8299 535.82 81.0199 535.83 78.6599C535.83 77.4199 534.93 76.1599 534.04 74.9999C533.084 73.9775 532.397 72.7336 532.04 71.3799C531.959 70.88 532.08 70.3684 532.377 69.9578C532.673 69.5471 533.12 69.2709 533.62 69.1899C533.871 69.1398 534.129 69.1398 534.38 69.1899L532.92 66.5599C531.53 64.0399 535.08 65.4599 536.33 64.9999C535.909 63.4874 535.169 62.0826 534.16 60.8799L592.1 91.4899C591.198 91.9395 590.439 92.6322 589.91 93.4899C589.39 94.4899 590.53 95.9199 590.56 96.8899C590.58 97.0124 590.58 97.1374 590.56 97.2599L590.22 98.4899C589.75 99.2172 589.098 99.8099 588.33 100.21C587.167 100.697 586.093 101.373 585.15 102.21C584.257 103.374 583.801 104.814 583.86 106.28C583.79 108.5 584.25 110.89 585.86 112.43C585.906 112.481 585.96 112.525 586.02 112.56L584.83 116.49L525.51 85.2099Z" fill="white"/>
<path d="M623.96 154.43H495V157.84H623.96V154.43Z" fill="url(#paint4_linear)"/>
<path d="M623.96 180.02H495V183.43H623.96V180.02Z" fill="url(#paint5_linear)"/>
<path d="M623.96 205.62H495V209.03H623.96V205.62Z" fill="url(#paint6_linear)"/>
<path d="M141.98 171.99H47.28V175.4H141.98V171.99Z" fill="url(#paint7_linear)"/>
<path d="M141.98 197.59H47.28V201H141.98V197.59Z" fill="url(#paint8_linear)"/>
<path d="M141.98 223.19H47.28V226.6H141.98V223.19Z" fill="url(#paint9_linear)"/>
<path d="M390.91 199.3H296.21V202.71H390.91V199.3Z" fill="url(#paint10_linear)"/>
<path d="M390.91 224.9H296.21V228.31H390.91V224.9Z" fill="url(#paint11_linear)"/>
<path d="M390.91 250.49H296.21V253.9H390.91V250.49Z" fill="url(#paint12_linear)"/>
<path d="M189.27 296C189.27 296 223.33 236.65 235.27 217.87L242.93 208.59L250.44 221.36L250.61 231.64L219.19 290.85C219.19 290.85 196.73 311.39 189.27 296Z" fill="#1A237E"/>
<path d="M250.95 210.16L213.5 286.25L240.29 252.2L250.64 231.68L250.95 210.16Z" fill="url(#paint13_linear)"/>
<path d="M294.93 205.61C296.359 207.573 297.043 209.979 296.86 212.4C301.42 208.66 301.49 200.8 306.68 197.99C306.68 201.003 306.149 203.992 305.11 206.82C306.76 203.42 308.79 199.67 312.42 198.59C311.939 202.462 310.522 206.159 308.29 209.36L313.02 204.58C313.44 204.15 314.02 203.68 314.59 203.97C315.16 204.26 315.01 205.25 314.7 205.91L309.48 217.07C311.131 215.741 312.926 214.601 314.83 213.67L309.1 223.11C308.449 224.309 307.65 225.421 306.72 226.42C304.59 228.56 301.2 229.81 300.47 232.74C300.63 232.11 292.23 229.43 291.64 228.52C290.64 226.95 292.48 223.65 292.69 221.77C293.29 216.49 291.85 210.39 294.93 205.61Z" fill="url(#paint14_linear)"/>
<path d="M244.87 397.35L256.41 481.41C256.89 484.949 256.52 488.552 255.33 491.92L242.52 551.1L222.66 549L231.75 488.53C231.949 487.285 231.871 486.011 231.52 484.8L215.86 430.8L212.86 491.96L187.19 543.96L169.19 536.76L192.05 490L188.38 432.24C185.13 412.14 191.07 397.3 191.07 397.3L244.87 397.35Z" fill="#3F3D56"/>
<path d="M244.87 388.4H191.03V397.35H244.87V388.4Z" fill="#1A237E"/>
<path d="M244.87 388.4H191.03V397.35H244.87V388.4Z" fill="url(#paint15_linear)"/>
<path d="M304 234.6L253.35 318.26L250.71 381.05C250.71 387.05 250.47 392.05 246.01 393.42C245.142 393.666 244.242 393.784 243.34 393.77H198.53C195.139 393.77 191.885 392.426 189.483 390.033C187.08 387.639 185.723 384.392 185.71 381V323.28C185.71 323.28 182.41 290.57 197.93 290.57H229C232.709 290.575 236.37 289.738 239.708 288.121C243.046 286.505 245.974 284.152 248.27 281.24L289.73 226.61L304 234.6Z" fill="#1A237E"/>
<path d="M226.52 251.37H210.98V290.88H226.52V251.37Z" fill="url(#paint16_linear)"/>
<path d="M211 247.05V290.89H219.2V288.22C219.2 286.65 219.824 285.144 220.934 284.034C222.044 282.924 223.55 282.3 225.12 282.3H225.59C229.494 282.3 233.238 280.749 235.999 277.989C238.759 275.228 240.31 271.484 240.31 267.58V247.05H211Z" fill="url(#paint17_linear)"/>
<path d="M246.38 208.71C246.69 208.06 246.92 207.38 247.26 206.71C247.964 205.518 248.84 204.436 249.86 203.5L253.1 200.2C253.321 199.918 253.631 199.721 253.98 199.64C254.65 199.56 255.12 200.38 254.98 201.04C254.782 201.67 254.44 202.246 253.98 202.72C252.328 204.873 251.291 207.434 250.98 210.13C250.687 212.809 250.563 215.505 250.61 218.2C250.67 219.084 250.49 219.969 250.09 220.76C249.073 218.528 247.945 216.349 246.71 214.23C246.28 213.51 244.97 212.1 244.93 211.29C244.89 210.48 246.1 209.42 246.38 208.71Z" fill="url(#paint18_linear)"/>
<path d="M241.71 240.15C241.432 238.63 240.837 237.185 239.964 235.91C239.09 234.635 237.958 233.558 236.64 232.75V235C230.83 232.19 223.88 234.4 217.51 233.35C218.248 234.119 218.844 235.013 219.27 235.99C215.105 235.99 210.997 236.959 207.27 238.82L208.27 240.28C208.391 240.43 208.47 240.61 208.5 240.8C208.5 241.19 208.13 241.45 207.82 241.69C206.02 243.06 205.82 245.69 205.92 247.95C206.25 254.79 208.02 261.46 209.78 268.08C210.45 270.59 211.11 273.08 211.78 275.61L213.18 273.68L214.51 274.61C216.33 271.79 224.27 271.2 224.99 267.92C222.99 267.46 220.6 264.75 220.82 262.7C221.04 260.65 221.7 260.19 223.65 260.85C225.01 261.3 222.78 258.52 222.54 257.39C222.3 256.26 221.79 255.11 222.35 254.14C223.12 252.79 225.13 253.14 226.57 253.7C227.197 251.909 228.388 250.37 229.963 249.314C231.539 248.257 233.415 247.74 235.31 247.84C237.31 247.99 239.24 249.2 240.56 247.3C241.88 245.4 242.1 242.35 241.71 240.15Z" fill="#3F3D56"/>
<path d="M304 234.6L253.35 318.26L250.71 381.05C250.71 387.05 250.82 392.87 244.53 393.77H236.1C236.1 393.77 243.22 321.97 241.91 315.01C240.6 308.05 300.51 232.73 300.51 232.73L304 234.6Z" fill="url(#paint19_linear)"/>
<path d="M226 549.32L222.53 564.32H267.53C267.53 564.32 268 556.9 258.72 554.32C253.12 552.791 247.235 552.629 241.56 553.85L240.37 550.85L226 549.32Z" fill="#3F3D56"/>
<path d="M172.87 538.21L164.95 550.21L174.23 555.62L177.16 554.08L183.81 560.88L207.16 561.65C207.16 561.65 205.62 549.97 194.79 549.94C183.96 549.91 184.92 543.04 184.92 543.04L172.87 538.21Z" fill="#3F3D56"/>
</g>
<defs>
<linearGradient id="paint0_linear" x1="281.13" y1="515.93" x2="110.5" y2="810.73" gradientUnits="userSpaceOnUse">
<stop stop-opacity="0"/>
<stop offset="0.98"/>
</linearGradient>
<linearGradient id="paint1_linear" x1="30485" y1="-40870.4" x2="35554.7" y2="32198.2" gradientUnits="userSpaceOnUse">
<stop stop-opacity="0"/>
<stop offset="0.98"/>
</linearGradient>
<linearGradient id="paint2_linear" x1="66340" y1="-31838.3" x2="49896.9" y2="22703.9" gradientUnits="userSpaceOnUse">
<stop stop-opacity="0"/>
<stop offset="0.98"/>
</linearGradient>
<linearGradient id="paint3_linear" x1="102945" y1="-48612.3" x2="127068" y2="20809.4" gradientUnits="userSpaceOnUse">
<stop stop-opacity="0"/>
<stop offset="0.98"/>
</linearGradient>
<linearGradient id="paint4_linear" x1="71995.6" y1="-919.133" x2="71997.9" y2="554.148" gradientUnits="userSpaceOnUse">
<stop stop-opacity="0"/>
<stop offset="0.98"/>
</linearGradient>
<linearGradient id="paint5_linear" x1="71797" y1="-944.411" x2="71799.3" y2="528.863" gradientUnits="userSpaceOnUse">
<stop stop-opacity="0"/>
<stop offset="0.98"/>
</linearGradient>
<linearGradient id="paint6_linear" x1="71598.4" y1="-969.676" x2="71600.8" y2="503.572" gradientUnits="userSpaceOnUse">
<stop stop-opacity="0"/>
<stop offset="0.98"/>
</linearGradient>
<linearGradient id="paint7_linear" x1="8591.11" y1="-841.175" x2="8594.32" y2="632.097" gradientUnits="userSpaceOnUse">
<stop stop-opacity="0"/>
<stop offset="0.98"/>
</linearGradient>
<linearGradient id="paint8_linear" x1="8445.28" y1="-866.438" x2="8448.48" y2="606.84" gradientUnits="userSpaceOnUse">
<stop stop-opacity="0"/>
<stop offset="0.98"/>
</linearGradient>
<linearGradient id="paint9_linear" x1="8299.44" y1="-891.731" x2="8302.64" y2="581.547" gradientUnits="userSpaceOnUse">
<stop stop-opacity="0"/>
<stop offset="0.98"/>
</linearGradient>
<linearGradient id="paint10_linear" x1="32173.2" y1="-919.196" x2="32176.4" y2="554.078" gradientUnits="userSpaceOnUse">
<stop stop-opacity="0"/>
<stop offset="0.98"/>
</linearGradient>
<linearGradient id="paint11_linear" x1="32027.3" y1="-944.455" x2="32030.5" y2="528.819" gradientUnits="userSpaceOnUse">
<stop stop-opacity="0"/>
<stop offset="0.98"/>
</linearGradient>
<linearGradient id="paint12_linear" x1="31881.5" y1="-969.733" x2="31884.7" y2="503.535" gradientUnits="userSpaceOnUse">
<stop stop-opacity="0"/>
<stop offset="0.98"/>
</linearGradient>
<linearGradient id="paint13_linear" x1="8547.25" y1="-26892.9" x2="11235.4" y2="-25162.1" gradientUnits="userSpaceOnUse">
<stop stop-opacity="0"/>
<stop offset="0.98"/>
</linearGradient>
<linearGradient id="paint14_linear" x1="291.34" y1="215.36" x2="314.98" y2="215.36" gradientUnits="userSpaceOnUse">
<stop stop-color="#ECC4D7"/>
<stop offset="0.42" stop-color="#EFD4D1"/>
<stop offset="1" stop-color="#F2EAC9"/>
</linearGradient>
<linearGradient id="paint15_linear" x1="15571.5" y1="-437.533" x2="15571.1" y2="286.981" gradientUnits="userSpaceOnUse">
<stop stop-opacity="0"/>
<stop offset="0.98"/>
</linearGradient>
<linearGradient id="paint16_linear" x1="-76316.5" y1="-5690.42" x2="-76713.1" y2="-5693.3" gradientUnits="userSpaceOnUse">
<stop stop-color="#ECC4D7"/>
<stop offset="0.42" stop-color="#EFD4D1"/>
<stop offset="1" stop-color="#F2EAC9"/>
</linearGradient>
<linearGradient id="paint17_linear" x1="-148647" y1="-6509.22" x2="-148471" y2="-6447.26" gradientUnits="userSpaceOnUse">
<stop stop-color="#ECC4D7"/>
<stop offset="0.42" stop-color="#EFD4D1"/>
<stop offset="1" stop-color="#F2EAC9"/>
</linearGradient>
<linearGradient id="paint18_linear" x1="3406.59" y1="4620.97" x2="3508.66" y2="4620.97" gradientUnits="userSpaceOnUse">
<stop stop-color="#ECC4D7"/>
<stop offset="0.42" stop-color="#EFD4D1"/>
<stop offset="1" stop-color="#F2EAC9"/>
</linearGradient>
<linearGradient id="paint19_linear" x1="20440.1" y1="-22912.8" x2="33612.9" y2="-17667.3" gradientUnits="userSpaceOnUse">
<stop stop-opacity="0"/>
<stop offset="0.98"/>
</linearGradient>
<clipPath id="clip0">
<rect width="686.2" height="592.16" fill="white"/>
</clipPath>
</defs>
</svg>
