<svg width="610" height="594" viewBox="0 0 610 594" fill="none" xmlns="http://www.w3.org/2000/svg">
<g clip-path="url(#clip0)">
<path opacity="0.18" d="M138 74.1801C105.72 87.1001 71.22 96.0001 42.79 116C14.36 136 -7.13997 171.41 2.23003 204.88C9.50003 230.8 33.74 251.07 34.84 278C35.72 299.47 21.52 318.22 13.98 338.34C-1.24997 378.99 11.92 426.34 38.87 460.34C65.82 494.34 104.67 516.96 144.47 534.28C238.79 575.197 342.163 590.764 444.35 579.44C474.81 576.02 505.54 570.02 532.54 555.52C559.54 541.02 582.63 516.99 590.18 487.29C600.45 446.94 581.24 403.39 591.74 363.1C595.85 347.3 604.37 332.87 608 316.95C616.73 278.58 595.46 239.39 568.4 210.83C541.34 182.27 507.94 159.91 483.2 129.31C466.06 108.12 453.5 83.4701 435.88 62.6801C401.26 21.7701 345.35 -2.36992 291.71 0.190082C238.42 2.72008 188.25 54.0501 138 74.1801Z" fill="#1A237E"/>
<path d="M119.8 540.63L121.33 547.57C111.39 554.78 98.66 556.5 86.7 559.27C74.74 562.04 62.06 566.85 55.89 577.46C64.78 588.98 81.34 590.37 95.89 590.75C213.223 593.81 330.613 594.23 448.06 592.01C485.32 591.3 522.79 590.31 559.36 583.14C561.98 582.63 564.91 581.87 566.22 579.54C568.46 575.54 564.22 571.07 560.35 568.73C547.514 561.041 532.802 557.051 517.84 557.2C512.22 557.27 504.84 556.67 503.55 551.2C503.11 549.2 503.71 547.2 503.64 545.2C503.48 540.2 499.19 536.2 494.48 534.7C489.77 533.2 484.67 533.7 479.74 534.15C386.83 543.09 292.49 536.15 199.27 531.39C184.49 530.63 170.59 538.73 155.91 536.85C142.13 535.11 132.16 532.41 119.8 540.63Z" fill="url(#paint0_linear)"/>
<path d="M456.87 37.54H153.14C133.799 37.54 118.12 53.219 118.12 72.56V504.26C118.12 523.601 133.799 539.28 153.14 539.28H456.87C476.211 539.28 491.89 523.601 491.89 504.26V72.56C491.89 53.219 476.211 37.54 456.87 37.54Z" fill="#1A237E"/>
<path d="M456.87 37.54H153.14C133.799 37.54 118.12 53.219 118.12 72.56V504.26C118.12 523.601 133.799 539.28 153.14 539.28H456.87C476.211 539.28 491.89 523.601 491.89 504.26V72.56C491.89 53.219 476.211 37.54 456.87 37.54Z" fill="url(#paint1_linear)"/>
<path d="M308.55 379.05L113.77 377.82C106.385 377.78 99.2873 380.675 94.0365 385.867C88.7858 391.06 85.8123 398.125 85.77 405.51L85.59 434.21C85.5663 437.87 86.2637 441.499 87.6424 444.889C89.0212 448.28 91.0542 451.365 93.6255 453.97C96.1968 456.575 99.2559 458.647 102.628 460.07C106.001 461.492 109.62 462.236 113.28 462.26L298 463.41C310.186 463.505 321.865 468.302 330.6 476.8L335.77 481.8L336.06 435.8L336.13 424.8L336.24 407.08C336.28 399.695 333.385 392.597 328.193 387.347C323 382.096 315.935 379.122 308.55 379.08V379.05Z" fill="url(#paint2_linear)"/>
<path d="M467 95.2399V492.1C466.995 500.341 463.719 508.243 457.891 514.071C452.064 519.898 444.161 523.175 435.92 523.18H176.19C172.11 523.18 168.07 522.376 164.3 520.815C160.53 519.253 157.105 516.965 154.22 514.08C151.335 511.195 149.046 507.769 147.485 504C145.924 500.23 145.12 496.19 145.12 492.11V95.2399C145.119 91.1597 145.921 87.1193 147.481 83.3492C149.041 79.5791 151.329 76.1532 154.213 73.2672C157.097 70.3811 160.522 68.0914 164.291 66.5288C168.06 64.9662 172.1 64.1612 176.18 64.1599H435.89C439.974 64.1573 444.018 64.9592 447.791 66.5198C451.565 68.0804 454.994 70.3692 457.883 73.2554C460.772 76.1415 463.064 79.5686 464.629 83.3407C466.193 87.1129 466.999 91.1563 467 95.2399Z" fill="#1A237E"/>
<path opacity="0.69" d="M467 95.2399V492.1C466.995 500.341 463.719 508.243 457.891 514.071C452.064 519.898 444.161 523.175 435.92 523.18H176.19C172.11 523.18 168.07 522.376 164.3 520.815C160.53 519.253 157.105 516.965 154.22 514.08C151.335 511.195 149.046 507.769 147.485 504C145.924 500.23 145.12 496.19 145.12 492.11V95.2399C145.119 91.1597 145.921 87.1193 147.481 83.3492C149.041 79.5791 151.329 76.1532 154.213 73.2672C157.097 70.3811 160.522 68.0914 164.291 66.5288C168.06 64.9662 172.1 64.1612 176.18 64.1599H435.89C439.974 64.1573 444.018 64.9592 447.791 66.5198C451.565 68.0804 454.994 70.3692 457.883 73.2554C460.772 76.1415 463.064 79.5686 464.629 83.3407C466.193 87.1129 466.999 91.1563 467 95.2399Z" fill="url(#paint3_linear)"/>
<path opacity="0.6" d="M306.57 111.3C307.48 107.3 308.39 103.3 308.03 99.22C304.908 102.425 300.644 104.263 296.17 104.33C295.639 104.269 295.102 104.37 294.63 104.62C294.325 104.907 294.094 105.263 293.957 105.658C293.819 106.053 293.779 106.476 293.84 106.89C293.84 111.8 293.76 116.98 291.25 121.19C288.74 125.4 284.42 127.79 279.91 129.19C269.91 132.37 259.12 130.98 248.77 129.38C246.4 129.01 243.92 128.59 242.04 127.11C239.49 125.11 238.62 121.55 238.96 118.33C239.3 115.11 240.68 112.1 241.96 109.1C243.96 104.35 245.59 99.28 245.06 94.17C244.53 89.06 241.28 83.93 236.3 82.67C235.254 82.3514 234.145 82.3064 233.077 82.5393C232.009 82.7721 231.018 83.275 230.2 84C229.417 84.8743 228.812 85.8934 228.42 87C224.178 97.4385 221.431 108.424 220.26 119.63C214.48 119.09 208.97 122.03 203.26 122.83C199.59 123.35 148.86 123.61 145.17 123.36C145.17 123.36 144.65 129.19 146.02 131.07C147.39 132.95 154.83 132.98 157.02 133.81C172.61 139.81 189.76 139.42 206.38 140.94C234.76 143.53 268.87 152.61 293.93 134.29C301.72 128.59 304.49 120.44 306.57 111.3Z" fill="url(#paint4_linear)"/>
<path opacity="0.6" d="M345.73 245.59C346.22 236.06 343.38 226.65 339.54 217.91C335.7 209.17 330.87 200.91 327.05 192.16C326.05 189.95 325.37 186.93 327.31 185.5C327.91 187 330.24 186.57 331.4 185.44C332.56 184.31 333.4 182.69 335.01 182.32C337.309 186.035 339.28 189.943 340.9 194L352.26 220C353.47 222.78 354.74 225.65 357.03 227.63C360.58 230.69 365.8 230.98 370.35 230.87C373.368 230.788 376.376 230.487 379.35 229.97C382.68 229.39 386.45 228.43 388.41 225.59C391.41 221.19 388.55 214.94 390.41 209.93C391.287 207.85 392.702 206.041 394.51 204.69C396.82 202.82 400 201.36 402.7 202.61C404.04 203.361 405.166 204.442 405.97 205.75C412.97 215.51 416.88 227.47 425.35 235.96C430.219 235.909 434.89 234.023 438.43 230.68C441.85 227.43 444.43 223.41 447.1 219.54C451.7 212.9 456.73 206.54 461.76 200.26L467.18 193.45C467.33 193.224 467.547 193.049 467.8 192.95C468.42 192.79 468.8 193.58 468.98 194.21C470.98 203.4 464.92 212.32 458.42 219.1C453.42 224.33 447.69 229.38 444.17 235.57C443.879 236.08 443.692 236.642 443.62 237.225C443.547 237.807 443.59 238.398 443.746 238.964C443.902 239.53 444.168 240.059 444.529 240.522C444.89 240.984 445.339 241.371 445.85 241.66C446.409 241.978 447.03 242.172 447.67 242.23C459.53 243.23 471.67 240.9 483.61 242.35C487.22 242.79 491.45 244.14 492.04 247.95C492.152 248.914 492.028 249.891 491.68 250.796C491.332 251.702 490.769 252.51 490.04 253.15C487.5 255.57 484.04 256.05 480.68 256.46C442.85 261.11 404.68 262.46 366.6 263.71C365.1 263.847 363.587 263.721 362.13 263.34C358.97 262.34 357.13 259.1 355.34 256.34C352.671 252.313 349.434 248.692 345.73 245.59Z" fill="url(#paint5_linear)"/>
<path d="M539.85 273.41V298.77C539.868 301.987 539.253 305.177 538.039 308.156C536.825 311.136 535.035 313.847 532.773 316.135C530.511 318.423 527.821 320.243 524.855 321.492C521.89 322.74 518.707 323.392 515.49 323.41H353.87C343.174 323.374 332.891 327.535 325.23 335L320.69 339.39V273.39C320.677 268.184 322.315 263.108 325.37 258.892C328.425 254.676 332.739 251.538 337.69 249.93C340.085 249.16 342.585 248.769 345.1 248.77H515.5C518.717 248.788 521.899 249.44 524.864 250.689C527.829 251.937 530.518 253.757 532.78 256.045C535.041 258.334 536.829 261.045 538.042 264.024C539.256 267.004 539.87 270.193 539.85 273.41Z" fill="url(#paint6_linear)"/>
<path d="M275.81 153.55L280.01 217.83H275.81L271.35 213.54C263.77 206.27 252.23 203.67 241.74 203.67H82.86C76.4948 203.67 70.3903 201.142 65.8894 196.641C61.3885 192.14 58.86 186.035 58.86 179.67L60.35 153.55C60.35 147.185 62.8786 141.08 67.3794 136.58C71.8803 132.079 77.9848 129.55 84.35 129.55H251.85C255.754 129.541 259.601 130.489 263.055 132.311C266.508 134.133 269.463 136.773 271.66 140C274.391 143.989 275.838 148.716 275.81 153.55Z" fill="url(#paint7_linear)"/>
<path d="M280 153.55V217.83L275.53 213.54C267.966 206.269 257.882 202.209 247.39 202.21H88.46C82.0948 202.21 75.9903 199.682 71.4895 195.181C66.9886 190.68 64.46 184.575 64.46 178.21V153.55C64.46 147.185 66.9886 141.08 71.4895 136.58C75.9903 132.079 82.0948 129.55 88.46 129.55H256C259.904 129.543 263.751 130.492 267.204 132.313C270.657 134.135 273.612 136.774 275.81 140C278.554 143.985 280.016 148.712 280 153.55Z" fill="white"/>
<path d="M539.85 271.35V296C539.85 302.365 537.321 308.47 532.821 312.971C528.32 317.472 522.215 320 515.85 320H357C346.506 320.002 336.419 324.061 328.85 331.33L324.35 335.59V271.35C324.35 265.002 326.865 258.913 331.344 254.415C335.823 249.917 341.902 247.377 348.25 247.35H515.88C522.24 247.358 528.337 249.89 532.831 254.39C537.326 258.89 539.85 264.99 539.85 271.35Z" fill="white"/>
<path d="M364.11 242.47C363.11 240.47 361.51 238.95 360.53 237.01C358.43 232.87 359.66 227.73 362.14 223.81C363.14 222.18 364.44 220.61 364.81 218.72C365.24 216.5 364.38 214.08 365.31 212.02C366.07 210.36 367.79 209.4 369.31 208.34C371.62 206.69 373.62 204.53 376.23 203.43C378.84 202.33 382.46 202.73 383.74 205.27C386.15 204.08 389.2 205.16 391 207.14C392.8 209.12 393.6 211.82 394.15 214.44C394.621 217.446 395.309 220.414 396.21 223.32C397.27 226.17 399.13 228.88 401.88 230.17C407.22 232.67 414.66 229.43 418.88 233.59C421.04 235.74 421.81 239.54 424.74 240.36C426.25 240.78 427.89 240.23 429.39 240.63C431.98 241.33 433.05 244.46 433.11 247.14C433.154 249.767 432.655 252.376 431.645 254.802C430.635 257.228 429.135 259.42 427.24 261.24C425.38 263.01 423 264.66 422.62 267.24C422.58 268.547 422.68 269.854 422.92 271.14C423.063 272.869 422.703 274.602 421.884 276.13C421.065 277.659 419.821 278.919 418.303 279.758C416.785 280.597 415.057 280.979 413.327 280.859C411.596 280.738 409.938 280.121 408.55 279.08C406.43 277.5 404.64 274.85 402 274.97C400.846 275.132 399.748 275.571 398.8 276.25C396.723 277.669 394.425 278.734 392 279.4C390.782 279.721 389.503 279.741 388.275 279.459C387.047 279.177 385.906 278.601 384.95 277.78C383.45 276.31 382.89 274.17 382.16 272.19C380.98 268.99 378.83 265.7 375.48 265.06C374.04 264.79 372.55 265.06 371.11 264.82C361.35 263.25 367.08 248.46 364.11 242.47Z" fill="#3F3D56"/>
<path d="M442.27 208.86C444.699 204.989 446.533 200.776 447.71 196.36C448.223 194.508 449.07 192.766 450.21 191.22C450.322 191.065 450.483 190.951 450.666 190.896C450.85 190.842 451.046 190.849 451.225 190.918C451.404 190.986 451.555 191.111 451.656 191.275C451.756 191.438 451.8 191.629 451.78 191.82L451.38 195.82C453.38 193.5 455.75 189.25 459.1 185.72C459.192 185.629 459.316 185.578 459.445 185.578C459.574 185.578 459.698 185.629 459.79 185.72C459.853 185.787 459.897 185.869 459.917 185.959C459.936 186.049 459.93 186.143 459.9 186.23L457.2 193C457.189 193.034 457.185 193.07 457.189 193.106C457.192 193.141 457.202 193.176 457.219 193.208C457.236 193.239 457.258 193.267 457.286 193.29C457.314 193.313 457.346 193.33 457.38 193.34C457.429 193.355 457.482 193.355 457.532 193.341C457.581 193.327 457.626 193.299 457.66 193.26L461.66 187.87C463.83 186.31 463.58 188.6 463.38 189.14L460.77 194.14C460.74 194.209 460.734 194.286 460.754 194.358C460.774 194.43 460.817 194.494 460.878 194.538C460.938 194.582 461.012 194.605 461.087 194.601C461.162 194.598 461.234 194.569 461.29 194.52C462.429 193.401 463.642 192.358 464.92 191.4C465.077 191.294 465.265 191.245 465.453 191.26C465.642 191.274 465.82 191.352 465.959 191.481C466.098 191.609 466.189 191.78 466.218 191.967C466.248 192.154 466.213 192.345 466.12 192.51L462.12 198.1C461.64 198.77 461.23 199.16 462.05 199.1L464.93 198.04C465.79 197.7 465.38 199.67 464.63 200.2C460.44 203.2 458.74 205.54 455.84 208.03C452.94 210.52 434.33 241.21 425.84 252.09C422.75 256.04 416.84 258.67 414.45 252.31C412.66 247.49 418.15 242.98 420.79 239.49C428.363 229.603 435.523 219.393 442.27 208.86Z" fill="url(#paint8_linear)"/>
<path d="M312.58 379.05L117.8 377.82C110.415 377.78 103.317 380.675 98.0665 385.867C92.8158 391.06 89.8423 398.125 89.8 405.51L89.62 434.21C89.5963 437.87 90.2937 441.499 91.6724 444.889C93.0511 448.28 95.0842 451.365 97.6555 453.97C100.227 456.575 103.286 458.647 106.658 460.07C110.031 461.492 113.65 462.236 117.31 462.26L302 463.41C314.204 463.492 325.903 468.29 334.65 476.8L339.82 481.8L340.11 435.8L340.18 424.8L340.29 407.08C340.33 399.695 337.435 392.597 332.243 387.347C327.05 382.096 319.985 379.122 312.6 379.08L312.58 379.05Z" fill="white"/>
<path d="M278.29 50.77H341.71C342.506 50.77 343.269 51.0861 343.831 51.6487C344.394 52.2113 344.71 52.9744 344.71 53.77C344.71 54.5657 344.394 55.3287 343.831 55.8913C343.269 56.4539 342.506 56.77 341.71 56.77H278.29C277.494 56.77 276.731 56.4539 276.169 55.8913C275.606 55.3287 275.29 54.5657 275.29 53.77C275.29 52.9744 275.606 52.2113 276.169 51.6487C276.731 51.0861 277.494 50.77 278.29 50.77Z" fill="url(#paint9_linear)"/>
<path d="M277.83 155.13C272.55 157.41 271.62 157.05 265.97 158.04C260.32 159.03 255.9 158.31 250.52 156.3C246.83 167.56 242.91 179.86 241.91 191.66C241.581 195.211 241.009 198.736 240.2 202.21H206.2C206.1 201.45 206.01 200.67 205.93 199.86C205.033 188.996 205.157 178.071 206.3 167.23C206.392 166.567 206.449 165.899 206.47 165.23C206.495 164.684 206.455 164.137 206.35 163.6C206.058 162.446 205.579 161.348 204.93 160.35C203.58 157.98 200.32 154.35 198.51 151.72C198.27 151.36 198.05 151.02 197.87 150.72C198.96 145.72 203.77 143.27 206.01 138.72C207.671 135.24 210.03 132.139 212.94 129.61C213.878 128.82 214.882 128.11 215.94 127.49C219.78 125.26 224.21 124.37 228.63 123.7C229.32 123.59 230 123.49 230.69 123.4C233.523 125.469 236.897 126.671 240.4 126.86C241.504 126.836 242.606 126.954 243.68 127.21C244.589 127.557 245.44 128.042 246.2 128.65L247.54 129.65C250 131.4 252.46 133.17 254.92 134.93C256.626 136.227 258.443 137.372 260.35 138.35C266.52 141.27 269.07 141 275.85 140.14C276.64 144.41 277.44 150.72 277.83 155.13Z" fill="#1A237E"/>
<path d="M228.58 123.41C226.81 125.04 231.96 130.67 233.83 132.19C235.7 133.71 238.54 133.7 240.91 133C242.49 132.54 244.17 131.65 244.6 130.05C244.743 128.911 244.637 127.754 244.29 126.66C243.86 124.31 244.29 121.84 243.65 119.52C242.934 117.179 241.478 115.133 239.5 113.69C237.65 112.24 232.66 108.39 231.63 112.24C230.51 116.34 232.72 119.57 228.58 123.41Z" fill="url(#paint10_linear)"/>
<path d="M228.18 202.21H207.18C206.792 201.405 206.361 200.62 205.89 199.86C205.79 199.704 205.673 199.56 205.54 199.43C204.619 198.46 203.979 197.257 203.69 195.95C200.991 186.635 201.43 176.691 204.94 167.65C205.261 166.742 205.768 165.91 206.43 165.21C207.51 164.06 208.73 163.5 209.88 161.38C212.15 157.21 216.48 150.1 218.62 145.87C219.47 154.08 216.28 161.69 216.62 169.93C216.79 174.73 216.97 179.61 218.62 184.13C219.988 187.861 222.152 191.249 224.96 194.06C226 195.25 227.63 199.18 228.18 202.21Z" fill="url(#paint11_linear)"/>
<path d="M275.81 140.07C275.81 140.07 277.58 152.98 277.51 152.24C277.44 151.5 302.76 144.6 309.99 120.63C310.543 119.833 311.218 119.127 311.99 118.54C320.99 111.82 322.39 108.99 319.7 110.64C318.307 111.596 316.62 112.025 314.94 111.85C315.932 111.016 316.852 110.099 317.69 109.11C318.75 107.82 321.07 106.49 321.64 104.93C321.723 104.756 321.757 104.562 321.74 104.37C321.687 104.191 321.573 104.035 321.418 103.931C321.263 103.827 321.076 103.781 320.89 103.8C320.53 103.852 320.187 103.989 319.89 104.2C318.534 105.048 317.234 105.983 316 107C315.23 107.63 313.11 108.48 313.84 107C314.98 104.65 317.51 103.09 318.18 100.57C318.236 100.43 318.26 100.279 318.25 100.128C318.239 99.9774 318.195 99.831 318.12 99.7C317.86 99.38 317.34 99.48 316.96 99.7C315.59 100.32 311.46 105.99 310.45 105.86C309.44 105.73 311.54 99.8 311.62 98.66C311.62 98.35 311.62 97.98 311.35 97.83C311.203 97.7761 311.044 97.7693 310.893 97.8106C310.743 97.8518 310.609 97.939 310.51 98.06C307.87 100.24 307.51 104.06 305.81 107.06C305.584 107.567 305.172 107.967 304.66 108.18C303.57 108.5 302.66 107.26 301.55 107.01C301.353 106.94 301.137 106.94 300.94 107.01C300.33 107.28 300.42 108.23 300.79 108.79C305.79 116.41 293.06 134.74 275.81 140.07Z" fill="url(#paint12_linear)"/>
<path d="M201.35 153.13C201.35 153.13 196.1 195.39 200.12 202.21H208.85C207.061 188.631 207.399 174.855 209.85 161.38C209.85 161.38 209.08 154.73 201.35 153.13Z" fill="url(#paint13_linear)"/>
<path opacity="0.32" d="M174.27 150.68H82.57C79.4662 150.68 76.95 153.196 76.95 156.3V156.31C76.95 159.414 79.4662 161.93 82.57 161.93H174.27C177.374 161.93 179.89 159.414 179.89 156.31V156.3C179.89 153.196 177.374 150.68 174.27 150.68Z" fill="#1A237E"/>
<path opacity="0.32" d="M174.27 173.71H82.57C79.4662 173.71 76.95 176.226 76.95 179.33V179.34C76.95 182.444 79.4662 184.96 82.57 184.96H174.27C177.374 184.96 179.89 182.444 179.89 179.34V179.33C179.89 176.226 177.374 173.71 174.27 173.71Z" fill="#1A237E"/>
<path opacity="0.32" d="M519 275.59H427.3C425.809 275.59 424.378 274.998 423.323 273.945C422.267 272.891 421.673 271.462 421.67 269.97C421.67 269.232 421.815 268.501 422.098 267.819C422.38 267.138 422.794 266.518 423.316 265.996C423.838 265.474 424.457 265.06 425.139 264.778C425.821 264.495 426.552 264.35 427.29 264.35H519C519.738 264.35 520.469 264.495 521.151 264.778C521.833 265.06 522.452 265.474 522.974 265.996C523.496 266.518 523.91 267.138 524.192 267.819C524.475 268.501 524.62 269.232 524.62 269.97C524.62 271.461 524.028 272.89 522.974 273.944C521.92 274.998 520.491 275.59 519 275.59Z" fill="#1A237E"/>
<path opacity="0.32" d="M519 298.62H427.3C425.809 298.62 424.378 298.028 423.323 296.974C422.267 295.921 421.673 294.491 421.67 293C421.673 292.263 421.82 291.534 422.105 290.855C422.389 290.175 422.805 289.558 423.327 289.039C423.85 288.52 424.47 288.109 425.152 287.829C425.833 287.55 426.563 287.407 427.3 287.41H519C520.491 287.41 521.92 288.002 522.974 289.056C524.028 290.11 524.62 291.539 524.62 293.03C524.609 294.514 524.013 295.935 522.961 296.982C521.908 298.029 520.485 298.617 519 298.62Z" fill="#1A237E"/>
<path opacity="0.32" d="M260.77 407.5H169.08C167.589 407.5 166.158 406.908 165.103 405.855C164.047 404.801 163.453 403.371 163.45 401.88C163.45 400.387 164.043 398.955 165.099 397.899C166.155 396.843 167.587 396.25 169.08 396.25H260.77C262.261 396.25 263.69 396.842 264.744 397.896C265.798 398.95 266.39 400.379 266.39 401.87C266.391 402.608 266.247 403.339 265.966 404.021C265.685 404.704 265.272 405.324 264.751 405.847C264.23 406.37 263.611 406.785 262.93 407.068C262.249 407.352 261.518 407.499 260.78 407.5H260.77Z" fill="#1A237E"/>
<path opacity="0.32" d="M260.78 421.95H169.08C165.976 421.95 163.46 424.466 163.46 427.57V427.58C163.46 430.684 165.976 433.2 169.08 433.2H260.78C263.884 433.2 266.4 430.684 266.4 427.58V427.57C266.4 424.466 263.884 421.95 260.78 421.95Z" fill="#1A237E"/>
<path d="M421.35 256.26C420.681 258.149 419.55 259.84 418.06 261.18C415.27 263.73 411.73 265.33 408.98 267.92C402.88 273.66 401.87 282.83 401.23 291.18L399 320H357C353.989 320.002 350.987 320.338 348.05 321C348.59 313.267 349.057 305.533 349.45 297.8C350.19 283.27 350.22 267.29 340.96 256.06C339.999 255.147 339.337 253.966 339.06 252.67C338.94 251.18 339.95 249.86 340.9 248.67C340.96 248.61 341 248.55 341.06 248.48L347.24 240.93C347.553 240.425 347.964 239.988 348.448 239.645C348.932 239.301 349.48 239.058 350.06 238.93C351.078 238.994 352.033 239.445 352.73 240.19C355.11 242.357 357.28 244.744 359.21 247.32C360.48 248.92 361.72 250.54 363.04 252.1C369.27 259.46 378.78 264.64 387.76 258.74C393.928 254.561 400.354 250.777 407 247.41C410.096 245.908 413.271 244.573 416.51 243.41C416.32 244.96 417.15 246.22 418.18 247.41C419.287 248.537 420.26 249.789 421.08 251.14C421.459 251.934 421.679 252.794 421.725 253.673C421.771 254.552 421.644 255.431 421.35 256.26Z" fill="#1A237E"/>
<path d="M348.11 248.15C350.041 244.712 350.679 240.697 349.91 236.83C349.14 233.003 347.911 229.282 346.25 225.75L335.71 200.75C334.762 198.711 334.028 196.58 333.52 194.39C332.79 190.65 333.38 186.79 333.97 183.03C333.302 182.839 332.587 182.91 331.97 183.23C332.065 184.242 331.854 185.258 331.366 186.15C330.877 187.041 330.134 187.765 329.23 188.23C328.302 184.472 326.599 180.95 324.23 177.89C324.49 180.683 324.683 183.483 324.81 186.29C322.61 184.03 320.403 181.777 318.19 179.53C316.48 182.53 322.63 185.72 321.19 188.88L313.93 183.65C313.4 187.21 319.16 188.89 319.47 192.49L314.26 190.06C315.36 192.75 317.91 194.5 319.93 196.6C327.35 204.41 327.35 216.5 331.99 226.21C334.65 231.8 337.5 236.37 338.7 242.48C339.6 247.07 343.55 255.48 348.11 248.15Z" fill="url(#paint14_linear)"/>
<path d="M190.72 304.17C195.066 304.17 198.59 300.646 198.59 296.3C198.59 291.953 195.066 288.43 190.72 288.43C186.373 288.43 182.85 291.953 182.85 296.3C182.85 300.646 186.373 304.17 190.72 304.17Z" fill="#1A237E"/>
<path d="M214.91 304.17C219.256 304.17 222.78 300.646 222.78 296.3C222.78 291.953 219.256 288.43 214.91 288.43C210.564 288.43 207.04 291.953 207.04 296.3C207.04 300.646 210.564 304.17 214.91 304.17Z" fill="#1A237E"/>
<path d="M239.1 304.17C243.446 304.17 246.97 300.646 246.97 296.3C246.97 291.953 243.446 288.43 239.1 288.43C234.754 288.43 231.23 291.953 231.23 296.3C231.23 300.646 234.754 304.17 239.1 304.17Z" fill="#1A237E"/>
<path d="M384.24 437.69C388.586 437.69 392.11 434.166 392.11 429.82C392.11 425.473 388.586 421.95 384.24 421.95C379.894 421.95 376.37 425.473 376.37 429.82C376.37 434.166 379.894 437.69 384.24 437.69Z" fill="#1A237E"/>
<path d="M408.42 437.69C412.766 437.69 416.29 434.166 416.29 429.82C416.29 425.473 412.766 421.95 408.42 421.95C404.074 421.95 400.55 425.473 400.55 429.82C400.55 434.166 404.074 437.69 408.42 437.69Z" fill="#1A237E"/>
<path d="M432.6 437.69C436.946 437.69 440.47 434.166 440.47 429.82C440.47 425.473 436.946 421.95 432.6 421.95C428.253 421.95 424.73 425.473 424.73 429.82C424.73 434.166 428.253 437.69 432.6 437.69Z" fill="#1A237E"/>
<path d="M352.18 169.79C356.526 169.79 360.05 166.267 360.05 161.92C360.05 157.574 356.526 154.05 352.18 154.05C347.834 154.05 344.31 157.574 344.31 161.92C344.31 166.267 347.834 169.79 352.18 169.79Z" fill="#1A237E"/>
<path d="M376.37 169.79C380.716 169.79 384.24 166.267 384.24 161.92C384.24 157.574 380.716 154.05 376.37 154.05C372.024 154.05 368.5 157.574 368.5 161.92C368.5 166.267 372.024 169.79 376.37 169.79Z" fill="#1A237E"/>
<path d="M400.55 169.79C404.896 169.79 408.42 166.267 408.42 161.92C408.42 157.574 404.896 154.05 400.55 154.05C396.204 154.05 392.68 157.574 392.68 161.92C392.68 166.267 396.204 169.79 400.55 169.79Z" fill="#1A237E"/>
<path d="M258.84 111.79C257.76 115.55 255.98 119.25 252.97 121.79C250.907 123.512 248.377 124.582 245.704 124.863C243.031 125.145 240.335 124.625 237.958 123.369C235.582 122.114 233.632 120.18 232.357 117.814C231.083 115.447 230.541 112.755 230.8 110.08C230.8 109.77 230.8 109.39 230.58 109.21C230.347 109.13 230.093 109.13 229.86 109.21C228.39 109.36 227.3 107.84 226.86 106.44C226.46 105.381 226.36 104.232 226.57 103.12C226.683 102.569 226.939 102.058 227.313 101.638C227.688 101.219 228.166 100.905 228.7 100.73C229.242 100.579 229.822 100.643 230.318 100.91C230.814 101.176 231.187 101.624 231.36 102.16C231.567 100.079 232.252 98.0735 233.36 96.2999C234.482 93.9889 235.998 91.8909 237.84 90.0999C239.814 88.4358 242.206 87.3436 244.757 86.9417C247.308 86.5398 249.92 86.8435 252.31 87.8199C254.433 88.6973 256.345 90.0184 257.916 91.6948C259.487 93.3712 260.682 95.3641 261.42 97.5399C262 99.5399 261.15 101.27 260.76 103.22C260.11 106 259.66 109 258.84 111.79Z" fill="url(#paint15_linear)"/>
<path d="M232.06 104.05C232 104.13 231.923 104.197 231.835 104.245C231.747 104.294 231.65 104.323 231.55 104.33C231.16 104.33 231.06 103.79 231.03 103.41C231.039 102.471 230.68 101.567 230.03 100.89C229.869 100.729 229.678 100.601 229.468 100.514C229.258 100.426 229.033 100.381 228.805 100.381C228.577 100.381 228.352 100.426 228.142 100.514C227.932 100.601 227.741 100.729 227.58 100.89C226.922 96.4933 227.858 92.0062 230.22 88.2399C230.511 87.8792 230.7 87.4478 230.77 86.9899C230.77 86.3999 230.43 85.8199 230.54 85.2399C230.668 84.8194 230.923 84.449 231.27 84.1799C232.32 83.0936 233.592 82.2475 235 81.6999C235.694 81.4289 236.444 81.331 237.184 81.4146C237.925 81.4982 238.634 81.7609 239.25 82.1799C242.437 80.3004 246.061 79.2901 249.76 79.2499C251.909 79.2029 254.047 79.5661 256.06 80.3199C259.688 81.8266 262.623 84.6331 264.29 88.1899C265.919 91.7433 266.512 95.6845 266 99.5599C262.753 101.028 259.06 101.163 255.714 99.9367C252.368 98.7099 249.638 96.2191 248.11 92.9999C247.819 94.5679 247.99 96.1866 248.6 97.6599C247.381 97.057 246.32 96.1782 245.501 95.0932C244.681 94.0082 244.126 92.747 243.88 91.4099C243.13 90.7099 241.99 91.5999 241.37 92.4099C239.77 94.5199 238.29 96.9999 236.37 98.8099C235.505 99.4542 234.711 100.188 234 101C233.23 101.94 232.91 103.15 232.06 104.05Z" fill="#3F3D56"/>
<path d="M386.4 259.15C386.05 261.94 383.45 264.34 380.62 265.02C379.903 265.209 379.158 265.27 378.42 265.2C374.42 264.79 372.6 259.85 372.68 255.82C372.76 251.79 373.68 247.68 371.84 244.25C371.84 244.14 371.73 244.03 371.67 243.92C370.67 242.15 368.92 240.83 368.03 238.98C367.211 236.89 367.03 234.603 367.51 232.41C368.7 224.05 375.25 201.96 387.87 210.23C391.14 212.37 393.09 216.07 394.21 219.81C398.17 233 389.71 232.77 386.4 259.15Z" fill="url(#paint16_linear)"/>
<path d="M382.87 212.93C384.56 213.93 385.4 215.93 385.78 217.93C386.87 223.48 385.1 229.14 384.11 234.71C383.12 240.28 383.11 246.71 387.02 250.81L387.11 250.91C388.597 252.422 390.623 253.283 392.744 253.301C394.865 253.32 396.907 252.496 398.42 251.01C399.179 250.272 399.781 249.387 400.19 248.41C400.38 247.98 400.6 247.56 400.83 247.15C402.35 244.46 404.47 242.15 405.98 239.45C407.209 237.179 408.06 234.724 408.5 232.18C409.056 229.588 409.073 226.909 408.55 224.31C407.55 219.95 404.55 216.31 401.41 213.2C398.27 210.09 395.08 207.47 391.11 206.09C387.14 204.71 382.4 204.93 379.11 207.52C378.11 208.32 375.36 211.52 376.79 212.92C378 214 381.1 211.85 382.87 212.93Z" fill="#3F3D56"/>
<path d="M202.38 153.13L197.81 150.68L201.12 155.19L201.34 153.13H202.38Z" fill="url(#paint17_linear)"/>
<path d="M250.52 156.3C250.663 155.152 251.235 154.101 252.122 153.359C253.009 152.616 254.145 152.238 255.3 152.3C259.78 152.17 277.16 149.88 277.16 149.88L277.83 155.16C277.83 155.16 262.46 161.66 250.52 156.3Z" fill="url(#paint18_linear)"/>
<path opacity="0.18" d="M275.81 140.07V142.41C275.81 142.41 260.62 146.5 244.59 130L243.59 127.17C244.499 127.517 245.349 128.002 246.11 128.61L247.45 129.61L254.83 134.89C256.536 136.187 258.353 137.332 260.26 138.31C266.43 141.23 268.98 140.96 275.76 140.1L275.81 140.07Z" fill="white"/>
<path opacity="0.18" d="M229.41 127.18C229.41 127.18 213.62 126.41 206.12 144.41C204.51 148.25 200.55 152.17 200.55 152.17L198.47 151.73C198.23 151.37 198.01 151.03 197.83 150.73C198.92 145.73 203.73 143.28 205.97 138.73C207.631 135.25 209.99 132.149 212.9 129.62C213.838 128.83 214.842 128.12 215.9 127.5C219.74 125.27 224.17 124.38 228.59 123.71L229.41 127.18Z" fill="white"/>
<path d="M421.35 256.26C420.681 258.149 419.55 259.84 418.06 261.18C415.27 263.73 411.73 265.33 408.98 267.92C402.88 273.66 401.87 282.83 401.23 291.18L399 320H367.27C367.27 320 384.56 284.88 389.27 275.58C393.98 266.28 408.38 260.16 408.38 260.16C419.6 251.46 421.35 256.26 421.35 256.26Z" fill="url(#paint19_linear)"/>
<path d="M381.12 264.53C380.979 264.718 380.811 264.883 380.62 265.02C379.903 265.209 379.158 265.27 378.42 265.2C374.42 264.79 372.6 259.85 372.68 255.82C372.76 251.79 374.25 247.9 370.91 242.82C372.66 244.09 374.98 244.88 380.06 245.21C383.73 245.41 381.53 264 381.12 264.53Z" fill="url(#paint20_linear)"/>
</g>
<defs>
<linearGradient id="paint0_linear" x1="316.53" y1="649.55" x2="298.51" y2="397.28" gradientUnits="userSpaceOnUse">
<stop stop-opacity="0"/>
<stop offset="0.49" stop-opacity="0.2"/>
<stop offset="0.52" stop-opacity="0.23"/>
<stop offset="0.99"/>
</linearGradient>
<linearGradient id="paint1_linear" x1="285.53" y1="967.73" x2="306.46" y2="237.53" gradientUnits="userSpaceOnUse">
<stop offset="0.01"/>
<stop offset="1" stop-opacity="0"/>
</linearGradient>
<linearGradient id="paint2_linear" x1="76877.1" y1="55762.1" x2="77454.1" y2="73717.7" gradientUnits="userSpaceOnUse">
<stop offset="0.01"/>
<stop offset="1" stop-opacity="0"/>
</linearGradient>
<linearGradient id="paint3_linear" x1="308.56" y1="809.96" x2="304.26" y2="-79.2001" gradientUnits="userSpaceOnUse">
<stop offset="0.02" stop-color="white" stop-opacity="0"/>
<stop offset="0.58" stop-color="white" stop-opacity="0.39"/>
<stop offset="0.68" stop-color="white" stop-opacity="0.68"/>
<stop offset="1" stop-color="white"/>
</linearGradient>
<linearGradient id="paint4_linear" x1="226.35" y1="76.72" x2="228.89" y2="509.19" gradientUnits="userSpaceOnUse">
<stop stop-opacity="0"/>
<stop offset="0.99"/>
</linearGradient>
<linearGradient id="paint5_linear" x1="68643.4" y1="34559.6" x2="67391.9" y2="-11982.1" gradientUnits="userSpaceOnUse">
<stop stop-opacity="0"/>
<stop offset="0.99"/>
</linearGradient>
<linearGradient id="paint6_linear" x1="117773" y1="34490.7" x2="117341" y2="50173.8" gradientUnits="userSpaceOnUse">
<stop offset="0.01"/>
<stop offset="1" stop-opacity="0"/>
</linearGradient>
<linearGradient id="paint7_linear" x1="58357.3" y1="23419.7" x2="58671.7" y2="37667.5" gradientUnits="userSpaceOnUse">
<stop offset="0.01"/>
<stop offset="1" stop-opacity="0"/>
</linearGradient>
<linearGradient id="paint8_linear" x1="414.1" y1="220.87" x2="466.23" y2="220.87" gradientUnits="userSpaceOnUse">
<stop stop-color="#ECC4D7"/>
<stop offset="0.42" stop-color="#EFD4D1"/>
<stop offset="1" stop-color="#F2EAC9"/>
</linearGradient>
<linearGradient id="paint9_linear" x1="21794.8" y1="3425.23" x2="21794.8" y2="2857.57" gradientUnits="userSpaceOnUse">
<stop stop-opacity="0"/>
<stop offset="0.99"/>
</linearGradient>
<linearGradient id="paint10_linear" x1="5681.03" y1="6853.35" x2="5934.09" y2="6970.41" gradientUnits="userSpaceOnUse">
<stop stop-color="#ECC4D7"/>
<stop offset="0.42" stop-color="#EFD4D1"/>
<stop offset="1" stop-color="#F2EAC9"/>
</linearGradient>
<linearGradient id="paint11_linear" x1="6103.61" y1="23936.6" x2="3992.55" y2="23737.9" gradientUnits="userSpaceOnUse">
<stop stop-opacity="0"/>
<stop offset="0.99"/>
</linearGradient>
<linearGradient id="paint12_linear" x1="17568.3" y1="16475.9" x2="19678" y2="16475.9" gradientUnits="userSpaceOnUse">
<stop stop-color="#ECC4D7"/>
<stop offset="0.42" stop-color="#EFD4D1"/>
<stop offset="1" stop-color="#F2EAC9"/>
</linearGradient>
<linearGradient id="paint13_linear" x1="3563.79" y1="17491.1" x2="3690.53" y2="17491.1" gradientUnits="userSpaceOnUse">
<stop stop-color="#ECC4D7"/>
<stop offset="0.42" stop-color="#EFD4D1"/>
<stop offset="1" stop-color="#F2EAC9"/>
</linearGradient>
<linearGradient id="paint14_linear" x1="15375.4" y1="28708" x2="16695.3" y2="28708" gradientUnits="userSpaceOnUse">
<stop stop-color="#ECC4D7"/>
<stop offset="0.42" stop-color="#EFD4D1"/>
<stop offset="1" stop-color="#F2EAC9"/>
</linearGradient>
<linearGradient id="paint15_linear" x1="242.67" y1="93.4499" x2="247.45" y2="121.96" gradientUnits="userSpaceOnUse">
<stop offset="0.2" stop-color="#ECC4D7"/>
<stop offset="0.37" stop-color="#F0DCCE"/>
<stop offset="1" stop-color="#F2EAC9"/>
</linearGradient>
<linearGradient id="paint16_linear" x1="13466.9" y1="23641.6" x2="14250.5" y2="23641.6" gradientUnits="userSpaceOnUse">
<stop stop-color="#ECC4D7"/>
<stop offset="0.42" stop-color="#EFD4D1"/>
<stop offset="1" stop-color="#F2EAC9"/>
</linearGradient>
<linearGradient id="paint17_linear" x1="201.96" y1="152" x2="198.78" y2="153.2" gradientUnits="userSpaceOnUse">
<stop stop-color="#68E1FD"/>
<stop offset="0.2" stop-color="#5DB4CF"/>
<stop offset="0.46" stop-color="#50819B"/>
<stop offset="0.69" stop-color="#475C76"/>
<stop offset="0.87" stop-color="#41455E"/>
<stop offset="0.99" stop-color="#3F3D56"/>
</linearGradient>
<linearGradient id="paint18_linear" x1="10159" y1="2744.1" x2="10126.2" y2="3173.11" gradientUnits="userSpaceOnUse">
<stop stop-opacity="0"/>
<stop offset="0.99"/>
</linearGradient>
<linearGradient id="paint19_linear" x1="26521.4" y1="29898.1" x2="34929.4" y2="33718.2" gradientUnits="userSpaceOnUse">
<stop stop-opacity="0"/>
<stop offset="0.99"/>
</linearGradient>
<linearGradient id="paint20_linear" x1="5852.3" y1="9793.03" x2="4669.64" y2="9966.39" gradientUnits="userSpaceOnUse">
<stop stop-color="#ECC4D7"/>
<stop offset="0.42" stop-color="#EFD4D1"/>
<stop offset="1" stop-color="#F2EAC9"/>
</linearGradient>
<clipPath id="clip0">
<rect width="609.98" height="593.41" fill="white"/>
</clipPath>
</defs>
</svg>
