<svg width="298" height="358" viewBox="0 0 298 358" fill="none" xmlns="http://www.w3.org/2000/svg">
<g clip-path="url(#clip0)">
<path opacity="0.18" d="M44.53 138.26C37.92 143.98 30.44 148.65 23.96 154.52C15.0883 162.56 8.32737 172.657 4.27152 183.922C0.215664 195.188 -1.01096 207.277 0.699441 219.127C2.40985 230.978 7.00492 242.226 14.0808 251.885C21.1567 261.544 30.4967 269.316 41.28 274.52C55.19 281.24 70.84 283.38 85.38 288.62C104.75 295.62 122.26 308.11 142.58 311.47C166.82 315.47 191.71 305.54 210.88 290.17C230.05 274.8 244.43 254.41 258.36 234.17C270.23 216.94 282.06 199.42 289.68 179.93C297.3 160.44 300.47 138.55 294.56 118.48C288.95 99.48 275.56 83.42 259.94 71.21C244.32 59 226.32 50.21 208.49 41.45C195.27 34.97 181.6 28.37 166.85 27.75C141.21 26.69 107.26 46.51 89.1 63.94C79.87 72.8 77.65 87.57 72.38 98.94C65.6 113.62 56.86 127.57 44.53 138.26Z" fill="#1A237E"/>
<path d="M74.8199 239.08L43.0699 320.9L165.44 262.13L194.06 183.11L74.8199 239.08Z" fill="#1A237E"/>
<path d="M74.82 239.12C74.2 237.26 53.7 185.7 53.7 185.7L172.96 135.39L187.87 186.32L74.82 239.12Z" fill="#1A237E"/>
<path d="M74.82 239.12C74.2 237.26 53.7 185.7 53.7 185.7L172.96 135.39L187.87 186.32L74.82 239.12Z" fill="url(#paint0_linear)"/>
<path d="M89.91 138.14L53.7 185.66L172.97 135.35L205.15 87.8301L89.91 138.14Z" fill="#1A237E"/>
<path d="M85.86 68.28L82.45 36.87L204 0L204.59 46.82L205.15 87.83L89.91 138.14L85.86 68.28Z" fill="#1A237E"/>
<path d="M85.86 68.28L82.45 36.87L204 0L204.59 46.82L205.15 87.83L89.91 138.14L85.86 68.28Z" fill="url(#paint1_linear)"/>
<path d="M91.2599 43.0399L97.7399 133.12C97.7399 133.12 64.5999 178.83 63.9399 180.82C63.2799 182.81 82.4899 231.82 82.4899 231.82C82.4899 231.82 55.9799 307.37 56.6499 305.38C57.3199 303.39 164.65 253.69 164.65 253.69L173.29 190.12L156.06 145.72L197.81 88.0599L197.12 10.3999L91.2599 43.0399Z" fill="url(#paint2_linear)"/>
<path opacity="0.44" d="M111.6 146.31C102.6 133.42 90.19 119.31 94.49 104.18C111.954 118.027 131.654 128.792 152.74 136.01C160.87 125.89 143 110.65 148.88 99.09C149.917 97.0596 151.608 95.438 153.68 94.487C155.753 93.536 158.085 93.311 160.3 93.8485C162.516 94.3859 164.486 95.6544 165.892 97.4491C167.298 99.2438 168.058 101.46 168.05 103.74C172.325 103.512 176.495 102.336 180.258 100.297C184.022 98.2576 187.285 95.4064 189.81 91.95C190.34 109.44 176.75 123.64 165.2 136.79C163.69 138.51 162.13 140.4 161.91 142.67C161.73 144.55 162.5 146.38 163.21 148.14C177.51 183.43 172.03 223.23 166.32 260.88C166.32 265.48 138.53 274.37 133.91 266.65C128.82 258.13 135.25 236.45 135.13 226.65C134.8 198.34 128.01 169.71 111.6 146.31Z" fill="url(#paint3_linear)"/>
<path d="M100.32 82.2501C97.5686 83.0762 95.0159 84.458 92.8199 86.3101C91.7308 87.2475 90.8819 88.432 90.3443 89.7647C89.8067 91.0973 89.5961 92.5393 89.7299 93.9701C90.1946 95.9363 91.0856 97.7763 92.3399 99.3601C105.23 118.28 118.85 137.89 138.88 148.98C145.98 152.9 153.7 155.64 160.67 159.78C167.64 163.92 174.08 169.83 176.37 177.61C179.37 187.67 175 199.34 179.95 208.61C180.592 209.951 181.579 211.096 182.81 211.93C184.34 212.714 186.031 213.131 187.75 213.15C199.64 214.15 212.11 214.91 223.02 210.07C224.642 209.469 226.084 208.464 227.21 207.15C228.129 205.742 228.732 204.153 228.98 202.49C233.698 180.759 234.622 158.376 231.71 136.33C228.06 108.86 225.71 77.9301 211.58 54.1001C207.24 61.5201 209.43 70.8301 210.92 79.3001C212.03 85.6601 212.67 92.0901 213.31 98.5201C213.85 103.89 214.31 109.66 211.67 114.37C209.83 117.64 206.67 119.99 203.42 121.82C194.79 126.64 184.82 128.45 175.01 129.68C165.4 130.89 155.18 131.52 146.44 127.33C140.37 124.41 135.59 119.43 130.95 114.55C120.6 103.69 110.6 93.1201 100.32 82.2501Z" fill="white"/>
<path d="M181.02 96.43C180.512 97.7773 180.12 99.1657 179.85 100.58C179.488 103.097 179.875 105.664 180.964 107.962C182.052 110.26 183.793 112.186 185.97 113.5C187.016 114.007 188.02 114.599 188.97 115.27C189.727 115.966 190.336 116.808 190.762 117.744C191.188 118.68 191.422 119.692 191.45 120.72C191.496 122.774 191.27 124.825 190.78 126.82C190.68 127.32 190.66 127.99 191.13 128.2C191.274 128.25 191.427 128.27 191.58 128.26C195.941 128.241 200.21 127.009 203.91 124.7C205.085 124.035 206.091 123.107 206.85 121.99C208.02 119.99 207.85 117.59 207.74 115.31C207.56 109.31 208.59 103.31 208.21 97.31C207.83 91.31 205.68 84.99 200.7 81.63C198.551 80.2275 196.072 79.4106 193.51 79.26C191.78 79.13 188.2 78.94 186.79 80.17C186.02 80.85 185.79 82.62 185.46 83.55C184.94 85.05 184.423 86.55 183.91 88.05L181.02 96.43Z" fill="url(#paint4_linear)"/>
<path d="M196.17 67.0099C201.46 67.4899 206.99 67.2099 211.84 69.3899C218.99 72.6099 223 80.6699 223.46 88.4899C223.911 94.2617 222.372 100.014 219.1 104.79C217.445 107.145 215.264 109.082 212.729 110.446C210.195 111.811 207.377 112.565 204.5 112.65C201.64 112.65 198.35 111.44 197.57 108.65C197.244 106.917 197.603 105.125 198.57 103.65C199.28 102.36 200.2 100.98 199.91 99.5399C199.713 98.8657 199.325 98.2632 198.792 97.8052C198.26 97.3473 197.606 97.0536 196.91 96.9599C195.528 96.7821 194.124 96.8806 192.78 97.2499C193.52 93.8199 194.2 90.0099 192.43 86.9799C189.92 82.6999 183.62 81.8799 181.07 77.6199C180.07 75.8699 180.16 73.0399 182.07 72.4299C182.441 72.3652 182.797 72.233 183.12 72.0399C183.7 71.5199 183.35 70.5899 183.03 69.8799C182.35 68.3699 181.52 65.5599 182.18 63.8799C183.18 61.3699 183.48 62.5099 185.39 63.5799C188.688 65.5006 192.368 66.6716 196.17 67.0099Z" fill="#3E3E54"/>
<path d="M93.29 72.5801C93.0681 71.8633 92.7303 71.1877 92.29 70.5801C92.0556 70.2859 91.7458 70.0608 91.3936 69.9287C91.0414 69.7967 90.66 69.7626 90.29 69.8301C90.112 69.8816 89.9478 69.972 89.8091 70.0948C89.6704 70.2175 89.5607 70.3696 89.488 70.5399C89.4153 70.7103 89.3813 70.8946 89.3886 71.0797C89.3958 71.2648 89.4441 71.4459 89.53 71.6101C88.9644 70.9903 88.4557 70.3209 88.01 69.6101C87.7878 69.2457 87.4827 68.9389 87.1195 68.7147C86.7563 68.4905 86.3453 68.3553 85.92 68.3201C85.4393 68.3707 84.987 68.572 84.6277 68.8953C84.2685 69.2187 84.0207 69.6474 83.92 70.1201C83.7152 71.0658 83.7152 72.0444 83.92 72.9901C84.3853 75.2722 84.5533 77.6049 84.42 79.9301C84.22 81.9301 83.57 84.0201 84.07 85.9901C84.67 88.4401 87.58 90.2901 89.84 89.1701C90.6939 88.6382 91.4486 87.9614 92.07 87.1701C94.07 85.0901 96.42 83.9901 98.95 82.7401C98.43 81.1501 96.83 79.5201 95.95 78.0101C94.9337 76.2665 94.0448 74.4517 93.29 72.5801Z" fill="url(#paint5_linear)"/>
<path d="M209.12 49.1199C208.447 46.8862 207.005 44.9627 205.05 43.6899L204.6 46.8199C204.582 47.1089 204.489 47.3881 204.33 47.6299C204.193 47.8005 204.014 47.9317 203.81 48.0099C202.812 48.3412 201.76 48.4836 200.71 48.4299C200.187 48.4112 199.666 48.5153 199.19 48.7342C198.714 48.953 198.296 49.2803 197.97 49.6899C197.748 50.1589 197.655 50.6785 197.701 51.1952C197.747 51.7119 197.929 52.2072 198.23 52.6299C198.645 53.3246 199.208 53.9189 199.88 54.3699C200.861 54.8601 201.801 55.4286 202.69 56.0699C204.1 57.3699 204.24 59.4899 204.62 61.3599C205 63.2299 206.13 65.3599 208.04 65.4399C209.13 64.4399 209.3 62.8299 209.41 61.3599C209.56 59.2699 210.41 57.2699 210.54 55.2199C210.67 53.1699 209.75 50.9299 209.12 49.1199Z" fill="url(#paint6_linear)"/>
<path d="M242.49 317.59C244.19 320.75 243.67 324.79 242.83 328.29C241.99 331.79 239.24 335.1 235.66 335.34C230.4 335.69 228.84 328.77 225.14 325.02C211.8 311.48 204.7 300.42 202.76 286.76C201.54 278.09 201.62 269.18 199.14 260.76C197.21 254.23 193.78 248.24 191.79 241.76C189.06 232.88 189.11 223.43 189.17 214.14C195.57 213.473 201.943 212.583 208.29 211.47C212.02 210.83 223.39 206.47 226.72 207.79C232.51 210.17 230.49 235.42 229.83 241.9C226.89 270.58 226.89 288.6 242.49 317.59Z" fill="#3E3E54"/>
<path d="M242.49 317.59C244.19 320.75 243.67 324.79 242.83 328.29C241.99 331.79 239.24 335.1 235.66 335.34C230.4 335.69 228.84 328.77 225.14 325.02C211.8 311.48 204.7 300.42 202.76 286.76C201.54 278.09 201.62 269.18 199.14 260.76C197.21 254.23 193.78 248.24 191.79 241.76C189.06 232.88 189.11 223.43 189.17 214.14C195.57 213.473 201.943 212.583 208.29 211.47C212.02 210.83 223.39 206.47 226.72 207.79C232.51 210.17 230.49 235.42 229.83 241.9C226.89 270.58 226.89 288.6 242.49 317.59Z" fill="url(#paint7_linear)"/>
<path d="M171.11 346.19C171.55 334.19 175.82 333.99 177.39 322.04C178.13 316.38 177.91 310.57 179.28 305.04C180.414 301.045 181.987 297.188 183.97 293.54C195.62 270.35 213.68 252.44 218.87 227.01C219.55 223.67 221.19 209.47 221.41 208.38C221.41 208.38 203.78 211.75 200.41 211.66L184.7 211.24C183.286 211.091 181.857 211.28 180.53 211.79C179.019 212.684 177.839 214.046 177.17 215.67C172.59 224.77 172.5 235.35 170.98 245.42C168.26 263.51 160.75 280.57 157.46 298.57C156.17 305.69 155.54 312.91 154.91 320.11C154.13 329.11 154.91 327.11 154.11 336.11C153.896 337.299 154.028 338.524 154.49 339.64C155.089 340.551 155.916 341.289 156.89 341.78C161.39 344.63 166.15 348.12 171.11 346.19Z" fill="#3E3E54"/>
<path d="M137.47 348.12C137.37 350.54 140.03 352.02 142.32 352.81C149.342 355.253 156.636 356.828 164.04 357.5C164.571 357.575 165.109 357.575 165.64 357.5C167.93 357.03 168.71 354.2 169.04 351.88L169.58 348.03C169.643 347.805 169.655 347.569 169.615 347.339C169.575 347.109 169.485 346.891 169.35 346.7C169 346.34 168.41 346.42 167.9 346.48C161.9 347.18 158.22 340.95 152.38 341.3C148.91 341.46 137.68 343.57 137.47 348.12Z" fill="#3E3E54"/>
<path d="M219.92 334.12C218.92 334.42 217.82 334.9 217.56 335.9C217.465 336.608 217.648 337.324 218.07 337.9C219.877 340.528 222.641 342.345 225.77 342.96C228.874 343.545 232.041 343.717 235.19 343.47L239.4 343.34C240.095 343.375 240.787 343.219 241.4 342.89C241.788 342.542 242.096 342.115 242.303 341.636C242.511 341.158 242.612 340.641 242.6 340.12C242.801 337.668 242.758 335.203 242.47 332.76C242.42 332.38 242.32 331.94 241.97 331.76C241.62 331.58 241.09 331.99 240.74 332.31C237.85 334.92 233.87 332.75 230.63 332.37C227.18 332.03 223.15 333.12 219.92 334.12Z" fill="#3E3E54"/>
<path d="M122.6 81.02C122.6 81.02 123.13 82.17 123.93 84.2" stroke="white" stroke-width="0.58" stroke-miterlimit="10"/>
<path d="M126.22 90.55C130.82 104.73 136.5 131.55 121.32 148.55C99.9 172.55 86.91 169.97 92.11 191.39C95.69 206.16 101.11 222.79 104.11 231.69" stroke="white" stroke-width="0.58" stroke-miterlimit="10" stroke-dasharray="6.74 6.74"/>
<path d="M105.24 234.87C105.96 236.94 106.39 238.13 106.39 238.13C106.39 238.13 105.53 239.13 104.24 240.83" stroke="white" stroke-width="0.58" stroke-miterlimit="10"/>
<path d="M100.18 246.43C93.73 255.95 86.45 270.16 101.18 269.29C123.25 267.99 155.06 244.62 149.87 231.64C144.68 218.66 129.09 211.51 123.87 200.47C118.65 189.43 134.87 193.98 143.99 180.35C153.11 166.72 146.59 161.52 143.34 147.24C140.09 132.96 153.08 145.24 159.58 111.53C166.08 77.8199 155.03 70.6299 146.58 66.7399C140.41 63.8899 155.77 50.6199 164.47 43.6899" stroke="white" stroke-width="0.58" stroke-miterlimit="10" stroke-dasharray="6.92 6.92"/>
<path d="M167.26 41.55C168.95 40.25 170.01 39.47 170.01 39.47" stroke="white" stroke-width="0.58" stroke-miterlimit="10"/>
<path d="M169.77 31.03L171.96 46.61" stroke="white" stroke-width="2.31" stroke-miterlimit="10"/>
<path d="M162.06 38.01H177" stroke="white" stroke-width="2.31" stroke-miterlimit="10"/>
<path d="M146.97 195.28C148.583 195.28 149.89 193.973 149.89 192.36C149.89 190.747 148.583 189.44 146.97 189.44C145.357 189.44 144.05 190.747 144.05 192.36C144.05 193.973 145.357 195.28 146.97 195.28Z" fill="white"/>
<path d="M116.94 151.94C118.553 151.94 119.86 150.633 119.86 149.02C119.86 147.407 118.553 146.1 116.94 146.1C115.327 146.1 114.02 147.407 114.02 149.02C114.02 150.633 115.327 151.94 116.94 151.94Z" fill="white"/>
</g>
<defs>
<linearGradient id="paint0_linear" x1="116.07" y1="126.3" x2="129.71" y2="298.99" gradientUnits="userSpaceOnUse">
<stop stop-opacity="0"/>
<stop offset="0.99"/>
</linearGradient>
<linearGradient id="paint1_linear" x1="16999.1" y1="4653.94" x2="25441.2" y2="33855.6" gradientUnits="userSpaceOnUse">
<stop stop-opacity="0"/>
<stop offset="0.99"/>
</linearGradient>
<linearGradient id="paint2_linear" x1="365.14" y1="-136.51" x2="-73.7301" y2="390.65" gradientUnits="userSpaceOnUse">
<stop offset="0.02" stop-color="white" stop-opacity="0"/>
<stop offset="0.58" stop-color="white" stop-opacity="0.39"/>
<stop offset="0.68" stop-color="white" stop-opacity="0.68"/>
<stop offset="1" stop-color="white"/>
</linearGradient>
<linearGradient id="paint3_linear" x1="-6250.72" y1="15663.5" x2="61360.3" y2="29723.4" gradientUnits="userSpaceOnUse">
<stop stop-opacity="0"/>
<stop offset="0.99"/>
</linearGradient>
<linearGradient id="paint4_linear" x1="179.7" y1="103.72" x2="208.29" y2="103.72" gradientUnits="userSpaceOnUse">
<stop stop-color="#E5C5D5"/>
<stop offset="0.42" stop-color="#EAD4D1"/>
<stop offset="1" stop-color="#F0E9CB"/>
</linearGradient>
<linearGradient id="paint5_linear" x1="1892.59" y1="1927.28" x2="2123.68" y2="1927.28" gradientUnits="userSpaceOnUse">
<stop stop-color="#E5C5D5"/>
<stop offset="0.42" stop-color="#EAD4D1"/>
<stop offset="1" stop-color="#F0E9CB"/>
</linearGradient>
<linearGradient id="paint6_linear" x1="3195.44" y1="1423.73" x2="3361.11" y2="1423.73" gradientUnits="userSpaceOnUse">
<stop stop-color="#E5C5D5"/>
<stop offset="0.42" stop-color="#EAD4D1"/>
<stop offset="1" stop-color="#F0E9CB"/>
</linearGradient>
<linearGradient id="paint7_linear" x1="16471.8" y1="37220.1" x2="13936.3" y2="36920.1" gradientUnits="userSpaceOnUse">
<stop stop-opacity="0"/>
<stop offset="0.99"/>
</linearGradient>
<clipPath id="clip0">
<rect width="297.63" height="357.51" fill="white"/>
</clipPath>
</defs>
</svg>
