<svg width="486" height="458" viewBox="0 0 486 458" fill="none" xmlns="http://www.w3.org/2000/svg">
<g clip-path="url(#clip0)">
<path opacity="0.24" d="M228.87 455.4C289.58 459.27 352.02 460.03 409.48 440.04C425.21 434.57 440.62 427.45 453.33 416.7C483.05 391.56 493.84 346.45 478.72 310.59C470.63 291.43 455.89 274.31 454.65 253.59C453.57 235.53 463 218.79 469.83 202.03C488.32 156.69 487.24 101.03 457.32 62.3199C425.31 20.8199 369.14 7.11988 316.99 2.54988C277.453 -0.74832 237.714 -0.851989 198.16 2.23988C182.71 3.38988 166.98 5.02988 152.83 11.3299C131.35 20.8999 115.76 40.2399 104.04 60.6199C93.3252 79.2537 85.1622 99.2424 79.77 120.05C75.65 135.94 73.12 152.36 66.7 167.47C56.38 191.82 36.82 210.82 22.91 233.31C-4.69996 277.88 -12.82 360.82 29.66 400.23C78.62 445.65 166.17 451.39 228.87 455.4Z" fill="#1A237E"/>
<path d="M377.53 123.3C382.14 115.06 385.34 104.82 381.19 96.3C380.783 95.2179 379.968 94.3383 378.92 93.85C378.329 93.68 377.708 93.6391 377.1 93.73C367.04 94.73 360.33 104.58 356.77 114.04C353.21 123.5 351.05 134.04 343.93 141.22C340.82 144.35 336.93 146.65 333.93 149.93C327.46 157.1 326.55 167.58 326.25 177.24C325.93 187.49 326.38 206.11 340.89 204.04C348.54 202.94 358.55 193.34 361.69 186.43C365.33 178.43 363.81 168.36 364.05 159.84C364.51 145.05 370.5 135.82 377.53 123.3Z" fill="#1A237E"/>
<path d="M377.53 123.3C382.14 115.06 385.34 104.82 381.19 96.3C380.783 95.2179 379.968 94.3383 378.92 93.85C378.329 93.68 377.708 93.6391 377.1 93.73C367.04 94.73 360.33 104.58 356.77 114.04C353.21 123.5 351.05 134.04 343.93 141.22C340.82 144.35 336.93 146.65 333.93 149.93C327.46 157.1 326.55 167.58 326.25 177.24C325.93 187.49 326.38 206.11 340.89 204.04C348.54 202.94 358.55 193.34 361.69 186.43C365.33 178.43 363.81 168.36 364.05 159.84C364.51 145.05 370.5 135.82 377.53 123.3Z" fill="url(#paint0_linear)"/>
<path d="M387.11 161.91C393.34 161.31 401.11 162.82 402.96 168.81C404.05 172.38 402.48 176.19 400.67 179.46C393.43 192.58 382.11 203.1 374.93 216.26C373.344 218.862 372.322 221.768 371.93 224.79C371.48 230.37 374.63 235.51 377.14 240.52C383.36 252.93 385.6 269.3 376.41 279.7C371.92 284.77 365.29 287.7 361.35 293.23C356.93 299.41 356.74 307.56 354.53 314.84C352.32 322.12 345.93 329.61 338.53 327.95C339.427 308.565 339.093 289.143 337.53 269.8C335.53 245.65 330.38 220.14 340.35 197.26C348.52 178.39 366.25 163.93 387.11 161.91Z" fill="#1A237E"/>
<path d="M387.11 161.91C393.34 161.31 401.11 162.82 402.96 168.81C404.05 172.38 402.48 176.19 400.67 179.46C393.43 192.58 382.11 203.1 374.93 216.26C373.344 218.862 372.322 221.768 371.93 224.79C371.48 230.37 374.63 235.51 377.14 240.52C383.36 252.93 385.6 269.3 376.41 279.7C371.92 284.77 365.29 287.7 361.35 293.23C356.93 299.41 356.74 307.56 354.53 314.84C352.32 322.12 345.93 329.61 338.53 327.95C339.427 308.565 339.093 289.143 337.53 269.8C335.53 245.65 330.38 220.14 340.35 197.26C348.52 178.39 366.25 163.93 387.11 161.91Z" fill="url(#paint1_linear)"/>
<path d="M312.84 63.76H202.71C186.848 63.76 173.99 76.6184 173.99 92.48V350.24C173.99 366.102 186.848 378.96 202.71 378.96H312.84C328.702 378.96 341.56 366.102 341.56 350.24V92.48C341.56 76.6184 328.702 63.76 312.84 63.76Z" fill="#1A237E"/>
<path d="M312.84 63.76H202.71C186.848 63.76 173.99 76.6184 173.99 92.48V350.24C173.99 366.102 186.848 378.96 202.71 378.96H312.84C328.702 378.96 341.56 366.102 341.56 350.24V92.48C341.56 76.6184 328.702 63.76 312.84 63.76Z" fill="url(#paint2_linear)"/>
<path d="M124.36 390.71C117.89 391.25 109.65 393.48 109.12 399.95C108.59 406.42 116.28 409.95 122.58 411.12C137.58 413.99 152.93 414.12 168.19 414.23C220.39 414.53 272.59 414.23 324.79 413.33C338.72 413.09 354.16 412.19 363.94 402.28C365.57 400.63 367.06 398.52 366.85 396.21C366.44 391.84 360.85 390.44 356.43 390.16C278.25 385.23 202.45 384.15 124.36 390.71Z" fill="url(#paint3_linear)"/>
<path d="M149.36 401.55H101.83L107.41 342.59L142.02 341.71L149.36 401.55Z" fill="#1A237E"/>
<path d="M149.36 401.55H101.83L107.41 342.59L142.02 341.71L149.36 401.55Z" fill="url(#paint4_linear)"/>
<path d="M141.44 401.55H93.92L99.49 342.59L134.1 341.71L141.44 401.55Z" fill="#1A237E"/>
<path d="M141.44 401.55H93.92L99.49 342.59L134.1 341.71L141.44 401.55Z" fill="url(#paint5_linear)"/>
<path d="M130.06 343.01L129.5 342.95C129.6 340.36 129.5 333.11 126.1 328.95C125.367 328.015 124.438 327.25 123.38 326.71C122.321 326.169 121.158 325.866 119.97 325.82C118.837 325.738 117.7 325.902 116.637 326.301C115.574 326.699 114.609 327.323 113.81 328.13C109.62 332.23 108.72 340.48 108.53 343.13H107.84C107.84 342.66 108.25 332.03 113.47 327.25C114.336 326.421 115.369 325.785 116.501 325.387C117.632 324.989 118.835 324.836 120.03 324.94C121.267 324.975 122.484 325.27 123.599 325.808C124.714 326.346 125.702 327.113 126.5 328.06C130.88 333.11 130.13 342.61 130.06 343.01Z" fill="#1A237E"/>
<path d="M135.25 343.01L134.69 342.95C134.78 340.36 134.69 333.11 131.28 328.95C130.55 328.014 129.623 327.249 128.566 326.708C127.509 326.168 126.347 325.864 125.16 325.82C124.027 325.737 122.89 325.901 121.827 326.3C120.763 326.698 119.799 327.323 119 328.13C114.81 332.23 113.9 340.48 113.72 343.13H113.03C113.03 342.66 113.44 332.03 118.66 327.25C119.528 326.413 120.565 325.772 121.702 325.37C122.839 324.968 124.049 324.815 125.25 324.92C126.487 324.956 127.703 325.252 128.818 325.79C129.933 326.327 130.922 327.094 131.72 328.04C136.08 333.11 135.33 342.61 135.25 343.01Z" fill="#1A237E"/>
<path d="M304.92 63.76H194.79C178.928 63.76 166.07 76.6184 166.07 92.48V350.24C166.07 366.102 178.928 378.96 194.79 378.96H304.92C320.782 378.96 333.64 366.102 333.64 350.24V92.48C333.64 76.6184 320.782 63.76 304.92 63.76Z" fill="#1A237E"/>
<path d="M299.58 83.75H203C189.088 83.75 177.81 95.0279 177.81 108.94V335C177.81 348.912 189.088 360.19 203 360.19H299.58C313.492 360.19 324.77 348.912 324.77 335V108.94C324.77 95.0279 313.492 83.75 299.58 83.75Z" fill="white"/>
<path d="M285.47 244.61H219.75C211.328 244.61 204.5 251.438 204.5 259.86V259.87C204.5 268.292 211.328 275.12 219.75 275.12H285.47C293.892 275.12 300.72 268.292 300.72 259.87V259.86C300.72 251.438 293.892 244.61 285.47 244.61Z" fill="#1A237E"/>
<path d="M226.25 262.61C226.257 262.727 226.257 262.843 226.25 262.96C226.257 263.043 226.257 263.127 226.25 263.21C226.235 263.273 226.211 263.333 226.18 263.39C226.141 263.45 226.098 263.507 226.05 263.56C225.942 263.652 225.825 263.733 225.7 263.8C225.495 263.914 225.281 264.011 225.06 264.09C223.798 264.517 222.432 264.517 221.17 264.09C220.599 263.877 220.086 263.535 219.67 263.09C219.216 262.611 218.874 262.037 218.67 261.41C218.21 259.853 218.21 258.197 218.67 256.64C218.875 255.986 219.216 255.383 219.67 254.87C220.099 254.389 220.633 254.013 221.23 253.77C221.868 253.522 222.546 253.397 223.23 253.4C223.518 253.401 223.806 253.428 224.09 253.48C224.348 253.524 224.602 253.588 224.85 253.67C225.068 253.743 225.279 253.837 225.48 253.95C225.624 254.017 225.756 254.109 225.87 254.22C225.932 254.271 225.986 254.332 226.03 254.4C226.057 254.461 226.078 254.524 226.09 254.59C226.097 254.683 226.097 254.777 226.09 254.87C226.09 254.97 226.09 255.1 226.09 255.25C226.09 255.4 226.09 255.56 226.09 255.68C226.083 255.776 226.063 255.87 226.03 255.96C226.01 256.018 225.976 256.069 225.93 256.11C225.913 256.127 225.893 256.14 225.87 256.149C225.848 256.158 225.824 256.161 225.8 256.16C225.682 256.145 225.571 256.097 225.48 256.02C225.327 255.899 225.163 255.791 224.99 255.7C224.761 255.567 224.52 255.456 224.27 255.37C223.946 255.271 223.609 255.224 223.27 255.23C222.875 255.224 222.484 255.313 222.13 255.49C221.792 255.666 221.501 255.919 221.28 256.23C221.033 256.584 220.853 256.981 220.75 257.4C220.616 257.906 220.552 258.427 220.56 258.95C220.552 259.5 220.619 260.048 220.76 260.58C220.865 260.993 221.052 261.381 221.31 261.72C221.541 262.008 221.84 262.235 222.18 262.38C222.54 262.532 222.929 262.607 223.32 262.6C223.658 262.608 223.995 262.565 224.32 262.47C224.572 262.387 224.816 262.284 225.05 262.16L225.54 261.87C225.628 261.795 225.736 261.747 225.85 261.73C225.892 261.715 225.938 261.715 225.98 261.73C226.021 261.762 226.05 261.808 226.06 261.86C226.069 261.953 226.069 262.047 226.06 262.14C226.25 262.25 226.25 262.41 226.25 262.61Z" fill="white"/>
<path d="M237.33 258.76C237.342 259.565 237.23 260.368 237 261.14C236.8 261.799 236.459 262.406 236 262.92C235.557 263.417 235.002 263.801 234.38 264.04C233.67 264.304 232.917 264.433 232.16 264.42C231.42 264.434 230.683 264.323 229.98 264.09C229.386 263.896 228.852 263.551 228.43 263.09C227.998 262.599 227.681 262.018 227.5 261.39C227.278 260.593 227.173 259.767 227.19 258.94C227.18 258.148 227.291 257.358 227.52 256.6C227.726 255.95 228.067 255.35 228.52 254.84C228.969 254.35 229.523 253.967 230.14 253.72C230.857 253.455 231.616 253.326 232.38 253.34C233.106 253.324 233.83 253.432 234.52 253.66C235.114 253.854 235.648 254.199 236.07 254.66C236.508 255.146 236.833 255.723 237.02 256.35C237.242 257.133 237.347 257.946 237.33 258.76ZM235.05 258.88C235.056 258.364 235.013 257.848 234.92 257.34C234.845 256.922 234.693 256.521 234.47 256.16C234.263 255.833 233.968 255.57 233.62 255.4C233.208 255.206 232.755 255.114 232.3 255.13C231.835 255.115 231.374 255.218 230.96 255.43C230.607 255.623 230.308 255.902 230.09 256.24C229.861 256.6 229.705 257 229.63 257.42C229.536 257.887 229.489 258.363 229.49 258.84C229.488 259.369 229.532 259.898 229.62 260.42C229.694 260.841 229.847 261.245 230.07 261.61C230.276 261.935 230.566 262.197 230.91 262.37C231.329 262.554 231.783 262.643 232.24 262.63C232.705 262.647 233.166 262.543 233.58 262.33C233.933 262.136 234.232 261.858 234.45 261.52C234.68 261.156 234.84 260.753 234.92 260.33C235.01 259.852 235.054 259.366 235.05 258.88Z" fill="white"/>
<path d="M247.98 263.47C247.981 263.579 247.96 263.688 247.919 263.789C247.878 263.89 247.817 263.982 247.74 264.06C247.659 264.122 247.567 264.169 247.47 264.2C247.37 264.232 247.265 264.249 247.16 264.25H246.25C246.081 264.253 245.913 264.233 245.75 264.19C245.607 264.148 245.474 264.077 245.36 263.98C245.224 263.861 245.106 263.723 245.01 263.57C244.9 263.39 244.78 263.17 244.64 262.89L241.98 257.89C241.83 257.59 241.67 257.27 241.51 256.89C241.35 256.51 241.21 256.21 241.08 255.89C241.08 256.29 241.08 256.69 241.13 257.08C241.18 257.47 241.13 257.88 241.13 258.3V263.9C241.128 263.951 241.111 264 241.08 264.04C241.044 264.095 240.991 264.137 240.93 264.16C240.832 264.192 240.732 264.216 240.63 264.23H240.14H239.66C239.558 264.218 239.457 264.195 239.36 264.16C239.298 264.137 239.246 264.095 239.21 264.04C239.195 263.994 239.195 263.945 239.21 263.9V254.28C239.202 254.172 239.219 254.064 239.259 253.964C239.299 253.863 239.361 253.773 239.44 253.7C239.597 253.57 239.796 253.502 240 253.51H241.16C241.336 253.486 241.514 253.486 241.69 253.51C241.826 253.547 241.955 253.608 242.07 253.69C242.198 253.781 242.307 253.896 242.39 254.03C242.502 254.205 242.606 254.385 242.7 254.57L244.78 258.48L245.14 259.18C245.26 259.41 245.37 259.64 245.48 259.87L245.81 260.54L246.11 261.2C246.11 260.81 246.11 260.41 246.11 259.99C246.11 259.57 246.11 259.18 246.11 258.8V253.8C246.11 253.746 246.127 253.693 246.16 253.65C246.208 253.598 246.265 253.558 246.33 253.53C246.427 253.495 246.528 253.472 246.63 253.46H247.12H247.59C247.689 253.471 247.786 253.495 247.88 253.53C247.937 253.56 247.988 253.6 248.03 253.65C248.046 253.699 248.046 253.751 248.03 253.8L247.98 263.47Z" fill="white"/>
<path d="M256.31 254.43C256.31 254.59 256.31 254.73 256.31 254.85C256.303 254.94 256.279 255.028 256.24 255.11C256.22 255.168 256.186 255.219 256.14 255.26C256.123 255.277 256.103 255.29 256.08 255.299C256.058 255.308 256.034 255.311 256.01 255.31H252.51V258.19H255.79C255.836 258.176 255.885 258.176 255.93 258.19C255.97 258.231 256.004 258.279 256.03 258.33C256.063 258.417 256.086 258.508 256.1 258.6C256.1 258.71 256.1 258.84 256.1 259.01C256.1 259.18 256.1 259.31 256.1 259.42C256.086 259.512 256.063 259.603 256.03 259.69C256.009 259.75 255.975 259.805 255.93 259.85C255.885 259.865 255.836 259.865 255.79 259.85H252.51V263.85C252.512 263.877 252.509 263.904 252.501 263.93C252.492 263.956 252.478 263.98 252.46 264C252.416 264.06 252.352 264.102 252.28 264.12C252.173 264.154 252.062 264.178 251.95 264.19H251.42H250.9C250.785 264.178 250.671 264.154 250.56 264.12C250.49 264.097 250.428 264.055 250.38 264C250.348 263.957 250.33 263.904 250.33 263.85V254.15C250.319 254.055 250.331 253.958 250.364 253.868C250.397 253.777 250.45 253.696 250.52 253.63C250.644 253.521 250.805 253.463 250.97 253.47H255.97C256.012 253.456 256.058 253.456 256.1 253.47C256.146 253.511 256.18 253.562 256.2 253.62C256.239 253.709 256.262 253.804 256.27 253.9C256.3 254.12 256.31 254.26 256.31 254.43Z" fill="white"/>
<path d="M260.25 263.93C260.25 263.984 260.233 264.037 260.2 264.08C260.151 264.132 260.089 264.17 260.02 264.19C259.913 264.224 259.802 264.248 259.69 264.26H259.16H258.64C258.525 264.249 258.411 264.225 258.3 264.19C258.231 264.17 258.169 264.132 258.12 264.08C258.088 264.037 258.07 263.984 258.07 263.93V253.82C258.071 253.769 258.089 253.72 258.12 253.68C258.169 253.628 258.231 253.59 258.3 253.57C258.411 253.537 258.525 253.513 258.64 253.5C258.813 253.489 258.987 253.489 259.16 253.5C259.337 253.488 259.514 253.488 259.69 253.5C259.802 253.512 259.913 253.536 260.02 253.57C260.089 253.59 260.151 253.628 260.2 253.68C260.231 253.72 260.249 253.769 260.25 253.82V263.93Z" fill="white"/>
<path d="M270.53 263.95C270.546 263.999 270.546 264.051 270.53 264.1C270.495 264.153 270.442 264.192 270.38 264.21C270.258 264.236 270.135 264.253 270.01 264.26C269.794 264.272 269.577 264.272 269.36 264.26C269.177 264.272 268.993 264.272 268.81 264.26C268.698 264.255 268.587 264.235 268.48 264.2C268.415 264.179 268.356 264.141 268.31 264.09C268.278 264.036 268.251 263.979 268.23 263.92L267.23 261.53C267.11 261.26 267 261.02 266.89 260.81C266.792 260.617 266.667 260.439 266.52 260.28C266.389 260.142 266.228 260.036 266.05 259.97C265.857 259.89 265.649 259.852 265.44 259.86H264.77V263.93C264.771 263.958 264.766 263.986 264.756 264.011C264.746 264.037 264.73 264.061 264.71 264.08C264.665 264.137 264.601 264.176 264.53 264.19C264.423 264.224 264.312 264.248 264.2 264.26H263.67H263.15C263.038 264.248 262.927 264.224 262.82 264.19C262.749 264.176 262.685 264.137 262.64 264.08C262.608 264.037 262.59 263.984 262.59 263.93V254.22C262.579 254.125 262.591 254.028 262.624 253.938C262.657 253.847 262.71 253.766 262.78 253.7C262.907 253.589 263.072 253.532 263.24 253.54H266.7H267.2C267.599 253.594 267.99 253.702 268.36 253.86C268.684 253.998 268.979 254.194 269.23 254.44C269.474 254.679 269.662 254.97 269.78 255.29C269.914 255.652 269.978 256.035 269.97 256.42C269.977 256.758 269.933 257.095 269.84 257.42C269.752 257.704 269.616 257.971 269.44 258.21C269.255 258.445 269.032 258.648 268.78 258.81C268.506 258.988 268.21 259.129 267.9 259.23C268.061 259.304 268.212 259.398 268.35 259.51C268.498 259.628 268.632 259.762 268.75 259.91C268.882 260.077 268.999 260.254 269.1 260.44C269.21 260.65 269.31 260.87 269.42 261.13L270.32 263.23C270.382 263.38 270.435 263.534 270.48 263.69C270.51 263.774 270.527 263.861 270.53 263.95ZM267.72 256.69C267.73 256.376 267.647 256.066 267.48 255.8C267.291 255.54 267.014 255.359 266.7 255.29L266.32 255.22H265.74H264.74V258.22H265.84C266.114 258.224 266.387 258.186 266.65 258.11C266.867 258.052 267.07 257.954 267.25 257.82C267.404 257.686 267.523 257.519 267.6 257.33C267.683 257.127 267.724 256.909 267.72 256.69Z" fill="white"/>
<path d="M284.58 263.93C284.596 263.979 284.596 264.031 284.58 264.08C284.537 264.134 284.477 264.173 284.41 264.19C284.309 264.223 284.205 264.247 284.1 264.26H283.59H283.1C282.991 264.248 282.884 264.224 282.78 264.19C282.716 264.173 282.659 264.134 282.62 264.08C282.602 264.06 282.588 264.036 282.58 264.01C282.571 263.984 282.568 263.957 282.57 263.93V255.23L279.47 263.93C279.451 263.997 279.413 264.056 279.36 264.1C279.306 264.156 279.236 264.194 279.16 264.21C279.053 264.245 278.942 264.265 278.83 264.27H278.36H277.88C277.767 264.263 277.656 264.239 277.55 264.2C277.475 264.18 277.407 264.142 277.35 264.09C277.299 264.054 277.264 264.001 277.25 263.94L274.25 255.24V263.94C274.25 263.994 274.233 264.047 274.2 264.09C274.159 264.147 274.098 264.186 274.03 264.2C273.929 264.234 273.825 264.257 273.72 264.27H273.22H272.72C272.611 264.257 272.504 264.233 272.4 264.2C272.336 264.183 272.279 264.144 272.24 264.09C272.208 264.047 272.19 263.994 272.19 263.94V254.41C272.177 254.176 272.256 253.947 272.41 253.77C272.49 253.695 272.584 253.636 272.687 253.598C272.791 253.561 272.9 253.544 273.01 253.55H274.43C274.648 253.547 274.866 253.567 275.08 253.61C275.251 253.646 275.414 253.714 275.56 253.81C275.695 253.916 275.808 254.049 275.89 254.2C275.985 254.386 276.062 254.58 276.12 254.78L278.43 261.15L280.83 254.79C280.889 254.589 280.969 254.394 281.07 254.21C281.142 254.063 281.24 253.931 281.36 253.82C281.478 253.719 281.619 253.647 281.77 253.61C281.943 253.567 282.122 253.547 282.3 253.55H283.77C283.896 253.533 284.024 253.533 284.15 253.55C284.25 253.584 284.339 253.642 284.41 253.72C284.484 253.8 284.539 253.896 284.57 254C284.609 254.116 284.626 254.238 284.62 254.36L284.58 263.93Z" fill="white"/>
<path d="M131.6 295.22C129.332 294.985 127.039 295.258 124.89 296.02C121.32 297.56 119.32 301.35 118.02 305.02C115.92 310.95 114.97 317.22 114.02 323.44C113.6 326.19 113.19 329.02 113.86 331.71C114.044 332.654 114.508 333.522 115.19 334.2C115.908 334.741 116.739 335.113 117.62 335.29C130.645 338.862 144.283 339.609 157.62 337.48C159.307 337.37 160.919 336.738 162.23 335.67C163.53 334.38 163.84 332.42 164.02 330.6C164.797 322.433 164.044 314.192 161.8 306.3C161.12 303.92 160.21 301.43 158.26 299.9C155.13 297.47 150.07 297.9 146.38 296.98C141.524 295.907 136.573 295.318 131.6 295.22Z" fill="#1A237E"/>
<path opacity="0.26" d="M164.02 330.61C163.83 332.42 163.52 334.36 162.24 335.67C160.96 336.98 159.24 337.2 157.61 337.48C144.273 339.606 130.635 338.859 117.61 335.29C116.744 335.095 115.927 334.724 115.21 334.2C114.755 333.757 114.412 333.212 114.21 332.61C114.087 332.313 113.98 332.009 113.89 331.7C113.24 329.01 113.64 326.17 114.05 323.42C115.05 317.2 115.96 310.95 118.05 305.01C119.24 301.69 120.99 298.29 123.96 296.57C124.272 296.357 124.608 296.179 124.96 296.04C127.11 295.265 129.407 294.985 131.68 295.22C136.652 295.32 141.602 295.906 146.46 296.97C150.15 297.88 155.21 297.44 158.34 299.88C160.27 301.41 161.18 303.88 161.87 306.29C164.095 314.192 164.824 322.44 164.02 330.61Z" fill="url(#paint6_linear)"/>
<path d="M137.64 251.43C133.72 258.19 130.33 265.73 131 273.51C131.435 277.69 133.007 281.672 135.546 285.021C138.085 288.371 141.493 290.961 145.4 292.51C149.14 289.51 149.55 284.06 149.66 279.27C149.9 268.16 151.38 256.16 150.23 245.11C149.94 242.29 153.23 228.91 149.17 230.43C146.72 231.38 139.01 249.07 137.64 251.43Z" fill="#1A237E"/>
<path opacity="0.26" d="M137.64 251.43C133.72 258.19 130.33 265.73 131 273.51C131.435 277.69 133.007 281.672 135.546 285.021C138.085 288.371 141.493 290.961 145.4 292.51C149.14 289.51 149.55 284.06 149.66 279.27C149.9 268.16 151.38 256.16 150.23 245.11C149.94 242.29 153.23 228.91 149.17 230.43C146.72 231.38 139.01 249.07 137.64 251.43Z" fill="url(#paint7_linear)"/>
<path opacity="0.26" d="M194.72 302.82C194.804 300.059 195.429 297.341 196.56 294.82C200.34 287.64 210.22 286.82 216.85 282.17C222.18 278.4 225.25 272.07 226.44 265.65C227.63 259.23 227.15 252.65 226.66 246.12C226.53 244.27 226.33 242.28 225.09 240.9C222.38 237.9 217.47 240.04 214.09 242.32L205.25 248.44C203.37 249.73 200.8 251.01 199.01 249.6C197.83 248.68 197.63 247 197.52 245.5L195.84 222.06C195.37 215.59 194.26 208.06 188.58 204.93C182.9 201.8 175.58 205.15 171.99 210.47C168.4 215.79 167.75 222.47 167.29 228.86C164.899 262.418 165.401 296.119 168.79 329.59C168.92 330.91 169.16 332.4 170.25 333.15C171.109 333.602 172.087 333.777 173.05 333.65C179.28 333.45 190.46 335.79 193.49 329.28C196.52 322.77 194.08 310.07 194.72 302.82Z" fill="url(#paint8_linear)"/>
<path d="M223.98 257.95C224.344 255.307 224.284 252.623 223.8 250C223.757 249.588 223.628 249.189 223.42 248.83C222.67 247.74 220.88 248.17 220 249.16C219.12 250.15 218.76 251.51 217.92 252.53C217.23 253.37 216.27 253.94 215.5 254.71C214.275 256.111 213.456 257.818 213.13 259.65C212.996 260.107 212.946 260.585 212.98 261.06C213.111 261.734 213.399 262.368 213.82 262.91C215.18 264.98 217.49 267.83 220.05 265.91C222.34 264.1 223.55 260.68 223.98 257.95Z" fill="url(#paint9_linear)"/>
<path d="M187.49 294.82L181.49 394.82L170.59 396.42L165.59 320.51L161.07 396.24L150.28 396.59C150.28 396.59 145.28 320.1 146.37 314.5C147.46 308.9 146.37 291.03 146.37 291.03L187.49 294.82Z" fill="url(#paint10_linear)"/>
<path d="M189.25 285.06C194.53 281.87 199.64 268.29 197.37 265C194.63 261 190.55 233.61 186.94 230.46C183.33 227.31 178.77 225.04 174.03 225.22C168.42 225.43 162.23 222.81 157.03 224.93C154.03 226.13 151.63 228.31 149.24 230.46C145.49 233.81 142.57 290.38 146.77 296.53C152.15 304.39 163.22 304.65 172.59 304.11C175.82 303.92 179.19 303.7 182.02 302.11C189.07 297.95 189.96 293.4 189.25 285.06Z" fill="#1A237E"/>
<path d="M188.25 206.17C188.25 206.17 188.25 206.26 188.25 206.3C188.46 207.613 188.882 208.883 189.5 210.06C189.75 210.57 190.03 211.18 189.75 211.68C189.47 212.18 188.75 212.29 188.28 212.68C186.71 214.21 188.39 217.62 186.87 219.5C185.87 220.67 184.29 220.99 182.87 221.5C181.8 221.9 180.43 222.72 180.17 223.94C179.91 225.16 180.44 226.72 180.36 228.03C180.25 229.69 179.28 231.56 177.62 231.71C177.02 231.734 176.424 231.603 175.89 231.33C174.065 230.275 172.591 228.707 171.65 226.82C168.51 221.4 166.55 215.05 167.52 208.82C168.49 202.59 172.86 196.76 178.94 195.25C182.32 194.41 185.25 195.48 186.81 198.67C187.505 200.215 187.977 201.852 188.21 203.53C188.267 204.409 188.281 205.29 188.25 206.17Z" fill="url(#paint11_linear)"/>
<path d="M187.92 195.11C187.07 198.17 184.5 200.45 181.78 202.11C179.93 203.22 178.31 204.02 177.25 205.95C176.158 207.971 175.443 210.173 175.14 212.45C175.14 212.78 175 213.17 174.69 213.27C174.38 213.37 173.99 212.96 173.86 212.59C173.6 211.81 173.5 210.87 172.81 210.43C172.546 210.282 172.244 210.214 171.942 210.235C171.64 210.257 171.351 210.366 171.11 210.55C170.632 210.93 170.314 211.476 170.22 212.08C170.094 212.814 170.2 213.57 170.525 214.24C170.849 214.911 171.376 215.463 172.03 215.82C172.387 215.968 172.724 216.163 173.03 216.4C174.35 217.63 173.08 219.02 172.56 220.17C171.929 221.788 171.719 223.539 171.95 225.26C172.18 227.67 172.8 230.08 172.45 232.48C172.192 234.43 171.184 236.202 169.64 237.42C168.862 238.009 167.946 238.389 166.979 238.522C166.013 238.655 165.028 238.537 164.12 238.18C162.81 237.61 161.77 236.49 160.4 236.09C157.24 235.15 154.01 238.41 150.79 237.66C148.97 237.23 147.69 235.66 146.72 234.02C145.834 232.716 145.278 231.216 145.1 229.65C144.95 227.05 146.51 224.65 147.99 222.55C150.09 219.48 152.2 216.27 152.9 212.61C153.44 209.73 153.08 206.72 153.78 203.88C154.55 200.75 156.85 198.5 157.96 195.61C158.96 192.92 160.27 190.29 163.07 189.02C165.68 187.82 168.73 188.33 171.59 188.02C175.59 187.58 178.74 184.78 182.85 186.34C186.25 187.6 188.94 191.45 187.92 195.11Z" fill="#606161"/>
<path d="M211.07 260.66C211.841 260.257 212.728 260.134 213.58 260.31C214.051 260.512 214.471 260.816 214.81 261.2C216.55 262.985 217.911 265.105 218.81 267.43C219.333 268.517 219.45 269.755 219.14 270.92C218.52 272.133 217.499 273.094 216.25 273.64C207.9 278.44 197.9 285.29 188.31 284.36C187.64 284.29 187.87 282.29 187.37 281.84C186.819 281.206 186.523 280.39 186.54 279.55C186.111 276.506 186.02 273.424 186.27 270.36C186.533 267.274 187.817 264.364 189.92 262.09C190.737 261.165 191.865 260.571 193.09 260.42C194.95 260.31 194.81 261.73 195.92 262.42C197.29 263.23 199.32 263.23 200.92 263.19C204.421 262.92 207.852 262.065 211.07 260.66Z" fill="#1A237E"/>
<path opacity="0.26" d="M177.74 254C177.74 254 180.86 278.73 189.2 285.06C189.2 285.06 192.07 300.38 178.87 303.06C178.87 303.06 175.13 304.6 168.87 304.06C168.87 304.06 181.71 307.95 179.29 282.21C176.87 256.47 177.74 254 177.74 254Z" fill="url(#paint12_linear)"/>
<path d="M189.34 401.66C189.525 401.818 189.675 402.012 189.781 402.231C189.888 402.449 189.949 402.687 189.96 402.93C189.904 403.279 189.727 403.598 189.46 403.83C188.494 404.619 187.305 405.088 186.06 405.17C182.056 405.766 177.973 405.538 174.06 404.5C173.076 404.324 172.166 403.858 171.45 403.16C170.734 402.114 170.402 400.853 170.51 399.59L170.39 395.24C170.356 394.903 170.393 394.562 170.5 394.24C170.83 393.45 171.85 393.24 172.71 393.19C174.77 393.038 176.836 393.002 178.9 393.08C179.63 393.08 180.57 392.97 181.15 393.43C181.73 393.89 181.93 394.8 182.32 395.28C184.25 397.82 187.19 399.32 189.34 401.66Z" fill="#606161"/>
<path d="M168.68 401.68C168.856 401.833 169 402.02 169.103 402.229C169.206 402.439 169.266 402.667 169.28 402.9C169.229 403.24 169.055 403.55 168.79 403.77C167.859 404.535 166.712 404.989 165.51 405.07C161.637 405.649 157.686 405.431 153.9 404.43C152.946 404.257 152.066 403.804 151.37 403.13C150.685 402.116 150.364 400.9 150.46 399.68L150.35 395.48C150.311 395.143 150.349 394.801 150.46 394.48C150.78 393.72 151.76 393.53 152.59 393.48C154.587 393.338 156.589 393.301 158.59 393.37C159.3 393.37 160.21 393.27 160.77 393.72C161.33 394.17 161.52 395.04 161.9 395.51C163.8 397.93 166.6 399.42 168.68 401.68Z" fill="#606161"/>
<path opacity="0.26" d="M126.67 319.6C126.61 323.29 126.54 327.04 125.42 330.54C125.248 331.283 124.929 331.984 124.483 332.602C124.037 333.22 123.471 333.743 122.82 334.14C120.76 335.14 116.42 334.14 114.17 332.61C114.047 332.313 113.94 332.009 113.85 331.7C113.2 329.01 113.6 326.17 114.01 323.42C115.01 317.2 115.92 310.95 118.01 305.01C119.2 301.69 120.95 298.29 123.92 296.57C124.163 296.628 124.396 296.722 124.61 296.85C126.36 297.91 126.61 300.32 126.67 302.35C126.82 308.1 126.73 313.82 126.67 319.6Z" fill="url(#paint13_linear)"/>
<path d="M134.25 291.19C134.675 289.918 135.259 288.705 135.99 287.58C136.733 286.452 137.877 285.647 139.19 285.33C139.081 285.941 138.827 286.517 138.45 287.01C136.91 289.463 135.762 292.142 135.05 294.95C134.83 295.81 133.05 298.95 132.32 296.74C131.96 295.47 133.84 292.38 134.25 291.19Z" fill="#1A237E"/>
<path d="M177.41 293.97C180.495 293.949 183.564 294.404 186.51 295.32C187.328 295.551 188.057 296.026 188.6 296.68C188.98 297.302 189.209 298.004 189.27 298.73C191.27 311.47 188.93 324.46 189.18 337.35C189.27 342.29 189.75 347.2 190.13 352.12C190.195 352.411 190.197 352.711 190.137 353.003C190.076 353.294 189.955 353.569 189.78 353.81C189.432 354.094 188.999 354.252 188.55 354.26C185.509 354.56 182.447 354.59 179.4 354.35C167.4 353.7 151.51 355.64 139.67 353.88C137.9 338.88 142.21 320.51 144.55 305.59C145.02 302.59 144.67 298.49 145.89 295.72C147.11 292.95 150.11 293.42 152.83 293.43C161.023 293.457 169.217 293.637 177.41 293.97Z" fill="#606161"/>
<path d="M251.14 217.03C278.517 217.03 300.71 194.837 300.71 167.46C300.71 140.083 278.517 117.89 251.14 117.89C223.763 117.89 201.57 140.083 201.57 167.46C201.57 194.837 223.763 217.03 251.14 217.03Z" fill="#1A237E"/>
<path d="M265.54 180.85H232.04L235.28 151.67H261.22L265.54 180.85Z" fill="white"/>
<path d="M253.77 153.38C253.77 153.3 252.6 145.38 247.86 145.98C242.91 146.61 242.74 152.58 242.74 152.83H239.61C239.61 149.74 241.34 143.7 247.46 142.92C253.76 142.15 256.36 149.17 256.86 153L253.77 153.38Z" fill="white"/>
<path d="M266.95 191C273.329 191 278.5 185.829 278.5 179.45C278.5 173.071 273.329 167.9 266.95 167.9C260.571 167.9 255.4 173.071 255.4 179.45C255.4 185.829 260.571 191 266.95 191Z" fill="#1A237E"/>
<path d="M268.49 192.1C274.869 192.1 280.04 186.929 280.04 180.55C280.04 174.171 274.869 169 268.49 169C262.111 169 256.94 174.171 256.94 180.55C256.94 186.929 262.111 192.1 268.49 192.1Z" fill="white"/>
<path d="M266.69 187.36C266.277 187.357 265.882 187.192 265.59 186.9L260.53 181.82C260.237 181.527 260.072 181.129 260.072 180.715C260.072 180.301 260.237 179.903 260.53 179.61C260.823 179.317 261.221 179.152 261.635 179.152C262.049 179.152 262.447 179.317 262.74 179.61L266.61 183.49L274.53 174.41C274.81 174.156 275.173 174.012 275.552 174.005C275.931 173.999 276.298 174.13 276.587 174.375C276.876 174.62 277.066 174.961 277.122 175.335C277.177 175.71 277.095 176.092 276.89 176.41L267.89 186.75C267.748 186.912 267.575 187.044 267.381 187.137C267.186 187.23 266.975 187.282 266.76 187.29L266.69 187.36Z" fill="#1A237E"/>
<path d="M250.85 401.55H203.33L208.9 342.59L243.52 341.71L250.85 401.55Z" fill="#1A237E"/>
<path d="M250.85 401.55H203.33L208.9 342.59L243.52 341.71L250.85 401.55Z" fill="url(#paint14_linear)"/>
<path d="M242.93 401.55H195.41L200.98 342.59L235.6 341.71L242.93 401.55Z" fill="#1A237E"/>
<path d="M242.93 401.55H195.41L200.98 342.59L235.6 341.71L242.93 401.55Z" fill="url(#paint15_linear)"/>
<path d="M231.56 343.01L231 342.95C231.09 340.36 231 333.11 227.59 328.95C226.86 328.014 225.933 327.249 224.876 326.708C223.819 326.168 222.657 325.864 221.47 325.82C220.337 325.737 219.2 325.901 218.137 326.3C217.073 326.698 216.109 327.323 215.31 328.13C211.12 332.23 210.21 340.48 210.03 343.13H209.34C209.34 342.66 209.74 332.03 214.96 327.25C215.829 326.421 216.864 325.786 217.996 325.388C219.129 324.989 220.334 324.837 221.53 324.94C222.767 324.976 223.983 325.272 225.098 325.81C226.213 326.347 227.202 327.114 228 328.06C232.37 333.11 231.62 342.61 231.56 343.01Z" fill="#1A237E"/>
<path d="M236.77 343.01L236.2 342.95C236.3 340.36 236.2 333.11 232.8 328.95C232.067 328.015 231.138 327.25 230.08 326.71C229.021 326.169 227.858 325.866 226.67 325.82C225.537 325.738 224.4 325.902 223.337 326.301C222.274 326.699 221.309 327.323 220.51 328.13C216.33 332.23 215.42 340.48 215.23 343.13H214.54C214.54 342.66 214.95 332.03 220.17 327.25C221.036 326.421 222.069 325.785 223.201 325.387C224.332 324.989 225.535 324.836 226.73 324.94C227.968 324.974 229.184 325.27 230.299 325.807C231.414 326.345 232.403 327.113 233.2 328.06C237.58 333.11 236.83 342.61 236.77 343.01Z" fill="#1A237E"/>
<path d="M274.61 401.55H227.09L232.66 342.59L267.28 341.71L274.61 401.55Z" fill="#1A237E"/>
<path d="M274.61 401.55H227.09L232.66 342.59L267.28 341.71L274.61 401.55Z" fill="url(#paint16_linear)"/>
<path d="M266.69 401.55H219.17L224.74 342.59L259.36 341.71L266.69 401.55Z" fill="#1A237E"/>
<path d="M266.69 401.55H219.17L224.74 342.59L259.36 341.71L266.69 401.55Z" fill="url(#paint17_linear)"/>
<path d="M255.32 343.01L254.76 342.95C254.85 340.36 254.76 333.11 251.35 328.95C250.622 328.017 249.699 327.253 248.645 326.712C247.592 326.172 246.433 325.867 245.25 325.82C244.117 325.737 242.98 325.901 241.917 326.3C240.853 326.698 239.889 327.323 239.09 328.13C234.9 332.23 233.99 340.48 233.81 343.13H233.12C233.12 342.66 233.53 332.03 238.74 327.25C239.6 326.425 240.624 325.791 241.746 325.39C242.868 324.988 244.062 324.828 245.25 324.92C246.487 324.956 247.703 325.252 248.818 325.79C249.933 326.327 250.922 327.094 251.72 328.04C256.13 333.11 255.38 342.61 255.32 343.01Z" fill="#1A237E"/>
<path d="M260.53 343.01L259.97 342.95C260.06 340.36 259.97 333.11 256.56 328.95C255.827 328.015 254.898 327.25 253.84 326.71C252.781 326.169 251.618 325.866 250.43 325.82C249.299 325.738 248.163 325.902 247.102 326.301C246.04 326.699 245.077 327.324 244.28 328.13C240.09 332.23 239.18 340.48 238.99 343.13H238.31C238.31 342.66 238.71 332.03 243.93 327.25C244.797 326.421 245.83 325.786 246.961 325.388C248.092 324.99 249.295 324.837 250.49 324.94C251.728 324.974 252.944 325.269 254.059 325.807C255.174 326.345 256.163 327.113 256.96 328.06C261.34 333.11 260.59 342.61 260.53 343.01Z" fill="#1A237E"/>
</g>
<defs>
<linearGradient id="paint0_linear" x1="355.75" y1="134.02" x2="316.44" y2="308.27" gradientUnits="userSpaceOnUse">
<stop stop-color="#010101" stop-opacity="0"/>
<stop offset="0.95" stop-color="#010101"/>
</linearGradient>
<linearGradient id="paint1_linear" x1="27465.9" y1="40492.7" x2="17839.7" y2="43518.4" gradientUnits="userSpaceOnUse">
<stop stop-color="#010101" stop-opacity="0"/>
<stop offset="0.95" stop-color="#010101"/>
</linearGradient>
<linearGradient id="paint2_linear" x1="41766.5" y1="69168.2" x2="118685" y2="78255.2" gradientUnits="userSpaceOnUse">
<stop stop-color="#010101" stop-opacity="0"/>
<stop offset="0.95" stop-color="#010101"/>
</linearGradient>
<linearGradient id="paint3_linear" x1="67682.5" y1="9407.03" x2="67617.2" y2="30779.8" gradientUnits="userSpaceOnUse">
<stop stop-color="#010101" stop-opacity="0"/>
<stop offset="0.95" stop-color="#010101"/>
</linearGradient>
<linearGradient id="paint4_linear" x1="5899.06" y1="22580.6" x2="9766.14" y2="23433.8" gradientUnits="userSpaceOnUse">
<stop stop-color="#010101" stop-opacity="0"/>
<stop offset="0.95" stop-color="#010101"/>
</linearGradient>
<linearGradient id="paint5_linear" x1="6050.55" y1="22465.8" x2="-1497.19" y2="25343.9" gradientUnits="userSpaceOnUse">
<stop stop-color="#010101" stop-opacity="0"/>
<stop offset="0.95" stop-color="#010101"/>
</linearGradient>
<linearGradient id="paint6_linear" x1="7978.43" y1="13775.1" x2="8397.18" y2="15474.8" gradientUnits="userSpaceOnUse">
<stop stop-color="#010101" stop-opacity="0"/>
<stop offset="0.95" stop-color="#010101"/>
</linearGradient>
<linearGradient id="paint7_linear" x1="3208.16" y1="16407.9" x2="3733.78" y2="16490.2" gradientUnits="userSpaceOnUse">
<stop stop-color="#010101" stop-opacity="0"/>
<stop offset="0.95" stop-color="#010101"/>
</linearGradient>
<linearGradient id="paint8_linear" x1="58660.5" y1="32395.3" x2="42951.1" y2="35484.9" gradientUnits="userSpaceOnUse">
<stop stop-color="#010101" stop-opacity="0"/>
<stop offset="0.95" stop-color="#010101"/>
</linearGradient>
<linearGradient id="paint9_linear" x1="224.22" y1="257.35" x2="212.96" y2="257.35" gradientUnits="userSpaceOnUse">
<stop stop-color="#E4C5D5"/>
<stop offset="0.42" stop-color="#E9D3CF"/>
<stop offset="1" stop-color="#EFE8CA"/>
</linearGradient>
<linearGradient id="paint10_linear" x1="7080.9" y1="37334.1" x2="8782.69" y2="37334.1" gradientUnits="userSpaceOnUse">
<stop stop-color="#E4C5D5"/>
<stop offset="0.42" stop-color="#E9D3CF"/>
<stop offset="1" stop-color="#EFE8CA"/>
</linearGradient>
<linearGradient id="paint11_linear" x1="18931.3" y1="6854.17" x2="18421.7" y2="6808.31" gradientUnits="userSpaceOnUse">
<stop stop-color="#E4C5D5"/>
<stop offset="0.42" stop-color="#E9D3CF"/>
<stop offset="1" stop-color="#EFE8CA"/>
</linearGradient>
<linearGradient id="paint12_linear" x1="17237.5" y1="15548.5" x2="18807.6" y2="14825.4" gradientUnits="userSpaceOnUse">
<stop stop-color="#010101" stop-opacity="0"/>
<stop offset="0.95" stop-color="#010101"/>
</linearGradient>
<linearGradient id="paint13_linear" x1="1905.07" y1="12551.2" x2="2080.43" y2="12551.2" gradientUnits="userSpaceOnUse">
<stop stop-color="#010101" stop-opacity="0"/>
<stop offset="0.95" stop-color="#010101"/>
</linearGradient>
<linearGradient id="paint14_linear" x1="10822.6" y1="22580.6" x2="14688.5" y2="23433.4" gradientUnits="userSpaceOnUse">
<stop stop-color="#010101" stop-opacity="0"/>
<stop offset="0.95" stop-color="#010101"/>
</linearGradient>
<linearGradient id="paint15_linear" x1="10975.3" y1="22465.8" x2="3427.13" y2="25343.8" gradientUnits="userSpaceOnUse">
<stop stop-color="#010101" stop-opacity="0"/>
<stop offset="0.95" stop-color="#010101"/>
</linearGradient>
<linearGradient id="paint16_linear" x1="11975.5" y1="22580.6" x2="15841.3" y2="23433.4" gradientUnits="userSpaceOnUse">
<stop stop-color="#010101" stop-opacity="0"/>
<stop offset="0.95" stop-color="#010101"/>
</linearGradient>
<linearGradient id="paint17_linear" x1="12128.2" y1="22465.8" x2="4579.97" y2="25343.8" gradientUnits="userSpaceOnUse">
<stop stop-color="#010101" stop-opacity="0"/>
<stop offset="0.95" stop-color="#010101"/>
</linearGradient>
<clipPath id="clip0">
<rect width="485.52" height="457.58" fill="white"/>
</clipPath>
</defs>
</svg>
