<svg width="552" height="467" viewBox="0 0 552 467" fill="none" xmlns="http://www.w3.org/2000/svg">
<g clip-path="url(#clip0)">
<path opacity="0.24" d="M551.66 338.19C552.54 394.01 508.43 447.09 453.43 456.45C427.69 460.85 401.43 456.61 375.29 455.45C318.43 452.97 261.7 465.17 204.94 466.45C193.45 466.71 181.94 466.45 170.42 465.64C132.544 462.772 95.5556 452.742 61.4201 436.08C46.8601 428.98 32.6501 420.5 22.0501 408.3C-0.689939 382.16 -2.87994 343.9 2.38006 309.7C7.64006 275.5 19.2101 242.07 19.8001 207.45C20.2201 183.28 15.2601 159.37 13.9901 135.23C12.7201 111.09 15.6501 85.4899 29.8601 65.9499C44.0701 46.4099 67.7201 35.6999 91.4101 31.0399C115.1 26.3799 139.41 26.9899 163.54 25.4899C213.45 22.4299 262.32 10.2599 311.94 4.1899C385.94 -4.8801 504.94 -7.8101 513.13 89.0399C513.759 97.0503 513.932 105.09 513.65 113.12C512.93 139.87 508.82 166.72 512.22 193.27C518.58 243.16 550.86 287.92 551.66 338.19Z" fill="#1A237E"/>
<path opacity="0.24" d="M551.66 338.19C552.54 394.01 508.43 447.09 453.43 456.45C427.69 460.85 401.43 456.61 375.29 455.45C318.43 452.97 261.7 465.17 204.94 466.45C191.04 453.34 177.17 440.22 164.12 426.32C160.12 421.99 155.9 417.19 155.12 411.32C154.56 406.95 155.97 402.57 157.37 398.4C181.656 327.218 215.502 259.667 257.98 197.6C277.82 168.6 299.48 141 321.66 113.79C336.73 95.33 356.24 59.41 382.99 57.65C404.79 56.21 430.07 76.21 448.99 84.76C470.43 94.45 492.05 103.76 513.65 113.14C512.93 139.89 508.82 166.74 512.22 193.29C518.58 243.16 550.86 287.92 551.66 338.19Z" fill="#1A237E"/>
<path d="M301.76 67.7601L289.28 63.8401L292.69 34.4701H293.69C294.93 33.4701 298.55 29.1401 297.58 25.9301C296.71 22.9901 292.03 21.8101 288.24 21.3201C282.86 20.6401 279.34 21.2501 278.05 23.0701C276.32 25.5301 278.6 30.1501 279.63 31.7201L279.9 32.1301L278.02 60.5201L264.17 56.7001L264.95 53.8901L274.98 56.7001L276.56 32.7001C275.56 31.0701 272.56 25.2801 275.25 21.4101C277.25 18.5701 281.69 17.5601 288.47 18.4101C299.06 19.7601 301.09 24.1401 300.94 27.5801C300.79 31.0201 297.88 35.2401 295.69 36.8101L292.78 61.8101L302.66 64.9101L301.76 67.7601Z" fill="url(#paint0_linear)"/>
<path d="M403.79 416.82H152.72L137.1 403.96L152.72 65.32L388.17 52.46L403.79 65.32V416.82Z" fill="#1A237E"/>
<path d="M403.79 416.82H152.72L137.1 403.96L152.72 65.32L388.17 52.46L403.79 65.32V416.82Z" fill="url(#paint1_linear)"/>
<path d="M395.52 410.69L148.74 411.31L137.1 403.96L145.37 64.1L380.82 51.24L396.44 64.1L395.52 410.69Z" fill="url(#paint2_linear)"/>
<path d="M388.17 52.46H137.1V403.96H388.17V52.46Z" fill="white"/>
<path d="M216.22 76.9199C216.09 77.8099 216.03 78.9199 216.75 79.4199C217.142 79.6563 217.592 79.7807 218.05 79.7799C241.179 81.7812 264.475 80.4883 287.24 75.9399C290.99 75.1899 295.53 73.4699 295.8 69.6599C296.05 66.2799 292.8 62.1499 295.42 60.0299C296.402 59.4412 297.525 59.127 298.67 59.1199C300.747 58.8167 302.731 58.0567 304.479 56.8947C306.228 55.7327 307.696 54.1976 308.78 52.3999L243.13 51.8699C236.75 51.8199 225.13 49.1399 220.57 54.8699C217.04 59.2599 216.22 71.6999 216.22 76.9199Z" fill="url(#paint3_linear)"/>
<path d="M288.97 67.92H221L216.4 25.67L284.83 25.21L288.97 67.92Z" fill="#1A237E"/>
<path d="M284.83 25.21L310.1 37.77L306.42 52.46H287.74L284.83 25.21Z" fill="#1A237E"/>
<path d="M284.83 25.21L310.1 37.77L306.42 52.46H287.74L284.83 25.21Z" fill="url(#paint4_linear)"/>
<path d="M269.62 67.2599L256.54 66.7499L252.02 34.0899L252.96 33.8499C253.89 32.3899 256.23 26.6699 254.44 23.4899C252.82 20.5899 247.99 20.6999 244.22 21.3099C238.85 22.1699 235.61 23.8699 234.86 26.2199C233.86 29.3799 237.27 33.6799 238.67 35.0699L239.04 35.4299L244.77 66.5699H230.41V63.3099H240.86L236.02 37.0099C234.66 35.5399 230.17 30.2199 231.76 25.2299C232.92 21.5799 236.94 19.1799 243.76 18.0899C254.32 16.3999 257.44 20.5099 258.22 24.2699C259 28.0299 257.3 33.4299 255.61 35.7699L259.45 63.5899L269.8 63.9999L269.62 67.2599Z" fill="url(#paint5_linear)"/>
<path d="M252.23 106.04H175.07V203.41H252.23V106.04Z" fill="#1A237E"/>
<path d="M354.19 119.52H280.09C277.892 119.52 276.11 121.302 276.11 123.5C276.11 125.698 277.892 127.48 280.09 127.48H354.19C356.388 127.48 358.17 125.698 358.17 123.5C358.17 121.302 356.388 119.52 354.19 119.52Z" fill="#1A237E"/>
<path d="M354.19 136.97H280.09C277.892 136.97 276.11 138.752 276.11 140.95C276.11 143.148 277.892 144.93 280.09 144.93H354.19C356.388 144.93 358.17 143.148 358.17 140.95C358.17 138.752 356.388 136.97 354.19 136.97Z" fill="#1A237E"/>
<path d="M354.19 162.38H280.09C277.892 162.38 276.11 164.162 276.11 166.36C276.11 168.558 277.892 170.34 280.09 170.34H354.19C356.388 170.34 358.17 168.558 358.17 166.36C358.17 164.162 356.388 162.38 354.19 162.38Z" fill="#1A237E"/>
<path d="M354.19 179.83H280.09C277.892 179.83 276.11 181.612 276.11 183.81C276.11 186.008 277.892 187.79 280.09 187.79H354.19C356.388 187.79 358.17 186.008 358.17 183.81C358.17 181.612 356.388 179.83 354.19 179.83Z" fill="#1A237E"/>
<path d="M307.34 260.67H233.24C231.042 260.67 229.26 262.452 229.26 264.65C229.26 266.848 231.042 268.63 233.24 268.63H307.34C309.538 268.63 311.32 266.848 311.32 264.65C311.32 262.452 309.538 260.67 307.34 260.67Z" fill="#1A237E"/>
<path d="M307.34 278.12H233.24C231.042 278.12 229.26 279.902 229.26 282.1C229.26 284.298 231.042 286.08 233.24 286.08H307.34C309.538 286.08 311.32 284.298 311.32 282.1C311.32 279.902 309.538 278.12 307.34 278.12Z" fill="#1A237E"/>
<path d="M307.34 319.45H233.24C231.042 319.45 229.26 321.232 229.26 323.43C229.26 325.628 231.042 327.41 233.24 327.41H307.34C309.538 327.41 311.32 325.628 311.32 323.43C311.32 321.232 309.538 319.45 307.34 319.45Z" fill="#1A237E"/>
<path d="M307.34 336.9H233.24C231.042 336.9 229.26 338.682 229.26 340.88C229.26 343.078 231.042 344.86 233.24 344.86H307.34C309.538 344.86 311.32 343.078 311.32 340.88C311.32 338.682 309.538 336.9 307.34 336.9Z" fill="#1A237E"/>
<path d="M354.18 216.58H177.21C175.012 216.58 173.23 218.362 173.23 220.56C173.23 222.758 175.012 224.54 177.21 224.54H354.18C356.378 224.54 358.16 222.758 358.16 220.56C358.16 218.362 356.378 216.58 354.18 216.58Z" fill="#1A237E"/>
<path d="M354.18 234.03H177.21C175.012 234.03 173.23 235.812 173.23 238.01C173.23 240.208 175.012 241.99 177.21 241.99H354.18C356.378 241.99 358.16 240.208 358.16 238.01C358.16 235.812 356.378 234.03 354.18 234.03Z" fill="#1A237E"/>
<path d="M214.57 255.77H182.42V284.24H214.57V255.77Z" fill="#1A237E"/>
<path d="M214.57 318.23H182.42V346.7H214.57V318.23Z" fill="#1A237E"/>
<path d="M191.16 186.24C186.51 189.65 182.34 195.78 183.16 201.5C205.93 200.38 227.54 201.69 247.33 201.4C246.93 196.2 244.84 189.59 241.22 185.84C239.334 184.098 237.163 182.694 234.8 181.69C229.98 179.32 225.09 176.96 219.8 175.86C209.24 173.63 199.47 180.16 191.16 186.24Z" fill="white"/>
<path d="M231.16 151.46C231.247 152.295 231.155 153.14 230.89 153.937C230.624 154.733 230.191 155.464 229.62 156.08C229.354 156.397 229.009 156.638 228.62 156.78C226.62 157.43 226.53 153.39 227.1 152.24C227.78 150.93 230.86 148.86 231.16 151.46Z" fill="url(#paint6_linear)"/>
<path d="M195.63 149.2C195.542 150.035 195.633 150.878 195.897 151.675C196.16 152.472 196.591 153.203 197.16 153.82C197.432 154.13 197.775 154.371 198.16 154.52C200.16 155.17 200.25 151.12 199.67 149.98C199.01 148.7 195.93 146.6 195.63 149.2Z" fill="url(#paint7_linear)"/>
<path d="M210.86 117.8C212.72 115.511 215.408 114.049 218.34 113.73C221.18 113.43 224.34 114.41 225.86 116.81C226.842 118.651 227.292 120.728 227.16 122.81C227.336 124.74 227.034 126.684 226.28 128.47C225.357 130.153 223.854 131.443 222.05 132.1C217.89 133.74 212.98 132.41 209.76 129.45C206.54 126.49 208.34 120.86 210.86 117.8Z" fill="#606161"/>
<path d="M210.86 117.8C212.72 115.511 215.408 114.049 218.34 113.73C221.18 113.43 224.34 114.41 225.86 116.81C226.842 118.651 227.292 120.728 227.16 122.81C227.336 124.74 227.034 126.684 226.28 128.47C225.357 130.153 223.854 131.443 222.05 132.1C217.89 133.74 212.98 132.41 209.76 129.45C206.54 126.49 208.34 120.86 210.86 117.8Z" fill="url(#paint8_linear)"/>
<path d="M220.86 162.76C220.86 162.76 220.98 175.98 223.99 178.76C227 181.54 211.93 194.53 205.55 180.03C205.55 180.03 209.26 173.77 207.99 163.22C206.72 152.67 220.86 162.76 220.86 162.76Z" fill="url(#paint9_linear)"/>
<path d="M221.3 165.89V168.79C221.3 168.79 213.65 179.79 210.52 176.1C207.39 172.41 208.31 171.58 208.31 171.58L207.97 163.23L221.3 165.89Z" fill="url(#paint10_linear)"/>
<path d="M228.15 143.86C228.15 143.86 230.35 164.04 219.56 168.04C208.77 172.04 202.34 166.3 199.38 156.56C196.42 146.82 200.95 127.16 212.38 129.07C223.81 130.98 228.15 143.86 228.15 143.86Z" fill="url(#paint11_linear)"/>
<path d="M229.86 150.64C230.352 149.942 230.671 149.136 230.79 148.29C231.492 144.503 231.187 140.597 229.906 136.965C228.625 133.332 226.412 130.099 223.49 127.59C222.303 126.544 220.929 125.733 219.44 125.2C217.956 124.76 216.404 124.591 214.86 124.7C209.988 124.851 205.29 126.542 201.44 129.53C199.539 131.042 197.973 132.931 196.841 135.08C195.708 137.228 195.034 139.588 194.86 142.01C194.726 143.445 194.96 144.891 195.54 146.21C195.833 146.867 196.277 147.446 196.834 147.901C197.391 148.356 198.048 148.674 198.75 148.83C201.24 149.26 201.92 146.96 203.94 145.43C206.94 143.12 207.94 139.69 214.84 140.27C226.06 141.21 226.86 154.33 229.86 150.64Z" fill="#606161"/>
<path d="M197.63 150.64C197.499 150.519 197.393 150.373 197.32 150.21C197.274 150.02 197.247 149.826 197.24 149.63C197.214 149.438 197.122 149.262 196.98 149.13C196.904 149.068 196.814 149.027 196.718 149.009C196.622 148.992 196.523 148.999 196.43 149.03C196.352 149.067 196.282 149.12 196.225 149.185C196.168 149.25 196.125 149.327 196.1 149.41C196.056 149.577 196.033 149.748 196.03 149.92C195.963 150.584 196.062 151.254 196.32 151.87C196.565 152.293 196.879 152.672 197.25 152.99C197.314 153.069 197.393 153.134 197.482 153.182C197.571 153.23 197.669 153.26 197.77 153.27C197.9 153.261 198.025 153.216 198.13 153.14C198.179 153.115 198.223 153.081 198.26 153.04C198.27 152.99 198.27 152.94 198.26 152.89C198.345 152.434 198.345 151.966 198.26 151.51C198.142 151.163 197.923 150.86 197.63 150.64Z" fill="url(#paint12_linear)"/>
<path d="M228.86 152.81C228.992 152.689 229.097 152.543 229.17 152.38C229.217 152.193 229.244 152.002 229.25 151.81C229.274 151.615 229.37 151.437 229.52 151.31C229.591 151.244 229.679 151.199 229.775 151.179C229.87 151.16 229.969 151.167 230.06 151.2C230.138 151.238 230.207 151.292 230.263 151.357C230.32 151.422 230.363 151.498 230.39 151.58C230.434 151.75 230.457 151.925 230.46 152.1C230.528 152.764 230.428 153.434 230.17 154.05C229.925 154.47 229.611 154.845 229.24 155.16C229.109 155.318 228.923 155.421 228.72 155.45C228.589 155.438 228.465 155.39 228.36 155.31C228.307 155.292 228.261 155.257 228.23 155.21C228.22 155.161 228.22 155.11 228.23 155.06C228.145 154.607 228.145 154.143 228.23 153.69C228.348 153.341 228.567 153.034 228.86 152.81Z" fill="url(#paint13_linear)"/>
</g>
<defs>
<linearGradient id="paint0_linear" x1="276.617" y1="84.8337" x2="294.622" y2="17.1852" gradientUnits="userSpaceOnUse">
<stop stop-color="#010101" stop-opacity="0"/>
<stop offset="0.95" stop-color="#010101"/>
</linearGradient>
<linearGradient id="paint1_linear" x1="144462" y1="199780" x2="-49763.9" y2="35144.9" gradientUnits="userSpaceOnUse">
<stop stop-color="#010101" stop-opacity="0"/>
<stop offset="0.95" stop-color="#010101"/>
</linearGradient>
<linearGradient id="paint2_linear" x1="121054" y1="78319.7" x2="36782.1" y2="84527.7" gradientUnits="userSpaceOnUse">
<stop stop-color="#010101" stop-opacity="0"/>
<stop offset="0.95" stop-color="#010101"/>
</linearGradient>
<linearGradient id="paint3_linear" x1="24114.6" y1="3379.69" x2="24541" y2="-3931.25" gradientUnits="userSpaceOnUse">
<stop stop-color="#010101" stop-opacity="0"/>
<stop offset="0.95" stop-color="#010101"/>
</linearGradient>
<linearGradient id="paint4_linear" x1="8004.57" y1="582.472" x2="7522.83" y2="1415.73" gradientUnits="userSpaceOnUse">
<stop stop-color="#010101" stop-opacity="0"/>
<stop offset="0.95" stop-color="#010101"/>
</linearGradient>
<linearGradient id="paint5_linear" x1="10261.1" y1="4826.1" x2="10184.4" y2="942.073" gradientUnits="userSpaceOnUse">
<stop stop-color="#010101" stop-opacity="0"/>
<stop offset="0.95" stop-color="#010101"/>
</linearGradient>
<linearGradient id="paint6_linear" x1="231.19" y1="153.53" x2="226.82" y2="153.53" gradientUnits="userSpaceOnUse">
<stop stop-color="#E4C5D5"/>
<stop offset="0.42" stop-color="#E9D3CF"/>
<stop offset="1" stop-color="#EFE8CA"/>
</linearGradient>
<linearGradient id="paint7_linear" x1="-520.944" y1="1179.34" x2="-501.788" y2="1179.34" gradientUnits="userSpaceOnUse">
<stop stop-color="#E4C5D5"/>
<stop offset="0.42" stop-color="#E9D3CF"/>
<stop offset="1" stop-color="#EFE8CA"/>
</linearGradient>
<linearGradient id="paint8_linear" x1="6634.73" y1="2457.65" x2="6553.38" y2="2673.99" gradientUnits="userSpaceOnUse">
<stop stop-color="#010101" stop-opacity="0"/>
<stop offset="0.95" stop-color="#010101"/>
</linearGradient>
<linearGradient id="paint9_linear" x1="-6740.03" y1="5175.44" x2="-6385.4" y2="5175.44" gradientUnits="userSpaceOnUse">
<stop stop-color="#E4C5D5"/>
<stop offset="0.42" stop-color="#E9D3CF"/>
<stop offset="1" stop-color="#EFE8CA"/>
</linearGradient>
<linearGradient id="paint10_linear" x1="216.82" y1="179.29" x2="208.12" y2="136.32" gradientUnits="userSpaceOnUse">
<stop offset="0.12" stop-color="#010101" stop-opacity="0"/>
<stop offset="0.95" stop-color="#010101"/>
</linearGradient>
<linearGradient id="paint11_linear" x1="-10923.7" y1="6325.86" x2="-10033.6" y2="6325.86" gradientUnits="userSpaceOnUse">
<stop stop-color="#E4C5D5"/>
<stop offset="0.42" stop-color="#E9D3CF"/>
<stop offset="1" stop-color="#EFE8CA"/>
</linearGradient>
<linearGradient id="paint12_linear" x1="-591.389" y1="813.966" x2="-612.466" y2="811.588" gradientUnits="userSpaceOnUse">
<stop offset="0.12" stop-color="#010101" stop-opacity="0"/>
<stop offset="0.95" stop-color="#010101"/>
</linearGradient>
<linearGradient id="paint13_linear" x1="137.723" y1="827.197" x2="116.651" y2="824.839" gradientUnits="userSpaceOnUse">
<stop offset="0.12" stop-color="#010101" stop-opacity="0"/>
<stop offset="0.95" stop-color="#010101"/>
</linearGradient>
<clipPath id="clip0">
<rect width="551.67" height="466.53" fill="white"/>
</clipPath>
</defs>
</svg>
