<svg width="558" height="468" viewBox="0 0 558 468" fill="none" xmlns="http://www.w3.org/2000/svg">
<g clip-path="url(#clip0)">
<path opacity="0.24" d="M274.15 1.40007C226.1 -0.869932 176.09 -2.80993 131.96 16.3301C81.07 38.4101 44.87 86.4201 25.68 138.47C6.49 190.52 2.31 246.78 0.340001 302.22C-1.66 357.32 3.5 422.36 50.15 451.75C79.4 470.17 116.54 468.39 151.02 465.98L415.84 447.5C455.21 444.75 497.94 440.6 526.71 413.59C563.83 378.76 563.17 319.2 548.71 270.39C534.25 221.58 508.71 175.39 504.9 124.6C501.59 81.4101 513.93 21.5401 461.59 9.69007C404.12 -3.28993 333.19 4.19007 274.15 1.40007Z" fill="#1A237E"/>
<path opacity="0.24" d="M207.59 409.37C192.27 409.46 176.21 411.53 163.71 420.37C161.62 421.85 159.56 423.64 158.8 426.08C156.8 432.48 164.47 437.51 170.93 439.3C188.77 444.25 207.58 443.93 226.08 443.58L283.15 442.49C287.97 442.39 293.51 441.94 296.33 438.02C298.79 434.6 298.03 429.62 295.55 426.21C293.07 422.8 289.23 420.65 285.4 418.88C261.08 407.66 233.79 409.22 207.59 409.37Z" fill="#1A237E"/>
<path d="M455.76 59.5601H255.19V105.01H455.76V59.5601Z" fill="url(#paint0_linear)"/>
<path d="M455.76 122.33H255.19V167.78H455.76V122.33Z" fill="url(#paint1_linear)"/>
<path d="M455.76 185.1H255.19V230.55H455.76V185.1Z" fill="url(#paint2_linear)"/>
<path d="M455.76 247.87H255.19V293.32H455.76V247.87Z" fill="url(#paint3_linear)"/>
<path d="M455.76 310.64H255.19V356.09H455.76V310.64Z" fill="url(#paint4_linear)"/>
<path d="M455.76 373.41H255.19V418.86H455.76V373.41Z" fill="url(#paint5_linear)"/>
<path d="M261.79 392.32L263.04 405.32C263.04 405.32 258.04 412.85 251.56 413.32C245.08 413.79 242.85 410.68 242.85 410.68L243.91 391.55" fill="#E9CAC5"/>
<path d="M242.85 410.7L243.28 403.03L262.33 397.92L263.04 405.34C263.04 405.34 258.04 412.87 251.56 413.34C245.08 413.81 242.85 410.7 242.85 410.7Z" fill="white"/>
<path d="M200.94 393.7L199.66 407.05C199.66 407.05 204.77 414.79 211.45 415.28C218.13 415.77 220.39 412.57 220.39 412.57L219.3 392.92" fill="#E9CAC5"/>
<path d="M220.39 412.57L219.96 404.7L200.39 399.43L199.66 407.05C199.66 407.05 204.77 414.79 211.45 415.28C218.13 415.77 220.39 412.57 220.39 412.57Z" fill="white"/>
<path d="M216.93 101.75C216.93 101.75 191.1 114.23 190.52 118.32C189.94 122.41 193.44 222.92 193.44 222.92C193.44 222.92 201.82 233.79 227.5 233.79C253.8 233.79 260.57 226.27 261.74 222.79C262.91 219.31 267.11 119.08 266.53 114.79C265.95 110.5 242.13 101.79 242.13 101.79L216.93 101.75Z" fill="#1A237E"/>
<path d="M219.39 111.16V230.04C219.39 230.04 231.34 235.92 245.59 228.78L240.59 103.64L228.9 112.01L219.39 111.16Z" fill="#F2FBFF"/>
<path d="M217.01 86.14C217.01 86.14 216.82 95.14 216.93 101.75C217.01 106.67 218.69 116.12 229.16 116.12C239.63 116.12 240.86 104.12 240.67 101.75C240.53 100.07 241.35 96.63 240.67 91.27C239.98 85.53 217.59 82.15 217.01 86.14Z" fill="#E9CAC5"/>
<path d="M221.19 102.76C222.256 103.756 223.515 104.522 224.89 105.01C226.898 105.775 229.043 106.116 231.19 106.01C232.491 105.97 233.764 105.628 234.91 105.01C236.163 104.2 237.244 103.15 238.09 101.92C239.12 100.746 239.921 99.3895 240.45 97.92C240.681 97.0753 240.809 96.2056 240.83 95.33C240.914 93.471 240.847 91.6082 240.63 89.76C235.27 90.34 229.91 90.76 224.54 91.14C221.46 91.36 216.16 92.06 217.54 96.4C218.251 98.7728 219.5 100.949 221.19 102.76Z" fill="url(#paint6_linear)"/>
<path d="M193.44 222.92C193.44 222.92 192.27 241.92 195.2 298.36C198.13 354.8 199.59 394.28 199.59 394.28C199.59 394.28 199.97 398.89 209.68 399.03C219.39 399.17 221.97 392.75 221.97 392.75L231.46 248.12L241.37 395.72C241.37 395.72 253.03 402.42 262.12 397.39C268.57 393.82 261.75 222.81 261.75 222.81C261.75 222.81 230.59 239.92 193.44 222.92Z" fill="#606161"/>
<path d="M193.44 222.92C193.44 222.92 192.27 241.92 195.2 298.36C198.13 354.8 199.59 394.28 199.59 394.28C199.59 394.28 199.97 398.89 209.68 399.03C219.39 399.17 221.97 392.75 221.97 392.75L231.46 248.12L241.37 395.72C241.37 395.72 253.03 402.42 262.12 397.39C268.57 393.82 261.75 222.81 261.75 222.81C261.75 222.81 230.59 239.92 193.44 222.92Z" fill="url(#paint7_linear)"/>
<path d="M266.53 114.81C266.53 114.81 278.25 164.07 279.16 172.45C280.07 180.83 272.33 200.79 267.54 199.45C256.9 196.45 258.6 178.28 258.6 178.28L266.53 114.81Z" fill="#1A237E"/>
<path d="M273.89 206.92C274.154 206.625 274.496 206.411 274.877 206.303C275.257 206.196 275.661 206.198 276.04 206.31C276.421 206.52 276.755 206.806 277.022 207.15C277.288 207.494 277.482 207.889 277.59 208.31C279.95 214.31 279.67 219.63 279.86 225.8C280 230.14 280.49 234.95 279.56 239.23C278.74 243.01 267.56 252.47 266 251.34C264.44 250.21 267.85 246.99 270.08 245.1C272.31 243.21 272.43 238.48 272.76 236.97C273.09 235.46 269.44 235.45 270.42 230.92C271.15 227.56 272.61 225.92 272.36 222.41C272.061 218.25 272.199 214.071 272.77 209.94C272.837 209 273.125 208.088 273.61 207.28C273.694 207.153 273.788 207.033 273.89 206.92Z" fill="#E9CAC5"/>
<path d="M261.79 191.53C261.62 192.28 271.08 223.37 271.08 223.37C271.08 223.37 275.28 224.24 281.87 221.05C281.87 221.05 280.64 177.4 279.55 174.37C278.46 171.34 276.35 172.04 266.55 175.51C256.75 178.98 261.79 191.53 261.79 191.53Z" fill="#1A237E"/>
<path d="M189.72 116.34C189.72 116.34 177.99 165.6 177.09 173.98C176.19 182.36 183.91 202.32 188.7 200.98C199.34 197.98 197.65 179.8 197.65 179.8L189.72 116.34Z" fill="#1A237E"/>
<path d="M182.35 208.42C182.086 208.125 181.744 207.911 181.363 207.803C180.983 207.696 180.579 207.698 180.2 207.81C179.817 208.016 179.482 208.301 179.216 208.646C178.951 208.99 178.761 209.387 178.66 209.81C176.29 215.81 176.58 221.12 176.38 227.29C176.25 231.63 175.76 236.45 176.68 240.73C177.5 244.51 188.68 253.96 190.25 252.83C191.82 251.7 188.39 248.48 186.16 246.59C183.93 244.7 183.81 239.97 183.48 238.46C183.15 236.95 186.8 236.95 185.82 232.41C185.09 229.06 183.64 227.41 183.88 223.9C184.179 219.744 184.041 215.568 183.47 211.44C183.406 210.5 183.121 209.589 182.64 208.78C182.555 208.651 182.458 208.53 182.35 208.42Z" fill="#E9CAC5"/>
<path d="M194.45 193.05C194.63 193.8 185.16 224.89 185.16 224.89C185.16 224.89 180.96 225.76 174.37 222.57C174.37 222.57 175.6 178.92 176.69 175.89C177.78 172.86 179.89 173.56 189.69 177.04C199.49 180.52 194.45 193.05 194.45 193.05Z" fill="#1A237E"/>
<path d="M208.67 409.26C205 407.38 200.98 405.26 196.98 406.26C194.948 406.878 193.072 407.925 191.48 409.33C188.19 411.92 185.01 414.95 183.54 418.87C182.07 422.79 182.75 427.8 186.12 430.3C188.63 432.17 191.99 432.3 195.12 432.3C199.011 432.436 202.902 432.029 206.68 431.09C209.532 430.184 212.265 428.938 214.82 427.38C217.82 425.65 220.87 423.62 222.42 420.52C223.59 418.18 223.84 413.1 220.9 411.71C219.51 411.06 217.01 412.01 215.31 411.71C212.981 411.251 210.739 410.424 208.67 409.26Z" fill="#1A237E"/>
<path d="M253.21 409.26C256.87 407.38 260.89 405.26 264.89 406.26C266.922 406.878 268.798 407.925 270.39 409.33C273.68 411.92 276.86 414.95 278.33 418.87C279.8 422.79 279.12 427.8 275.76 430.3C273.25 432.17 269.88 432.3 266.76 432.3C262.869 432.436 258.978 432.029 255.2 431.09C252.348 430.184 249.615 428.938 247.06 427.38C244.06 425.65 241.06 423.62 239.46 420.52C238.29 418.18 238.04 413.1 240.98 411.71C242.37 411.06 244.87 412.01 246.57 411.71C248.899 411.25 251.14 410.423 253.21 409.26Z" fill="#1A237E"/>
<path d="M255.54 149.11L253.02 226.37L261.75 222.81L263.37 198.26L260.3 179.55L255.54 149.11Z" fill="url(#paint8_linear)"/>
<path d="M208.72 57.9199C208.902 68.2015 210.397 78.4176 213.17 88.3199C213.735 90.8474 214.785 93.2414 216.26 95.3699C218.042 97.5703 220.541 99.0745 223.32 99.6199C226.064 100.127 228.886 100.032 231.59 99.3399C235.298 98.6254 238.668 96.7102 241.18 93.8899C242.653 91.9452 243.776 89.7594 244.5 87.4299C247.232 79.5527 248.098 71.1488 247.03 62.8799C246.5 58.8799 245.35 54.6699 242.35 52.1899C240.544 50.8405 238.437 49.9515 236.21 49.5999C228.213 48.0114 219.911 49.3194 212.79 53.2899C211.641 53.8313 210.654 54.666 209.93 55.7099C209.312 56.9507 209.01 58.3245 209.05 59.7099" fill="#E9CAC5"/>
<path d="M210.28 75.53C209.96 72.3 208.35 69.37 206.86 66.53C205.37 63.69 203.95 60.53 204.08 57.33C204.21 54.13 206.41 50.71 209.63 50.33C210.44 45.96 212.63 41.67 216.31 39.21C221.59 35.66 228.59 36.59 234.69 38.42C239.62 39.9 244.9 42.42 246.75 47.18C247.334 48.9072 247.671 50.7084 247.75 52.53C248.27 58.99 248.66 65.99 245.09 71.39C245.218 66.7241 244.662 62.0647 243.44 57.56C235.167 60.8422 225.992 61.048 217.58 58.14C208.59 55.03 209.73 69.92 210.28 75.53Z" fill="#606161"/>
<path d="M437.62 325.28H410.82C408.296 325.28 406.25 327.326 406.25 329.85V343.13C406.25 345.654 408.296 347.7 410.82 347.7H437.62C440.144 347.7 442.19 345.654 442.19 343.13V329.85C442.19 327.326 440.144 325.28 437.62 325.28Z" fill="#1A237E"/>
<path d="M425.15 329.92H421.81C420.41 329.92 419.067 329.364 418.077 328.374C417.086 327.383 416.53 326.04 416.53 324.64C416.53 323.24 417.086 321.897 418.077 320.907C419.067 319.916 420.41 319.36 421.81 319.36H425.15C426.55 319.36 427.893 319.916 428.884 320.907C429.874 321.897 430.43 323.24 430.43 324.64C430.43 326.04 429.874 327.383 428.884 328.374C427.893 329.364 426.55 329.92 425.15 329.92ZM421.81 322.92C421.341 322.92 420.89 323.107 420.558 323.439C420.227 323.77 420.04 324.221 420.04 324.69C420.04 325.16 420.227 325.61 420.558 325.942C420.89 326.274 421.341 326.46 421.81 326.46H425.15C425.619 326.46 426.07 326.274 426.402 325.942C426.734 325.61 426.92 325.16 426.92 324.69C426.92 324.221 426.734 323.77 426.402 323.439C426.07 323.107 425.619 322.92 425.15 322.92H421.81Z" fill="#1A237E"/>
<path d="M436.57 138.92V161.67H428.76V147.33H421.61V161.67H412.96V138.92L424.73 132.73L436.57 138.92Z" fill="#1A237E"/>
<path d="M410.04 138.72C409.846 138.717 409.659 138.649 409.508 138.529C409.356 138.408 409.248 138.24 409.202 138.052C409.155 137.864 409.172 137.666 409.249 137.488C409.327 137.311 409.46 137.164 409.63 137.07L424.63 129.02L439.59 136.74C439.692 136.793 439.782 136.866 439.856 136.954C439.929 137.042 439.985 137.144 440.019 137.253C440.054 137.363 440.066 137.478 440.056 137.593C440.046 137.707 440.013 137.818 439.96 137.92C439.907 138.022 439.834 138.112 439.746 138.186C439.658 138.259 439.556 138.315 439.447 138.349C439.337 138.384 439.222 138.396 439.107 138.386C438.993 138.376 438.882 138.343 438.78 138.29L424.69 131L410.51 138.62C410.365 138.694 410.203 138.729 410.04 138.72Z" fill="#1A237E"/>
<path d="M423.73 219.61C420.89 218.9 412.98 213.43 410.91 208.38C410.449 207.318 410.194 206.177 410.16 205.02C410.227 203.412 410.823 201.871 411.855 200.636C412.888 199.401 414.299 198.541 415.87 198.19C417.476 197.847 419.15 198.018 420.654 198.678C422.157 199.339 423.416 200.455 424.25 201.87C425.183 200.364 426.59 199.21 428.25 198.59C432.77 196.97 436.07 201.31 436.25 202.65C437.67 213.92 423.73 219.61 423.73 219.61Z" fill="#1A237E"/>
<path d="M424.01 287.69V283.44C421.729 283.431 419.496 282.787 417.56 281.58L418.56 278.76C420.369 279.932 422.475 280.56 424.63 280.57C427.63 280.57 429.63 278.84 429.63 276.44C429.63 274.04 427.99 272.69 424.87 271.44C420.57 269.75 417.92 267.81 417.92 264.15C417.92 260.65 420.41 258 424.28 257.37V253.11H426.89V257.2C428.812 257.215 430.699 257.721 432.37 258.67L431.32 261.45C429.713 260.499 427.877 260.004 426.01 260.02C422.76 260.02 421.54 261.96 421.54 263.65C421.54 265.83 423.1 266.93 426.77 268.45C431.11 270.22 433.3 272.45 433.3 276.16C433.3 279.48 430.98 282.6 426.64 283.32V287.7L424.01 287.69Z" fill="#1A237E"/>
<path d="M418.01 97.6199C425.263 97.3999 432.513 97.3533 439.76 97.4799C440.129 95.1406 439.785 92.7442 438.771 90.6036C437.758 88.4629 436.123 86.6774 434.08 85.4799C433.08 84.8999 431.84 84.35 431.52 83.22C431.2 82.09 431.88 81.06 432.23 80C432.591 78.9331 432.622 77.7822 432.318 76.6976C432.015 75.6129 431.392 74.6449 430.53 73.9199C429.638 73.2332 428.535 72.8794 427.41 72.9196C426.286 72.9598 425.21 73.3914 424.37 74.14C423.685 74.8541 423.186 75.7266 422.92 76.68C422.304 78.4677 422.404 80.4247 423.2 82.14C423.659 82.7679 423.93 83.5137 423.98 84.29C423.9 85.12 423.18 85.71 422.57 86.29C421.054 87.7503 419.864 89.5147 419.078 91.4673C418.293 93.42 417.928 95.5167 418.01 97.6199Z" fill="#1A237E"/>
<path d="M436.42 412.45H410.7V382.77L432.3 382.73L436.42 387.02V412.45Z" fill="#1A237E"/>
<path d="M431.14 392.87H416.47V395.67H431.14V392.87Z" fill="url(#paint9_linear)"/>
<path d="M431.14 401.9H416.47V404.7H431.14V401.9Z" fill="url(#paint10_linear)"/>
<path opacity="0.24" d="M401.72 80.8101H311.21C308.89 80.8101 307.01 82.6905 307.01 85.0101V85.0201C307.01 87.3397 308.89 89.2201 311.21 89.2201H401.72C404.04 89.2201 405.92 87.3397 405.92 85.0201V85.0101C405.92 82.6905 404.04 80.8101 401.72 80.8101Z" fill="#1A237E"/>
<path opacity="0.24" d="M401.72 145.1H311.21C308.89 145.1 307.01 146.98 307.01 149.3V149.31C307.01 151.63 308.89 153.51 311.21 153.51H401.72C404.04 153.51 405.92 151.63 405.92 149.31V149.3C405.92 146.98 404.04 145.1 401.72 145.1Z" fill="#1A237E"/>
<path opacity="0.24" d="M401.72 209.39H311.21C308.89 209.39 307.01 211.27 307.01 213.59V213.6C307.01 215.919 308.89 217.8 311.21 217.8H401.72C404.04 217.8 405.92 215.919 405.92 213.6V213.59C405.92 211.27 404.04 209.39 401.72 209.39Z" fill="#1A237E"/>
<path opacity="0.24" d="M401.72 273.68H311.21C308.89 273.68 307.01 275.56 307.01 277.88V277.89C307.01 280.21 308.89 282.09 311.21 282.09H401.72C404.04 282.09 405.92 280.21 405.92 277.89V277.88C405.92 275.56 404.04 273.68 401.72 273.68Z" fill="#1A237E"/>
<path opacity="0.24" d="M401.72 337.97H311.21C308.89 337.97 307.01 339.85 307.01 342.17V342.18C307.01 344.5 308.89 346.38 311.21 346.38H401.72C404.04 346.38 405.92 344.5 405.92 342.18V342.17C405.92 339.85 404.04 337.97 401.72 337.97Z" fill="#1A237E"/>
<path opacity="0.24" d="M401.72 402.27H311.21C308.89 402.27 307.01 404.15 307.01 406.47V406.48C307.01 408.8 308.89 410.68 311.21 410.68H401.72C404.04 410.68 405.92 408.8 405.92 406.48V406.47C405.92 404.15 404.04 402.27 401.72 402.27Z" fill="#1A237E"/>
</g>
<defs>
<linearGradient id="paint0_linear" x1="255.19" y1="82.2901" x2="455.77" y2="82.2901" gradientUnits="userSpaceOnUse">
<stop stop-color="white" stop-opacity="0"/>
<stop offset="0.13" stop-color="white" stop-opacity="0.23"/>
<stop offset="0.23" stop-color="white" stop-opacity="0.41"/>
<stop offset="0.35" stop-color="white" stop-opacity="0.59"/>
<stop offset="0.48" stop-color="white" stop-opacity="0.74"/>
<stop offset="0.6" stop-color="white" stop-opacity="0.85"/>
<stop offset="0.72" stop-color="white" stop-opacity="0.93"/>
<stop offset="0.84" stop-color="white" stop-opacity="0.98"/>
<stop offset="0.95" stop-color="white"/>
</linearGradient>
<linearGradient id="paint1_linear" x1="51438.6" y1="6715.31" x2="91669" y2="6715.31" gradientUnits="userSpaceOnUse">
<stop stop-color="white" stop-opacity="0"/>
<stop offset="0.13" stop-color="white" stop-opacity="0.23"/>
<stop offset="0.23" stop-color="white" stop-opacity="0.41"/>
<stop offset="0.35" stop-color="white" stop-opacity="0.59"/>
<stop offset="0.48" stop-color="white" stop-opacity="0.74"/>
<stop offset="0.6" stop-color="white" stop-opacity="0.85"/>
<stop offset="0.72" stop-color="white" stop-opacity="0.93"/>
<stop offset="0.84" stop-color="white" stop-opacity="0.98"/>
<stop offset="0.95" stop-color="white"/>
</linearGradient>
<linearGradient id="paint2_linear" x1="51438.6" y1="9630.97" x2="91669" y2="9630.97" gradientUnits="userSpaceOnUse">
<stop stop-color="white" stop-opacity="0"/>
<stop offset="0.13" stop-color="white" stop-opacity="0.23"/>
<stop offset="0.23" stop-color="white" stop-opacity="0.41"/>
<stop offset="0.35" stop-color="white" stop-opacity="0.59"/>
<stop offset="0.48" stop-color="white" stop-opacity="0.74"/>
<stop offset="0.6" stop-color="white" stop-opacity="0.85"/>
<stop offset="0.72" stop-color="white" stop-opacity="0.93"/>
<stop offset="0.84" stop-color="white" stop-opacity="0.98"/>
<stop offset="0.95" stop-color="white"/>
</linearGradient>
<linearGradient id="paint3_linear" x1="51438.6" y1="12546.2" x2="91669" y2="12546.2" gradientUnits="userSpaceOnUse">
<stop stop-color="white" stop-opacity="0"/>
<stop offset="0.13" stop-color="white" stop-opacity="0.23"/>
<stop offset="0.23" stop-color="white" stop-opacity="0.41"/>
<stop offset="0.35" stop-color="white" stop-opacity="0.59"/>
<stop offset="0.48" stop-color="white" stop-opacity="0.74"/>
<stop offset="0.6" stop-color="white" stop-opacity="0.85"/>
<stop offset="0.72" stop-color="white" stop-opacity="0.93"/>
<stop offset="0.84" stop-color="white" stop-opacity="0.98"/>
<stop offset="0.95" stop-color="white"/>
</linearGradient>
<linearGradient id="paint4_linear" x1="51438.6" y1="15461.8" x2="91669" y2="15461.8" gradientUnits="userSpaceOnUse">
<stop stop-color="white" stop-opacity="0"/>
<stop offset="0.13" stop-color="white" stop-opacity="0.23"/>
<stop offset="0.23" stop-color="white" stop-opacity="0.41"/>
<stop offset="0.35" stop-color="white" stop-opacity="0.59"/>
<stop offset="0.48" stop-color="white" stop-opacity="0.74"/>
<stop offset="0.6" stop-color="white" stop-opacity="0.85"/>
<stop offset="0.72" stop-color="white" stop-opacity="0.93"/>
<stop offset="0.84" stop-color="white" stop-opacity="0.98"/>
<stop offset="0.95" stop-color="white"/>
</linearGradient>
<linearGradient id="paint5_linear" x1="51438.6" y1="18377.5" x2="91669" y2="18377.5" gradientUnits="userSpaceOnUse">
<stop stop-color="white" stop-opacity="0"/>
<stop offset="0.13" stop-color="white" stop-opacity="0.23"/>
<stop offset="0.23" stop-color="white" stop-opacity="0.41"/>
<stop offset="0.35" stop-color="white" stop-opacity="0.59"/>
<stop offset="0.48" stop-color="white" stop-opacity="0.74"/>
<stop offset="0.6" stop-color="white" stop-opacity="0.85"/>
<stop offset="0.72" stop-color="white" stop-opacity="0.93"/>
<stop offset="0.84" stop-color="white" stop-opacity="0.98"/>
<stop offset="0.95" stop-color="white"/>
</linearGradient>
<linearGradient id="paint6_linear" x1="228.42" y1="107.35" x2="232.13" y2="38.8" gradientUnits="userSpaceOnUse">
<stop stop-color="#010101" stop-opacity="0"/>
<stop offset="0.95" stop-color="#010101"/>
</linearGradient>
<linearGradient id="paint7_linear" x1="16672" y1="62826.2" x2="19146" y2="28076.2" gradientUnits="userSpaceOnUse">
<stop stop-color="#010101" stop-opacity="0"/>
<stop offset="0.95" stop-color="#010101"/>
</linearGradient>
<linearGradient id="paint8_linear" x1="2820.44" y1="14680.2" x2="3891.46" y2="14672.2" gradientUnits="userSpaceOnUse">
<stop stop-color="#010101" stop-opacity="0"/>
<stop offset="0.95" stop-color="#010101"/>
</linearGradient>
<linearGradient id="paint9_linear" x1="6526.09" y1="1496.83" x2="6741.45" y2="1496.83" gradientUnits="userSpaceOnUse">
<stop stop-color="white" stop-opacity="0"/>
<stop offset="0.13" stop-color="white" stop-opacity="0.23"/>
<stop offset="0.23" stop-color="white" stop-opacity="0.41"/>
<stop offset="0.35" stop-color="white" stop-opacity="0.59"/>
<stop offset="0.48" stop-color="white" stop-opacity="0.74"/>
<stop offset="0.6" stop-color="white" stop-opacity="0.85"/>
<stop offset="0.72" stop-color="white" stop-opacity="0.93"/>
<stop offset="0.84" stop-color="white" stop-opacity="0.98"/>
<stop offset="0.95" stop-color="white"/>
</linearGradient>
<linearGradient id="paint10_linear" x1="6526.09" y1="1531.15" x2="6741.45" y2="1531.15" gradientUnits="userSpaceOnUse">
<stop stop-color="white" stop-opacity="0"/>
<stop offset="0.13" stop-color="white" stop-opacity="0.23"/>
<stop offset="0.23" stop-color="white" stop-opacity="0.41"/>
<stop offset="0.35" stop-color="white" stop-opacity="0.59"/>
<stop offset="0.48" stop-color="white" stop-opacity="0.74"/>
<stop offset="0.6" stop-color="white" stop-opacity="0.85"/>
<stop offset="0.72" stop-color="white" stop-opacity="0.93"/>
<stop offset="0.84" stop-color="white" stop-opacity="0.98"/>
<stop offset="0.95" stop-color="white"/>
</linearGradient>
<clipPath id="clip0">
<rect width="557.91" height="467.46" fill="white"/>
</clipPath>
</defs>
</svg>
