<svg width="381" height="347" viewBox="0 0 381 347" fill="none" xmlns="http://www.w3.org/2000/svg">
<g clip-path="url(#clip0)">
<path opacity="0.18" d="M15.64 201.55V291.89C-8.66 265.39 -1.46 231.7 15.64 201.55Z" fill="#1A237E"/>
<path opacity="0.18" d="M377.37 191.56C371.74 205.82 357.62 214.46 346.63 225.14C324.63 246.5 314.09 277.55 295.54 301.58C291.168 307.334 286.189 312.601 280.69 317.29C259.13 335.43 230.03 341.53 202.02 344.77C172.884 348.259 143.368 346.843 114.7 340.58C87.5061 334.57 61.5324 323.979 37.89 309.26L159.23 240.78L187.74 224.69L189.19 223.87V7.76001L120.82 37.68C125.147 31.6722 130.024 26.0813 135.39 20.98C155.77 1.81001 188.66 -7.79999 211.98 7.69001C225.98 16.93 233.67 32.97 245.33 44.99C268.33 68.73 304.07 74.6 331.63 92.89C355.375 108.799 372.084 133.24 378.29 161.14C380.45 171.2 381.16 181.99 377.37 191.56Z" fill="#1A237E"/>
<path opacity="0.18" d="M295.54 301.58C291.168 307.334 286.189 312.601 280.69 317.29C259.13 335.43 230.03 341.53 202.02 344.77C172.884 348.259 143.368 346.843 114.7 340.58C112.852 337.253 111.868 333.516 111.84 329.71C111.84 304.19 157.7 283.5 214.27 283.5C247.38 283.5 276.82 290.58 295.54 301.58Z" fill="#1A237E"/>
<path d="M215.83 84.42C212.547 84.2289 209.282 85.0249 206.455 86.7055C203.629 88.3861 201.37 90.8744 199.97 93.85C196.86 100.78 198.88 109.32 195.26 116C193.55 119.15 190.76 121.54 188.1 123.94C187.87 124.112 187.696 124.349 187.6 124.62C187.46 125.12 187.86 125.62 188.24 125.95C190.247 127.605 192.488 128.953 194.89 129.95C197.027 131.147 199.391 131.883 201.83 132.11C203.307 132.08 204.775 131.869 206.2 131.48C208.62 130.91 210.06 133.81 212.48 133.2C215.073 132.661 217.705 132.327 220.35 132.2C222.35 132.07 224.05 128.55 226.03 128.31C230.16 127.81 233.77 125.39 237.21 123.04C234.39 121.39 232.87 118.2 231.85 115.04C230.381 110.518 229.628 105.794 229.62 101.04C229.62 98.04 229.92 94.81 228.74 92.04C228.224 90.8517 227.468 89.7827 226.52 88.9C225.572 88.0172 224.452 87.3398 223.23 86.91C220.8 86 218.45 84.62 215.83 84.42Z" fill="#FF979A"/>
<path d="M226.04 105.35C226.046 103.214 225.915 101.08 225.65 98.96C225.511 97.8979 225.156 96.8755 224.608 95.9555C224.059 95.0355 223.328 94.2373 222.46 93.61C220.01 92.06 216.82 92.69 214.06 93.61C212.681 94.0107 211.36 94.5889 210.13 95.33C207.02 97.33 205.36 101.03 204.54 104.66C203.72 108.29 203.54 112.04 202.54 115.66C201.54 119.28 199.54 122.79 196.13 124.36C194.816 124.816 193.53 125.351 192.28 125.96C192.129 126.024 191.997 126.124 191.894 126.251C191.791 126.379 191.721 126.529 191.69 126.69C191.695 126.959 191.802 127.217 191.99 127.41C194.07 130.01 197.71 130.69 200.99 130.97C204.47 131.27 207.99 131.35 211.46 131.42C214.23 131.48 217.1 131.53 219.67 130.48C222.24 129.43 224.28 127.41 226.91 126.63C228.31 126.21 230.72 126.06 231.15 124.31C231.53 122.79 229.83 120.25 229.3 118.89C227.519 114.572 226.42 110.005 226.04 105.35Z" fill="url(#paint0_linear)"/>
<path d="M230.17 321.02C231.283 322.497 232.734 323.687 234.4 324.49C237.643 325.966 241.178 326.687 244.74 326.6C246.19 326.6 247.74 326.52 248.83 325.54C249.282 325.078 249.611 324.51 249.785 323.888C249.96 323.266 249.975 322.61 249.83 321.98C249.525 320.723 248.89 319.57 247.99 318.64C244.4 314.64 238.89 313.25 233.77 312.5C231.67 312.19 229.59 311.73 228.68 314.07C227.87 316.2 228.93 319.28 230.17 321.02Z" fill="#3F3D56"/>
<path d="M182.23 317.2C181.33 318.033 180.679 319.099 180.35 320.28C179.95 322.48 181.91 324.57 184.09 325.06C186.27 325.55 188.54 324.85 190.61 323.98C193.632 322.707 196.5 321.097 199.16 319.18C199.886 318.71 200.525 318.118 201.05 317.43C202.21 315.74 201.94 313.49 201.56 311.48C201.559 311.249 201.503 311.022 201.396 310.817C201.289 310.612 201.135 310.436 200.945 310.304C200.756 310.172 200.538 310.087 200.309 310.057C200.08 310.026 199.847 310.051 199.63 310.13C197.63 310.24 195.55 310.41 193.51 310.42C192.362 310.288 191.202 310.312 190.06 310.49C187.09 311.28 184.29 314.98 182.23 317.2Z" fill="#3F3D56"/>
<path opacity="0.46" d="M189.19 7.76001V223.88L187.74 224.7L159.23 240.78L37.89 309.27L15.64 321.82V83.72L120.82 37.69L189.19 7.76001Z" fill="#1A237E"/>
<path opacity="0.56" d="M124.77 120.74L106.7 129.46V100.19L124.77 91.47V120.74Z" fill="#1A237E"/>
<path opacity="0.56" d="M154.92 155.59L136.86 164.31V135.04L154.92 126.32V155.59Z" fill="#1A237E"/>
<path opacity="0.46" d="M188.68 174.56C188.47 188 187.68 201.47 188.68 214.87C188.91 218.16 189.08 221.87 187.74 224.69L159.23 240.78C158.912 240.94 158.556 241.006 158.203 240.973C157.849 240.939 157.512 240.806 157.23 240.59C156.96 240.213 156.829 239.753 156.86 239.29C156.39 230.22 157.86 221.18 158.92 212.16C160.49 198.39 160.99 184.35 158.28 170.76C157.708 167.261 156.559 163.882 154.88 160.76C152.72 157.06 149.43 154.18 146.57 150.98C142.42 146.32 139.16 140.98 135.92 135.6C133.66 131.87 121.65 117.04 126.54 113.6C134.17 108.17 136.92 124.02 138.15 127.6C139.54 131.66 142.29 135.09 145.22 138.22C152.22 145.73 160.52 151.95 168.89 157.95C170.213 156.534 171.174 154.818 171.69 152.95C173.17 148.95 174.69 144.69 173.92 140.47C173.351 138.16 172.537 135.917 171.49 133.78C168.89 127.49 167.83 120.37 169.72 113.78C171.61 107.19 176.77 101.46 183.41 99.98C183.926 99.8098 184.484 99.8098 185 99.98C185.39 100.17 187.23 99.77 189.15 99.36V163.75C188.91 167.44 188.73 171.04 188.68 174.56Z" fill="#1A237E"/>
<path d="M203.36 112.09C203.22 113.03 202 114.5 202.46 115.34C203.46 117.07 204.71 118.04 205.67 119.77C206.39 121.05 207.67 119.58 208.11 120.99C208.825 123.561 209.274 126.198 209.45 128.86C209.45 130.25 209.3 131.76 210.1 132.86C210.398 133.249 210.771 133.574 211.197 133.817C211.623 134.059 212.093 134.213 212.58 134.27C213.553 134.368 214.536 134.27 215.47 133.98C216.042 133.883 216.586 133.663 217.064 133.335C217.542 133.007 217.944 132.579 218.24 132.08C218.509 131.321 218.595 130.509 218.49 129.71C218.408 128.702 218.5 127.687 218.76 126.71C218.893 126.216 219.124 125.754 219.438 125.35C219.752 124.947 220.144 124.61 220.59 124.36C221.23 124.096 221.903 123.921 222.59 123.84C224.706 123.482 226.633 122.401 228.04 120.78C229.81 118.6 230.19 115.63 230.27 112.83C230.371 108.89 229.998 104.951 229.16 101.1C228.16 96.64 226.58 92.89 222.71 90.47C218.36 87.74 212.32 88.75 208.38 92.05C204.44 95.35 202.38 100.51 201.94 105.63C201.71 108.08 201.57 110.38 203.36 112.09Z" fill="#FFDAD2"/>
<path d="M207.9 114.63C207.632 114.04 207.296 113.483 206.9 112.97C206.624 112.562 206.208 112.27 205.73 112.15C205.413 112.138 205.1 112.229 204.839 112.409C204.577 112.589 204.381 112.849 204.28 113.15C204.081 113.746 204.036 114.382 204.15 115C204.217 115.931 204.48 116.837 204.92 117.66C205.144 118.066 205.46 118.415 205.841 118.679C206.223 118.942 206.661 119.114 207.12 119.18C207.326 119.17 207.531 119.208 207.72 119.29C207.838 119.376 207.936 119.487 208.007 119.614C208.078 119.742 208.12 119.884 208.13 120.03C208.31 120.74 208.28 121.77 207.55 121.87C207.355 121.863 207.164 121.813 206.991 121.723C206.818 121.633 206.667 121.506 206.55 121.35C205.324 120.259 204.226 119.031 203.28 117.69C202.09 115.61 201.245 113.351 200.78 111C200.49 109.87 200.24 108.56 200.96 107.64C201.307 107.249 201.737 106.941 202.22 106.74C203.77 106 207.88 104.15 208.27 106.88C208.57 109.28 206.74 112.2 207.9 114.63Z" fill="#FF979A"/>
<path d="M220.04 99.47C217.619 102.697 214.296 105.133 210.49 106.47C209.211 106.992 207.864 107.329 206.49 107.47C205.575 107.45 204.661 107.548 203.77 107.76C202.712 108.225 201.788 108.947 201.08 109.86C200.17 107.58 199.25 105.22 199.35 102.77C199.492 101.127 199.894 99.5172 200.54 98C201.77 94.76 203.37 91.48 206.17 89.43C208.389 87.9189 211.005 87.0977 213.69 87.07C215.638 87.0331 217.585 87.1973 219.5 87.56C221.56 87.93 221.94 88.2 222.28 90.32C222.724 93.5439 221.923 96.8156 220.04 99.47Z" fill="#FF979A"/>
<path d="M235.83 157.66C234.753 159.211 233.97 160.946 233.52 162.78C233.42 163.28 233.31 163.78 233.21 164.27C232.343 168.423 231.483 172.57 230.63 176.71C230.13 179.07 229.51 181.63 227.58 183.07C226.486 183.786 225.252 184.26 223.96 184.46C222.79 184.7 221.6 184.91 220.41 185.08C214.418 185.912 208.327 185.696 202.41 184.44C200.97 184.13 199.41 183.67 198.56 182.44C197.71 181.21 197.85 179.6 197.72 178.13C197.17 171.79 191.34 165.85 193.56 159.88C194.2 158.19 195.4 156.2 195.29 154.6C195.277 154.295 195.203 153.996 195.07 153.72C194.938 153.445 194.751 153.2 194.52 153C193.936 152.551 193.248 152.255 192.52 152.14C187.17 150.82 181.75 149.53 176.78 147.14C172.39 144.878 168.227 142.199 164.35 139.14L149.58 128.2C149.092 127.932 148.662 127.568 148.319 127.13C147.975 126.692 147.724 126.188 147.58 125.65C147.565 125.534 147.565 125.416 147.58 125.3C147.652 124.583 147.903 123.895 148.31 123.3L148.37 123.18C148.68 122.64 149 122.09 149.37 121.56C150.65 119.56 152.23 117.76 154.48 117.27C157.77 116.56 160.79 118.99 163.4 121.12C170.28 126.71 177.73 132.99 186.4 134.54C191.427 135.279 196.512 135.553 201.59 135.36C202.198 135.425 202.811 135.285 203.33 134.96C204.28 134.18 203.84 132.61 204.47 131.56C205.1 130.51 206.82 130.35 208.2 130.42C212.039 130.584 215.884 130.306 219.66 129.59C219.43 128.68 220.8 129.1 221.58 129.59C221.931 129.91 222.205 130.306 222.378 130.748C222.551 131.19 222.621 131.667 222.58 132.14C222.494 133.083 222.681 134.031 223.12 134.87C223.853 135.658 224.842 136.161 225.91 136.29C229.066 137.051 232.003 138.533 234.49 140.62C235.9 141.843 237.055 143.331 237.89 145C238.503 146.223 238.902 147.542 239.07 148.9C239.47 152.41 237.56 154.92 235.83 157.66Z" fill="#1A237E"/>
<path d="M195.53 154.44L195.28 154.62C195.267 154.315 195.193 154.016 195.06 153.74C194.928 153.465 194.741 153.22 194.51 153.02C193.926 152.571 193.238 152.275 192.51 152.16C187.16 150.84 181.74 149.55 176.77 147.16C172.38 144.898 168.217 142.219 164.34 139.16L149.58 128.2C149.092 127.932 148.662 127.568 148.319 127.13C147.975 126.692 147.724 126.188 147.58 125.65C147.565 125.534 147.565 125.416 147.58 125.3C147.77 124.615 148.014 123.946 148.31 123.3L148.37 123.18C148.378 122.846 148.475 122.52 148.651 122.235C148.827 121.95 149.075 121.717 149.37 121.56C150.8 120.8 154.57 123.77 163.18 131.7C178.07 145.39 192.79 143.17 195.53 147.44C198.27 151.71 195.53 154.44 195.53 154.44Z" fill="url(#paint1_linear)"/>
<path d="M269.1 185.04C268.702 187.145 268.157 189.22 267.47 191.25C267.47 191.33 267.42 191.42 267.39 191.51C267.189 192.317 266.771 193.054 266.18 193.64C265.676 193.973 265.109 194.2 264.514 194.309C263.92 194.417 263.309 194.404 262.72 194.27C257.434 193.634 252.521 191.219 248.79 187.42C247.348 185.896 246.012 184.275 244.79 182.57C240.5 176.8 236.1 170.79 233.18 164.27C231.534 160.728 230.441 156.954 229.94 153.08C229.94 152.75 229.87 152.39 229.84 152C229.67 149.5 229.84 146 231.97 144.68C233.64 143.61 235.97 144.11 237.88 145.12C238.756 145.564 239.556 146.145 240.25 146.84C242.53 149.18 243.65 152.39 244.76 155.47C246.84 161.2 249.2 166.9 252.84 171.77C256.48 176.64 261.53 180.71 267.45 182.1C267.88 182.166 268.29 182.326 268.65 182.57C268.927 182.91 269.114 183.315 269.193 183.747C269.272 184.179 269.24 184.624 269.1 185.04Z" fill="#1A237E"/>
<path d="M263.6 191.33C263.6 192.47 264.96 193.91 265.97 193.38C266.55 193.08 267.4 191.47 267.39 191.51C267.189 192.317 266.771 193.054 266.18 193.64C265.676 193.973 265.109 194.2 264.514 194.309C263.92 194.417 263.309 194.404 262.72 194.27C257.434 193.634 252.521 191.219 248.79 187.42C247.348 185.896 246.012 184.275 244.79 182.57C240.5 176.8 236.1 170.79 233.18 164.27C232.313 168.423 231.453 172.57 230.6 176.71C230.1 179.07 229.48 181.63 227.55 183.07C226.456 183.786 225.222 184.26 223.93 184.46C222.76 184.7 221.57 184.91 220.38 185.08C220.033 184.67 219.78 184.189 219.64 183.67C218.92 180.99 221.38 178.67 222.97 176.38C225.23 173.18 225.97 169.17 226.27 165.26C226.57 161.35 226.53 157.41 227.45 153.61C227.534 153.127 227.745 152.675 228.06 152.3C228.299 152.088 228.592 151.947 228.907 151.894C229.222 151.841 229.545 151.878 229.84 152C230.423 152.184 230.965 152.475 231.44 152.86C233.099 154.26 234.565 155.874 235.8 157.66C237.57 160.13 239.09 162.85 240.8 165.36C245.45 172.21 247.88 178.01 254.04 183.54C256.49 185.74 260.69 187.68 263.53 189.21C263.93 189.41 263.57 190.64 263.6 191.33Z" fill="url(#paint2_linear)"/>
<path d="M153.4 117.2C151.63 117.1 150.3 115.63 149.17 114.26L144.58 108.68C143.918 107.745 143.053 106.973 142.05 106.42C141.911 106.339 141.747 106.314 141.59 106.35C141.511 106.396 141.443 106.458 141.39 106.533C141.337 106.607 141.299 106.691 141.28 106.78C141.02 107.569 140.911 108.4 140.96 109.23C141.011 109.479 140.972 109.737 140.85 109.96C140.727 110.066 140.58 110.141 140.421 110.178C140.262 110.214 140.097 110.212 139.94 110.17L133.68 109.51C132.648 109.582 131.614 109.386 130.68 108.94C130.123 108.715 129.523 108.616 128.923 108.651C128.323 108.686 127.738 108.853 127.21 109.14C126.01 110.02 125.95 111.8 126.31 113.25C126.92 115.578 128.228 117.664 130.058 119.227C131.889 120.79 134.155 121.754 136.55 121.99C139.11 122.19 141.68 121.53 144.23 121.85C145.87 122.06 147.53 122.67 149.13 122.24C151.19 121.65 152.41 119.03 153.4 117.2Z" fill="#FFDAD2"/>
<path d="M202.91 296.88C202.4 299.46 201.51 302.52 198.72 302.97C198.092 303.051 197.453 302.991 196.851 302.794C196.249 302.597 195.698 302.267 195.24 301.83C193.3 300.08 192.83 297.54 192.43 295.1C186.3 257.83 186.61 218.83 199.05 183.17C208.05 183.17 217.32 183.08 226.27 183.06C226.647 182.977 227.038 182.977 227.416 183.058C227.794 183.14 228.149 183.302 228.458 183.534C228.768 183.765 229.024 184.061 229.208 184.4C229.393 184.739 229.503 185.115 229.53 185.5C240.71 222.67 246.26 262.5 237.91 300.39C237.19 303.67 235.61 307.62 232.13 307.66C231.456 307.647 230.792 307.494 230.181 307.21C229.569 306.926 229.024 306.517 228.58 306.01C226.78 304.01 226.42 301.42 226.11 298.89C223.77 279.53 221.04 241.75 214.87 223.25C213.54 224.01 206.49 278.81 202.91 296.88Z" fill="#3F3D56"/>
<path d="M279.29 180.47C279.4 180.468 279.507 180.507 279.59 180.58C279.613 180.63 279.624 180.685 279.624 180.74C279.624 180.795 279.613 180.85 279.59 180.9C279.24 182.43 276.95 182.8 276.48 184.29C276.451 184.364 276.451 184.446 276.48 184.52C276.513 184.569 276.555 184.611 276.605 184.642C276.655 184.673 276.712 184.693 276.77 184.7C278.87 185.15 281 184.28 283.1 183.83C284.749 183.513 286.421 183.329 288.1 183.28C289.121 183.18 290.149 183.18 291.17 183.28C291.448 183.294 291.714 183.395 291.93 183.57C292.042 183.708 292.114 183.874 292.141 184.05C292.167 184.225 292.146 184.405 292.08 184.57C291.914 184.905 291.679 185.202 291.39 185.44C289.324 187.419 287.059 189.179 284.63 190.69C283.013 191.849 281.148 192.615 279.183 192.928C277.218 193.24 275.207 193.09 273.31 192.49C270.96 191.98 268.65 191.24 266.31 190.95C266.105 190.941 265.904 190.89 265.72 190.8C265.534 190.678 265.388 190.504 265.3 190.3C265.069 189.826 264.941 189.308 264.923 188.781C264.906 188.253 265 187.728 265.2 187.24C265.98 185.24 267.2 184.47 269.2 183.93C271.45 183.3 273.41 181.93 275.58 181.11C276.758 180.64 278.022 180.422 279.29 180.47Z" fill="#FFDAD2"/>
<path d="M229.08 313.92C229.101 314.605 229.24 315.282 229.49 315.92C230.093 316.996 231.056 317.824 232.21 318.26C234.404 319.279 236.791 319.814 239.21 319.83C239.624 319.882 240.045 319.838 240.44 319.703C240.835 319.568 241.194 319.345 241.49 319.05C241.698 318.755 241.822 318.41 241.85 318.05C241.869 317.378 241.745 316.709 241.489 316.087C241.232 315.465 240.847 314.904 240.36 314.44C239.45 313.44 238.36 312.66 237.44 311.67C236.393 310.509 235.657 309.102 235.3 307.58C235.25 307.205 235.124 306.845 234.93 306.52C234.704 306.251 234.416 306.042 234.09 305.91C232.72 305.28 229.31 304.43 228.46 306.15C228.06 306.95 228.63 308.85 228.72 309.73L229.08 313.92Z" fill="#FFDAD2"/>
<path d="M189.81 311.05C188.93 312.05 187.95 313.27 188.27 314.56C188.461 315.109 188.821 315.584 189.3 315.914C189.778 316.245 190.349 316.415 190.93 316.4C192.09 316.355 193.226 316.058 194.26 315.53L197.88 314C198.954 313.681 199.886 313.004 200.52 312.08C200.796 311.45 200.932 310.768 200.92 310.08L201.32 302.87C201.37 301.87 201.32 300.7 200.57 300.08C198.5 298.44 195.22 300.49 194.57 302.57C193.644 305.72 192.016 308.619 189.81 311.05Z" fill="#FFDAD2"/>
<path d="M67.99 171.69C73.34 169.78 76.74 164.36 78.09 158.84C79.44 153.32 79.17 147.57 79.5 141.9C79.66 139.16 80.07 136.21 82 134.27" stroke="white" stroke-width="0.91" stroke-miterlimit="10"/>
<path d="M65.36 180.2L87.53 170.61C94.24 167.7 101.22 164.74 108.53 164.96" stroke="white" stroke-width="0.91" stroke-miterlimit="10"/>
<path d="M64.99 187.98C71.7 185.31 79.7 183.65 85.88 187.41C89.88 189.83 92.3 194.05 95.46 197.48C98.62 200.91 103.46 203.72 107.77 202.01" stroke="white" stroke-width="0.91" stroke-miterlimit="10"/>
<path d="M99.35 125.13C100.832 121.08 103.204 117.413 106.29 114.4" stroke="white" stroke-width="0.91" stroke-miterlimit="10"/>
<path d="M125.42 153.01C129.992 150.803 134.247 147.991 138.07 144.65" stroke="white" stroke-width="0.91" stroke-miterlimit="10"/>
<path opacity="0.56" d="M127.33 209.05L109.27 217.78V188.5L127.33 179.78V209.05Z" fill="#1A237E"/>
<path opacity="0.56" d="M125.79 171.06L107.73 179.78V150.5L125.79 141.78V171.06Z" fill="#1A237E"/>
<path opacity="0.56" d="M71.28 199.8L41.5 214.18V165.92L71.28 151.54V199.8Z" fill="#1A237E"/>
<path opacity="0.56" d="M99.61 141.79L81.55 150.51V121.24L99.61 112.52V141.79Z" fill="#1A237E"/>
</g>
<defs>
<linearGradient id="paint0_linear" x1="212.24" y1="99.28" x2="210.7" y2="150.63" gradientUnits="userSpaceOnUse">
<stop offset="0.01"/>
<stop offset="0.13" stop-opacity="0.69"/>
<stop offset="1" stop-opacity="0"/>
</linearGradient>
<linearGradient id="paint1_linear" x1="203.99" y1="74.95" x2="163.18" y2="156.33" gradientUnits="userSpaceOnUse">
<stop offset="0.01"/>
<stop offset="1" stop-opacity="0"/>
</linearGradient>
<linearGradient id="paint2_linear" x1="12355.4" y1="10472.2" x2="12132.1" y2="6365.37" gradientUnits="userSpaceOnUse">
<stop offset="0.01"/>
<stop offset="1" stop-opacity="0"/>
</linearGradient>
<clipPath id="clip0">
<rect width="380.06" height="346.61" fill="white"/>
</clipPath>
</defs>
</svg>
