<svg width="399" height="293" viewBox="0 0 399 293" fill="none" xmlns="http://www.w3.org/2000/svg">
<g clip-path="url(#clip0)">
<path opacity="0.18" d="M289.82 113.56C298.1 126.82 302.74 143.12 315.29 152.34C332.91 165.24 359.65 159.34 376.75 172.91C384.65 179.18 389.18 188.69 392.82 198.09C398.13 211.83 401.97 227.72 395.34 240.87C387.68 256.06 369.12 261.87 352.34 264.39C329.1 267.94 305.34 268.27 282.55 274.12C273.46 276.46 264.55 279.66 255.36 281.37C246.17 283.08 236.93 283.25 227.67 283.09C182.915 282.296 138.689 273.272 97.2 256.47C64.07 243.04 31.55 223.33 13.75 192.32C2.12218 171.923 -2.31194 148.21 1.16 124.99C3.1 112.29 7.49 99.82 14.97 89.4C25.46 74.82 41.52 64.82 58.56 59.08C75.6 53.34 93.71 51.46 111.68 50.51C148.77 48.51 195.57 45.18 229.92 61.51C240.16 66.39 247.68 73.04 255.92 80.58C267.74 91.34 281.2 99.82 289.82 113.56Z" fill="#1A237E"/>
<path opacity="0.43" d="M243.53 0H77.71C71.6238 0 66.69 4.93382 66.69 11.02V274.98C66.69 281.066 71.6238 286 77.71 286H243.53C249.616 286 254.55 281.066 254.55 274.98V11.02C254.55 4.93382 249.616 0 243.53 0Z" fill="#1A237E"/>
<path opacity="0.34" d="M249.66 196.05L250.91 215.2C248.403 214.25 246.104 212.824 244.14 211C233.29 201.76 225.95 189.19 218.97 176.82C213.037 166.267 207.227 155.657 201.54 144.99C199.46 141.1 197.3 137.07 193.83 134.34C197.1 132.49 201.19 131.44 204.59 133.04C208.74 134.99 210.3 139.93 212.46 143.97C214.71 148.18 217.94 151.77 220.81 155.58C224.524 160.509 227.648 165.855 230.12 171.51C230.545 172.646 231.138 173.711 231.88 174.67C233.024 175.788 234.386 176.659 235.88 177.23C240.412 179.341 244.813 181.722 249.06 184.36C250.555 185.199 251.906 186.273 253.06 187.54C254.463 189.286 255.13 191.51 254.92 193.74C254.58 197.67 252.71 195.82 249.66 196.05Z" fill="#1A237E"/>
<path opacity="0.34" d="M99.64 188.44C97.79 188.85 95.81 189.35 94.64 190.8C93.47 192.25 93.64 194.97 95.44 195.54C95.9573 195.662 96.4894 195.709 97.02 195.68C104.72 195.85 109.54 204.74 117.02 206.45C119.725 206.933 122.502 206.824 125.16 206.13C127.535 205.76 129.791 204.842 131.75 203.45C133.11 202.35 134.43 200.75 136.17 200.92C138.17 201.11 139.09 203.43 139.54 205.38C143.61 223.1 142.54 241.54 141.37 259.69C140.99 265.69 140.86 271.95 140.75 277.98C140.75 280.11 140.75 282.43 142.04 284.12C143.87 286.47 147.32 286.58 150.3 286.47C152.22 286.39 154.36 286.22 155.68 284.81C157 283.4 157.02 281.46 157.03 279.63C157.15 260.49 156.39 241.377 154.75 222.29C154.31 217.24 155.57 204.97 155.51 199.9C155.46 194.56 157.25 186.31 158.18 181.05C160.52 167.71 162.85 165.18 164.85 151.79C166.68 153.119 168.747 154.086 170.94 154.64C173.16 155.05 175.72 154.44 177 152.58C177.776 151.197 178.153 149.625 178.09 148.04C178.272 143.957 178.218 139.867 177.93 135.79C177.934 134.829 177.704 133.882 177.26 133.03C176.594 132.137 175.694 131.445 174.66 131.03L161.2 124.33C159.788 123.47 158.182 122.978 156.53 122.9C154.701 123.105 153.004 123.952 151.74 125.29C144.39 132.16 144.35 143.51 143.35 153.52C142.51 161.94 140.54 170.46 135.9 177.52C131.26 184.58 123.59 190.06 115.13 190.42C109.889 190.71 104.64 190.039 99.64 188.44Z" fill="#1A237E"/>
<path d="M130.47 28.42V78.48C130.47 79.9732 129.877 81.4052 128.821 82.461C127.765 83.5168 126.333 84.11 124.84 84.11H88.09C86.5968 84.11 85.1648 83.5168 84.109 82.461C83.0532 81.4052 82.46 79.9732 82.46 78.48V28.42C82.4705 26.9329 83.068 25.5101 84.1224 24.4613C85.1768 23.4125 86.6028 22.8226 88.09 22.82H124.84C126.327 22.8226 127.753 23.4125 128.808 24.4613C129.862 25.5101 130.459 26.9329 130.47 28.42Z" fill="#1A237E"/>
<path d="M128.03 199.28C127.41 200.205 126.529 200.925 125.5 201.35C124.464 201.571 123.387 201.484 122.4 201.1C114.76 198.8 107.862 194.526 102.4 188.71C103.104 187.147 104.026 185.693 105.14 184.39C108.691 185.83 112.462 186.651 116.29 186.82C116.811 186.888 117.341 186.797 117.81 186.56C118.128 186.316 118.385 186.001 118.56 185.64C120.36 182.58 122.027 179.447 123.56 176.24C125.56 171.99 127.56 167.35 131.56 164.86C131.914 164.598 132.339 164.448 132.78 164.43C133.236 164.488 133.666 164.676 134.02 164.97C137.02 166.97 140.38 169.27 141.76 172.79C142.95 175.79 141.66 177.71 140.11 180.28C136.14 186.75 132.83 193.33 128.03 199.28Z" fill="#1A237E"/>
<path d="M142.89 229.11C140.13 228.33 138.22 225.68 137.48 222.9C136.74 220.12 135.6 211.9 135.78 209.05C136.641 195.379 136.286 181.658 134.72 168.05C134.63 167.29 151.53 162.85 153.12 163.86C156.91 166.26 153.8 177.92 153.2 181.68C150.89 196.1 147.56 215.3 142.89 229.11Z" fill="#1A237E"/>
<path d="M231.77 35.05H147.65V40.66H231.77V35.05Z" fill="#1A237E"/>
<path d="M208.95 49.42H147.65V55.03H208.95V49.42Z" fill="#1A237E"/>
<path d="M231.77 62.39H147.65V68H231.77V62.39Z" fill="#1A237E"/>
<path d="M222.08 76.76H147.65V82.37H222.08V76.76Z" fill="#1A237E"/>
<path d="M231.6 94.46H82.99V100.07H231.6V94.46Z" fill="#1A237E"/>
<path d="M199.56 108.83H82.99V114.44H199.56V108.83Z" fill="#1A237E"/>
<path d="M231.6 121.79H82.99V127.4H231.6V121.79Z" fill="#1A237E"/>
<path d="M213.94 136.16H82.99V141.77H213.94V136.16Z" fill="#1A237E"/>
<path d="M257.93 209.58L250.93 213.09L200.29 132.35C203.29 130.91 204.83 130.35 207.29 128.21L257.93 209.58Z" fill="#1A237E"/>
<path d="M257.97 210.01L250.97 213.52L200.37 132.82C203.37 131.39 204.91 130.82 207.37 128.68L257.97 210.01Z" fill="url(#paint0_linear)"/>
<path d="M185.29 63.96C178.117 63.96 171.105 66.0869 165.141 70.0719C159.176 74.0568 154.527 79.7209 151.782 86.3478C149.036 92.9746 148.318 100.267 149.716 107.302C151.115 114.338 154.568 120.8 159.64 125.873C164.711 130.946 171.173 134.401 178.208 135.802C185.243 137.202 192.535 136.486 199.163 133.742C205.791 130.998 211.456 126.351 215.443 120.388C219.429 114.425 221.558 107.413 221.56 100.24C221.56 90.6197 217.739 81.3932 210.937 74.5897C204.136 67.7862 194.91 63.9626 185.29 63.96ZM184.56 129.88C178.701 129.882 172.974 128.146 168.101 124.893C163.229 121.64 159.431 117.014 157.188 111.602C154.944 106.19 154.356 100.234 155.498 94.4875C156.64 88.7412 159.46 83.4625 163.602 79.319C167.744 75.1756 173.022 72.3536 178.768 71.2099C184.514 70.0662 190.47 70.6521 195.883 72.8937C201.296 75.1353 205.922 78.9318 209.177 83.803C212.433 88.6742 214.17 94.4013 214.17 100.26C214.17 108.107 211.056 115.633 205.512 121.187C199.968 126.74 192.447 129.867 184.6 129.88H184.56Z" fill="#1A237E"/>
<path d="M185.29 63.96C178.117 63.96 171.105 66.0869 165.141 70.0719C159.176 74.0568 154.527 79.7209 151.782 86.3478C149.036 92.9746 148.318 100.267 149.716 107.302C151.115 114.338 154.568 120.8 159.64 125.873C164.711 130.946 171.173 134.401 178.208 135.802C185.243 137.202 192.535 136.486 199.163 133.742C205.791 130.998 211.456 126.351 215.443 120.388C219.429 114.425 221.558 107.413 221.56 100.24C221.56 90.6197 217.739 81.3932 210.937 74.5897C204.136 67.7862 194.91 63.9626 185.29 63.96ZM184.56 129.88C178.701 129.882 172.974 128.146 168.101 124.893C163.229 121.64 159.431 117.014 157.188 111.602C154.944 106.19 154.356 100.234 155.498 94.4875C156.64 88.7412 159.46 83.4625 163.602 79.319C167.744 75.1756 173.022 72.3536 178.768 71.2099C184.514 70.0662 190.47 70.6521 195.883 72.8937C201.296 75.1353 205.922 78.9318 209.177 83.803C212.433 88.6742 214.17 94.4013 214.17 100.26C214.17 108.107 211.056 115.633 205.512 121.187C199.968 126.74 192.447 129.867 184.6 129.88H184.56Z" fill="url(#paint1_linear)"/>
<path opacity="0.53" d="M214.21 100.26C214.212 106.119 212.476 111.847 209.222 116.72C205.968 121.592 201.342 125.39 195.93 127.633C190.517 129.876 184.561 130.464 178.814 129.321C173.067 128.179 167.789 125.358 163.645 121.214C159.502 117.071 156.681 111.793 155.539 106.046C154.396 100.299 154.983 94.343 157.227 88.9303C159.47 83.5175 163.268 78.8916 168.14 75.6377C173.013 72.3838 178.741 70.648 184.6 70.65C192.452 70.6526 199.982 73.7731 205.534 79.3255C211.087 84.8779 214.207 92.4077 214.21 100.26Z" fill="white" stroke="#1A237E" stroke-width="0.62" stroke-miterlimit="10"/>
<path d="M270.11 153.3C269.67 153.41 269.11 153.48 268.92 153.87C268.798 154.139 268.759 154.439 268.81 154.73L269.29 160.28C269.304 161.17 269.52 162.045 269.92 162.84C270.79 164.28 272.67 164.67 274.34 164.84C276.01 165.01 277.88 165.29 278.94 166.6C279.51 167.3 279.8 168.27 280.58 168.72C281.308 169.019 282.118 169.054 282.87 168.82C283.391 168.773 283.885 168.571 284.29 168.24C284.535 167.909 284.676 167.513 284.696 167.102C284.715 166.691 284.612 166.283 284.4 165.93C283.973 165.258 283.602 164.553 283.29 163.82C282.88 162.28 283.79 160.75 284.29 159.25C284.854 157.728 284.981 156.079 284.658 154.489C284.334 152.899 283.573 151.431 282.46 150.25C281.497 149.349 280.298 148.739 279.003 148.49C277.708 148.24 276.369 148.362 275.14 148.84C272.86 149.71 272.71 152.68 270.11 153.3Z" fill="url(#paint2_linear)"/>
<path d="M274.12 143.9C274.045 143.815 273.951 143.749 273.847 143.706C273.742 143.663 273.628 143.644 273.515 143.652C273.402 143.66 273.293 143.693 273.194 143.75C273.096 143.807 273.013 143.886 272.95 143.98C272.853 144.182 272.815 144.407 272.84 144.63C272.967 146.112 273.667 147.485 274.79 148.46C275.908 149.42 277.124 150.258 278.42 150.96C279.247 151.377 279.958 151.992 280.49 152.75C281.052 153.994 281.123 155.405 280.69 156.7C280.62 157.01 280.58 157.42 280.87 157.57C281.16 157.72 281.58 157.33 281.98 157.25C282.206 157.239 282.427 157.316 282.597 157.466C282.767 157.615 282.872 157.825 282.89 158.05C282.904 158.509 282.763 158.96 282.49 159.33C282.282 159.742 281.963 160.088 281.57 160.33C281.43 160.39 281.27 160.46 281.24 160.61C281.21 160.76 281.33 160.86 281.43 160.95C281.9 161.38 282.38 161.8 282.87 162.2C283.144 162.469 283.493 162.649 283.87 162.72C284.15 162.693 284.422 162.606 284.667 162.467C284.911 162.327 285.124 162.137 285.29 161.91L288.42 158.63C288.731 158.358 288.971 158.015 289.12 157.63C289.2 157.285 289.2 156.926 289.12 156.58C289.073 156.048 288.897 155.535 288.608 155.085C288.319 154.636 287.925 154.264 287.46 154C287.818 153.592 288.092 153.116 288.263 152.601C288.435 152.086 288.502 151.541 288.46 151C288.434 150.102 288.219 149.22 287.827 148.412C287.436 147.604 286.878 146.887 286.19 146.31C284.827 145.374 283.361 144.599 281.82 144C280.055 143.116 278.481 141.893 277.19 140.4C276.975 140.085 276.678 139.836 276.33 139.68C275.58 139.43 274.76 140.2 274.42 140.82C274.024 141.796 273.92 142.866 274.12 143.9Z" fill="#3E3E54"/>
<path d="M265.29 179.82C264.611 180.339 263.841 180.725 263.02 180.96C262.126 181.097 261.215 181.073 260.33 180.89C253.76 179.89 247.23 178.57 240.78 176.95C240.534 176.848 240.269 176.804 240.003 176.821C239.738 176.839 239.48 176.917 239.25 177.05C239.022 177.299 238.869 177.608 238.81 177.94L237.48 182.94C237.376 183.136 237.319 183.355 237.315 183.577C237.312 183.8 237.36 184.02 237.458 184.22C237.555 184.42 237.699 184.594 237.877 184.727C238.054 184.861 238.261 184.951 238.48 184.99C244.153 187.557 249.853 190.053 255.58 192.48C257.414 193.4 259.413 193.948 261.46 194.09C263.046 194.026 264.609 193.687 266.08 193.09C271.144 191.276 275.928 188.758 280.29 185.61L293.08 198.37C295.26 200.55 297.74 202.86 300.82 203.03C302.625 203.004 304.404 202.584 306.03 201.8C309.697 200.353 313.343 198.857 316.97 197.31C317.603 197.131 318.146 196.721 318.49 196.16C318.64 195.712 318.64 195.228 318.49 194.78C317.958 193.081 317.021 191.537 315.76 190.28C308.771 182.217 300.894 174.968 292.28 168.67C290.57 167.42 288.48 165.87 286.35 165.44C284.54 165.07 282.41 166.38 280.86 167.26C277.17 169.37 274.07 172.35 270.91 175.15C269.132 176.818 267.255 178.377 265.29 179.82Z" fill="#1A237E"/>
<path d="M266.99 267.04C266.763 267.41 266.632 267.83 266.607 268.262C266.583 268.695 266.666 269.127 266.85 269.52C267.281 269.987 267.876 270.27 268.51 270.31C270.759 270.701 273.054 270.759 275.32 270.48C277.39 263.99 281.16 258.19 284.88 252.48C290.48 243.867 296.083 235.263 301.69 226.67C308.16 216.73 314.69 206.67 318.58 195.46C318.35 196.13 308.94 198.02 307.68 198.46C304.89 199.46 301.04 200.59 298.6 202.34C293.36 206.12 290.13 215.6 287.27 221.26C279.75 236.19 273.37 251.62 266.99 267.04Z" fill="#3E3E54"/>
<path d="M266.99 267.04C266.763 267.41 266.632 267.83 266.607 268.262C266.583 268.695 266.666 269.127 266.85 269.52C267.281 269.987 267.876 270.27 268.51 270.31C270.759 270.701 273.054 270.759 275.32 270.48C277.39 263.99 281.16 258.19 284.88 252.48C290.48 243.867 296.083 235.263 301.69 226.67C308.16 216.73 314.69 206.67 318.58 195.46C318.35 196.13 308.94 198.02 307.68 198.46C304.89 199.46 301.04 200.59 298.6 202.34C293.36 206.12 290.13 215.6 287.27 221.26C279.75 236.19 273.37 251.62 266.99 267.04Z" fill="url(#paint3_linear)"/>
<path d="M301.85 232.29C301.839 233.665 302.176 235.021 302.83 236.231C303.484 237.441 304.433 238.466 305.59 239.21C314.86 246.99 324.69 254.08 334.51 261.21C337.197 260.203 339.494 258.368 341.07 255.97C333.457 250.592 326.291 244.61 319.64 238.08C318.05 236.57 316.38 234.89 316.05 232.73C315.78 230.97 316.46 229.22 317.05 227.53C319.16 221.24 319.93 214.6 320.69 208.01C321.11 204.36 321.49 200.48 319.86 197.19C319.58 196.535 319.127 195.968 318.55 195.55C317.45 194.85 316.02 195.1 314.76 195.42C310.837 196.332 307.02 197.649 303.37 199.35C300.37 200.84 300.3 202.13 300.37 205.35C300.5 214.31 300.87 223.3 301.85 232.29Z" fill="#3E3E54"/>
<path d="M268.1 269.37C265.59 270.11 263.59 271.95 261.68 273.73C261.08 274.29 260.43 275.16 260.89 275.84C261.043 276.012 261.229 276.151 261.437 276.249C261.645 276.347 261.87 276.402 262.1 276.41C264.238 276.758 266.41 276.852 268.57 276.69C269.87 276.646 271.143 276.304 272.29 275.69C272.859 275.379 273.334 274.921 273.665 274.363C273.996 273.805 274.17 273.169 274.17 272.52C274.076 271.83 273.774 271.184 273.304 270.67C272.834 270.155 272.219 269.796 271.54 269.64C270.168 269.357 268.74 269.548 267.49 270.18" fill="#3E3E54"/>
<path d="M332.34 262.33C331.34 263.27 330.25 264.66 330.85 265.92C331.092 266.313 331.438 266.631 331.849 266.841C332.259 267.051 332.72 267.144 333.18 267.11C334.653 266.965 336.066 266.453 337.29 265.62C340.29 263.93 343.47 262.37 346.29 260.41C342.92 252.45 336.58 258.42 332.34 262.33Z" fill="#3E3E54"/>
<path d="M231.04 172.12C230.759 171.881 230.442 171.689 230.1 171.55C229.859 171.468 229.603 171.441 229.351 171.47C229.098 171.5 228.855 171.585 228.64 171.72C228.253 172.021 227.96 172.427 227.797 172.89C227.634 173.353 227.607 173.853 227.72 174.33C227.86 175.33 228.3 176.21 228.49 177.17C228.528 178.137 228.799 179.08 229.28 179.92C230.06 180.611 231.079 180.969 232.12 180.92C234.37 181.12 238.86 181.83 237.75 177.92C237.09 175.6 232.86 173.52 231.04 172.12Z" fill="url(#paint4_linear)"/>
<path d="M122.37 84.11H89.81C87.87 81.59 90.9 72.03 91.95 69.53C92.4 68.46 99.28 58.53 99.65 59.21C97.53 55.56 95.33 51.66 95.46 47.43C95.61 42.14 99.68 37.43 104.7 35.74C110.21 33.92 117.34 36.26 119.11 41.74C119.643 43.6625 119.718 45.6831 119.33 47.64C118.525 52.4431 116.258 56.8811 112.84 60.35C118.04 61.98 120.41 67.89 121.74 73.17C122.47 76.18 123.11 81.09 122.37 84.11Z" fill="url(#paint5_linear)"/>
<path d="M159.09 114.02C159.09 115.16 159 116.44 158.09 117.18C157.698 117.467 157.235 117.639 156.751 117.678C156.267 117.717 155.782 117.621 155.35 117.4C154.49 116.948 153.76 116.284 153.23 115.47C152.571 114.585 152.027 113.621 151.61 112.6C151.057 111.241 150.814 109.775 150.9 108.31C150.931 107.561 151.115 106.826 151.44 106.15C151.828 105.468 152.396 104.906 153.082 104.525C153.768 104.144 154.546 103.959 155.33 103.99C156.92 104.05 159.16 105.09 159.13 106.86C159.13 109.24 159.12 111.63 159.09 114.02Z" fill="url(#paint6_linear)"/>
<path d="M156.18 120.94C155.97 121.63 155.86 122.55 156.49 122.89C156.764 123.009 157.064 123.054 157.36 123.02C158.187 122.968 159.015 123.092 159.791 123.383C160.567 123.675 161.272 124.127 161.86 124.71C162.71 125.769 163.209 127.065 163.29 128.42C163.42 129.75 163.37 131.1 163.56 132.42C163.86 134.42 168.56 137.73 168.9 136.82C169.68 134.619 169.92 132.263 169.6 129.95C169.49 129.15 169.41 128.16 170.08 127.74C170.475 127.55 170.926 127.507 171.35 127.62C172.659 127.823 173.925 128.238 175.1 128.85C174.62 130.03 176.84 140.53 176.66 143.11C175.96 153.27 163.43 145.11 161.3 143.94C160.71 143.63 160.06 143.01 160.3 142.4C159.79 146.21 159.09 150.27 158.58 154.08C158.14 157.34 157.64 160.76 155.7 163.42C154.106 165.42 152.002 166.954 149.61 167.86C144.29 170.11 137.79 170.3 133.06 167C132.084 166.394 131.301 165.524 130.8 164.49C130.455 163.475 130.332 162.397 130.44 161.33C130.664 154.52 131.548 147.749 133.08 141.11C134.27 135.93 136.08 130.54 140.13 127.11C143.99 123.89 151.16 121.51 156.18 120.94Z" fill="white"/>
<path d="M150.98 91.59C149.347 91.5793 147.729 91.908 146.23 92.5553C144.731 93.2025 143.382 94.1542 142.27 95.35C140.059 97.7622 138.376 100.61 137.33 103.71C136.33 106.41 135.51 109.26 133.79 111.58C131.47 114.72 127.79 116.48 124.49 118.58C121.19 120.68 117.95 123.58 117.49 127.5C117.24 129.66 117.92 131.85 117.66 134C117.34 136.62 115.66 139.28 116.72 141.71C117.131 142.586 117.77 143.336 118.57 143.88C120.196 145.033 122.141 145.653 124.135 145.653C126.129 145.653 128.074 145.033 129.7 143.88C133.14 141.32 134.46 136.71 137.64 133.83C141.13 130.67 146.24 130.08 150.18 127.52C152.277 126.133 153.985 124.234 155.143 122.003C156.302 119.772 156.872 117.283 156.8 114.77C156.73 112.92 156.3 111.03 156.8 109.25C157.3 107.47 158.57 106.17 159 104.46C159.54 102.36 158.64 98.46 157.92 96.4C156.98 93.54 153.88 91.74 150.98 91.59Z" fill="#3E3E54"/>
<path d="M169.51 125.28C169.189 124.87 168.951 124.401 168.81 123.9C168.742 123.648 168.775 123.38 168.902 123.152C169.029 122.924 169.24 122.754 169.49 122.68C169.729 122.687 169.967 122.663 170.2 122.61C170.327 122.548 170.44 122.459 170.53 122.35C170.733 122.174 170.974 122.046 171.234 121.977C171.494 121.907 171.766 121.898 172.03 121.95C172.296 122.011 172.543 122.133 172.753 122.307C172.963 122.48 173.13 122.701 173.24 122.95C173.393 122.93 173.549 122.951 173.691 123.01C173.833 123.07 173.957 123.167 174.05 123.29C174.23 123.538 174.346 123.827 174.39 124.13C174.407 124.315 174.469 124.494 174.57 124.65C174.66 124.77 174.8 124.83 174.9 124.94C174.995 125.086 175.058 125.251 175.086 125.423C175.113 125.595 175.105 125.771 175.06 125.94L174.79 128.01C174.786 128.09 174.765 128.168 174.73 128.24C174.59 128.48 174.23 128.43 173.96 128.35C173.245 128.15 172.511 128.029 171.77 127.99C170.02 127.91 170.29 126.57 169.51 125.28Z" fill="url(#paint7_linear)"/>
<path d="M137.13 231.82C137.098 232.245 137.16 232.671 137.31 233.07C137.8 234.17 139.31 234.44 140.65 234.51C143.254 234.642 145.864 234.588 148.46 234.35C149.059 234.355 149.643 234.162 150.12 233.8C150.359 233.513 150.477 233.144 150.451 232.772C150.425 232.399 150.256 232.051 149.98 231.8C149.394 231.269 148.692 230.882 147.93 230.67C147.166 230.46 146.457 230.088 145.85 229.58C145.239 228.899 144.923 228.004 144.97 227.09C144.97 226.19 145.09 225.3 144.97 224.41C144.97 224.332 144.954 224.255 144.921 224.184C144.888 224.113 144.84 224.05 144.78 224C144.667 223.937 144.539 223.909 144.41 223.92C142.74 223.87 138.62 223.18 137.41 224.57C136.2 225.96 137.15 230.12 137.13 231.82Z" fill="#3E3E54"/>
<path d="M100.01 180.16C99.6171 179.899 99.1683 179.735 98.7 179.68C98.0528 179.734 97.443 180.005 96.97 180.45C94.8125 182.13 92.9503 184.158 91.46 186.45C90.64 187.69 89.89 189.32 90.46 190.74C92.63 191.23 94.94 191.74 96.99 190.74C97.6691 190.331 98.3739 189.967 99.1 189.65C99.5311 189.513 99.9862 189.468 100.436 189.518C100.885 189.568 101.32 189.712 101.71 189.94C102.46 190.37 103.17 191.13 104 191.02C104.532 190.885 105 190.566 105.32 190.12C106.5 188.7 107.92 185.73 106.78 183.96C105.64 182.19 101.64 181.07 100.01 180.16Z" fill="#3E3E54"/>
<path d="M122.94 234.91L150.11 234.47V292.65H68.09V270.57H86.67V256.2H112.25V234.82L122.94 234.91Z" fill="#1A237E"/>
</g>
<defs>
<linearGradient id="paint0_linear" x1="200.37" y1="171.08" x2="257.97" y2="171.08" gradientUnits="userSpaceOnUse">
<stop stop-opacity="0"/>
<stop offset="0.99"/>
</linearGradient>
<linearGradient id="paint1_linear" x1="15370.8" y1="7885.95" x2="9880.99" y2="12359.5" gradientUnits="userSpaceOnUse">
<stop stop-opacity="0"/>
<stop offset="0.99"/>
</linearGradient>
<linearGradient id="paint2_linear" x1="268.79" y1="158.64" x2="284.85" y2="158.64" gradientUnits="userSpaceOnUse">
<stop stop-color="#E5C5D5"/>
<stop offset="0.42" stop-color="#EAD4D1"/>
<stop offset="1" stop-color="#F0E9CB"/>
</linearGradient>
<linearGradient id="paint3_linear" x1="14680.3" y1="20577.4" x2="16322.1" y2="19732.9" gradientUnits="userSpaceOnUse">
<stop stop-opacity="0"/>
<stop offset="0.99"/>
</linearGradient>
<linearGradient id="paint4_linear" x1="2584" y1="2123.76" x2="2689.3" y2="2123.76" gradientUnits="userSpaceOnUse">
<stop stop-color="#E5C5D5"/>
<stop offset="0.42" stop-color="#EAD4D1"/>
<stop offset="1" stop-color="#F0E9CB"/>
</linearGradient>
<linearGradient id="paint5_linear" x1="3839.1" y1="265.82" x2="3165.59" y2="11468.2" gradientUnits="userSpaceOnUse">
<stop stop-opacity="0"/>
<stop offset="0.99"/>
</linearGradient>
<linearGradient id="paint6_linear" x1="1409.65" y1="1981.16" x2="1477.69" y2="1981.16" gradientUnits="userSpaceOnUse">
<stop stop-color="#E5C5D5"/>
<stop offset="0.42" stop-color="#EAD4D1"/>
<stop offset="1" stop-color="#F0E9CB"/>
</linearGradient>
<linearGradient id="paint7_linear" x1="1247.41" y1="1105.55" x2="1287.33" y2="1105.55" gradientUnits="userSpaceOnUse">
<stop stop-color="#E5C5D5"/>
<stop offset="0.42" stop-color="#EAD4D1"/>
<stop offset="1" stop-color="#F0E9CB"/>
</linearGradient>
<clipPath id="clip0">
<rect width="398.9" height="292.66" fill="white"/>
</clipPath>
</defs>
</svg>
