<svg width="564" height="425" viewBox="0 0 564 425" fill="none" xmlns="http://www.w3.org/2000/svg">
<g clip-path="url(#clip0)">
<path opacity="0.24" d="M72.9633 108.247C53.2133 129.917 29.1333 148.247 14.5533 173.697C-11.2567 218.717 -0.736723 278.337 30.3933 319.867C49.8133 345.787 75.9633 365.727 101.753 385.327C114.943 395.327 128.303 405.467 143.483 412.097C158.183 418.507 174.153 421.457 190.093 423.237C206.263 425.057 222.743 425.717 238.703 422.507C262.633 417.697 284.003 404.507 307.223 396.937C361.833 379.157 420.933 393.777 478.333 395.887C489.983 396.317 501.893 396.177 512.963 392.507C541.793 382.947 558.123 351.507 561.963 321.397C565.803 291.287 560.093 260.797 560.073 230.397C560.073 201.127 565.283 171.897 563.243 142.697C561.203 113.497 550.153 82.7767 525.553 66.8667C514.683 59.8667 502.013 56.2167 489.553 52.7067C421.663 33.5267 353.283 14.2867 283.023 5.86666C229.483 -0.54334 184.173 -9.69334 140.913 27.8167C114.223 50.9967 96.6033 82.3167 72.9633 108.247Z" fill="#1A237E"/>
<path d="M382.01 357.61C372.18 354.87 362.6 350.97 352.47 349.66C343.33 348.48 334.06 349.45 324.9 350.42L206 363C202.83 363.34 198.79 364.53 198.62 367.72C198.661 368.946 199.065 370.133 199.78 371.13C206.62 382.39 220 388.28 233.1 389.66C246.2 391.04 259.35 388.58 272.39 386.75C301.035 382.731 330.018 381.669 358.88 383.58C400.59 386.35 446.23 394.44 481.25 371.58C448.2 367.32 414.43 366.62 382.01 357.61Z" fill="url(#paint0_linear)"/>
<path d="M168.89 99.05C168.89 99.05 171.52 79.77 190.98 72.23C210.44 64.69 229.37 80.82 233.23 95.72C237.09 110.62 168.89 99.05 168.89 99.05Z" fill="#1A237E"/>
<path d="M202.83 132.65C216.433 132.65 227.46 121.623 227.46 108.02C227.46 94.4172 216.433 83.39 202.83 83.39C189.227 83.39 178.2 94.4172 178.2 108.02C178.2 121.623 189.227 132.65 202.83 132.65Z" fill="white"/>
<path opacity="0.26" d="M278.24 292.04H138.5C136.716 292.04 135.27 293.486 135.27 295.27C135.27 297.054 136.716 298.5 138.5 298.5H278.24C280.024 298.5 281.47 297.054 281.47 295.27C281.47 293.486 280.024 292.04 278.24 292.04Z" fill="url(#paint1_linear)"/>
<path d="M304.55 341.36L176.8 342.74C172.13 342.793 167.478 342.145 163 340.82C156.293 338.851 150.098 335.438 144.85 330.82C137.72 324.48 129.34 316.82 123.71 310.82C115.71 302.31 106.98 283.67 104.44 263.27C103.144 253.555 103.567 243.688 105.69 234.12C112.69 204.34 105.69 147.99 105.69 147.99L295.92 147.2L295.13 166.76C292.82 199.68 304.55 341.36 304.55 341.36Z" fill="#1A237E"/>
<path d="M163.03 340.82C156.323 338.851 150.128 335.438 144.88 330.82C137.75 324.48 129.37 316.82 123.74 310.82C115.74 302.31 107.01 283.67 104.47 263.27C109.6 267.27 113.02 273.32 118.36 277.2C123.36 280.87 129.58 282.29 135.67 283.33C144.383 284.866 153.19 285.815 162.03 286.17L159.15 321.58C158.73 326.79 158.65 331.58 160.77 336.47C161.36 337.86 162.28 339.32 163.03 340.82Z" fill="url(#paint2_linear)"/>
<path d="M108.85 168C108.85 168 217.47 171.52 243.85 170.35C260.495 169.673 277.165 170.063 293.76 171.52L295.91 147.25L105.72 148L108.85 168Z" fill="url(#paint3_linear)"/>
<path d="M105.72 148L112.37 139.38L288.13 138.99L295.95 147.21L105.72 148Z" fill="#1A237E"/>
<path opacity="0.26" d="M105.72 148L112.37 139.38L288.13 138.99L295.95 147.21L105.72 148Z" fill="url(#paint4_linear)"/>
<path opacity="0.26" d="M275.11 195.75H135.37C133.586 195.75 132.14 197.196 132.14 198.98C132.14 200.764 133.586 202.21 135.37 202.21H275.11C276.894 202.21 278.34 200.764 278.34 198.98C278.34 197.196 276.894 195.75 275.11 195.75Z" fill="url(#paint5_linear)"/>
<path opacity="0.26" d="M275.11 220.02H135.37C133.586 220.02 132.14 221.466 132.14 223.25C132.14 225.034 133.586 226.48 135.37 226.48H275.11C276.894 226.48 278.34 225.034 278.34 223.25C278.34 221.466 276.894 220.02 275.11 220.02Z" fill="url(#paint6_linear)"/>
<path opacity="0.26" d="M275.11 244.29H135.37C133.586 244.29 132.14 245.736 132.14 247.52C132.14 249.304 133.586 250.75 135.37 250.75H275.11C276.894 250.75 278.34 249.304 278.34 247.52C278.34 245.736 276.894 244.29 275.11 244.29Z" fill="url(#paint7_linear)"/>
<path opacity="0.26" d="M275.11 268.56H135.37C133.586 268.56 132.14 270.006 132.14 271.79C132.14 273.574 133.586 275.02 135.37 275.02H275.11C276.894 275.02 278.34 273.574 278.34 271.79C278.34 270.006 276.894 268.56 275.11 268.56Z" fill="url(#paint8_linear)"/>
<path d="M105.72 148L112.37 139.38L288.13 138.99L295.95 147.21L105.72 148Z" fill="#1A237E"/>
<path d="M175.9 126.57L168.36 140.57C168.36 140.57 167.49 142.85 171.87 142.15L180.64 131.45L175.9 126.57Z" fill="#1A237E"/>
<path d="M227.02 126.57L234.56 140.57C234.56 140.57 235.44 142.85 231.05 142.15L222.29 131.45L227.02 126.57Z" fill="#1A237E"/>
<path d="M175.9 126.57L168.36 140.57C168.36 140.57 167.49 142.85 171.87 142.15L180.64 131.45L175.9 126.57Z" fill="url(#paint9_linear)"/>
<path d="M227.02 126.57L234.56 140.57C234.56 140.57 235.44 142.85 231.05 142.15L222.29 131.45L227.02 126.57Z" fill="url(#paint10_linear)"/>
<path d="M201.67 74.15C210.518 74.0831 219.04 77.4875 225.407 83.6326C231.773 89.7778 235.477 98.1738 235.723 107.019C235.969 115.864 232.738 124.453 226.723 130.942C220.708 137.432 212.388 141.305 203.55 141.73C199.025 141.999 194.492 141.356 190.221 139.838C185.95 138.321 182.027 135.96 178.686 132.897C175.345 129.833 172.654 126.129 170.773 122.005C168.892 117.881 167.859 113.421 167.736 108.89C167.612 104.359 168.401 99.8492 170.055 95.629C171.709 91.4087 174.195 87.564 177.364 84.3233C180.533 81.0826 184.322 78.512 188.504 76.7644C192.686 75.0167 197.177 74.1277 201.71 74.15H201.67ZM225.23 107.83C225.151 101.611 222.618 95.6751 218.183 91.3148C213.748 86.9546 207.769 84.5231 201.55 84.55C195.349 84.5752 189.412 87.0626 185.046 91.465C180.679 95.8674 178.24 101.824 178.265 108.025C178.29 114.226 180.778 120.163 185.18 124.529C189.582 128.896 195.539 131.335 201.74 131.31C207.961 131.286 213.92 128.805 218.32 124.407C222.72 120.009 225.204 114.051 225.23 107.83Z" fill="#1A237E"/>
<path d="M218.18 74.43C219.56 71.34 224.25 69.13 228.18 69.63C230.466 69.8457 232.616 70.8108 234.296 72.3752C235.976 73.9396 237.092 76.0156 237.47 78.28C238.15 82.09 236.32 86.93 233.59 88.28C229.817 82.3409 224.487 77.5505 218.18 74.43Z" fill="#1A237E"/>
<path d="M169.82 88.16C168.218 86.8937 167.033 85.1766 166.416 83.2303C165.8 81.284 165.78 79.1976 166.36 77.24C166.901 75.3654 167.954 73.6789 169.401 72.3699C170.848 71.0609 172.631 70.1813 174.55 69.83C176.573 69.4634 178.658 69.6882 180.556 70.4776C182.454 71.2669 184.084 72.5872 185.25 74.28C178.941 77.418 173.606 82.2167 169.82 88.16Z" fill="#1A237E"/>
<path d="M214.75 93C216.54 94.75 216.54 94.75 214.88 96.4C211.88 99.4 208.88 102.4 205.88 105.4C205.611 105.612 205.414 105.9 205.314 106.227C205.214 106.554 205.216 106.904 205.32 107.23C205.571 108.126 205.461 109.085 205.012 109.901C204.563 110.717 203.812 111.323 202.92 111.59C202.041 111.896 201.079 111.86 200.225 111.489C199.371 111.119 198.687 110.441 198.31 109.59C198.155 109.204 197.921 108.854 197.623 108.563C197.325 108.272 196.97 108.046 196.58 107.9C193.52 106.56 190.49 105.15 187.43 103.81C186.61 103.46 186.43 103.08 186.76 102.22C188.25 98.89 187.76 99.37 190.68 100.63C193.34 101.78 195.95 103.04 198.62 104.18C199.27 104.362 199.947 104.426 200.62 104.37C200.98 104.37 201.37 104.18 201.7 104.27C203.01 104.62 203.8 103.93 204.64 103.07C207.64 100 210.71 96.98 213.76 93.94C214.07 93.58 214.39 93.29 214.75 93Z" fill="#1A237E"/>
<path d="M201.67 74.15C210.518 74.0831 219.04 77.4875 225.407 83.6326C231.773 89.7778 235.477 98.1738 235.723 107.019C235.969 115.864 232.738 124.453 226.723 130.942C220.708 137.432 212.388 141.305 203.55 141.73C199.025 141.999 194.492 141.356 190.221 139.838C185.95 138.321 182.027 135.96 178.686 132.897C175.345 129.833 172.654 126.129 170.773 122.005C168.892 117.881 167.859 113.421 167.736 108.89C167.612 104.359 168.401 99.8492 170.055 95.629C171.709 91.4087 174.195 87.564 177.364 84.3233C180.533 81.0826 184.322 78.512 188.504 76.7644C192.686 75.0167 197.177 74.1277 201.71 74.15H201.67ZM225.23 107.83C225.151 101.611 222.618 95.6751 218.183 91.3148C213.748 86.9546 207.769 84.5231 201.55 84.55C195.349 84.5752 189.412 87.0626 185.046 91.465C180.679 95.8674 178.24 101.824 178.265 108.025C178.29 114.226 180.778 120.163 185.18 124.529C189.582 128.896 195.539 131.335 201.74 131.31C207.961 131.286 213.92 128.805 218.32 124.407C222.72 120.009 225.204 114.051 225.23 107.83Z" fill="url(#paint11_linear)"/>
<path d="M233.6 88.29C233.48 88.14 233.41 88.03 233.33 87.92C232.85 87.17 232.33 86.46 231.8 85.75C228.223 80.9448 223.55 77.0637 218.17 74.43C219.55 71.33 224.26 69.12 228.17 69.61C229.576 69.7803 230.935 70.2254 232.17 70.92C233.559 71.6541 234.758 72.7012 235.673 73.9786C236.587 75.2559 237.192 76.7285 237.44 78.28C238.15 82.09 236.32 86.94 233.6 88.29Z" fill="url(#paint12_linear)"/>
<path d="M233.6 88.29C233.48 88.14 233.41 88.03 233.33 87.92C232.81 87.17 232.33 86.46 231.8 85.75C228.66 81.49 225.04 77.75 220.18 75.33C221.57 72.22 226.27 70.02 230.18 70.51C230.858 70.5815 231.528 70.7188 232.18 70.92C233.569 71.6541 234.768 72.7012 235.683 73.9786C236.597 75.256 237.202 76.7286 237.45 78.28C238.15 82.09 236.32 86.94 233.6 88.29Z" fill="url(#paint13_linear)"/>
<path d="M185.25 74.28L184.58 74.62C183.42 75.2467 182.3 75.9133 181.22 76.62C181.03 76.74 180.84 76.85 180.69 76.96C177.156 79.3663 174.049 82.3475 171.5 85.78C171.5 85.78 171.43 85.89 171.39 85.93C170.825 86.6464 170.301 87.3943 169.82 88.17C168.212 86.8903 167.023 85.1597 166.405 83.2C165.787 81.2403 165.767 79.1406 166.35 77.17C166.783 75.5773 167.62 74.1236 168.78 72.95C170.29 71.2806 172.313 70.1617 174.53 69.77C176.562 69.4029 178.656 69.6337 180.559 70.4343C182.462 71.2349 184.092 72.5709 185.25 74.28Z" fill="url(#paint14_linear)"/>
<path d="M185.25 74.28L184.58 74.62C183.42 75.29 182.3 75.92 181.22 76.62C181.03 76.74 180.84 76.85 180.69 76.96C177.041 79.2212 173.909 82.2266 171.5 85.78C171.5 85.78 171.43 85.89 171.39 85.93C169.786 84.6636 168.602 82.9435 167.99 80.9939C167.378 79.0443 167.368 76.9556 167.96 75C168.134 74.2968 168.41 73.6229 168.78 73C170.29 71.3306 172.313 70.2117 174.53 69.82C176.557 69.4478 178.648 69.6709 180.551 70.4625C182.453 71.254 184.085 72.58 185.25 74.28Z" fill="url(#paint15_linear)"/>
<path d="M214.75 93C216.54 94.75 216.54 94.75 214.88 96.4C211.88 99.4 208.88 102.4 205.88 105.4C205.611 105.612 205.414 105.9 205.314 106.227C205.214 106.554 205.216 106.904 205.32 107.23C205.571 108.126 205.461 109.085 205.012 109.901C204.563 110.717 203.812 111.323 202.92 111.59C202.041 111.896 201.079 111.86 200.225 111.489C199.371 111.119 198.687 110.441 198.31 109.59C198.155 109.204 197.921 108.854 197.623 108.563C197.325 108.272 196.97 108.046 196.58 107.9C193.52 106.56 190.49 105.15 187.43 103.81C186.61 103.46 186.43 103.08 186.76 102.22C188.25 98.89 187.76 99.37 190.68 100.63C193.34 101.78 195.95 103.04 198.62 104.18C199.27 104.362 199.947 104.426 200.62 104.37C200.98 104.37 201.37 104.18 201.7 104.27C203.01 104.62 203.8 103.93 204.64 103.07C207.64 100 210.71 96.98 213.76 93.94C214.07 93.58 214.39 93.29 214.75 93Z" fill="url(#paint16_linear)"/>
<path d="M245.76 80.14C245.323 80.1395 244.899 79.9848 244.565 79.7031C244.23 79.4215 244.005 79.0309 243.93 78.6C242.93 73.17 240.66 69.16 237.05 66.68C230.93 62.48 223.05 63.97 222.98 63.98C222.494 64.073 221.992 63.9698 221.582 63.693C221.172 63.4163 220.889 62.9885 220.793 62.5033C220.698 62.0181 220.799 61.515 221.074 61.1039C221.349 60.6929 221.775 60.4074 222.26 60.31C222.65 60.23 231.77 58.52 239.17 63.6C243.63 66.67 246.47 71.5 247.6 77.95C247.643 78.191 247.638 78.4382 247.586 78.6773C247.533 78.9165 247.434 79.1429 247.294 79.3436C247.153 79.5443 246.975 79.7153 246.768 79.8468C246.562 79.9783 246.331 80.0678 246.09 80.11L245.76 80.14Z" fill="#1A237E"/>
<path d="M255.44 77.17C254.831 77.1691 254.242 76.9527 253.777 76.5592C253.312 76.1658 253.002 75.6205 252.9 75.02C251.58 67.49 248.37 61.94 243.36 58.5C234.87 52.67 223.96 54.73 223.85 54.74C223.512 54.8176 223.162 54.8264 222.82 54.766C222.478 54.7056 222.152 54.5772 221.861 54.3884C221.57 54.1996 221.32 53.9543 221.126 53.667C220.931 53.3796 220.797 53.0562 220.73 52.7158C220.663 52.3754 220.665 52.0251 220.736 51.6855C220.807 51.3459 220.945 51.0241 221.143 50.7391C221.341 50.454 221.594 50.2117 221.887 50.0263C222.18 49.8409 222.508 49.7164 222.85 49.66C223.4 49.55 236.04 47.18 246.31 54.23C252.5 58.48 256.44 65.17 258.01 74.13C258.069 74.4656 258.061 74.8095 257.987 75.142C257.913 75.4745 257.774 75.7891 257.578 76.0678C257.382 76.3465 257.132 76.5838 256.845 76.766C256.557 76.9483 256.236 77.072 255.9 77.13C255.748 77.1593 255.594 77.1727 255.44 77.17Z" fill="#1A237E"/>
<path d="M265.44 73.56C264.645 73.5597 263.876 73.2785 263.269 72.7661C262.661 72.2538 262.254 71.5433 262.12 70.76C260.4 60.95 256.22 53.7 249.69 49.23C238.63 41.63 224.4 44.32 224.26 44.33C223.825 44.416 223.378 44.4156 222.943 44.3287C222.509 44.2418 222.096 44.0702 221.728 43.8237C221.359 43.5771 221.043 43.2605 220.798 42.8918C220.552 42.5232 220.381 42.1097 220.295 41.675C220.209 41.2403 220.209 40.793 220.296 40.3585C220.383 39.924 220.555 39.5108 220.801 39.1426C221.048 38.7745 221.365 38.4584 221.733 38.2126C222.102 37.9668 222.515 37.796 222.95 37.71C223.66 37.56 240.13 34.47 253.52 43.71C261.59 49.25 266.72 57.98 268.77 69.65C268.921 70.5328 268.717 71.4396 268.201 72.1722C267.686 72.9048 266.902 73.4037 266.02 73.56C265.827 73.5798 265.633 73.5798 265.44 73.56Z" fill="#1A237E"/>
<path d="M247.55 80C247.111 79.9991 246.687 79.843 246.352 79.5593C246.017 79.2757 245.793 78.8827 245.72 78.45C244.77 73.02 242.45 69.02 238.84 66.54C232.73 62.34 224.84 63.82 224.78 63.83C224.533 63.8962 224.275 63.9111 224.022 63.8736C223.769 63.8361 223.526 63.7471 223.309 63.6121C223.092 63.4771 222.904 63.2989 222.759 63.0886C222.613 62.8783 222.512 62.6404 222.462 62.3895C222.412 62.1387 222.414 61.8802 222.468 61.6301C222.522 61.38 222.626 61.1437 222.775 60.9356C222.924 60.7276 223.114 60.5523 223.333 60.4206C223.552 60.2889 223.796 60.2036 224.05 60.17C224.44 60.09 233.56 58.38 240.96 63.46C245.43 66.52 248.26 71.35 249.4 77.81C249.484 78.2979 249.371 78.7993 249.087 79.2042C248.802 79.6091 248.368 79.8845 247.88 79.97C247.771 79.9899 247.661 79.9999 247.55 80Z" fill="url(#paint17_linear)"/>
<path d="M257.19 77C256.582 76.9995 255.995 76.7845 255.53 76.3931C255.065 76.0016 254.754 75.4587 254.65 74.86C253.33 67.33 250.12 61.77 245.11 58.33C236.63 52.5 225.71 54.57 225.6 54.58C224.936 54.6894 224.256 54.536 223.703 54.1523C223.15 53.7687 222.768 53.185 222.638 52.5247C222.508 51.8644 222.64 51.1794 223.006 50.6149C223.373 50.0503 223.944 49.6505 224.6 49.5C225.14 49.39 237.78 47.01 248.05 54.06C254.24 58.31 258.18 65.06 259.75 73.97C259.81 74.305 259.804 74.6486 259.731 74.9811C259.658 75.3136 259.52 75.6283 259.325 75.9072C259.129 76.186 258.881 76.4235 258.594 76.6059C258.306 76.7883 257.985 76.9121 257.65 76.97C257.498 76.9952 257.344 77.0053 257.19 77Z" fill="url(#paint18_linear)"/>
<path d="M267.19 73.38C266.397 73.3801 265.629 73.1003 265.022 72.59C264.414 72.0796 264.007 71.3714 263.87 70.59C262.15 60.77 257.97 53.53 251.45 49.05C240.38 41.45 226.16 44.14 226.01 44.16C225.144 44.3 224.258 44.098 223.539 43.5968C222.819 43.0955 222.322 42.3342 222.154 41.4737C221.985 40.6131 222.157 39.7207 222.634 38.9848C223.111 38.249 223.856 37.7273 224.71 37.53C225.41 37.39 241.89 34.3 255.27 43.53C263.34 49.07 268.48 57.8 270.52 69.53C270.596 69.966 270.586 70.4127 270.489 70.8447C270.393 71.2766 270.212 71.6854 269.958 72.0475C269.703 72.4097 269.38 72.7182 269.006 72.9554C268.633 73.1926 268.216 73.3539 267.78 73.43C267.582 73.4336 267.384 73.4169 267.19 73.38Z" fill="url(#paint19_linear)"/>
<path d="M453.71 79.94C454.535 76.9761 454.559 73.8463 453.78 70.87C452.856 67.7908 451.253 64.9579 449.09 62.58C449.09 62.58 445.5 61.33 442.56 62.48C439.62 63.63 443.78 68.91 443.39 71.42C443 73.93 440.6 66.93 439.18 67.55C437.76 68.17 441.39 77.8 444.1 79" fill="#C48067"/>
<path d="M344.79 163.53C344.79 163.53 337.09 158.02 335.73 156.09C334.37 154.16 339.17 148.29 337.73 147.01C336.29 145.73 331.1 143.06 331.61 140.51C332.12 137.96 340.81 143.82 344.75 146.76C348.69 149.7 352.27 157.47 352.27 157.47C352.27 157.47 351.31 165 344.79 163.53Z" fill="#C48067"/>
<path d="M439.8 137.35C439.34 141.78 438.69 147.26 437.93 153.29C434.42 181.93 428.65 223.35 428.19 226.01C427.89 227.78 423.56 228.5 417.99 228.57C410.71 228.63 401.26 227.52 395.99 226.01C389.717 224.119 383.635 221.648 377.82 218.63C377.82 218.63 388.55 132.5 390.61 131.15C392.67 129.8 407.23 128.66 407.23 128.66L424.13 129.25C424.13 129.25 429.27 127.71 433.8 126.73C437.05 126.04 439.97 125.61 440.59 126.23C440.85 126.5 440.55 130.76 439.8 137.35Z" fill="#1A237E"/>
<path d="M392.63 130.28C392.63 130.28 388.63 131.63 386.58 134.28C384.53 136.93 368.43 169.28 370.45 175.95C372.47 182.62 379.45 187.58 381.45 186.24C383.45 184.9 387.25 172.59 387.92 169.9C388.59 167.21 389.92 158.36 389.92 158.36L392.63 130.28Z" fill="#1A237E"/>
<path d="M458.79 110.85C459.32 117.48 441.87 146.01 438.59 152.21C438.39 152.57 438.16 152.93 437.93 153.29C434.13 158.71 425.27 161 425.27 161C425.195 160.869 425.141 160.728 425.11 160.58C422.58 154.58 428.35 136.73 428.35 136.73L433.83 126.73L443.18 109.54L443.55 80C443.55 80 444.34 77.18 449.2 76.55C451.95 76.19 453.26 76.72 453.92 77.21C454.179 77.4135 454.374 77.6879 454.48 78C454.48 78 458.2 103.18 458.79 110.85Z" fill="#1A237E"/>
<path d="M370.05 357.81C370.05 357.81 367.21 368.54 365.88 369.32C364.55 370.1 359.88 367.63 357.21 365.68C354.54 363.73 355.47 359.56 355.47 359.56L356.64 356.3L370.05 357.81Z" fill="#C48067"/>
<path d="M441.46 352.64C441.46 352.64 446.64 367.23 446.12 368.64C445.6 370.05 439.27 367.97 435.95 368.19C432.63 368.41 431.35 363.26 431.35 363.26L430.17 360L441.46 352.64Z" fill="#C48067"/>
<path d="M425.48 121.19C425.48 121.19 423.48 129.93 424.13 133.29C424.78 136.65 419.43 146.06 412.71 146.06C405.99 146.06 405.99 134.63 405.99 133.29C405.99 131.95 407.99 131.29 407.33 127.91C406.67 124.53 424.81 117.16 425.48 121.19Z" fill="#C48067"/>
<path d="M407.33 127.91C407.85 130.51 406.77 131.5 406.25 132.44C407.728 133.91 409.698 134.779 411.78 134.88C415.78 134.88 421.87 131.52 424.55 125.47C424.6 125.37 424.65 125.25 424.7 125.14C425.08 122.92 425.48 121.19 425.48 121.19C424.81 117.16 406.66 124.55 407.33 127.91Z" fill="#B5765E"/>
<path d="M424.01 132C424.01 132 418.59 144.69 414.01 146C414.01 146 412.75 146.67 416.11 148.69C419.47 150.71 428.88 140.62 427.54 133.23C427.384 132.294 426.99 131.414 426.397 130.673C425.803 129.932 425.03 129.356 424.15 129L424.01 132Z" fill="white"/>
<path d="M407.33 129.25C407.33 129.25 405.84 138.58 409.61 145.01C409.61 145.01 408 147.4 406.66 147.4C405.32 147.4 401.95 139.34 403.3 133.29C404.08 129.75 406.66 128.29 407.33 129.25Z" fill="white"/>
<path d="M428.17 226.05L420.82 284.51L443.68 360.12C443.68 360.12 439.48 362.45 430.74 361.78L399.74 287.02L399.3 239.49L389.22 280.49L369.9 360.42C369.9 360.42 360.06 362.58 354.27 358.42L367.04 280.49L377.79 218.65L428.17 226.05Z" fill="#606161"/>
<path d="M443.67 360.12C443.67 360.12 439.47 362.44 430.75 361.79L399.69 287L399.26 239.48L389.2 280.48L369.84 360.48C369.84 360.48 360.04 362.65 354.23 358.48L366.99 280.48L377.75 218.66L418.35 224.59L428.16 226.04L420.81 284.52L443.67 360.12Z" fill="url(#paint20_linear)"/>
<path d="M403.3 101.7C403.3 101.7 401.95 119.17 403.3 123.88C404.65 128.59 408.67 132.62 412.71 132.62C416.75 132.62 422.79 129.25 425.48 123.21C428.17 117.17 429.48 102.37 428.84 100.35C428.2 98.33 424.11 92 413.38 93C405.99 93.63 403.3 99 403.3 101.7Z" fill="#C48067"/>
<path d="M428.02 110.31C427.41 111.68 425.27 111.75 424.19 110.7C423.696 110.128 423.34 109.45 423.149 108.718C422.958 107.986 422.938 107.221 423.09 106.48C423.28 104.99 423.79 103.54 423.88 102.03C423.914 101.856 423.91 101.676 423.869 101.504C423.827 101.331 423.749 101.17 423.64 101.03C423.503 100.915 423.343 100.83 423.17 100.782C422.998 100.734 422.817 100.723 422.64 100.75C420.64 100.81 418.23 101.61 416.81 100.17C415.96 99.31 415.71 97.81 414.58 97.4C413.63 97.06 412.65 97.69 411.76 98.15C409.644 99.2328 407.194 99.4688 404.91 98.81C404.427 98.7149 403.998 98.4397 403.71 98.04C403.556 97.6913 403.514 97.3035 403.59 96.93C403.734 95.7248 404.137 94.5649 404.77 93.5295C405.404 92.494 406.253 91.6074 407.26 90.93C408.984 89.9163 410.896 89.2631 412.88 89.01C415.164 88.5982 417.472 88.331 419.79 88.21C421.023 88.0483 422.276 88.2067 423.43 88.67C424.504 89.3699 425.471 90.2222 426.3 91.2C427.62 92.43 429.3 93.29 430.3 94.78C431.11 96 432.89 95.96 433.51 98.92C434.04 101.51 434.4 104.13 434.84 106.73C435.28 109.33 434.2 112.02 433.65 114.61C432.53 119.92 432.53 119.92 430.65 121.73C429.493 122.725 428.2 123.55 426.81 124.18C426.573 124.346 426.304 124.462 426.02 124.521C425.736 124.579 425.444 124.579 425.16 124.52C424.61 124.33 424.4 123.42 424.94 123.21" fill="#606161"/>
<path d="M428.02 110.31C427.41 111.68 425.27 111.75 424.19 110.7C423.696 110.128 423.34 109.45 423.149 108.718C422.958 107.986 422.938 107.221 423.09 106.48C423.28 104.99 423.79 103.54 423.88 102.03C423.914 101.856 423.91 101.676 423.869 101.504C423.827 101.331 423.749 101.17 423.64 101.03C423.503 100.915 423.343 100.83 423.17 100.782C422.998 100.734 422.817 100.723 422.64 100.75C420.64 100.81 418.23 101.61 416.81 100.17C415.96 99.31 415.71 97.81 414.58 97.4C413.63 97.06 412.65 97.69 411.76 98.15C409.644 99.2328 407.194 99.4688 404.91 98.81C404.427 98.7149 403.998 98.4397 403.71 98.04C403.556 97.6913 403.514 97.3035 403.59 96.93C403.734 95.7248 404.137 94.5649 404.77 93.5295C405.404 92.494 406.253 91.6074 407.26 90.93C408.984 89.9163 410.896 89.2631 412.88 89.01C415.164 88.5982 417.472 88.331 419.79 88.21C421.023 88.0483 422.276 88.2067 423.43 88.67C424.504 89.3699 425.471 90.2222 426.3 91.2C427.62 92.43 429.3 93.29 430.3 94.78C431.11 96 432.89 95.96 433.51 98.92C434.04 101.51 434.4 104.13 434.84 106.73C435.28 109.33 434.2 112.02 433.65 114.61C432.53 119.92 432.53 119.92 430.65 121.73C429.493 122.725 428.2 123.55 426.81 124.18C426.573 124.346 426.304 124.462 426.02 124.521C425.736 124.579 425.444 124.579 425.16 124.52C424.61 124.33 424.4 123.42 424.94 123.21" fill="url(#paint21_linear)"/>
<path d="M425.77 113C425.77 113 426.44 109 429.13 110.31C431.82 111.62 428.46 119.05 427.13 119.72C426.529 120.091 425.836 120.288 425.13 120.29" fill="#C48067"/>
<path d="M382.01 186.61C380.21 190.29 376.8 193.9 372.89 191.5C357.55 182.06 342.55 163.26 342.55 163.26C342.598 161.704 342.937 160.171 343.55 158.74C344.176 157.327 345.143 156.092 346.365 155.146C347.587 154.2 349.025 153.572 350.55 153.32L379.67 177.92L382.67 180.51L383.1 180.88C383.78 181.47 383.29 184.06 382.01 186.61Z" fill="#1A237E"/>
<path d="M382.01 186.61L386.57 147.12L379.57 190.27L382.01 186.61Z" fill="url(#paint22_linear)"/>
<path d="M343.55 365.18C339.71 366.48 335.77 367.83 332.62 370.39C332.071 370.761 331.671 371.313 331.49 371.95C331.32 372.95 332.2 373.85 333.06 374.43C338.9 378.43 346.49 378.51 353.57 378.43C357.28 378.43 361.35 378.2 364.06 375.68C366.34 373.55 367.06 370.3 367.68 367.25C367.764 366.948 367.785 366.631 367.74 366.32C367.5 365.19 365.97 365.09 364.82 365.12C360.82 365.24 358.5 362.74 354.99 362.01C351.64 361.3 346.71 364.12 343.55 365.18Z" fill="#1A237E"/>
<path d="M423.4 371.34C420.15 373.78 416.84 376.34 414.65 379.73C414.244 380.251 414.038 380.9 414.07 381.56C414.23 382.56 415.34 383.13 416.34 383.42C423.14 385.42 430.34 383.07 437.07 380.76C440.57 379.56 444.38 378.1 446.16 374.85C447.65 372.12 447.32 368.8 446.95 365.71C446.932 365.397 446.85 365.091 446.71 364.81C446.13 363.81 444.64 364.2 443.56 364.6C439.77 365.97 436.81 364.32 433.25 364.73C429.86 365.11 426.06 369.34 423.4 371.34Z" fill="#1A237E"/>
<path d="M343.55 365.18C339.71 366.48 335.77 367.83 332.62 370.39C332.071 370.761 331.671 371.313 331.49 371.95C331.32 372.95 332.2 373.85 333.06 374.43C338.9 378.43 346.49 378.51 353.57 378.43C357.28 378.43 361.35 378.2 364.06 375.68C366.34 373.55 367.06 370.3 367.68 367.25C367.764 366.948 367.785 366.631 367.74 366.32C367.5 365.19 365.97 365.09 364.82 365.12C360.82 365.24 358.5 362.74 354.99 362.01C351.64 361.3 346.71 364.12 343.55 365.18Z" fill="url(#paint23_linear)"/>
<path d="M423.4 371.34C420.15 373.78 416.84 376.34 414.65 379.73C414.244 380.251 414.038 380.9 414.07 381.56C414.23 382.56 415.34 383.13 416.34 383.42C423.14 385.42 430.34 383.07 437.07 380.76C440.57 379.56 444.38 378.1 446.16 374.85C447.65 372.12 447.32 368.8 446.95 365.71C446.932 365.397 446.85 365.091 446.71 364.81C446.13 363.81 444.64 364.2 443.56 364.6C439.77 365.97 436.81 364.32 433.25 364.73C429.86 365.11 426.06 369.34 423.4 371.34Z" fill="url(#paint24_linear)"/>
<path d="M458.79 110.85C459.32 117.48 441.87 146.01 438.59 152.21C438.39 152.57 438.16 152.93 437.93 153.29C434.42 181.93 428.65 223.35 428.19 226.01L420.84 284.49L414.45 262.22L417.99 228.57L418.38 224.57C418.38 224.57 423.23 176.49 432.23 150.72C433.68 146.56 435.23 143.86 439.83 137.33C447.61 126.23 455.55 113.51 454.55 109C452.72 100.21 449.18 76.56 449.18 76.56L453.9 77.22C454.159 77.4235 454.354 77.6979 454.46 78.01C454.46 78.01 458.2 103.18 458.79 110.85Z" fill="url(#paint25_linear)"/>
<path d="M383.65 171.59L382.65 180.51L381.96 186.61C380.16 190.29 376.75 193.9 372.84 191.5C357.55 182.06 342.55 163.26 342.55 163.26C342.598 161.704 342.937 160.171 343.55 158.74C346.24 161.2 371.46 184.52 373.5 184.81C374.61 184.97 377.33 181.4 379.66 177.92C381.82 174.71 383.65 171.59 383.65 171.59Z" fill="url(#paint26_linear)"/>
</g>
<defs>
<linearGradient id="paint0_linear" x1="343.94" y1="308" x2="320.54" y2="668.76" gradientUnits="userSpaceOnUse">
<stop stop-color="#010101" stop-opacity="0"/>
<stop offset="0.95" stop-color="#010101"/>
</linearGradient>
<linearGradient id="paint1_linear" x1="30463" y1="1849.8" x2="30463.7" y2="2727.52" gradientUnits="userSpaceOnUse">
<stop stop-color="#010101" stop-opacity="0"/>
<stop offset="0.95" stop-color="#010101"/>
</linearGradient>
<linearGradient id="paint2_linear" x1="8209.76" y1="25499.6" x2="7093.98" y2="33263.3" gradientUnits="userSpaceOnUse">
<stop stop-color="#010101" stop-opacity="0"/>
<stop offset="0.95" stop-color="#010101"/>
</linearGradient>
<linearGradient id="paint3_linear" x1="38368.1" y1="3852.07" x2="38393.6" y2="12520.7" gradientUnits="userSpaceOnUse">
<stop stop-color="#010101" stop-opacity="0"/>
<stop offset="0.95" stop-color="#010101"/>
</linearGradient>
<linearGradient id="paint4_linear" x1="20216.8" y1="1431.83" x2="56404.3" y2="1431.83" gradientUnits="userSpaceOnUse">
<stop stop-color="#010101" stop-opacity="0"/>
<stop offset="0.95" stop-color="#010101"/>
</linearGradient>
<linearGradient id="paint5_linear" x1="30000.8" y1="1131.48" x2="30001.5" y2="2009.21" gradientUnits="userSpaceOnUse">
<stop stop-color="#010101" stop-opacity="0"/>
<stop offset="0.95" stop-color="#010101"/>
</linearGradient>
<linearGradient id="paint6_linear" x1="30000.8" y1="1312.53" x2="30001.5" y2="2190.26" gradientUnits="userSpaceOnUse">
<stop stop-color="#010101" stop-opacity="0"/>
<stop offset="0.95" stop-color="#010101"/>
</linearGradient>
<linearGradient id="paint7_linear" x1="30000.8" y1="1493.59" x2="30001.5" y2="2371.32" gradientUnits="userSpaceOnUse">
<stop stop-color="#010101" stop-opacity="0"/>
<stop offset="0.95" stop-color="#010101"/>
</linearGradient>
<linearGradient id="paint8_linear" x1="30000.8" y1="1674.64" x2="30001.5" y2="2552.36" gradientUnits="userSpaceOnUse">
<stop stop-color="#010101" stop-opacity="0"/>
<stop offset="0.95" stop-color="#010101"/>
</linearGradient>
<linearGradient id="paint9_linear" x1="2264.63" y1="3071.91" x2="2417.16" y2="3071.91" gradientUnits="userSpaceOnUse">
<stop stop-color="#010101" stop-opacity="0"/>
<stop offset="0.95" stop-color="#010101"/>
</linearGradient>
<linearGradient id="paint10_linear" x1="2983.7" y1="3071.91" x2="3136" y2="3071.91" gradientUnits="userSpaceOnUse">
<stop stop-color="#010101" stop-opacity="0"/>
<stop offset="0.95" stop-color="#010101"/>
</linearGradient>
<linearGradient id="paint11_linear" x1="14145" y1="7108.77" x2="13602.8" y2="20295.5" gradientUnits="userSpaceOnUse">
<stop stop-color="#010101" stop-opacity="0"/>
<stop offset="0.95" stop-color="#010101"/>
</linearGradient>
<linearGradient id="paint12_linear" x1="4693.19" y1="2038.09" x2="4547.14" y2="5698.15" gradientUnits="userSpaceOnUse">
<stop stop-color="#010101" stop-opacity="0"/>
<stop offset="0.95" stop-color="#010101"/>
</linearGradient>
<linearGradient id="paint13_linear" x1="4250.28" y1="1973.43" x2="4109.11" y2="5304.01" gradientUnits="userSpaceOnUse">
<stop stop-color="#010101" stop-opacity="0"/>
<stop offset="0.95" stop-color="#010101"/>
</linearGradient>
<linearGradient id="paint14_linear" x1="3609.14" y1="1979.7" x2="3465.11" y2="5603.15" gradientUnits="userSpaceOnUse">
<stop stop-color="#010101" stop-opacity="0"/>
<stop offset="0.95" stop-color="#010101"/>
</linearGradient>
<linearGradient id="paint15_linear" x1="3337.62" y1="1784.98" x2="3231.82" y2="4572.32" gradientUnits="userSpaceOnUse">
<stop stop-color="#010101" stop-opacity="0"/>
<stop offset="0.95" stop-color="#010101"/>
</linearGradient>
<linearGradient id="paint16_linear" x1="6228.68" y1="2047.2" x2="6132.07" y2="5715.17" gradientUnits="userSpaceOnUse">
<stop stop-color="#010101" stop-opacity="0"/>
<stop offset="0.95" stop-color="#010101"/>
</linearGradient>
<linearGradient id="paint17_linear" x1="6697.65" y1="1579.65" x2="6570.79" y2="4935.7" gradientUnits="userSpaceOnUse">
<stop stop-color="#010101" stop-opacity="0"/>
<stop offset="0.95" stop-color="#010101"/>
</linearGradient>
<linearGradient id="paint18_linear" x1="9324.39" y1="2163.94" x2="9147.06" y2="6818.57" gradientUnits="userSpaceOnUse">
<stop stop-color="#010101" stop-opacity="0"/>
<stop offset="0.95" stop-color="#010101"/>
</linearGradient>
<linearGradient id="paint19_linear" x1="12312" y1="2805.69" x2="12080.3" y2="8880.04" gradientUnits="userSpaceOnUse">
<stop stop-color="#010101" stop-opacity="0"/>
<stop offset="0.95" stop-color="#010101"/>
</linearGradient>
<linearGradient id="paint20_linear" x1="34499.7" y1="55733.2" x2="48171.3" y2="43047.2" gradientUnits="userSpaceOnUse">
<stop stop-color="#010101" stop-opacity="0"/>
<stop offset="0.95" stop-color="#010101"/>
</linearGradient>
<linearGradient id="paint21_linear" x1="13473.3" y1="5985.73" x2="14089.9" y2="5656.2" gradientUnits="userSpaceOnUse">
<stop stop-color="#010101" stop-opacity="0"/>
<stop offset="0.95" stop-color="#010101"/>
</linearGradient>
<linearGradient id="paint22_linear" x1="3028.23" y1="7394.6" x2="3462.96" y2="7405.63" gradientUnits="userSpaceOnUse">
<stop stop-color="#010101" stop-opacity="0"/>
<stop offset="0.95" stop-color="#010101"/>
</linearGradient>
<linearGradient id="paint23_linear" x1="12827.9" y1="6657.05" x2="13036.5" y2="9505.22" gradientUnits="userSpaceOnUse">
<stop stop-color="#010101" stop-opacity="0"/>
<stop offset="0.95" stop-color="#010101"/>
</linearGradient>
<linearGradient id="paint24_linear" x1="14440.4" y1="7720.02" x2="14772" y2="11148.1" gradientUnits="userSpaceOnUse">
<stop stop-color="#010101" stop-opacity="0"/>
<stop offset="0.95" stop-color="#010101"/>
</linearGradient>
<linearGradient id="paint25_linear" x1="17403" y1="48068.9" x2="29987" y2="48204.7" gradientUnits="userSpaceOnUse">
<stop stop-color="#010101" stop-opacity="0"/>
<stop offset="0.95" stop-color="#010101"/>
</linearGradient>
<linearGradient id="paint26_linear" x1="12739.5" y1="7721.19" x2="25864.5" y2="8534.66" gradientUnits="userSpaceOnUse">
<stop stop-color="#010101" stop-opacity="0"/>
<stop offset="0.95" stop-color="#010101"/>
</linearGradient>
<clipPath id="clip0">
<rect width="563.68" height="424.76" fill="white"/>
</clipPath>
</defs>
</svg>
