<svg width="511" height="372" viewBox="0 0 511 372" fill="none" xmlns="http://www.w3.org/2000/svg">
<g clip-path="url(#clip0)">
<path opacity="0.24" d="M493.4 331.34C491.49 341.34 487.19 350.59 479.81 357.61C459.32 377.1 426.66 371.47 398.81 366.66C349.843 358.162 299.966 356.188 250.48 360.79C194.58 365.99 136.41 379.31 83.6601 360.09C68.0596 354.558 54.4308 344.56 44.4701 331.34C43.5301 330.16 42.6501 328.95 41.8701 327.74C34.1301 316.54 28.7501 303.5 25.0501 289.42C24.6601 287.88 24.2901 286.31 23.9301 284.73C12.9301 236.64 21.5701 177.66 30.3201 137.47C34.1601 119.82 39.2101 102.3 47.7201 86.35C69.5101 45.35 112.42 18.59 157.49 7.48C202.56 -3.63 249.92 -0.749998 295.89 5.72C332.69 10.87 371.19 19.28 398.49 44.49C423.82 67.86 435.62 102.36 442.75 136.11C449.88 169.86 453.35 204.69 466.18 236.68C474.29 256.87 486.03 275.68 491.69 296.68C492.541 299.815 493.208 302.997 493.69 306.21C495.01 314.543 494.912 323.039 493.4 331.34Z" fill="#1A237E"/>
<path opacity="0.26" d="M493.4 331.34H43.4501L41.8801 327.74L25.05 289.42L23.05 284.76H23.96L479.75 274.53L493.67 306.16C495.002 314.508 494.911 323.022 493.4 331.34Z" fill="url(#paint0_linear)"/>
<path d="M121.91 84.23H20.45C15.8991 84.23 12.21 87.9169 12.21 92.465C12.21 97.0131 15.8991 100.7 20.45 100.7H121.91C126.461 100.7 130.15 97.0131 130.15 92.465C130.15 87.9169 126.461 84.23 121.91 84.23Z" stroke="#1A237E" stroke-width="0.68" stroke-miterlimit="10"/>
<path d="M243.34 84.23H141.88C137.329 84.23 133.64 87.9169 133.64 92.465C133.64 97.0131 137.329 100.7 141.88 100.7H243.34C247.891 100.7 251.58 97.0131 251.58 92.465C251.58 87.9169 247.891 84.23 243.34 84.23Z" stroke="#1A237E" stroke-width="0.68" stroke-miterlimit="10"/>
<path d="M364.77 84.23H263.31C258.759 84.23 255.07 87.9169 255.07 92.465C255.07 97.0131 258.759 100.7 263.31 100.7H364.77C369.321 100.7 373.01 97.0131 373.01 92.465C373.01 87.9169 369.321 84.23 364.77 84.23Z" stroke="#1A237E" stroke-width="0.68" stroke-miterlimit="10"/>
<path d="M486.2 84.23H384.74C380.189 84.23 376.5 87.9169 376.5 92.465C376.5 97.0131 380.189 100.7 384.74 100.7H486.2C490.751 100.7 494.44 97.0131 494.44 92.465C494.44 87.9169 490.751 84.23 486.2 84.23Z" stroke="#1A237E" stroke-width="0.68" stroke-miterlimit="10"/>
<path d="M495.52 64.92H14.91C6.67543 64.92 0 71.5954 0 79.83V282.64C0 290.875 6.67543 297.55 14.91 297.55H495.52C503.755 297.55 510.43 290.875 510.43 282.64V79.83C510.43 71.5954 503.755 64.92 495.52 64.92Z" fill="#1A237E"/>
<path d="M495.52 57.25H14.91C6.67543 57.25 0 63.9254 0 72.16V274.97C0 283.205 6.67543 289.88 14.91 289.88H495.52C503.755 289.88 510.43 283.205 510.43 274.97V72.16C510.43 63.9254 503.755 57.25 495.52 57.25Z" fill="url(#paint1_linear)"/>
<path opacity="0.26" d="M394.92 266.47C394.839 263.798 394.234 261.169 393.14 258.73C389.48 251.78 379.91 251.01 373.49 246.48C368.33 242.83 365.36 236.7 364.21 230.48C363.06 224.26 363.52 217.88 363.99 211.58C364.12 209.79 364.31 207.85 365.52 206.52C368.14 203.61 372.9 205.69 376.13 207.9L384.73 213.78C386.55 215.02 389.05 216.26 390.73 214.9C391.87 214 392.06 212.38 392.17 210.9L393.8 188.2C394.25 181.93 395.33 174.63 400.8 171.61C406.27 168.59 413.41 171.82 416.86 176.97C420.31 182.12 420.96 188.6 421.41 194.78C423.722 227.275 423.237 259.908 419.96 292.32C419.83 293.6 419.6 295.04 418.54 295.77C417.708 296.207 416.761 296.375 415.83 296.25C409.83 296.06 398.98 298.33 396.04 292.02C393.1 285.71 395.54 273.45 394.92 266.47Z" fill="url(#paint2_linear)"/>
<path d="M362.16 201.04L386.66 194.44L399.23 223.63L395.07 231.72L378.24 230.76L362.16 201.04Z" fill="url(#paint3_linear)"/>
<path d="M366.59 222.98C366.236 220.421 366.294 217.821 366.76 215.28C366.801 214.881 366.927 214.496 367.13 214.15C367.86 213.09 369.6 213.51 370.44 214.47C371.28 215.43 371.65 216.74 372.44 217.73C373.11 218.54 374.04 219.09 374.78 219.84C375.963 221.197 376.758 222.849 377.08 224.62C377.204 225.069 377.255 225.535 377.23 226C377.095 226.648 376.814 227.256 376.41 227.78C375.1 229.78 372.86 232.54 370.41 230.64C368.18 228.93 367.01 225.63 366.59 222.98Z" fill="url(#paint4_linear)"/>
<path opacity="0.68" d="M494.26 87.64H390.23C387.944 87.64 386.09 89.4936 386.09 91.78V100.54C386.09 102.826 387.944 104.68 390.23 104.68H494.26C496.546 104.68 498.4 102.826 498.4 100.54V91.78C498.4 89.4936 496.546 87.64 494.26 87.64Z" fill="#1A237E"/>
<path d="M117.14 110H21.48C17.3048 110 13.92 113.385 13.92 117.56V265.84C13.92 270.015 17.3048 273.4 21.48 273.4H117.14C121.315 273.4 124.7 270.015 124.7 265.84V117.56C124.7 113.385 121.315 110 117.14 110Z" fill="white"/>
<path d="M240.59 109.8H146.86C141.21 109.8 136.63 114.38 136.63 120.03V151.83C136.63 157.48 141.21 162.06 146.86 162.06H240.59C246.24 162.06 250.82 157.48 250.82 151.83V120.03C250.82 114.38 246.24 109.8 240.59 109.8Z" fill="white"/>
<path d="M240.4 169.87H147.05C141.295 169.87 136.63 174.535 136.63 180.29V213.66C136.63 219.415 141.295 224.08 147.05 224.08H240.4C246.155 224.08 250.82 219.415 250.82 213.66V180.29C250.82 174.535 246.155 169.87 240.4 169.87Z" fill="white"/>
<path d="M240.59 230.51H146.86C141.21 230.51 136.63 235.09 136.63 240.74V272.54C136.63 278.19 141.21 282.77 146.86 282.77H240.59C246.24 282.77 250.82 278.19 250.82 272.54V240.74C250.82 235.09 246.24 230.51 240.59 230.51Z" fill="white"/>
<path d="M366.67 111.5H271.86C266.508 111.5 262.17 115.838 262.17 121.19V123.05C262.17 128.402 266.508 132.74 271.86 132.74H366.67C372.022 132.74 376.36 128.402 376.36 123.05V121.19C376.36 115.838 372.022 111.5 366.67 111.5Z" fill="white"/>
<path d="M492.5 113.2H390.31C386.996 113.2 384.31 115.886 384.31 119.2V125.18C384.31 128.494 386.996 131.18 390.31 131.18H492.5C495.814 131.18 498.5 128.494 498.5 125.18V119.2C498.5 115.886 495.814 113.2 492.5 113.2Z" fill="white"/>
<path opacity="0.68" d="M121.13 87.64H17.48C15.199 87.64 13.35 89.4891 13.35 91.77V100.55C13.35 102.831 15.199 104.68 17.48 104.68H121.13C123.411 104.68 125.26 102.831 125.26 100.55V91.77C125.26 89.4891 123.411 87.64 121.13 87.64Z" fill="#1A237E"/>
<path opacity="0.93" d="M245.04 87.64H141.39C139.109 87.64 137.26 89.4891 137.26 91.77V100.55C137.26 102.831 139.109 104.68 141.39 104.68H245.04C247.321 104.68 249.17 102.831 249.17 100.55V91.77C249.17 89.4891 247.321 87.64 245.04 87.64Z" fill="#1A237E"/>
<path opacity="0.68" d="M370.7 87.64H266.67C264.384 87.64 262.53 89.4936 262.53 91.78V100.54C262.53 102.826 264.384 104.68 266.67 104.68H370.7C372.987 104.68 374.84 102.826 374.84 100.54V91.78C374.84 89.4936 372.987 87.64 370.7 87.64Z" fill="#1A237E"/>
<path opacity="0.26" d="M370.7 87.64H266.67C264.384 87.64 262.53 89.4936 262.53 91.78V100.54C262.53 102.826 264.384 104.68 266.67 104.68H370.7C372.987 104.68 374.84 102.826 374.84 100.54V91.78C374.84 89.4936 372.987 87.64 370.7 87.64Z" fill="url(#paint5_linear)"/>
<path opacity="0.26" d="M495.11 87.64H391.08C388.793 87.64 386.94 89.4936 386.94 91.78V100.54C386.94 102.826 388.793 104.68 391.08 104.68H495.11C497.396 104.68 499.25 102.826 499.25 100.54V91.78C499.25 89.4936 497.396 87.64 495.11 87.64Z" fill="url(#paint6_linear)"/>
<path opacity="0.26" d="M149.02 130.1C152.372 130.1 155.09 127.382 155.09 124.03C155.09 120.678 152.372 117.96 149.02 117.96C145.668 117.96 142.95 120.678 142.95 124.03C142.95 127.382 145.668 130.1 149.02 130.1Z" fill="url(#paint7_linear)"/>
<path opacity="0.26" d="M149.02 148.64C152.372 148.64 155.09 145.922 155.09 142.57C155.09 139.218 152.372 136.5 149.02 136.5C145.668 136.5 142.95 139.218 142.95 142.57C142.95 145.922 145.668 148.64 149.02 148.64Z" fill="url(#paint8_linear)"/>
<path opacity="0.68" d="M68.42 121.16H25.56C24.3064 121.16 23.29 122.176 23.29 123.43C23.29 124.684 24.3064 125.7 25.56 125.7H68.42C69.6737 125.7 70.69 124.684 70.69 123.43C70.69 122.176 69.6737 121.16 68.42 121.16Z" fill="#1A237E"/>
<path opacity="0.68" d="M65.05 134.79H25.56C24.3064 134.79 23.29 135.806 23.29 137.06C23.29 138.314 24.3064 139.33 25.56 139.33H65.05C66.3037 139.33 67.32 138.314 67.32 137.06C67.32 135.806 66.3037 134.79 65.05 134.79Z" fill="#1A237E"/>
<path opacity="0.68" d="M65.05 164.33H25.56C24.3064 164.33 23.29 165.346 23.29 166.6C23.29 167.854 24.3064 168.87 25.56 168.87H65.05C66.3037 168.87 67.32 167.854 67.32 166.6C67.32 165.346 66.3037 164.33 65.05 164.33Z" fill="#1A237E"/>
<path opacity="0.68" d="M100.71 175.69H25.56C24.3064 175.69 23.29 176.706 23.29 177.96C23.29 179.214 24.3064 180.23 25.56 180.23H100.71C101.964 180.23 102.98 179.214 102.98 177.96C102.98 176.706 101.964 175.69 100.71 175.69Z" fill="#1A237E"/>
<path opacity="0.68" d="M238.76 120.31H163.61C162.356 120.31 161.34 121.326 161.34 122.58C161.34 123.834 162.356 124.85 163.61 124.85H238.76C240.014 124.85 241.03 123.834 241.03 122.58C241.03 121.326 240.014 120.31 238.76 120.31Z" fill="#1A237E"/>
<path opacity="0.26" d="M274.56 129.04C277.912 129.04 280.63 126.322 280.63 122.97C280.63 119.618 277.912 116.9 274.56 116.9C271.208 116.9 268.49 119.618 268.49 122.97C268.49 126.322 271.208 129.04 274.56 129.04Z" fill="url(#paint9_linear)"/>
<path opacity="0.68" d="M364.31 119.24H289.16C287.906 119.24 286.89 120.256 286.89 121.51C286.89 122.764 287.906 123.78 289.16 123.78H364.31C365.564 123.78 366.58 122.764 366.58 121.51C366.58 120.256 365.564 119.24 364.31 119.24Z" fill="#1A237E"/>
<path opacity="0.26" d="M400.25 129.04C403.602 129.04 406.32 126.322 406.32 122.97C406.32 119.618 403.602 116.9 400.25 116.9C396.898 116.9 394.18 119.618 394.18 122.97C394.18 126.322 396.898 129.04 400.25 129.04Z" fill="url(#paint10_linear)"/>
<path opacity="0.68" d="M490 119.24H414.85C413.596 119.24 412.58 120.256 412.58 121.51C412.58 122.764 413.596 123.78 414.85 123.78H490C491.254 123.78 492.27 122.764 492.27 121.51C492.27 120.256 491.254 119.24 490 119.24Z" fill="#1A237E"/>
<path d="M366.67 136.64H271.86C266.508 136.64 262.17 140.978 262.17 146.33V148.19C262.17 153.542 266.508 157.88 271.86 157.88H366.67C372.022 157.88 376.36 153.542 376.36 148.19V146.33C376.36 140.978 372.022 136.64 366.67 136.64Z" fill="white"/>
<path opacity="0.26" d="M274.56 154.18C277.912 154.18 280.63 151.462 280.63 148.11C280.63 144.758 277.912 142.04 274.56 142.04C271.208 142.04 268.49 144.758 268.49 148.11C268.49 151.462 271.208 154.18 274.56 154.18Z" fill="url(#paint11_linear)"/>
<path opacity="0.68" d="M364.31 144.38H289.16C287.906 144.38 286.89 145.396 286.89 146.65C286.89 147.904 287.906 148.92 289.16 148.92H364.31C365.564 148.92 366.58 147.904 366.58 146.65C366.58 145.396 365.564 144.38 364.31 144.38Z" fill="#1A237E"/>
<path d="M366.67 161.78H271.86C266.508 161.78 262.17 166.118 262.17 171.47V173.33C262.17 178.682 266.508 183.02 271.86 183.02H366.67C372.022 183.02 376.36 178.682 376.36 173.33V171.47C376.36 166.118 372.022 161.78 366.67 161.78Z" fill="white"/>
<path opacity="0.26" d="M274.56 179.31C277.912 179.31 280.63 176.592 280.63 173.24C280.63 169.888 277.912 167.17 274.56 167.17C271.208 167.17 268.49 169.888 268.49 173.24C268.49 176.592 271.208 179.31 274.56 179.31Z" fill="url(#paint12_linear)"/>
<path opacity="0.68" d="M364.31 169.52H289.16C287.906 169.52 286.89 170.536 286.89 171.79C286.89 173.044 287.906 174.06 289.16 174.06H364.31C365.564 174.06 366.58 173.044 366.58 171.79C366.58 170.536 365.564 169.52 364.31 169.52Z" fill="#1A237E"/>
<path opacity="0.68" d="M225.66 139.62H163.41C162.267 139.62 161.34 140.547 161.34 141.69V142.09C161.34 143.233 162.267 144.16 163.41 144.16H225.66C226.803 144.16 227.73 143.233 227.73 142.09V141.69C227.73 140.547 226.803 139.62 225.66 139.62Z" fill="#1A237E"/>
<path opacity="0.26" d="M149.02 186.98C152.372 186.98 155.09 184.262 155.09 180.91C155.09 177.558 152.372 174.84 149.02 174.84C145.668 174.84 142.95 177.558 142.95 180.91C142.95 184.262 145.668 186.98 149.02 186.98Z" fill="url(#paint13_linear)"/>
<path opacity="0.68" d="M225.66 177.97H163.41C162.267 177.97 161.34 178.897 161.34 180.04V180.44C161.34 181.583 162.267 182.51 163.41 182.51H225.66C226.803 182.51 227.73 181.583 227.73 180.44V180.04C227.73 178.897 226.803 177.97 225.66 177.97Z" fill="#1A237E"/>
<path opacity="0.26" d="M149.02 203.17C152.372 203.17 155.09 200.452 155.09 197.1C155.09 193.748 152.372 191.03 149.02 191.03C145.668 191.03 142.95 193.748 142.95 197.1C142.95 200.452 145.668 203.17 149.02 203.17Z" fill="url(#paint14_linear)"/>
<path opacity="0.68" d="M225.66 194.16H163.41C162.267 194.16 161.34 195.087 161.34 196.23V196.63C161.34 197.773 162.267 198.7 163.41 198.7H225.66C226.803 198.7 227.73 197.773 227.73 196.63V196.23C227.73 195.087 226.803 194.16 225.66 194.16Z" fill="#1A237E"/>
<path opacity="0.26" d="M149.02 219.36C152.372 219.36 155.09 216.642 155.09 213.29C155.09 209.938 152.372 207.22 149.02 207.22C145.668 207.22 142.95 209.938 142.95 213.29C142.95 216.642 145.668 219.36 149.02 219.36Z" fill="url(#paint15_linear)"/>
<path opacity="0.68" d="M225.66 210.35H163.41C162.267 210.35 161.34 211.277 161.34 212.42V212.82C161.34 213.963 162.267 214.89 163.41 214.89H225.66C226.803 214.89 227.73 213.963 227.73 212.82V212.42C227.73 211.277 226.803 210.35 225.66 210.35Z" fill="#1A237E"/>
<path opacity="0.26" d="M149.02 248.76C152.372 248.76 155.09 246.042 155.09 242.69C155.09 239.338 152.372 236.62 149.02 236.62C145.668 236.62 142.95 239.338 142.95 242.69C142.95 246.042 145.668 248.76 149.02 248.76Z" fill="url(#paint16_linear)"/>
<path opacity="0.68" d="M225.66 239.75H163.41C162.267 239.75 161.34 240.677 161.34 241.82V242.22C161.34 243.363 162.267 244.29 163.41 244.29H225.66C226.803 244.29 227.73 243.363 227.73 242.22V241.82C227.73 240.677 226.803 239.75 225.66 239.75Z" fill="#1A237E"/>
<path opacity="0.26" d="M149.02 277.2C152.372 277.2 155.09 274.482 155.09 271.13C155.09 267.778 152.372 265.06 149.02 265.06C145.668 265.06 142.95 267.778 142.95 271.13C142.95 274.482 145.668 277.2 149.02 277.2Z" fill="url(#paint17_linear)"/>
<path opacity="0.68" d="M225.66 254.94H163.41C162.267 254.94 161.34 255.867 161.34 257.01V257.41C161.34 258.553 162.267 259.48 163.41 259.48H225.66C226.803 259.48 227.73 258.553 227.73 257.41V257.01C227.73 255.867 226.803 254.94 225.66 254.94Z" fill="#1A237E"/>
<path opacity="0.68" d="M225.66 269.71H163.41C162.267 269.71 161.34 270.637 161.34 271.78V272.18C161.34 273.323 162.267 274.25 163.41 274.25H225.66C226.803 274.25 227.73 273.323 227.73 272.18V271.78C227.73 270.637 226.803 269.71 225.66 269.71Z" fill="#1A237E"/>
<path opacity="0.68" d="M65.05 212.05H25.56C24.3064 212.05 23.29 213.066 23.29 214.32C23.29 215.574 24.3064 216.59 25.56 216.59H65.05C66.3037 216.59 67.32 215.574 67.32 214.32C67.32 213.066 66.3037 212.05 65.05 212.05Z" fill="#1A237E"/>
<path opacity="0.68" d="M100.71 223.41H25.56C24.3064 223.41 23.29 224.426 23.29 225.68C23.29 226.934 24.3064 227.95 25.56 227.95H100.71C101.964 227.95 102.98 226.934 102.98 225.68C102.98 224.426 101.964 223.41 100.71 223.41Z" fill="#1A237E"/>
<path d="M163.82 93.6H161.87V92.89H166.62V93.6H164.62V99.31H163.78L163.82 93.6Z" fill="white"/>
<path d="M169.25 99.31L169.18 98.73C169.016 98.9474 168.803 99.1225 168.557 99.2408C168.312 99.3591 168.042 99.4171 167.77 99.41C167.589 99.4239 167.407 99.3999 167.235 99.3397C167.064 99.2795 166.907 99.1843 166.775 99.0602C166.642 98.936 166.537 98.7857 166.465 98.6187C166.394 98.4517 166.358 98.2716 166.36 98.09C166.36 96.98 167.36 96.37 169.14 96.38V96.28C169.149 96.1394 169.127 95.9986 169.078 95.8667C169.028 95.7349 168.951 95.615 168.852 95.5149C168.753 95.4148 168.634 95.3368 168.503 95.286C168.371 95.2352 168.231 95.2127 168.09 95.22C167.666 95.2196 167.251 95.3373 166.89 95.56L166.7 95.01C167.155 94.7336 167.678 94.5915 168.21 94.6C169.62 94.6 169.96 95.6 169.96 96.48V98.21C169.953 98.5783 169.98 98.9465 170.04 99.31H169.25ZM169.12 96.96C168.21 96.96 167.12 97.1 167.12 97.96C167.111 98.0665 167.125 98.1736 167.162 98.274C167.198 98.3745 167.256 98.4658 167.331 98.5418C167.406 98.6178 167.496 98.6767 167.596 98.7144C167.696 98.752 167.803 98.7676 167.91 98.76C168.154 98.7658 168.393 98.6945 168.595 98.5562C168.796 98.418 168.948 98.2198 169.03 97.99C169.044 97.9005 169.044 97.8095 169.03 97.72L169.12 96.96Z" fill="white"/>
<path d="M171.17 98.45C171.501 98.6572 171.88 98.7744 172.27 98.79C172.88 98.79 173.17 98.48 173.17 98.1C173.17 97.72 172.93 97.48 172.31 97.25C171.48 96.96 171.09 96.5 171.09 95.95C171.098 95.7543 171.147 95.5624 171.233 95.3863C171.319 95.2103 171.44 95.054 171.59 94.9272C171.739 94.8004 171.913 94.7059 172.101 94.6495C172.288 94.5932 172.485 94.5764 172.68 94.6C173.077 94.5958 173.47 94.6921 173.82 94.88L173.61 95.49C173.326 95.3208 173.001 95.231 172.67 95.23C172.17 95.23 171.89 95.51 171.89 95.85C171.89 96.19 172.17 96.41 172.77 96.63C173.57 96.94 173.98 97.34 173.98 98.03C173.98 98.72 173.35 99.41 172.26 99.41C171.806 99.4173 171.358 99.307 170.96 99.09L171.17 98.45Z" fill="white"/>
<path d="M175.88 96.82C176 96.65 176.16 96.45 176.29 96.29L177.64 94.7H178.64L176.86 96.6L178.86 99.31H177.86L176.31 97.11L175.88 97.59V99.32H175.05V92.56H175.88V96.82Z" fill="white"/>
<path d="M182.47 93.41C182.473 93.4795 182.461 93.5489 182.436 93.6135C182.41 93.6781 182.37 93.7365 182.32 93.7848C182.27 93.833 182.21 93.87 182.145 93.8933C182.079 93.9167 182.009 93.9258 181.94 93.92C181.873 93.9214 181.806 93.9091 181.743 93.884C181.681 93.8588 181.624 93.8213 181.576 93.7737C181.529 93.726 181.491 93.6693 181.466 93.6068C181.441 93.5443 181.429 93.4774 181.43 93.41C181.429 93.34 181.441 93.2705 181.468 93.2056C181.494 93.1407 181.533 93.0817 181.582 93.0322C181.632 92.9827 181.691 92.9437 181.756 92.9176C181.821 92.8914 181.89 92.8786 181.96 92.88C182.029 92.8785 182.098 92.8913 182.162 92.9177C182.226 92.9441 182.283 92.9834 182.331 93.0332C182.379 93.083 182.416 93.1422 182.44 93.2071C182.464 93.2719 182.474 93.341 182.47 93.41ZM181.54 99.31V94.7H182.37V99.31H181.54Z" fill="white"/>
<path d="M183.75 95.95C183.75 95.47 183.75 95.08 183.75 94.7H184.5L184.55 95.46C184.704 95.1925 184.928 94.9715 185.197 94.8202C185.466 94.6689 185.771 94.5928 186.08 94.6C186.72 94.6 187.71 94.98 187.71 96.6V99.35H186.87V96.69C186.87 95.95 186.59 95.33 185.8 95.33C185.546 95.3334 185.299 95.419 185.097 95.574C184.895 95.729 184.749 95.9451 184.68 96.19C184.637 96.3155 184.617 96.4475 184.62 96.58V99.35H183.75V95.95Z" fill="white"/>
<path d="M191.09 92.97C191.616 92.8849 192.148 92.8447 192.68 92.85C193.325 92.8012 193.965 92.9897 194.48 93.38C194.665 93.549 194.812 93.7565 194.908 93.988C195.005 94.2195 195.05 94.4693 195.04 94.72C195.052 94.9694 195.015 95.2187 194.931 95.4538C194.847 95.6888 194.718 95.905 194.55 96.09C194.284 96.3398 193.968 96.5318 193.624 96.654C193.28 96.7761 192.914 96.8259 192.55 96.8C192.325 96.8077 192.1 96.7875 191.88 96.74V99.31H191.05L191.09 92.97ZM191.92 96.06C192.146 96.1133 192.378 96.1369 192.61 96.13C193.61 96.13 194.22 95.64 194.22 94.76C194.22 93.88 193.62 93.5 192.7 93.5C192.438 93.4923 192.176 93.5158 191.92 93.57V96.06Z" fill="white"/>
<path d="M195.98 96.11C195.98 95.57 195.98 95.11 195.98 94.67H196.71V95.58C196.79 95.301 196.955 95.0541 197.183 94.8746C197.411 94.6951 197.69 94.592 197.98 94.58C198.06 94.569 198.14 94.569 198.22 94.58V95.37C198.127 95.3585 198.033 95.3585 197.94 95.37C197.653 95.3788 197.38 95.4926 197.171 95.6899C196.963 95.8872 196.834 96.1541 196.81 96.44C196.799 96.5698 196.799 96.7002 196.81 96.83V99.29H195.99L195.98 96.11Z" fill="white"/>
<path d="M203.16 96.97C203.187 97.2844 203.147 97.601 203.043 97.8991C202.94 98.1972 202.775 98.4702 202.559 98.7003C202.343 98.9304 202.081 99.1125 201.79 99.2348C201.499 99.357 201.185 99.4167 200.87 99.41C200.565 99.4138 200.262 99.3539 199.982 99.2339C199.701 99.114 199.449 98.9369 199.241 98.7137C199.033 98.4906 198.874 98.2264 198.774 97.9382C198.674 97.65 198.635 97.3441 198.66 97.04C198.632 96.7261 198.67 96.4097 198.773 96.1116C198.875 95.8135 199.039 95.5404 199.254 95.3101C199.47 95.0798 199.731 94.8975 200.021 94.7752C200.312 94.6528 200.625 94.5931 200.94 94.6C201.246 94.5932 201.551 94.6511 201.833 94.7698C202.116 94.8886 202.37 95.0655 202.579 95.2891C202.789 95.5128 202.949 95.778 203.049 96.0677C203.149 96.3573 203.187 96.6648 203.16 96.97ZM199.51 96.97C199.51 97.97 200.09 98.74 200.91 98.74C201.73 98.74 202.31 97.98 202.31 96.95C202.31 96.17 201.92 95.18 200.93 95.18C199.94 95.18 199.51 96.11 199.51 97.02V96.97Z" fill="white"/>
<path d="M208.19 94.7C208.19 95.03 208.19 95.41 208.19 95.97V98.64C208.238 99.0185 208.204 99.4029 208.09 99.7671C207.977 100.131 207.785 100.467 207.53 100.75C207.062 101.137 206.466 101.334 205.86 101.3C205.325 101.315 204.796 101.184 204.33 100.92L204.53 100.28C204.943 100.52 205.412 100.645 205.89 100.64C206.74 100.64 207.37 100.2 207.37 99.03V98.52C207.217 98.7667 207.001 98.9681 206.745 99.1035C206.488 99.2388 206.2 99.3032 205.91 99.29C205.627 99.2845 205.349 99.2205 205.092 99.1022C204.835 98.9838 204.606 98.8136 204.418 98.6023C204.23 98.391 204.088 98.1431 204.001 97.8743C203.913 97.6054 203.882 97.3214 203.91 97.04C203.877 96.7422 203.905 96.4408 203.992 96.1543C204.08 95.8678 204.225 95.6021 204.419 95.3737C204.613 95.1452 204.851 94.9587 205.12 94.8257C205.388 94.6927 205.681 94.6159 205.98 94.6C206.271 94.5833 206.561 94.6496 206.816 94.7913C207.071 94.9329 207.28 95.144 207.42 95.4V94.7H208.19ZM207.32 96.52C207.341 96.3942 207.341 96.2658 207.32 96.14C207.251 95.8829 207.099 95.656 206.887 95.4949C206.675 95.3338 206.416 95.2476 206.15 95.25C205.35 95.25 204.78 95.93 204.78 97C204.78 97.9 205.24 98.65 206.14 98.65C206.4 98.65 206.653 98.5678 206.863 98.4151C207.073 98.2624 207.23 98.0471 207.31 97.8C207.349 97.6531 207.369 97.5019 207.37 97.35L207.32 96.52Z" fill="white"/>
<path d="M209.48 96.11C209.48 95.57 209.48 95.11 209.48 94.67H210.22V95.58C210.302 95.3002 210.469 95.053 210.699 94.8736C210.928 94.6941 211.209 94.5914 211.5 94.58C211.58 94.569 211.66 94.569 211.74 94.58V95.37C211.644 95.3586 211.546 95.3586 211.45 95.37C211.164 95.379 210.892 95.4932 210.685 95.6907C210.479 95.8881 210.352 96.155 210.33 96.44C210.319 96.5698 210.319 96.7002 210.33 96.83V99.29H209.5L209.48 96.11Z" fill="white"/>
<path d="M212.97 97.16C212.95 97.3733 212.978 97.5883 213.05 97.79C213.122 97.9916 213.237 98.1751 213.388 98.3275C213.538 98.4799 213.72 98.5976 213.921 98.6723C214.122 98.747 214.337 98.7769 214.55 98.76C214.986 98.7732 215.419 98.6913 215.82 98.52L215.96 99.12C215.476 99.3238 214.955 99.4227 214.43 99.41C214.122 99.4286 213.814 99.3804 213.527 99.2689C213.24 99.1574 212.98 98.9851 212.765 98.7638C212.551 98.5426 212.386 98.2776 212.284 97.987C212.181 97.6963 212.142 97.387 212.17 97.08C212.135 96.7727 212.165 96.4615 212.257 96.1662C212.349 95.8709 212.501 95.5979 212.704 95.3647C212.907 95.1315 213.157 94.943 213.437 94.8114C213.717 94.6797 214.021 94.6078 214.33 94.6C214.599 94.6125 214.863 94.6792 215.106 94.7961C215.348 94.913 215.565 95.0777 215.742 95.2804C215.92 95.483 216.054 95.7194 216.138 95.9754C216.222 96.2314 216.253 96.5017 216.23 96.77C216.238 96.8999 216.238 97.0301 216.23 97.16H212.97ZM215.42 96.56C215.444 96.3926 215.432 96.2219 215.385 96.0594C215.338 95.8969 215.257 95.7463 215.148 95.6176C215.038 95.4889 214.902 95.3851 214.749 95.3131C214.596 95.2411 214.429 95.2025 214.26 95.2C213.915 95.225 213.592 95.3787 213.355 95.6306C213.118 95.8825 212.984 96.2142 212.98 96.56H215.42Z" fill="white"/>
<path d="M217.15 98.45C217.484 98.6589 217.866 98.7762 218.26 98.79C218.87 98.79 219.15 98.48 219.15 98.1C219.15 97.72 218.92 97.48 218.3 97.25C217.47 96.96 217.08 96.5 217.08 95.95C217.088 95.7543 217.137 95.5624 217.223 95.3863C217.309 95.2103 217.43 95.054 217.58 94.9272C217.729 94.8004 217.903 94.7059 218.091 94.6495C218.278 94.5932 218.475 94.5764 218.67 94.6C219.064 94.5971 219.453 94.6934 219.8 94.88L219.59 95.49C219.306 95.3194 218.981 95.2295 218.65 95.23C218.15 95.23 217.88 95.51 217.88 95.85C217.88 96.19 218.15 96.41 218.75 96.63C219.55 96.94 219.96 97.34 219.96 98.03C219.96 98.72 219.33 99.41 218.24 99.41C217.786 99.4159 217.339 99.3058 216.94 99.09L217.15 98.45Z" fill="white"/>
<path d="M220.92 98.45C221.254 98.6589 221.637 98.7762 222.03 98.79C222.64 98.79 222.92 98.48 222.92 98.1C222.92 97.72 222.68 97.48 222.07 97.25C221.24 96.96 220.85 96.5 220.85 95.95C220.858 95.7543 220.907 95.5624 220.993 95.3863C221.079 95.2103 221.2 95.054 221.35 94.9272C221.499 94.8004 221.673 94.7059 221.861 94.6495C222.048 94.5932 222.246 94.5764 222.44 94.6C222.834 94.5971 223.223 94.6934 223.57 94.88L223.36 95.49C223.076 95.3194 222.751 95.2295 222.42 95.23C221.92 95.23 221.65 95.51 221.65 95.85C221.65 96.19 221.92 96.41 222.52 96.63C223.32 96.94 223.73 97.34 223.73 98.03C223.73 98.72 223.1 99.41 222.01 99.41C221.572 99.4153 221.139 99.3123 220.75 99.11L220.92 98.45Z" fill="white"/>
<path d="M40.1599 92.89V96.69C40.1599 98.13 40.7899 98.69 41.6499 98.69C42.5099 98.69 43.2099 98.06 43.2099 96.69V92.89H44.0499V96.63C44.0499 98.63 43.0499 99.41 41.6199 99.41C40.1899 99.41 39.3199 98.66 39.3199 96.67V92.89H40.1599Z" fill="white"/>
<path d="M45.29 98.45C45.6193 98.6603 45.9994 98.7778 46.39 98.79C47 98.79 47.29 98.48 47.29 98.1C47.29 97.72 47.05 97.48 46.43 97.25C45.6 96.96 45.21 96.5 45.21 95.95C45.2182 95.7543 45.2668 95.5624 45.3528 95.3863C45.4388 95.2103 45.5603 95.054 45.7096 94.9272C45.859 94.8004 46.0329 94.7059 46.2206 94.6495C46.4082 94.5932 46.6055 94.5764 46.8 94.6C47.1945 94.594 47.5839 94.6904 47.93 94.88L47.72 95.49C47.4361 95.3194 47.1111 95.2295 46.78 95.23C46.29 95.23 46.01 95.51 46.01 95.85C46.01 96.19 46.29 96.41 46.89 96.63C47.69 96.94 48.1 97.34 48.1 98.03C48.1 98.72 47.47 99.41 46.37 99.41C45.9195 99.4164 45.4751 99.3062 45.08 99.09L45.29 98.45Z" fill="white"/>
<path d="M49.6399 97.16C49.6221 97.3729 49.6505 97.5872 49.7233 97.788C49.7961 97.9889 49.9116 98.1716 50.0617 98.3237C50.2118 98.4757 50.3931 98.5934 50.593 98.6687C50.7929 98.7441 51.0068 98.7752 51.2199 98.76C51.6557 98.7732 52.0891 98.6913 52.4899 98.52L52.6399 99.12C52.1522 99.3223 51.6278 99.4211 51.0999 99.41C50.795 99.428 50.4897 99.3806 50.2047 99.2708C49.9196 99.161 49.6613 98.9915 49.4472 98.7736C49.2331 98.5557 49.0682 98.2945 48.9634 98.0076C48.8587 97.7206 48.8166 97.4146 48.8399 97.11C48.8052 96.8027 48.8347 96.4915 48.9267 96.1962C49.0187 95.9009 49.1711 95.6279 49.3742 95.3947C49.5773 95.1615 49.8268 94.973 50.1067 94.8414C50.3865 94.7097 50.6907 94.6378 50.9999 94.63C51.269 94.6425 51.5328 94.7092 51.7754 94.8261C52.0181 94.943 52.2347 95.1077 52.4121 95.3104C52.5895 95.513 52.7242 95.7494 52.808 96.0054C52.8919 96.2614 52.9231 96.5317 52.8999 96.8C52.9081 96.9299 52.9081 97.0601 52.8999 97.19L49.6399 97.16ZM52.0899 96.56C52.1141 96.3926 52.1023 96.2219 52.0554 96.0594C52.0084 95.8969 51.9273 95.7463 51.8176 95.6176C51.7078 95.4889 51.5718 95.3851 51.4188 95.3131C51.2657 95.2411 51.0991 95.2025 50.9299 95.2C50.585 95.225 50.262 95.3787 50.0249 95.6306C49.7879 95.8825 49.654 96.2142 49.6499 96.56H52.0899Z" fill="white"/>
<path d="M53.9399 96.11C53.9399 95.57 53.9399 95.11 53.9399 94.67H54.6699V95.58C54.7501 95.2994 54.9172 95.0514 55.1472 94.8717C55.3772 94.692 55.6583 94.5899 55.9499 94.58C56.0262 94.5689 56.1037 94.5689 56.1799 94.58V95.37C56.087 95.3585 55.9929 95.3585 55.8999 95.37C55.6142 95.379 55.3419 95.4932 55.1352 95.6907C54.9285 95.8881 54.802 96.155 54.7799 96.44C54.7691 96.5698 54.7691 96.7002 54.7799 96.83V99.29H53.9499L53.9399 96.11Z" fill="white"/>
<path d="M58.98 98.3C59.4303 98.5706 59.9448 98.7156 60.47 98.72C61.32 98.72 61.81 98.27 61.81 97.62C61.81 96.97 61.47 96.68 60.6 96.35C59.6 95.98 58.91 95.44 58.91 94.53C58.9218 94.2763 58.986 94.0277 59.0986 93.8C59.2111 93.5722 59.3696 93.3703 59.5641 93.2068C59.7585 93.0434 59.9847 92.922 60.2284 92.8502C60.4721 92.7785 60.728 92.758 60.98 92.79C61.4719 92.772 61.9604 92.8786 62.4 93.1L62.17 93.78C61.7971 93.5726 61.3767 93.4658 60.95 93.47C60.08 93.47 59.75 94 59.75 94.47C59.75 95.06 60.14 95.36 61.02 95.7C62.11 96.12 62.66 96.7 62.66 97.59C62.66 98.48 61.93 99.44 60.41 99.44C59.8378 99.4419 59.2741 99.301 58.77 99.03L58.98 98.3Z" fill="white"/>
<path d="M64.7501 93.38V94.7H65.9501V95.34H64.7501V97.82C64.7501 98.4 64.9101 98.72 65.3801 98.72C65.5453 98.7221 65.7102 98.7019 65.8701 98.66V99.29C65.63 99.3775 65.3754 99.4183 65.1201 99.41C64.9529 99.4191 64.7857 99.3916 64.6303 99.3295C64.4748 99.2673 64.3348 99.1719 64.2201 99.05C63.9595 98.7075 63.8413 98.2776 63.8901 97.85V95.34H63.1801V94.7H63.8901V93.6L64.7501 93.38Z" fill="white"/>
<path d="M71 96.97C71.0264 97.281 70.9878 97.5942 70.8865 97.8895C70.7853 98.1848 70.6238 98.4558 70.4122 98.6853C70.2005 98.9148 69.9435 99.0977 69.6573 99.2225C69.3712 99.3472 69.0622 99.4111 68.75 99.41C68.445 99.4138 68.1425 99.3538 67.8619 99.2339C67.5814 99.114 67.329 98.9368 67.1209 98.7137C66.9129 98.4906 66.7537 98.2264 66.6537 97.9382C66.5536 97.65 66.5149 97.344 66.54 97.04C66.5139 96.7323 66.5514 96.4225 66.6502 96.1299C66.749 95.8373 66.907 95.5682 67.1143 95.3393C67.3216 95.1104 67.5739 94.9267 67.8553 94.7995C68.1367 94.6723 68.4413 94.6044 68.75 94.6C69.0589 94.5889 69.3665 94.6435 69.6526 94.7604C69.9387 94.8772 70.1967 95.0535 70.4095 95.2776C70.6222 95.5017 70.7849 95.7685 70.8867 96.0603C70.9885 96.3521 71.0272 96.6622 71 96.97ZM67.34 96.97C67.34 97.97 67.92 98.74 68.74 98.74C69.56 98.74 70.14 97.98 70.14 96.95C70.14 96.17 69.75 95.18 68.76 95.18C67.77 95.18 67.34 96.11 67.34 97.02V96.97Z" fill="white"/>
<path d="M72.05 96.11C72.05 95.57 72.05 95.11 72.05 94.67H72.75V95.58C72.8316 95.3002 72.9991 95.053 73.2288 94.8736C73.4585 94.6941 73.7388 94.5914 74.03 94.58C74.1097 94.569 74.1904 94.569 74.27 94.58V95.37C74.1737 95.3586 74.0764 95.3586 73.98 95.37C73.6943 95.379 73.422 95.4932 73.2153 95.6907C73.0086 95.8881 72.8821 96.155 72.86 96.44C72.8492 96.5698 72.8492 96.7002 72.86 96.83V99.29H72.05V96.11Z" fill="white"/>
<path d="M76.14 93.41C76.109 93.5187 76.0434 93.6142 75.9532 93.6823C75.863 93.7503 75.7531 93.7872 75.64 93.7872C75.527 93.7872 75.4171 93.7503 75.3269 93.6823C75.2367 93.6142 75.1711 93.5187 75.14 93.41C75.1373 93.3405 75.1488 93.2712 75.1738 93.2063C75.1989 93.1414 75.2369 93.0824 75.2856 93.0327C75.3343 92.9831 75.3927 92.9439 75.457 92.9177C75.5214 92.8914 75.5905 92.8786 75.66 92.88C75.7266 92.8825 75.792 92.8984 75.8524 92.9265C75.9127 92.9547 75.9669 92.9946 76.0116 93.044C76.0563 93.0934 76.0907 93.1512 76.1127 93.214C76.1348 93.2769 76.1441 93.3435 76.14 93.41ZM75.2 99.31V94.7H76.04V99.31H75.2Z" fill="white"/>
<path d="M77.9 97.16C77.8821 97.3729 77.9105 97.5872 77.9833 97.788C78.0561 97.9889 78.1716 98.1716 78.3217 98.3237C78.4718 98.4757 78.6531 98.5934 78.853 98.6687C79.053 98.7441 79.2668 98.7752 79.48 98.76C79.9157 98.7732 80.3491 98.6913 80.75 98.52L80.9 99.12C80.4123 99.3223 79.8878 99.4211 79.36 99.41C79.055 99.428 78.7497 99.3806 78.4647 99.2708C78.1796 99.161 77.9214 98.9915 77.7073 98.7736C77.4932 98.5557 77.3282 98.2945 77.2234 98.0076C77.1187 97.7206 77.0766 97.4146 77.1 97.11C77.0652 96.8027 77.0947 96.4915 77.1867 96.1962C77.2787 95.9009 77.4311 95.6279 77.6342 95.3947C77.8374 95.1615 78.0868 94.973 78.3667 94.8414C78.6465 94.7097 78.9508 94.6378 79.26 94.63C79.529 94.6425 79.7928 94.7092 80.0355 94.8261C80.2781 94.943 80.4947 95.1077 80.6721 95.3104C80.8495 95.513 80.9842 95.7494 81.068 96.0054C81.1519 96.2614 81.1831 96.5317 81.16 96.8C81.1681 96.9299 81.1681 97.0601 81.16 97.19L77.9 97.16ZM80.35 96.56C80.3741 96.3926 80.3624 96.2219 80.3154 96.0594C80.2684 95.8969 80.1873 95.7463 80.0776 95.6176C79.9678 95.4889 79.8319 95.3851 79.6788 95.3131C79.5257 95.2411 79.3591 95.2025 79.19 95.2C78.845 95.225 78.522 95.3787 78.2849 95.6306C78.0479 95.8825 77.9141 96.2142 77.91 96.56H80.35Z" fill="white"/>
<path d="M82.08 98.45C82.4137 98.6589 82.7965 98.7762 83.19 98.79C83.8 98.79 84.08 98.48 84.08 98.1C84.08 97.72 83.85 97.48 83.23 97.25C82.4 96.96 82.01 96.5 82.01 95.95C82.0182 95.7543 82.0669 95.5624 82.1529 95.3863C82.2388 95.2103 82.3603 95.054 82.5097 94.9272C82.659 94.8004 82.833 94.7059 83.0206 94.6495C83.2083 94.5932 83.4055 94.5764 83.6 94.6C83.9944 94.5953 84.3834 94.6917 84.73 94.88L84.52 95.49C84.2361 95.3194 83.9111 95.2295 83.58 95.23C83.08 95.23 82.81 95.51 82.81 95.85C82.81 96.19 83.08 96.41 83.68 96.63C84.48 96.94 84.89 97.34 84.89 98.03C84.89 98.72 84.27 99.41 83.17 99.41C82.7166 99.415 82.2693 99.3049 81.87 99.09L82.08 98.45Z" fill="white"/>
<path d="M288.09 93.6H286.14V92.89H290.89V93.6H288.89V99.31H288.05L288.09 93.6Z" fill="white"/>
<path d="M293.52 99.31L293.45 98.73C293.286 98.9474 293.073 99.1225 292.827 99.2408C292.582 99.3591 292.312 99.4171 292.04 99.41C291.859 99.4239 291.677 99.3999 291.506 99.3397C291.334 99.2795 291.177 99.1843 291.045 99.0602C290.912 98.936 290.807 98.7857 290.735 98.6187C290.664 98.4517 290.628 98.2716 290.63 98.09C290.63 96.98 291.63 96.37 293.4 96.38V96.28C293.418 96.1417 293.405 96.001 293.362 95.8683C293.319 95.7355 293.247 95.614 293.152 95.5125C293.056 95.411 292.939 95.3321 292.809 95.2815C292.679 95.2309 292.539 95.2099 292.4 95.22C291.976 95.2196 291.561 95.3373 291.2 95.56L291.01 95.01C291.465 94.7336 291.988 94.5915 292.52 94.6C293.93 94.6 294.27 95.6 294.27 96.48V98.21C294.263 98.5783 294.29 98.9465 294.35 99.31H293.52ZM293.39 96.96C292.48 96.96 291.44 97.1 291.44 97.96C291.431 98.0665 291.445 98.1736 291.482 98.274C291.518 98.3745 291.576 98.4658 291.651 98.5418C291.726 98.6178 291.817 98.6767 291.916 98.7144C292.016 98.752 292.123 98.7676 292.23 98.76C292.474 98.7658 292.713 98.6945 292.915 98.5562C293.116 98.418 293.268 98.2198 293.35 97.99C293.359 97.9002 293.359 97.8098 293.35 97.72L293.39 96.96Z" fill="white"/>
<path d="M295.44 98.45C295.771 98.6572 296.15 98.7744 296.54 98.79C297.15 98.79 297.44 98.48 297.44 98.1C297.44 97.72 297.2 97.48 296.58 97.25C295.75 96.96 295.36 96.5 295.36 95.95C295.368 95.7543 295.417 95.5624 295.503 95.3863C295.589 95.2103 295.71 95.054 295.86 94.9272C296.009 94.8004 296.183 94.7059 296.371 94.6495C296.558 94.5932 296.756 94.5764 296.95 94.6C297.347 94.5958 297.74 94.6921 298.09 94.88L297.88 95.49C297.592 95.3195 297.264 95.2297 296.93 95.23C296.44 95.23 296.16 95.51 296.16 95.85C296.16 96.19 296.44 96.41 297.04 96.63C297.84 96.94 298.25 97.34 298.25 98.03C298.25 98.72 297.62 99.41 296.52 99.41C296.07 99.4164 295.625 99.3062 295.23 99.09L295.44 98.45Z" fill="white"/>
<path d="M300.15 96.82C300.27 96.65 300.43 96.45 300.56 96.29L301.91 94.7H302.91L301.13 96.6L303.13 99.31H302.13L300.58 97.11L300.15 97.59V99.32H299.32V92.56H300.15V96.82Z" fill="white"/>
<path d="M310.32 99.11C309.781 99.3303 309.202 99.4359 308.62 99.42C308.19 99.446 307.759 99.3791 307.358 99.2238C306.956 99.0685 306.592 98.8285 306.291 98.5202C305.991 98.2118 305.76 97.8423 305.615 97.4368C305.469 97.0312 305.413 96.5992 305.45 96.17C305.424 95.7224 305.493 95.2743 305.652 94.8551C305.811 94.4358 306.056 94.0547 306.372 93.7368C306.688 93.4188 307.068 93.171 307.486 93.0096C307.905 92.8482 308.352 92.7768 308.8 92.8C309.324 92.7798 309.847 92.8754 310.33 93.08L310.13 93.76C309.722 93.5763 309.278 93.4841 308.83 93.49C308.484 93.4719 308.138 93.5294 307.816 93.6583C307.495 93.7872 307.205 93.9846 306.967 94.2367C306.729 94.4888 306.549 94.7896 306.439 95.1182C306.329 95.4469 306.292 95.7955 306.33 96.14C306.295 96.4732 306.333 96.8101 306.44 97.1276C306.547 97.445 306.721 97.7356 306.951 97.9796C307.181 98.2235 307.46 98.415 307.771 98.5411C308.081 98.6671 308.415 98.7248 308.75 98.71C309.218 98.7195 309.682 98.6274 310.11 98.44L310.32 99.11Z" fill="white"/>
<path d="M315.39 96.97C315.417 97.2844 315.377 97.601 315.273 97.8991C315.17 98.1972 315.005 98.4702 314.789 98.7003C314.573 98.9304 314.311 99.1125 314.02 99.2348C313.729 99.357 313.415 99.4167 313.1 99.41C312.795 99.4138 312.492 99.3539 312.212 99.2339C311.931 99.114 311.679 98.9369 311.471 98.7137C311.263 98.4906 311.104 98.2264 311.004 97.9382C310.904 97.65 310.865 97.3441 310.89 97.04C310.862 96.7261 310.9 96.4097 311.003 96.1116C311.105 95.8135 311.269 95.5404 311.484 95.3101C311.7 95.0798 311.961 94.8975 312.251 94.7752C312.542 94.6528 312.855 94.5931 313.17 94.6C313.476 94.5932 313.781 94.6511 314.063 94.7698C314.346 94.8886 314.6 95.0655 314.809 95.2891C315.019 95.5128 315.179 95.778 315.279 96.0677C315.379 96.3573 315.417 96.6648 315.39 96.97ZM311.74 96.97C311.74 97.97 312.32 98.74 313.13 98.74C313.94 98.74 314.54 97.98 314.54 96.95C314.54 96.17 314.14 95.18 313.15 95.18C312.16 95.18 311.75 96.11 311.75 97.02L311.74 96.97Z" fill="white"/>
<path d="M316.45 95.95C316.45 95.47 316.45 95.08 316.45 94.7H317.18V95.44C317.32 95.1796 317.53 94.9633 317.786 94.815C318.042 94.6667 318.334 94.5923 318.63 94.6C318.916 94.5987 319.194 94.6867 319.427 94.8517C319.661 95.0166 319.836 95.2503 319.93 95.52C320.054 95.2848 320.228 95.0799 320.44 94.92C320.727 94.7025 321.08 94.5896 321.44 94.6C322.05 94.6 322.96 95 322.96 96.6V99.31H322.14V96.7C322.14 95.82 321.81 95.28 321.14 95.28C320.915 95.2881 320.699 95.3654 320.52 95.5015C320.341 95.6375 320.208 95.8256 320.14 96.04C320.095 96.1755 320.071 96.3172 320.07 96.46V99.31H319.25V96.55C319.25 95.82 318.93 95.28 318.25 95.28C318.018 95.3034 317.799 95.3961 317.621 95.5459C317.442 95.6957 317.313 95.8958 317.25 96.12C317.209 96.2528 317.189 96.3911 317.19 96.53V99.31H316.37L316.45 95.95Z" fill="white"/>
<path d="M324.39 96.21C324.39 95.62 324.39 95.14 324.39 94.7H325.14V95.49C325.305 95.2075 325.544 94.9754 325.831 94.8185C326.119 94.6617 326.443 94.5862 326.77 94.6C327.059 94.6104 327.343 94.6807 327.604 94.8064C327.864 94.9322 328.096 95.1108 328.284 95.3307C328.472 95.5507 328.612 95.8073 328.696 96.0843C328.78 96.3614 328.805 96.6527 328.77 96.94C328.811 97.243 328.787 97.5512 328.701 97.8446C328.615 98.138 328.468 98.41 328.27 98.6429C328.072 98.8758 327.827 99.0645 327.552 99.1967C327.276 99.3288 326.976 99.4015 326.67 99.41C326.391 99.4234 326.114 99.364 325.865 99.2378C325.616 99.1116 325.404 98.9228 325.25 98.69V101.2H324.43L324.39 96.21ZM325.21 97.43C325.199 97.5464 325.199 97.6636 325.21 97.78C325.276 98.0648 325.436 98.3188 325.665 98.5004C325.894 98.6821 326.178 98.7807 326.47 98.78C327.35 98.78 327.87 98.05 327.87 97C327.87 95.95 327.38 95.28 326.5 95.28C326.15 95.3129 325.823 95.4703 325.579 95.7234C325.335 95.9766 325.19 96.3089 325.17 96.66L325.21 97.43Z" fill="white"/>
<path d="M329.8 92.55H330.64V99.31H329.8V92.55Z" fill="white"/>
<path d="M332.51 97.16C332.492 97.3729 332.521 97.5872 332.593 97.788C332.666 97.9889 332.782 98.1716 332.932 98.3237C333.082 98.4757 333.263 98.5934 333.463 98.6687C333.663 98.7441 333.877 98.7752 334.09 98.76C334.529 98.7722 334.965 98.6903 335.37 98.52L335.51 99.12C335.026 99.3227 334.505 99.4215 333.98 99.41C333.678 99.422 333.377 99.3702 333.096 99.2579C332.815 99.1456 332.561 98.9754 332.351 98.7583C332.141 98.5413 331.978 98.2823 331.875 97.9983C331.771 97.7142 331.729 97.4116 331.75 97.11C331.715 96.8019 331.745 96.4898 331.838 96.1938C331.93 95.8979 332.083 95.6245 332.288 95.3911C332.492 95.1577 332.742 94.9695 333.024 94.8384C333.305 94.7074 333.61 94.6364 333.92 94.63C334.189 94.6425 334.453 94.7092 334.695 94.8261C334.938 94.943 335.155 95.1077 335.332 95.3104C335.51 95.513 335.644 95.7494 335.728 96.0054C335.812 96.2614 335.843 96.5317 335.82 96.8C335.828 96.9299 335.828 97.0601 335.82 97.19L332.51 97.16ZM334.97 96.56C334.994 96.3926 334.982 96.2219 334.935 96.0594C334.888 95.8969 334.807 95.7463 334.698 95.6176C334.588 95.4889 334.452 95.3851 334.299 95.3131C334.146 95.2411 333.979 95.2025 333.81 95.2C333.464 95.2249 333.14 95.3782 332.901 95.6298C332.663 95.8815 332.527 96.2132 332.52 96.56H334.97Z" fill="white"/>
<path d="M337.83 93.38V94.7H339.03V95.34H337.83V97.82C337.83 98.4 337.99 98.72 338.45 98.72C338.615 98.7221 338.78 98.7019 338.94 98.66V99.29C338.7 99.3775 338.445 99.4183 338.19 99.41C338.023 99.4191 337.856 99.3916 337.7 99.3295C337.545 99.2673 337.405 99.1719 337.29 99.05C337.034 98.7056 336.919 98.2762 336.97 97.85V95.34H336.25V94.7H336.97V93.6L337.83 93.38Z" fill="white"/>
<path d="M340.38 97.16C340.362 97.3729 340.391 97.5872 340.463 97.788C340.536 97.9889 340.652 98.1716 340.802 98.3237C340.952 98.4757 341.133 98.5934 341.333 98.6687C341.533 98.7441 341.747 98.7752 341.96 98.76C342.396 98.7732 342.829 98.6913 343.23 98.52L343.38 99.12C342.892 99.3223 342.368 99.4211 341.84 99.41C341.532 99.4286 341.224 99.3804 340.937 99.2689C340.65 99.1574 340.39 98.9851 340.175 98.7638C339.961 98.5426 339.796 98.2776 339.694 97.987C339.591 97.6963 339.552 97.387 339.58 97.08C339.545 96.7727 339.575 96.4615 339.667 96.1662C339.759 95.8709 339.911 95.5979 340.114 95.3647C340.317 95.1315 340.567 94.943 340.847 94.8114C341.127 94.6797 341.431 94.6078 341.74 94.6C342.009 94.6125 342.273 94.6792 342.516 94.7961C342.758 94.913 342.975 95.0777 343.152 95.2804C343.33 95.483 343.464 95.7194 343.548 95.9754C343.632 96.2314 343.663 96.5017 343.64 96.77C343.648 96.8999 343.648 97.0301 343.64 97.16H340.38ZM342.83 96.56C342.854 96.3926 342.842 96.2219 342.796 96.0594C342.749 95.8969 342.667 95.7463 342.558 95.6176C342.448 95.4889 342.312 95.3851 342.159 95.3131C342.006 95.2411 341.839 95.2025 341.67 95.2C341.325 95.225 341.002 95.3787 340.765 95.6306C340.528 95.8825 340.394 96.2142 340.39 96.56H342.83Z" fill="white"/>
<path d="M348.66 92.55V98.11C348.66 98.52 348.66 98.99 348.66 99.3H347.9V98.5C347.749 98.7819 347.521 99.0156 347.244 99.1747C346.966 99.3338 346.65 99.4119 346.33 99.4C346.041 99.3896 345.757 99.3193 345.496 99.1936C345.236 99.0678 345.004 98.8892 344.816 98.6693C344.628 98.4493 344.488 98.1927 344.404 97.9157C344.32 97.6387 344.295 97.3473 344.33 97.06C344.293 96.7607 344.317 96.4569 344.402 96.1675C344.487 95.878 344.63 95.6091 344.823 95.3775C345.017 95.1459 345.255 94.9564 345.525 94.8209C345.794 94.6855 346.089 94.6069 346.39 94.59C346.663 94.5727 346.936 94.6285 347.18 94.7515C347.424 94.8745 347.631 95.0604 347.78 95.29V92.54L348.66 92.55ZM347.82 96.55C347.835 96.4338 347.835 96.3162 347.82 96.2C347.766 95.9185 347.616 95.6645 347.395 95.4819C347.174 95.2993 346.897 95.1996 346.61 95.2C345.75 95.2 345.23 95.97 345.23 96.98C345.23 97.99 345.69 98.69 346.59 98.69C346.879 98.6912 347.16 98.5922 347.384 98.4099C347.608 98.2276 347.762 97.9732 347.82 97.69C347.835 97.5705 347.835 97.4495 347.82 97.33V96.55Z" fill="white"/>
<path d="M424.29 93.6H422.29V92.89H427.04V93.6H425.04V99.31H424.2L424.29 93.6Z" fill="white"/>
<path d="M429.75 99.31L429.68 98.73C429.515 98.9468 429.302 99.1215 429.057 99.2397C428.812 99.3579 428.542 99.4163 428.27 99.41C428.089 99.4239 427.907 99.3999 427.735 99.3397C427.564 99.2795 427.407 99.1843 427.275 99.0602C427.142 98.936 427.037 98.7857 426.965 98.6187C426.894 98.4517 426.858 98.2716 426.86 98.09C426.86 96.98 427.86 96.37 429.63 96.38V96.28C429.648 96.1417 429.635 96.001 429.592 95.8683C429.549 95.7355 429.477 95.614 429.382 95.5125C429.286 95.411 429.169 95.3321 429.039 95.2815C428.909 95.2309 428.769 95.2099 428.63 95.22C428.206 95.2196 427.791 95.3373 427.43 95.56L427.24 95.01C427.695 94.7336 428.218 94.5915 428.75 94.6C430.16 94.6 430.5 95.6 430.5 96.48V98.21C430.493 98.5783 430.52 98.9465 430.58 99.31H429.75ZM429.62 96.96C428.71 96.96 427.67 97.1 427.67 97.96C427.661 98.0665 427.675 98.1736 427.712 98.274C427.748 98.3745 427.806 98.4658 427.881 98.5418C427.956 98.6178 428.047 98.6767 428.146 98.7144C428.246 98.752 428.353 98.7676 428.46 98.76C428.703 98.7667 428.942 98.6957 429.141 98.5571C429.341 98.4186 429.491 98.2199 429.57 97.99C429.583 97.9005 429.583 97.8095 429.57 97.72L429.62 96.96Z" fill="white"/>
<path d="M431.64 98.45C431.97 98.659 432.35 98.7763 432.74 98.79C433.35 98.79 433.64 98.48 433.64 98.1C433.64 97.72 433.4 97.48 432.78 97.25C431.95 96.96 431.56 96.5 431.56 95.95C431.568 95.7543 431.617 95.5624 431.703 95.3863C431.789 95.2103 431.91 95.054 432.06 94.9272C432.209 94.8004 432.383 94.7059 432.571 94.6495C432.758 94.5932 432.955 94.5764 433.15 94.6C433.547 94.5958 433.94 94.6921 434.29 94.88L434.08 95.49C433.792 95.3213 433.464 95.2317 433.13 95.23C432.64 95.23 432.36 95.51 432.36 95.85C432.36 96.19 432.64 96.41 433.24 96.63C434.04 96.94 434.45 97.34 434.45 98.03C434.45 98.72 433.82 99.41 432.72 99.41C432.27 99.4164 431.825 99.3062 431.43 99.09L431.64 98.45Z" fill="white"/>
<path d="M436.35 96.82C436.46 96.65 436.63 96.45 436.76 96.29L438.11 94.7H439.11L437.33 96.6L439.33 99.31H438.33L436.75 97.11L436.32 97.59V99.32H435.49V92.56H436.32L436.35 96.82Z" fill="white"/>
<path d="M446.52 99.11C445.981 99.3303 445.402 99.4359 444.82 99.42C444.39 99.446 443.96 99.3791 443.558 99.2238C443.156 99.0685 442.792 98.8285 442.492 98.5202C442.191 98.2118 441.96 97.8423 441.815 97.4368C441.67 97.0312 441.613 96.5992 441.65 96.17C441.624 95.7224 441.693 95.2743 441.852 94.8551C442.011 94.4358 442.256 94.0547 442.572 93.7368C442.888 93.4188 443.268 93.171 443.686 93.0096C444.105 92.8482 444.552 92.7768 445 92.8C445.524 92.7798 446.047 92.8754 446.53 93.08L446.33 93.76C445.922 93.5763 445.478 93.4841 445.03 93.49C444.684 93.4719 444.338 93.5294 444.016 93.6583C443.695 93.7872 443.405 93.9846 443.167 94.2367C442.929 94.4888 442.749 94.7896 442.639 95.1182C442.529 95.4469 442.492 95.7955 442.53 96.14C442.493 96.4776 442.53 96.8191 442.639 97.1408C442.748 97.4625 442.925 97.7566 443.16 98.0023C443.394 98.2481 443.679 98.4397 443.996 98.5636C444.312 98.6876 444.651 98.741 444.99 98.72C445.458 98.7295 445.922 98.6374 446.35 98.45L446.52 99.11Z" fill="white"/>
<path d="M447.53 92.55H448.36V99.31H447.53V92.55Z" fill="white"/>
<path d="M453.94 96.97C453.967 97.2844 453.927 97.601 453.823 97.8991C453.72 98.1972 453.555 98.4702 453.339 98.7003C453.123 98.9304 452.861 99.1125 452.57 99.2348C452.279 99.357 451.966 99.4167 451.65 99.41C451.345 99.4138 451.042 99.3539 450.762 99.2339C450.481 99.114 450.229 98.9369 450.021 98.7137C449.813 98.4906 449.654 98.2264 449.554 97.9382C449.454 97.65 449.415 97.3441 449.44 97.04C449.412 96.7261 449.45 96.4097 449.553 96.1116C449.655 95.8135 449.819 95.5404 450.034 95.3101C450.25 95.0798 450.511 94.8975 450.801 94.7752C451.092 94.6528 451.405 94.5931 451.72 94.6C452.026 94.5932 452.331 94.6511 452.613 94.7698C452.896 94.8886 453.15 95.0655 453.359 95.2891C453.569 95.5128 453.729 95.778 453.829 96.0677C453.929 96.3573 453.967 96.6648 453.94 96.97ZM450.29 96.97C450.29 97.97 450.87 98.74 451.69 98.74C452.51 98.74 453.08 97.98 453.08 96.95C453.08 96.17 452.69 95.18 451.7 95.18C450.71 95.18 450.29 96.11 450.29 97.02V96.97Z" fill="white"/>
<path d="M454.88 98.45C455.214 98.6589 455.597 98.7762 455.99 98.79C456.6 98.79 456.88 98.48 456.88 98.1C456.88 97.72 456.64 97.48 456.03 97.25C455.2 96.96 454.81 96.5 454.81 95.95C454.818 95.7543 454.867 95.5624 454.953 95.3863C455.039 95.2103 455.16 95.054 455.31 94.9272C455.459 94.8004 455.633 94.7059 455.821 94.6495C456.008 94.5932 456.206 94.5764 456.4 94.6C456.794 94.5971 457.183 94.6934 457.53 94.88L457.32 95.49C457.036 95.3194 456.711 95.2295 456.38 95.23C455.88 95.23 455.61 95.51 455.61 95.85C455.61 96.19 455.88 96.41 456.48 96.63C457.28 96.94 457.69 97.34 457.69 98.03C457.69 98.72 457.06 99.41 455.97 99.41C455.517 99.4159 455.069 99.3058 454.67 99.09L454.88 98.45Z" fill="white"/>
<path d="M459.23 97.16C459.212 97.3729 459.241 97.5872 459.313 97.788C459.386 97.9889 459.502 98.1716 459.652 98.3237C459.802 98.4757 459.983 98.5934 460.183 98.6687C460.383 98.7441 460.597 98.7752 460.81 98.76C461.249 98.7722 461.685 98.6903 462.09 98.52L462.23 99.12C461.746 99.3227 461.225 99.4215 460.7 99.41C460.392 99.4284 460.084 99.3802 459.796 99.2687C459.508 99.1573 459.248 98.9852 459.032 98.7641C458.817 98.5431 458.652 98.2783 458.548 97.9877C458.444 97.6971 458.404 97.3875 458.43 97.08C458.395 96.7727 458.425 96.4615 458.517 96.1662C458.609 95.8709 458.761 95.5979 458.964 95.3647C459.167 95.1315 459.417 94.943 459.697 94.8114C459.977 94.6797 460.281 94.6078 460.59 94.6C460.86 94.6112 461.125 94.6769 461.369 94.7932C461.612 94.9096 461.83 95.0741 462.009 95.2769C462.187 95.4797 462.323 95.7165 462.407 95.9732C462.492 96.2298 462.523 96.5009 462.5 96.77C462.508 96.8999 462.508 97.0301 462.5 97.16H459.23ZM461.69 96.56C461.714 96.3926 461.702 96.2219 461.655 96.0594C461.608 95.8969 461.527 95.7463 461.418 95.6176C461.308 95.4889 461.172 95.3851 461.019 95.3131C460.866 95.2411 460.699 95.2025 460.53 95.2C460.184 95.2249 459.86 95.3782 459.621 95.6298C459.383 95.8815 459.247 96.2132 459.24 96.56H461.69Z" fill="white"/>
<path d="M467.51 92.55V98.11C467.51 98.52 467.51 98.99 467.51 99.3H466.76V98.5C466.61 98.7826 466.382 99.0171 466.105 99.1763C465.827 99.3355 465.51 99.4131 465.19 99.4C464.901 99.3882 464.618 99.3169 464.358 99.1906C464.098 99.0644 463.867 98.8858 463.68 98.6662C463.492 98.4465 463.352 98.1905 463.267 97.9142C463.183 97.6378 463.157 97.347 463.19 97.06C463.152 96.7599 463.177 96.4553 463.263 96.1652C463.348 95.8751 463.493 95.6058 463.687 95.374C463.881 95.1422 464.121 94.953 464.392 94.8181C464.662 94.6832 464.958 94.6055 465.26 94.59C465.533 94.5738 465.805 94.63 466.049 94.7529C466.293 94.8758 466.501 95.0611 466.65 95.29V92.54L467.51 92.55ZM466.68 96.55C466.695 96.4338 466.695 96.3162 466.68 96.2C466.626 95.9185 466.476 95.6645 466.255 95.4819C466.034 95.2993 465.757 95.1996 465.47 95.2C464.6 95.2 464.09 95.97 464.09 96.98C464.09 97.99 464.55 98.69 465.45 98.69C465.739 98.6893 466.018 98.5897 466.242 98.4077C466.466 98.2257 466.62 97.9723 466.68 97.69C466.695 97.5705 466.695 97.4495 466.68 97.33V96.55Z" fill="white"/>
<path d="M401.92 258.64L407.71 355.44L418.27 356.99L423.09 283.49L427.45 356.82L437.91 357.16C437.91 357.16 442.75 283.11 441.69 277.67C440.63 272.23 441.69 254.94 441.69 254.94L401.92 258.64Z" fill="#606161"/>
<path d="M400.27 249.24C395.16 246.14 390.21 232.99 392.41 229.8C395.06 225.97 399.01 199.41 402.5 196.36C405.99 193.31 410.41 191.12 415.01 191.29C420.43 191.49 426.43 188.95 431.49 191.01C434.34 192.17 436.72 194.28 439.03 196.36C442.66 199.61 445.49 254.36 441.42 260.36C436.21 267.97 425.49 268.22 416.42 267.7C413.29 267.52 410.03 267.3 407.29 265.7C400.39 261.71 399.53 257.3 400.27 249.24Z" fill="#1A237E"/>
<path d="M400.88 172.81C400.466 175.613 401.038 178.473 402.5 180.9C404.45 183.9 408.15 185.77 408.81 189.23C409.12 190.81 408.71 192.45 408.81 194.06C408.91 195.67 409.81 197.47 411.46 197.62C412.04 197.648 412.616 197.52 413.13 197.25C414.924 196.212 416.363 194.658 417.26 192.79C420.26 187.54 422.2 181.39 421.26 175.39C420.32 169.39 416.09 163.71 410.2 162.25C402.94 160.45 401.52 167.11 400.88 172.81Z" fill="url(#paint18_linear)"/>
<path d="M401.5 162.11C402.33 165.06 404.82 167.27 407.45 168.85C408.776 169.53 410.017 170.362 411.15 171.33C414.63 174.74 413.78 180.38 413.75 185.24C413.75 188.69 414.31 192.3 416.37 195.06C419.9 199.8 426.54 200.71 432.44 200.87C433.074 200.954 433.718 200.824 434.27 200.5C434.703 200.118 434.983 199.592 435.06 199.02C436.22 193.59 431.11 188.52 431.53 183.02C431.76 179.89 433.74 177.15 434.38 174.08C435.31 169.63 433.31 164.99 430.38 161.53C429.201 160.04 427.691 158.845 425.97 158.04C422.88 156.75 419.25 157.48 416.12 156.29C414.3 155.61 412.77 154.29 410.97 153.58C406 151.58 400.09 157.11 401.5 162.11Z" fill="#606161"/>
<path d="M379.09 225.6C378.344 225.208 377.484 225.091 376.66 225.27C376.203 225.462 375.796 225.756 375.47 226.13C373.791 227.849 372.478 229.89 371.61 232.13C371.102 233.182 370.985 234.38 371.28 235.51C371.881 236.684 372.87 237.614 374.08 238.14C382.17 242.79 391.86 249.43 401.14 248.52C401.79 248.46 401.57 246.52 402.05 246.09C402.58 245.469 402.867 244.677 402.86 243.86C403.273 240.915 403.357 237.933 403.11 234.97C402.86 231.984 401.617 229.167 399.58 226.97C398.788 226.074 397.696 225.498 396.51 225.35C394.71 225.25 394.84 226.62 393.77 227.26C392.45 228.05 390.48 228.04 388.98 228C385.572 227.764 382.228 226.952 379.09 225.6Z" fill="#1A237E"/>
<path opacity="0.26" d="M411.37 219.11C411.37 219.11 408.37 243.11 400.27 249.2C400.27 249.2 397.49 264.03 410.27 266.58C413.386 267.625 416.696 267.967 419.96 267.58C419.96 267.58 407.53 271.35 409.88 246.42C412.23 221.49 411.37 219.11 411.37 219.11Z" fill="url(#paint19_linear)"/>
<path d="M393.75 200.41L387.92 207.65L387.07 210.15L389.36 208.71L396.66 199.29C396.62 199.084 396.516 198.897 396.364 198.753C396.211 198.61 396.018 198.518 395.81 198.49C395.12 198.44 393.75 200.41 393.75 200.41Z" fill="#606161"/>
<path d="M388.25 203.88C387.731 204.143 387.252 204.48 386.83 204.88C386.031 205.558 385.412 206.424 385.03 207.4C384.807 208.159 384.735 208.954 384.82 209.74C384.82 210.24 385 210.83 385.48 210.99C385.659 211.03 385.844 211.023 386.019 210.97C386.194 210.918 386.353 210.821 386.48 210.69C387.211 209.86 387.771 208.895 388.13 207.85C388.8 206.55 389.93 205.62 390.7 204.41C391.69 202.89 389.03 203.48 388.25 203.88Z" fill="url(#paint20_linear)"/>
<path d="M393.04 206.61C393.33 207.14 393.53 207.72 393.82 208.25C394.666 209.618 395.803 210.782 397.15 211.66C397.258 211.725 397.351 211.814 397.42 211.92C397.507 212.09 397.525 212.287 397.47 212.47C397.389 212.816 397.268 213.152 397.11 213.47L396.01 215.97C396.002 215.998 395.989 216.025 395.97 216.047C395.95 216.07 395.927 216.088 395.9 216.1C395.845 216.119 395.785 216.119 395.73 216.1L391.92 214.66C391.358 214.457 390.81 214.216 390.28 213.94C389.226 213.364 388.353 212.505 387.76 211.46C387.586 211.233 387.478 210.962 387.45 210.678C387.421 210.393 387.474 210.107 387.6 209.85C387.94 209.38 388.6 209.36 389.08 208.97C389.218 208.838 389.336 208.686 389.43 208.52C390.01 207.64 390.54 206.67 391.19 205.84C391.84 205.01 392.64 205.86 393.04 206.61Z" fill="url(#paint21_linear)"/>
<path d="M400.13 362.11C399.954 362.263 399.81 362.45 399.707 362.659C399.604 362.869 399.544 363.097 399.53 363.33C399.587 363.671 399.76 363.982 400.02 364.21C400.953 364.97 402.099 365.421 403.3 365.5C407.186 366.084 411.151 365.866 414.95 364.86C415.904 364.687 416.784 364.234 417.48 363.56C418.169 362.544 418.486 361.322 418.38 360.1L418.5 355.89C418.541 355.553 418.503 355.21 418.39 354.89C418.07 354.12 417.08 353.89 416.25 353.89C414.254 353.738 412.25 353.701 410.25 353.78C409.54 353.78 408.63 353.67 408.07 354.12C407.51 354.57 407.31 355.44 406.94 355.91C405.02 358.38 402.21 359.87 400.13 362.11Z" fill="#606161"/>
<path d="M420.14 362.16C419.967 362.306 419.826 362.486 419.727 362.689C419.627 362.892 419.57 363.114 419.56 363.34C419.608 363.668 419.776 363.967 420.03 364.18C420.93 364.919 422.038 365.36 423.2 365.44C426.953 366.001 430.781 365.79 434.45 364.82C435.373 364.65 436.225 364.212 436.9 363.56C437.563 362.579 437.87 361.4 437.77 360.22L437.89 356.15C437.92 355.836 437.882 355.519 437.78 355.22C437.47 354.47 436.52 354.29 435.72 354.22C433.79 354.078 431.854 354.042 429.92 354.11C429.24 354.11 428.36 354.02 427.82 354.45C427.28 354.88 427.08 355.72 426.72 356.18C424.86 358.52 422.15 359.97 420.14 362.16Z" fill="#606161"/>
</g>
<defs>
<linearGradient id="paint0_linear" x1="248.62" y1="227.74" x2="289.26" y2="510.78" gradientUnits="userSpaceOnUse">
<stop stop-color="#010101" stop-opacity="0"/>
<stop offset="0.95" stop-color="#010101"/>
</linearGradient>
<linearGradient id="paint1_linear" x1="264.87" y1="-110.97" x2="250.1" y2="324.19" gradientUnits="userSpaceOnUse">
<stop stop-color="white" stop-opacity="0"/>
<stop offset="0.95" stop-color="white"/>
</linearGradient>
<linearGradient id="paint2_linear" x1="20824.8" y1="28355.5" x2="35536.9" y2="31244.9" gradientUnits="userSpaceOnUse">
<stop stop-color="#010101" stop-opacity="0"/>
<stop offset="0.95" stop-color="#010101"/>
</linearGradient>
<linearGradient id="paint3_linear" x1="14527" y1="6549.19" x2="14444.9" y2="8959.68" gradientUnits="userSpaceOnUse">
<stop stop-color="white" stop-opacity="0"/>
<stop offset="0.95" stop-color="white"/>
</linearGradient>
<linearGradient id="paint4_linear" x1="366.36" y1="222.4" x2="377.26" y2="222.4" gradientUnits="userSpaceOnUse">
<stop stop-color="#E5C6D6"/>
<stop offset="0.42" stop-color="#EAD4D0"/>
<stop offset="1" stop-color="#F0E9CB"/>
</linearGradient>
<linearGradient id="paint5_linear" x1="36015.3" y1="1329.86" x2="36019.7" y2="3305.04" gradientUnits="userSpaceOnUse">
<stop stop-color="#010101" stop-opacity="0"/>
<stop offset="0.95" stop-color="#010101"/>
</linearGradient>
<linearGradient id="paint6_linear" x1="50058.3" y1="769.581" x2="50062.7" y2="2744.76" gradientUnits="userSpaceOnUse">
<stop stop-color="#010101" stop-opacity="0"/>
<stop offset="0.95" stop-color="#010101"/>
</linearGradient>
<linearGradient id="paint7_linear" x1="1930.93" y1="1132.99" x2="1992.96" y2="2576.07" gradientUnits="userSpaceOnUse">
<stop stop-color="#010101" stop-opacity="0"/>
<stop offset="0.95" stop-color="#010101"/>
</linearGradient>
<linearGradient id="paint8_linear" x1="1921.22" y1="1151.89" x2="1983.37" y2="2595.09" gradientUnits="userSpaceOnUse">
<stop stop-color="#010101" stop-opacity="0"/>
<stop offset="0.95" stop-color="#010101"/>
</linearGradient>
<linearGradient id="paint9_linear" x1="3580.65" y1="1119.06" x2="3642.69" y2="2562.14" gradientUnits="userSpaceOnUse">
<stop stop-color="#010101" stop-opacity="0"/>
<stop offset="0.95" stop-color="#010101"/>
</linearGradient>
<linearGradient id="paint10_linear" x1="5232.22" y1="1119.06" x2="5294.25" y2="2562.14" gradientUnits="userSpaceOnUse">
<stop stop-color="#010101" stop-opacity="0"/>
<stop offset="0.95" stop-color="#010101"/>
</linearGradient>
<linearGradient id="paint11_linear" x1="3580.65" y1="1449.28" x2="3642.69" y2="2892.48" gradientUnits="userSpaceOnUse">
<stop stop-color="#010101" stop-opacity="0"/>
<stop offset="0.95" stop-color="#010101"/>
</linearGradient>
<linearGradient id="paint12_linear" x1="3580.65" y1="1779.6" x2="3642.69" y2="3222.69" gradientUnits="userSpaceOnUse">
<stop stop-color="#010101" stop-opacity="0"/>
<stop offset="0.95" stop-color="#010101"/>
</linearGradient>
<linearGradient id="paint13_linear" x1="1921.22" y1="1655.8" x2="1983.37" y2="3098.88" gradientUnits="userSpaceOnUse">
<stop stop-color="#010101" stop-opacity="0"/>
<stop offset="0.95" stop-color="#010101"/>
</linearGradient>
<linearGradient id="paint14_linear" x1="1921.22" y1="1868.54" x2="1983.37" y2="3311.62" gradientUnits="userSpaceOnUse">
<stop stop-color="#010101" stop-opacity="0"/>
<stop offset="0.95" stop-color="#010101"/>
</linearGradient>
<linearGradient id="paint15_linear" x1="1921.22" y1="2081.27" x2="1983.37" y2="3524.35" gradientUnits="userSpaceOnUse">
<stop stop-color="#010101" stop-opacity="0"/>
<stop offset="0.95" stop-color="#010101"/>
</linearGradient>
<linearGradient id="paint16_linear" x1="1921.22" y1="2467.59" x2="1983.37" y2="3910.67" gradientUnits="userSpaceOnUse">
<stop stop-color="#010101" stop-opacity="0"/>
<stop offset="0.95" stop-color="#010101"/>
</linearGradient>
<linearGradient id="paint17_linear" x1="1921.22" y1="2841.29" x2="1983.37" y2="4284.38" gradientUnits="userSpaceOnUse">
<stop stop-color="#010101" stop-opacity="0"/>
<stop offset="0.95" stop-color="#010101"/>
</linearGradient>
<linearGradient id="paint18_linear" x1="9580.91" y1="7243.3" x2="10003.5" y2="7207.22" gradientUnits="userSpaceOnUse">
<stop stop-color="#E5C6D6"/>
<stop offset="0.42" stop-color="#EAD4D0"/>
<stop offset="1" stop-color="#F0E9CB"/>
</linearGradient>
<linearGradient id="paint19_linear" x1="9001.71" y1="13786.8" x2="7529.37" y2="13108.3" gradientUnits="userSpaceOnUse">
<stop stop-color="#010101" stop-opacity="0"/>
<stop offset="0.95" stop-color="#010101"/>
</linearGradient>
<linearGradient id="paint20_linear" x1="2782.92" y1="1912.36" x2="2820.46" y2="1912.36" gradientUnits="userSpaceOnUse">
<stop stop-color="#E5C6D6"/>
<stop offset="0.42" stop-color="#EAD4D0"/>
<stop offset="1" stop-color="#F0E9CB"/>
</linearGradient>
<linearGradient id="paint21_linear" x1="4347.47" y1="2632.94" x2="4448.77" y2="2632.94" gradientUnits="userSpaceOnUse">
<stop stop-color="#E5C6D6"/>
<stop offset="0.42" stop-color="#EAD4D0"/>
<stop offset="1" stop-color="#F0E9CB"/>
</linearGradient>
<clipPath id="clip0">
<rect width="510.43" height="371.3" fill="white"/>
</clipPath>
</defs>
</svg>
