<svg width="644" height="507" viewBox="0 0 644 507" fill="none" xmlns="http://www.w3.org/2000/svg">
<g clip-path="url(#clip0)">
<path opacity="0.24" d="M88.93 82.15C77.93 109.93 76 140.27 70.37 169.59C63.8233 203.631 52.3032 236.523 36.18 267.21C24.82 288.81 11.1 309.53 4.52999 333.02C-1.13001 353.26 -1.18001 374.84 2.66999 395.5C7.31951 420.268 17.3901 443.701 32.16 464.12C40.16 475.12 49.88 485.52 62.37 491C71.59 495 81.78 496.21 91.79 497.24C226.252 511.07 361.849 509.6 495.98 492.86C513.38 490.69 530.98 488.2 547.19 481.53C570.66 471.88 589.72 454.14 608.19 436.76C619.67 425.99 631.44 414.81 637.85 400.43C647.51 378.78 643.38 353.27 634.28 331.43C625.18 309.59 611.47 289.88 601.28 268.48C587.836 240.099 580.783 209.114 580.62 177.71C580.49 151.42 585.06 124.14 575.94 99.48C566.4 73.7 543.35 55.31 519.35 41.91C480.281 20.1615 436.538 8.17148 391.84 6.96C328.2 5.3 266.27 25.38 202.67 24.26C150.62 23.34 111.48 24.93 88.93 82.15Z" fill="#1A237E"/>
<path opacity="0.24" d="M89.44 82.15C78.5 109.93 76.51 140.27 70.89 169.59C64.3444 203.633 52.8207 236.525 36.69 267.21C25.34 288.81 11.62 309.53 5.05001 333.02C-0.609989 353.26 -0.65999 374.84 3.19001 395.5C7.83175 420.269 17.8993 443.703 32.67 464.12C40.67 475.12 50.4 485.52 62.89 491C72.11 495 82.29 496.21 92.31 497.24C226.772 511.07 362.369 509.6 496.5 492.86C513.9 490.69 531.5 488.2 547.7 481.53C571.18 471.88 590.24 454.14 608.7 436.76C620.18 425.99 631.95 414.81 638.36 400.43C648.02 378.78 643.89 353.27 634.79 331.43C625.69 309.59 611.98 289.88 601.79 268.48C588.335 240.115 581.265 209.144 581.08 177.75C580.95 151.46 585.53 124.18 576.41 99.52C566.87 73.74 543.82 55.35 519.82 41.95C480.769 20.1964 437.044 8.19293 392.36 6.96C328.72 5.3 266.79 25.38 203.19 24.26C151.11 23.34 111.99 24.93 89.44 82.15Z" fill="#1A237E"/>
<path opacity="0.46" d="M338.43 453.33C482.201 453.33 598.75 443.436 598.75 431.23C598.75 419.025 482.201 409.13 338.43 409.13C194.659 409.13 78.1101 419.025 78.1101 431.23C78.1101 443.436 194.659 453.33 338.43 453.33Z" fill="#1A237E"/>
<path opacity="0.24" d="M518.69 101H173V428.81H518.69V101Z" fill="#1A237E"/>
<path d="M502.99 100.18H157.3V427.99H502.99V100.18Z" fill="white"/>
<path d="M486.89 153.65H173.05V367.29H486.89V153.65Z" fill="#1A237E"/>
<path d="M548.35 219.03C548.35 239.11 527.45 255.36 501.68 255.36C497.353 255.374 493.038 254.895 488.82 253.93L468.46 264.35L476.62 249.62C463.62 243.22 455.01 231.94 455.01 219.03C455.01 198.95 475.91 182.69 501.67 182.69C527.43 182.69 548.35 198.95 548.35 219.03Z" fill="#1A237E"/>
<path d="M542.62 218.51C542.62 238.59 521.73 254.84 495.96 254.84C491.633 254.861 487.317 254.381 483.1 253.41L462.73 263.83L470.91 249.11C457.91 242.7 449.3 231.42 449.3 218.51C449.3 198.43 470.19 182.17 495.96 182.17C521.73 182.17 542.62 198.43 542.62 218.51Z" fill="url(#paint0_linear)"/>
<path d="M190.46 237.67V280.06C190.46 282.389 190.001 284.696 189.109 286.847C188.218 288.999 186.911 290.954 185.264 292.601C183.616 294.247 181.66 295.553 179.508 296.443C177.356 297.334 175.049 297.791 172.72 297.79H169.54V316.43L159.86 297.79H86.27C83.9417 297.79 81.6362 297.331 79.4851 296.44C77.334 295.549 75.3794 294.243 73.733 292.597C72.0867 290.951 70.7807 288.996 69.8897 286.845C68.9986 284.694 68.54 282.388 68.54 280.06V237.67C68.5387 235.341 68.9964 233.035 69.887 230.883C70.7775 228.732 72.0835 226.777 73.7301 225.13C75.3767 223.483 77.3318 222.177 79.4835 221.287C81.6352 220.396 83.9413 219.939 86.27 219.94H172.72C175.049 219.939 177.356 220.396 179.508 221.287C181.66 222.177 183.616 223.483 185.264 225.129C186.911 226.776 188.218 228.731 189.109 230.883C190.001 233.034 190.46 235.341 190.46 237.67Z" fill="#1A237E"/>
<path d="M190.46 237.67V280.06C190.46 282.389 190.001 284.696 189.109 286.847C188.218 288.999 186.911 290.954 185.264 292.601C183.616 294.247 181.66 295.553 179.508 296.443C177.356 297.334 175.049 297.791 172.72 297.79H169.54V316.43L159.86 297.79H86.27C83.9417 297.79 81.6362 297.331 79.4851 296.44C77.334 295.549 75.3794 294.243 73.733 292.597C72.0867 290.951 70.7807 288.996 69.8897 286.845C68.9986 284.694 68.54 282.388 68.54 280.06V237.67C68.5387 235.341 68.9964 233.035 69.887 230.883C70.7775 228.732 72.0835 226.777 73.7301 225.13C75.3767 223.483 77.3318 222.177 79.4835 221.287C81.6352 220.396 83.9413 219.939 86.27 219.94H172.72C175.049 219.939 177.356 220.396 179.508 221.287C181.66 222.177 183.616 223.483 185.264 225.129C186.911 226.776 188.218 228.731 189.109 230.883C190.001 233.034 190.46 235.341 190.46 237.67Z" fill="url(#paint1_linear)"/>
<path d="M174.74 235.33H83.8999V240.41H174.74V235.33Z" fill="#1A237E"/>
<path d="M174.74 248.73H83.8999V253.81H174.74V248.73Z" fill="#1A237E"/>
<path d="M174.74 262.13H83.8999V267.21H174.74V262.13Z" fill="#1A237E"/>
<path opacity="0.24" d="M196.62 381.66C196.62 381.66 188.33 370.78 180.56 381.14C172.79 391.5 198.17 403.93 198.17 403.93C198.17 403.93 216.3 390.93 214.22 383.21C212.14 375.49 200.78 373.37 196.62 381.66Z" fill="#1A237E"/>
<path opacity="0.24" d="M196.62 381.66C196.62 381.66 188.33 370.78 180.56 381.14C172.79 391.5 198.17 403.93 198.17 403.93C198.17 403.93 216.3 390.93 214.22 383.21C212.14 375.49 200.78 373.37 196.62 381.66Z" fill="#1A237E"/>
<path d="M416.74 268.21C416.74 268.21 408.45 257.33 400.68 267.69C392.91 278.05 418.29 290.48 418.29 290.48C418.29 290.48 436.42 277.53 434.34 269.76C432.26 261.99 420.88 259.95 416.74 268.21Z" fill="white"/>
<path opacity="0.24" d="M287.68 389.27C287.68 396.07 280.61 401.56 271.9 401.56C270.436 401.566 268.977 401.405 267.55 401.08L260.62 404.6L263.38 399.6C258.98 397.44 256.07 393.6 256.07 389.25C256.07 382.46 263.14 376.97 271.86 376.97C280.58 376.97 287.68 382.48 287.68 389.27Z" fill="#1A237E"/>
<path opacity="0.24" d="M222.69 387.99L248.58 379.18L230.97 395.24L222.69 387.99Z" fill="#1A237E"/>
<path opacity="0.24" d="M232.27 396.19L249.1 379.88L238.22 404.21L232.27 396.19Z" fill="#1A237E"/>
<path opacity="0.24" d="M194.55 147.26C204.419 147.26 212.42 139.259 212.42 129.39C212.42 119.521 204.419 111.52 194.55 111.52C184.681 111.52 176.68 119.521 176.68 129.39C176.68 139.259 184.681 147.26 194.55 147.26Z" fill="#1A237E"/>
<path d="M429.42 128.85C429.32 130.62 429.23 132.56 430.3 133.97C433.1 132.3 433.94 128.69 434.3 125.46C434.999 119.052 434.821 112.579 433.77 106.22C433.652 105.194 433.351 104.198 432.88 103.28C431.984 101.965 430.712 100.951 429.23 100.37C428.342 99.879 427.345 99.6177 426.33 99.61C425.824 99.6203 425.334 99.7861 424.926 100.085C424.518 100.384 424.212 100.801 424.05 101.28C423.961 101.901 424.033 102.535 424.26 103.12C424.716 105.272 425.449 107.356 426.44 109.32C427.442 110.897 428.182 112.626 428.63 114.44C429.657 119.171 429.924 124.035 429.42 128.85Z" fill="url(#paint2_linear)"/>
<path d="M391.22 105.49C393.29 107.09 396 107.59 398.61 107.77C399.56 107.83 400.53 107.86 401.49 107.9C402.835 107.958 404.109 108.516 405.064 109.465C406.018 110.414 406.584 111.686 406.65 113.03C406.73 115.03 406.77 117.03 406.77 119.03C406.77 123.81 406.6 128.8 408.7 133.09C409.14 133.99 409.85 134.94 410.85 134.96C411.386 134.926 411.896 134.715 412.3 134.36C413.574 133.289 414.457 131.826 414.81 130.2C415.159 128.581 415.303 126.925 415.24 125.27C415.24 118.94 414.69 112.49 412.24 106.65C411.958 105.985 411.623 105.343 411.24 104.73C409.621 102.393 407.171 100.762 404.39 100.17C401.636 99.5933 398.809 99.4449 396.01 99.73C394.68 99.82 393.34 99.93 392.01 100C391.26 100 388.47 99.62 387.95 100C386.89 100.91 390.43 104.87 391.22 105.49Z" fill="url(#paint3_linear)"/>
<path d="M446.75 102.3C447.04 108.59 439 139.89 437.25 141.06C435.79 142.06 433.16 140.72 431.66 139.81C431.37 139.6 431.16 139.43 430.95 139.31C429.79 138.43 431.66 114.39 431.66 114.39C431.66 114.39 432.25 106.22 426.54 101.47C420.16 96.18 412.87 91.3 413.37 87.55C413.413 86.9876 413.65 86.4575 414.04 86.05C417.24 82.22 424.54 76.39 428.37 79.22L439.54 88.09C439.548 88.1161 439.548 88.1439 439.54 88.17C439.62 88.26 439.75 88.42 439.96 88.63C440.25 89.01 440.71 89.55 441.21 90.17C442.561 92.0374 443.771 94.0028 444.83 96.05C445.864 97.9913 446.516 100.113 446.75 102.3Z" fill="#606161"/>
<path d="M430.79 97.68C432.44 100.32 432.66 99.3 433.87 105.3C435.08 111.3 433.87 136.1 432.54 138.72C432.333 139.145 432.032 139.518 431.66 139.81C431.37 139.6 431.16 139.43 430.95 139.31C429.79 138.43 431.66 114.39 431.66 114.39C431.66 114.39 432.25 106.22 426.54 101.47C426.54 101.47 427.41 96.05 423.45 92.97C420.319 90.767 416.935 88.9473 413.37 87.55C413.83 87.38 420.7 79.25 427.08 79.55C432.87 79.8 422.85 84.94 430.79 97.68Z" fill="url(#paint4_linear)"/>
<path d="M421.83 138.68C421.177 140.571 420.092 142.283 418.66 143.68C417.12 144.97 414.79 145.51 413.12 144.47C411.12 143.26 410.78 140.68 410.58 138.47C409.91 130.64 409.87 117.01 409.2 109.18C409.131 108.299 408.731 107.477 408.08 106.88C407.083 106.113 405.954 105.534 404.75 105.17C402.38 104.38 399.42 103.76 397.21 102.3C396.431 101.805 395.752 101.167 395.21 100.42C391.29 95.05 389.83 84.13 393.08 78.92C393.511 78.127 394.125 77.4483 394.871 76.9404C395.618 76.4325 396.474 76.1101 397.37 76C403.04 75.29 413.25 79 415.63 84.13C416.38 85.8 416.71 87.63 417.79 89.13C419.67 91.75 423.38 92.55 425.21 95.21C426.044 96.61 426.556 98.1778 426.71 99.8C428.74 112.962 427.049 126.428 421.83 138.68Z" fill="#606161"/>
<path d="M409.12 104.97C409.291 105.353 409.373 105.771 409.357 106.19C409.341 106.61 409.229 107.02 409.03 107.39C408.7 107.22 408.41 107.01 408.03 106.84C406.95 106.26 405.83 105.67 404.7 105.13C403.12 104.42 401.45 103.76 399.78 103.13C398.91 102.84 398.03 102.55 397.16 102.22C396.381 101.725 395.702 101.087 395.16 100.34C391.24 94.97 389.78 84.05 393.03 78.84C396.2 79.05 399.28 80.51 402.16 81.84C403.87 82.68 405.57 83.47 407.16 84.43C408.24 85.05 410.45 85.97 408.74 87.18C406.41 88.8 401.95 85.93 400.16 88.55C399.819 89.1605 399.646 89.8508 399.66 90.55C399.57 91.55 399.49 92.55 399.41 93.63C399.297 94.5488 399.351 95.4805 399.57 96.38C400.078 97.5215 400.922 98.4809 401.99 99.13C403.937 100.318 405.817 101.613 407.62 103.01C408.242 103.56 408.751 104.226 409.12 104.97Z" fill="url(#paint5_linear)"/>
<path d="M412.86 153.75C413.552 154.438 414.336 155.027 415.19 155.5L418.83 157.77C420.14 158.58 421.83 159.39 423.11 158.47C424.39 157.55 424.11 155.95 423.69 154.63C423.044 152.679 421.908 150.926 420.39 149.54C420.068 149.293 419.799 148.984 419.6 148.63C419.457 148.254 419.402 147.85 419.44 147.45V143.7C419.44 139.9 414.22 140.58 412.57 142.83C410.56 145.6 410.49 151.21 412.86 153.75Z" fill="#606161"/>
<path d="M431.11 149.08C432.011 150.48 433.33 151.561 434.88 152.17C436.365 152.875 437.912 153.444 439.5 153.87C439.822 154.007 440.172 154.064 440.521 154.034C440.87 154.004 441.206 153.89 441.5 153.7C441.751 153.419 441.917 153.072 441.98 152.7C442.245 151.514 442.216 150.281 441.897 149.109C441.578 147.936 440.979 146.859 440.15 145.97C439.4 145.324 438.729 144.593 438.15 143.79C437.44 142.54 437.59 141.01 437.46 139.58C437.18 136.44 432.18 137.26 430.97 139.29C429.76 141.32 430.04 147.11 431.11 149.08Z" fill="#606161"/>
<path d="M391.85 75.81C391.763 77.088 392.07 78.362 392.73 79.46C393.41 80.2273 394.259 80.8263 395.21 81.21C399.85 83.54 404.57 85.9 409.67 86.86C414.77 87.82 420.4 87.23 424.53 84.09C426.033 83.0343 427.171 81.5391 427.79 79.81C428.45 77.7 428 75.43 427.89 73.22C427.6 67.73 429.44 62.38 430.72 57.02C432 51.66 432.72 45.79 430.25 40.85C428.34 36.96 432.45 33.7 428.83 31.33C423.73 27.98 417.74 26.33 409.38 27.61C406.15 28.09 395.1 32.61 393.91 35.67C392.72 38.73 396.2 41.82 395.8 45.07C394.53 55.21 391.85 65.67 391.85 75.81Z" fill="#1A237E"/>
<path d="M441.14 58.87C442.14 61.16 442.98 64.01 441.4 65.87C440.818 66.4792 440.084 66.924 439.275 67.1592C438.466 67.3945 437.608 67.412 436.79 67.21C435.172 66.7733 433.618 66.1243 432.17 65.28C431.216 64.9003 430.361 64.3087 429.67 63.55C428.73 62.32 428.84 60.62 428.9 59.07C429.16 51.41 426.98 43.91 427.11 36.26C427.11 35.11 426.78 32.56 428.21 32.08C429.8 31.55 430.27 34.01 430.75 35.08C432.4 38.74 434.04 42.41 435.64 46.08C437.513 50.3267 439.347 54.59 441.14 58.87Z" fill="#1A237E"/>
<path d="M428.72 55.63L431.65 47.83C431.887 47.2061 432.334 46.6847 432.915 46.3559C433.496 46.0272 434.173 45.9119 434.83 46.03L439.99 46.94C440.388 47.0074 440.767 47.159 441.101 47.3848C441.435 47.6105 441.718 47.9052 441.929 48.2489C442.14 48.5927 442.275 48.9777 442.326 49.378C442.376 49.7783 442.34 50.1847 442.22 50.57L438.07 63.71C437.844 64.4177 437.351 65.0092 436.695 65.3584C436.04 65.7077 435.273 65.7872 434.56 65.58L429.28 64.08C428.919 63.9861 428.581 63.8214 428.284 63.5954C427.988 63.3695 427.74 63.0868 427.553 62.7638C427.367 62.4409 427.247 62.0842 427.2 61.7144C427.153 61.3446 427.181 60.9692 427.28 60.61L428.62 55.86C428.62 55.79 428.69 55.71 428.72 55.63Z" fill="#606161"/>
<path d="M398.46 76.73C398.559 76.5491 398.704 76.3974 398.88 76.29C399.141 76.1878 399.424 76.1601 399.7 76.21C401.293 76.355 402.897 76.355 404.49 76.21C404.99 76.21 429.71 66.74 428.11 65.91C427.33 65.51 415.76 63.78 407.81 59.73C401.03 56.29 397.91 49.98 395.23 54.17C394.54 55.25 392.77 69.58 392.34 70.78C392.26 71.0596 392.219 71.3491 392.22 71.64L392.04 75.28C391.851 76.6332 392.02 78.0124 392.53 79.28C393.37 80.91 395.21 81.73 396.91 82.42C397.413 82.6842 397.992 82.7688 398.55 82.66C397.72 80.73 397.21 78.68 398.46 76.73Z" fill="url(#paint6_linear)"/>
<path d="M410.92 79.65L421.21 79.72C421.21 79.72 419.04 83.31 417.21 83.5L410.92 79.65Z" fill="#1A237E"/>
<path d="M389.55 46.89C389.861 52.0452 390.73 57.1516 392.14 62.12C393.14 65.63 394.56 69.28 397.52 71.41C400.207 73.1628 403.468 73.8078 406.62 73.21C409.737 72.6051 412.763 71.5966 415.62 70.21L424.45 66.39C425.154 66.1357 425.795 65.7333 426.33 65.21C427.83 63.5 426.27 60.63 424.13 59.84C421.99 59.05 419.64 59.54 417.36 59.53C414.84 59.53 410.02 60.98 407.81 59.77C407.373 59.5806 407.003 59.2634 406.75 58.86C406.557 58.4027 406.491 57.9016 406.56 57.41C406.78 50.67 405.86 40.11 399.98 36.29C392.76 31.62 389.2 41.08 389.55 46.89Z" fill="#1A237E"/>
<path d="M413.62 38C414.575 38.5094 415.657 38.7296 416.735 38.6337C417.813 38.5378 418.84 38.13 419.69 37.46C420.488 36.7501 421.015 35.7851 421.18 34.73C421.63 31.73 419.11 28.97 419.33 25.96C419.44 24.46 420.22 22.96 419.69 21.52C419.24 20.32 412.54 18.37 412.29 19.63C410.62 28.53 406.32 34.35 413.62 38Z" fill="#F4A982"/>
<path d="M413.27 20.07C413.27 20.07 412.62 33.13 419.62 32.21C419.62 32.21 420.72 32.06 420.39 30.45C420.06 28.84 418.7 27.18 418.78 25.75C418.86 24.32 413.27 20.07 413.27 20.07Z" fill="url(#paint7_linear)"/>
<path d="M430.81 11.96C430.715 13.4825 430.31 14.9696 429.62 16.33C428.719 18.4852 427.667 20.5738 426.47 22.58C425.555 24.3299 424.293 25.8747 422.76 27.12C421.973 27.7167 421.049 28.1063 420.072 28.253C419.096 28.3998 418.098 28.299 417.17 27.96C415.51 27.25 414.46 25.58 413.67 23.96C412.437 21.3568 411.838 18.4991 411.92 15.62C412.04 13.47 412.56 10.42 414.46 9.09C414.904 8.78124 415.429 8.61075 415.97 8.6C416.67 8.6 417.2 9.05 417.84 9.11C418.332 9.07305 418.817 8.96874 419.28 8.8C419.86 8.69 420.44 8.61 421.03 8.55C422.165 8.45497 423.305 8.45497 424.44 8.55C425.393 8.61831 426.34 8.7621 427.27 8.98C428.163 9.1282 429.013 9.46947 429.76 9.98C430.07 10.2123 430.325 10.5103 430.507 10.8526C430.688 11.1948 430.792 11.573 430.81 11.96Z" fill="#F4A982"/>
<path d="M434.62 54.07C436.023 54.4596 437.253 55.3125 438.11 56.49C438.303 56.6907 438.447 56.9339 438.53 57.2C438.595 57.5418 438.538 57.8956 438.37 58.2C437.22 60.6 433.87 60.84 431.91 62.64C431.465 63.1314 430.994 63.5988 430.5 64.04C429.79 64.5305 428.986 64.8708 428.14 65.04C427.27 65.26 426.38 65.44 425.5 65.59C423.34 65.95 422.25 63.81 422.4 61.9C422.53 60.19 423.4 59.57 424.83 58.9C427.82 57.4 431.05 53.35 434.62 54.07Z" fill="#F4A982"/>
<path d="M412.04 13.13C411.865 13.0496 411.673 13.0119 411.48 13.02C411.329 13.0514 411.187 13.1174 411.065 13.2128C410.944 13.3082 410.846 13.4305 410.78 13.57C410.662 13.8552 410.604 14.1615 410.61 14.47C410.599 14.9269 410.642 15.3835 410.74 15.83C410.797 16.2485 410.969 16.6431 411.235 16.9711C411.501 17.299 411.852 17.5477 412.25 17.69C412.614 17.7526 412.988 17.6805 413.303 17.4873C413.617 17.2941 413.851 16.9929 413.96 16.64C414.041 15.9283 413.9 15.2089 413.557 14.5804C413.213 13.952 412.683 13.4453 412.04 13.13Z" fill="#F4A982"/>
<path d="M412.43 15.46C412.3 15.23 412.43 14.94 412.43 14.67C412.43 14.4 412.07 14.17 411.7 13.99C411.674 13.9972 411.65 14.0099 411.629 14.0271C411.609 14.0443 411.592 14.0658 411.58 14.09C411.429 14.351 411.336 14.6414 411.306 14.9416C411.277 15.2417 411.312 15.5447 411.41 15.83C411.463 16.0443 411.566 16.243 411.71 16.41C411.784 16.493 411.878 16.5565 411.983 16.5949C412.087 16.6332 412.2 16.6453 412.31 16.63C412.445 16.5874 412.566 16.5107 412.663 16.4073C412.759 16.3039 412.827 16.1774 412.86 16.04C412.93 15.62 412.62 15.78 412.43 15.46Z" fill="url(#paint8_linear)"/>
<path d="M421.62 0.209993C418.7 0.129993 415.44 0.569993 413.57 2.80999C411.87 4.80999 411.82 7.74999 412.09 10.38C412.135 11.0622 412.273 11.7352 412.5 12.38C412.98 13.58 414.04 14.56 414.13 15.85C414.17 14.9386 414.484 14.0603 415.029 13.3292C415.575 12.5981 416.328 12.0479 417.19 11.75C417.936 11.5439 418.706 11.433 419.48 11.42L426.65 11.04C427.015 10.998 427.384 11.0217 427.74 11.11C428.224 11.3432 428.689 11.614 429.13 11.92C429.607 12.1158 430.126 12.1856 430.637 12.1225C431.149 12.0595 431.635 11.8657 432.05 11.56C432.869 10.9362 433.55 10.1497 434.05 9.24999C434.657 8.46493 435.006 7.51136 435.05 6.51999C435 5.51999 434.14 4.51999 433.17 4.68999C432.89 4.68999 432.58 4.84999 432.36 4.68999C430.52 3.32999 432.61 0.439993 429.36 0.0899934C426.78 0.00138791 424.196 0.0414375 421.62 0.209993Z" fill="#606161"/>
<path d="M386.42 366.84C372.85 369.28 353.77 369.84 340.01 371.18C318.01 373.39 294.21 365.51 272.14 367.01C271.14 352.01 272.02 331.13 273.9 324.79C276.11 317.04 280.57 309.79 287.05 305.07C288.27 305.07 291.6 302.3 292.82 301.69C294.99 300.723 297.217 299.892 299.49 299.2C303.542 297.9 307.665 296.835 311.84 296.01C321.13 294.08 332.12 296.15 341.61 296.57C347.43 296.81 353.44 297.09 358.61 299.67C363.26 301.97 366.87 305.87 369.83 310.09C375.27 317.79 384.87 347.69 386.42 366.84Z" fill="white"/>
<path d="M312.62 294.34C311.8 296.34 310.75 298.34 310.79 300.54C310.953 302.814 311.946 304.95 313.58 306.54C315.182 308.288 317.166 309.643 319.378 310.498C321.589 311.353 323.969 311.686 326.33 311.47C328.687 311.202 330.929 310.306 332.822 308.876C334.714 307.446 336.188 305.534 337.09 303.34C337.405 302.571 337.575 301.751 337.59 300.92C337.508 299.854 337.269 298.806 336.88 297.81C335.442 293.355 334.828 288.675 335.07 284C335.23 281.09 335.49 277.61 333.18 275.83C332.47 275.333 331.673 274.973 330.83 274.77C326.751 273.61 322.429 273.61 318.35 274.77C313.73 276.08 315.02 278.56 315 282.46C314.97 286.535 314.163 290.568 312.62 294.34Z" fill="url(#paint9_linear)"/>
<path d="M322.72 291.38C325.72 292.61 329.41 292.5 331.72 290.31C334.03 288.12 334.43 284.85 334.72 281.77L335.15 277.54C335.212 277.234 335.18 276.918 335.06 276.63C334.906 276.439 334.711 276.286 334.489 276.182C334.268 276.078 334.025 276.026 333.78 276.03C330.128 275.622 326.448 275.529 322.78 275.75C320.34 275.9 316.85 275.75 315.59 278.31C313.29 283.11 318.62 289.65 322.72 291.38Z" fill="url(#paint10_linear)"/>
<path d="M301.14 266.21C302.592 269.81 304.618 273.15 307.14 276.1C313.34 282.89 323.67 285.17 332.51 282.63C341.35 280.09 348.62 273.21 352.62 264.95C356.62 256.69 357.71 247.18 356.75 238.03C356.21 233.03 355 227.81 351.87 223.81C349.302 220.707 345.944 218.354 342.15 217C335.347 214.376 327.845 214.195 320.924 216.488C314.002 218.78 308.091 223.404 304.2 229.57C296.83 241.27 295.55 253.59 301.14 266.21Z" fill="url(#paint11_linear)"/>
<path d="M292.76 251.46C292.319 252.099 292.023 252.827 291.895 253.592C291.767 254.358 291.81 255.143 292.02 255.89C292.456 257.381 293.206 258.762 294.22 259.94C294.507 260.397 294.887 260.789 295.335 261.09C295.783 261.391 296.288 261.596 296.82 261.69C297.337 261.665 297.84 261.514 298.287 261.251C298.733 260.988 299.108 260.621 299.38 260.18C302.62 255.74 296.92 246.05 292.76 251.46Z" fill="url(#paint12_linear)"/>
<path d="M358.21 248.36C358.977 248.329 359.737 248.513 360.405 248.891C361.073 249.269 361.622 249.827 361.99 250.5C362.695 251.875 362.841 253.469 362.4 254.95C361.944 256.42 361.192 257.782 360.19 258.95C359.342 260.125 358.177 261.034 356.83 261.57C356.153 261.818 355.416 261.849 354.721 261.66C354.025 261.47 353.407 261.068 352.95 260.51C352.652 260.031 352.442 259.503 352.33 258.95C351.44 255.36 353.83 248.76 358.21 248.36Z" fill="url(#paint13_linear)"/>
<path d="M302.8 271.52C303.336 273.345 304.12 275.088 305.13 276.7C307.06 279.58 310.13 281.54 313.21 283.08C314.859 283.934 316.596 284.604 318.39 285.08C320.928 285.608 323.52 285.823 326.11 285.72C331.61 285.67 337.11 285.35 342.6 284.99C343.808 285.017 345.002 284.735 346.07 284.17C346.992 283.476 347.724 282.561 348.2 281.51C351.297 276.126 353.222 270.149 353.85 263.97C353.903 261.8 354.067 259.634 354.34 257.48C354.91 254.3 356.44 251.18 356 247.98C354.62 248.34 353.87 249.78 353.3 251.08C352.15 253.73 351.07 256.41 349.78 258.99C349.044 260.596 348.066 262.08 346.88 263.39C343.97 266.39 339.55 267.39 335.37 267.71C332.178 267.923 328.977 267.977 325.78 267.87C320.78 267.77 315.38 267.51 311.25 264.62C306.25 261.1 304.48 254.1 299.25 250.97C298.68 251.97 299.55 253.59 299.63 254.66C299.77 256.66 299.93 258.57 300.22 260.51C300.763 264.247 301.627 267.931 302.8 271.52Z" fill="#606161"/>
<path d="M302.8 271.52C303.336 273.345 304.12 275.088 305.13 276.7C307.06 279.58 310.13 281.54 313.21 283.08C314.859 283.934 316.596 284.604 318.39 285.08C320.928 285.608 323.52 285.823 326.11 285.72C331.61 285.67 337.11 285.35 342.6 284.99C343.808 285.017 345.002 284.735 346.07 284.17C346.992 283.476 347.724 282.561 348.2 281.51C351.297 276.126 353.222 270.149 353.85 263.97C353.903 261.8 354.067 259.634 354.34 257.48C354.91 254.3 356.44 251.18 356 247.98C354.62 248.34 353.87 249.78 353.3 251.08C352.15 253.73 351.07 256.41 349.78 258.99C349.044 260.596 348.066 262.08 346.88 263.39C343.97 266.39 339.55 267.39 335.37 267.71C332.178 267.923 328.977 267.977 325.78 267.87C320.78 267.77 315.38 267.51 311.25 264.62C306.25 261.1 304.48 254.1 299.25 250.97C298.68 251.97 299.55 253.59 299.63 254.66C299.77 256.66 299.93 258.57 300.22 260.51C300.763 264.247 301.627 267.931 302.8 271.52Z" fill="url(#paint14_linear)"/>
<path d="M330.94 271.7L324.4 271.48C323.391 271.378 322.372 271.473 321.4 271.76C320.913 271.908 320.477 272.19 320.143 272.573C319.809 272.957 319.59 273.427 319.51 273.93C319.516 274.747 319.802 275.538 320.32 276.17C320.58 276.603 320.919 276.983 321.32 277.29C322.16 277.736 323.116 277.914 324.06 277.8L335.82 277.55C336.138 277.568 336.455 277.503 336.74 277.36C337.017 277.161 337.216 276.871 337.3 276.54C337.576 275.703 337.603 274.804 337.377 273.951C337.152 273.099 336.684 272.331 336.03 271.74C334.79 270.8 332.49 271.75 330.94 271.7Z" fill="url(#paint15_linear)"/>
<path d="M299.62 253.37C300.8 253.06 300.92 251.45 300.85 250.23C300.49 244.051 301.829 237.892 304.72 232.42C306.83 234.34 310.13 233.25 312.83 232.32C324.36 228.32 336.93 229.64 349.07 230.71C349.496 230.646 349.931 230.736 350.297 230.963C350.663 231.19 350.937 231.54 351.07 231.95C353.915 237.865 355.466 244.318 355.62 250.88C356.62 250.08 358.85 249.45 359.53 248.5C360.01 247.84 359.94 246 360.29 245.12C361.29 242.68 363.39 240.9 363.99 238.24C365.11 233.24 360.69 228.42 361.47 223.4C361.84 220.99 363.37 218.93 364.11 216.61C364.633 214.939 364.751 213.167 364.451 211.442C364.152 209.716 363.445 208.087 362.39 206.69C360.95 204.83 358.39 203.4 356.28 204.4C355.58 204.72 355.01 205.28 354.28 205.62C351.22 207.12 348.07 204.05 345.04 202.5C340.3 200.07 334.4 201.5 329.86 204.28C328.43 205.16 326.93 206.22 325.25 206.15C324.205 206.003 323.192 205.685 322.25 205.21C315.86 202.68 308.15 204.82 303.3 209.68C298.45 214.54 296.3 221.68 296.7 228.57C296.84 230.97 297.26 233.45 296.48 235.72C295.2 239.48 294.09 245.04 295.63 248.96C295.99 249.89 298.85 253.56 299.62 253.37Z" fill="#606161"/>
<path d="M299.62 253.37C300.8 253.06 300.92 251.45 300.85 250.23C300.49 244.051 301.829 237.892 304.72 232.42C306.83 234.34 310.13 233.25 312.83 232.32C324.36 228.32 336.93 229.64 349.07 230.71C349.496 230.646 349.931 230.736 350.297 230.963C350.663 231.19 350.937 231.54 351.07 231.95C353.915 237.865 355.466 244.318 355.62 250.88C356.62 250.08 358.85 249.45 359.53 248.5C360.01 247.84 359.94 246 360.29 245.12C361.29 242.68 363.39 240.9 363.99 238.24C365.11 233.24 360.69 228.42 361.47 223.4C361.84 220.99 363.37 218.93 364.11 216.61C364.633 214.939 364.751 213.167 364.451 211.442C364.152 209.716 363.445 208.087 362.39 206.69C360.95 204.83 358.39 203.4 356.28 204.4C355.58 204.72 355.01 205.28 354.28 205.62C351.22 207.12 348.07 204.05 345.04 202.5C340.3 200.07 334.4 201.5 329.86 204.28C328.43 205.16 326.93 206.22 325.25 206.15C324.205 206.003 323.192 205.685 322.25 205.21C315.86 202.68 308.15 204.82 303.3 209.68C298.45 214.54 296.3 221.68 296.7 228.57C296.84 230.97 297.26 233.45 296.48 235.72C295.2 239.48 294.09 245.04 295.63 248.96C295.99 249.89 298.85 253.56 299.62 253.37Z" fill="url(#paint16_linear)"/>
<path d="M402.38 323.08C402.779 322.36 403.345 321.746 404.03 321.29C404.72 320.948 405.48 320.77 406.25 320.77C409.618 320.54 413 320.67 416.34 321.16C417.096 321.198 417.821 321.475 418.41 321.95C419.23 322.76 419.11 324.1 418.91 325.23C416.55 339.027 411.953 352.345 405.3 364.66C404.963 365.441 404.412 366.11 403.71 366.59C403.01 366.98 403.8 367.15 402.99 367.19C395.92 367.53 385.21 367.19 374.34 367.53C376.26 365.68 379.94 363.35 381.53 361.05C384.15 357.26 385.65 352.23 387.74 348.11C392.105 339.476 396.994 331.117 402.38 323.08Z" fill="white"/>
<path d="M406.71 313.78C408.373 310.632 411.057 308.143 414.32 306.72C416.94 305.72 419.82 305.67 422.63 305.64L443.95 305.48C444.229 305.44 444.513 305.46 444.783 305.537C445.054 305.615 445.305 305.749 445.52 305.93C446.07 306.55 445.64 307.52 445.13 308.18C440.79 313.8 432.62 314.24 426.22 317.33C422.53 319.11 419.35 321.84 415.58 323.45C412.8 324.64 407.51 325.71 405.11 323.07C402.71 320.43 405.3 316.26 406.71 313.78Z" fill="url(#paint17_linear)"/>
</g>
<defs>
<linearGradient id="paint0_linear" x1="567" y1="222.31" x2="393" y2="223.69" gradientUnits="userSpaceOnUse">
<stop stop-color="white" stop-opacity="0"/>
<stop offset="0.95" stop-color="white"/>
</linearGradient>
<linearGradient id="paint1_linear" x1="16060.8" y1="34053.2" x2="16922.7" y2="7902.92" gradientUnits="userSpaceOnUse">
<stop stop-color="white" stop-opacity="0"/>
<stop offset="0.95" stop-color="white"/>
</linearGradient>
<linearGradient id="paint2_linear" x1="423.85" y1="118.57" x2="454.8" y2="105.66" gradientUnits="userSpaceOnUse">
<stop stop-color="#010101" stop-opacity="0"/>
<stop offset="0.95" stop-color="#010101"/>
</linearGradient>
<linearGradient id="paint3_linear" x1="-35322.9" y1="4415.54" x2="-33514.4" y2="3725.9" gradientUnits="userSpaceOnUse">
<stop stop-color="#010101" stop-opacity="0"/>
<stop offset="0.95" stop-color="#010101"/>
</linearGradient>
<linearGradient id="paint4_linear" x1="-25945.5" y1="7172.5" x2="-27168.8" y2="6937.82" gradientUnits="userSpaceOnUse">
<stop stop-color="#010101" stop-opacity="0"/>
<stop offset="0.95" stop-color="#010101"/>
</linearGradient>
<linearGradient id="paint5_linear" x1="-22991.8" y1="2827.35" x2="-23684.9" y2="2781.48" gradientUnits="userSpaceOnUse">
<stop stop-color="#010101" stop-opacity="0"/>
<stop offset="0.95" stop-color="#010101"/>
</linearGradient>
<linearGradient id="paint6_linear" x1="-45877" y1="2299.48" x2="-48488.1" y2="1566.77" gradientUnits="userSpaceOnUse">
<stop stop-color="#010101" stop-opacity="0"/>
<stop offset="0.95" stop-color="#010101"/>
</linearGradient>
<linearGradient id="paint7_linear" x1="-8816.21" y1="436.114" x2="-8373.02" y2="117.227" gradientUnits="userSpaceOnUse">
<stop stop-color="#010101" stop-opacity="0"/>
<stop offset="0.95" stop-color="#010101"/>
</linearGradient>
<linearGradient id="paint8_linear" x1="-1607.71" y1="61.9964" x2="-1596.32" y2="61.0585" gradientUnits="userSpaceOnUse">
<stop stop-color="#010101" stop-opacity="0"/>
<stop offset="0.95" stop-color="#010101"/>
</linearGradient>
<linearGradient id="paint9_linear" x1="310.81" y1="292.68" x2="337.61" y2="292.68" gradientUnits="userSpaceOnUse">
<stop stop-color="#E5C6D6"/>
<stop offset="0.42" stop-color="#EAD4D0"/>
<stop offset="1" stop-color="#F0E9CB"/>
</linearGradient>
<linearGradient id="paint10_linear" x1="6895.91" y1="5159.26" x2="7074.96" y2="4526.1" gradientUnits="userSpaceOnUse">
<stop stop-color="#010101" stop-opacity="0"/>
<stop offset="0.95" stop-color="#010101"/>
</linearGradient>
<linearGradient id="paint11_linear" x1="18300.3" y1="17543.7" x2="21830" y2="17543.7" gradientUnits="userSpaceOnUse">
<stop stop-color="#E5C6D6"/>
<stop offset="0.42" stop-color="#EAD4D0"/>
<stop offset="1" stop-color="#F0E9CB"/>
</linearGradient>
<linearGradient id="paint12_linear" x1="2821.91" y1="3308.52" x2="2894.26" y2="3308.52" gradientUnits="userSpaceOnUse">
<stop stop-color="#E5C6D6"/>
<stop offset="0.42" stop-color="#EAD4D0"/>
<stop offset="1" stop-color="#F0E9CB"/>
</linearGradient>
<linearGradient id="paint13_linear" x1="4107.84" y1="3709.98" x2="4218.03" y2="3709.98" gradientUnits="userSpaceOnUse">
<stop stop-color="#E5C6D6"/>
<stop offset="0.42" stop-color="#EAD4D0"/>
<stop offset="1" stop-color="#F0E9CB"/>
</linearGradient>
<linearGradient id="paint14_linear" x1="17657.3" y1="10431" x2="20909.8" y2="10431" gradientUnits="userSpaceOnUse">
<stop stop-color="#010101" stop-opacity="0"/>
<stop offset="0.95" stop-color="#010101"/>
</linearGradient>
<linearGradient id="paint15_linear" x1="6173.27" y1="2077.06" x2="6498.15" y2="2077.06" gradientUnits="userSpaceOnUse">
<stop stop-color="#E5C6D6"/>
<stop offset="0.42" stop-color="#EAD4D0"/>
<stop offset="1" stop-color="#F0E9CB"/>
</linearGradient>
<linearGradient id="paint16_linear" x1="21232.1" y1="12193.6" x2="26093.2" y2="12193.6" gradientUnits="userSpaceOnUse">
<stop stop-color="#010101" stop-opacity="0"/>
<stop offset="0.95" stop-color="#010101"/>
</linearGradient>
<linearGradient id="paint17_linear" x1="17459.1" y1="6423.87" x2="19193.3" y2="6423.87" gradientUnits="userSpaceOnUse">
<stop stop-color="#E5C6D6"/>
<stop offset="0.42" stop-color="#EAD4D0"/>
<stop offset="1" stop-color="#F0E9CB"/>
</linearGradient>
<clipPath id="clip0">
<rect width="643.94" height="506.62" fill="white"/>
</clipPath>
</defs>
</svg>
