<svg width="607" height="503" viewBox="0 0 607 503" fill="none" xmlns="http://www.w3.org/2000/svg">
<g clip-path="url(#clip0)">
<path opacity="0.24" d="M144.825 489.884C153.615 490.394 161.705 495.264 170.965 496.514C233.302 504.939 296.488 504.939 358.825 496.514C388.115 492.564 416.635 485.044 446.135 483.274C476.405 481.444 507.765 484.564 536.925 474.464C571.775 462.384 597.005 430.754 598.415 397.364C599.765 365.524 581.645 335.984 571.915 305.364C560.404 269.033 560.716 229.987 572.805 193.844C584.955 157.544 608.925 122.964 606.675 85.134C603.525 32.194 539.075 -10.476 481.565 2.27402C451.445 8.94402 426.175 27.634 396.395 35.424C348.025 48.094 296.055 30.424 245.975 35.424C203.435 39.764 164.255 60.714 135.795 89.334C107.335 117.954 88.965 153.714 77.865 190.654C68.075 223.274 63.375 257.774 44.975 287.264C31.495 308.854 10.825 327.554 4.78501 351.714C-2.29499 380.024 -23.305 480.224 144.825 489.884Z" fill="#1A237E"/>
<path d="M78.0501 237.19V288.39C78.0487 291.203 78.6019 293.989 79.6779 296.589C80.7539 299.188 82.3316 301.55 84.3209 303.539C86.3102 305.528 88.672 307.106 91.2714 308.182C93.8708 309.258 96.6568 309.811 99.4701 309.81H103.32V332.32L115.01 309.81H203.9C209.581 309.81 215.029 307.553 219.046 303.536C223.063 299.519 225.32 294.071 225.32 288.39V237.19C225.321 234.377 224.768 231.591 223.692 228.991C222.616 226.392 221.039 224.03 219.049 222.041C217.06 220.052 214.698 218.474 212.099 217.398C209.499 216.322 206.713 215.769 203.9 215.77H99.4701C96.6568 215.769 93.8708 216.322 91.2714 217.398C88.672 218.474 86.3102 220.052 84.3209 222.041C82.3316 224.03 80.7539 226.392 79.6779 228.991C78.6019 231.591 78.0487 234.377 78.0501 237.19Z" fill="#1A237E"/>
<path d="M78.0501 237.19V288.39C78.0487 291.203 78.6019 293.989 79.6779 296.589C80.7539 299.188 82.3316 301.55 84.3209 303.539C86.3102 305.528 88.672 307.106 91.2714 308.182C93.8708 309.258 96.6568 309.811 99.4701 309.81H103.32V332.32L115.01 309.81H203.9C209.581 309.81 215.029 307.553 219.046 303.536C223.063 299.519 225.32 294.071 225.32 288.39V237.19C225.321 234.377 224.768 231.591 223.692 228.991C222.616 226.392 221.039 224.03 219.049 222.041C217.06 220.052 214.698 218.474 212.099 217.398C209.499 216.322 206.713 215.769 203.9 215.77H99.4701C96.6568 215.769 93.8708 216.322 91.2714 217.398C88.672 218.474 86.3102 220.052 84.3209 222.041C82.3316 224.03 80.7539 226.392 79.6779 228.991C78.6019 231.591 78.0487 234.377 78.0501 237.19Z" fill="url(#paint0_linear)"/>
<path d="M97.04 240.5H206.77V234.37H97.04V240.5Z" fill="#1A237E"/>
<path d="M97.04 256.69H206.77V250.56H97.04V256.69Z" fill="#1A237E"/>
<path d="M97.04 272.87H206.77V266.74H97.04V272.87Z" fill="#1A237E"/>
<path d="M288.92 487.69C380.82 487.69 455.32 475.369 455.32 460.17C455.32 444.971 380.82 432.65 288.92 432.65C197.02 432.65 122.52 444.971 122.52 460.17C122.52 475.369 197.02 487.69 288.92 487.69Z" fill="url(#paint1_linear)"/>
<path d="M368.81 60.1H218.81C201.628 60.1 187.7 74.0284 187.7 91.21V438.94C187.7 456.122 201.628 470.05 218.81 470.05H368.81C385.992 470.05 399.92 456.122 399.92 438.94V91.21C399.92 74.0284 385.992 60.1 368.81 60.1Z" fill="#1A237E"/>
<path d="M385.04 94.71V434.88H201.57V94.71C201.581 91.2999 202.94 88.0325 205.351 85.6212C207.763 83.2099 211.03 81.8505 214.44 81.84H261.72C261.725 84.723 262.874 87.4863 264.913 89.5239C266.953 91.5616 269.717 92.7074 272.6 92.71H315.25C316.682 92.7139 318.1 92.4355 319.424 91.8906C320.748 91.3457 321.952 90.5451 322.966 89.5345C323.981 88.524 324.786 87.3233 325.335 86.0013C325.885 84.6792 326.169 83.2618 326.17 81.83H372.17C375.584 81.8353 378.855 83.1943 381.268 85.6089C383.681 88.0235 385.037 91.2966 385.04 94.71Z" fill="url(#paint2_linear)"/>
<path opacity="0.24" d="M374.68 343.04H209.92V426.75H374.68V343.04Z" fill="#1A237E"/>
<path opacity="0.51" d="M375.93 159.02H209.53V319.16H375.93V159.02Z" fill="#1A237E"/>
<path d="M280.21 373.93L289.66 364.59L296 366.02V367.83L286.03 378.7L277.62 379.09L280.21 373.93Z" fill="#606161"/>
<path d="M288.93 365.93L293.74 367.26L284.61 376.65L281.1 376.68L281.69 372.98L288.93 365.93Z" fill="url(#paint3_linear)"/>
<path d="M235.57 400.86C235.57 400.86 271.96 384.12 278.86 386.8C285.76 389.48 304.16 422.6 304.16 422.6L291.17 422.34L270.47 404.48L252.87 419.23L227.29 417.71L235.57 400.86Z" fill="#606161"/>
<path d="M235.57 400.86C235.57 400.86 271.96 384.12 278.86 386.8C285.76 389.48 304.16 422.6 304.16 422.6L291.17 422.34L270.47 404.48L252.87 419.23L227.29 417.71L235.57 400.86Z" fill="url(#paint4_linear)"/>
<path d="M206.58 425.83C206.58 425.83 209.04 434.24 215.64 435.15C222.24 436.06 320.72 433.71 320.72 433.71C321.53 433.252 322.228 432.619 322.764 431.858C323.301 431.097 323.661 430.227 323.82 429.31C324.6 425.94 322.53 422.31 322.53 422.31L240.11 412.78L206.58 425.83Z" fill="#606161"/>
<path d="M206.58 425.83C206.58 425.83 209.04 434.24 215.64 435.15C222.24 436.06 320.72 433.71 320.72 433.71C321.53 433.252 322.228 432.619 322.764 431.858C323.301 431.097 323.661 430.227 323.82 429.31C324.6 425.94 322.53 422.31 322.53 422.31L240.11 412.78L206.58 425.83Z" fill="url(#paint5_linear)"/>
<path d="M274.52 378.82C277.332 378.859 280.074 379.694 282.43 381.23C283.592 382.012 284.539 383.072 285.185 384.314C285.831 385.556 286.156 386.94 286.13 388.34C286.138 388.748 286.008 389.146 285.76 389.47C285.466 389.749 285.075 389.9 284.67 389.89C282.44 389.96 281.02 387.36 278.86 386.8C277.47 386.44 276.01 386.98 274.58 386.89C273.73 386.825 272.911 386.544 272.2 386.073C271.49 385.602 270.911 384.957 270.52 384.2C270.196 383.559 270.019 382.854 270.001 382.136C269.984 381.418 270.127 380.706 270.42 380.05C271.23 378.65 273.03 378.71 274.52 378.82Z" fill="#F4A982"/>
<path d="M251.06 378.17C251.05 378.301 251.066 378.434 251.107 378.559C251.148 378.684 251.214 378.8 251.3 378.9C251.506 379.038 251.755 379.095 252 379.06L271.32 378.68C271.788 381.008 271.812 383.403 271.39 385.74C271.354 386.124 271.212 386.491 270.98 386.8C270.571 387.154 270.051 387.352 269.51 387.36C261.349 388.412 253.311 390.261 245.51 392.88C244.728 393.236 243.862 393.367 243.01 393.26C241.43 392.91 240.71 391.09 240.38 389.51C239.27 384.18 239.68 378.66 239.05 373.25C238.74 370.62 238.21 367.83 239.3 365.41C240.3 363.17 247.5 357.65 249.02 361.21C250.02 363.57 249.95 367.12 250.25 369.66C250.61 372.487 250.88 375.323 251.06 378.17Z" fill="#1A237E"/>
<path d="M251.06 378.17C251.05 378.301 251.066 378.434 251.107 378.559C251.148 378.684 251.214 378.8 251.3 378.9C251.506 379.038 251.755 379.095 252 379.06L271.32 378.68C271.788 381.008 271.812 383.403 271.39 385.74C271.354 386.124 271.212 386.491 270.98 386.8C270.571 387.154 270.051 387.352 269.51 387.36C261.349 388.412 253.311 390.261 245.51 392.88C244.728 393.236 243.862 393.367 243.01 393.26C241.43 392.91 240.71 391.09 240.38 389.51C239.27 384.18 239.68 378.66 239.05 373.25C238.74 370.62 238.21 367.83 239.3 365.41C240.3 363.17 247.5 357.65 249.02 361.21C250.02 363.57 249.95 367.12 250.25 369.66C250.61 372.487 250.88 375.323 251.06 378.17Z" fill="url(#paint6_linear)"/>
<path d="M274.81 378.96C275.505 377.327 276.528 375.854 277.814 374.631C279.101 373.408 280.624 372.462 282.29 371.85C283.07 373.19 280.58 375.05 281.64 376.19C281.857 376.36 282.107 376.481 282.374 376.547C282.641 376.612 282.919 376.62 283.19 376.57L289.59 376.3C289.788 376.266 289.992 376.309 290.16 376.42C290.277 376.542 290.348 376.701 290.36 376.87C290.385 377.513 290.254 378.152 289.979 378.733C289.704 379.315 289.292 379.821 288.78 380.21C287.78 381.06 286.66 381.68 285.72 382.55C284.19 383.96 283.22 386.04 281.34 386.95C279.92 387.64 278.24 387.53 276.76 388.06C274.94 388.72 273.24 390.38 271.38 389.82C270.49 389.56 271.49 384.31 271.94 383.71C273.11 382.266 274.076 380.668 274.81 378.96Z" fill="#F4A982"/>
<path d="M248.06 347.24C249.19 348.247 250.408 349.151 251.7 349.94C252.187 350.297 252.776 350.49 253.38 350.49C254.06 350.357 254.666 349.975 255.08 349.42C256.24 348.158 257.198 346.725 257.92 345.17C258.004 344.938 258.137 344.726 258.31 344.55C258.91 344.02 259.88 344.55 260.64 344.27C260.916 344.157 261.155 343.97 261.331 343.731C261.508 343.491 261.614 343.207 261.64 342.91C261.692 342.32 261.648 341.726 261.51 341.15C261.267 339.848 261.193 338.521 261.29 337.2C261.5 335.09 262.34 332.99 261.91 330.92C261.39 329.131 260.345 327.539 258.91 326.35C257.948 325.354 256.826 324.526 255.59 323.9C254.124 323.301 252.553 323.002 250.97 323.02C249.037 322.817 247.09 323.234 245.41 324.21C243.86 325.29 243 327.09 242.21 328.81L235.48 343.47C235.273 343.85 235.166 344.277 235.17 344.71C235.239 345.08 235.405 345.425 235.65 345.71C237 347.623 238.777 349.194 240.84 350.3C242 350.92 244.05 351.77 245.32 350.97C246.59 350.17 247.17 348.26 248.06 347.24Z" fill="#F4A982"/>
<path d="M268.34 328.55C269.322 327.426 269.997 326.069 270.302 324.608C270.607 323.147 270.53 321.633 270.08 320.21C269.956 319.744 269.715 319.317 269.38 318.97C268.908 318.628 268.358 318.408 267.78 318.33C263.949 317.458 260.267 316.03 256.85 314.09C254.94 313 253 311.72 250.85 311.65C249.656 311.634 248.484 311.975 247.485 312.628C246.485 313.282 245.704 314.219 245.24 315.32C244.682 314.973 244.047 314.768 243.391 314.724C242.735 314.681 242.079 314.8 241.48 315.07C240.281 315.625 239.28 316.532 238.61 317.67C236.75 320.67 236.67 324.35 236.61 327.85L236.54 339.19C236.526 339.4 236.553 339.611 236.62 339.81C236.737 340.025 236.923 340.194 237.148 340.29C237.373 340.386 237.624 340.404 237.86 340.34C238.329 340.209 238.761 339.969 239.12 339.64C240.59 338.48 242.04 337.3 243.49 336.11C242.841 335.138 242.548 333.972 242.661 332.809C242.774 331.646 243.286 330.558 244.11 329.73C244.306 329.516 244.559 329.363 244.84 329.29C245.081 329.279 245.322 329.325 245.543 329.424C245.763 329.523 245.957 329.673 246.11 329.86C246.992 330.832 247.47 332.104 247.445 333.416C247.421 334.728 246.897 335.981 245.98 336.92C247.595 336.301 248.9 335.068 249.61 333.49C250.299 331.92 251.201 330.453 252.29 329.13C253.49 327.91 255.48 327.23 256.93 328.13C258.93 329.36 259.22 331.41 261.93 331.41C263.138 331.404 264.332 331.147 265.436 330.654C266.539 330.162 267.528 329.445 268.34 328.55Z" fill="#606161"/>
<path d="M268.34 328.55C269.322 327.426 269.997 326.069 270.302 324.608C270.607 323.147 270.53 321.633 270.08 320.21C269.956 319.744 269.715 319.317 269.38 318.97C268.908 318.628 268.358 318.408 267.78 318.33C263.949 317.458 260.267 316.03 256.85 314.09C254.94 313 253 311.72 250.85 311.65C249.656 311.634 248.484 311.975 247.485 312.628C246.485 313.282 245.704 314.219 245.24 315.32C244.682 314.973 244.047 314.768 243.391 314.724C242.735 314.681 242.079 314.8 241.48 315.07C240.281 315.625 239.28 316.532 238.61 317.67C236.75 320.67 236.67 324.35 236.61 327.85L236.54 339.19C236.526 339.4 236.553 339.611 236.62 339.81C236.737 340.025 236.923 340.194 237.148 340.29C237.373 340.386 237.624 340.404 237.86 340.34C238.329 340.209 238.761 339.969 239.12 339.64C240.59 338.48 242.04 337.3 243.49 336.11C242.841 335.138 242.548 333.972 242.661 332.809C242.774 331.646 243.286 330.558 244.11 329.73C244.306 329.516 244.559 329.363 244.84 329.29C245.081 329.279 245.322 329.325 245.543 329.424C245.763 329.523 245.957 329.673 246.11 329.86C246.992 330.832 247.47 332.104 247.445 333.416C247.421 334.728 246.897 335.981 245.98 336.92C247.595 336.301 248.9 335.068 249.61 333.49C250.299 331.92 251.201 330.453 252.29 329.13C253.49 327.91 255.48 327.23 256.93 328.13C258.93 329.36 259.22 331.41 261.93 331.41C263.138 331.404 264.332 331.147 265.436 330.654C266.539 330.162 267.528 329.445 268.34 328.55Z" fill="url(#paint7_linear)"/>
<path d="M240.02 403.83C240.36 406.83 240.9 409.89 240.11 412.83C239.2 416.17 236.65 418.92 233.76 421.07C228.001 425.27 221.048 427.516 213.92 427.48C209.97 427.48 205.54 426.48 203.56 423.25C202.25 421.14 202.32 418.55 202.43 416.11L203 403.41C203.41 394.19 203.84 384.9 206.19 375.94C208.54 366.98 213 358.27 220.35 352.09C222.713 349.995 225.5 348.433 228.52 347.51C239.85 344.4 252.27 351.35 248.26 362.79C243.34 376.82 238.3 388.62 240.02 403.83Z" fill="#1A237E"/>
<path d="M223.06 403.09C223.23 404.09 222.7 406.67 223.24 407.54C224.54 409.6 225.57 425.02 227.94 424.43C230.31 423.84 237.76 415.94 239.67 414.43C241.33 413.11 240.27 401.27 239.67 399.22C239.325 398.368 238.823 397.587 238.19 396.92C235.84 393.92 235.25 389.86 235.19 386.03C235.13 382.2 235.51 378.31 234.79 374.55C234.03 370.55 231.55 366.05 227.27 365.16C221.62 364 221.55 366.94 222.69 370.81C225.73 381.11 221.32 392.5 223.06 403.09Z" fill="url(#paint8_linear)"/>
<path d="M330.02 424.25C330.671 425.036 330.996 426.042 330.93 427.06C331.017 427.859 330.993 428.667 330.86 429.46C330.725 430.263 330.279 430.981 329.62 431.46C328.806 431.864 327.893 432.024 326.99 431.92L324.62 431.86C323.806 431.886 322.993 431.785 322.21 431.56C321.82 431.447 321.461 431.246 321.161 430.972C320.861 430.698 320.628 430.358 320.48 429.98C320.315 429.391 320.315 428.769 320.48 428.18C320.92 426.18 321.48 423.45 323.85 423.43C325.48 423.4 328.81 423.14 330.02 424.25Z" fill="#F4A982"/>
<path d="M335.95 406.29C333.867 410.602 331.53 414.786 328.95 418.82C328.093 419.931 327.557 421.256 327.4 422.65C327.481 423.589 327.683 424.513 328 425.4C328.392 426.856 328.498 428.374 328.31 429.87C328.145 430.714 328.055 431.57 328.04 432.43C328.038 432.86 328.139 433.285 328.336 433.668C328.533 434.051 328.819 434.381 329.17 434.63C329.732 434.916 330.36 435.051 330.99 435.02L338.52 435.34C338.978 435.385 339.441 435.355 339.89 435.25C340.731 434.915 341.418 434.281 341.82 433.47C345.37 427.67 344.2 420.27 345.43 413.58C345.94 410.81 346.88 408.09 346.95 405.27C347.033 404.445 346.939 403.612 346.675 402.825C346.411 402.039 345.984 401.318 345.42 400.71C344.18 399.61 341.87 399.71 341.17 401.2" fill="#606161"/>
<path d="M335.95 406.29C333.867 410.602 331.53 414.786 328.95 418.82C328.093 419.931 327.557 421.256 327.4 422.65C327.481 423.589 327.683 424.513 328 425.4C328.392 426.856 328.498 428.374 328.31 429.87C328.145 430.714 328.055 431.57 328.04 432.43C328.038 432.861 328.139 433.285 328.336 433.668C328.533 434.051 328.819 434.381 329.17 434.63C329.732 434.916 330.36 435.051 330.99 435.02C333.5 435.13 333.32 434.93 335.83 435.02C336.289 435.057 336.751 435.024 337.2 434.92C338.041 434.585 338.728 433.951 339.13 433.14C342.68 427.34 342.37 420.88 343.6 414.19C344.11 411.42 345.05 408.7 345.12 405.88C345.203 405.055 345.11 404.221 344.846 403.435C344.582 402.649 344.154 401.928 343.59 401.32C342.35 400.21 341.87 399.68 341.17 401.18" fill="url(#paint9_linear)"/>
<path d="M223.32 365.23C223.32 365.23 223.15 354.23 232.98 353.32C242.81 352.41 244.37 362.81 244.03 365.71C243.69 368.61 245.58 385.2 245.58 385.2L271.98 383.48L272.98 391.07C272.98 391.07 235.89 402.28 233.82 399.87C231.75 397.46 229.17 392.83 223.32 365.23Z" fill="#1A237E"/>
<path d="M213.03 360.47C213.03 360.47 219.91 361.09 224.39 359.01C228.87 356.93 240.94 354.58 244.55 355.5C248.85 356.6 248.46 353.5 248.46 353.5L231.69 348.3C231.69 348.3 216.99 354.03 215.74 356.43C214.983 357.869 214.074 359.223 213.03 360.47Z" fill="url(#paint10_linear)"/>
<path d="M235.74 341.42C234.01 339.82 232.17 338.16 229.87 337.64C227.57 337.12 224.72 338.23 224.21 340.53C224.02 341.36 224 342.45 223.21 342.72C222.71 342.89 222.21 342.6 221.65 342.62C221.261 342.671 220.893 342.827 220.586 343.072C220.279 343.317 220.045 343.642 219.91 344.01C219.58 344.73 219.46 345.52 219.13 346.23C218.31 348.04 216.39 349.01 214.89 350.31C213.39 351.61 212.23 353.91 213.43 355.49C214.63 357.07 216.79 356.67 218.56 356.19C222.97 354.99 227.3 353.39 231.82 352.68C236.34 351.97 241.19 352.22 245.14 354.52C249.48 357.06 249.36 352.05 246.28 350.27C242.28 347.97 239.17 344.54 235.74 341.42Z" fill="#1A237E"/>
<path d="M234.85 346.96C233.718 346.81 232.624 346.454 231.62 345.91C229.373 344.881 227.069 343.98 224.72 343.21C224.588 343.177 224.466 343.115 224.36 343.03C224.238 342.901 224.161 342.736 224.14 342.56C223.94 341.56 224.22 339.68 225.4 339.51C226.33 339.37 228.13 340.71 228.89 341.18C231.272 342.652 233.305 344.625 234.85 346.96Z" fill="url(#paint11_linear)"/>
<path d="M232.24 348.71C231.1 348.64 230.52 349.96 224.57 348.79C222.15 348.31 222.3 348.68 219.95 347.91C219.818 347.877 219.696 347.815 219.59 347.73C219.468 347.601 219.391 347.436 219.37 347.26C219.17 346.31 219.45 344.38 220.63 344.21C221.56 344.07 223.36 345.41 224.12 345.88C226.49 347.38 227.86 348.58 232.24 348.71Z" fill="url(#paint12_linear)"/>
<path opacity="0.24" d="M228.81 152.76C236.929 152.76 243.51 146.179 243.51 138.06C243.51 129.941 236.929 123.36 228.81 123.36C220.692 123.36 214.11 129.941 214.11 138.06C214.11 146.179 220.692 152.76 228.81 152.76Z" fill="#1A237E"/>
<path opacity="0.51" d="M311.29 130.24H250.4V137.33H311.29V130.24Z" fill="#1A237E"/>
<path opacity="0.24" d="M333.25 143.69H250.4V147.23H333.25V143.69Z" fill="#1A237E"/>
<path d="M394.17 269.71C394.17 293.96 419.41 313.6 450.53 313.6C455.759 313.619 460.973 313.038 466.07 311.87L490.67 324.46L480.75 306.71C496.46 298.97 506.86 285.34 506.86 269.71C506.86 245.45 481.62 225.82 450.49 225.82C419.36 225.82 394.17 245.46 394.17 269.71Z" fill="#1A237E"/>
<path d="M392.88 269.09C392.88 293.35 418.12 312.98 449.24 312.98C454.469 312.999 459.683 312.418 464.78 311.25L489.38 323.84L479.5 306.05C495.21 298.31 505.61 284.69 505.61 269.05C505.61 244.8 480.37 225.16 449.24 225.16C418.11 225.16 392.88 244.84 392.88 269.09Z" fill="url(#paint13_linear)"/>
<path d="M429.69 147.19C429.69 147.19 422.11 137.25 415.01 146.72C407.91 156.19 431.11 167.56 431.11 167.56C431.11 167.56 447.69 155.72 445.8 148.62C443.91 141.52 433.48 139.62 429.69 147.19Z" fill="white"/>
<path d="M145.54 172.25C145.54 172.25 139.21 163.94 133.28 171.85C127.35 179.76 146.73 189.25 146.73 189.25C146.73 189.25 160.56 179.36 158.98 173.43C158.576 172.027 157.756 170.779 156.629 169.85C155.502 168.922 154.12 168.357 152.665 168.229C151.21 168.101 149.751 168.417 148.479 169.135C147.207 169.853 146.183 170.939 145.54 172.25Z" fill="white"/>
<path d="M474.17 175.71C474.17 175.71 463.96 162.31 454.38 175.07C444.8 187.83 476.08 203.15 476.08 203.15C476.08 203.15 498.42 187.2 495.87 177.63C493.32 168.06 479.23 165.47 474.17 175.71Z" fill="white"/>
<path d="M165.17 140.31C165.17 140.31 160.62 134.31 156.35 140.03C152.08 145.75 166.03 152.55 166.03 152.55C166.03 152.55 175.98 145.43 174.85 141.17C174.559 140.16 173.969 139.261 173.158 138.592C172.346 137.924 171.352 137.516 170.305 137.423C169.257 137.33 168.206 137.556 167.29 138.071C166.374 138.586 165.635 139.367 165.17 140.31Z" fill="white"/>
</g>
<defs>
<linearGradient id="paint0_linear" x1="156.16" y1="370.27" x2="142.53" y2="43.13" gradientUnits="userSpaceOnUse">
<stop stop-color="white" stop-opacity="0"/>
<stop offset="0.95" stop-color="white"/>
</linearGradient>
<linearGradient id="paint1_linear" x1="293.03" y1="371.65" x2="225.47" y2="1827.95" gradientUnits="userSpaceOnUse">
<stop stop-color="#010101" stop-opacity="0"/>
<stop offset="0.95" stop-color="#010101"/>
</linearGradient>
<linearGradient id="paint2_linear" x1="44779.3" y1="261307" x2="125256" y2="8564.88" gradientUnits="userSpaceOnUse">
<stop stop-color="white" stop-opacity="0"/>
<stop offset="0.95" stop-color="white"/>
</linearGradient>
<linearGradient id="paint3_linear" x1="3882.99" y1="4523.82" x2="3919.92" y2="4261.3" gradientUnits="userSpaceOnUse">
<stop stop-color="white" stop-opacity="0"/>
<stop offset="0.95" stop-color="white"/>
</linearGradient>
<linearGradient id="paint4_linear" x1="22161.4" y1="14757.1" x2="22363.7" y2="16082.6" gradientUnits="userSpaceOnUse">
<stop stop-color="#010101" stop-opacity="0"/>
<stop offset="0.95" stop-color="#010101"/>
</linearGradient>
<linearGradient id="paint5_linear" x1="34460.3" y1="9872.44" x2="34475.9" y2="10503.9" gradientUnits="userSpaceOnUse">
<stop stop-color="#010101" stop-opacity="0"/>
<stop offset="0.95" stop-color="#010101"/>
</linearGradient>
<linearGradient id="paint6_linear" x1="9705.27" y1="12697.6" x2="8653.85" y2="15223.8" gradientUnits="userSpaceOnUse">
<stop stop-color="#010101" stop-opacity="0"/>
<stop offset="0.95" stop-color="#010101"/>
</linearGradient>
<linearGradient id="paint7_linear" x1="9211.62" y1="9771.79" x2="10364.2" y2="9771.79" gradientUnits="userSpaceOnUse">
<stop stop-color="#010101" stop-opacity="0"/>
<stop offset="0.95" stop-color="#010101"/>
</linearGradient>
<linearGradient id="paint8_linear" x1="4672.03" y1="24299.2" x2="7319.27" y2="24041.3" gradientUnits="userSpaceOnUse">
<stop stop-color="#010101" stop-opacity="0"/>
<stop offset="0.95" stop-color="#010101"/>
</linearGradient>
<linearGradient id="paint9_linear" x1="6633.3" y1="15049" x2="6947.82" y2="15049" gradientUnits="userSpaceOnUse">
<stop stop-color="#010101" stop-opacity="0"/>
<stop offset="0.95" stop-color="#010101"/>
</linearGradient>
<linearGradient id="paint10_linear" x1="9383.63" y1="4786.74" x2="9356.2" y2="4026.26" gradientUnits="userSpaceOnUse">
<stop stop-color="#010101" stop-opacity="0"/>
<stop offset="0.95" stop-color="#010101"/>
</linearGradient>
<linearGradient id="paint11_linear" x1="2989.16" y1="2946.17" x2="3043.36" y2="2659" gradientUnits="userSpaceOnUse">
<stop stop-color="#010101" stop-opacity="0"/>
<stop offset="0.95" stop-color="#010101"/>
</linearGradient>
<linearGradient id="paint12_linear" x1="3489.48" y1="2137" x2="3506.39" y2="1978.83" gradientUnits="userSpaceOnUse">
<stop stop-color="#010101" stop-opacity="0"/>
<stop offset="0.95" stop-color="#010101"/>
</linearGradient>
<linearGradient id="paint13_linear" x1="93593.7" y1="27556.6" x2="117288" y2="27771.6" gradientUnits="userSpaceOnUse">
<stop stop-color="white" stop-opacity="0"/>
<stop offset="0.95" stop-color="white"/>
</linearGradient>
<clipPath id="clip0">
<rect width="606.82" height="502.83" fill="white"/>
</clipPath>
</defs>
</svg>
