<svg width="460" height="455" viewBox="0 0 460 455" fill="none" xmlns="http://www.w3.org/2000/svg">
<g clip-path="url(#clip0)">
<path opacity="0.24" d="M444.42 338.53C440.42 349.3 435.42 360.04 427.32 368.18C420.64 374.89 412.54 379.24 403.71 382.4C389.15 387.61 372.71 389.58 357.53 393.4C332.783 399.688 309.919 411.856 290.88 428.87C283.27 435.69 276.12 443.4 266.88 447.71C259.7 451.1 251.66 452.19 243.76 452.95C192.606 457.708 141.1 448.916 94.4201 427.46C81.4201 421.46 68.5701 414.25 59.2801 403.32C53.1201 396.07 48.8101 387.54 44.7901 378.94C44.2601 377.89 43.7901 376.87 43.3101 375.85C25.4601 337.61 7.47006 298.62 1.71006 256.85C-4.04994 215.08 4.25006 169.25 33.2301 138.59C53.0501 117.59 80.7201 105.35 100.51 84.38C117.8 66 128.21 41.86 146.39 24.38C192.39 -20.02 250.39 6.38 300.99 25.38C354.5 45.46 400.91 84.54 428.87 134.46C463.25 195.96 469.11 272.6 444.42 338.53Z" fill="#1A237E"/>
<path opacity="0.45" d="M403.71 382.4C389.15 387.61 372.71 389.58 357.53 393.4C332.783 399.688 309.919 411.856 290.88 428.87C283.27 435.69 276.12 443.4 266.88 447.71C259.7 451.1 251.66 452.19 243.76 452.95C192.606 457.708 141.1 448.916 94.42 427.46C81.42 421.46 68.57 414.25 59.28 403.32C53.12 396.07 48.81 387.54 44.79 378.94C71.89 379.273 98.9934 379.56 126.1 379.8C180.1 380.26 234.1 380.547 288.1 380.66C314.84 380.72 341.583 380.74 368.33 380.72C375.68 380.69 393.66 379.74 403.71 382.4Z" fill="#1A237E"/>
<path opacity="0.45" d="M121.32 385.83C113.42 386.48 103.39 389.33 102.81 397.24C134.23 404.38 166.58 406.24 198.81 407.79C213.22 408.49 227.66 409.14 242.06 408.22C264.823 406.751 287.164 401.383 308.11 392.35C245.81 386.69 183.91 380.7 121.32 385.83Z" fill="#1A237E"/>
<path d="M211 132.53L223.59 130.04C223.59 130.04 224.68 129.89 224.37 131.28L206.44 136.07L203.12 136.92L201.65 134.29L211 132.53Z" fill="#1A237E"/>
<path d="M211 132.53L223.59 130.04C223.59 130.04 224.68 129.89 224.37 131.28L206.44 136.07L203.12 136.92L201.65 134.29L211 132.53Z" fill="url(#paint0_linear)"/>
<path d="M228.51 70.84C226.08 74.44 225.69 79.12 226.51 83.4C226.862 84.9134 227.126 86.446 227.3 87.99C227.65 93.6 223.87 98.62 222.99 104.17C222.14 109.55 224.14 115.07 227.28 119.52C230.42 123.97 234.64 127.52 238.81 131.05C242.81 126.87 244.18 120.84 244.29 115.05C244.4 109.26 243.38 103.57 243.22 97.81C243.062 95.0692 243.345 92.3207 244.06 89.67C245.49 84.92 249.06 80.35 247.85 75.55C247.11 72.76 244.85 70.67 242.73 68.74C240.3 66.55 238.59 65.45 235.18 66.21C232.448 66.8463 230.061 68.5026 228.51 70.84Z" fill="#606161"/>
<path d="M228.51 70.84C226.08 74.44 225.69 79.12 226.51 83.4C226.862 84.9134 227.126 86.446 227.3 87.99C227.65 93.6 223.87 98.62 222.99 104.17C222.14 109.55 224.14 115.07 227.28 119.52C230.42 123.97 234.64 127.52 238.81 131.05C242.81 126.87 244.18 120.84 244.29 115.05C244.4 109.26 243.38 103.57 243.22 97.81C243.062 95.0692 243.345 92.3207 244.06 89.67C245.49 84.92 249.06 80.35 247.85 75.55C247.11 72.76 244.85 70.67 242.73 68.74C240.3 66.55 238.59 65.45 235.18 66.21C232.448 66.8463 230.061 68.5026 228.51 70.84Z" fill="url(#paint1_linear)"/>
<path d="M229.54 172.34L179.54 154.07L182.38 162.47C182.38 162.47 219.38 190.07 228.19 188.47C237 186.87 229.54 172.34 229.54 172.34Z" fill="#BA816C"/>
<path d="M177.56 152.85L165.88 125.51C165.546 124.73 165.393 123.884 165.434 123.036C165.474 122.188 165.707 121.361 166.115 120.616C166.522 119.872 167.094 119.229 167.786 118.738C168.478 118.247 169.273 117.919 170.11 117.78L190.58 114.34C191.867 114.121 193.19 114.36 194.321 115.013C195.451 115.667 196.317 116.695 196.77 117.92L216.52 171.26C216.808 172.042 216.919 172.879 216.844 173.71C216.769 174.54 216.51 175.344 216.086 176.062C215.661 176.78 215.083 177.394 214.392 177.861C213.701 178.328 212.914 178.635 212.09 178.76L193.88 181.46C192.64 181.64 191.376 181.4 190.289 180.779C189.202 180.157 188.354 179.189 187.88 178.03L177.56 152.85Z" fill="white"/>
<path d="M175.77 153.18L164.7 127.26C164.383 126.52 164.238 125.718 164.276 124.915C164.314 124.111 164.534 123.326 164.919 122.619C165.304 121.913 165.844 121.303 166.499 120.835C167.154 120.368 167.907 120.055 168.7 119.92L188.11 116.66C189.331 116.457 190.585 116.685 191.656 117.306C192.727 117.926 193.548 118.9 193.98 120.06L212.7 170.64C212.975 171.38 213.081 172.173 213.011 172.959C212.941 173.746 212.697 174.507 212.295 175.188C211.894 175.868 211.346 176.45 210.691 176.891C210.036 177.333 209.291 177.623 208.51 177.74L191.24 180.33C190.062 180.504 188.859 180.278 187.825 179.689C186.79 179.1 185.982 178.182 185.53 177.08L175.77 153.18Z" fill="#1A237E"/>
<path d="M175.77 153.18L164.7 127.26C164.383 126.52 164.238 125.718 164.276 124.915C164.314 124.111 164.534 123.326 164.919 122.619C165.304 121.913 165.844 121.303 166.499 120.835C167.154 120.368 167.907 120.055 168.7 119.92L188.11 116.66C189.331 116.457 190.585 116.685 191.656 117.306C192.727 117.926 193.548 118.9 193.98 120.06L212.7 170.64C212.975 171.38 213.081 172.173 213.011 172.959C212.941 173.746 212.697 174.507 212.295 175.188C211.894 175.868 211.346 176.45 210.691 176.891C210.036 177.333 209.291 177.623 208.51 177.74L191.24 180.33C190.062 180.504 188.859 180.278 187.825 179.689C186.79 179.1 185.982 178.182 185.53 177.08L175.77 153.18Z" fill="url(#paint2_linear)"/>
<path d="M182.83 161.04C182.831 161.571 182.697 162.093 182.441 162.557C182.185 163.022 181.815 163.414 181.366 163.696C180.917 163.978 180.404 164.142 179.874 164.171C179.344 164.201 178.816 164.095 178.338 163.865C177.861 163.634 177.449 163.285 177.143 162.852C176.837 162.419 176.647 161.915 176.589 161.387C176.531 160.86 176.608 160.327 176.813 159.837C177.018 159.348 177.344 158.919 177.76 158.59" stroke="#1A237E" stroke-width="1.14" stroke-miterlimit="10" stroke-linecap="round"/>
<path d="M185.92 168.61C185.921 169.14 185.787 169.663 185.531 170.127C185.275 170.592 184.905 170.984 184.456 171.266C184.007 171.548 183.493 171.712 182.964 171.741C182.434 171.771 181.906 171.665 181.428 171.434C180.95 171.204 180.539 170.855 180.233 170.422C179.927 169.989 179.736 169.485 179.679 168.957C179.621 168.43 179.698 167.897 179.903 167.407C180.108 166.918 180.434 166.489 180.85 166.16" stroke="#1A237E" stroke-width="1.14" stroke-miterlimit="10" stroke-linecap="round"/>
<path d="M189.01 176.19C189.009 176.72 188.874 177.241 188.617 177.705C188.36 178.168 187.989 178.559 187.54 178.84C187.09 179.121 186.577 179.283 186.048 179.312C185.518 179.34 184.991 179.234 184.514 179.002C184.037 178.771 183.626 178.422 183.321 177.989C183.016 177.556 182.826 177.052 182.768 176.525C182.711 175.998 182.788 175.465 182.993 174.976C183.198 174.487 183.524 174.059 183.94 173.73" stroke="#1A237E" stroke-width="1.14" stroke-miterlimit="10" stroke-linecap="round"/>
<path d="M235.76 124.85L212.03 167.95L226.85 174.35C226.85 174.35 238.34 128.57 235.76 124.85Z" fill="#1A237E"/>
<path d="M271.11 375.69L271.96 387.55C269.906 388.772 267.523 389.327 265.14 389.14C261.52 388.68 254.31 381.27 252.57 381.63L252.63 378.1" fill="#BA816C"/>
<path d="M228.89 367.22L229.74 379.08C227.686 380.302 225.303 380.857 222.92 380.67C219.31 380.21 212.09 372.8 210.35 373.16L210.42 369.63" fill="#BA816C"/>
<path d="M231.89 216.56C231.89 216.56 238.24 301.02 238.95 302.41C239.66 303.8 252.55 379.26 252.55 379.26C252.55 379.26 261.55 385.03 272.18 378.11L263.79 300.38L267.68 226.25C267.68 226.25 237.34 213.79 231.89 216.56Z" fill="#606161"/>
<path d="M220.24 209.62C220.24 209.62 205.78 290.12 206.3 291.62C206.82 293.12 209.85 371.01 209.85 371.01C209.85 371.01 217.97 376.48 229.4 371.01L231.2 292.85L244.7 219.85C244.7 219.85 226.01 207.59 220.24 209.62Z" fill="#606161"/>
<path d="M220.24 209.62C220.24 209.62 205.78 290.12 206.3 291.62C206.82 293.12 209.85 371.01 209.85 371.01C209.85 371.01 217.97 376.48 229.4 371.01L231.2 292.85L244.7 219.85C244.7 219.85 226.01 207.59 220.24 209.62Z" fill="url(#paint3_linear)"/>
<path d="M231.89 216.56C231.89 216.56 238.24 301.02 238.95 302.41C239.66 303.8 252.55 379.26 252.55 379.26C252.55 379.26 261.55 385.03 272.18 378.11L263.79 300.38L267.68 226.25C267.68 226.25 237.34 213.79 231.89 216.56Z" fill="#606161"/>
<path d="M231.89 216.56C231.89 216.56 238.24 301.02 238.95 302.41C239.66 303.8 252.55 379.26 252.55 379.26C252.55 379.26 261.55 385.03 272.18 378.11L263.79 300.38L267.68 226.25C267.68 226.25 237.34 213.79 231.89 216.56Z" fill="url(#paint4_linear)"/>
<path d="M273.95 118.23C273.95 118.23 258.72 110.61 253.18 111.3C243.1 112.56 238.99 123.03 236.18 131.44C226.72 159.98 229.6 189.05 222.01 217.93C222.01 217.93 224.08 228.31 237.24 230.39C250.4 232.47 244.85 166 249.7 152.85C254.55 139.7 279.49 121 273.95 118.23Z" fill="white"/>
<path d="M250.93 111.81C250.93 111.81 239.33 114.81 236.57 119.61C236.57 122.19 233.62 126.7 232.95 129.45C229.67 142.98 224.71 155.92 220.01 168.84C216.898 177.713 214.771 186.902 213.67 196.24C213.06 200.98 213.12 205.91 212.34 210.6C211.56 215.29 212.14 216.26 215.72 219.28C216.33 219.79 225.89 227.33 226.08 226.13C228.92 208.89 231.753 191.65 234.58 174.41C235.86 166.6 236.67 159.19 238.84 151.5C241.006 144.003 243.655 136.655 246.77 129.5C247.33 128.18 254.64 110.87 250.93 111.81Z" fill="#1A237E"/>
<path d="M271.74 120.85C267.66 117.85 263.95 118.94 260.35 122.63C257.58 125.49 255.93 129.23 254.41 132.9C249.891 143.425 246.284 154.318 243.63 165.46C242.51 170.46 241.15 175.17 240.5 180.33C239.8 185.85 239.32 191.4 238.39 196.89C237.16 204.19 235.18 211.89 235.18 219.29C235.18 228.29 235.87 236.6 249.72 237.99C263.57 239.38 272.18 238.27 272.18 238.27C272.18 238.27 283.65 152.13 281.57 136.9C281.08 133.34 280.82 129.68 278.3 126.9C276.419 124.858 274.398 122.95 272.25 121.19C272.083 121.083 271.913 120.97 271.74 120.85Z" fill="#1A237E"/>
<path d="M250.93 111.81C250.93 111.81 239.33 114.81 236.57 119.61C236.57 122.19 233.62 126.7 232.95 129.45C229.67 142.98 224.71 155.92 220.01 168.84C216.898 177.713 214.771 186.902 213.67 196.24C213.06 200.98 213.12 205.91 212.34 210.6C211.56 215.29 212.14 216.26 215.72 219.28C216.33 219.79 225.89 227.33 226.08 226.13C228.92 208.89 231.753 191.65 234.58 174.41C235.86 166.6 236.67 159.19 238.84 151.5C241.006 144.003 243.655 136.655 246.77 129.5C247.33 128.18 254.64 110.87 250.93 111.81Z" fill="url(#paint5_linear)"/>
<path d="M271.74 120.85C267.66 117.85 263.95 118.94 260.35 122.63C257.58 125.49 255.93 129.23 254.41 132.9C249.891 143.425 246.284 154.318 243.63 165.46C242.51 170.46 241.15 175.17 240.5 180.33C239.8 185.85 239.32 191.4 238.39 196.89C237.16 204.19 235.18 211.89 235.18 219.29C235.18 228.29 235.87 236.6 249.72 237.99C263.57 239.38 272.18 238.27 272.18 238.27C272.18 238.27 283.65 152.13 281.57 136.9C281.08 133.34 280.82 129.68 278.3 126.9C276.419 124.858 274.398 122.95 272.25 121.19C272.083 121.083 271.913 120.97 271.74 120.85Z" fill="url(#paint6_linear)"/>
<path d="M234.7 72.66C230.79 78.9 230.4 87.6 229.97 94.74C229.59 100.9 228.3 111.29 236.44 113.35C238.16 113.79 239.97 113.41 241.73 113.52C241.976 113.516 242.219 113.571 242.44 113.68C242.621 113.829 242.769 114.015 242.874 114.225C242.979 114.435 243.039 114.665 243.05 114.9C243.261 116.51 243.647 118.093 244.2 119.62C245.42 122.49 248.95 124.46 251.91 122.62C254.45 121.07 255.16 116.42 255.91 113.83C257.49 108.24 252.62 101.03 251.81 95.34C250.42 85.65 249.04 74.57 244.19 71.11C239.86 68.06 236.83 69.26 234.7 72.66Z" fill="#BA816C"/>
<path d="M233.61 69.94C235.49 73.36 239.31 76.75 241.33 79.19C245.11 83.75 249.52 88.29 250.61 94.35C251.32 98.29 250.39 102.35 249.87 106.29C249.575 108.569 249.415 110.863 249.39 113.16C249.318 114.357 249.45 115.557 249.78 116.71C251.17 120.87 255.34 122.4 259.42 122.85C262.82 123.23 266.28 122.96 269.66 123.52C272.798 124.065 275.775 125.306 278.371 127.153C280.967 128.999 283.116 131.404 284.66 134.19C286.894 131.536 288.244 128.25 288.52 124.792C288.796 121.333 287.985 117.875 286.2 114.9C282.93 109.71 276.74 106.34 275.2 100.42C273.66 94.5 277.13 88.81 278.04 82.88C279.17 75.66 276.26 68.13 271.16 62.88C266.06 57.63 258.97 54.62 251.73 53.65C249.106 53.1983 246.417 53.2902 243.83 53.92C241.491 54.6461 239.335 55.8671 237.51 57.5C234.95 59.69 232.75 62.64 232.58 66C232.556 67.3828 232.913 68.7456 233.61 69.94Z" fill="#606161"/>
<path d="M233.61 69.94C235.49 73.36 239.31 76.75 241.33 79.19C245.11 83.75 249.52 88.29 250.61 94.35C251.32 98.29 250.39 102.35 249.87 106.29C249.575 108.569 249.415 110.863 249.39 113.16C249.318 114.357 249.45 115.557 249.78 116.71C251.17 120.87 255.34 122.4 259.42 122.85C262.82 123.23 266.28 122.96 269.66 123.52C272.798 124.065 275.775 125.306 278.371 127.153C280.967 128.999 283.116 131.404 284.66 134.19C286.894 131.536 288.244 128.25 288.52 124.792C288.796 121.333 287.985 117.875 286.2 114.9C282.93 109.71 276.74 106.34 275.2 100.42C273.66 94.5 277.13 88.81 278.04 82.88C279.17 75.66 276.26 68.13 271.16 62.88C266.06 57.63 258.97 54.62 251.73 53.65C249.106 53.1983 246.417 53.2902 243.83 53.92C241.491 54.6461 239.335 55.8671 237.51 57.5C234.95 59.69 232.75 62.64 232.58 66C232.556 67.3828 232.913 68.7456 233.61 69.94Z" fill="url(#paint7_linear)"/>
<path d="M281.65 195.56C270.23 193.75 223.85 148.56 223.85 148.56C223.85 148.56 229.02 140.56 229.95 140.75C230.51 140.89 252.84 154.75 270.42 165.75L291.53 178.92C292.134 179.328 292.646 179.858 293.032 180.477C293.418 181.095 293.669 181.788 293.77 182.51C294.93 188.09 290.58 196.98 281.65 195.56Z" fill="#BA816C"/>
<path d="M295.42 175.46C295.42 178 295.42 180.66 294 182.8C293.931 182.716 293.854 182.639 293.77 182.57C293.669 181.848 293.418 181.155 293.032 180.537C292.646 179.918 292.134 179.388 291.53 178.98L270.42 165.76C267 156.01 263.42 145.9 263.67 135.89C263.663 134.12 264.056 132.372 264.82 130.775C265.584 129.179 266.698 127.776 268.08 126.67C279.02 118.5 290.61 140 292.88 148.11C295.39 156.93 295.42 166.22 295.42 175.46Z" fill="#1A237E"/>
<path d="M244.7 198.1L267.28 211.09L265.7 217.75L242.93 203.81L244.7 198.1Z" fill="#1A237E"/>
<path d="M217.55 205.77C217.87 205.07 226.92 198.1 226.92 198.1V192.4L217.55 199.09V205.77Z" fill="#1A237E"/>
<path d="M218.8 132.37C215.919 131.587 212.931 131.27 209.95 131.43C208.32 131.43 206.38 131.59 205.53 132.98C205.249 133.531 205.128 134.15 205.179 134.766C205.23 135.383 205.452 135.973 205.82 136.47C206.561 137.46 207.46 138.321 208.48 139.02C209.581 139.842 210.563 140.811 211.4 141.9C212.02 142.76 212.49 143.73 213.17 144.54C214.97 146.68 217.93 147.38 220.71 147.73C222.074 147.781 223.408 148.143 224.61 148.79C224.902 149.04 225.243 149.227 225.61 149.34C225.926 149.382 226.247 149.337 226.54 149.21C230.21 147.9 231.68 143.26 229.15 140.37C226.28 137.08 223.05 133.78 218.8 132.37Z" fill="#BA816C"/>
<path d="M182.11 162.86C178.65 162.15 174.97 161.32 172.51 158.78C171.234 157.355 170.219 155.717 169.51 153.94C168.85 152.48 168.21 151 167.61 149.51C167.175 148.834 167.014 148.018 167.161 147.228C167.308 146.438 167.751 145.734 168.4 145.26C169.84 143.74 171.62 142.16 173.71 142.26C174.56 142.359 175.386 142.606 176.15 142.99C178.99 144.21 182.07 145.64 183.39 148.43C183.945 149.794 184.25 151.248 184.29 152.72C184.47 154.907 184.6 157.093 184.68 159.28C184.76 161.34 184.53 163.37 182.11 162.86Z" fill="#BA816C"/>
<path d="M194.49 380.46C193.961 380.743 193.492 381.128 193.113 381.593C192.734 382.058 192.451 382.594 192.28 383.17C192.23 383.81 192.373 384.45 192.69 385.008C193.007 385.566 193.484 386.016 194.06 386.3C195.224 386.854 196.492 387.154 197.78 387.18C206.302 387.908 214.866 387.992 223.4 387.43C225.4 387.3 227.56 387.03 228.84 385.51C230.12 383.99 229.98 381.45 229.66 379.33C229.5 378.33 229.21 377.11 228.24 376.76C227.571 376.603 226.87 376.666 226.24 376.94C223.358 377.729 220.298 377.561 217.52 376.46C215.1 375.46 212.97 373.31 210.25 373.3C205.11 373.22 198.52 377.59 194.49 380.46Z" fill="#1A237E"/>
<path d="M237.6 388.06C236.537 388.637 235.746 389.611 235.4 390.77C235.35 391.411 235.493 392.052 235.81 392.612C236.128 393.171 236.604 393.623 237.18 393.91C238.346 394.456 239.613 394.753 240.9 394.78C249.422 395.508 257.986 395.592 266.52 395.03C268.52 394.9 270.68 394.63 271.96 393.11C273.24 391.59 273.1 389.05 272.78 386.93C272.62 385.93 272.33 384.71 271.36 384.36C270.691 384.203 269.99 384.266 269.36 384.54C266.478 385.329 263.418 385.16 260.64 384.06C258.22 383.06 256.09 380.91 253.37 380.9C248.25 380.87 241.64 385.24 237.6 388.06Z" fill="#1A237E"/>
<path d="M194.49 380.46C193.961 380.743 193.492 381.128 193.113 381.593C192.734 382.058 192.451 382.594 192.28 383.17C192.23 383.81 192.373 384.45 192.69 385.008C193.007 385.566 193.484 386.016 194.06 386.3C195.224 386.854 196.492 387.154 197.78 387.18C206.302 387.908 214.866 387.992 223.4 387.43C225.4 387.3 227.56 387.03 228.84 385.51C230.12 383.99 229.98 381.45 229.66 379.33C229.5 378.33 229.21 377.11 228.24 376.76C227.571 376.603 226.87 376.666 226.24 376.94C223.358 377.729 220.298 377.561 217.52 376.46C215.1 375.46 212.97 373.31 210.25 373.3C205.11 373.22 198.52 377.59 194.49 380.46Z" fill="url(#paint8_linear)"/>
<path d="M237.6 388.06C236.537 388.637 235.746 389.611 235.4 390.77C235.35 391.411 235.493 392.052 235.81 392.612C236.128 393.171 236.604 393.623 237.18 393.91C238.346 394.456 239.613 394.753 240.9 394.78C249.422 395.508 257.986 395.592 266.52 395.03C268.52 394.9 270.68 394.63 271.96 393.11C273.24 391.59 273.1 389.05 272.78 386.93C272.62 385.93 272.33 384.71 271.36 384.36C270.691 384.203 269.99 384.266 269.36 384.54C266.478 385.329 263.418 385.16 260.64 384.06C258.22 383.06 256.09 380.91 253.37 380.9C248.25 380.87 241.64 385.24 237.6 388.06Z" fill="url(#paint9_linear)"/>
<path d="M170.47 130.75C170.469 131.28 170.334 131.801 170.077 132.265C169.82 132.728 169.449 133.119 169 133.4C168.55 133.681 168.037 133.843 167.508 133.872C166.978 133.9 166.45 133.794 165.974 133.562C165.497 133.331 165.086 132.982 164.781 132.549C164.476 132.116 164.286 131.612 164.228 131.085C164.171 130.558 164.248 130.025 164.453 129.536C164.658 129.047 164.984 128.619 165.4 128.29" stroke="#1A237E" stroke-width="1.14" stroke-miterlimit="10" stroke-linecap="round"/>
<path d="M173.56 138.32C173.561 138.85 173.427 139.373 173.171 139.837C172.915 140.302 172.545 140.694 172.096 140.976C171.647 141.258 171.134 141.422 170.604 141.451C170.074 141.481 169.546 141.375 169.068 141.144C168.591 140.914 168.179 140.565 167.873 140.132C167.567 139.699 167.376 139.195 167.319 138.667C167.261 138.14 167.338 137.607 167.543 137.117C167.748 136.628 168.074 136.199 168.49 135.87" stroke="#1A237E" stroke-width="1.14" stroke-miterlimit="10" stroke-linecap="round"/>
</g>
<defs>
<linearGradient id="paint0_linear" x1="212.44" y1="128.41" x2="214.45" y2="142.17" gradientUnits="userSpaceOnUse">
<stop stop-color="#010101" stop-opacity="0"/>
<stop offset="0.47" stop-color="#010101" stop-opacity="0.47"/>
<stop offset="0.95" stop-color="#010101"/>
</linearGradient>
<linearGradient id="paint1_linear" x1="7525.81" y1="7099.16" x2="8166.46" y2="7099.16" gradientUnits="userSpaceOnUse">
<stop stop-color="#010101" stop-opacity="0"/>
<stop offset="0.47" stop-color="#010101" stop-opacity="0.47"/>
<stop offset="0.95" stop-color="#010101"/>
</linearGradient>
<linearGradient id="paint2_linear" x1="13007.7" y1="10008" x2="10051.5" y2="10858" gradientUnits="userSpaceOnUse">
<stop stop-color="#010101" stop-opacity="0"/>
<stop offset="0.47" stop-color="#010101" stop-opacity="0.47"/>
<stop offset="0.95" stop-color="#010101"/>
</linearGradient>
<linearGradient id="paint3_linear" x1="10661.7" y1="49578" x2="12137.2" y2="49578" gradientUnits="userSpaceOnUse">
<stop stop-color="#010101" stop-opacity="0"/>
<stop offset="0.47" stop-color="#010101" stop-opacity="0.47"/>
<stop offset="0.95" stop-color="#010101"/>
</linearGradient>
<linearGradient id="paint4_linear" x1="12229.4" y1="51208.8" x2="13852.7" y2="51208.8" gradientUnits="userSpaceOnUse">
<stop stop-color="#010101" stop-opacity="0"/>
<stop offset="0.47" stop-color="#010101" stop-opacity="0.47"/>
<stop offset="0.95" stop-color="#010101"/>
</linearGradient>
<linearGradient id="paint5_linear" x1="12829.9" y1="20797.1" x2="9663.96" y2="20593.1" gradientUnits="userSpaceOnUse">
<stop stop-color="#010101" stop-opacity="0"/>
<stop offset="0.47" stop-color="#010101" stop-opacity="0.47"/>
<stop offset="0.95" stop-color="#010101"/>
</linearGradient>
<linearGradient id="paint6_linear" x1="14439.6" y1="22066.6" x2="17936.7" y2="22384.1" gradientUnits="userSpaceOnUse">
<stop stop-color="#010101" stop-opacity="0"/>
<stop offset="0.47" stop-color="#010101" stop-opacity="0.47"/>
<stop offset="0.95" stop-color="#010101"/>
</linearGradient>
<linearGradient id="paint7_linear" x1="16941.2" y1="8405.5" x2="20079.1" y2="8405.5" gradientUnits="userSpaceOnUse">
<stop stop-color="#010101" stop-opacity="0"/>
<stop offset="0.47" stop-color="#010101" stop-opacity="0.47"/>
<stop offset="0.95" stop-color="#010101"/>
</linearGradient>
<linearGradient id="paint8_linear" x1="10642.6" y1="5787.26" x2="10632.2" y2="6353.05" gradientUnits="userSpaceOnUse">
<stop stop-color="#010101" stop-opacity="0"/>
<stop offset="0.47" stop-color="#010101" stop-opacity="0.47"/>
<stop offset="0.95" stop-color="#010101"/>
</linearGradient>
<linearGradient id="paint9_linear" x1="12273.5" y1="5910.63" x2="12273.5" y2="6549.08" gradientUnits="userSpaceOnUse">
<stop stop-color="#010101" stop-opacity="0"/>
<stop offset="0.47" stop-color="#010101" stop-opacity="0.47"/>
<stop offset="0.95" stop-color="#010101"/>
</linearGradient>
<clipPath id="clip0">
<rect width="459.51" height="454.22" fill="white"/>
</clipPath>
</defs>
</svg>
