<svg width="374" height="342" viewBox="0 0 374 342" fill="none" xmlns="http://www.w3.org/2000/svg">
<g clip-path="url(#clip0)">
<path opacity="0.18" d="M161.55 339.38C218.69 337.66 278.55 335.2 327.93 306.45C351.4 292.79 373.19 269.66 371.4 242.57C369.63 215.79 346.4 196.5 328.12 176.83C301.559 148.111 283.013 112.915 274.34 74.77C267.72 45.43 242.57 16.67 214.34 6.29999C190.43 -2.48001 163.93 -0.880009 138.9 3.81999C125.12 6.40999 111.41 9.93999 98.7799 16.03C58.1399 35.61 34.3399 78.7 19.2899 121.23C-1.24012 179.23 -9.83012 245.38 16.0899 301.23C20.2299 310.15 25.3499 318.87 32.8899 325.23C44.2899 334.71 59.6699 337.61 74.4199 339.36C107.23 343.18 128.54 340.37 161.55 339.38Z" fill="#1A237E"/>
<path d="M127.34 341.38C176.018 341.38 215.48 333.809 215.48 324.47C215.48 315.131 176.018 307.56 127.34 307.56C78.6616 307.56 39.2 315.131 39.2 324.47C39.2 333.809 78.6616 341.38 127.34 341.38Z" fill="url(#paint0_linear)"/>
<path d="M373.29 16.38H64.6101V197.59H373.29V16.38Z" fill="#1A237E"/>
<path d="M363.91 25.45H74.2V187.25H363.91V25.45Z" fill="url(#paint1_linear)"/>
<path d="M138.94 197.41C138.94 197.41 149.78 176.59 155.42 167.05C161.06 157.51 161.75 151.17 161.75 151.17L147.67 157.41C147.67 157.41 141.67 187.66 136.08 179.83C130.49 172 135.08 171.06 135.08 171.06C135.08 171.06 134.65 160.44 134.08 157.19C133.51 153.94 128.4 135.83 122.08 135.25C115.76 134.67 114.28 133.25 114.28 133.25C114.28 133.25 115.15 128.62 116.88 128.33C118.57 127.906 120.216 127.326 121.8 126.6L124.69 117.6L124.98 109.21C124.98 109.21 126.13 104.01 127.29 102.85C128.45 101.69 131.62 84.42 122.52 81.17C113.42 77.92 103.65 96.17 103.65 96.17L89.1399 111.72L92.1399 139.32C89.1318 140.011 86.3761 141.528 84.1821 143.699C81.9881 145.87 80.4429 148.609 79.7199 151.61C76.9199 162.27 73.45 184.48 73.45 184.48L74.91 190.12L75.6199 196.12L138.94 197.41Z" fill="url(#paint2_linear)"/>
<path d="M91.63 317.34C91.473 318.541 91.1743 319.719 90.74 320.85C89.9718 323.075 88.7531 325.117 87.16 326.85C85.5499 328.594 83.4025 329.748 81.06 330.13C79.8418 330.363 78.5804 330.147 77.51 329.52C76.8645 329.063 76.3283 328.469 75.94 327.78C75.4075 326.916 75.0665 325.947 74.94 324.94C74.73 323.04 75.53 321.18 76.32 319.44L79.19 313.09C79.4966 312.298 79.9363 311.564 80.49 310.92C81.157 310.274 81.9599 309.786 82.84 309.49C84.1637 308.913 85.5965 308.63 87.04 308.66C88.58 308.74 90.43 309.43 91.04 310.91C91.7321 312.979 91.9341 315.18 91.63 317.34Z" fill="#1A237E"/>
<path d="M97.69 308.82C96.4784 311.224 96.1902 313.988 96.88 316.59C97.3752 317.952 97.7926 319.341 98.13 320.75C98.2451 321.804 98.2451 322.866 98.13 323.92C98.0854 324.155 98.0909 324.396 98.146 324.629C98.2012 324.862 98.3047 325.08 98.45 325.27C98.6697 325.439 98.9428 325.524 99.2198 325.51C99.4969 325.495 99.7595 325.382 99.96 325.19C100.349 324.796 100.634 324.311 100.79 323.78L102.03 320.6C102.11 320.4 102.23 320.16 102.44 320.12C102.621 320.113 102.797 320.178 102.93 320.3C104.5 321.561 106.132 322.743 107.82 323.84C109.523 324.936 111.505 325.522 113.53 325.53C115.222 325.365 116.873 324.908 118.41 324.18C119.32 323.81 120.35 323.33 120.63 322.39C120.712 322.026 120.703 321.648 120.604 321.288C120.504 320.929 120.318 320.6 120.06 320.33C119.543 319.79 118.942 319.338 118.28 318.99C114.989 316.991 111.884 314.702 109 312.15C108.483 311.648 107.893 311.226 107.25 310.9C106.401 310.614 105.515 310.452 104.62 310.42C102.904 310.206 101.261 309.596 99.82 308.64C99.29 308.25 98.07 308.06 97.69 308.82Z" fill="#1A237E"/>
<path d="M81.1301 310.99C80.3201 313.32 79.2101 315.59 79.0501 318.04C78.9697 318.693 79.0772 319.356 79.3601 319.95C79.6347 320.355 80 320.691 80.427 320.931C80.854 321.17 81.331 321.307 81.8201 321.33C83.1419 321.402 84.4592 321.123 85.6379 320.52C86.8166 319.918 87.8145 319.014 88.5301 317.9C89.9342 315.65 90.7238 313.071 90.8201 310.42C91.0401 307.79 90.8801 305.13 91.2201 302.51C95.5701 268.97 94.4901 260.29 94.2201 259.33C93.7101 257.33 91.4301 256.45 89.4101 256.13C87.2201 255.78 82.2601 255.81 81.9501 258.41C81.6101 261.32 81.9501 263.65 82.1001 266.58C82.3501 273.32 82.4101 307.29 81.1301 310.99Z" fill="#BB826C"/>
<path d="M99.8101 271.61C99.7501 275.06 99.4301 278.5 99.2001 281.94C98.6101 290.36 98.5001 298.82 98.3901 307.26C98.2964 308.629 98.4281 310.004 98.7801 311.33C99.3589 312.773 100.231 314.081 101.34 315.17C102.057 316.085 102.939 316.858 103.94 317.45C104.429 317.727 104.989 317.851 105.548 317.806C106.108 317.762 106.642 317.551 107.08 317.2C107.511 316.702 107.814 316.107 107.966 315.467C108.117 314.826 108.112 314.158 107.95 313.52C107.618 312.246 107.218 310.991 106.75 309.76C106.09 307.54 114.03 271.13 113.35 259.04C113.37 258.513 113.234 257.991 112.96 257.54C112.72 257.23 110.8 257.71 110.46 257.54C108.697 256.845 106.798 256.568 104.91 256.73C103.86 256.83 101.17 257.01 100.37 257.89C99.4301 258.94 99.8101 262.83 99.7901 264.22C99.7701 266.72 99.8601 269.17 99.8101 271.61Z" fill="#BB826C"/>
<path d="M77.52 225.3C78.29 236.41 79.94 247.51 79.44 258.61C79.3483 259.158 79.4509 259.72 79.73 260.2C79.997 260.535 80.3397 260.803 80.73 260.98C83.09 262.13 85.97 262.21 88.73 262.27L110.98 262.71C112.31 262.71 113.88 262.71 114.62 261.77C114.899 261.377 115.075 260.919 115.13 260.44C118.123 245.16 120.483 229.81 122.21 214.39C123.1 206.54 123.78 198.39 120.71 190.96C110.07 192.71 101.8 191.16 90.98 190.45C87.15 190.2 83.14 192.91 79.81 204.22C77.8612 211.067 77.0869 218.194 77.52 225.3Z" fill="#3F3D56"/>
<path d="M98.53 262.29L113.15 262.58C112.448 262.71 111.733 262.76 111.02 262.73L88.77 262.29C86.03 262.24 83.14 262.15 80.77 261C80.3796 260.823 80.0369 260.555 79.77 260.22C79.4964 259.734 79.391 259.172 79.47 258.62C79.98 247.51 78.28 236.41 77.56 225.3C77.1421 218.199 77.9299 211.078 79.89 204.24C83.22 192.93 87.23 190.24 91.06 190.47C93.39 190.62 95.6 190.82 97.74 191.01C94.91 192.26 92.1 195.94 89.65 204.24C87.6756 211.076 86.8776 218.197 87.29 225.3C88.01 236.41 89.71 247.51 89.2 258.62C89.1172 259.171 89.2192 259.733 89.49 260.22C89.7768 260.56 90.1401 260.827 90.55 261C92.9 262.15 95.78 262.24 98.53 262.29Z" fill="url(#paint3_linear)"/>
<path d="M121.07 191.77C119.12 191.77 117.2 191.77 115.28 191.62C117.04 191.49 118.86 191.29 120.75 190.98C120.86 191.24 120.97 191.51 121.07 191.77Z" fill="url(#paint4_linear)"/>
<path d="M115.29 191.61C109.423 191.887 103.544 191.683 97.71 191C98.6739 190.572 99.7279 190.387 100.78 190.46C106.02 190.82 110.67 191.35 115.29 191.61Z" fill="url(#paint5_linear)"/>
<path d="M130.34 159.82C131.15 163.39 131.23 167.08 131.92 170.67C132.72 174.79 134.33 178.8 134.3 183C134.323 183.63 134.238 184.259 134.05 184.86C133.831 185.406 133.503 185.901 133.087 186.317C132.671 186.733 132.176 187.061 131.63 187.28C128.63 188.6 124.93 187.02 122.9 184.42C120.87 181.82 120.13 178.42 119.63 175.2C118.27 166.31 118.23 157.29 118.21 148.3C118.21 146.63 111.99 139.03 114.03 138.47C116.07 137.91 123.62 145.34 124.52 146.8C127.166 150.788 129.133 155.188 130.34 159.82Z" fill="#1A237E"/>
<path d="M131.12 187.47C128.21 188.42 124.82 186.87 122.9 184.42C120.9 181.82 120.13 178.42 119.63 175.2C118.27 166.32 118.23 157.28 118.22 148.3C118.22 146.63 111.99 139.03 114.03 138.46C114.77 138.26 116.13 139.02 117.64 140.14C118.64 142.62 123.32 156.29 123.33 157.51C123.33 166.51 122.03 166.32 123.39 175.2C123.89 178.46 124.62 181.82 126.66 184.42C127.799 185.869 129.356 186.934 131.12 187.47Z" fill="url(#paint6_linear)"/>
<path d="M80.5101 142.28C79.635 143.089 78.9517 144.083 78.5101 145.19C77.8001 147.31 78.6701 149.63 79.7201 151.61C81.8601 155.61 84.7201 159.19 87.2601 163.02C89.8001 166.85 89.0901 169.87 89.2601 174.43C89.4801 179.43 84.6901 186.75 83.7301 191.66C83.5196 192.537 83.4721 193.446 83.5901 194.34C83.8401 195.68 90.2101 195.51 91.2901 196.34C93.36 197.808 95.7685 198.726 98.2901 199.01C104.006 200.018 109.894 199.251 115.16 196.81C117.73 195.55 120.16 193.69 121.24 191.03C121.885 188.938 122.112 186.74 121.91 184.56C121.83 180.02 118.47 175.89 120.5 171.82C121.56 169.69 123.09 167.82 124.07 165.62C124.96 163.598 125.363 161.396 125.247 159.19C125.131 156.984 124.498 154.837 123.4 152.92C122.21 150.92 120.51 149.18 119.54 147.04C118.26 144.24 118.22 140.74 116 138.61C114.16 136.83 111.37 136.61 108.82 136.41C105.5 136.19 105.82 135.41 102.48 135.18C99.7301 135 97.1201 134.44 94.4101 134.93C91.7627 135.415 89.206 136.305 86.8301 137.57C85.7401 138.15 80.5101 140.89 80.5101 142.28Z" fill="#1A237E"/>
<path d="M111.01 198.39C106.866 199.5 102.532 199.711 98.3 199.01C95.7805 198.724 93.3734 197.81 91.3 196.35C90.22 195.51 83.85 195.68 83.6 194.35C83.482 193.456 83.5295 192.547 83.74 191.67C84.74 186.76 89.49 179.44 89.27 174.44C89.08 169.88 89.73 166.85 87.27 163.02C84.81 159.19 81.86 155.61 79.72 151.61C78.66 149.61 77.79 147.3 78.52 145.18C78.89 144.06 80.83 140.1 86.83 137.56C89.2552 136.404 91.8006 135.518 94.42 134.92C96.0097 134.68 97.6248 134.66 99.22 134.86C97.82 135.36 96.45 135.97 95.08 136.54C89.08 139.09 87.14 143.04 86.75 144.17C86.03 146.29 86.9 148.61 87.96 150.59C90.1 154.59 92.96 158.17 95.5 162C98.04 165.83 97.32 168.85 97.5 173.4C97.71 178.4 92.93 185.72 91.97 190.64C91.7592 191.517 91.7118 192.426 91.83 193.32C92.08 194.66 98.45 194.49 99.53 195.32C101.606 196.772 104.012 197.683 106.53 197.97C108.012 198.211 109.509 198.351 111.01 198.39Z" fill="url(#paint7_linear)"/>
<path d="M101.06 145.33C102.178 146.184 103.385 146.915 104.66 147.51C105.86 148.13 107.09 148.71 108.32 149.27C108.461 149.356 108.626 149.391 108.79 149.37C108.927 149.319 109.043 149.224 109.12 149.1C109.493 148.509 109.716 147.835 109.77 147.138C109.824 146.441 109.707 145.742 109.43 145.1C108.96 143.78 108.16 142.6 107.61 141.31C107.218 139.938 106.621 138.634 105.84 137.44C105.048 136.625 104.099 135.979 103.05 135.54C101.42 134.72 98.05 133.16 96.87 135.44C95.87 137.31 97.35 140.37 98.27 142C98.986 143.273 99.932 144.402 101.06 145.33Z" fill="white"/>
<path d="M68.8901 87.61C66.7984 89.1338 65.1992 91.2371 64.2901 93.66C62.8801 97.04 62.2901 101.1 64.1801 104.24C65.0269 105.552 66.2081 106.614 67.602 107.317C68.9959 108.02 70.552 108.338 72.1101 108.24C73.6635 108.113 75.1746 107.669 76.5504 106.937C77.9261 106.204 79.1375 105.198 80.1101 103.98C82.8301 100.69 85.7201 92.98 82.5901 89.08C79.7101 85.5 72.4001 85.25 68.8901 87.61Z" fill="#3F3D56"/>
<path d="M68.8901 87.61C66.7984 89.1338 65.1992 91.2371 64.2901 93.66C62.8801 97.04 62.2901 101.1 64.1801 104.24C65.0269 105.552 66.2081 106.614 67.602 107.317C68.9959 108.02 70.552 108.338 72.1101 108.24C73.6635 108.113 75.1746 107.669 76.5504 106.937C77.9261 106.204 79.1375 105.198 80.1101 103.98C82.8301 100.69 85.7201 92.98 82.5901 89.08C79.7101 85.5 72.4001 85.25 68.8901 87.61Z" fill="url(#paint8_linear)"/>
<path d="M90.5901 80.66C89.4261 80.768 88.2895 81.0758 87.2301 81.57C83.4912 83.0528 80.3047 85.6593 78.1101 89.03C76.8053 91.2849 75.8543 93.7266 75.2901 96.27C74.2332 99.8369 73.9805 103.594 74.5501 107.27C75.1637 109.857 76.1758 112.334 77.5501 114.61C78.1868 115.791 78.9335 116.909 79.7801 117.95C81.1142 119.365 82.6308 120.596 84.2901 121.61C85.6897 122.656 87.2547 123.461 88.9201 123.99C93.0001 125.08 97.2901 122.99 100.57 120.38C104.009 117.676 106.752 114.189 108.57 110.21C110.368 106.219 110.909 101.776 110.12 97.47C109.703 95.5431 109.083 93.6659 108.27 91.87C106.71 88.27 104.67 85.57 100.81 84.46C97.2201 83.45 94.5401 80.41 90.5901 80.66Z" fill="#3F3D56"/>
<path d="M119.44 115.72C118.84 120.01 116.91 124.45 113.11 126.52C111.11 127.6 108.65 128.06 107.32 129.88C105.83 131.88 106.39 134.71 106.64 137.21C106.713 137.655 106.679 138.111 106.54 138.54C106.346 138.866 106.086 139.148 105.776 139.367C105.465 139.586 105.113 139.737 104.74 139.81C102.699 140.453 100.555 140.707 98.4201 140.56C98.1847 140.579 97.9477 140.551 97.7232 140.478C97.4987 140.404 97.291 140.287 97.1123 140.132C96.9336 139.978 96.7874 139.789 96.6823 139.578C96.5772 139.366 96.5153 139.136 96.5001 138.9C95.6901 135.9 95.8901 132.59 94.7501 129.66C94.0394 128.13 93.2379 126.644 92.3501 125.21C90.3539 121.186 89.1617 116.811 88.8401 112.33C88.3603 107.914 88.2499 103.465 88.5101 99.03C88.5273 97.7044 88.7603 96.3906 89.2001 95.14C89.7719 93.8864 90.5493 92.7372 91.5001 91.74C93.1466 89.6062 95.2253 87.8444 97.6001 86.57C99.169 85.9113 100.854 85.572 102.555 85.572C104.257 85.572 105.941 85.9113 107.51 86.57C110.642 87.9065 113.392 90.0031 115.51 92.67C120.72 98.86 120.49 108.08 119.44 115.72Z" fill="#BB826C"/>
<path opacity="0.46" d="M98.9599 116.67C103.113 116.67 106.48 113.303 106.48 109.15C106.48 104.997 103.113 101.63 98.9599 101.63C94.8068 101.63 91.4399 104.997 91.4399 109.15C91.4399 113.303 94.8068 116.67 98.9599 116.67Z" fill="white"/>
<path opacity="0.46" d="M115.11 114.82C118.954 114.82 122.07 111.704 122.07 107.86C122.07 104.016 118.954 100.9 115.11 100.9C111.266 100.9 108.15 104.016 108.15 107.86C108.15 111.704 111.266 114.82 115.11 114.82Z" fill="white"/>
<path d="M99.5199 76.24C103.423 74.688 107.706 74.3602 111.8 75.3C117.23 76.54 122.34 80.3 123.89 85.69C124.666 88.6632 124.519 91.802 123.47 94.69C122.412 97.5692 120.852 100.237 118.86 102.57C118.769 102.708 118.63 102.808 118.47 102.85C118.27 102.85 118.1 102.72 117.95 102.59C116.944 101.837 115.782 101.318 114.55 101.07C108.39 99.25 102.64 96.29 96.7999 93.6C95.4199 92.97 93.7499 92.36 92.4699 93.18C91.6107 93.8935 91.0504 94.9034 90.8999 96.01C89.8507 99.9306 89.237 103.955 89.0699 108.01C87.2596 105.575 85.8331 102.877 84.8399 100.01C84.042 97.65 83.6531 95.171 83.6899 92.68C83.6899 90.91 83.6899 89 84.7499 87.56C85.8099 86.12 87.2299 86.56 88.7499 85.96C89.9599 85.45 90.4999 83.71 91.2299 82.71C93.3493 79.8356 96.2167 77.5977 99.5199 76.24Z" fill="#3F3D56"/>
<path d="M99.5199 76.24C103.423 74.688 107.706 74.3602 111.8 75.3C117.23 76.54 122.34 80.3 123.89 85.69C124.666 88.6632 124.519 91.802 123.47 94.69C122.412 97.5692 120.852 100.237 118.86 102.57C118.769 102.708 118.63 102.808 118.47 102.85C118.27 102.85 118.1 102.72 117.95 102.59C116.944 101.837 115.782 101.318 114.55 101.07C108.39 99.25 102.64 96.29 96.7999 93.6C95.4199 92.97 93.7499 92.36 92.4699 93.18C91.6107 93.8935 91.0504 94.9034 90.8999 96.01C89.8507 99.9306 89.237 103.955 89.0699 108.01C87.2596 105.575 85.8331 102.877 84.8399 100.01C84.042 97.65 83.6531 95.171 83.6899 92.68C83.6899 90.91 83.6899 89 84.7499 87.56C85.8099 86.12 87.2299 86.56 88.7499 85.96C89.9599 85.45 90.4999 83.71 91.2299 82.71C93.3493 79.8356 96.2167 77.5977 99.5199 76.24Z" fill="url(#paint9_linear)"/>
<path d="M86.29 106.19C85.7482 106.363 85.2611 106.674 84.8769 107.094C84.4927 107.513 84.2249 108.025 84.1 108.58C83.46 110.87 84.47 113.29 85.73 115.31C86.44 116.44 87.45 117.64 88.79 117.61C88.975 117.621 89.1602 117.592 89.3329 117.525C89.5055 117.458 89.6615 117.354 89.79 117.22C89.9481 116.958 90.0438 116.663 90.0698 116.357C90.0959 116.052 90.0514 115.745 89.94 115.46C89.5168 113.249 89.3324 111 89.39 108.75C89.4067 108.361 89.333 107.973 89.1746 107.617C89.0161 107.261 88.7774 106.947 88.477 106.699C88.1766 106.451 87.8227 106.276 87.4433 106.187C87.0638 106.099 86.6691 106.1 86.29 106.19Z" fill="#BB826C"/>
<path d="M87.88 111.72C87.6839 111.606 87.5181 111.446 87.3963 111.255C87.2745 111.064 87.2003 110.846 87.18 110.62C87.18 110.22 87.18 109.77 86.97 109.46C86.8699 109.357 86.7501 109.276 86.6178 109.221C86.4854 109.166 86.3433 109.138 86.2 109.14C85.9611 109.115 85.7201 109.164 85.51 109.28C85.3402 109.447 85.2197 109.658 85.1615 109.889C85.1033 110.12 85.1097 110.362 85.18 110.59C85.4508 112.061 86.2827 113.37 87.5 114.24C87.6561 114.372 87.8381 114.471 88.0343 114.53C88.2305 114.588 88.4368 114.605 88.64 114.58C88.8992 114.477 89.1161 114.29 89.2559 114.049C89.3956 113.807 89.4499 113.526 89.41 113.25C89.3705 112.721 89.2595 112.199 89.08 111.7C88.894 111.792 88.6898 111.842 88.4822 111.845C88.2747 111.849 88.069 111.806 87.88 111.72Z" fill="url(#paint10_linear)"/>
<path d="M76.8401 218.76C77.5901 221.27 78.2001 223.87 79.6001 226.07C81.0001 228.27 83.4101 230.07 86.0101 229.89C86.5615 229.888 87.0977 229.709 87.5401 229.38C87.8528 229.103 88.1018 228.762 88.2701 228.38C89.4901 225.93 89.7701 222.8 88.1601 220.6C87.3341 219.674 86.456 218.796 85.5301 217.97C82.8701 215.11 82.6501 210.84 82.0501 206.97C81.282 202.629 80.1957 198.351 78.8001 194.17C78.5939 193.207 78.1229 192.32 77.4401 191.61C76.7791 191.138 76.0204 190.82 75.2201 190.68C72.8701 190.09 68.6101 187.74 68.0401 190.99C67.5601 193.72 69.3801 197.99 70.2101 200.52C72.2001 206.61 74.7901 212.61 76.8401 218.76Z" fill="#BB826C"/>
<path d="M134.29 167.82C134.47 167.77 134.2 167.56 134.02 167.61C133.275 167.789 132.556 168.061 131.88 168.42C131.201 168.792 130.693 169.412 130.46 170.15C130.342 170.763 130.359 171.394 130.51 172L132.29 182.61C132.334 183.386 132.649 184.122 133.18 184.69C134.18 185.49 135.59 184.99 136.67 184.37C137.337 183.99 137.977 183.58 138.59 183.14C139.018 182.924 139.354 182.563 139.537 182.121C139.721 181.678 139.739 181.185 139.59 180.73C139.362 177.241 138.8 173.782 137.91 170.4C137.53 169.13 136.91 167.71 135.58 167.4C134.74 167.307 133.892 167.475 133.15 167.88" fill="#1A237E"/>
<path d="M139.39 166.37C137.89 167.518 136.658 168.978 135.78 170.65C135.359 171.793 135.149 173.002 135.16 174.22C134.998 176.137 135.314 178.065 136.08 179.83C136.247 180.24 136.501 180.61 136.824 180.913C137.146 181.217 137.53 181.448 137.95 181.59C139.13 181.87 140.26 181.03 141.14 180.19C146.3 175.33 149.76 168.98 152.94 162.65C153.28 161.857 153.765 161.135 154.37 160.52C155.019 160.015 155.74 159.61 156.51 159.32C159.19 158.07 161.76 155.83 162.02 152.89C162.093 152.303 162 151.707 161.75 151.17C161.08 149.9 159.41 149.61 157.97 149.53C156.72 149.46 155.45 149.42 154.19 149.43C153.206 149.37 152.223 149.545 151.32 149.94C148.65 151.35 149.32 155.2 147.67 157.41C145.197 160.65 142.425 163.65 139.39 166.37Z" fill="#BB826C"/>
<path d="M72.29 158.03C70.35 164.44 69.69 171.17 69.29 177.86C68.9944 180.324 69.1709 182.822 69.81 185.22C70.59 187.57 72.45 189.72 74.89 190.13C75.6621 190.277 76.4594 190.213 77.1983 189.946C77.9373 189.678 78.5907 189.217 79.09 188.61C79.7637 187.548 80.1433 186.327 80.19 185.07C80.4997 181.189 81.2033 177.349 82.29 173.61C83.47 170.2 85.37 167.09 86.98 163.86C89.91 157.97 92.2 147.93 84.68 144.19C77.72 140.73 73.72 153.31 72.29 158.03Z" fill="#1A237E"/>
<path d="M87.0001 163.88C85.3901 167.11 83.5001 170.21 82.3201 173.63C81.2221 177.36 80.5117 181.194 80.2001 185.07C80.1329 186.323 79.7549 187.54 79.1001 188.61C78.601 189.214 77.9492 189.674 77.2124 189.941C76.4755 190.209 75.6806 190.274 74.9101 190.13C73.92 189.914 72.9932 189.473 72.2022 188.84C71.4111 188.206 70.7772 187.399 70.3501 186.48C70.8915 186.782 71.4796 186.992 72.0901 187.1C72.8594 187.249 73.6547 187.19 74.3932 186.928C75.1318 186.666 75.7867 186.211 76.2901 185.61C76.9496 184.542 77.328 183.324 77.3901 182.07C77.6978 178.188 78.4049 174.347 79.5001 170.61C80.6801 167.2 82.5801 164.09 84.1901 160.86C86.4201 156.39 88.2701 149.5 85.7201 144.86C92.0001 148.9 89.8001 158.27 87.0001 163.88Z" fill="url(#paint11_linear)"/>
<path d="M73.45 184.49C72.472 184.028 71.4706 183.618 70.45 183.26C69.7107 183.054 68.9474 182.946 68.18 182.94C67.9756 182.919 67.7692 182.95 67.58 183.03C67.3674 183.163 67.1973 183.354 67.09 183.58C66.0969 185.345 65.6318 187.358 65.75 189.38C65.7477 189.704 65.8268 190.024 65.98 190.31C66.1961 190.59 66.4825 190.807 66.81 190.94C70.46 192.81 74.55 194.21 78.59 193.57C78.9442 193.548 79.2905 193.456 79.6083 193.298C79.9261 193.14 80.2089 192.919 80.44 192.65C80.6656 192.206 80.7887 191.718 80.8 191.22C80.962 189.898 81.3475 188.613 81.94 187.42C82.45 186.42 82.07 186.33 81.12 186.21C80.17 186.09 79.34 185.99 78.46 185.84C76.7431 185.587 75.0617 185.134 73.45 184.49Z" fill="#1A237E"/>
<path d="M155.27 150.86L191.85 98.68L192.82 99.29L157.7 151.44L155.27 150.86Z" fill="#BB826C"/>
<path d="M155.27 150.86L191.85 98.68L192.82 99.29L157.7 151.44L155.27 150.86Z" fill="url(#paint12_linear)"/>
<path d="M150.75 159.95L144.68 168.84C144.68 168.84 146.09 170.84 147.5 170.03L153.57 160.39L150.75 159.95Z" fill="url(#paint13_linear)"/>
<path d="M163.03 82.44H163.05V82.57C163.13 82.7 163.13 82.82 163.13 82.94C163.149 83.0525 163.149 83.1675 163.13 83.28C163.12 83.3373 163.096 83.3915 163.061 83.4383C163.027 83.4851 162.982 83.5233 162.93 83.55V84.35C162.917 84.2973 162.891 84.2488 162.854 84.2087C162.817 84.1685 162.771 84.1381 162.72 84.12L162.46 84.06C162.383 84.0433 162.311 84.0091 162.25 83.96C162.17 83.92 162.17 83.8 162.17 83.61V83.49L162.39 83.61V83.21L162.17 83.32V83.21C162.201 83.1593 162.242 83.1152 162.29 83.08C162.39 83.04 162.39 82.98 162.39 82.98H162.48C162.574 82.9844 162.666 83.0083 162.75 83.05C162.84 83.1044 162.944 83.1321 163.05 83.13V82.57C163.039 82.5272 163.032 82.4837 163.03 82.44C163.025 82.3663 163.032 82.2921 163.05 82.22C163.05 82.16 163.11 82.15 163.19 82.22L163.44 82.32L163.74 82.44C163.815 82.4789 163.896 82.5027 163.98 82.51C163.996 82.5137 164.01 82.521 164.022 82.5315C164.035 82.5419 164.044 82.5551 164.05 82.57C164.05 82.57 164.11 82.63 164.13 82.63C164.145 82.63 164.137 82.5343 164.132 82.5048C164.132 82.5032 164.131 82.5016 164.13 82.5C164.13 82.4932 164.131 82.4962 164.132 82.5048C164.162 82.5638 164.198 82.6192 164.24 82.67L164.45 82.95C164.522 83.0435 164.614 83.1189 164.72 83.17L165.25 83.24C165.433 83.2493 165.617 83.2493 165.8 83.24H165.88C165.91 83.244 165.94 83.2407 165.968 83.2302C165.996 83.2197 166.02 83.2025 166.04 83.18C166.098 83.1586 166.162 83.1586 166.22 83.18H166.29C166.311 83.199 166.328 83.222 166.34 83.2478C166.352 83.2736 166.359 83.3016 166.36 83.33C166.346 83.3825 166.346 83.4375 166.36 83.49H166.56C166.65 83.48 166.74 83.48 166.83 83.49C166.907 83.5012 166.981 83.5248 167.05 83.56C167.086 83.5854 167.115 83.6203 167.132 83.6609C167.15 83.7015 167.156 83.7462 167.15 83.79H166.29C166.23 83.79 166.2 83.84 166.2 83.93L166.29 84.1V84.44C166.29 84.69 166.43 84.82 166.6 84.85C166.737 84.8641 166.866 84.92 166.97 85.01C167.011 85.0736 167.038 85.1452 167.05 85.22C167.072 85.2884 167.072 85.3617 167.05 85.43H167.25V84.73L167.51 84.64V84.4321L167.43 84.47H167.28L167.17 84.37L167.05 84.27C167.182 84.1808 167.302 84.0768 167.41 83.96C167.474 83.8981 167.519 83.8181 167.536 83.7306C167.551 83.6603 167.548 83.5879 167.528 83.5195L167.48 83.5C167.494 83.5009 167.507 83.5003 167.521 83.4984C167.518 83.4888 167.514 83.4793 167.51 83.47C167.525 83.4752 167.54 83.4822 167.554 83.4908C167.571 83.5015 167.587 83.5147 167.6 83.53C167.6 83.53 167.642 83.5615 167.673 83.5788L167.7 83.59C167.695 83.59 167.684 83.5854 167.673 83.5788L167.528 83.5195C167.548 83.5879 167.551 83.6603 167.536 83.7306C167.519 83.8181 167.474 83.8981 167.41 83.96C167.302 84.0768 167.182 84.1808 167.05 84.27L167.17 84.37L167.28 84.47H167.43L167.51 84.4321V84.38C167.518 84.3844 167.526 84.3867 167.535 84.3867C167.544 84.3867 167.552 84.3844 167.56 84.38C167.579 84.3869 167.601 84.3869 167.62 84.38L167.51 84.4321V84.64L167.25 84.73V85.43H167.05C167.072 85.3617 167.072 85.2884 167.05 85.22C167.038 85.1452 167.011 85.0736 166.97 85.01C166.866 84.92 166.737 84.8641 166.6 84.85C166.43 84.82 166.29 84.69 166.29 84.44V84.1L166.2 83.93C166.2 83.84 166.23 83.79 166.29 83.79H167.15C167.156 83.7462 167.15 83.7015 167.132 83.6609C167.115 83.6203 167.086 83.5854 167.05 83.56C166.981 83.5248 166.907 83.5012 166.83 83.49C166.74 83.48 166.65 83.48 166.56 83.49H166.36C166.346 83.4375 166.346 83.3825 166.36 83.33C166.359 83.3016 166.352 83.2736 166.34 83.2478C166.328 83.222 166.311 83.199 166.29 83.18H166.22C166.162 83.1586 166.098 83.1586 166.04 83.18C166.02 83.2025 165.996 83.2197 165.968 83.2302C165.94 83.2407 165.91 83.244 165.88 83.24H165.8C165.617 83.2493 165.433 83.2493 165.25 83.24L164.72 83.17C164.614 83.1189 164.522 83.0435 164.45 82.95L164.24 82.67C164.198 82.6192 164.162 82.5638 164.132 82.5048C164.137 82.5343 164.145 82.63 164.13 82.63C164.11 82.63 164.05 82.57 164.05 82.57C164.044 82.5551 164.035 82.5419 164.022 82.5315C164.01 82.521 163.996 82.5137 163.98 82.51C163.896 82.5027 163.815 82.4789 163.74 82.44L163.44 82.32L163.19 82.22C163.11 82.15 163.05 82.16 163.05 82.22C163.032 82.2921 163.025 82.3663 163.03 82.44Z" fill="white"/>
</g>
<defs>
<linearGradient id="paint0_linear" x1="123.21" y1="452.53" x2="128.41" y2="291.2" gradientUnits="userSpaceOnUse">
<stop offset="0.01"/>
<stop offset="1" stop-opacity="0"/>
</linearGradient>
<linearGradient id="paint1_linear" x1="222.73" y1="294.65" x2="213.63" y2="-171.11" gradientUnits="userSpaceOnUse">
<stop offset="0.01"/>
<stop offset="0.15" stop-opacity="0.26"/>
<stop offset="1" stop-opacity="0"/>
</linearGradient>
<linearGradient id="paint2_linear" x1="21744" y1="14338.5" x2="4649.82" y2="17053.4" gradientUnits="userSpaceOnUse">
<stop offset="0.01"/>
<stop offset="1" stop-opacity="0"/>
</linearGradient>
<linearGradient id="paint3_linear" x1="3329.97" y1="16727.1" x2="4655.25" y2="16763" gradientUnits="userSpaceOnUse">
<stop offset="0.01"/>
<stop offset="1" stop-opacity="0"/>
</linearGradient>
<linearGradient id="paint4_linear" x1="891.95" y1="344.629" x2="920.194" y2="355.987" gradientUnits="userSpaceOnUse">
<stop offset="0.01"/>
<stop offset="1" stop-opacity="0"/>
</linearGradient>
<linearGradient id="paint5_linear" x1="2115.72" y1="439.73" x2="2308.9" y2="584.754" gradientUnits="userSpaceOnUse">
<stop offset="0.01"/>
<stop offset="1" stop-opacity="0"/>
</linearGradient>
<linearGradient id="paint6_linear" x1="2480.54" y1="8415.13" x2="2708.73" y2="8398.74" gradientUnits="userSpaceOnUse">
<stop offset="0.01"/>
<stop offset="1" stop-opacity="0"/>
</linearGradient>
<linearGradient id="paint7_linear" x1="2853.33" y1="12802.6" x2="4677.78" y2="12127.6" gradientUnits="userSpaceOnUse">
<stop offset="0.01"/>
<stop offset="1" stop-opacity="0"/>
</linearGradient>
<linearGradient id="paint8_linear" x1="2078.02" y1="2339.38" x2="1793.99" y2="2239.2" gradientUnits="userSpaceOnUse">
<stop offset="0.01"/>
<stop offset="1" stop-opacity="0"/>
</linearGradient>
<linearGradient id="paint9_linear" x1="5495.09" y1="3686.07" x2="4960.28" y2="2810.45" gradientUnits="userSpaceOnUse">
<stop offset="0.01"/>
<stop offset="1" stop-opacity="0"/>
</linearGradient>
<linearGradient id="paint10_linear" x1="564.388" y1="733.071" x2="532.006" y2="738.409" gradientUnits="userSpaceOnUse">
<stop offset="0.01"/>
<stop offset="1" stop-opacity="0"/>
</linearGradient>
<linearGradient id="paint11_linear" x1="2199.96" y1="8103.27" x2="1904.68" y2="8043.4" gradientUnits="userSpaceOnUse">
<stop offset="0.01"/>
<stop offset="1" stop-opacity="0"/>
</linearGradient>
<linearGradient id="paint12_linear" x1="6443.77" y1="6026.27" x2="8345.94" y2="8645.46" gradientUnits="userSpaceOnUse">
<stop offset="0.01"/>
<stop offset="1" stop-opacity="0"/>
</linearGradient>
<linearGradient id="paint13_linear" x1="1632.69" y1="1856.97" x2="1714.84" y2="1994.35" gradientUnits="userSpaceOnUse">
<stop offset="0.01"/>
<stop offset="1" stop-opacity="0"/>
</linearGradient>
<clipPath id="clip0">
<rect width="373.29" height="341.39" fill="white"/>
</clipPath>
</defs>
</svg>
