<svg width="377" height="339" viewBox="0 0 377 339" fill="none" xmlns="http://www.w3.org/2000/svg">
<g clip-path="url(#clip0)">
<path opacity="0.18" d="M371.43 216.28C369.07 228.11 311.07 289.28 258.78 318.87C248.41 324.73 238.27 329.35 228.83 332.09C194.12 342.14 145.1 339.09 112 335.16C97.3402 333.42 85.8002 331.51 80.0002 330.47C77.3802 330.01 75.9402 329.73 75.9402 329.73C60.9402 327.81 47.8402 318.27 38.3902 306.52C28.9402 294.77 22.6502 280.84 16.4602 267.08C10.7502 254.36 4.99017 241.51 2.26017 227.84C0.210166 217.54 -0.0598347 206.98 -0.0098347 196.49C0.120165 171.93 2.58017 145.78 17.6302 126.38C34.6302 104.52 63.8202 95.96 83.4402 76.45C94.4902 65.45 102.03 51.45 112.29 39.72C124.66 25.58 140.73 15.1 157.67 6.96C165.97 2.96 174.91 -0.569999 184.1 0.0700007C186.992 0.307247 189.849 0.860547 192.62 1.72C210.32 6.94 223.27 21.86 227.02 39.94C231.45 61.35 248.41 89.63 302.3 108.53C399.31 142.56 374.26 202.1 371.43 216.28Z" fill="#1A237E"/>
<path opacity="0.18" d="M341.6 73.69H288.25C282.567 73.69 277.96 78.297 277.96 83.98V145.86C277.96 151.543 282.567 156.15 288.25 156.15H341.6C347.283 156.15 351.89 151.543 351.89 145.86V83.98C351.89 78.297 347.283 73.69 341.6 73.69Z" fill="#1A237E"/>
<path opacity="0.18" d="M95.2801 78.31H41.9301C36.2471 78.31 31.6401 82.917 31.6401 88.6V150.48C31.6401 156.163 36.2471 160.77 41.9301 160.77H95.2801C100.963 160.77 105.57 156.163 105.57 150.48V88.6C105.57 82.917 100.963 78.31 95.2801 78.31Z" fill="#1A237E"/>
<path d="M277.89 143.41C280.58 138.55 283.41 133.54 287.89 130.25C292.94 126.53 299.44 125.49 305.69 125.09C314.646 124.513 323.638 125.027 332.47 126.62C334.154 126.883 335.811 127.298 337.42 127.86C341.35 129.33 344.56 132.24 347.42 135.35C348.517 136.467 349.41 137.766 350.06 139.19C350.755 141.396 350.879 143.743 350.42 146.01C350.12 148.35 349.68 150.79 348.25 152.67C345.92 155.77 341.64 156.56 337.77 156.73C330.17 157.06 322.57 155.88 314.97 156.27C312.14 156.41 309.31 156.77 306.48 156.95C300.746 157.17 295.003 157.01 289.29 156.47C286.79 156.29 284.16 156.06 282.08 154.65C281.054 153.878 280.193 152.908 279.545 151.799C278.898 150.69 278.478 149.463 278.31 148.19C277.982 145.646 277.999 143.069 278.36 140.53" fill="#1A237E"/>
<path d="M309.43 117.19C309.221 118.95 308.66 120.651 307.78 122.19C307.02 123.48 306 124.7 305.93 126.32C305.94 127.282 306.147 128.232 306.54 129.11C307.494 132.064 308.989 134.814 310.95 137.22C312.14 138.645 313.722 139.689 315.499 140.223C317.277 140.756 319.173 140.755 320.95 140.22C321.849 139.942 322.673 139.463 323.36 138.82C325.57 136.68 323.97 132.44 323 128.98C321.74 124.49 323.73 117.88 323 115.13C322.763 113.92 322.191 112.801 321.35 111.9C320.869 111.494 320.303 111.202 319.694 111.044C319.084 110.887 318.448 110.868 317.83 110.99C313.94 111.48 310.33 114.77 308.63 119.37" fill="url(#paint0_linear)"/>
<path d="M317.88 126.5C319.34 126.72 321.06 126.45 321.88 125.22C322.283 124.471 322.483 123.63 322.46 122.78L322.75 117.93C321.851 118.485 320.805 118.754 319.75 118.7C318.04 118.76 316.32 118.78 314.61 118.76C313.48 118.76 311.15 118.2 310.18 118.97C308.57 120.26 312.8 124.12 313.83 124.85C315.036 125.703 316.421 126.268 317.88 126.5Z" fill="url(#paint1_linear)"/>
<path d="M302.26 108.12C302.615 109.851 303.187 111.531 303.96 113.12C304.783 114.577 305.792 115.922 306.96 117.12C308.164 118.527 309.623 119.694 311.26 120.56C313.322 121.389 315.542 121.751 317.76 121.62C319.26 121.67 320.759 121.463 322.19 121.01C325.29 119.88 327.27 116.84 328.64 113.83C330.497 109.885 331.518 105.599 331.64 101.24C331.745 96.8687 330.623 92.5554 328.4 88.79C327.272 86.8059 325.645 85.1512 323.68 83.99C321.342 82.8535 318.756 82.3239 316.16 82.45C314.542 82.402 312.925 82.5872 311.36 83C308.897 83.8264 306.682 85.2606 304.92 87.17C303.841 88.2046 302.936 89.4068 302.24 90.73C299.5 96.1 300.96 102.55 302.26 108.12Z" fill="url(#paint2_linear)"/>
<path d="M303.19 99.93C303.312 102.827 303.019 105.726 302.32 108.54C300.749 106.502 299.588 104.18 298.9 101.7C298.388 100.37 298.006 98.9937 297.76 97.59C297.617 96.3723 297.573 95.1448 297.63 93.92C297.614 93.0423 297.705 92.1658 297.9 91.31C298.111 90.4483 298.63 89.6939 299.36 89.19C299.652 89.0548 299.918 88.8723 300.15 88.65C300.34 88.3483 300.453 88.0051 300.48 87.65C300.8 85.32 302.01 82.95 304.16 82C305.321 81.4058 306.532 80.9172 307.78 80.54C312.67 79.2947 317.778 79.175 322.72 80.19C325.36 80.74 328.07 81.7 329.81 83.76C331.075 85.4362 331.909 87.3967 332.24 89.47C332.365 89.7945 332.414 90.1431 332.385 90.4895C332.355 90.8359 332.248 91.1711 332.07 91.47C331.847 91.6703 331.642 91.8913 331.46 92.13C331.305 92.4907 331.284 92.895 331.4 93.27C332.12 97.47 331.89 102.09 329.4 105.56C329.374 101.936 329.076 98.3194 328.51 94.74C328.474 94.2458 328.316 93.7682 328.05 93.35C327.31 92.35 325.79 92.53 324.55 92.72C319.953 93.444 315.244 92.7753 311.03 90.8C310.282 90.3739 309.467 90.0765 308.62 89.92C308.197 89.8505 307.763 89.9085 307.373 90.0866C306.983 90.2647 306.655 90.5548 306.43 90.92C306.261 91.5266 306.137 92.145 306.06 92.77C305.678 93.5795 305.145 94.309 304.49 94.92C303.514 96.3998 303.056 98.1621 303.19 99.93Z" fill="#3E3E54"/>
<path d="M340.93 135.26C340.767 134.114 341.061 132.95 341.75 132.02C342.5 131.436 343.43 131.132 344.38 131.16C346.282 131.037 348.191 131.053 350.09 131.21C350.408 131.212 350.72 131.302 350.99 131.47C351.292 131.781 351.464 132.196 351.47 132.63C351.89 135.758 352.031 138.917 351.89 142.07C351.912 145.266 351.15 148.418 349.67 151.25C348.659 152.931 347.251 154.339 345.57 155.35C344.3 156.13 341.57 157.55 340.05 156.85C338.27 156.04 339.38 153.23 339.62 151.85C340.06 149.283 340.394 146.697 340.62 144.09C340.86 141.19 340.96 138.19 340.93 135.26Z" fill="#1A237E"/>
<path d="M343.69 125.11C343.025 123.786 342.166 122.569 341.14 121.5C340.146 120.318 339.25 119.057 338.46 117.73C338.282 117.515 338.157 117.26 338.096 116.987C338.035 116.714 338.04 116.431 338.11 116.16C338.43 115.45 339.48 115.47 340.11 115.83C341.11 116.39 342.11 117.51 343.23 117.13C344.35 116.75 344.44 115.36 344.28 114.26C343.75 110.58 341.71 106.82 343.03 103.34C344.491 105.248 345.663 107.361 346.51 109.61C346.758 109.512 346.971 109.341 347.121 109.119C347.271 108.898 347.35 108.637 347.35 108.37C347.327 107.836 347.229 107.307 347.06 106.8C346.68 105.212 346.77 103.548 347.32 102.01C348.412 102.835 349.2 103.999 349.56 105.32C352 112.02 351.63 119.37 351.24 126.49C351.206 127.867 351.035 129.237 350.73 130.58C350.548 131.591 350.03 132.51 349.26 133.19C348.07 134.08 344.77 134.49 344.16 132.79C343.79 131.79 344.26 129.99 344.27 128.9C344.338 127.61 344.14 126.32 343.69 125.11Z" fill="url(#paint3_linear)"/>
<path d="M78.6601 90.19C76.6603 89.0015 74.5069 88.093 72.2601 87.49C69.3824 86.8834 66.4061 86.9212 63.5448 87.6007C60.6834 88.2801 58.0079 89.5844 55.7101 91.42C51.1292 95.1582 47.9181 100.311 46.5801 106.07C45.1001 111.97 45.3101 118.24 43.5001 124.07C42.3001 127.9 40.2701 131.41 38.9101 135.18C37.5501 138.95 36.9101 143.25 38.5501 146.91C40.1901 150.57 43.7901 152.91 47.6101 154.05C51.4301 155.19 55.4601 155.13 59.4301 155.1L69.0901 155.02C75.2201 155.02 82.0901 154.65 86.3301 150.27C89.8101 146.72 90.6701 141.32 90.3301 136.36C89.9901 131.4 88.7401 126.51 88.6701 121.54C88.5501 109.71 90.5601 96.87 78.6601 90.19Z" fill="#3E3E54"/>
<path d="M40.8899 144.03C43.8199 141.43 47.9799 140.77 51.8899 140.64C58.0176 140.602 64.1361 141.121 70.1699 142.19C72.572 142.485 74.9464 142.973 77.2699 143.65C85.0699 146.13 90.9699 152.41 96.4899 158.45C96.8592 158.786 97.1115 159.231 97.2099 159.72C97.2899 160.9 95.7299 161.36 94.5499 161.4C79.8599 161.97 65.1299 160.4 50.4499 161.2C45.9899 161.44 37.2799 162.48 34.9299 157.29C33.1499 153.34 38.1499 146.47 40.8899 144.03Z" fill="#1A237E"/>
<path d="M65.8998 111.74C64.5761 112.389 63.1747 112.867 61.7298 113.16C59.3298 113.56 56.8698 113 54.4398 113.16C54.294 113.157 54.1509 113.199 54.0298 113.28C53.9213 113.404 53.8641 113.565 53.8698 113.73C53.3168 118.04 53.1895 122.395 53.4898 126.73C53.6315 128.557 54.0741 130.348 54.7998 132.03C55.8924 134.199 57.6129 135.989 59.7373 137.166C61.8616 138.343 64.2913 138.853 66.7098 138.63C69.1208 138.335 71.4125 137.414 73.3566 135.958C75.3006 134.501 76.8291 132.561 77.7898 130.33C78.7751 127.769 79.3554 125.07 79.5098 122.33C79.8498 118.84 80.0498 115.33 80.0898 111.85C79.3461 111.382 78.7173 110.752 78.2499 110.008C77.7825 109.263 77.4886 108.423 77.3898 107.55C77.2168 106.075 77.264 104.582 77.5298 103.12C74.5298 107.19 70.5698 109.67 65.8998 111.74Z" fill="url(#paint4_linear)"/>
<path d="M68.7199 146.19C68.4773 147.043 68.063 147.838 67.5024 148.526C66.9419 149.214 66.2469 149.78 65.4599 150.19C64.5477 150.535 63.571 150.677 62.5983 150.604C61.6257 150.531 60.6808 150.247 59.8299 149.77C58.8121 149.32 57.962 148.561 57.3999 147.6C57.0395 146.809 56.8552 145.949 56.8599 145.08C56.7794 143.446 56.8902 141.808 57.1899 140.2C57.6299 137.79 58.5799 135.33 60.5399 133.85C62.7099 132.21 67.5399 131.91 69.1599 134.57C70.7799 137.23 69.6199 143.55 68.7199 146.19Z" fill="url(#paint5_linear)"/>
<path opacity="0.18" d="M237.93 28.07H184.58C178.897 28.07 174.29 32.677 174.29 38.36V100.24C174.29 105.923 178.897 110.53 184.58 110.53H237.93C243.613 110.53 248.22 105.923 248.22 100.24V38.36C248.22 32.677 243.613 28.07 237.93 28.07Z" fill="#1A237E"/>
<path d="M183.54 93.79C186.47 91.19 190.63 90.53 194.54 90.41C200.287 90.2855 206.032 90.7344 211.69 91.75C217.15 92.68 222.82 92.58 228.37 92.81C230.37 92.89 232.6 93.07 234 94.51C234.672 95.2972 235.185 96.2074 235.51 97.19L236.92 100.7C237.92 103.18 241.64 109.22 238.48 110.93C236.8 111.84 233.28 111.25 231.4 111.26C228.89 111.26 226.4 111.26 223.86 111.19C213.61 110.97 203.35 110.36 193.1 110.93C188.64 111.18 179.93 112.21 177.58 107.03C175.8 103.1 180.8 96.19 183.54 93.79Z" fill="#1A237E"/>
<path d="M213.17 36.65C214.657 35.7139 216.364 35.1859 218.119 35.1192C219.875 35.0524 221.617 35.4494 223.17 36.27C224.246 36.8153 225.173 37.6151 225.87 38.6C226.803 40.2193 227.325 42.0424 227.39 43.91C228.068 50.2605 228.192 56.658 227.76 63.03C227.37 68.85 226.53 74.81 228.06 80.44C224.182 77.906 220.994 74.4494 218.78 70.38C216.579 66.3238 214.793 62.0555 213.45 57.64C212.1 53.56 211.08 49.38 209.3 45.48C207.83 42.27 210.48 38.37 213.17 36.65Z" fill="#3E3E54"/>
<path d="M217.4 94.95C217.32 95.8263 217.062 96.6771 216.642 97.4507C216.223 98.2243 215.651 98.9045 214.96 99.45C214.132 99.9674 213.199 100.296 212.23 100.411C211.26 100.527 210.277 100.428 209.35 100.12C208.265 99.876 207.285 99.2949 206.55 98.46C206.056 97.7477 205.716 96.9407 205.55 96.09C205.163 94.5018 204.958 92.8746 204.94 91.24C204.94 88.79 205.38 86.24 207.01 84.37C208.84 82.37 213.49 81.12 215.61 83.37C217.73 85.62 217.77 92.19 217.4 94.95Z" fill="url(#paint6_linear)"/>
<path d="M206.69 90.99C207.474 92.2075 208.676 93.0966 210.07 93.49C211.055 93.7048 212.063 93.7888 213.07 93.74C213.407 93.7494 213.743 93.7124 214.07 93.63C214.334 93.5332 214.58 93.3948 214.8 93.22C215.716 92.5355 216.433 91.6178 216.874 90.5626C217.315 89.5074 217.466 88.3532 217.31 87.22C217.31 87 213.22 86.72 212.81 86.68C211.285 86.5286 209.753 86.4618 208.22 86.48C207.34 86.48 206.05 86.39 205.73 87.43C205.41 88.47 206.12 90.09 206.69 90.99Z" fill="url(#paint7_linear)"/>
<path d="M196.96 63.04C196.894 67.0669 197.256 71.0895 198.04 75.04C198.839 79.0147 200.806 82.6604 203.69 85.51C206.356 88.0072 209.887 89.373 213.54 89.32C215.349 89.2778 217.126 88.83 218.739 88.0096C220.352 87.1893 221.76 86.0172 222.86 84.58C224.72 82.08 225.44 78.93 225.86 75.85C226.631 70.5057 226.709 65.0841 226.09 59.72C225.99 58.2089 225.617 56.7284 224.99 55.35C223.68 53.1839 221.653 51.5456 219.26 50.72C215.475 49.2986 211.362 48.9966 207.41 49.85C198.5 51.53 197.68 57.92 197.11 58.26C196.931 59.8467 196.881 61.4452 196.96 63.04Z" fill="url(#paint8_linear)"/>
<path d="M192.92 55.45C193.045 53.2298 193.683 51.0689 194.783 49.1362C195.883 47.2036 197.415 45.5518 199.26 44.31C202.95 41.95 207.54 41.6 211.91 41.53C216.51 41.45 221.36 41.66 225.27 44.09C227.378 45.4943 229.098 47.4066 230.272 49.6505C231.447 51.8944 232.037 54.3978 231.99 56.93C231.956 59.2187 231.462 61.4772 230.538 63.5712C229.613 65.6653 228.278 67.5523 226.61 69.12C225.81 67.99 225.61 66.56 225.05 65.3C224.462 64.0926 223.716 62.9693 222.83 61.96L218.98 57.19C218.839 56.9936 218.666 56.8213 218.47 56.68C218.046 56.4907 217.572 56.4451 217.12 56.55C212.919 57.0482 208.689 57.262 204.46 57.19C202.82 57.19 200.99 57.19 199.79 58.27C198.27 59.71 198.98 65.97 196.13 65.55C194.73 65.35 194.01 62.49 193.66 61.36C193.054 59.4518 192.803 57.4487 192.92 55.45Z" fill="#3E3E54"/>
<path d="M205.32 74.52C207.607 74.52 209.46 72.6664 209.46 70.38C209.46 68.0935 207.607 66.24 205.32 66.24C203.034 66.24 201.18 68.0935 201.18 70.38C201.18 72.6664 203.034 74.52 205.32 74.52Z" stroke="white" stroke-width="0.84" stroke-miterlimit="10"/>
<path d="M217.84 74.52C220.127 74.52 221.98 72.6664 221.98 70.38C221.98 68.0935 220.127 66.24 217.84 66.24C215.554 66.24 213.7 68.0935 213.7 70.38C213.7 72.6664 215.554 74.52 217.84 74.52Z" stroke="white" stroke-width="0.84" stroke-miterlimit="10"/>
<path d="M172.76 177.47H171.31V146.18H216.81V112.07H218.26V147.63H172.76V177.47Z" fill="#1A237E"/>
<path d="M187.34 175.34H185.88V168.57H305.75V156.99H307.2V170.03H187.34V175.34Z" fill="#1A237E"/>
<path d="M159.25 177.12H157.8V171.8H65.3901V161.48H66.8401V170.35H159.25V177.12Z" fill="#1A237E"/>
<path d="M137.93 175.7H208.07C209.503 175.695 210.922 175.972 212.247 176.516C213.573 177.061 214.777 177.861 215.793 178.872C216.808 179.883 217.614 181.084 218.164 182.406C218.715 183.729 218.999 185.147 219 186.58V287.46C219 290.08 217.959 292.593 216.106 294.446C214.253 296.299 211.74 297.34 209.12 297.34H137.6C134.855 297.34 132.222 296.252 130.278 294.313C128.334 292.375 127.238 289.745 127.23 287V186.4C127.23 184.995 127.507 183.603 128.044 182.305C128.582 181.007 129.37 179.828 130.364 178.834C131.358 177.84 132.537 177.052 133.835 176.514C135.133 175.977 136.525 175.7 137.93 175.7Z" fill="#1A237E"/>
<path d="M137.93 175.7H208.07C209.503 175.695 210.922 175.972 212.247 176.516C213.573 177.061 214.777 177.861 215.793 178.872C216.808 179.883 217.614 181.084 218.164 182.406C218.715 183.729 218.999 185.147 219 186.58V287.46C219 290.08 217.959 292.593 216.106 294.446C214.253 296.299 211.74 297.34 209.12 297.34H137.6C134.855 297.34 132.222 296.252 130.278 294.313C128.334 292.375 127.238 289.745 127.23 287V186.4C127.23 184.995 127.507 183.603 128.044 182.305C128.582 181.007 129.37 179.828 130.364 178.834C131.358 177.84 132.537 177.052 133.835 176.514C135.133 175.977 136.525 175.7 137.93 175.7Z" fill="url(#paint9_linear)"/>
<path d="M214.69 185.29H131.52V282.65H214.69V185.29Z" fill="white"/>
<path d="M138.08 259.26L147.48 253.9C150.765 251.873 154.254 250.197 157.89 248.9C163.38 247.15 169.26 247.17 175.01 247.36C184.09 247.66 193.46 248.45 201.48 252.72C209.5 256.99 215.85 265.57 214.87 274.6C214.558 276.879 213.981 279.115 213.15 281.26C213.011 281.805 212.707 282.294 212.28 282.66C211.812 282.914 211.279 283.022 210.75 282.97C190.09 283.1 169.43 284.23 148.75 283.17C143.31 282.89 137.89 283.64 132.44 283.88C131.73 283.88 131.68 268.31 131.77 267.09C132.14 262.97 134.56 261.27 138.08 259.26Z" fill="#1A237E"/>
<path d="M204.64 247.35C205.693 250.316 206.365 253.404 206.64 256.54C207.08 260.08 207.49 263.63 207.64 267.2C207.86 271.97 207.64 276.78 208.49 281.49C209.34 286.2 211.31 290.91 215.09 293.83C215.312 294.054 215.583 294.222 215.882 294.321C216.181 294.42 216.499 294.447 216.81 294.4C217.46 294.2 217.75 293.45 217.93 292.79C220.18 284.28 217.73 275.35 216.55 266.63C216.183 262.79 215.619 258.972 214.86 255.19C214.233 252.583 213.311 250.057 212.11 247.66C211.2 245.693 209.932 243.913 208.37 242.41C207.44 241.57 203.75 238.95 202.58 240.35C201.41 241.75 204.11 246.03 204.64 247.35Z" fill="url(#paint10_linear)"/>
<path d="M141.62 262.82C141.345 265.163 141.225 267.521 141.26 269.88V280.88C141.337 282.895 141.152 284.912 140.71 286.88C140.163 288.673 139.261 290.337 138.059 291.775C136.857 293.213 135.378 294.394 133.71 295.25C133.296 295.506 132.826 295.657 132.34 295.69C131.15 295.69 130.34 294.44 129.94 293.33C127.44 287.12 127.16 280.27 127.3 273.59C127.44 266.91 127.98 260.18 126.99 253.59C126.763 252.696 126.795 251.757 127.08 250.88C127.586 250.033 128.35 249.371 129.26 248.99L139.59 243.49C141.66 242.38 146.39 235.06 147.81 238.38C148.88 240.86 145.34 250.2 144.5 252.55C143.199 255.868 142.234 259.309 141.62 262.82Z" fill="url(#paint11_linear)"/>
<path d="M123.07 300.47C128.885 296.334 133.279 290.501 135.65 283.77C139.74 272.11 137.52 258.49 143.77 247.83C145.27 245.27 147.26 242.91 147.97 240.03C148.68 237.15 147.53 233.47 144.65 232.74C141.77 232.01 139.05 234.59 137.11 236.94L127.18 248.94C127.06 247.94 127.06 238.35 127.18 235.16C116.97 235.66 107.99 243.94 105.46 253.85C104.632 257.524 104.256 261.285 104.34 265.05C104.34 268.95 104.46 272.86 104.69 276.76C104.905 279.275 104.905 281.805 104.69 284.32C103.86 291.41 99.3702 297.52 97.4802 304.4C97.3803 304.681 97.3803 304.989 97.4802 305.27C97.623 305.515 97.8402 305.707 98.1002 305.82C101.03 307.38 104.45 307.68 107.77 307.82C111.09 307.96 114.67 308.08 118.13 308.05C118.791 308.099 119.453 307.986 120.06 307.72C121.26 307.08 121.53 305.5 121.66 304.14" fill="url(#paint12_linear)"/>
<path d="M215.69 290.12C209 277.49 212.64 261.33 206.09 248.63C204.42 245.4 202.09 242.25 202.09 238.63C202.026 238.202 202.076 237.766 202.235 237.364C202.394 236.961 202.655 236.608 202.994 236.34C203.333 236.071 203.736 235.896 204.164 235.833C204.591 235.77 205.028 235.821 205.43 235.98C210.94 236.86 213.94 242.98 218.92 245.5L218.55 236.04C224.381 236.807 229.826 239.381 234.12 243.4C236.084 245.158 237.658 247.307 238.74 249.71C239.728 252.306 240.259 255.053 240.31 257.83C240.68 264.44 240.14 271.09 240.6 277.69C241.06 284.29 242.6 291.07 246.71 296.29C248.92 299.12 251.98 301.92 251.71 305.49C251.716 305.764 251.628 306.033 251.46 306.25C251.321 306.362 251.161 306.446 250.989 306.495C250.817 306.545 250.638 306.56 250.46 306.54C246.527 306.58 242.597 306.55 238.67 306.45C235.41 306.36 229.28 307.25 226.33 305.89C224.22 304.89 222.96 300.89 221.51 298.81C219.405 296.028 217.461 293.126 215.69 290.12Z" fill="url(#paint13_linear)"/>
<path d="M164.79 254.19C165.319 256.398 166.31 258.47 167.698 260.267C169.085 262.065 170.838 263.549 172.84 264.62C175.28 265.88 178.08 266.41 180.57 265.3C184.18 263.69 186.38 258.92 186.86 254.18C187.34 249.44 186.42 244.68 185.5 240.05C185.371 238.706 184.869 237.424 184.05 236.35C183.455 235.807 182.721 235.44 181.93 235.29C177.69 234.17 168.98 233.06 165.58 237.47C162.99 240.8 163.84 250.27 164.79 254.19Z" fill="url(#paint14_linear)"/>
<path d="M155.64 208.96V237.26C155.64 237.26 155.83 249.83 175.87 251.41C195.91 252.99 193.95 227.63 193.95 227.63L194.35 206.63C194.35 206.63 160.55 201.69 155.64 208.96Z" fill="url(#paint15_linear)"/>
<path d="M158.59 215.34C158.31 215.71 157.76 215.71 157.32 215.86C156.09 216.27 155.65 217.76 155.43 219.04C154.897 222.213 154.563 225.416 154.43 228.63L151.02 219.48C150.166 217.491 149.603 215.39 149.35 213.24C149.223 212.162 149.328 211.068 149.657 210.034C149.987 208.999 150.533 208.047 151.26 207.24C151.707 206.866 152.103 206.435 152.44 205.96C152.72 205.329 152.88 204.65 152.91 203.96C153.398 201.495 154.78 199.297 156.79 197.79C158.798 196.309 161.048 195.189 163.44 194.48C172.241 191.466 181.786 191.414 190.62 194.33C193.53 195.33 196.5 196.9 197.86 199.66C198.514 201.148 198.855 202.755 198.86 204.38C199.139 211.078 197.543 217.721 194.25 223.56C194.569 219.197 194.091 214.812 192.84 210.62C193.35 212.31 174.27 212.91 172.6 212.71C169.18 212.32 166.04 211.04 162.7 210.48C161.46 210.27 160.7 210.14 159.83 211.12C158.66 212.31 159.43 214.27 158.59 215.34Z" fill="#B7A451"/>
<path d="M163.35 235.71C164.181 234.558 165.255 233.603 166.495 232.912C167.736 232.221 169.113 231.81 170.53 231.71C173.357 231.525 176.195 231.768 178.95 232.43C181.1 232.84 183.43 233.35 184.8 235.05C185.8 236.29 186.11 237.95 186.94 239.31C187.77 240.67 189.63 241.72 190.94 240.79C191.16 243.18 189.3 245.17 187.83 247.06C186.36 248.95 185.16 251.11 183.11 252.3C181.625 253.054 179.994 253.474 178.33 253.53C174.527 253.959 170.676 253.5 167.08 252.19C165.39 251.521 163.827 250.567 162.46 249.37C161.54 248.56 159.03 246.26 159.11 244.89C159.11 244.3 160 243.68 160.35 243.13C160.803 242.347 161.165 241.515 161.43 240.65C161.866 238.931 162.511 237.272 163.35 235.71Z" fill="#B7A451"/>
<path d="M169.15 238.31C169.756 237.734 170.564 237.418 171.4 237.43C173.808 237.17 176.234 237.12 178.65 237.28C179.469 237.282 180.278 237.463 181.02 237.81C182.79 238.81 183.13 241.12 183.27 243.12C183.441 244.138 183.298 245.185 182.86 246.12C182.491 246.601 182.027 247.002 181.498 247.298C180.968 247.594 180.383 247.778 179.78 247.84C176.53 248.49 172.17 248.35 169.24 246.58C168.765 246.311 168.386 245.9 168.155 245.406C167.923 244.911 167.852 244.357 167.95 243.82C168.06 242.35 168.2 239.49 169.15 238.31Z" fill="url(#paint16_linear)"/>
<path d="M112.46 333.26C112.32 333.88 112.18 334.53 111.99 335.16C97.3302 333.42 85.7902 331.51 79.9902 330.47C80.1026 328.46 80.5805 326.488 81.4002 324.65C83.5884 319.279 86.1411 314.063 89.0402 309.04C89.6818 307.643 90.7266 306.469 92.0402 305.67C93.4231 305.18 94.9142 305.08 96.3502 305.38C102.14 306.07 116.71 305.85 119.41 312.58C121.53 317.75 113.66 327.68 112.46 333.26Z" fill="#1A237E"/>
<path d="M259.64 317.19C259.505 317.813 259.209 318.389 258.78 318.86C248.41 324.72 238.27 329.34 228.83 332.08C228.453 331.644 228.189 331.122 228.06 330.56C225.933 323.82 223.807 317.073 221.68 310.32C220.97 308.04 220.31 305.32 221.68 303.41C223.05 301.5 226.08 301.23 228.59 301.29C234.9 301.29 245.27 299.79 251.18 301.92C256.54 303.86 257.25 309.81 259.18 314.92C259.527 315.624 259.686 316.406 259.64 317.19Z" fill="#1A237E"/>
</g>
<defs>
<linearGradient id="paint0_linear" x1="305.92" y1="125.73" x2="324.46" y2="125.73" gradientUnits="userSpaceOnUse">
<stop stop-color="#E5C5D5"/>
<stop offset="0.42" stop-color="#EAD4D1"/>
<stop offset="1" stop-color="#F0E9CB"/>
</linearGradient>
<linearGradient id="paint1_linear" x1="316.23" y1="115.25" x2="316.29" y2="140.42" gradientUnits="userSpaceOnUse">
<stop stop-opacity="0"/>
<stop offset="0.99"/>
</linearGradient>
<linearGradient id="paint2_linear" x1="11397.3" y1="4662.66" x2="12354.2" y2="4662.66" gradientUnits="userSpaceOnUse">
<stop stop-color="#E5C5D5"/>
<stop offset="0.42" stop-color="#EAD4D1"/>
<stop offset="1" stop-color="#F0E9CB"/>
</linearGradient>
<linearGradient id="paint3_linear" x1="5668.86" y1="4345.14" x2="5851.23" y2="4345.14" gradientUnits="userSpaceOnUse">
<stop stop-color="#E5C5D5"/>
<stop offset="0.42" stop-color="#EAD4D1"/>
<stop offset="1" stop-color="#F0E9CB"/>
</linearGradient>
<linearGradient id="paint4_linear" x1="3024.57" y1="4927.01" x2="3741.42" y2="4927.01" gradientUnits="userSpaceOnUse">
<stop stop-color="#E5C5D5"/>
<stop offset="0.42" stop-color="#EAD4D1"/>
<stop offset="1" stop-color="#F0E9CB"/>
</linearGradient>
<linearGradient id="paint5_linear" x1="1561.83" y1="2952.49" x2="1734.18" y2="2952.49" gradientUnits="userSpaceOnUse">
<stop stop-color="#E5C5D5"/>
<stop offset="0.42" stop-color="#EAD4D1"/>
<stop offset="1" stop-color="#F0E9CB"/>
</linearGradient>
<linearGradient id="paint6_linear" x1="204.861" y1="92.6745" x2="217.729" y2="90.164" gradientUnits="userSpaceOnUse">
<stop stop-color="#867580"/>
<stop offset="0.57" stop-color="#9B8F8E"/>
</linearGradient>
<linearGradient id="paint7_linear" x1="3359.47" y1="772.642" x2="3362.13" y2="991.931" gradientUnits="userSpaceOnUse">
<stop stop-opacity="0"/>
<stop offset="0.99"/>
</linearGradient>
<linearGradient id="paint8_linear" x1="7729.77" y1="3412.03" x2="8605" y2="3412.03" gradientUnits="userSpaceOnUse">
<stop stop-color="#867580"/>
<stop offset="0.57" stop-color="#9B8F8E"/>
</linearGradient>
<linearGradient id="paint9_linear" x1="172.49" y1="317.19" x2="174.85" y2="2.37" gradientUnits="userSpaceOnUse">
<stop offset="0.02" stop-color="white" stop-opacity="0"/>
<stop offset="0.32" stop-color="white" stop-opacity="0.39"/>
<stop offset="0.68" stop-color="white" stop-opacity="0.68"/>
<stop offset="1" stop-color="white"/>
</linearGradient>
<linearGradient id="paint10_linear" x1="4546.75" y1="16020.2" x2="5514.25" y2="15597.4" gradientUnits="userSpaceOnUse">
<stop stop-opacity="0"/>
<stop offset="0.99"/>
</linearGradient>
<linearGradient id="paint11_linear" x1="4639.72" y1="17112.9" x2="3508.17" y2="16888.9" gradientUnits="userSpaceOnUse">
<stop stop-opacity="0"/>
<stop offset="0.99"/>
</linearGradient>
<linearGradient id="paint12_linear" x1="7973.22" y1="21747.9" x2="10551.8" y2="21747.9" gradientUnits="userSpaceOnUse">
<stop stop-color="#E5C5D5"/>
<stop offset="0.42" stop-color="#EAD4D1"/>
<stop offset="1" stop-color="#F0E9CB"/>
</linearGradient>
<linearGradient id="paint13_linear" x1="13105.2" y1="20503" x2="15571" y2="20503" gradientUnits="userSpaceOnUse">
<stop stop-color="#E5C5D5"/>
<stop offset="0.42" stop-color="#EAD4D1"/>
<stop offset="1" stop-color="#F0E9CB"/>
</linearGradient>
<linearGradient id="paint14_linear" x1="5290.39" y1="8609.14" x2="5825.49" y2="8609.14" gradientUnits="userSpaceOnUse">
<stop stop-color="#E5C5D5"/>
<stop offset="0.42" stop-color="#EAD4D1"/>
<stop offset="1" stop-color="#F0E9CB"/>
</linearGradient>
<linearGradient id="paint15_linear" x1="8415.58" y1="11504" x2="9914.04" y2="11504" gradientUnits="userSpaceOnUse">
<stop stop-color="#E5C5D5"/>
<stop offset="0.42" stop-color="#EAD4D1"/>
<stop offset="1" stop-color="#F0E9CB"/>
</linearGradient>
<linearGradient id="paint16_linear" x1="3650.88" y1="3071.64" x2="3888.09" y2="3071.64" gradientUnits="userSpaceOnUse">
<stop stop-color="#E5C5D5"/>
<stop offset="0.42" stop-color="#EAD4D1"/>
<stop offset="1" stop-color="#F0E9CB"/>
</linearGradient>
<clipPath id="clip0">
<rect width="376.4" height="338.87" fill="white"/>
</clipPath>
</defs>
</svg>
