<svg width="375" height="372" viewBox="0 0 375 372" fill="none" xmlns="http://www.w3.org/2000/svg">
<g clip-path="url(#clip0)">
<path opacity="0.18" d="M62.79 27.47C34.62 50.97 17.95 87.1 16.34 123.74C15.4 145.32 19.34 166.94 17.63 188.47C14.42 228.47 -8.13 268.14 3.11 306.63C14.66 346.18 58.55 367.97 99.63 371.23C140.71 374.49 181.58 364.13 222.75 362.59C245.17 361.74 267.7 363.52 290.01 361.16C312.32 358.8 335.07 351.78 351.09 336.08C367.11 320.38 374.58 297.75 374.5 275.51C374.42 253.27 367.26 231.51 357.07 211.78C346.35 190.98 332.07 171.47 327.07 148.6C320.07 116.39 331.53 78.48 311.07 52.6C298.39 36.6 277.14 30.67 257.34 25.66C224.42 17.35 190.74 5.62 157.02 1.19C140.105 -1.20137 122.879 -0.0745111 106.42 4.5C100.13 6.27 62.79 18.99 62.79 27.47Z" fill="#1A237E"/>
<path d="M250.59 135.68C285.467 135.68 313.74 107.407 313.74 72.53C313.74 37.6532 285.467 9.38 250.59 9.38C215.713 9.38 187.44 37.6532 187.44 72.53C187.44 107.407 215.713 135.68 250.59 135.68Z" fill="url(#paint0_radial)"/>
<path d="M186.11 333.47C266.318 333.47 331.34 319.909 331.34 303.18C331.34 286.451 266.318 272.89 186.11 272.89C105.902 272.89 40.88 286.451 40.88 303.18C40.88 319.909 105.902 333.47 186.11 333.47Z" fill="url(#paint1_linear)"/>
<path d="M250.21 304.89C250.499 305.876 251.036 306.771 251.77 307.49C252.476 308.027 253.31 308.372 254.19 308.49C257.19 309.01 261.19 305.94 260.8 304.29C260.41 302.64 260.98 296.86 260.68 295.19C260.611 294.442 260.415 293.712 260.1 293.03C259.2 291.48 257.05 291.31 255.27 291.48C252.9 291.72 249.21 292.48 248.48 295.1C247.72 297.92 249.25 302.27 250.21 304.89Z" fill="#F5BBB9"/>
<path d="M155.64 138.76C152.3 141.24 151.28 145.99 152.21 150.05C153.14 154.11 155.66 157.61 158.32 160.81C165.158 169.051 173.258 176.155 182.32 181.86C185.62 183.93 189.16 185.86 193.04 186.29C197.4 186.77 201.73 185.29 205.88 183.91C207.827 183.367 209.662 182.483 211.3 181.3C212.925 179.84 214.177 178.013 214.95 175.97C217.014 171.029 218.134 165.744 218.25 160.39C218.51 153.34 217.04 153.23 214.58 146.62C212.74 141.62 209.75 135.8 204.64 137.21C190.96 140.97 194.95 155.61 194.96 162.26C190.45 156.95 182.07 149.32 176.83 144.73C172.51 140.9 161.42 134.48 155.64 138.76Z" fill="#1A237E"/>
<path d="M155.64 138.76C152.3 141.24 151.28 145.99 152.21 150.05C153.14 154.11 155.66 157.61 158.32 160.81C165.158 169.051 173.258 176.155 182.32 181.86C185.62 183.93 189.16 185.86 193.04 186.29C197.4 186.77 201.73 185.29 205.88 183.91C207.827 183.367 209.662 182.483 211.3 181.3C212.925 179.84 214.177 178.013 214.95 175.97C217.014 171.029 218.134 165.744 218.25 160.39C218.51 153.34 217.04 153.23 214.58 146.62C212.74 141.62 209.75 135.8 204.64 137.21C190.96 140.97 194.95 155.61 194.96 162.26C190.45 156.95 182.07 149.32 176.83 144.73C172.51 140.9 161.42 134.48 155.64 138.76Z" fill="url(#paint2_linear)"/>
<path d="M198.57 117.21C197.27 119.68 198.48 122.9 197.23 125.39C196.48 126.71 195.291 127.725 193.87 128.26C191.39 129.32 188.57 129.47 186.15 130.64C184.005 131.681 182.303 133.454 181.35 135.64C180.42 137.84 180.22 140.48 178.48 142.12C176.39 144.12 173.05 143.71 170.28 142.93C168.38 142.4 166.36 141.62 165.34 139.93C164.756 138.802 164.49 137.537 164.57 136.27C164.57 133.21 165.48 130.22 166.07 127.22C166.92 122.91 167.21 118.5 168.22 114.22C169.23 109.94 171.06 105.7 174.38 102.82C177.7 99.94 184.99 92.51 189.18 93.24C193.18 93.95 194.08 102.86 196.32 106.24C197.075 107.527 197.743 108.863 198.32 110.24C199.73 113.2 200.1 114.32 198.57 117.21Z" fill="#F5BBB9"/>
<path d="M192.17 94.79C191.35 97.45 188.74 99.07 186.36 100.51C183.98 101.95 181.41 103.68 180.78 106.39C180.38 108.05 180.78 109.93 179.78 111.39C179.458 110.648 179.004 109.97 178.44 109.39C178.151 109.106 177.789 108.905 177.395 108.81C177 108.715 176.587 108.729 176.2 108.85C175.8 109.064 175.469 109.387 175.246 109.782C175.023 110.177 174.917 110.627 174.94 111.08C174.951 112.057 175.302 112.999 175.934 113.744C176.566 114.489 177.438 114.99 178.4 115.16C177.247 116.828 176.501 118.742 176.22 120.75C175.93 122.83 176.08 125.14 174.76 126.75C174.056 127.559 173.068 128.067 172 128.169C170.932 128.272 169.865 127.961 169.02 127.3C168.723 127.98 168.224 128.553 167.59 128.94C165.9 128.06 165.94 125.71 165.59 123.84C164.76 118.84 160.06 115.35 158.5 110.53C157.818 107.921 157.645 105.205 157.99 102.53C158.039 99.9791 158.551 97.4583 159.5 95.09C161.185 91.8451 163.977 89.3118 167.37 87.95C170.433 86.7094 173.632 85.8367 176.9 85.35C179.586 84.7028 182.317 84.2582 185.07 84.02C190.15 83.86 193.54 90.35 192.17 94.79Z" fill="#2E2E3F"/>
<path d="M238.54 204.86C239.543 204.849 240.54 205.008 241.49 205.33C242.352 205.72 243.132 206.27 243.79 206.95C251.43 214.11 253.74 225.14 255.66 235.43C258.89 252.69 262.12 270.03 262.56 287.58C262.65 291.04 264.05 294.19 262.43 297.24C260.81 300.29 253.38 300.59 250.11 299.47C246.84 298.35 247.65 297.04 246.33 293.81C243.64 287.27 239.84 281.27 236.07 275.27L222.29 253.44C220.09 249.96 217.8 246.38 214.43 244C209.69 240.66 203.59 240.21 197.89 239.16C192.19 238.11 186.02 235.88 183.4 230.71C178.71 221.42 184.93 208.78 194.91 207.6C209.47 205.85 223.84 204.27 238.54 204.86Z" fill="#2E2E3F"/>
<path d="M238.54 204.86C239.543 204.849 240.54 205.008 241.49 205.33C242.352 205.72 243.132 206.27 243.79 206.95C251.43 214.11 253.74 225.14 255.66 235.43C258.89 252.69 262.12 270.03 262.56 287.58C262.65 291.04 263.31 294.04 261.69 297.1C260.07 300.16 255.02 300.88 251.74 299.77C248.46 298.66 247.65 297.04 246.33 293.77C243.64 287.27 239.84 281.27 236.07 275.27L222.29 253.44C220.09 249.96 217.8 246.38 214.43 244C209.69 240.66 203.59 240.21 197.89 239.16C192.19 238.11 186.02 235.88 183.4 230.71C178.71 221.42 184.93 208.78 194.91 207.6C209.47 205.85 223.84 204.27 238.54 204.86Z" fill="url(#paint3_linear)"/>
<path d="M254.72 261.48C254.869 262.573 255.208 263.633 255.72 264.61C257.11 266.98 260.09 267.96 262.85 268.01C264.031 268.092 265.213 267.854 266.27 267.32C266.877 266.929 267.4 266.422 267.81 265.828C268.22 265.235 268.509 264.566 268.66 263.86C268.962 262.451 269.039 261.003 268.89 259.57C268.71 256.488 268.33 253.422 267.75 250.39C267.699 249.934 267.53 249.5 267.26 249.13C266.61 248.38 265.41 248.61 264.46 248.9C262.08 249.62 256.23 250.22 254.54 252.07C252.64 254.18 254.72 258.98 254.72 261.48Z" fill="#F5BBB9"/>
<path d="M267.85 263.48C266.629 263.862 265.43 264.312 264.26 264.83C262.706 265.368 261.045 265.519 259.42 265.27C257.67 264.99 255.53 264.38 254.42 265.75C254.128 266.227 253.941 266.761 253.872 267.317C253.803 267.872 253.854 268.436 254.02 268.97C254.413 271.092 254.999 273.174 255.77 275.19C256.001 275.917 256.364 276.594 256.84 277.19C258.03 278.52 260.03 278.68 261.84 278.75C268.208 279.12 274.592 279.12 280.96 278.75C282.87 278.61 285.22 278.03 285.64 276.16C285.772 275.117 285.488 274.065 284.85 273.23C282.95 270.23 279.95 268.23 276.85 266.65C274.14 265.27 270.96 262.81 267.85 263.48Z" fill="#2E2E3F"/>
<path d="M260.23 302.95C259.185 303.274 258.16 303.658 257.16 304.1C255.833 304.553 254.415 304.677 253.03 304.46C251.54 304.22 249.71 303.7 248.74 304.87C248.49 305.278 248.331 305.734 248.272 306.208C248.214 306.682 248.257 307.164 248.4 307.62C248.739 309.427 249.238 311.201 249.89 312.92C250.092 313.531 250.404 314.101 250.81 314.6C251.81 315.73 253.53 315.87 255.05 315.93C260.489 316.245 265.941 316.245 271.38 315.93C273.01 315.81 275.01 315.31 275.38 313.72C275.439 313.28 275.41 312.832 275.295 312.403C275.18 311.974 274.981 311.572 274.71 311.22C272.976 308.767 270.613 306.826 267.87 305.6C265.6 304.46 262.88 302.37 260.23 302.95Z" fill="#2E2E3F"/>
<path d="M163.97 132.27C156.59 135.35 151.28 141.99 147.27 148.91C137.58 165.61 133.65 184.91 129.86 203.85C129.08 207.77 128.29 211.75 128.61 215.74C128.727 217.427 129.111 219.084 129.75 220.65C132.21 226.46 138.75 229.6 145.08 229.98C150.66 230.33 156.19 228.98 161.72 228.14C166.37 227.48 171.08 227.24 175.63 226.14C180.18 225.04 184.63 222.81 187.47 219.07C190.73 214.73 191.31 209 191.78 203.6L194.29 174.3C195.04 165.52 195.74 156.3 192.29 148.22C189.897 142.733 185.788 138.171 180.58 135.22C175.64 132.27 169.42 129.94 163.97 132.27Z" fill="#1A237E"/>
<path d="M194.29 174.2L193.78 180.14C193.113 187.933 192.447 195.72 191.78 203.5C191.43 207.5 191.03 211.6 189.55 215.23C189.024 216.562 188.324 217.82 187.47 218.97C184.66 222.71 180.18 224.9 175.63 226.04C171.08 227.18 166.36 227.43 161.72 228.04C156.18 228.83 150.66 230.23 145.08 229.88C138.79 229.5 132.2 226.36 129.74 220.55C129.109 218.982 128.728 217.326 128.61 215.64C128.29 211.64 129.08 207.64 129.86 203.75C133.65 184.82 137.58 165.51 147.27 148.81C151.27 141.89 156.59 135.25 163.98 132.17C169.43 129.89 175.64 132.24 180.6 135.07C185.809 138.02 189.919 142.582 192.31 148.07C195.74 156.27 195.04 165.42 194.29 174.2Z" fill="url(#paint4_linear)"/>
<path d="M194.09 171.65C193.99 174.48 193.88 177.31 193.78 180.14C193.113 187.933 192.447 195.72 191.78 203.5C191.43 207.5 191.03 211.6 189.55 215.23C186.89 217.86 182.81 218.73 179.05 219.41C178.846 219.509 178.619 219.55 178.393 219.529C178.167 219.507 177.952 219.423 177.77 219.286C177.589 219.15 177.45 218.966 177.367 218.755C177.283 218.543 177.26 218.313 177.3 218.09C176.52 208.88 179.72 199.82 180.3 190.59C180.712 183.958 179.777 177.311 177.55 171.05C176.3 167.53 168.76 157.31 177.28 157.69C179.072 157.9 180.787 158.538 182.28 159.55C185.92 161.723 189.279 164.336 192.28 167.33C192.945 167.911 193.468 168.636 193.81 169.45C194.039 170.16 194.134 170.906 194.09 171.65Z" fill="url(#paint5_linear)"/>
<path d="M195.42 130.58C195.2 130.081 195.099 129.537 195.125 128.992C195.151 128.447 195.303 127.916 195.57 127.44C196.183 126.775 196.999 126.332 197.89 126.18C199.26 125.79 200.65 125.45 202.05 125.18C202.669 125.013 203.311 124.949 203.95 124.99C205.48 125.16 206.63 126.42 207.62 127.58C208.693 128.691 209.542 129.998 210.12 131.43C210.485 132.808 210.597 134.242 210.45 135.66L210.32 138.89C210.323 139.485 210.229 140.076 210.04 140.64C209.77 141.26 209.33 141.791 208.77 142.17C207.735 142.861 206.54 143.274 205.3 143.37C203.89 143.52 201.72 143.42 200.8 142.13C200.2 141.3 200.39 139.91 199.98 138.94C198.76 135.99 196.42 133.62 195.42 130.58Z" fill="#F5BBB9"/>
<path d="M131.81 223.92H131.42L131.64 222.56C130 236.69 134.71 253.63 149.8 257.85C162.8 261.48 175.27 261.57 187.8 257.4C197.97 254.03 207.61 247.26 215.5 240.03C222.31 233.79 227.57 226.03 234.56 220.03C236.19 222.59 238.56 224.35 240.35 226.78C242.58 229.78 242.83 233.1 244.04 236.48C245.32 240.08 247.6 243.17 249.15 246.64C252.3 253.64 253.64 256.96 261.68 256.97C264.36 256.97 265.54 257.45 267.33 255.44C270.25 252.15 269.14 242.89 268.95 238.96C268.26 225.08 266.19 210.51 261.34 197.44C258.66 190.23 255.34 183.13 249.9 177.62C242.57 170.24 234.31 173.2 226.39 177.87C216.74 183.57 208.13 192.09 200.11 199.96C196.79 203.21 194.69 206.13 190.71 208.8C186.3 211.8 182 214.08 177.31 216.62C164.05 223.8 146.42 223.92 131.81 223.92Z" fill="#2E2E3F"/>
<path d="M242.64 293.89C242.526 295.242 242.288 296.581 241.93 297.89C239.36 307.24 230.3 313.67 220.86 315.89C211.42 318.11 201.55 316.89 191.94 315.6C170.47 312.71 49.06 304.34 63.42 161.91C65.14 144.75 75.63 122.06 91.94 118.77C95.0461 118.152 98.2512 118.237 101.32 119.02C135.4 127.45 108.98 188.33 155.76 209.84C169.66 216.23 181.26 226.93 195.53 232.43C221.01 242.28 236.53 270.61 236.53 270.61C239.87 277.98 243.28 286.01 242.64 293.89Z" fill="#1A237E"/>
<path d="M250.3 158.42C253.4 161 254.3 165.37 254.38 169.42C254.474 170.262 254.28 171.112 253.83 171.83C253.503 172.191 253.114 172.489 252.68 172.71C250.37 174.07 247.68 175.47 245.14 174.64C242.91 173.91 241.49 171.64 239.32 170.75C237.53 170.01 235.32 170.22 233.88 168.89C233.275 168.269 232.858 167.489 232.68 166.64C230.01 155.85 243.48 152.76 250.3 158.42Z" fill="#F5BBB9"/>
<path d="M203.56 152.98C204.64 153.935 205.874 154.699 207.21 155.24C208.654 155.642 210.163 155.751 211.65 155.56C220.28 154.88 229.08 152.04 237.42 154.37C238.626 154.616 239.728 155.223 240.58 156.11C241.289 157.097 241.642 158.296 241.58 159.51C241.58 165.51 236.7 170.51 231.32 173.26C225.13 176.4 218.12 177.45 211.25 178.46C206.59 179.14 201.88 179.82 197.18 179.38C195.028 179.312 192.934 178.674 191.11 177.53C150.46 148.15 164.63 143.78 167.39 135.38C168.83 130.99 186.96 139.8 191.18 143.15C195.4 146.5 199.42 149.7 203.56 152.98Z" fill="#1A237E"/>
<path d="M242.64 293.89C242.526 295.242 242.288 296.581 241.93 297.89C239.36 307.24 230.3 313.67 220.86 315.89C211.42 318.11 201.55 316.89 191.94 315.6C170.47 312.71 49.06 304.34 63.42 161.91C65.14 144.75 75.63 122.06 91.94 118.77C92.71 123.27 88.75 128.66 87.25 133.51C82.4503 149.25 81.4801 165.909 84.42 182.1C86.0723 191.325 89.0286 200.268 93.2 208.66C98.91 220.07 106.74 230.28 114.86 240.13C120.96 247.53 127.4 254.89 135.62 259.82C143.05 264.28 151.62 266.54 160.06 268.36C171.265 270.772 182.601 272.529 194.01 273.62C209.38 275.09 226.31 275.95 237.52 286.62C239.726 288.65 241.472 291.129 242.64 293.89Z" fill="url(#paint6_linear)"/>
<path d="M270.84 56.01C270.85 59.3473 270.043 62.6363 268.49 65.59L259.97 86.86H239.11L231.19 64.41C230.009 61.7674 229.402 58.9044 229.41 56.01C229.529 50.5949 231.764 45.4416 235.636 41.6539C239.507 37.8662 244.709 35.7452 250.125 35.7452C255.541 35.7452 260.743 37.8662 264.614 41.6539C268.486 45.4416 270.721 50.5949 270.84 56.01Z" fill="#1A237E"/>
<path opacity="0.69" d="M270.84 56.01C270.85 59.3473 270.043 62.6363 268.49 65.59L259.97 86.86H239.11L231.19 64.41C230.009 61.7674 229.402 58.9044 229.41 56.01C229.529 50.5949 231.764 45.4416 235.636 41.6539C239.507 37.8662 244.709 35.7452 250.125 35.7452C255.541 35.7452 260.743 37.8662 264.614 41.6539C268.486 45.4416 270.721 50.5949 270.84 56.01Z" fill="url(#paint7_radial)"/>
<path d="M246.74 87.2C243.694 80.8426 242.096 73.8891 242.06 66.84C242.06 65.26 242.28 63.4 243.67 62.63C245.36 61.69 247.45 63.16 248.38 64.86C248.973 65.9766 249.324 67.2055 249.41 68.4667C249.496 69.7279 249.315 70.9932 248.88 72.18C247.881 70.6974 247.313 68.9664 247.24 67.18C247.023 65.8686 247.105 64.5252 247.48 63.25C247.678 62.6167 248.055 62.0545 248.566 61.632C249.078 61.2094 249.701 60.9446 250.36 60.87C252.36 60.8 253.72 63.08 253.94 65.1C254.196 67.4074 253.664 69.7336 252.43 71.7C252.003 70.3997 251.926 69.0099 252.207 67.6704C252.488 66.331 253.117 65.0891 254.03 64.07C254.633 63.3587 255.445 62.855 256.35 62.63C256.802 62.5265 257.274 62.5533 257.711 62.7073C258.148 62.8613 258.533 63.1362 258.82 63.5C259.101 63.9469 259.273 64.4541 259.32 64.98C259.85 68.8 258.53 72.64 256.87 76.13C255.21 79.62 253.21 82.97 252.24 86.71" stroke="white" stroke-width="0.79" stroke-miterlimit="10"/>
<path d="M258.7 86.62H239.93C238.638 86.62 237.59 87.6676 237.59 88.96V95.47C237.59 96.7623 238.638 97.81 239.93 97.81H258.7C259.992 97.81 261.04 96.7623 261.04 95.47V88.96C261.04 87.6676 259.992 86.62 258.7 86.62Z" fill="#1A237E"/>
<path d="M258.7 86.62H239.93C238.638 86.62 237.59 87.6676 237.59 88.96V95.47C237.59 96.7623 238.638 97.81 239.93 97.81H258.7C259.992 97.81 261.04 96.7623 261.04 95.47V88.96C261.04 87.6676 259.992 86.62 258.7 86.62Z" fill="url(#paint8_linear)"/>
<path d="M260.6 90.33H238.3C237.218 90.33 236.34 91.2075 236.34 92.29V92.43C236.34 93.5125 237.218 94.39 238.3 94.39H260.6C261.682 94.39 262.56 93.5125 262.56 92.43V92.29C262.56 91.2075 261.682 90.33 260.6 90.33Z" fill="#1A237E"/>
<path d="M260.6 90.33H238.3C237.218 90.33 236.34 91.2075 236.34 92.29V92.43C236.34 93.5125 237.218 94.39 238.3 94.39H260.6C261.682 94.39 262.56 93.5125 262.56 92.43V92.29C262.56 91.2075 261.682 90.33 260.6 90.33Z" fill="url(#paint9_linear)"/>
</g>
<defs>
<radialGradient id="paint0_radial" cx="0" cy="0" r="1" gradientUnits="userSpaceOnUse" gradientTransform="translate(250.59 72.53) scale(42.55)">
<stop stop-color="white"/>
<stop offset="1" stop-color="white" stop-opacity="0"/>
</radialGradient>
<linearGradient id="paint1_linear" x1="188.74" y1="149" x2="183.4" y2="461.74" gradientUnits="userSpaceOnUse">
<stop offset="0.01"/>
<stop offset="0.13" stop-opacity="0.69"/>
<stop offset="1" stop-opacity="0"/>
</linearGradient>
<linearGradient id="paint2_linear" x1="14595.3" y1="8653.74" x2="16750.6" y2="9841.41" gradientUnits="userSpaceOnUse">
<stop offset="0.01"/>
<stop offset="0.13" stop-opacity="0.69"/>
<stop offset="1" stop-opacity="0"/>
</linearGradient>
<linearGradient id="paint3_linear" x1="20855.9" y1="23538.3" x2="24986.6" y2="31371.1" gradientUnits="userSpaceOnUse">
<stop offset="0.01"/>
<stop offset="0.13" stop-opacity="0.69"/>
<stop offset="1" stop-opacity="0"/>
</linearGradient>
<linearGradient id="paint4_linear" x1="10935.4" y1="21888.8" x2="15517.8" y2="20347.8" gradientUnits="userSpaceOnUse">
<stop offset="0.01"/>
<stop offset="0.13" stop-opacity="0.69"/>
<stop offset="1" stop-opacity="0"/>
</linearGradient>
<linearGradient id="paint5_linear" x1="5892.88" y1="13392.1" x2="3939.45" y2="13318.4" gradientUnits="userSpaceOnUse">
<stop offset="0.01"/>
<stop offset="0.13" stop-opacity="0.69"/>
<stop offset="1" stop-opacity="0"/>
</linearGradient>
<linearGradient id="paint6_linear" x1="19319.6" y1="64484.8" x2="45482.3" y2="40562.4" gradientUnits="userSpaceOnUse">
<stop offset="0.01"/>
<stop offset="0.13" stop-opacity="0.69"/>
<stop offset="1" stop-opacity="0"/>
</linearGradient>
<radialGradient id="paint7_radial" cx="0" cy="0" r="1" gradientUnits="userSpaceOnUse" gradientTransform="translate(250.13 61.08) scale(23.39)">
<stop offset="0.34" stop-color="white"/>
<stop offset="1" stop-color="white" stop-opacity="0.39"/>
</radialGradient>
<linearGradient id="paint8_linear" x1="5809.08" y1="1118.56" x2="6358.75" y2="1118.56" gradientUnits="userSpaceOnUse">
<stop offset="0.01"/>
<stop offset="0.13" stop-opacity="0.69"/>
<stop offset="1" stop-opacity="0"/>
</linearGradient>
<linearGradient id="paint9_linear" x1="6433.18" y1="465.311" x2="7120.66" y2="465.311" gradientUnits="userSpaceOnUse">
<stop offset="0.01"/>
<stop offset="0.13" stop-opacity="0.69"/>
<stop offset="1" stop-opacity="0"/>
</linearGradient>
<clipPath id="clip0">
<rect width="374.51" height="371.86" fill="white"/>
</clipPath>
</defs>
</svg>
