<svg width="560" height="441" viewBox="0 0 560 441" fill="none" xmlns="http://www.w3.org/2000/svg">
<g clip-path="url(#clip0)">
<path opacity="0.24" d="M559.07 227.13C558.937 229.51 558.76 231.877 558.54 234.23C556.85 251.8 552.66 269.05 548.38 286.15C539.87 320.15 530.15 355.57 506.99 380.96C479.08 411.5 436.53 421.91 396.27 423.34C356.01 424.77 315.6 418.69 275.49 422.78C234.85 426.94 195.12 441.5 154.33 439.97C134.147 439.187 114.307 434.497 95.91 426.16C77.56 417.85 60.49 405.85 48.15 389.33C28.89 363.7 23.45 331.54 21.08 300.68C20.8394 297.654 20.3985 294.647 19.76 291.68C19.58 290.74 19.36 289.81 19.11 288.87C15.42 274.52 7.97001 262.11 3.54001 248.39C2.76001 245.95 2.04001 243.48 1.48001 240.92C0.0959207 234.738 -0.315692 228.379 0.260012 222.07C1.92001 204.72 8.26001 188.19 14.76 171.96C17.64 164.74 20.61 157.49 23.83 150.36C31.61 133.17 40.93 116.76 54.43 103.44C81.5 76.75 121.43 66.59 159.68 61.71C197.93 56.83 237.42 55.99 273.74 43.24C311.34 30.02 344.88 4.31997 384.74 0.479975C413.87 -2.30002 443.1 7.22998 468.14 21.89C523.46 54.18 553.97 132.36 558.75 197.59C559.492 207.42 559.599 217.287 559.07 227.13Z" fill="#1A237E"/>
<path opacity="0.26" d="M170.24 330.04C211.485 330.04 244.92 323.647 244.92 315.76C244.92 307.873 211.485 301.48 170.24 301.48C128.995 301.48 95.56 307.873 95.56 315.76C95.56 323.647 128.995 330.04 170.24 330.04Z" fill="url(#paint0_linear)"/>
<path opacity="0.26" d="M387.26 330.04C438.512 330.04 480.06 321.856 480.06 311.76C480.06 301.664 438.512 293.48 387.26 293.48C336.008 293.48 294.46 301.664 294.46 311.76C294.46 321.856 336.008 330.04 387.26 330.04Z" fill="url(#paint1_linear)"/>
<path d="M145.91 259.69C141.497 259.524 137.096 259.106 132.73 258.44C131.625 258.217 130.495 258.143 129.37 258.22C127.976 258.475 126.628 258.936 125.37 259.59C117.731 262.909 109.262 263.823 101.09 262.21C99.53 261.9 97.84 261.39 97.01 260.04C96.6221 259.31 96.3937 258.505 96.34 257.68C96.0185 255.076 95.9616 252.446 96.17 249.83C96.2013 248.359 96.542 246.911 97.17 245.58C98.0016 244.222 99.2061 243.132 100.64 242.44C105.87 239.64 112.18 240.44 118.11 240.62C125.11 240.87 132.36 240.27 139.11 242.19C143.91 243.54 148.63 246.52 151.2 250.9C154.28 256.04 151.97 259.93 145.91 259.69Z" fill="#FDB386"/>
<path d="M145.91 259.69C141.497 259.524 137.096 259.106 132.73 258.44C131.625 258.217 130.495 258.143 129.37 258.22C127.976 258.475 126.628 258.936 125.37 259.59C117.731 262.909 109.262 263.823 101.09 262.21C99.53 261.9 97.84 261.39 97.01 260.04C96.6221 259.31 96.3937 258.505 96.34 257.68C96.0185 255.076 95.9616 252.446 96.17 249.83C96.2013 248.359 96.542 246.911 97.17 245.58C98.0016 244.222 99.2061 243.132 100.64 242.44C105.87 239.64 112.18 240.44 118.11 240.62C125.11 240.87 132.36 240.27 139.11 242.19C143.91 243.54 148.63 246.52 151.2 250.9C154.28 256.04 151.97 259.93 145.91 259.69Z" fill="url(#paint2_linear)"/>
<path d="M302.97 280.75L338.17 305.68L454.35 306.56L421.78 283.39L302.97 280.75Z" fill="#1A237E"/>
<path d="M316.17 281.71L343.26 300.9L432.64 301.58L407.58 283.75L316.17 281.71Z" fill="white"/>
<path d="M287.28 200.85C287.28 200.85 315.88 186.77 325.56 164.33L356.37 174.01C356.37 174.01 323.37 218.01 310.6 219.33L287.28 200.85Z" fill="#1A237E"/>
<path d="M316.76 226.76C318.52 225.66 344.48 217.08 355.27 196.62L381.45 210.48C381.45 210.48 355.71 245.25 332.6 246.35L316.76 226.76Z" fill="#1A237E"/>
<path d="M409.46 261.97L428.82 283.98L357.54 292.19L348.44 276.05L409.46 261.97Z" fill="#1A237E"/>
<path d="M358.06 274.04L404.26 265.12C404.26 265.12 406.41 267.12 410.85 267.12L419.02 276.59C419.02 276.59 416.59 279.85 417.97 281.85L366.8 289.08C366.8 289.08 362.87 286.68 359.46 286.77L353.46 278.04C353.46 278.04 358.89 277.45 358.06 274.04Z" fill="url(#paint3_linear)"/>
<path d="M245.53 234.12L243.64 226.73C242.45 222.47 239.18 226.18 235.2 228.1L123.2 282.1C121.76 282.798 120.599 283.962 119.903 285.404C119.208 286.845 119.02 288.479 119.37 290.04L120.81 296.43C121.17 298.04 122.083 299.473 123.39 300.48L142.06 314.9C143.313 315.865 144.853 316.384 146.435 316.373C148.017 316.362 149.55 315.822 150.79 314.84L243.1 241.56C244.192 240.696 245.004 239.53 245.437 238.206C245.869 236.883 245.901 235.462 245.53 234.12Z" fill="#1A237E"/>
<path d="M245.53 234.12L243.64 226.73C242.45 222.47 239.18 226.18 235.2 228.1L123.2 282.1C121.76 282.798 120.599 283.962 119.903 285.404C119.208 286.845 119.02 288.479 119.37 290.04L120.81 296.43C121.17 298.04 122.083 299.473 123.39 300.48L142.06 314.9C143.313 315.865 144.853 316.384 146.435 316.373C148.017 316.362 149.55 315.822 150.79 314.84L243.1 241.56C244.192 240.696 245.004 239.53 245.437 238.206C245.869 236.883 245.901 235.462 245.53 234.12Z" fill="url(#paint4_linear)"/>
<path d="M121.83 281.54L204.6 213.66C205.078 213.27 205.646 213.007 206.252 212.893C206.858 212.78 207.483 212.82 208.07 213.01L241.22 223.75C241.855 223.956 242.422 224.331 242.861 224.835C243.299 225.339 243.592 225.953 243.708 226.61C243.824 227.268 243.759 227.945 243.52 228.569C243.281 229.192 242.876 229.739 242.35 230.15L148.5 303.39C147.869 303.881 147.096 304.154 146.297 304.166C145.497 304.179 144.716 303.931 144.07 303.46L121.97 287.36C121.519 287.026 121.15 286.593 120.892 286.095C120.633 285.596 120.492 285.045 120.478 284.484C120.465 283.923 120.579 283.366 120.814 282.856C121.048 282.346 121.396 281.896 121.83 281.54Z" fill="#1A237E"/>
<path d="M121.83 281.54L204.6 213.66C205.078 213.27 205.646 213.007 206.252 212.893C206.858 212.78 207.483 212.82 208.07 213.01L241.22 223.75C241.855 223.956 242.422 224.331 242.861 224.835C243.299 225.339 243.592 225.953 243.708 226.61C243.824 227.268 243.759 227.945 243.52 228.569C243.281 229.192 242.876 229.739 242.35 230.15L148.5 303.39C147.869 303.881 147.096 304.154 146.297 304.166C145.497 304.179 144.716 303.931 144.07 303.46L121.97 287.36C121.519 287.026 121.15 286.593 120.892 286.095C120.633 285.596 120.492 285.045 120.478 284.484C120.465 283.923 120.579 283.366 120.814 282.856C121.048 282.346 121.396 281.896 121.83 281.54Z" fill="url(#paint5_linear)"/>
<path d="M237.04 231.01L234.76 232.79L153.42 296.16L129.04 280.06L127.54 279.06L200.28 219.13L237.04 231.01Z" fill="white"/>
<path opacity="0.13" d="M234.76 232.79L153.42 296.16L129.04 280.06L200.06 221.57L234.76 232.79Z" fill="#1A237E"/>
<path d="M175.5 277.77L149.09 264.07L157.19 256.95L183.6 270.64L175.5 277.77Z" fill="#1A237E"/>
<path d="M175.5 277.77L149.09 264.07L157.19 256.95L183.6 270.64L175.5 277.77Z" fill="url(#paint6_linear)"/>
<path d="M230.78 210.36L227.9 209.13C228.794 207.173 229.795 205.266 230.9 203.42L233.61 204.99C232.564 206.724 231.619 208.517 230.78 210.36Z" fill="#1A237E"/>
<path d="M239.66 196L237.2 194.07C239.528 191.088 242.086 188.293 244.85 185.71L246.98 188C244.334 190.47 241.886 193.145 239.66 196ZM255.52 181.41L253.86 178.76C257.089 176.708 260.541 175.031 264.15 173.76L265.15 176.76C261.777 177.947 258.547 179.507 255.52 181.41ZM286.34 174.68C282.786 174.212 279.19 174.142 275.62 174.47L275.32 171.36C279.123 171.011 282.953 171.082 286.74 171.57L286.34 174.68Z" fill="#1A237E"/>
<path d="M302.66 179.21C300.75 178.41 298.82 177.69 296.92 177.08L297.92 174.08C299.92 174.72 301.92 175.47 303.92 176.31L302.66 179.21Z" fill="#1A237E"/>
<path d="M303.85 290.72L302.97 280.75L338.17 305.68L454.35 306.56L452.07 312.8L334.8 313.46L303.85 290.72Z" fill="#1A237E"/>
<path d="M303.85 290.72L302.97 280.75L338.17 305.68L454.35 306.56L452.07 312.8L334.8 313.46L303.85 290.72Z" fill="url(#paint7_linear)"/>
<path d="M510.62 217.04C510.49 220.98 510.27 224.91 510.02 228.85C509.9 231.1 509.74 233.32 509.55 235.57C509.43 237.23 509.12 239.17 507.68 239.95C507.481 240.059 507.269 240.143 507.05 240.2C506.351 240.326 505.637 240.356 504.93 240.29L495.14 239.64C491.951 239.325 488.739 239.325 485.55 239.64C479.23 240.45 473.42 243.7 467.11 244.42C464.32 244.65 461.516 244.63 458.73 244.36L433.06 242.67C430.862 242.645 428.685 242.232 426.63 241.45C425.598 241.064 424.685 240.414 423.983 239.565C423.281 238.715 422.814 237.696 422.63 236.61C422.47 235.07 423.06 233.54 422.94 231.98C422.954 231.918 422.954 231.853 422.94 231.79C422.5 227.63 417.03 224.26 418.69 220.41C419.06 219.51 419.84 218.73 419.87 217.76C419.821 216.97 419.527 216.215 419.03 215.6C417.59 213.29 416.22 210.6 416.81 207.91C417.25 206 418.62 204.28 418.56 202.35C418.47 200.13 416.56 198.35 416.31 196.16C416.06 193.97 417.78 191.63 419.9 190.62C422.089 189.765 424.432 189.374 426.78 189.47L439.1 189.09C441.1 189.03 443.38 188.91 444.88 187.5C446.69 185.81 446.66 182.9 445.88 180.59C445.1 178.28 443.63 176.21 442.88 173.87C442.315 171.971 442.219 169.964 442.6 168.02C442.982 166.076 443.829 164.254 445.07 162.71C445.48 162.153 446.028 161.712 446.66 161.43C448.88 160.62 450.73 163.24 451.66 165.43C455.184 173.468 460.142 180.797 466.29 187.06C474.066 194.61 483.818 199.81 494.42 202.06C497.51 202.74 502.01 202.31 505.58 202.81C506.62 202.922 507.634 203.205 508.58 203.65C512.68 205.66 510.74 213.44 510.62 217.04Z" fill="#FDB386"/>
<path d="M559.07 227.13C559.07 227.95 558.97 228.76 558.91 229.57C558.82 231.13 558.69 232.7 558.54 234.23C558.018 235.745 557.176 237.13 556.07 238.29C553.25 241.04 549.07 241.29 545.28 241.29C533.153 241.45 521.027 241.117 508.9 240.29C508.27 240.29 507.65 240.19 507.05 240.13C505.393 240.011 503.793 239.475 502.4 238.57C499.49 236.47 498.71 232.41 498.18 228.75C497.11 221.69 496.05 214.37 497.74 207.43C497.88 206.703 498.123 205.999 498.46 205.34C498.749 204.676 499.2 204.096 499.77 203.65C500.838 203.028 502.066 202.736 503.3 202.81C504.08 202.81 504.87 202.81 505.65 202.81C514.52 202.71 523.4 203.59 532.28 203.4C537.265 203.353 542.232 202.787 547.1 201.71C549.47 201.18 555.44 197.8 558.72 197.55C559.473 207.392 559.59 217.273 559.07 227.13Z" fill="#FDB386"/>
<path d="M558.91 229.57C558.82 231.13 558.69 232.7 558.54 234.23C558.018 235.745 557.176 237.13 556.07 238.29C553.25 241.04 549.07 241.29 545.28 241.29C533.153 241.45 521.027 241.117 508.9 240.29C508.27 240.29 507.65 240.19 507.05 240.13C506.351 240.256 505.637 240.286 504.93 240.22L495.14 239.57C491.951 239.255 488.739 239.255 485.55 239.57C479.23 240.38 473.42 243.63 467.11 244.35C464.32 244.58 461.516 244.56 458.73 244.29L433.06 242.6C430.862 242.575 428.685 242.162 426.63 241.38C425.598 240.994 424.685 240.344 423.983 239.495C423.281 238.645 422.814 237.626 422.63 236.54C422.47 235 423.06 233.47 422.94 231.91C422.955 231.848 422.955 231.783 422.94 231.72C428.25 236.35 436.03 236.38 443.13 236.16C455.45 235.79 467.86 235.41 479.8 232.38C479.049 230.563 478.815 228.575 479.124 226.633C479.433 224.692 480.272 222.874 481.55 221.38C482.67 220.1 484.11 219.13 485.33 217.95C487.92 215.38 489.39 211.95 491.77 209.13C493.428 207.053 495.825 205.698 498.46 205.35C499.456 205.276 500.455 205.458 501.36 205.88C505.12 207.69 505.49 212.82 505.27 216.98C505.05 221.14 505.18 226.17 508.8 228.26C509.186 228.482 509.595 228.66 510.02 228.79C511.386 229.158 512.796 229.336 514.21 229.32C525.56 229.61 536.91 229.57 548.28 229.26C551.826 229.082 555.38 229.186 558.91 229.57Z" fill="url(#paint8_linear)"/>
<path d="M109.61 225.29C116.376 224.339 123.26 224.679 129.9 226.29C134.854 227.695 139.541 229.912 143.77 232.85C155.302 240.57 164.61 251.175 170.77 263.61C171.68 265.47 172.34 268.11 170.63 269.28C169.16 270.28 167.21 269.28 165.75 268.28C159.38 263.92 138.06 242.28 122.8 249.33C122.38 252.61 126.62 259.1 127.13 262.33C127.58 265.26 125.23 268.03 122.46 269.08C119.69 270.13 116.63 269.86 113.69 269.55C105.25 268.67 96.84 269.61 88.35 269.41C68.53 268.96 56.2 254.69 57.35 247.25C58.4 241.1 73.97 229.7 109.61 225.29Z" fill="#FDB386"/>
<path d="M336.41 264.03L390.98 246.13L408.58 268.13L346.54 283.1L336.41 264.03Z" fill="#1A237E"/>
<path d="M73.53 259.05C72.7597 262.821 71.2062 266.388 68.97 269.52C66.4062 268.997 63.7537 269.103 61.24 269.83C57.46 270.83 53.74 272.83 50.24 274.68C41.7775 279.24 33.0748 283.339 24.17 286.96C22.52 287.65 20.8 288.31 19.05 288.87C16.83 280.12 13.17 272.11 9.67001 264.08C7.35099 258.958 5.29498 253.721 3.51001 248.39C2.73001 245.95 2.01001 243.48 1.45001 240.92C15.76 235.04 38.97 239.39 51.12 236.85C54.5448 236.073 57.9234 235.105 61.24 233.95C64.7681 232.686 68.3845 231.683 72.06 230.95C73.81 240.14 75.44 250.17 73.53 259.05Z" fill="#1A237E"/>
<path d="M73.53 259.05C72.7597 262.821 71.2062 266.388 68.97 269.52C62.5 268.08 56.09 271.52 50.27 274.68C41.8075 279.24 33.1048 283.339 24.2 286.96C22.55 287.65 20.83 288.31 19.08 288.87C16.86 280.12 13.2 272.11 9.70001 264.08C15.2397 266.02 21.1121 266.829 26.97 266.46C35.41 266.08 43.66 264.02 51.97 262.46C59.12 261.05 66.34 260.05 73.53 259.05Z" fill="url(#paint9_linear)"/>
<path d="M330.11 168.53L345.18 173.59C345.18 173.59 343.18 178.32 345.62 180.52C345.62 180.52 328.35 205.93 313.83 212.09C313.83 212.09 311.74 209.78 305.14 210.44L294.79 202.63C294.79 202.63 298.65 200.76 297.79 197.79C297.79 197.79 318.58 187.23 324.3 173.15C324.28 173.15 330.11 174.03 330.11 168.53Z" fill="url(#paint10_linear)"/>
<path d="M359.25 202.93L371.97 209.06C371.97 209.06 369.7 213.06 371.6 215.23C371.6 215.23 353.54 235.79 340.03 239.63C340.03 239.63 338.43 237.36 332.53 237.22L324.25 229.22C324.25 229.22 327.86 227.99 327.41 225.22C327.41 225.22 346.94 218.22 353.55 206.37C353.59 206.37 358.64 207.79 359.25 202.93Z" fill="url(#paint11_linear)"/>
<path d="M346.17 263.58L384.46 251.48C385.277 252.071 386.204 252.492 387.186 252.719C388.169 252.945 389.187 252.973 390.18 252.8L397.88 261.38C397.88 261.38 396.12 264.9 397.44 266.66L354.83 277.59C354.83 277.59 351.31 275.59 348.44 276.05L342.65 267.98C342.65 267.98 347.16 266.85 346.17 263.58Z" fill="url(#paint12_linear)"/>
<path d="M73.53 259.05C72.7597 262.821 71.2061 266.388 68.97 269.52C66.4062 268.997 63.7537 269.103 61.24 269.83V233.95C64.7681 232.686 68.3845 231.683 72.06 230.95C73.81 240.14 75.44 250.17 73.53 259.05Z" fill="url(#paint13_linear)"/>
<path d="M502.557 200.734L494.398 200.146C492.349 199.999 490.568 201.54 490.42 203.59L487.995 237.262C487.847 239.311 489.389 241.092 491.438 241.24L499.597 241.828C501.646 241.975 503.427 240.434 503.574 238.385L506 204.712C506.148 202.663 504.606 200.882 502.557 200.734Z" fill="#1A237E"/>
<path d="M502.557 200.734L494.398 200.146C492.349 199.999 490.568 201.54 490.42 203.59L487.995 237.262C487.847 239.311 489.389 241.092 491.438 241.24L499.597 241.828C501.646 241.975 503.427 240.434 503.574 238.385L506 204.712C506.148 202.663 504.606 200.882 502.557 200.734Z" fill="url(#paint14_linear)"/>
<path d="M496.34 234.1C503.448 234.1 509.21 228.338 509.21 221.23C509.21 214.122 503.448 208.36 496.34 208.36C489.232 208.36 483.47 214.122 483.47 221.23C483.47 228.338 489.232 234.1 496.34 234.1Z" fill="#1A237E"/>
<path d="M496.34 234.1C503.448 234.1 509.21 228.338 509.21 221.23C509.21 214.122 503.448 208.36 496.34 208.36C489.232 208.36 483.47 214.122 483.47 221.23C483.47 228.338 489.232 234.1 496.34 234.1Z" fill="url(#paint15_linear)"/>
<path d="M496.25 232.34C502.342 232.34 507.28 227.402 507.28 221.31C507.28 215.218 502.342 210.28 496.25 210.28C490.158 210.28 485.22 215.218 485.22 221.31C485.22 227.402 490.158 232.34 496.25 232.34Z" fill="#1A237E"/>
<path d="M496.25 232.34C502.342 232.34 507.28 227.402 507.28 221.31C507.28 215.218 502.342 210.28 496.25 210.28C490.158 210.28 485.22 215.218 485.22 221.31C485.22 227.402 490.158 232.34 496.25 232.34Z" fill="url(#paint16_linear)"/>
<path d="M473.38 157.12V153.43C471.407 153.429 469.474 152.875 467.8 151.83L468.67 149.39C470.25 150.408 472.09 150.95 473.97 150.95C476.56 150.95 478.31 149.46 478.31 147.38C478.31 145.3 476.88 144.13 474.19 143.04C470.46 141.58 468.19 139.9 468.19 136.73C468.19 133.56 470.34 131.4 473.69 130.85V127.17H475.96V130.71C477.623 130.72 479.255 131.157 480.7 131.98L479.79 134.39C478.4 133.562 476.808 133.133 475.19 133.15C472.38 133.15 471.32 134.83 471.32 136.29C471.32 138.19 472.67 139.13 475.85 140.45C479.6 141.98 481.5 143.88 481.5 147.12C481.5 150.01 479.5 152.7 475.74 153.32V157.12H473.38Z" fill="#1A237E"/>
<path d="M402.84 176.1V174.1C401.779 174.099 400.74 173.801 399.84 173.24L400.31 171.93C401.149 172.476 402.129 172.767 403.13 172.77C404.52 172.77 405.46 171.97 405.46 170.86C405.46 169.75 404.69 169.11 403.24 168.53C401.24 167.74 400.02 166.84 400.02 165.14C400.032 164.342 400.341 163.578 400.887 162.995C401.432 162.413 402.175 162.055 402.97 161.99V159.99H404.18V161.89C405.075 161.9 405.952 162.137 406.73 162.58L406.24 163.87C405.495 163.421 404.64 163.188 403.77 163.2C402.27 163.2 401.7 164.1 401.7 164.89C401.7 165.89 402.42 166.41 404.12 167.12C406.12 167.94 407.12 168.96 407.12 170.7C407.104 171.537 406.78 172.338 406.209 172.951C405.639 173.563 404.863 173.944 404.03 174.02V176.02L402.84 176.1Z" fill="#1A237E"/>
<path d="M470.08 274.72V272.72C469.02 272.717 467.981 272.419 467.08 271.86L467.55 270.55C468.39 271.095 469.369 271.386 470.37 271.39C471.76 271.39 472.7 270.59 472.7 269.47C472.7 268.35 471.93 267.73 470.49 267.14C468.49 266.36 467.26 265.46 467.26 263.76C467.27 262.96 467.578 262.193 468.123 261.609C468.669 261.024 469.413 260.665 470.21 260.6V258.6H471.43V260.5C472.32 260.508 473.194 260.742 473.97 261.18L473.48 262.47C472.735 262.031 471.885 261.803 471.02 261.81C469.51 261.81 468.94 262.71 468.94 263.49C468.94 264.49 469.66 265.02 471.37 265.72C473.37 266.54 474.37 267.56 474.37 269.3C474.356 270.138 474.033 270.942 473.463 271.557C472.892 272.171 472.115 272.554 471.28 272.63V274.63L470.08 274.72Z" fill="#1A237E"/>
</g>
<defs>
<linearGradient id="paint0_linear" x1="169.54" y1="253.24" x2="172.14" y2="486.54" gradientUnits="userSpaceOnUse">
<stop stop-color="#010101" stop-opacity="0"/>
<stop offset="0.95" stop-color="#010101"/>
</linearGradient>
<linearGradient id="paint1_linear" x1="72004.7" y1="8765.89" x2="72028.7" y2="19684.4" gradientUnits="userSpaceOnUse">
<stop stop-color="#010101" stop-opacity="0"/>
<stop offset="0.95" stop-color="#010101"/>
</linearGradient>
<linearGradient id="paint2_linear" x1="7851.44" y1="6851.73" x2="7552.67" y2="5456.65" gradientUnits="userSpaceOnUse">
<stop stop-color="#010101" stop-opacity="0"/>
<stop offset="0.95" stop-color="#010101"/>
</linearGradient>
<linearGradient id="paint3_linear" x1="28687.3" y1="9987.97" x2="28569" y2="12593.8" gradientUnits="userSpaceOnUse">
<stop stop-color="#010101" stop-opacity="0"/>
<stop offset="0.95" stop-color="#010101"/>
</linearGradient>
<linearGradient id="paint4_linear" x1="25196.3" y1="29909.5" x2="23298.4" y2="20867" gradientUnits="userSpaceOnUse">
<stop stop-color="#010101" stop-opacity="0"/>
<stop offset="0.95" stop-color="#010101"/>
</linearGradient>
<linearGradient id="paint5_linear" x1="24363.6" y1="25991.7" x2="10640.4" y2="16897.8" gradientUnits="userSpaceOnUse">
<stop stop-color="#010101" stop-opacity="0"/>
<stop offset="0.95" stop-color="#010101"/>
</linearGradient>
<linearGradient id="paint6_linear" x1="6062.04" y1="5663.9" x2="5848.2" y2="6207" gradientUnits="userSpaceOnUse">
<stop stop-color="#010101" stop-opacity="0"/>
<stop offset="0.95" stop-color="#010101"/>
</linearGradient>
<linearGradient id="paint7_linear" x1="57804.7" y1="9679.97" x2="57724.3" y2="11644.6" gradientUnits="userSpaceOnUse">
<stop stop-color="#010101" stop-opacity="0"/>
<stop offset="0.95" stop-color="#010101"/>
</linearGradient>
<linearGradient id="paint8_linear" x1="67648.2" y1="8144.5" x2="67681.2" y2="17179.1" gradientUnits="userSpaceOnUse">
<stop stop-color="#010101" stop-opacity="0"/>
<stop offset="0.95" stop-color="#010101"/>
</linearGradient>
<linearGradient id="paint9_linear" x1="2827.79" y1="8506.66" x2="3021.59" y2="11154.5" gradientUnits="userSpaceOnUse">
<stop stop-color="#010101" stop-opacity="0"/>
<stop offset="0.95" stop-color="#010101"/>
</linearGradient>
<linearGradient id="paint10_linear" x1="15762.4" y1="8130.43" x2="18711.5" y2="12448" gradientUnits="userSpaceOnUse">
<stop stop-color="#010101" stop-opacity="0"/>
<stop offset="0.95" stop-color="#010101"/>
</linearGradient>
<linearGradient id="paint11_linear" x1="16310" y1="7901.85" x2="17961.6" y2="11547.8" gradientUnits="userSpaceOnUse">
<stop stop-color="#010101" stop-opacity="0"/>
<stop offset="0.95" stop-color="#010101"/>
</linearGradient>
<linearGradient id="paint12_linear" x1="20701" y1="6967.23" x2="20929.1" y2="9608.46" gradientUnits="userSpaceOnUse">
<stop stop-color="#010101" stop-opacity="0"/>
<stop offset="0.95" stop-color="#010101"/>
</linearGradient>
<linearGradient id="paint13_linear" x1="1043.8" y1="9636.41" x2="-339.631" y2="12106.5" gradientUnits="userSpaceOnUse">
<stop stop-color="#010101" stop-opacity="0"/>
<stop offset="0.95" stop-color="#010101"/>
</linearGradient>
<linearGradient id="paint14_linear" x1="7991.94" y1="9724.18" x2="8648.38" y2="9824.91" gradientUnits="userSpaceOnUse">
<stop stop-color="#010101" stop-opacity="0"/>
<stop offset="0.95" stop-color="#010101"/>
</linearGradient>
<linearGradient id="paint15_linear" x1="13259.3" y1="4863.44" x2="13259.3" y2="6528.56" gradientUnits="userSpaceOnUse">
<stop stop-color="#010101" stop-opacity="0"/>
<stop offset="0.95" stop-color="#010101"/>
</linearGradient>
<linearGradient id="paint16_linear" x1="485.23" y1="221.31" x2="507.28" y2="221.31" gradientUnits="userSpaceOnUse">
<stop stop-color="white" stop-opacity="0"/>
<stop offset="0.13" stop-color="white" stop-opacity="0.23"/>
<stop offset="0.23" stop-color="white" stop-opacity="0.41"/>
<stop offset="0.35" stop-color="white" stop-opacity="0.59"/>
<stop offset="0.48" stop-color="white" stop-opacity="0.74"/>
<stop offset="0.6" stop-color="white" stop-opacity="0.85"/>
<stop offset="0.72" stop-color="white" stop-opacity="0.93"/>
<stop offset="0.84" stop-color="white" stop-opacity="0.98"/>
<stop offset="0.95" stop-color="white"/>
</linearGradient>
<clipPath id="clip0">
<rect width="559.39" height="440.09" fill="white"/>
</clipPath>
</defs>
</svg>
