<svg width="424" height="312" viewBox="0 0 424 312" fill="none" xmlns="http://www.w3.org/2000/svg">
<g clip-path="url(#clip0)">
<path opacity="0.18" d="M26.798 267.999C-8.38196 242.519 0.348044 181.669 2.63804 162.069C3.90804 151.279 6.55804 140.489 12.018 131.249C27.748 104.609 61.248 97.8788 86.008 80.4288C113.558 61.1189 131.098 27.8089 160.748 12.3089C177.068 3.77885 195.658 1.46885 213.868 0.448851C246.928 -1.41115 283.108 1.71885 307.678 25.0589C325.448 41.9389 334.308 66.8488 350.098 85.7788C364.018 102.479 382.818 113.929 397.388 130.009C419.028 153.869 430.088 190.379 418.388 220.959C407.518 249.289 390.878 267.879 382.248 270.679C354.548 279.679 294.008 280.769 265.038 282.829C233.988 285.029 206.038 280.209 174.928 280.309C126.928 280.469 61.438 283.119 26.838 267.959" fill="#1A237E"/>
<path d="M295.84 177.56C295.84 177.56 300.34 188.89 276.71 195.91C253.08 202.93 240.11 230.7 240.62 254.06V269.12C240.62 269.12 314.1 296.12 376.41 271.2C376.41 271.2 382.41 208.11 339.81 193.31C339.81 193.31 330.98 190.71 333.57 180.31C333.57 180.31 353.83 168.88 350.19 138.76C346.55 108.64 334.98 99.29 323.02 98.61C274.72 95.86 274.55 159.21 295.84 177.56Z" fill="#F7AF87"/>
<path d="M382.25 270.68C382.25 270.68 383.15 226.68 375.84 211.74C369.67 199.11 353.75 195.87 340.31 191.74C339.563 191.462 338.764 191.352 337.97 191.42C336.988 191.672 336.082 192.159 335.33 192.84C328.023 198.339 318.95 200.958 309.837 200.201C300.724 199.443 292.208 195.36 285.91 188.73C269.79 193.64 257.18 193.54 248.72 208.12C240.26 222.7 236.07 251.17 237.66 267.95C237.62 267.96 310.25 297.39 382.25 270.68Z" fill="#1A237E"/>
<path d="M254.69 208.53C254.69 208.53 266.89 196.02 271.8 195.96C276.71 195.9 306.8 281.25 306.8 281.25L261.89 279.11L254.69 208.53Z" fill="url(#paint0_linear)"/>
<path d="M281 103.27C283.81 93.93 290.79 85.27 300.3 83.1C303.14 82.45 306.07 82.4 308.93 81.85C310.67 81.51 312.37 81 314.09 80.57C321.142 78.7101 328.564 78.7791 335.58 80.77C342.623 82.8122 348.662 87.3897 352.53 93.62C356.05 99.62 357.04 106.78 356.53 113.7C356.02 120.62 352.01 132.88 350.12 139.55C346.76 135.15 349 122.67 344.3 119.73C340.96 117.64 336.66 118.59 332.77 119.25C323.748 120.8 314.503 120.46 305.62 118.25C301.41 117.19 297.09 115.71 292.84 116.57C289.15 117.31 287.84 120.14 285.84 123.28C284.42 125.45 283.57 136.28 282.36 138.39C279.54 137.39 278.99 120.23 279.02 117.76C278.998 112.861 279.664 107.983 281 103.27Z" fill="#404040"/>
<path d="M352.74 136.67C353.188 136.244 353.717 135.914 354.297 135.699C354.876 135.484 355.493 135.389 356.11 135.42C356.581 135.522 357.024 135.729 357.405 136.025C357.785 136.321 358.095 136.698 358.31 137.13C358.735 137.996 358.967 138.945 358.99 139.91C359.219 143.767 357.959 147.565 355.47 150.52C354.1 152.12 352.06 153.52 350.01 153.03C349.599 152.957 349.222 152.758 348.93 152.46C348.706 152.18 348.543 151.856 348.45 151.51C347.652 148.485 347.597 145.311 348.29 142.26C348.52 140.93 348.65 139.63 349.77 138.77C350.7 138.05 351.78 137.39 352.74 136.67Z" fill="#F7AF87"/>
<path d="M148.25 182.44C149.83 182.18 151.55 181.83 152.58 180.61C153.333 179.526 153.759 178.249 153.81 176.93C155.74 162.42 161.11 119.67 146.81 95.17C144.81 91.67 139.65 90.86 136.87 88.17C130.35 81.77 122 74.01 110.46 74.09C82.8 74.28 70.21 87.97 58.88 113.21C52 128.52 49.88 174.89 55.58 179.38C61.58 184.11 77.38 183.73 84.82 184.47C105.962 186.555 127.285 185.872 148.25 182.44Z" fill="#404040"/>
<path d="M136.5 111.21C137.026 110.489 137.71 109.897 138.5 109.48C140.83 108.34 143.65 109.68 145.5 111.48C147.834 113.942 149.458 116.99 150.2 120.3C150.91 123.585 151.246 126.94 151.2 130.3C151.26 134.427 151.133 138.553 150.82 142.68C150.5 148.75 149.232 154.733 147.06 160.41C144.73 166.02 140.92 171.15 135.7 174.24C131.82 160.36 131.46 145.78 131.13 131.38C131.07 129.09 131.02 126.81 131.07 124.53C131.07 123.63 130.82 121.89 131.25 121.09C131.68 120.29 132.45 120.45 133.15 119.92C134.26 119.09 134.07 117.55 134.32 116.29C134.707 114.47 135.447 112.744 136.5 111.21Z" fill="url(#paint1_linear)"/>
<path d="M63.25 140.79C62.2319 140.93 61.2618 141.311 60.42 141.9C59.7028 142.543 59.1448 143.344 58.79 144.24C57.2117 147.709 56.4794 151.503 56.6532 155.31C56.8271 159.118 57.9021 162.829 59.79 166.14C59.79 166.14 64.5 161.09 64.91 160.57C66.5321 158.464 67.9707 156.222 69.21 153.87C70.34 151.72 76.27 141.75 73.28 140.52C71.39 139.75 65.53 140.31 63.25 140.79Z" fill="url(#paint2_linear)"/>
<path d="M70.02 177.56C67.83 172.49 68.27 166.7 69.02 161.23C69.69 156.47 70.66 151.57 73.45 147.66C76.0478 144.228 79.6199 141.66 83.7 140.29C87.7562 138.944 91.9801 138.17 96.25 137.99C102.384 137.57 108.543 137.67 114.66 138.29C118.965 138.582 123.191 139.596 127.16 141.29C132.56 143.931 136.863 148.383 139.32 153.87C141.741 159.353 142.563 165.41 141.69 171.34C141.493 173.892 140.578 176.336 139.05 178.39C137.26 180.224 135.002 181.531 132.52 182.17C123.52 185.05 113.98 184.83 104.66 184.46C96.93 184.16 89.12 184.6 81.51 183.1C77.05 182.23 72.06 182.3 70.02 177.56Z" fill="url(#paint3_linear)"/>
<path d="M165.6 271.19C103.25 296.12 29.81 269.11 29.81 269.11V254.11C29.25 230.69 42.25 202.91 65.9 195.91C89.55 188.91 87.9 180.72 87.9 180.72C66.62 162.38 63.9 95.87 112.23 98.63C124.23 99.31 135.78 108.63 139.4 138.79C143.02 168.95 119.4 182.12 119.4 182.12C119.082 183.601 119.195 185.142 119.727 186.56C120.259 187.978 121.187 189.214 122.4 190.12C124.358 191.629 126.604 192.722 129 193.33C171.55 208.1 165.6 271.19 165.6 271.19Z" fill="#F7AF87"/>
<path d="M85.96 142.61C95.38 142.61 104.9 141.26 113.53 137.5C122.16 133.74 129.85 127.39 134.25 119.08C135.735 116.472 136.594 113.556 136.76 110.56C136.87 104.9 133.28 99.61 128.51 96.56C123.74 93.51 117.97 92.41 112.32 92.17C100.15 91.66 87.58 95.09 78.32 103C74.4828 106.258 71.3508 110.264 69.1155 114.775C66.8802 119.285 65.5887 124.203 65.32 129.23C64.87 140.21 76.98 142.6 85.96 142.61Z" fill="#404040"/>
<path d="M171.39 270.68C171.39 270.68 166.64 234.77 159.33 219.8C153.16 207.17 142.88 195.87 129.44 191.75C128.693 191.471 127.894 191.362 127.1 191.43C126.12 191.68 125.217 192.168 124.47 192.85C117.163 198.349 108.09 200.968 98.9769 200.211C89.8639 199.453 81.3478 195.37 75.05 188.74C58.9425 193.729 45.32 204.629 36.92 219.25C28.46 233.82 25.25 251.18 26.8 267.96C26.8 267.96 99.38 297.39 171.39 270.68Z" fill="#1A237E"/>
<path d="M119.55 280.18C119.55 280.18 91.88 283.25 86.26 280.44C86.26 280.44 100.26 205.19 133.58 194.36C133.58 194.36 148.02 196.76 159.33 219.8C162.62 226.49 119.55 280.18 119.55 280.18Z" fill="url(#paint4_linear)"/>
<path d="M119.63 295.95V250.39C119.63 250.39 130.54 209.39 168.45 204.69C206.36 199.99 247.38 206.25 247.38 206.25C247.38 206.25 287.38 211.44 294.63 260.77V299.72C294.63 299.72 193.89 328.84 119.63 295.95Z" fill="#1A237E"/>
<path d="M169.83 151.79C168.21 150.79 166.22 150.1 164.44 150.79C163.703 151.079 163.043 151.534 162.51 152.12C159.7 155.12 159.86 159.79 160.75 163.79C161.245 166.035 161.914 168.238 162.75 170.38C163.098 171.373 163.601 172.304 164.24 173.14C166.24 175.51 169.74 175.83 172.82 175.47C174.64 175.26 176.67 174.71 177.5 173.07C177.786 172.44 177.949 171.761 177.98 171.07C178.81 162.98 176.91 156.07 169.83 151.79Z" fill="#F7AF87"/>
<path d="M246.09 155.07C248.36 153.49 251.31 152.27 253.86 153.37C254.858 153.874 255.706 154.631 256.322 155.564C256.937 156.497 257.299 157.574 257.37 158.69C257.485 160.921 257.096 163.15 256.23 165.21C255.352 167.856 253.977 170.309 252.18 172.44C250.355 174.576 247.775 175.923 244.98 176.2C243.59 176.308 242.197 176.018 240.966 175.362C239.735 174.707 238.716 173.714 238.03 172.5C237.351 170.878 237.037 169.127 237.11 167.37C236.985 166.02 237.139 164.659 237.56 163.37C238.66 160.62 243.76 156.69 246.09 155.07Z" fill="#F7AF87"/>
<path d="M183.76 209.1C182.872 210.626 182.352 212.338 182.24 214.1C182.306 215.136 182.556 216.152 182.98 217.1C186.64 226.1 194.22 230.64 201.53 232.74C203.724 233.424 206.003 233.797 208.3 233.85C215.2 233.85 222.02 229.11 226.17 221.46C226.413 221.068 226.566 220.628 226.62 220.17C226.597 219.575 226.429 218.995 226.13 218.48C223.55 212.92 224.02 205.75 224.7 199.22C224.804 198.68 224.769 198.123 224.6 197.6C224.498 197.402 224.356 197.226 224.185 197.083C224.013 196.94 223.814 196.834 223.6 196.77C219.13 194.89 214.33 196.06 209.6 195.88C203.1 195.64 196.8 192.65 190.29 192.64C187.39 192.64 187.17 193.72 186.76 197.35C186.399 201.403 185.386 205.37 183.76 209.1Z" fill="#F7AF87"/>
<path d="M183.84 190.39C183.84 190.39 187.59 205.09 196.68 214.72C205.77 224.35 227.29 222.51 224.75 213.91C222.61 206.7 226.62 190.39 226.62 190.39H183.84Z" fill="url(#paint5_linear)"/>
<path d="M280.94 136.12C279.94 135.12 278.77 134.12 277.36 134.03C276.809 134.031 276.265 134.156 275.768 134.394C275.272 134.633 274.835 134.98 274.49 135.41C273.802 136.282 273.344 137.314 273.16 138.41C272.687 141.066 272.897 143.798 273.77 146.35C274.77 149.47 276.56 152.63 279.6 153.82C280.123 154.072 280.703 154.186 281.283 154.149C281.862 154.112 282.423 153.927 282.91 153.61C283.564 152.954 283.971 152.092 284.06 151.17C285.25 145.28 285.44 140.5 280.94 136.12Z" fill="#F7AF87"/>
<path d="M243.74 162.67C240.87 186.78 227.47 206.67 207.39 206.67C187.31 206.67 171.04 186.98 171.04 162.67C171.04 138.36 183.95 110.95 204.04 110.95C224.13 110.95 249.61 113.39 243.74 162.67Z" fill="#F7AF87"/>
<path d="M165.56 154.72C164.227 145.18 163.35 135.587 162.93 125.94C162.75 121.69 162.82 116.94 165.67 113.81C166.421 113.125 167.092 112.356 167.67 111.52C168.144 110.447 168.405 109.292 168.44 108.12C169.52 99.01 176.11 91.4 183.67 86.21C191.954 80.5374 201.559 77.0935 211.56 76.21C214.776 75.8604 218.026 75.9986 221.2 76.62C224.391 77.3988 227.455 78.6278 230.3 80.27C234.82 82.72 239.17 85.68 242.38 89.69C245.59 93.7 247.56 98.91 246.88 104C249.083 104.943 251.063 106.34 252.688 108.102C254.313 109.863 255.547 111.948 256.31 114.22C257.784 118.934 258.254 123.904 257.69 128.81C256.69 140.49 252.25 152.48 242.93 159.58C243.08 151.414 241.269 143.331 237.65 136.01C236.266 133.515 235.007 130.951 233.88 128.33C232.818 125.524 232.302 122.54 232.36 119.54C228.46 121.62 226.17 125.88 222.49 128.34C220.137 129.766 217.528 130.72 214.81 131.15C206.063 132.877 197.035 132.563 188.43 130.23C185.03 129.31 180.7 128.35 178.56 131.15C177.23 132.88 177.46 135.28 177.28 137.46C176.984 139.836 176.41 142.168 175.57 144.41L170.27 160.41C168.47 158.88 165.9 157.07 165.56 154.72Z" fill="#404040"/>
<path d="M122.56 190.55C105.75 201.32 94.04 183.06 93.5 182.15C97.4479 184.359 101.896 185.519 106.42 185.519C110.944 185.519 115.392 184.359 119.34 182.15C119.022 183.631 119.135 185.172 119.667 186.59C120.199 188.008 121.127 189.244 122.34 190.15L122.56 190.55Z" fill="url(#paint6_linear)"/>
<path d="M280.79 146.95C280.09 146.04 279.35 144.95 279.69 143.83C280.03 142.71 281.21 142.13 281.22 141.05C281.197 140.743 281.11 140.445 280.963 140.174C280.817 139.903 280.614 139.667 280.37 139.48C279.795 138.951 279.059 138.63 278.28 138.57C278.012 138.55 277.744 138.609 277.51 138.74C277.245 138.931 277.046 139.201 276.94 139.51C275.77 142.13 276.16 145.21 277.19 147.89C277.363 148.399 277.631 148.871 277.98 149.28C278.473 149.73 279.071 150.05 279.72 150.21C280.72 150.53 281.9 150.54 282.13 149.29C282.3 148.39 281.25 147.59 280.79 146.95Z" fill="url(#paint7_linear)"/>
<path d="M352 147.15C352.7 146.24 353.44 145.15 353.1 144.03C352.76 142.91 351.58 142.33 351.56 141.25C351.585 140.943 351.675 140.644 351.823 140.374C351.971 140.103 352.175 139.867 352.42 139.68C352.993 139.147 353.73 138.826 354.51 138.77C354.775 138.75 355.039 138.809 355.27 138.94C355.538 139.131 355.74 139.4 355.85 139.71C357.01 142.33 356.62 145.41 355.59 148.09C355.435 148.677 355.116 149.207 354.669 149.618C354.223 150.029 353.668 150.304 353.07 150.41C352.07 150.73 350.89 150.74 350.65 149.49C350.49 148.61 351.5 147.79 352 147.15Z" fill="url(#paint8_linear)"/>
<path d="M243.8 166.14C244.907 166.267 246.023 165.998 246.95 165.38C247.435 165.151 247.857 164.808 248.18 164.38C249 163.09 248.1 161.3 248.69 159.9C248.981 159.391 249.386 158.956 249.874 158.629C250.361 158.303 250.918 158.095 251.5 158.02C251.909 157.884 252.351 157.884 252.76 158.02C253.065 158.225 253.311 158.506 253.472 158.837C253.634 159.167 253.705 159.533 253.68 159.9C253.883 163.069 252.867 166.196 250.84 168.64C249.825 169.842 248.577 170.825 247.171 171.53C245.765 172.235 244.23 172.646 242.66 172.74C242.5 172.762 242.337 172.738 242.19 172.67C242.029 172.562 241.915 172.398 241.87 172.21C241.552 171.306 241.478 170.334 241.653 169.392C241.829 168.449 242.248 167.569 242.87 166.84" fill="url(#paint9_linear)"/>
<path d="M165.41 162.01C165.87 162.78 166.8 163.08 167.57 163.53C168.341 163.994 168.981 164.645 169.432 165.423C169.883 166.201 170.13 167.081 170.15 167.98C170.208 168.573 170.075 169.169 169.769 169.681C169.463 170.192 169 170.591 168.45 170.82C167.34 171.13 166.23 170.34 165.45 169.49C164.443 168.368 163.666 167.058 163.165 165.636C162.664 164.213 162.448 162.706 162.53 161.2C162.59 160.2 163.02 157.68 164.62 158.2C165.9 158.65 164.79 160.97 165.41 162.01Z" fill="url(#paint10_linear)"/>
<path d="M169.02 131.44C167.95 132.923 167.316 134.676 167.19 136.5C166.988 139.136 167.082 141.785 167.47 144.4L168.98 157.99C170.86 151.49 175.3 145.82 176.31 139.13C176.63 137 176.57 134.78 177.25 132.72C177.55 131.82 179.33 129.6 178.67 128.72C178.01 127.84 174.22 128.54 173.23 128.82C171.589 129.236 170.118 130.152 169.02 131.44Z" fill="url(#paint11_linear)"/>
<path d="M243.69 108.75C243.841 108.664 244.017 108.629 244.19 108.65C244.41 108.7 244.54 108.91 244.66 109.11C246.96 113.04 249.3 117.05 250.31 121.5C250.834 123.96 251.046 126.477 250.94 128.99C250.683 137.443 248.068 145.655 243.39 152.7C242.45 149.59 242.55 146.25 241.8 143.08C240.8 138.78 238.29 135.01 236.1 131.17C234.1 127.67 230.61 121.76 233.15 117.94C235.673 113.898 239.342 110.699 243.69 108.75Z" fill="url(#paint12_linear)"/>
<path d="M295.84 177.56C295.84 177.56 301.53 184.5 313.91 184.87C327.27 185.27 333.57 180.33 333.57 180.33C333.57 180.33 327.68 193.33 312.97 196.23C303.66 198.09 293.19 194.09 291.32 189.23C291.32 189.28 297.42 183.61 295.84 177.56Z" fill="url(#paint13_linear)"/>
<path d="M184.11 205.32C184.11 205.32 187.72 222.56 200.55 226.57C213.38 230.58 224.21 217.75 224.61 209.33C225.01 200.91 227.02 203.33 227.02 203.33L230.23 205.33V237.01L205.77 233.39L181.71 240.21C181.71 240.21 175.29 211.33 178.9 203.31" fill="#1A237E"/>
</g>
<defs>
<linearGradient id="paint0_linear" x1="215.67" y1="211.17" x2="434.13" y2="323.53" gradientUnits="userSpaceOnUse">
<stop stop-opacity="0"/>
<stop offset="0.99"/>
</linearGradient>
<linearGradient id="paint1_linear" x1="128.15" y1="149.84" x2="161.94" y2="120.37" gradientUnits="userSpaceOnUse">
<stop stop-opacity="0"/>
<stop offset="0.6" stop-opacity="0.36"/>
<stop offset="0.99"/>
</linearGradient>
<linearGradient id="paint2_linear" x1="1189.33" y1="5404.94" x2="1301.04" y2="4428.31" gradientUnits="userSpaceOnUse">
<stop stop-opacity="0"/>
<stop offset="0.99"/>
</linearGradient>
<linearGradient id="paint3_linear" x1="7914.26" y1="8523.58" x2="7878.34" y2="11065.5" gradientUnits="userSpaceOnUse">
<stop stop-opacity="0"/>
<stop offset="0.99"/>
</linearGradient>
<linearGradient id="paint4_linear" x1="6220.89" y1="22954.8" x2="16449.4" y2="27370.5" gradientUnits="userSpaceOnUse">
<stop stop-opacity="0"/>
<stop offset="0.99"/>
</linearGradient>
<linearGradient id="paint5_linear" x1="8398.03" y1="8187.48" x2="9478.28" y2="6059.26" gradientUnits="userSpaceOnUse">
<stop stop-opacity="0"/>
<stop offset="0.99"/>
</linearGradient>
<linearGradient id="paint6_linear" x1="3159.91" y1="3001.19" x2="3199.74" y2="2544.71" gradientUnits="userSpaceOnUse">
<stop stop-opacity="0"/>
<stop offset="0.99"/>
</linearGradient>
<linearGradient id="paint7_linear" x1="1906.52" y1="2288.89" x2="2013.67" y2="2291.57" gradientUnits="userSpaceOnUse">
<stop stop-opacity="0"/>
<stop offset="0.99"/>
</linearGradient>
<linearGradient id="paint8_linear" x1="9185.49" y1="2291.48" x2="9078.33" y2="2294.16" gradientUnits="userSpaceOnUse">
<stop stop-opacity="0"/>
<stop offset="0.99"/>
</linearGradient>
<linearGradient id="paint9_linear" x1="3356.63" y1="3222.07" x2="2997.74" y2="3091.21" gradientUnits="userSpaceOnUse">
<stop stop-opacity="0"/>
<stop offset="0.99"/>
</linearGradient>
<linearGradient id="paint10_linear" x1="1408.36" y1="2763.19" x2="1548.42" y2="2720.93" gradientUnits="userSpaceOnUse">
<stop stop-opacity="0"/>
<stop offset="0.99"/>
</linearGradient>
<linearGradient id="paint11_linear" x1="2249.44" y1="5880.77" x2="1823.16" y2="5151.42" gradientUnits="userSpaceOnUse">
<stop stop-opacity="0"/>
<stop offset="0.6" stop-opacity="0.36"/>
<stop offset="0.99"/>
</linearGradient>
<linearGradient id="paint12_linear" x1="5079.06" y1="6728.07" x2="4093.4" y2="7196.57" gradientUnits="userSpaceOnUse">
<stop stop-opacity="0"/>
<stop offset="0.6" stop-opacity="0.36"/>
<stop offset="0.99"/>
</linearGradient>
<linearGradient id="paint13_linear" x1="13758.9" y1="4914.46" x2="13593.1" y2="3260.27" gradientUnits="userSpaceOnUse">
<stop stop-opacity="0"/>
<stop offset="0.99"/>
</linearGradient>
<clipPath id="clip0">
<rect width="423.12" height="311.63" fill="white"/>
</clipPath>
</defs>
</svg>
