<svg width="419" height="110" viewBox="0 0 419 110" fill="none" xmlns="http://www.w3.org/2000/svg">
<g clip-path="url(#clip0)">
<path opacity="0.18" d="M109.86 54.96C109.799 69.4473 103.993 83.3188 93.717 93.5306C83.4406 103.742 69.5328 109.46 55.0454 109.43C40.5581 109.399 26.6744 103.623 16.4411 93.3681C6.20769 83.1132 0.460449 69.2174 0.460449 54.73C0.460449 40.2426 6.20769 26.3469 16.4411 16.092C26.6744 5.83705 40.5581 0.0606084 55.0454 0.0301504C69.5328 -0.00030772 83.4406 5.71771 93.717 15.9295C103.993 26.1413 109.799 40.0127 109.86 54.5V54.96Z" fill="#1A237E"/>
<path d="M39 39.83C38.5093 39.4696 37.9187 39.2704 37.31 39.26C36.9526 39.298 36.6096 39.4215 36.31 39.62C35.7514 40.0064 35.3005 40.5285 34.9995 41.1374C34.6986 41.7462 34.5577 42.4216 34.59 43.1C34.6763 44.4673 35.243 45.76 36.19 46.75C36.5374 47.1863 36.9721 47.5451 37.4664 47.8034C37.9606 48.0618 38.5035 48.2139 39.06 48.25C39.2563 48.2594 39.4511 48.2107 39.62 48.11C39.7575 47.9681 39.8626 47.798 39.9282 47.6116C39.9938 47.4252 40.0183 47.2268 40 47.03C40.08 45.56 40.17 44.03 40.25 42.61C40.33 41.19 40.36 40.69 39 39.83Z" fill="#F7AF87"/>
<path d="M70.8901 39.8C71.3757 39.4384 71.9646 39.2421 72.5701 39.24C72.9298 39.2676 73.2753 39.392 73.5701 39.6C74.1213 39.9817 74.5676 40.4959 74.8682 41.0953C75.1687 41.6946 75.3138 42.3599 75.2901 43.03C75.2183 44.391 74.6695 45.6832 73.7401 46.68C73.3927 47.1163 72.9579 47.4751 72.4636 47.7334C71.9694 47.9917 71.4266 48.1439 70.8701 48.18C70.6742 48.185 70.4806 48.1366 70.3101 48.04C70.1743 47.9101 70.0675 47.753 69.9968 47.5789C69.9262 47.4048 69.8932 47.2178 69.9001 47.03C69.8101 45.56 69.7301 44.03 69.6401 42.61C69.5501 41.19 69.5301 40.66 70.8901 39.8Z" fill="#F7AF87"/>
<path d="M93.58 92.4V94.03C83.2946 104.215 69.4048 109.928 54.93 109.928C40.4552 109.928 26.5654 104.215 16.28 94.03V87.82C16.28 87.82 21.1 69.7 37.85 67.64C54.6 65.58 72.71 68.32 72.71 68.32C72.71 68.32 90.38 70.62 93.58 92.4Z" fill="#1A237E"/>
<path d="M44.6099 66.03C44.2202 66.6983 43.9908 67.448 43.9399 68.22C43.969 68.6764 44.0808 69.1236 44.2699 69.54C45.0076 71.2457 46.1313 72.7569 47.5525 73.9543C48.9738 75.1517 50.6537 76.0026 52.4599 76.44C53.4321 76.7429 54.4419 76.9078 55.4599 76.93C58.4599 76.93 61.5199 74.84 63.3499 71.46C63.4604 71.2883 63.529 71.093 63.5499 70.89C63.5404 70.6269 63.4684 70.3698 63.3399 70.14C62.1999 67.69 62.3999 64.52 62.7099 61.64C62.7487 61.3993 62.7316 61.153 62.6599 60.92C62.5677 60.7496 62.4139 60.6208 62.2299 60.56C60.2299 59.73 58.1299 60.24 56.0699 60.16C53.1999 60.05 50.4099 58.74 47.5399 58.73C46.2599 58.73 46.1599 59.21 45.9799 60.81C45.8065 62.6123 45.3439 64.3748 44.6099 66.03Z" fill="#F7AF87"/>
<path d="M44.65 57.74C44.65 57.74 46.3 64.23 50.32 68.48C54.34 72.73 63.84 71.92 62.72 68.13C61.72 64.94 63.54 57.74 63.54 57.74H44.65Z" fill="url(#paint0_linear)"/>
<path d="M71.1 45.51C69.84 56.16 63.92 64.93 55.1 64.93C46.28 64.93 39 56.24 39 45.51C39 34.78 44.7 22.67 53.56 22.67C62.42 22.67 73.7 23.73 71.1 45.51Z" fill="#F7AF87"/>
<path d="M35.41 29.29C35.33 27.41 35.41 25.29 36.62 23.93C36.9472 23.628 37.2421 23.2929 37.5 22.93C37.7081 22.4563 37.8235 21.9471 37.84 21.43C38.32 17.43 41.23 14.04 44.57 11.75C48.2317 9.25166 52.4741 7.73651 56.89 7.35C58.3111 7.1996 59.7466 7.26026 61.15 7.53C62.5514 7.87892 63.8976 8.42076 65.15 9.14C67.1887 10.1624 69.0039 11.5799 70.49 13.31C71.2273 14.1773 71.784 15.183 72.1274 16.2683C72.4708 17.3535 72.5941 18.4965 72.49 19.63C73.4628 20.0449 74.3366 20.6614 75.0537 21.4388C75.7708 22.2162 76.3148 23.1369 76.65 24.14C77.3014 26.2204 77.5092 28.4143 77.26 30.58C76.83 35.74 74.86 41.04 70.74 44.17C70.809 40.5666 70.0098 36.9995 68.41 33.77C67.85 32.64 67.19 31.55 66.74 30.37C66.2788 29.1292 66.0516 27.8136 66.07 26.49C64.35 27.41 63.34 29.29 61.71 30.38C60.6712 31.0094 59.5197 31.4305 58.32 31.62C54.4567 32.38 50.4703 32.2397 46.67 31.21C45.17 30.8 43.26 30.38 42.31 31.62C41.8587 32.4733 41.6609 33.4379 41.74 34.4C41.6142 35.4455 41.3659 36.4726 41 37.46L38.65 44.53C37.86 43.84 35.59 33.54 35.41 29.29Z" fill="#404040"/>
<path d="M37.64 44.46C37.5424 43.8274 37.3573 43.2115 37.09 42.63C37.0319 42.5154 36.9367 42.4238 36.82 42.37C36.7337 42.3458 36.642 42.3492 36.5578 42.3797C36.4735 42.4102 36.4009 42.4662 36.35 42.54C36.2405 42.6824 36.1715 42.8517 36.15 43.03C36.0225 43.728 36.077 44.4471 36.3082 45.118C36.5394 45.7888 36.9395 46.3888 37.47 46.86C37.6459 47.0265 37.8582 47.1498 38.09 47.22C38.2062 47.25 38.3281 47.2491 38.4439 47.2176C38.5596 47.186 38.6651 47.1248 38.75 47.04C39.61 46.08 37.87 45.32 37.64 44.46Z" fill="url(#paint1_linear)"/>
<path d="M72.34 43.97C72.428 43.3333 72.61 42.7133 72.88 42.13C72.944 42.0224 73.0378 41.9356 73.15 41.88C73.237 41.8605 73.3276 41.8651 73.4122 41.8933C73.4968 41.9214 73.5721 41.9722 73.63 42.04C73.7411 42.1852 73.8103 42.3582 73.83 42.54C73.9563 43.2389 73.9003 43.9585 73.6673 44.6294C73.4343 45.3003 73.0323 45.8998 72.5 46.37C72.3293 46.5382 72.1198 46.6619 71.89 46.73C71.7738 46.76 71.6518 46.7591 71.5361 46.7275C71.4204 46.696 71.3148 46.6348 71.23 46.55C70.37 45.57 72.1 44.81 72.34 43.97Z" fill="url(#paint2_linear)"/>
<path opacity="0.18" d="M99.58 103.19C112.437 103.19 122.86 92.7672 122.86 79.91C122.86 67.0528 112.437 56.63 99.58 56.63C86.7229 56.63 76.3 67.0528 76.3 79.91C76.3 92.7672 86.7229 103.19 99.58 103.19Z" fill="#1A237E"/>
<path d="M96.11 100.42C108.967 100.42 119.39 89.9972 119.39 77.14C119.39 64.2828 108.967 53.86 96.11 53.86C83.2528 53.86 72.83 64.2828 72.83 77.14C72.83 89.9972 83.2528 100.42 96.11 100.42Z" fill="white"/>
<path d="M99.95 62.34H90.46V91.16H99.95V62.34Z" fill="#D1D1D1"/>
<path d="M109.77 72H80.95V81.49H109.77V72Z" fill="#D1D1D1"/>
<path opacity="0.18" d="M402.49 55.03C402.433 69.5425 396.621 83.4396 386.329 93.6713C376.036 103.903 362.105 109.633 347.593 109.605C333.08 109.576 319.172 103.791 308.92 93.5194C298.668 83.2474 292.91 69.3276 292.91 54.815C292.91 40.3024 298.668 26.3827 308.92 16.1107C319.172 5.83866 333.08 0.0536043 347.593 0.02513C362.105 -0.00334426 376.036 5.72709 386.329 15.9588C396.621 26.1905 402.433 40.0876 402.49 54.6V55.03Z" fill="#1A237E"/>
<path d="M331.63 39.82C331.144 39.4509 330.55 39.2507 329.94 39.25C329.582 39.2831 329.237 39.407 328.94 39.61C328.381 39.9943 327.929 40.5144 327.627 41.1214C327.324 41.7284 327.181 42.4024 327.21 43.08C327.281 44.4441 327.83 45.7397 328.76 46.74C329.107 47.1763 329.542 47.5351 330.036 47.7934C330.531 48.0517 331.074 48.2039 331.63 48.24C331.825 48.24 332.018 48.1919 332.19 48.1C332.337 47.9594 332.452 47.7877 332.524 47.5974C332.597 47.4071 332.626 47.203 332.61 47C332.69 45.52 332.78 44.05 332.86 42.58C332.94 41.11 333 40.67 331.63 39.82Z" fill="#F7AF87"/>
<path d="M363.52 39.81C364.009 39.4483 364.601 39.2521 365.21 39.25C365.567 39.288 365.91 39.4115 366.21 39.61C366.765 39.9966 367.213 40.5177 367.512 41.1245C367.811 41.7314 367.952 42.4042 367.92 43.08C367.85 44.4445 367.302 45.7406 366.37 46.74C366.022 47.1744 365.586 47.5314 365.092 47.7879C364.598 48.0445 364.056 48.1951 363.5 48.23C363.304 48.2394 363.109 48.1907 362.94 48.09C362.792 47.9502 362.678 47.7784 362.607 47.5877C362.536 47.397 362.51 47.1925 362.53 46.99C362.44 45.52 362.36 43.99 362.28 42.57C362.2 41.15 362.19 40.67 363.52 39.81Z" fill="#F7AF87"/>
<path d="M386.19 92.46V94.03C375.897 104.207 362.003 109.909 347.528 109.898C333.053 109.887 319.168 104.163 308.89 93.97V87.82C308.89 87.82 313.73 69.7 330.47 67.65C347.21 65.6 365.33 68.36 365.33 68.36C365.33 68.36 383 70.65 386.19 92.46Z" fill="#1A237E"/>
<path d="M337.19 66.03C336.8 66.6984 336.571 67.448 336.52 68.22C336.541 68.6765 336.649 69.1247 336.84 69.54C337.576 71.2405 338.696 72.7475 340.111 73.9428C341.527 75.1382 343.2 75.9895 345 76.43C345.972 76.7329 346.982 76.8979 348 76.92C351.05 76.92 354.06 74.83 355.89 71.46C356.001 71.2884 356.069 71.0931 356.09 70.89C356.08 70.6269 356.009 70.3698 355.88 70.14C354.74 67.69 354.95 64.52 355.25 61.64C355.31 61.4038 355.31 61.1563 355.25 60.92C355.161 60.7451 355.006 60.6123 354.82 60.55C352.82 59.72 350.72 60.24 348.66 60.15C345.78 60.04 343 58.72 340.13 58.71C338.85 58.71 338.75 59.19 338.57 60.8C338.395 62.6063 337.929 64.3723 337.19 66.03Z" fill="#F7AF87"/>
<path d="M337.27 57.73C337.27 57.73 338.92 64.22 342.93 68.48C346.94 72.74 356.45 71.93 355.33 68.13C354.39 64.94 356.16 57.74 356.16 57.74L337.27 57.73Z" fill="url(#paint3_linear)"/>
<path d="M363.73 45.52C362.46 56.17 356.53 64.94 347.67 64.93C338.81 64.92 331.62 56.22 331.67 45.5C331.72 34.78 337.39 22.66 346.25 22.67C355.11 22.68 366.34 23.74 363.73 45.52Z" fill="#F7AF87"/>
<path d="M328.05 29.27C327.98 27.39 328.05 25.27 329.27 23.91C329.597 23.608 329.892 23.2729 330.15 22.91C330.358 22.4363 330.473 21.9271 330.49 21.41C330.97 17.41 333.88 14.02 337.23 11.73C340.89 9.23034 345.134 7.71819 349.55 7.33998C350.968 7.18801 352.401 7.25207 353.8 7.52998C355.204 7.87 356.552 8.41234 357.8 9.13998C359.837 10.1599 361.65 11.5778 363.13 13.31C363.867 14.1772 364.424 15.183 364.767 16.2683C365.111 17.3535 365.234 18.4964 365.13 19.63C366.101 20.0476 366.973 20.665 367.69 21.4421C368.407 22.2191 368.952 23.1384 369.29 24.14C369.938 26.2245 370.143 28.4217 369.89 30.59C369.46 35.75 367.48 41.04 363.36 44.18C363.421 40.5708 362.612 36.9999 361 33.77C360.387 32.6669 359.833 31.5319 359.34 30.37C358.869 29.1318 358.642 27.8144 358.67 26.49C356.94 27.41 355.93 29.29 354.31 30.37C353.268 30.9994 352.113 31.4205 350.91 31.61C347.047 32.37 343.06 32.2297 339.26 31.2C337.76 30.79 335.85 30.36 334.9 31.6C334.449 32.4533 334.251 33.4179 334.33 34.38C334.201 35.4292 333.949 36.4595 333.58 37.45L331.23 44.51C330.49 43.82 328.19 33.53 328.05 29.27Z" fill="#404040"/>
<path d="M330.27 44.46C330.182 43.8233 330 43.2032 329.73 42.62C329.666 42.5124 329.572 42.4256 329.46 42.37C329.373 42.344 329.281 42.3454 329.195 42.3741C329.109 42.4027 329.034 42.4572 328.98 42.53C328.869 42.6752 328.8 42.8482 328.78 43.03C328.652 43.728 328.707 44.4471 328.938 45.1179C329.169 45.7888 329.569 46.3887 330.1 46.86C330.276 47.0265 330.488 47.1497 330.72 47.22C330.836 47.2499 330.958 47.2491 331.074 47.2175C331.19 47.186 331.295 47.1248 331.38 47.04C332.24 46.03 330.5 45.3 330.27 44.46Z" fill="url(#paint4_linear)"/>
<path d="M365 44.03C365.098 43.3975 365.283 42.7815 365.55 42.2C365.608 42.0854 365.703 41.9938 365.82 41.94C365.906 41.9158 365.998 41.9192 366.082 41.9497C366.166 41.9802 366.239 42.0362 366.29 42.11C366.399 42.2524 366.468 42.4217 366.49 42.6C366.619 43.2989 366.565 44.0195 366.331 44.6909C366.098 45.3624 365.695 45.9617 365.16 46.43C364.989 46.5983 364.78 46.7219 364.55 46.79C364.434 46.82 364.312 46.8191 364.196 46.7876C364.08 46.756 363.975 46.6948 363.89 46.61C363 45.59 364.74 44.83 365 44.03Z" fill="url(#paint5_linear)"/>
<path opacity="0.18" d="M395.68 103.19C408.537 103.19 418.96 92.7672 418.96 79.91C418.96 67.0528 408.537 56.63 395.68 56.63C382.823 56.63 372.4 67.0528 372.4 79.91C372.4 92.7672 382.823 103.19 395.68 103.19Z" fill="#1A237E"/>
<path d="M392.21 100.42C405.067 100.42 415.49 89.9972 415.49 77.14C415.49 64.2828 405.067 53.86 392.21 53.86C379.353 53.86 368.93 64.2828 368.93 77.14C368.93 89.9972 379.353 100.42 392.21 100.42Z" fill="white"/>
<path d="M409.19 68.4L387.49 89.19L382.78 84.1L382.29 83.58L376.01 76.99L381.9 71.52L388.11 78.04L403.95 62.94L409.19 68.4Z" fill="#8EE88E"/>
<path opacity="0.18" d="M253.87 54.96C253.87 65.8242 250.648 76.4443 244.613 85.4775C238.577 94.5107 229.998 101.551 219.961 105.709C209.924 109.866 198.879 110.954 188.224 108.835C177.568 106.715 167.781 101.484 160.099 93.8014C152.417 86.1193 147.185 76.3317 145.065 65.6763C142.946 55.021 144.034 43.9764 148.191 33.9392C152.349 23.9021 159.389 15.3232 168.423 9.2874C177.456 3.25161 188.076 0.0300266 198.94 0.0300266C206.123 -0.000240972 213.242 1.38466 219.89 4.10567C226.538 6.82667 232.586 10.8305 237.686 15.8885C242.787 20.9465 246.842 26.9597 249.618 33.5847C252.395 40.2097 253.84 47.3167 253.87 54.5V54.96Z" fill="#1A237E"/>
<path d="M183 39.83C182.509 39.4696 181.919 39.2704 181.31 39.26C180.953 39.298 180.61 39.4215 180.31 39.62C179.751 40.0064 179.3 40.5285 179 41.1374C178.699 41.7462 178.558 42.4216 178.59 43.1C178.662 44.461 179.211 45.7532 180.14 46.75C180.487 47.1863 180.922 47.5451 181.416 47.8034C181.911 48.0618 182.453 48.2139 183.01 48.25C183.206 48.2594 183.401 48.2107 183.57 48.11C183.716 47.9725 183.831 47.8045 183.905 47.6179C183.98 47.4312 184.012 47.2305 184 47.03C184.08 45.56 184.17 44.03 184.25 42.61C184.33 41.19 184.37 40.69 183 39.83Z" fill="#F7AF87"/>
<path d="M214.9 39.8C215.386 39.4384 215.975 39.2421 216.58 39.24C216.94 39.2676 217.285 39.392 217.58 39.6C218.131 39.9817 218.578 40.4959 218.878 41.0953C219.179 41.6946 219.324 42.3599 219.3 43.03C219.228 44.391 218.68 45.6832 217.75 46.68C217.403 47.1163 216.968 47.4751 216.474 47.7334C215.979 47.9917 215.437 48.1439 214.88 48.18C214.684 48.185 214.491 48.1366 214.32 48.04C214.172 47.9002 214.058 47.7284 213.987 47.5377C213.916 47.347 213.89 47.1425 213.91 46.94C213.82 45.47 213.74 43.94 213.65 42.52C213.56 41.1 213.54 40.66 214.9 39.8Z" fill="#F7AF87"/>
<path d="M237.59 92.4V94.03C227.305 104.215 213.415 109.928 198.94 109.928C184.465 109.928 170.575 104.215 160.29 94.03V87.82C160.29 87.82 165.11 69.7 181.86 67.64C198.61 65.58 216.72 68.32 216.72 68.32C216.72 68.32 234.38 70.62 237.59 92.4Z" fill="#1A237E"/>
<path d="M188.62 66.03C188.23 66.6983 188.001 67.448 187.95 68.22C187.979 68.6764 188.091 69.1236 188.28 69.54C189.018 71.2457 190.141 72.7569 191.563 73.9543C192.984 75.1517 194.664 76.0026 196.47 76.44C197.442 76.7429 198.452 76.9078 199.47 76.93C202.47 76.93 205.53 74.84 207.36 71.46C207.47 71.2883 207.539 71.093 207.56 70.89C207.547 70.6261 207.472 70.3691 207.34 70.14C206.21 67.69 206.41 64.52 206.72 61.64C206.759 61.3993 206.742 61.153 206.67 60.92C206.578 60.7496 206.424 60.6208 206.24 60.56C204.24 59.73 202.14 60.24 200.08 60.16C197.2 60.05 194.42 58.74 191.55 58.73C190.27 58.73 190.17 59.21 189.99 60.81C189.817 62.6123 189.354 64.3748 188.62 66.03Z" fill="#F7AF87"/>
<path d="M188.66 57.74C188.66 57.74 190.31 64.23 194.33 68.48C198.35 72.73 207.85 71.92 206.72 68.13C205.78 64.94 207.55 57.74 207.55 57.74H188.66Z" fill="url(#paint6_linear)"/>
<path d="M215.11 45.51C213.85 56.16 207.93 64.93 199.11 64.93C190.29 64.93 183.05 56.24 183.05 45.51C183.05 34.78 188.76 22.67 197.62 22.67C206.48 22.67 217.71 23.73 215.11 45.51Z" fill="#F7AF87"/>
<path d="M179.42 29.29C179.34 27.41 179.42 25.29 180.63 23.93C180.957 23.628 181.252 23.2929 181.51 22.93C181.718 22.4563 181.834 21.9471 181.85 21.43C182.33 17.43 185.24 14.04 188.58 11.75C192.242 9.25166 196.484 7.73651 200.9 7.35C202.321 7.1996 203.757 7.26026 205.16 7.53C206.562 7.87892 207.908 8.42076 209.16 9.14C211.199 10.1624 213.014 11.5799 214.5 13.31C215.237 14.1773 215.794 15.183 216.138 16.2683C216.481 17.3535 216.604 18.4965 216.5 19.63C217.474 20.0443 218.35 20.6605 219.069 21.4379C219.788 22.2153 220.333 23.1362 220.67 24.14C221.321 26.2204 221.529 28.4143 221.28 30.58C220.85 35.74 218.88 41.04 214.76 44.17C214.829 40.5666 214.03 36.9995 212.43 33.77C211.87 32.64 211.21 31.55 210.76 30.37C210.299 29.1292 210.072 27.8136 210.09 26.49C208.37 27.41 207.36 29.29 205.73 30.38C204.691 31.0094 203.54 31.4305 202.34 31.62C198.477 32.38 194.49 32.2397 190.69 31.21C189.19 30.8 187.28 30.38 186.33 31.62C185.879 32.4733 185.681 33.4379 185.76 34.4C185.636 35.45 185.384 36.481 185.01 37.47L182.67 44.54C181.87 43.84 179.6 33.54 179.42 29.29Z" fill="#404040"/>
<path d="M181.65 44.46C181.552 43.8274 181.367 43.2115 181.1 42.63C181.042 42.5154 180.947 42.4238 180.83 42.37C180.744 42.3458 180.652 42.3492 180.568 42.3797C180.484 42.4102 180.411 42.4662 180.36 42.54C180.251 42.6824 180.181 42.8517 180.16 43.03C180.032 43.728 180.087 44.4471 180.318 45.118C180.549 45.7888 180.95 46.3888 181.48 46.86C181.656 47.0265 181.868 47.1498 182.1 47.22C182.216 47.25 182.338 47.2491 182.454 47.2176C182.57 47.186 182.675 47.1248 182.76 47.04C183.62 46.08 181.88 45.32 181.65 44.46Z" fill="url(#paint7_linear)"/>
<path d="M216.35 43.97C216.438 43.3333 216.62 42.7133 216.89 42.13C216.954 42.0224 217.048 41.9356 217.16 41.88C217.247 41.8605 217.338 41.8651 217.422 41.8933C217.507 41.9214 217.582 41.9722 217.64 42.04C217.741 42.1906 217.81 42.361 217.84 42.54C217.966 43.2389 217.91 43.9585 217.677 44.6294C217.444 45.3003 217.042 45.8998 216.51 46.37C216.339 46.5382 216.13 46.6619 215.9 46.73C215.784 46.76 215.662 46.7591 215.546 46.7275C215.43 46.696 215.325 46.6348 215.24 46.55C214.38 45.57 216.11 44.81 216.35 43.97Z" fill="url(#paint8_linear)"/>
<path opacity="0.18" d="M251.13 103.19C263.987 103.19 274.41 92.7672 274.41 79.91C274.41 67.0528 263.987 56.63 251.13 56.63C238.273 56.63 227.85 67.0528 227.85 79.91C227.85 92.7672 238.273 103.19 251.13 103.19Z" fill="#1A237E"/>
<path d="M247.66 100.42C260.517 100.42 270.94 89.9972 270.94 77.14C270.94 64.2828 260.517 53.86 247.66 53.86C234.803 53.86 224.38 64.2828 224.38 77.14C224.38 89.9972 234.803 100.42 247.66 100.42Z" fill="white"/>
<path d="M253.636 63.0893L233.257 83.4681L239.968 90.1786L260.347 69.7998L253.636 63.0893Z" fill="#F93D96"/>
<path d="M240.066 63.1994L233.356 69.9098L253.735 90.2886L260.445 83.5782L240.066 63.1994Z" fill="#F93D96"/>
</g>
<defs>
<linearGradient id="paint0_linear" x1="47.93" y1="71.74" x2="66.01" y2="46.1" gradientUnits="userSpaceOnUse">
<stop stop-opacity="0"/>
<stop offset="0.99"/>
</linearGradient>
<linearGradient id="paint1_linear" x1="141.942" y1="-252.576" x2="177.187" y2="-253.146" gradientUnits="userSpaceOnUse">
<stop stop-opacity="0"/>
<stop offset="0.99"/>
</linearGradient>
<linearGradient id="paint2_linear" x1="2878.25" y1="234.805" x2="2843.01" y2="235.375" gradientUnits="userSpaceOnUse">
<stop stop-opacity="0"/>
<stop offset="0.99"/>
</linearGradient>
<linearGradient id="paint3_linear" x1="6820.52" y1="1108.87" x2="7031.56" y2="693.405" gradientUnits="userSpaceOnUse">
<stop stop-opacity="0"/>
<stop offset="0.99"/>
</linearGradient>
<linearGradient id="paint4_linear" x1="1281.65" y1="235.877" x2="1316.9" y2="236.429" gradientUnits="userSpaceOnUse">
<stop stop-opacity="0"/>
<stop offset="0.99"/>
</linearGradient>
<linearGradient id="paint5_linear" x1="3464.17" y1="237.411" x2="3428.74" y2="237.987" gradientUnits="userSpaceOnUse">
<stop stop-opacity="0"/>
<stop offset="0.99"/>
</linearGradient>
<linearGradient id="paint6_linear" x1="3867.3" y1="-1130.38" x2="4077.93" y2="-715.354" gradientUnits="userSpaceOnUse">
<stop stop-opacity="0"/>
<stop offset="0.99"/>
</linearGradient>
<linearGradient id="paint7_linear" x1="704.189" y1="-252.576" x2="739.405" y2="-253.146" gradientUnits="userSpaceOnUse">
<stop stop-opacity="0"/>
<stop offset="0.99"/>
</linearGradient>
<linearGradient id="paint8_linear" x1="3152.41" y1="234.805" x2="3117.17" y2="235.375" gradientUnits="userSpaceOnUse">
<stop stop-opacity="0"/>
<stop offset="0.99"/>
</linearGradient>
<clipPath id="clip0">
<rect width="418.96" height="109.91" fill="white"/>
</clipPath>
</defs>
</svg>
