<svg width="402" height="130" viewBox="0 0 402 130" fill="none" xmlns="http://www.w3.org/2000/svg">
<g clip-path="url(#clip0)">
<path opacity="0.18" d="M125.39 62.69C125.39 73.7229 122.479 84.5604 116.951 94.1087C111.424 103.657 103.475 111.578 93.9071 117.072C84.3393 122.566 73.4915 125.438 62.4588 125.399C51.426 125.36 40.5987 122.411 31.07 116.85L33.63 119.17L2.85999 129.73L13.25 101.25C7.10904 93.3766 2.9373 84.1504 1.08192 74.3392C-0.773447 64.528 -0.258784 54.4156 2.58309 44.8435C5.42495 35.2714 10.5118 26.5164 17.4204 19.3072C24.329 12.0979 32.8594 6.64288 42.3019 3.39604C51.7443 0.149197 61.8257 -0.79555 71.7069 0.640413C81.5882 2.07638 90.9837 5.85152 99.1114 11.6517C107.239 17.4518 113.864 25.1093 118.435 33.9867C123.006 42.8642 125.39 52.7049 125.39 62.69Z" fill="#1A237E"/>
<path d="M52.03 83.81C52.03 83.81 34.79 84.16 26.03 98.55C26.03 98.55 21.46 119 22.03 123.36L33.33 118.24C33.67 119.17 50.27 125.73 64.74 125.08C91.43 123.89 103.52 110.37 103.52 110.37C103.52 110.37 100.69 91.18 84.87 86.82C69.05 82.46 52.03 83.81 52.03 83.81Z" fill="#1A237E"/>
<path d="M51.91 82.95C51.91 82.95 48.18 83.52 48.3 86.22C48.42 88.92 48.87 97.05 53.06 95.1C57.25 93.15 60.8 87.25 60.8 87.25L51.91 82.95Z" fill="white"/>
<path d="M71.28 82.95C71.28 82.95 75.01 83.52 74.9 86.22C74.79 88.92 74.32 97.05 70.14 95.1C65.96 93.15 62.4 87.25 62.4 87.25L71.28 82.95Z" fill="white"/>
<path d="M37.8099 44.03C37.8099 44.03 33.5699 70.86 44.2299 74.29C45.3926 74.9812 46.6847 75.4265 48.0263 75.5985C49.3679 75.7705 50.7305 75.6655 52.0299 75.29V83.77C52.0299 83.77 62.8 91.91 71.63 83.2V61.37C71.63 61.37 70.63 48.02 67.96 49.44C67.35 49.78 61.9599 49.22 61.0799 39.44C61.0799 39.44 48.6999 33.94 42.9699 37.72C37.2399 41.5 37.8099 44.03 37.8099 44.03Z" fill="#F7AF87"/>
<path d="M35.2 43.13C35.848 44.307 36.7266 45.3412 37.7833 46.1711C38.8399 47.001 40.053 47.6094 41.35 47.96C42.6572 48.2717 44.0296 48.162 45.2707 47.6465C46.5119 47.131 47.5582 46.2362 48.26 45.09C49.3308 46.5934 50.9172 47.6503 52.717 48.0597C54.5167 48.4691 56.4042 48.2022 58.02 47.31C59.44 49.31 62.15 49.86 64.58 49.71C67.6952 49.5699 70.6619 48.338 72.96 46.23C74.0769 45.1625 74.9296 43.8492 75.4504 42.3946C75.9711 40.9399 76.1456 39.3839 75.96 37.85C75.43 34.26 72.72 31.37 69.82 29.2C65.2357 25.7068 59.8019 23.5008 54.08 22.81C48.91 22.23 40.65 22.81 36.69 26.71C32.73 30.61 32.37 38.37 35.2 43.13Z" fill="#DD6034"/>
<path d="M52.03 75.37C52.03 75.37 58.56 73.65 60.97 70.67C60.97 70.67 57.64 83.74 52.03 83.85V75.37Z" fill="url(#paint0_linear)"/>
<path d="M65.28 45.95L65.75 55.2L67.61 52.66C67.89 52.27 68.27 51.85 68.74 51.93C69.21 52.01 69.32 52.34 69.48 52.66C70.2051 54.1506 70.4633 55.8255 70.2206 57.4653C69.978 59.1051 69.2458 60.6334 68.12 61.85C67.7236 62.1918 67.4004 62.6102 67.17 63.08C67.0582 63.4869 67.031 63.9123 67.09 64.33C67.28 67.03 71.26 70.2 71.94 68.24C72.62 66.28 72.75 64.15 73.39 62.17C74.4026 59.623 75.8247 57.2585 77.6 55.17C79.3926 53.0744 80.7521 50.6442 81.6 48.02C82.26 45.36 81.74 42.23 79.6 40.48C79.1981 40.2231 78.8569 39.8819 78.6 39.48C78.478 39.1606 78.4136 38.822 78.41 38.48C78.1728 35.1579 76.7991 32.0187 74.52 29.59C73.3734 28.3905 71.9856 27.4477 70.4481 26.8237C68.9105 26.1997 67.2582 25.9088 65.6 25.97C65.0383 25.9734 64.4846 26.1033 63.98 26.35C63.5204 26.6681 63.1325 27.0789 62.8415 27.556C62.5504 28.0331 62.3625 28.5659 62.29 29.12C61.22 34.12 63.54 39.12 64.41 44.2" fill="#DD6034"/>
<path opacity="0.18" d="M264.09 62.69C264.088 73.7231 261.175 84.5605 255.646 94.1083C250.118 103.656 242.168 111.577 232.6 117.07C223.031 122.564 212.183 125.436 201.15 125.398C190.117 125.359 179.289 122.411 169.76 116.85L172.32 119.17L141.52 129.73L151.9 101.25C145.762 93.376 141.593 84.15 139.74 74.3396C137.886 64.5293 138.403 54.4182 141.246 44.8477C144.089 35.2772 149.176 26.5239 156.084 19.3161C162.992 12.1083 171.522 6.65448 180.964 3.40829C190.405 0.162114 200.485 -0.782529 210.365 0.652954C220.245 2.08844 229.64 5.86254 237.767 11.6613C245.894 17.46 252.519 25.1157 257.091 33.9914C261.662 42.8671 264.048 52.7061 264.05 62.69H264.09Z" fill="#1A237E"/>
<path d="M190.44 83.81C190.44 83.81 173.2 84.16 164.44 98.55C164.44 98.55 158.44 119.17 159.04 123.55L172.36 119.19C179 122.9 188.97 125.74 203.15 125.1C229.89 123.91 241.93 110.36 241.93 110.36C241.93 110.36 239.1 91.17 223.28 86.81C207.46 82.45 190.44 83.81 190.44 83.81Z" fill="#1A237E"/>
<path d="M227.92 60.87C230.09 49.79 232.04 32.69 224.41 29.19L219.41 28.96C219.41 28.96 215.74 20.46 201.04 21.84C186.34 23.22 171.52 35.61 178.22 55.74C181.7 66.18 175.52 81.37 175.52 81.37L197.14 81.29L230.52 80.23C227.533 74.2429 226.618 67.4332 227.92 60.87Z" fill="#404040"/>
<path d="M224.64 43.82C224.64 43.82 228.88 70.65 218.22 74.09C217.058 74.7823 215.766 75.2284 214.424 75.4004C213.082 75.5724 211.719 75.4668 210.42 75.09V83.58C210.42 83.58 199.65 91.72 190.82 83V61.1C190.82 61.1 191.82 47.76 194.49 49.18C195.1 49.51 200.49 48.95 201.37 39.18C201.37 39.18 213.75 33.67 219.48 37.46C225.21 41.25 224.64 43.82 224.64 43.82Z" fill="#F7AF87"/>
<path d="M210.42 75.12C210.42 75.12 203.89 73.4 201.48 70.42C201.48 70.42 204.8 83.49 210.42 83.61V75.12Z" fill="url(#paint1_linear)"/>
<path d="M215.77 36.04C212.46 36.04 208.86 36.51 206.53 38.85C203.65 41.74 203.72 46.34 202.46 50.22C201.53 53.1762 199.667 55.7514 197.15 57.56C195.89 58.4484 194.465 59.0767 192.959 59.408C191.454 59.7394 189.897 59.7673 188.38 59.49C188.069 59.4572 187.767 59.3614 187.494 59.2084C187.22 59.0554 186.981 58.8484 186.79 58.6C186.579 58.1512 186.506 57.6502 186.58 57.16C186.87 51.66 187.52 45.97 190.36 41.26C191.945 38.6555 194.133 36.4707 196.74 34.89C198.254 33.923 199.96 33.2953 201.74 33.05C205.24 32.65 208.64 34.21 211.81 35.74" fill="#404040"/>
<path d="M190.33 82.95C190.33 82.95 186.6 83.52 186.72 86.22C186.84 88.92 187.29 97.05 191.48 95.1C195.67 93.15 199.22 87.25 199.22 87.25L190.33 82.95Z" fill="white"/>
<path d="M209.7 82.95C209.7 82.95 213.43 83.52 213.32 86.22C213.21 88.92 212.74 97.05 208.56 95.1C204.38 93.15 200.82 87.25 200.82 87.25L209.7 82.95Z" fill="white"/>
<path d="M199.81 100.05C200.953 100.05 201.88 99.1233 201.88 97.98C201.88 96.8368 200.953 95.91 199.81 95.91C198.667 95.91 197.74 96.8368 197.74 97.98C197.74 99.1233 198.667 100.05 199.81 100.05Z" fill="white"/>
<path d="M199.81 107.37C200.953 107.37 201.88 106.443 201.88 105.3C201.88 104.157 200.953 103.23 199.81 103.23C198.667 103.23 197.74 104.157 197.74 105.3C197.74 106.443 198.667 107.37 199.81 107.37Z" fill="white"/>
<path d="M199.81 114.69C200.953 114.69 201.88 113.763 201.88 112.62C201.88 111.477 200.953 110.55 199.81 110.55C198.667 110.55 197.74 111.477 197.74 112.62C197.74 113.763 198.667 114.69 199.81 114.69Z" fill="white"/>
<path opacity="0.18" d="M401.63 62.69C401.63 73.7229 398.719 84.5604 393.191 94.1086C387.664 103.657 379.715 111.578 370.147 117.072C360.579 122.566 349.732 125.438 338.699 125.399C327.666 125.36 316.839 122.411 307.31 116.85L309.86 119.17L279.1 129.73L289.52 101.25C283.382 93.376 279.213 84.15 277.36 74.3396C275.506 64.5293 276.023 54.4182 278.866 44.8477C281.709 35.2772 286.796 26.5239 293.704 19.3161C300.612 12.1083 309.142 6.65448 318.584 3.40829C328.025 0.162114 338.105 -0.782529 347.985 0.652954C357.865 2.08844 367.26 5.86254 375.387 11.6613C383.514 17.46 390.139 25.1157 394.711 33.9914C399.282 42.8671 401.668 52.7061 401.67 62.69H401.63Z" fill="#1A237E"/>
<path d="M327.99 83.81C327.99 83.81 310.75 84.16 301.94 98.55C301.94 98.55 295.94 119.17 296.54 123.55L309.86 119.19C316.5 122.9 326.47 125.74 340.66 125.1C367.39 123.91 379.43 110.36 379.43 110.36C379.43 110.36 376.6 91.17 360.78 86.81C344.96 82.45 327.99 83.81 327.99 83.81Z" fill="#1A237E"/>
<path d="M329.29 69.13C329.29 69.13 329.07 81.32 327.99 83.81C326.91 86.3 336.46 93.91 346.24 86.96L346.89 83.91C346.89 83.91 345.16 75.44 346.24 68.05C347.32 60.66 329.29 69.13 329.29 69.13Z" fill="#F7AF87"/>
<path d="M329.14 70.73C329.14 70.73 330.85 78.92 338.09 79.49C345.33 80.06 345.92 77.61 345.92 77.61L346.1 67.11L329.14 70.73Z" fill="url(#paint2_linear)"/>
<path d="M318.28 44.37C317.864 44.0687 317.387 43.8623 316.882 43.7656C316.378 43.6688 315.858 43.684 315.36 43.81C314.974 43.9713 314.631 44.2214 314.36 44.54C312.84 46.15 312.92 48.69 313.36 50.86C313.631 52.0775 313.999 53.2713 314.46 54.43C314.645 54.9682 314.919 55.4717 315.27 55.92C316.34 57.21 318.27 57.38 319.92 57.19C320.416 57.1901 320.905 57.0723 321.347 56.8463C321.788 56.6203 322.17 56.2925 322.46 55.89C322.611 55.5451 322.699 55.1759 322.72 54.8C323.14 50.43 322.11 46.69 318.28 44.37Z" fill="#F7AF87"/>
<path d="M359.61 46.15C360.84 45.29 362.44 44.63 363.82 45.22C364.36 45.4927 364.82 45.9019 365.153 46.4071C365.487 46.9123 365.682 47.4959 365.72 48.1C365.789 49.312 365.577 50.5235 365.1 51.64C364.629 53.0754 363.885 54.4064 362.91 55.56C361.914 56.7019 360.518 57.4178 359.01 57.56C358.257 57.6165 357.503 57.4587 356.836 57.1048C356.169 56.7508 355.616 56.2153 355.24 55.56C354.873 54.6808 354.702 53.732 354.74 52.78C354.671 52.0439 354.756 51.3014 354.99 50.6C355.58 49.15 358.35 47.02 359.61 46.15Z" fill="#F7AF87"/>
<path d="M358.34 50.26C356.78 63.33 349.51 74.09 338.63 74.09C327.75 74.09 318.93 63.42 318.93 50.26C318.93 37.1 325.93 22.26 336.81 22.26C347.69 22.26 361.52 23.53 358.34 50.26Z" fill="#F7AF87"/>
<path d="M318.94 44.25L319.12 47.17C319.12 47.63 319.27 48.17 319.72 48.3C320.17 48.43 320.61 47.62 320.62 47.02C320.62 44.62 319.87 41.91 321.36 40.02C321.733 39.6511 322.068 39.2457 322.36 38.81C322.98 37.56 322.04 35.97 322.6 34.69C322.93 33.96 323.66 33.51 324.19 32.9C324.84 31.9468 325.336 30.8974 325.66 29.79C325.78 29.4175 326.015 29.0922 326.33 28.86C326.631 28.7348 326.947 28.6507 327.27 28.61C328.49 28.3 329.21 27.05 330.27 26.4C331.229 25.9225 332.303 25.7217 333.37 25.82C337.54 25.95 341.88 27.43 345.74 25.82C347.326 28.0743 349.737 29.6122 352.45 30.1C352.676 30.1134 352.895 30.1896 353.08 30.32C353.258 30.535 353.376 30.7941 353.42 31.07C353.818 31.9492 354.382 32.7436 355.08 33.41C357.49 36.41 357.44 40.56 357.26 44.41L356.98 50.52L359.11 46.94C359.329 46.5221 359.616 46.1436 359.96 45.82C360.35 45.49 360.87 45.29 361.11 44.82C361.211 44.5857 361.269 44.335 361.28 44.08L361.8 38.84C361.952 37.8959 361.919 36.9311 361.7 36C361.52 35.42 361.2 34.89 361.02 34.31C360.82 33.2449 360.789 32.1547 360.93 31.08C360.999 30.5418 360.951 29.9949 360.789 29.4771C360.626 28.9592 360.354 28.4826 359.99 28.08C360.69 25.74 361.35 23.26 360.8 20.88C360.25 18.5 358.04 16.33 355.63 16.69C355.265 16.7869 354.885 16.8141 354.51 16.77C354.194 16.6615 353.904 16.4878 353.66 16.26C351.979 14.9358 349.927 14.167 347.79 14.06C345.273 13.9 342.747 13.9 340.23 14.06C334.57 14.53 328.63 13.36 323.34 15.4C322.066 15.8697 320.892 16.5754 319.88 17.48C318.835 18.5461 317.937 19.7467 317.21 21.05C316.804 21.6297 316.503 22.2762 316.32 22.96C316.235 23.7109 316.235 24.4691 316.32 25.22C316.32 27.73 315.04 30.22 315.46 32.67C315.61 33.58 315.98 34.43 316.11 35.34C316.18 36.1685 316.18 37.0015 316.11 37.83C316.041 39.9261 316.409 42.0137 317.19 43.96C317.32 44.29 317.53 44.67 317.89 44.7C318.25 44.73 318.62 43.86 318.94 44.25Z" fill="#404040"/>
<path d="M321.81 66.21C322.08 67.4194 322.497 68.5913 323.05 69.7C324.471 72.1107 326.71 73.9311 329.36 74.83C331.994 75.7061 334.754 76.1485 337.53 76.14C341.255 76.2405 344.983 76.0196 348.67 75.48C349.99 75.29 349.89 75 350.95 74.21C352.66 72.93 354.62 70.65 354.95 68.54C356.01 62.27 357.78 53.54 357.52 47.18C355.82 50.32 355.84 57.04 353.37 59.62C352.03 61.01 350.03 61.49 348.13 61.8C342.017 62.8123 335.773 62.7277 329.69 61.55C327.85 61.3415 326.111 60.5974 324.69 59.41C322.53 57.28 322.69 53.85 322.22 50.85C322.03 49.53 321.52 47.56 320.07 47.12C319.63 49.75 320.23 52.63 320.29 55.28C320.379 58.9693 320.889 62.6363 321.81 66.21Z" fill="#404040"/>
<path d="M316.93 48.56C316.934 48.2597 316.897 47.9603 316.82 47.67C316.779 47.5256 316.695 47.3972 316.579 47.3024C316.462 47.2075 316.32 47.1508 316.17 47.14C315.85 47.14 315.62 47.44 315.47 47.72C314.932 48.906 314.878 50.255 315.32 51.48C315.648 52.7297 316.419 53.8173 317.49 54.54C317.752 54.7351 318.063 54.8526 318.388 54.8792C318.714 54.9057 319.04 54.8401 319.33 54.69C320.33 54 319.94 51.98 319.04 51.42C318.49 51.08 318.04 51.12 317.61 50.52C317.199 49.9462 316.962 49.2654 316.93 48.56Z" fill="url(#paint3_linear)"/>
<path d="M361.41 48.56C361.406 48.2597 361.443 47.9603 361.52 47.67C361.561 47.5256 361.645 47.3972 361.761 47.3024C361.878 47.2075 362.02 47.1508 362.17 47.14C362.49 47.14 362.72 47.44 362.87 47.72C363.408 48.906 363.462 50.255 363.02 51.48C362.692 52.7297 361.921 53.8173 360.85 54.54C360.588 54.7351 360.277 54.8526 359.952 54.8792C359.626 54.9057 359.3 54.8401 359.01 54.69C358.01 54 358.41 51.98 359.3 51.42C359.85 51.08 360.3 51.12 360.73 50.52C361.142 49.9462 361.378 49.2654 361.41 48.56Z" fill="url(#paint4_linear)"/>
<path d="M350.25 78.82C349.248 78.3664 348.144 78.187 347.05 78.3C340.3 78.48 333.32 79.88 326.97 77.59C325.881 78.647 325.083 79.9658 324.65 81.42C324 84.49 326.59 87.34 329.39 88.74C334.12 91.12 339.66 91.07 344.94 90.74C347.01 90.62 349.25 90.41 350.79 89.01C353.24 86.83 353.37 80.57 350.25 78.82Z" fill="#1A237E"/>
<path d="M324.52 83.7C324.52 83.7 322.34 88.91 333.21 89.13C333.21 89.13 322.34 89.35 319.3 91.74C316.26 94.13 308.65 97.82 308.22 102.61C307.79 107.4 305.17 120.21 305.17 120.21L296.52 123.53L301.92 98.53C304.48 94.6502 307.804 91.3337 311.69 88.7837C315.576 86.2337 319.942 84.5038 324.52 83.7Z" fill="url(#paint5_linear)"/>
</g>
<defs>
<linearGradient id="paint0_linear" x1="58.81" y1="86.56" x2="51.36" y2="56.52" gradientUnits="userSpaceOnUse">
<stop stop-opacity="0"/>
<stop offset="0.99"/>
</linearGradient>
<linearGradient id="paint1_linear" x1="10417.1" y1="2734.54" x2="10552.8" y2="2363.6" gradientUnits="userSpaceOnUse">
<stop stop-opacity="0"/>
<stop offset="0.99"/>
</linearGradient>
<linearGradient id="paint2_linear" x1="6222.57" y1="2719" x2="6262.23" y2="1905.58" gradientUnits="userSpaceOnUse">
<stop stop-opacity="0"/>
<stop offset="0.99"/>
</linearGradient>
<linearGradient id="paint3_linear" x1="1906.34" y1="1342.16" x2="1955.91" y2="1337.62" gradientUnits="userSpaceOnUse">
<stop stop-opacity="0"/>
<stop offset="0.99"/>
</linearGradient>
<linearGradient id="paint4_linear" x1="4925.34" y1="1342.16" x2="4875.8" y2="1337.62" gradientUnits="userSpaceOnUse">
<stop stop-opacity="0"/>
<stop offset="0.99"/>
</linearGradient>
<linearGradient id="paint5_linear" x1="12489" y1="9742.48" x2="11005.7" y2="5029.29" gradientUnits="userSpaceOnUse">
<stop stop-opacity="0"/>
<stop offset="0.99"/>
</linearGradient>
<clipPath id="clip0">
<rect width="401.62" height="129.72" fill="white"/>
</clipPath>
</defs>
</svg>
