<svg width="399" height="393" viewBox="0 0 399 393" fill="none" xmlns="http://www.w3.org/2000/svg">
<g clip-path="url(#clip0)">
<path opacity="0.18" d="M397.85 163.23C392.06 208.65 368.26 249.64 342.7 287.62C312.49 332.52 274.62 378.21 221.7 389.56C202.43 393.7 182.47 392.89 162.83 391.22C141.83 389.44 120.49 386.59 101.33 377.75C71.2299 363.88 50.3299 337.13 32.6099 310.07C14.8899 283.01 -9.04007 254.75 3.45993 219.76C8.39993 205.95 19.3599 195.36 28.6799 184.04C56.6799 150.04 71.0199 107.04 94.0999 69.59C117.18 32.14 154.9 -2.22 198.86 0.11C220.43 1.25 240.42 11.11 261.12 17.26C278.25 22.35 296.28 25.04 313.54 29.57C325.68 32.76 337.44 36.84 348.21 43.33C355.397 47.6583 361.952 52.9584 367.69 59.08C392.7 85.63 402.56 126.25 397.85 163.23Z" fill="#1A237E"/>
<path d="M62.3899 315.97V187.74L336.45 168.57V296.79L193.22 363.34L62.3899 315.97Z" fill="#1A237E"/>
<path d="M336.45 168.57V296.79L193.22 363.33L192.96 363.24L62.3799 315.97V187.74L192.96 178.61L336.45 168.57Z" fill="url(#paint0_linear)"/>
<path d="M336.45 168.57V296.79L193.22 363.33L192.96 363.24V178.61L336.45 168.57Z" fill="url(#paint1_linear)"/>
<path d="M62.3899 187.74L205.17 125.44L336.45 168.57L193.22 235.11L62.3899 187.74Z" fill="#1A237E"/>
<path d="M367.69 59.08L367.53 59.2C356.14 67.02 343.46 72.82 330.99 78.81C308.52 89.58 287.91 100.47 266.19 112.65L266.08 112.72C264.18 118.72 258.56 122.65 252.88 125.23C247.2 127.81 241.04 129.55 235.97 133.23C232.735 135.56 230.066 138.588 228.16 142.09C227.576 143.381 226.812 144.583 225.89 145.66C224.625 146.729 223.145 147.513 221.55 147.96C213.55 150.84 204.8 153.74 196.55 151.4C193.002 150.202 189.637 148.519 186.55 146.4C184.831 145.493 183.342 144.203 182.2 142.63C181.439 141.237 180.992 139.694 180.89 138.11C179.36 124.54 185.95 111.06 195.38 101.18C204.81 91.3 216.86 84.4 228.72 77.64C234.63 74.27 241.93 72.99 248.58 71.54C274.14 65.97 294.51 47.44 313.54 29.57C325.54 32.72 337.21 36.76 347.89 43.14L348.21 43.33C355.397 47.6584 361.953 52.9584 367.69 59.08Z" fill="#F3BD8F"/>
<path d="M216.69 110.33C210.69 109.77 204.96 112.46 199.69 115.41C195.69 117.69 191.69 120.21 188.52 123.66C185.35 127.11 183.22 131.61 183.41 136.26C183.381 137.86 183.919 139.419 184.93 140.66C187.21 143.12 191.51 142.15 193.88 139.79C196.25 137.43 197.38 134.12 199.04 131.21C200.96 127.848 203.629 124.973 206.84 122.81C209.49 121.02 209.95 121.13 211.62 118.63C211.98 118.16 216.88 110.35 216.69 110.33Z" fill="url(#paint2_linear)"/>
<path d="M227.14 116.36C232.93 114.95 238.65 112.97 244.61 112.79C246.34 112.73 248.35 112.98 249.28 114.45C249.632 115.058 249.822 115.747 249.83 116.45C250.03 121.58 245.4 125.45 241.31 128.53C234.544 133.675 228.064 139.187 221.9 145.04C215.71 140.338 210.596 134.368 206.9 127.53C205.99 125.84 203.04 122.27 203.01 120.41C203.01 117.88 207.01 118.96 209.01 118.88C215.122 118.641 221.195 117.797 227.14 116.36Z" fill="url(#paint3_linear)"/>
<path d="M164.94 185.09L221.61 160.19L233.82 163.48L177.93 188.38L164.94 185.09Z" fill="url(#paint4_linear)"/>
<path d="M176.05 184.62L187.79 116.51L231.95 120.27L227.25 163.48L176.05 184.62Z" fill="white"/>
<path d="M209.39 126.81C209.309 127.864 209.48 128.923 209.888 129.898C210.297 130.874 210.932 131.738 211.74 132.42C214.15 134.24 217.74 133.53 220.2 131.82C222.66 130.11 224.5 127.6 226.69 125.5C234.06 118.44 245.55 116.42 251.85 108.38C252.367 107.839 252.669 107.128 252.7 106.38C252.62 105.38 251.7 104.67 250.79 104.17C243 99.77 231.21 99.84 223.28 104.17C216.75 107.78 209.65 119.65 209.39 126.81Z" fill="#F3BD8F"/>
<path d="M367.69 59.08L367.53 59.2C356.14 67.02 343.46 72.82 330.99 78.81C308.52 89.58 287.91 100.47 266.19 112.65C265.45 107.43 269.48 102.5 273.36 98.65C287.086 85.1788 302.414 73.4443 319 63.71C327 59.04 335.36 54.8 342.4 48.71C344.4 47.01 345.87 44.6 347.89 43.06L348.21 43.25C355.402 47.603 361.958 52.9301 367.69 59.08Z" fill="url(#paint5_linear)"/>
</g>
<defs>
<linearGradient id="paint0_linear" x1="262.54" y1="164.25" x2="-39.9501" y2="538.13" gradientUnits="userSpaceOnUse">
<stop offset="0.01"/>
<stop offset="0.13" stop-opacity="0.69"/>
<stop offset="1" stop-opacity="0"/>
</linearGradient>
<linearGradient id="paint1_linear" x1="43821.1" y1="36991.8" x2="-6671.13" y2="82973.2" gradientUnits="userSpaceOnUse">
<stop offset="0.01"/>
<stop offset="0.13" stop-opacity="0.69"/>
<stop offset="1" stop-opacity="0"/>
</linearGradient>
<linearGradient id="paint2_linear" x1="6434.27" y1="2882.34" x2="7636.33" y2="4865.31" gradientUnits="userSpaceOnUse">
<stop offset="0.01"/>
<stop offset="0.13" stop-opacity="0.69"/>
<stop offset="1" stop-opacity="0"/>
</linearGradient>
<linearGradient id="paint3_linear" x1="11211.4" y1="3501.49" x2="11473.2" y2="4768.38" gradientUnits="userSpaceOnUse">
<stop offset="0.01"/>
<stop offset="0.13" stop-opacity="0.69"/>
<stop offset="1" stop-opacity="0"/>
</linearGradient>
<linearGradient id="paint4_linear" x1="13429.9" y1="3575.13" x2="13693.4" y2="8607.74" gradientUnits="userSpaceOnUse">
<stop offset="0.01"/>
<stop offset="0.13" stop-opacity="0.69"/>
<stop offset="1" stop-opacity="0"/>
</linearGradient>
<linearGradient id="paint5_linear" x1="35988.7" y1="10517.1" x2="34031.7" y2="2206.04" gradientUnits="userSpaceOnUse">
<stop offset="0.01"/>
<stop offset="0.13" stop-opacity="0.69"/>
<stop offset="1" stop-opacity="0"/>
</linearGradient>
<clipPath id="clip0">
<rect width="398.99" height="392.59" fill="white"/>
</clipPath>
</defs>
</svg>
