<svg width="510" height="479" viewBox="0 0 510 479" fill="none" xmlns="http://www.w3.org/2000/svg">
<g clip-path="url(#clip0)">
<path opacity="0.25" d="M377.36 478.33C415.639 478.33 446.67 475.724 446.67 472.51C446.67 469.296 415.639 466.69 377.36 466.69C339.081 466.69 308.05 469.296 308.05 472.51C308.05 475.724 339.081 478.33 377.36 478.33Z" fill="#1A237E"/>
<path opacity="0.25" d="M481.74 0H27.6C12.3569 0 0 12.3569 0 27.6V287.47C0 302.713 12.3569 315.07 27.6 315.07H481.74C496.983 315.07 509.34 302.713 509.34 287.47V27.6C509.34 12.3569 496.983 0 481.74 0Z" fill="#1A237E"/>
<path opacity="0.25" d="M119.55 299.02C159.44 300.77 200.38 296.21 238.55 307.87C252.4 312.09 266.33 319.04 273.97 331.34C281.47 343.41 282.77 360.18 294.75 367.82C301.06 371.82 309.14 372.33 315.37 376.47C324.57 382.59 327.29 395.02 326.53 406.05C325.77 417.08 322.33 427.86 322.53 438.91C322.68 449.48 326.53 460.42 334.79 467.04C343.05 473.66 355.99 474.71 363.99 467.8C371.06 461.68 372.75 451.37 372.4 442.02C372.05 432.67 370.13 423.24 371.87 414.02C374.21 401.65 383 390.76 383.08 378.17C383.08 371.53 380.68 365.17 379.3 358.65C373.97 333.74 385.55 306.09 407.04 292.4C420.04 284.15 435.75 280.78 448.09 271.63C457.04 264.99 463.63 255.74 470.09 246.63C474.69 240.14 479.45 233.21 480.09 225.27C480.82 215.47 475.09 206.47 469.32 198.5C457.715 182.412 445.134 167.05 431.65 152.5C430.838 151.27 429.628 150.355 428.223 149.909C426.818 149.464 425.303 149.513 423.93 150.05C405.31 153.82 385.19 158.95 373.69 174.05C357.92 194.77 365.11 224.27 360.02 249.8C357.727 261.242 352.883 272.019 345.85 281.33C342.58 285.64 338.41 289.86 333.05 290.61C324.22 291.84 317.05 283.18 314.3 274.7C311.55 266.22 311.04 256.77 305.98 249.43C298.7 238.84 284.38 235.97 271.54 235.75C249.18 235.38 226.33 240.65 207.91 253.32C206.52 254.32 205.07 255.4 204.61 257.03C204.2 258.48 204.68 260.03 204.38 261.53C203.74 264.67 200.1 266.04 197 266.87C186.18 269.76 173.12 272.13 165 264.38C161 260.52 159.12 254.84 155.16 250.92C149.16 244.92 139.73 244.36 131.24 244.28C113.5 244.11 57.9901 235.47 54.7301 260.96C50.7801 291.39 99.2201 298.13 119.55 299.02Z" fill="#1A237E"/>
<path d="M158.8 64.2H50.1201V262.98H158.8V64.2Z" fill="url(#paint0_linear)"/>
<path d="M320.34 64.2H211.66V262.98H320.34V64.2Z" fill="url(#paint1_linear)"/>
<path d="M481.89 64.2H373.21V262.98H481.89V64.2Z" fill="url(#paint2_linear)"/>
<path d="M362.32 366.52C361.82 366.569 361.356 366.8 361.015 367.168C360.674 367.537 360.48 368.018 360.47 368.52C360.47 372.32 360.47 381.07 360.47 386.25C360.42 392.35 364.99 449.74 365.89 460.94C365.93 461.456 366.164 461.939 366.544 462.291C366.924 462.643 367.422 462.839 367.94 462.84H372.94C373.444 462.842 373.93 462.653 374.301 462.312C374.671 461.971 374.9 461.502 374.94 461L382.1 395.95C382.137 395.526 382.308 395.125 382.589 394.804C382.869 394.484 383.245 394.262 383.66 394.17C383.969 394.094 384.292 394.09 384.603 394.16C384.914 394.23 385.204 394.372 385.451 394.574C385.697 394.776 385.894 395.033 386.024 395.323C386.154 395.614 386.214 395.932 386.2 396.25L383.66 460.69C383.649 460.968 383.695 461.245 383.793 461.504C383.892 461.764 384.042 462.001 384.234 462.202C384.426 462.403 384.657 462.563 384.912 462.672C385.167 462.782 385.442 462.839 385.72 462.84H391.25C391.736 462.834 392.203 462.655 392.569 462.337C392.935 462.018 393.177 461.58 393.25 461.1C394.93 450.38 403.84 393.43 404.52 389.35C405.13 385.71 404.99 370.11 404.92 364.23C404.912 363.945 404.845 363.666 404.724 363.408C404.603 363.151 404.43 362.921 404.216 362.733C404.002 362.545 403.752 362.404 403.481 362.317C403.209 362.231 402.923 362.201 402.64 362.23L362.32 366.52Z" fill="#1A237E"/>
<path d="M404.6 389.4C403.92 393.48 395.01 450.4 393.33 461.15C393.257 461.63 393.015 462.068 392.649 462.387C392.283 462.705 391.815 462.884 391.33 462.89H385.8C385.522 462.889 385.247 462.832 384.992 462.722C384.737 462.613 384.506 462.453 384.314 462.252C384.121 462.051 383.972 461.814 383.873 461.554C383.774 461.295 383.729 461.018 383.74 460.74L386.28 396.3C386.3 396.022 386.261 395.742 386.166 395.48C386.071 395.217 385.922 394.977 385.729 394.776C385.536 394.574 385.303 394.415 385.045 394.309C384.787 394.203 384.509 394.152 384.23 394.16C384.065 394.161 383.9 394.181 383.74 394.22C383.324 394.312 382.949 394.534 382.668 394.854C382.388 395.175 382.217 395.576 382.18 396L375.02 461.05C374.987 461.422 374.851 461.778 374.626 462.076C374.402 462.375 374.098 462.605 373.75 462.74C373.506 462.84 373.244 462.891 372.98 462.89H367.98C367.462 462.889 366.963 462.693 366.583 462.341C366.203 461.989 365.97 461.506 365.93 460.99C365.03 449.79 360.46 392.4 360.51 386.3C360.56 381.43 360.51 373.39 360.51 369.3V368.61C360.52 368.108 360.714 367.627 361.055 367.258C361.396 366.89 361.86 366.659 362.36 366.61L402.76 362.35C403.043 362.321 403.329 362.351 403.6 362.437C403.871 362.524 404.122 362.665 404.336 362.853C404.55 363.041 404.723 363.271 404.844 363.528C404.965 363.786 405.032 364.065 405.04 364.35C405.07 370.16 405.21 385.76 404.6 389.4Z" fill="url(#paint3_linear)"/>
<path d="M152.84 55H38V256.85H152.84V55Z" fill="#1A237E"/>
<path d="M314.75 54.83H199.91V256.68H314.75V54.83Z" fill="#1A237E"/>
<path d="M476.83 54.83H361.99V256.68H476.83V54.83Z" fill="#1A237E"/>
<path d="M134.42 184.61C133.78 191.48 133.54 200.13 130.93 206.55C128.57 212.37 120.22 210.77 115.2 210.85C106.46 210.997 97.7233 210.917 88.99 210.61C84.7833 210.463 80.58 210.263 76.38 210.01C72.72 209.78 68.97 210.01 65.68 208.39C65.2145 208.347 64.7629 208.208 64.3534 207.983C63.9439 207.758 63.5853 207.45 63.3 207.08C60.91 203.87 61.24 199.17 61.07 195.29C60.7957 191.06 61.1325 186.813 62.07 182.68C62.1596 182.396 62.3373 182.148 62.5774 181.972C62.8175 181.796 63.1073 181.702 63.405 181.702C63.7026 181.702 63.9925 181.796 64.2325 181.972C64.4726 182.148 64.6503 182.396 64.74 182.68C65.74 186.87 66.27 191.11 67.07 195.35C67.47 197.43 68.13 199.46 68.48 201.5C71.37 201.17 74.48 201.79 77.33 201.98C81.21 202.24 85.09 202.45 88.97 202.61C96.73 202.943 104.497 203.1 112.27 203.08C114.54 203.08 116.8 203.08 119.07 203.03C120.19 203.03 122.33 203.34 123.78 203.19C123.43 202.83 124.32 201.13 124.54 200.03C124.91 198.22 125.24 196.4 125.54 194.58C126.207 190.667 126.707 186.733 127.04 182.78C127.2 181.01 128.13 177.06 127.87 174.61C125.64 174.52 122.94 175.26 120.99 175.44L112.3 176.25C106.507 176.797 100.717 177.377 94.93 177.99C88.8233 178.657 82.7166 179.263 76.61 179.81C70.86 180.34 64.97 179.98 59.28 180.6C57.48 180.79 57.09 177.74 58.86 177.45C67.7 175.99 76.38 173.51 85.34 172.26C93.34 171.14 101.34 170.26 109.4 169.33C113.26 168.9 117.13 168.46 120.99 168.07C124.23 167.74 128.56 166.42 131.71 167.77C137.42 170.21 134.86 179.93 134.42 184.61Z" fill="url(#paint4_linear)"/>
<path d="M77.7599 103.5C80.2142 106.874 83.0089 109.987 86.0999 112.79C79.3799 119.17 72.2299 126.66 69.2899 135.25C67.9099 139.25 73.5499 141.02 75.7199 137.96C78.7799 133.65 81.1499 128.96 84.5299 124.85C86.6699 122.24 88.9599 119.76 91.3199 117.34C99.0199 123.73 107.14 129.58 113.62 137.34C117.04 141.43 122.95 135.52 119.49 131.47C112.92 123.79 104.57 118.22 96.6799 112.06C103.94 105.06 111.27 98.17 117.61 90.26C119.49 87.92 116.39 84.59 114.23 86.89C107.17 94.39 99.1399 100.89 91.5099 107.8C87.7613 104.518 84.3142 100.907 81.2099 97.01C77.8999 92.86 74.5299 88.88 70.0399 85.96C68.0399 84.69 65.7599 87.65 67.5299 89.22C72.0199 93.21 74.3099 98.67 77.7599 103.5Z" fill="url(#paint5_linear)"/>
<path d="M233.7 114.76C241.44 111.36 247.04 103.76 253.57 98.59L256.57 96.22C259.2 98.29 261.81 100.4 264.49 102.45C268.5 105.578 272.731 108.412 277.15 110.93C281.64 113.44 287.28 117.12 292.55 116.09C295.01 115.61 295.27 112.56 293.91 110.94C292.08 108.78 290.23 108.4 287.62 107.34C284.528 106.067 281.521 104.594 278.62 102.93C274.08 100.34 269.85 97.28 265.55 94.33L262.02 91.9C263.13 91.03 264.24 90.16 265.33 89.27C267.33 87.67 269.33 86.09 271.33 84.42C272.56 83.37 276.33 78.84 277.95 79.25C278.319 79.3521 278.713 79.3036 279.046 79.1151C279.379 78.9266 279.623 78.6136 279.725 78.245C279.827 77.8763 279.779 77.4822 279.59 77.1494C279.402 76.8165 279.089 76.5721 278.72 76.47C274.93 75.47 272.26 78.06 269.17 80.05C265.01 82.72 260.99 85.61 256.97 88.5C251.297 84.636 245.213 81.413 238.83 78.89C236.22 77.89 234.34 82.27 236.91 83.43C242.12 85.8514 247.044 88.8465 251.59 92.36C248.5 94.56 245.43 96.8 242.53 99.24C238.53 102.64 234.97 106.31 230.06 108.46C225.73 110.35 229.44 116.61 233.7 114.76Z" fill="url(#paint6_linear)"/>
<path d="M301.02 137.35C277.852 136.986 254.685 138.102 231.66 140.69C231.218 139.944 230.546 139.362 229.746 139.031C228.945 138.7 228.058 138.639 227.219 138.855C226.38 139.072 225.633 139.555 225.093 140.232C224.552 140.909 224.246 141.744 224.22 142.61C223.91 148.79 223.98 155.01 223.9 161.21C223.9 164.87 222.82 169.96 226.63 172.1C230.44 174.24 237.31 172.47 241.56 172.19C247.967 171.77 254.373 171.267 260.78 170.68C272.4 169.6 284.78 168.87 296.14 166.29C299.98 165.42 301.47 163.09 301.98 159.29C302.81 153.05 303.46 146.78 304.21 140.52C304.41 138.79 302.58 137.37 301.02 137.35ZM296.02 154.61C295.67 157.3 296.42 159.44 293.34 159.96C290.82 160.38 288.23 160.54 285.69 160.82C276.76 161.82 267.81 162.53 258.86 163.25C254.373 163.61 249.887 163.943 245.4 164.25C242.84 164.41 240.28 164.55 237.71 164.69C236.01 164.78 233.47 164.38 231.94 164.97H231.73C231.73 164.35 231.73 163.74 231.73 163.12L231.85 157.54C231.94 153.25 232.11 148.94 232.1 144.65C253.8 143.44 275.68 143.18 297.41 143.65C296.957 147.29 296.493 150.943 296.02 154.61Z" fill="url(#paint7_linear)"/>
<path d="M290.78 190.83C279.18 190.75 267.54 190.83 255.95 191.36C246.78 191.79 236.86 191.69 228.18 195.09C226.39 193.32 222.89 194.74 222.51 197.59C221.41 205.84 222.84 214.78 223.39 223.07C223.52 225.07 225.08 227.15 227.3 226.98C244.19 225.61 261.38 223.24 278.3 223.67C281.3 223.75 285.56 224.96 288.39 223.89C290.96 222.89 291.49 220.48 292.03 218.05C293.709 210.184 294.381 202.136 294.03 194.1C294.015 193.241 293.668 192.421 293.062 191.812C292.457 191.202 291.639 190.851 290.78 190.83ZM285.61 216.27L285.38 217.27H285.1C284.1 216.6 281.58 216.93 280.28 216.85C276.73 216.63 273.17 216.61 269.62 216.68C256.76 216.95 243.9 218.02 231.06 218.88C230.87 212.13 230.84 205.1 229.49 198.57C238.75 196.11 249.44 197.41 258.85 197.28C268.42 197.15 277.99 197.17 287.56 197.28C287.56 199.74 287.49 202.21 287.3 204.68C287.02 208.61 285.8 212.46 285.61 216.27Z" fill="url(#paint8_linear)"/>
<path d="M402.96 124.09C406.07 124.48 409.56 125.32 412.58 124.01C418.27 121.53 417.2 114.53 417.2 109.47C417.2 100.98 417.27 92.47 417.2 84C417.15 77.6 414.7 75.38 408.34 76.34C400.019 77.5959 391.534 77.2565 383.34 75.34C382.621 75.1535 381.862 75.1926 381.166 75.452C380.471 75.7114 379.871 76.1785 379.45 76.79C379.096 76.7023 378.724 76.7179 378.378 76.8348C378.033 76.9518 377.728 77.1653 377.5 77.45C373.5 82.92 373.56 89.66 373.09 96.17C372.8 100.3 372.68 104.43 372.61 108.57C372.55 111.41 371.7 115.75 373.31 118.38C374.51 120.33 376.75 120.59 378.8 120.92C382.98 121.6 387.18 122.13 391.39 122.66L402.96 124.09ZM379.51 113.9C378.46 108.31 379.28 101.68 379.11 96.14C378.97 91.41 378.53 86.36 379.59 81.69C380.067 82.1407 380.658 82.4519 381.3 82.59C386.351 83.7781 391.505 84.4714 396.69 84.66C401 84.79 405.22 84.01 409.46 83.72C409.47 83.8131 409.47 83.9069 409.46 84C409.46 85.62 409.46 87.26 409.46 88.9V97.71C409.46 100.65 409.46 103.59 409.46 106.53C409.46 108.98 410.24 113.08 409.46 115.35C409.07 116.51 409.63 116.49 408.25 117.02C407.49 117.31 405.66 116.74 404.86 116.64C401.96 116.29 399.06 115.92 396.16 115.55C393.26 115.18 390.36 114.81 387.46 114.46C385.61 114.24 381.88 114.49 379.51 113.9Z" fill="url(#paint9_linear)"/>
<path d="M392.59 142.22C391.96 142.28 391.33 142.31 390.71 142.37C390.127 142.37 389.567 142.602 389.154 143.014C388.742 143.427 388.51 143.987 388.51 144.57C388.51 145.153 388.742 145.713 389.154 146.126C389.567 146.538 390.127 146.77 390.71 146.77H391.14C390.95 149.567 390.95 152.373 391.14 155.17C391.23 157.81 391.24 160.48 393.95 161.82C396.66 163.16 400.54 162.61 403.47 162.73L416.07 163.24L442.25 164.31C446.45 164.49 450.65 164.69 454.85 164.82C457.55 164.91 460.5 165.13 462.6 163.06C465.65 160.06 466.75 149.76 464.51 146.23C463.04 143.9 460.27 143.9 457.84 143.65C453.26 143.17 448.66 142.81 444.06 142.48C428.282 141.195 412.435 140.995 396.63 141.88C396.021 141.461 395.286 141.267 394.549 141.329C393.813 141.391 393.121 141.706 392.59 142.22ZM425.31 148.22C430.91 148.52 436.5 148.93 442.09 149.38C444.72 149.59 447.34 149.82 449.97 150.06C451.88 150.25 455.66 150.06 458.1 150.64C458.28 152.97 458.16 156.64 457.1 157.39C456.04 158.14 450.61 157.18 449.1 157.11L430.68 156.28L413.22 155.49L404.5 155.09L400.62 154.91C400.32 154.91 399.47 154.78 398.68 154.69C398.49 152.18 398.8 149.63 398.63 147.12C407.48 147.49 416.4 147.74 425.31 148.22Z" fill="url(#paint10_linear)"/>
<path d="M456.76 179.01C449.17 178.48 441.48 178.52 433.88 178.41C419.05 178.19 404.32 178.52 389.63 180.59C388.28 180.78 388.11 182.09 388.63 183.04C388.599 183.105 388.572 183.172 388.55 183.24C387.55 186.24 387.55 189.45 386.83 192.55C386.678 193.145 386.662 193.767 386.784 194.369C386.906 194.972 387.163 195.538 387.535 196.027C387.907 196.516 388.386 196.914 388.934 197.192C389.482 197.469 390.086 197.619 390.7 197.63C405.66 197.503 420.613 197.703 435.56 198.23C441.88 198.47 449.2 199.83 455.44 198.82C461.44 197.82 462.04 191.82 462.69 186.73C463.33 181.84 461.64 179.35 456.76 179.01ZM453.76 191.14C452.16 192.07 447.3 190.93 445.36 190.82C439.19 190.46 433.01 190.23 426.84 190.04C416.433 189.72 406.023 189.573 395.61 189.6C395.862 187.89 395.828 186.149 395.51 184.45C405.32 185.09 415.11 185.22 424.96 185.45C430.6 185.57 436.24 185.61 441.88 185.74L449.83 185.95L454.83 186.11L455.53 186.18C455.29 188.23 454.8 190.51 453.72 191.14H453.76Z" fill="url(#paint11_linear)"/>
<path d="M187.09 148.48C183.718 146.673 180.242 145.067 176.68 143.67C176.128 143.508 175.542 143.5 174.985 143.647C174.428 143.793 173.922 144.088 173.52 144.5C173.225 144.808 172.988 145.167 172.82 145.56L172.69 145.93C172.524 146.482 172.514 147.069 172.66 147.627C172.806 148.184 173.104 148.691 173.52 149.09C174.664 149.961 175.86 150.762 177.1 151.49L176.1 151.54C172.42 151.71 168.5 151.76 164.96 152.84C161.76 153.84 161.57 158.63 164.96 159.52C168.55 160.46 172.41 160.39 176.1 160.41H177.1C175.812 161.79 174.66 163.29 173.66 164.89C171.2 169.06 176.6 172.52 179.98 169.77C182.77 167.5 184.93 164.36 187.24 161.62C189.02 159.51 191.87 157.2 191.91 154.2C191.95 151.2 189.53 149.75 187.09 148.48Z" fill="url(#paint12_linear)"/>
<path d="M348.24 148.39C345.093 146.362 341.694 144.755 338.13 143.61C336.35 143.12 332.75 143.66 332.94 146.3C333.08 148.3 334.49 149.87 336.33 151.16C334.57 151.35 332.8 151.46 331.02 151.48C328.5 151.48 325.69 151.4 323.32 152.35C322.821 152.508 322.378 152.804 322.042 153.205C321.706 153.606 321.491 154.095 321.423 154.613C321.355 155.132 321.436 155.659 321.657 156.133C321.877 156.607 322.229 157.009 322.67 157.29C326.2 159.77 331.26 159.78 335.93 159.29C334.5 161.18 332.93 163.05 333 165.51C333 167.73 335.33 169.83 337.61 169.02C340.48 168.02 341.66 165.55 343.34 163.16C345.48 160.11 347.61 157.06 349.71 153.98C350.242 153.041 350.387 151.93 350.112 150.886C349.837 149.842 349.166 148.946 348.24 148.39Z" fill="url(#paint13_linear)"/>
<path d="M318.14 273.61C317.19 273.7 316.48 272.8 315.92 272.02C314.324 269.772 312.452 267.733 310.35 265.95C310.345 267.872 311.018 269.735 312.25 271.21L310.55 267.65C310.37 267.27 310.04 266.83 309.64 266.96C309.24 267.09 309.25 267.45 309.23 267.77C309.124 269.606 309.726 271.413 310.91 272.82L309.78 270.17C309.61 269.78 309.36 269.33 308.93 269.32C308.5 269.31 308.16 269.98 308.15 270.5C308.137 271.397 308.33 272.284 308.715 273.094C309.1 273.904 309.666 274.614 310.37 275.17C310.155 274.678 309.824 274.245 309.407 273.907C308.989 273.57 308.496 273.337 307.97 273.23C307.65 274.49 308.61 275.71 309.58 276.59C312.49 279.27 322.44 286.38 324.13 279.06C324.57 277.17 323.26 276.12 322.13 274.77C320.45 272.69 320.24 269.61 318.45 267.77C318.36 268.19 317.7 273.66 318.14 273.61Z" fill="url(#paint14_linear)"/>
<path d="M444.82 270.13H445.77C446.03 271.403 446.24 272.683 446.4 273.97C446.48 274.68 446.76 275.61 447.48 275.61C447.693 275.579 447.896 275.496 448.07 275.368C448.244 275.241 448.385 275.074 448.48 274.88C449.9 272.78 450.06 270.12 450.29 267.6C450.29 267.21 450.5 266.7 450.89 266.75C451.28 266.8 451.31 267.19 451.34 267.51C451.515 269.302 451.515 271.108 451.34 272.9C451.223 271.427 451.467 269.948 452.05 268.59C452.46 268.53 452.66 269.07 452.7 269.48C452.84 271.02 452.711 272.573 452.32 274.07C452.441 273.1 452.648 272.143 452.94 271.21C453.03 270.92 453.25 270.57 453.54 270.66C453.83 270.75 453.81 270.99 453.83 271.2C453.996 272.872 453.756 274.56 453.13 276.12C453.218 275.327 453.413 274.55 453.71 273.81C453.89 273.72 454.05 273.99 454.07 274.2C454.072 275.437 453.726 276.651 453.07 277.7C451.53 280.7 447.07 288.64 444.87 282C444.38 280.53 444.44 270.13 444.82 270.13Z" fill="url(#paint15_linear)"/>
<path d="M384.13 236.3C384.13 236.3 376.13 245.15 374.92 254.53C373.71 263.91 381.5 266.04 382.3 266.76C383.1 267.48 382.3 275.67 382.3 275.67C382.3 275.67 398.74 280.18 396.91 277.55C393.15 272.17 399.21 265.45 399.21 265.45C399.21 265.45 412.93 232.34 384.13 236.3Z" fill="url(#paint16_linear)"/>
<path d="M382.64 225.85C383.235 223.711 384.378 221.764 385.956 220.203C387.535 218.642 389.494 217.521 391.64 216.95C390.541 218.736 389.841 220.738 389.59 222.82C390.069 221.536 390.83 220.375 391.816 219.424C392.803 218.472 393.989 217.753 395.29 217.32C397.906 216.473 400.695 216.315 403.39 216.86C401.885 217.493 400.504 218.387 399.31 219.5L405.16 218.5C403.87 218.56 403.07 220.08 403.29 221.34C403.634 222.59 404.375 223.696 405.4 224.49C407.89 226.78 410.78 228.63 413.18 231.02C415.58 233.41 417.55 236.53 417.49 239.92C417.44 243.12 415.58 246.07 413.18 248.19C412.711 248.535 412.328 248.984 412.06 249.5C411.906 250.029 411.842 250.58 411.87 251.13C411.72 254.42 408.87 256.85 406.09 258.65C403.31 260.45 400.25 262.31 399.21 265.43C398.407 264.892 397.73 264.188 397.225 263.365C396.719 262.541 396.397 261.619 396.28 260.66C395.737 260.83 395.233 261.106 394.797 261.472C394.362 261.837 394.002 262.285 393.74 262.79C392.941 261.743 392.518 260.457 392.54 259.14C391.548 259.589 390.682 260.276 390.02 261.14L390.12 252.07C391.06 253.67 393.55 252.79 394.91 251.54C396.42 250.14 397.74 247.94 396.78 246.12C395.91 244.49 393.53 244.19 391.88 245.04C390.302 246.032 389.045 247.459 388.26 249.15C387.21 247.77 387.93 245.78 388.82 244.29C389.71 242.8 390.76 241.29 390.25 239.58C383.61 240.85 381.38 230.61 382.64 225.85Z" fill="#25233A"/>
<path d="M447.96 284.61L447.66 285.22C445.34 289.88 430.24 319.78 423.75 320.82C416.75 321.94 407.98 312.56 407.98 312.56V313.5L407.09 355.75C407.031 358.566 405.919 361.257 403.974 363.293C402.028 365.33 399.39 366.563 396.58 366.75L370.09 368.54L366.53 368.78C365.323 368.86 364.113 368.677 362.983 368.245C361.853 367.813 360.83 367.142 359.984 366.278C359.137 365.413 358.488 364.376 358.08 363.237C357.672 362.099 357.515 360.885 357.62 359.68L362.02 310.23C362.02 310.23 352.21 322.23 344.1 320.04C335.99 317.85 319.32 282.28 319.32 282.28L324.16 279.07L346.02 299.3C346.02 299.3 347.43 298.17 355.02 286.35C362.61 274.53 373.32 273.11 377.02 272.27C378.785 272.105 380.563 272.172 382.31 272.47C390.31 273.41 404.06 276.32 407.71 277.55C412.5 279.18 416.71 296.2 421.23 299.3C425.75 302.4 441.31 281.35 441.77 280.73L444.48 282.42L447.96 284.61Z" fill="#1A237E"/>
<path d="M367.35 462.89V467.2L373.35 466.73L373.73 462.89H367.35Z" fill="url(#paint17_linear)"/>
<path d="M384.8 462.89V467.2L390.81 466.73L391.18 462.89H384.8Z" fill="url(#paint18_linear)"/>
<path d="M373.92 464.97C372.424 466.012 370.643 466.567 368.82 466.56C368.472 466.585 368.125 466.509 367.82 466.34C367.52 466.14 367.34 465.78 367.03 465.59C366.756 465.486 366.463 465.447 366.171 465.474C365.88 465.502 365.599 465.597 365.35 465.75L361.25 467.54C359.574 468.097 358.088 469.112 356.96 470.47C356.609 470.942 356.416 471.512 356.41 472.1C356.475 472.564 356.644 473.007 356.903 473.396C357.163 473.786 357.507 474.112 357.91 474.35C359.665 475.506 361.74 476.08 363.84 475.99C365.926 475.907 367.998 475.601 370.02 475.08C371.069 474.952 372.057 474.517 372.86 473.83C373.391 473.208 373.738 472.449 373.86 471.64C374.11 470.45 374.09 469.24 374.32 468.06C374.35 467.81 374.28 464.71 373.92 464.97Z" fill="#25233A"/>
<path d="M389.24 467.11C389.81 466.94 390.55 465.04 391.14 464.96C392.34 464.8 393.47 466.12 394.49 466.78C396.157 467.726 397.659 468.935 398.94 470.36C399.94 471.58 400.48 473.47 399.42 474.59C398.67 475.38 395.26 475.43 396.35 475.42C398.35 475.42 392.35 475.42 390.35 475.42C389.28 475.385 388.214 475.275 387.16 475.09C382.51 474.41 384.11 469.91 383.99 467.58C383.72 462.85 386.61 467.89 389.24 467.11Z" fill="#25233A"/>
<path d="M368.02 359.84C367.752 362.877 368.475 365.918 370.08 368.51L366.52 368.75C365.313 368.829 364.103 368.647 362.973 368.215C361.843 367.783 360.82 367.112 359.973 366.248C359.127 365.383 358.478 364.346 358.07 363.207C357.662 362.069 357.505 360.855 357.61 359.65L362.02 310.23C362.65 306.23 371.24 299.8 371.02 303.05C369.41 328.02 368.24 356.09 368.02 359.84Z" fill="url(#paint19_linear)"/>
<path d="M447.66 285.19C445.34 289.85 430.24 319.75 423.75 320.79C416.75 321.91 407.98 312.53 407.98 312.53V313.47C407.667 311.087 407.875 308.664 408.59 306.37C408.77 305.77 409.11 305.08 409.74 305.04C410.37 305 410.63 305.41 410.97 305.77C413.272 308.252 415.977 310.328 418.97 311.91C420.151 312.617 421.494 313.01 422.87 313.05C424.67 312.97 426.24 311.86 427.69 310.78C428.928 309.936 430.068 308.956 431.09 307.86C433.09 305.5 433.97 302.37 435.09 299.47C437.09 294.47 440.14 290.02 443.22 285.63C443.613 284.933 444.214 284.377 444.94 284.04C445.457 283.906 446.003 283.946 446.495 284.154C446.986 284.362 447.396 284.726 447.66 285.19Z" fill="url(#paint20_linear)"/>
<path d="M382.3 272.47C378.406 274.175 374.634 276.146 371.01 278.37C364.48 282.32 350.01 304.09 346.01 304.65C342.01 305.21 324.1 279.07 324.1 279.07L346.02 299.3C346.02 299.3 347.43 298.17 355.02 286.35C362.61 274.53 373.32 273.11 377.02 272.27C378.781 272.106 380.556 272.173 382.3 272.47Z" fill="url(#paint21_linear)"/>
<path d="M444.48 282.41C444.48 282.41 438.07 294.97 431.48 300.72C430.739 301.333 429.88 301.786 428.956 302.052C428.032 302.318 427.064 302.391 426.111 302.266C425.157 302.141 424.24 301.822 423.416 301.327C422.592 300.832 421.878 300.173 421.32 299.39L421.26 299.3C425.69 302.35 441.34 281.35 441.8 280.73L444.48 282.41Z" fill="url(#paint22_linear)"/>
<path d="M373.73 462.89H367.93C367.412 462.889 366.913 462.693 366.533 462.341C366.153 461.989 365.92 461.506 365.88 460.99C364.98 449.79 360.41 392.4 360.46 386.3C360.51 381.43 360.46 373.39 360.46 369.3L362.31 366.53L370.06 368.53C370.06 368.53 368.28 393.11 370.06 403.59C371.78 413.73 373.6 459.82 373.71 462.76C373.73 462.84 373.73 462.89 373.73 462.89Z" fill="url(#paint23_linear)"/>
<path d="M388.02 462.89H385.8C385.522 462.889 385.247 462.832 384.992 462.722C384.737 462.613 384.506 462.453 384.314 462.252C384.122 462.051 383.972 461.814 383.873 461.554C383.775 461.295 383.729 461.018 383.74 460.74L386.28 396.3C386.3 396.022 386.261 395.742 386.166 395.48C386.071 395.217 385.922 394.977 385.729 394.776C385.536 394.574 385.303 394.415 385.045 394.309C384.787 394.203 384.509 394.152 384.23 394.16C386.28 392.32 390.23 394.16 391.05 401.58C392.65 417.19 388.02 462.89 388.02 462.89Z" fill="url(#paint24_linear)"/>
</g>
<defs>
<linearGradient id="paint0_linear" x1="260.82" y1="233.23" x2="-265.13" y2="-1.02998" gradientUnits="userSpaceOnUse">
<stop stop-opacity="0"/>
<stop offset="0.97"/>
</linearGradient>
<linearGradient id="paint1_linear" x1="46114.8" y1="46425.7" x2="-18551.4" y2="30678.6" gradientUnits="userSpaceOnUse">
<stop stop-opacity="0"/>
<stop offset="0.97"/>
</linearGradient>
<linearGradient id="paint2_linear" x1="63832.6" y1="46425.7" x2="-832.686" y2="30678.5" gradientUnits="userSpaceOnUse">
<stop stop-opacity="0"/>
<stop offset="0.97"/>
</linearGradient>
<linearGradient id="paint3_linear" x1="18339.6" y1="56560.2" x2="21011.9" y2="39491.4" gradientUnits="userSpaceOnUse">
<stop stop-opacity="0"/>
<stop offset="0.97"/>
</linearGradient>
<linearGradient id="paint4_linear" x1="9750.92" y1="9946.31" x2="9709.13" y2="18287.3" gradientUnits="userSpaceOnUse">
<stop stop-opacity="0"/>
<stop offset="0.97"/>
</linearGradient>
<linearGradient id="paint5_linear" x1="6781.24" y1="21999.9" x2="6141.58" y2="-18215.8" gradientUnits="userSpaceOnUse">
<stop stop-opacity="0"/>
<stop offset="0.97"/>
</linearGradient>
<linearGradient id="paint6_linear" x1="19728.7" y1="16253.3" x2="19444.4" y2="-13634" gradientUnits="userSpaceOnUse">
<stop stop-opacity="0"/>
<stop offset="0.97"/>
</linearGradient>
<linearGradient id="paint7_linear" x1="23938" y1="14632" x2="23749.1" y2="-12150.3" gradientUnits="userSpaceOnUse">
<stop stop-opacity="0"/>
<stop offset="0.97"/>
</linearGradient>
<linearGradient id="paint8_linear" x1="20969" y1="14820.9" x2="20753.8" y2="-12204.1" gradientUnits="userSpaceOnUse">
<stop stop-opacity="0"/>
<stop offset="0.97"/>
</linearGradient>
<linearGradient id="paint9_linear" x1="19533.9" y1="19977.1" x2="18889.2" y2="-16976.9" gradientUnits="userSpaceOnUse">
<stop stop-opacity="0"/>
<stop offset="0.97"/>
</linearGradient>
<linearGradient id="paint10_linear" x1="35732.5" y1="9602.19" x2="35647.5" y2="-7991.66" gradientUnits="userSpaceOnUse">
<stop stop-opacity="0"/>
<stop offset="0.97"/>
</linearGradient>
<linearGradient id="paint11_linear" x1="35012.4" y1="8547.84" x2="34944.9" y2="-7014.74" gradientUnits="userSpaceOnUse">
<stop stop-opacity="0"/>
<stop offset="0.97"/>
</linearGradient>
<linearGradient id="paint12_linear" x1="6210.82" y1="5345.3" x2="6182.38" y2="9145.43" gradientUnits="userSpaceOnUse">
<stop stop-opacity="0"/>
<stop offset="0.97"/>
</linearGradient>
<linearGradient id="paint13_linear" x1="10826.1" y1="5098.79" x2="10800.1" y2="8694.84" gradientUnits="userSpaceOnUse">
<stop stop-opacity="0"/>
<stop offset="0.97"/>
</linearGradient>
<linearGradient id="paint14_linear" x1="307.91" y1="274.12" x2="324.22" y2="274.12" gradientUnits="userSpaceOnUse">
<stop stop-color="#ECC4D7"/>
<stop offset="0.42" stop-color="#EFD4D1"/>
<stop offset="1" stop-color="#F2EAC9"/>
</linearGradient>
<linearGradient id="paint15_linear" x1="4957.49" y1="6561.91" x2="5049.28" y2="6561.91" gradientUnits="userSpaceOnUse">
<stop stop-color="#ECC4D7"/>
<stop offset="0.42" stop-color="#EFD4D1"/>
<stop offset="1" stop-color="#F2EAC9"/>
</linearGradient>
<linearGradient id="paint16_linear" x1="11524.9" y1="14422.1" x2="12291.4" y2="14422.1" gradientUnits="userSpaceOnUse">
<stop stop-color="#ECC4D7"/>
<stop offset="0.42" stop-color="#EFD4D1"/>
<stop offset="1" stop-color="#F2EAC9"/>
</linearGradient>
<linearGradient id="paint17_linear" x1="2710.98" y1="2467.21" x2="2751.75" y2="2467.21" gradientUnits="userSpaceOnUse">
<stop stop-color="#ECC4D7"/>
<stop offset="0.42" stop-color="#EFD4D1"/>
<stop offset="1" stop-color="#F2EAC9"/>
</linearGradient>
<linearGradient id="paint18_linear" x1="2839.83" y1="2467.21" x2="2880.53" y2="2467.21" gradientUnits="userSpaceOnUse">
<stop stop-color="#ECC4D7"/>
<stop offset="0.42" stop-color="#EFD4D1"/>
<stop offset="1" stop-color="#F2EAC9"/>
</linearGradient>
<linearGradient id="paint19_linear" x1="5478.96" y1="30465.1" x2="10251.2" y2="27806.1" gradientUnits="userSpaceOnUse">
<stop stop-opacity="0"/>
<stop offset="0.97"/>
</linearGradient>
<linearGradient id="paint20_linear" x1="18582.4" y1="14025" x2="17855.6" y2="16592.1" gradientUnits="userSpaceOnUse">
<stop stop-opacity="0"/>
<stop offset="0.97"/>
</linearGradient>
<linearGradient id="paint21_linear" x1="349.81" y1="270.26" x2="374.61" y2="310.45" gradientUnits="userSpaceOnUse">
<stop stop-color="white" stop-opacity="0"/>
<stop offset="0.09" stop-color="white" stop-opacity="0.03"/>
<stop offset="0.22" stop-color="white" stop-opacity="0.11"/>
<stop offset="0.38" stop-color="white" stop-opacity="0.25"/>
<stop offset="0.56" stop-color="white" stop-opacity="0.43"/>
<stop offset="0.76" stop-color="white" stop-opacity="0.67"/>
<stop offset="0.97" stop-color="white" stop-opacity="0.96"/>
<stop offset="1" stop-color="white"/>
</linearGradient>
<linearGradient id="paint22_linear" x1="11437.1" y1="8218.37" x2="10845.5" y2="8291.87" gradientUnits="userSpaceOnUse">
<stop stop-color="white" stop-opacity="0"/>
<stop offset="0.09" stop-color="white" stop-opacity="0.03"/>
<stop offset="0.22" stop-color="white" stop-opacity="0.11"/>
<stop offset="0.38" stop-color="white" stop-opacity="0.25"/>
<stop offset="0.56" stop-color="white" stop-opacity="0.43"/>
<stop offset="0.76" stop-color="white" stop-opacity="0.67"/>
<stop offset="0.97" stop-color="white" stop-opacity="0.96"/>
<stop offset="1" stop-color="white"/>
</linearGradient>
<linearGradient id="paint23_linear" x1="5866.08" y1="47741.9" x2="5233" y2="47744" gradientUnits="userSpaceOnUse">
<stop stop-opacity="0"/>
<stop offset="0.97"/>
</linearGradient>
<linearGradient id="paint24_linear" x1="3679.16" y1="35451.5" x2="3396.35" y2="35452.2" gradientUnits="userSpaceOnUse">
<stop stop-opacity="0"/>
<stop offset="0.97"/>
</linearGradient>
<clipPath id="clip0">
<rect width="509.34" height="478.33" fill="white"/>
</clipPath>
</defs>
</svg>
